<svg width="252" height="132" viewBox="0 0 252 132" fill="none" xmlns="http://www.w3.org/2000/svg">
<g filter="url(#filter0_d_1746_52171)">
<rect x="29" y="28" width="194" height="74" rx="7" fill="white"/>
</g>
<path d="M85.804 56.12C85.156 56.12 84.576 55.98 84.064 55.7C83.56 55.412 83.16 55.02 82.864 54.524C82.576 54.028 82.432 53.46 82.432 52.82C82.432 52.18 82.576 51.616 82.864 51.128C83.16 50.632 83.56 50.24 84.064 49.952C84.576 49.664 85.156 49.52 85.804 49.52C86.444 49.52 87.016 49.664 87.52 49.952C88.032 50.24 88.432 50.632 88.72 51.128C89.008 51.616 89.152 52.18 89.152 52.82C89.152 53.46 89.008 54.028 88.72 54.524C88.432 55.02 88.032 55.412 87.52 55.7C87.016 55.98 86.444 56.12 85.804 56.12ZM85.804 54.632C86.116 54.632 86.396 54.556 86.644 54.404C86.892 54.244 87.084 54.028 87.22 53.756C87.364 53.476 87.436 53.164 87.436 52.82C87.436 52.468 87.364 52.156 87.22 51.884C87.084 51.604 86.892 51.388 86.644 51.236C86.396 51.076 86.116 50.996 85.804 50.996C85.484 50.996 85.2 51.076 84.952 51.236C84.704 51.396 84.508 51.612 84.364 51.884C84.22 52.156 84.152 52.468 84.16 52.82C84.152 53.164 84.22 53.476 84.364 53.756C84.508 54.028 84.704 54.244 84.952 54.404C85.2 54.556 85.484 54.632 85.804 54.632ZM92.2503 56L89.5863 49.652H91.4583L93.1503 54.392L92.7543 54.464L94.5303 49.652H96.3543L93.5583 56H92.2503ZM100.231 56.12C99.5432 56.12 98.9432 55.98 98.4312 55.7C97.9192 55.42 97.5192 55.036 97.2312 54.548C96.9432 54.06 96.7992 53.5 96.7992 52.868C96.7992 52.38 96.8792 51.932 97.0392 51.524C97.1992 51.116 97.4232 50.764 97.7112 50.468C97.9992 50.164 98.3392 49.932 98.7312 49.772C99.1312 49.604 99.5632 49.52 100.027 49.52C100.459 49.52 100.859 49.6 101.227 49.76C101.595 49.912 101.911 50.132 102.175 50.42C102.447 50.7 102.655 51.032 102.799 51.416C102.943 51.8 103.007 52.22 102.991 52.676L102.979 53.204H97.8792L97.6032 52.16H101.575L101.383 52.376V52.112C101.367 51.896 101.295 51.7 101.167 51.524C101.047 51.348 100.891 51.212 100.699 51.116C100.507 51.02 100.291 50.972 100.051 50.972C99.6992 50.972 99.3992 51.04 99.1512 51.176C98.9112 51.312 98.7272 51.512 98.5992 51.776C98.4712 52.04 98.4072 52.36 98.4072 52.736C98.4072 53.12 98.4872 53.452 98.6472 53.732C98.8152 54.012 99.0472 54.232 99.3432 54.392C99.6472 54.544 100.003 54.62 100.411 54.62C100.691 54.62 100.947 54.576 101.179 54.488C101.411 54.4 101.659 54.248 101.923 54.032L102.739 55.172C102.507 55.38 102.251 55.556 101.971 55.7C101.691 55.836 101.403 55.94 101.107 56.012C100.811 56.084 100.519 56.12 100.231 56.12ZM104.25 56V49.652H105.894L105.954 51.692L105.666 51.272C105.762 50.944 105.918 50.648 106.134 50.384C106.35 50.112 106.602 49.9 106.89 49.748C107.186 49.596 107.494 49.52 107.814 49.52C107.95 49.52 108.082 49.532 108.21 49.556C108.338 49.58 108.446 49.608 108.534 49.64L108.078 51.512C107.982 51.464 107.866 51.424 107.73 51.392C107.594 51.352 107.454 51.332 107.31 51.332C107.118 51.332 106.938 51.368 106.77 51.44C106.61 51.504 106.47 51.6 106.35 51.728C106.23 51.848 106.134 51.992 106.062 52.16C105.998 52.328 105.966 52.512 105.966 52.712V56H104.25ZM114.908 56L114.86 55.88L117.452 50.576L117.704 51.38C117.6 51.652 117.46 51.9 117.284 52.124C117.108 52.34 116.904 52.528 116.672 52.688C116.448 52.84 116.212 52.96 115.964 53.048C115.716 53.136 115.472 53.18 115.232 53.18C114.776 53.18 114.356 53.056 113.972 52.808C113.588 52.56 113.28 52.232 113.048 51.824C112.816 51.408 112.7 50.96 112.7 50.48C112.7 49.904 112.832 49.384 113.096 48.92C113.368 48.456 113.736 48.092 114.2 47.828C114.664 47.556 115.188 47.42 115.772 47.42C116.188 47.42 116.58 47.496 116.948 47.648C117.316 47.792 117.64 48 117.92 48.272C118.2 48.536 118.416 48.84 118.568 49.184C118.728 49.528 118.808 49.896 118.808 50.288C118.808 50.544 118.784 50.804 118.736 51.068C118.688 51.332 118.616 51.608 118.52 51.896C118.424 52.176 118.3 52.484 118.148 52.82C118.004 53.148 117.836 53.512 117.644 53.912L116.6 56H114.908ZM115.652 51.692C115.924 51.692 116.164 51.632 116.372 51.512C116.58 51.392 116.744 51.232 116.864 51.032C116.984 50.824 117.044 50.596 117.044 50.348C117.044 50.076 116.984 49.836 116.864 49.628C116.752 49.412 116.592 49.244 116.384 49.124C116.176 48.996 115.936 48.932 115.664 48.932C115.416 48.932 115.192 48.992 114.992 49.112C114.8 49.232 114.644 49.396 114.524 49.604C114.412 49.812 114.356 50.056 114.356 50.336C114.356 50.576 114.412 50.8 114.524 51.008C114.644 51.216 114.8 51.384 114.992 51.512C115.192 51.632 115.412 51.692 115.652 51.692ZM123.072 56.12C122.352 56.12 121.736 55.948 121.224 55.604C120.72 55.26 120.332 54.768 120.06 54.128C119.796 53.48 119.664 52.704 119.664 51.8C119.664 50.896 119.796 50.124 120.06 49.484C120.332 48.836 120.72 48.34 121.224 47.996C121.736 47.652 122.352 47.48 123.072 47.48C123.792 47.48 124.408 47.652 124.92 47.996C125.432 48.34 125.82 48.836 126.084 49.484C126.356 50.124 126.492 50.896 126.492 51.8C126.492 52.704 126.356 53.48 126.084 54.128C125.82 54.768 125.432 55.26 124.92 55.604C124.408 55.948 123.792 56.12 123.072 56.12ZM123.072 54.572C123.608 54.572 124.024 54.332 124.32 53.852C124.616 53.372 124.764 52.688 124.764 51.8C124.764 50.896 124.616 50.2 124.32 49.712C124.024 49.224 123.608 48.98 123.072 48.98C122.528 48.98 122.108 49.224 121.812 49.712C121.524 50.2 121.38 50.896 121.38 51.8C121.38 52.688 121.524 53.372 121.812 53.852C122.108 54.332 122.528 54.572 123.072 54.572ZM128.884 56L134.44 47.6H136.048L130.432 56H128.884ZM129.508 52.052C129.116 52.052 128.764 51.952 128.452 51.752C128.148 51.552 127.908 51.28 127.732 50.936C127.564 50.584 127.48 50.184 127.48 49.736C127.48 49.288 127.564 48.888 127.732 48.536C127.908 48.176 128.148 47.9 128.452 47.708C128.756 47.508 129.108 47.408 129.508 47.408C129.908 47.408 130.256 47.508 130.552 47.708C130.856 47.9 131.092 48.176 131.26 48.536C131.436 48.888 131.524 49.288 131.524 49.736C131.524 50.176 131.436 50.572 131.26 50.924C131.084 51.268 130.844 51.544 130.54 51.752C130.236 51.952 129.892 52.052 129.508 52.052ZM129.508 50.924C129.652 50.924 129.776 50.876 129.88 50.78C129.984 50.684 130.06 50.548 130.108 50.372C130.164 50.188 130.192 49.976 130.192 49.736C130.192 49.496 130.164 49.284 130.108 49.1C130.06 48.916 129.984 48.776 129.88 48.68C129.776 48.584 129.652 48.536 129.508 48.536C129.364 48.536 129.236 48.588 129.124 48.692C129.02 48.788 128.94 48.928 128.884 49.112C128.828 49.288 128.8 49.496 128.8 49.736C128.8 49.976 128.828 50.188 128.884 50.372C128.94 50.548 129.02 50.684 129.124 50.78C129.236 50.876 129.364 50.924 129.508 50.924ZM135.556 56.108C135.164 56.108 134.812 56.008 134.5 55.808C134.196 55.608 133.956 55.336 133.78 54.992C133.604 54.64 133.516 54.244 133.516 53.804C133.516 53.348 133.6 52.944 133.768 52.592C133.944 52.24 134.184 51.964 134.488 51.764C134.8 51.564 135.156 51.464 135.556 51.464C135.948 51.464 136.296 51.564 136.6 51.764C136.904 51.964 137.14 52.24 137.308 52.592C137.476 52.944 137.56 53.348 137.56 53.804C137.56 54.236 137.472 54.628 137.296 54.98C137.12 55.332 136.88 55.608 136.576 55.808C136.28 56.008 135.94 56.108 135.556 56.108ZM135.556 54.992C135.692 54.992 135.812 54.944 135.916 54.848C136.028 54.744 136.112 54.604 136.168 54.428C136.224 54.252 136.252 54.044 136.252 53.804C136.252 53.556 136.224 53.344 136.168 53.168C136.112 52.984 136.028 52.844 135.916 52.748C135.812 52.644 135.692 52.592 135.556 52.592C135.404 52.592 135.276 52.644 135.172 52.748C135.068 52.844 134.984 52.984 134.92 53.168C134.864 53.344 134.836 53.556 134.836 53.804C134.836 54.044 134.864 54.252 134.92 54.428C134.976 54.604 135.056 54.744 135.16 54.848C135.272 54.944 135.404 54.992 135.556 54.992ZM145.017 56.12C144.489 56.12 144.013 55.976 143.589 55.688C143.165 55.4 142.829 55.008 142.581 54.512C142.333 54.016 142.209 53.448 142.209 52.808C142.209 52.168 142.333 51.604 142.581 51.116C142.837 50.62 143.181 50.232 143.613 49.952C144.045 49.664 144.537 49.52 145.089 49.52C145.401 49.52 145.685 49.568 145.941 49.664C146.205 49.752 146.433 49.876 146.625 50.036C146.825 50.196 146.993 50.38 147.129 50.588C147.265 50.796 147.361 51.02 147.417 51.26L147.057 51.2V49.652H148.749V56H147.033V54.476L147.417 54.44C147.353 54.664 147.249 54.876 147.105 55.076C146.961 55.276 146.781 55.456 146.565 55.616C146.357 55.768 146.121 55.892 145.857 55.988C145.593 56.076 145.313 56.12 145.017 56.12ZM145.485 54.644C145.805 54.644 146.085 54.568 146.325 54.416C146.565 54.264 146.749 54.052 146.877 53.78C147.013 53.5 147.081 53.176 147.081 52.808C147.081 52.448 147.013 52.132 146.877 51.86C146.749 51.588 146.565 51.376 146.325 51.224C146.085 51.064 145.805 50.984 145.485 50.984C145.173 50.984 144.897 51.064 144.657 51.224C144.425 51.376 144.241 51.588 144.105 51.86C143.969 52.132 143.901 52.448 143.901 52.808C143.901 53.176 143.969 53.5 144.105 53.78C144.241 54.052 144.425 54.264 144.657 54.416C144.897 54.568 145.173 54.644 145.485 54.644ZM153.217 56.12C152.609 56.12 152.065 55.976 151.585 55.688C151.105 55.4 150.725 55.008 150.445 54.512C150.173 54.016 150.037 53.452 150.037 52.82C150.037 52.196 150.173 51.636 150.445 51.14C150.725 50.636 151.105 50.24 151.585 49.952C152.065 49.664 152.609 49.52 153.217 49.52C153.785 49.52 154.305 49.624 154.777 49.832C155.249 50.04 155.617 50.328 155.881 50.696L154.945 51.824C154.833 51.672 154.693 51.536 154.525 51.416C154.357 51.288 154.173 51.188 153.973 51.116C153.781 51.044 153.581 51.008 153.373 51.008C153.045 51.008 152.753 51.088 152.497 51.248C152.249 51.4 152.053 51.612 151.909 51.884C151.765 52.156 151.693 52.468 151.693 52.82C151.693 53.164 151.765 53.472 151.909 53.744C152.061 54.008 152.265 54.224 152.521 54.392C152.777 54.552 153.065 54.632 153.385 54.632C153.593 54.632 153.789 54.604 153.973 54.548C154.157 54.484 154.329 54.392 154.489 54.272C154.657 54.152 154.809 54.008 154.945 53.84L155.869 54.968C155.597 55.312 155.221 55.592 154.741 55.808C154.261 56.016 153.753 56.12 153.217 56.12ZM156.961 56V47.12H158.641V50.948L158.305 51.092C158.393 50.804 158.549 50.544 158.773 50.312C159.005 50.072 159.281 49.88 159.601 49.736C159.921 49.592 160.257 49.52 160.609 49.52C161.089 49.52 161.489 49.616 161.809 49.808C162.137 50 162.381 50.292 162.541 50.684C162.709 51.068 162.793 51.544 162.793 52.112V56H161.089V52.244C161.089 51.956 161.049 51.716 160.969 51.524C160.889 51.332 160.765 51.192 160.597 51.104C160.437 51.008 160.237 50.968 159.997 50.984C159.805 50.984 159.625 51.016 159.457 51.08C159.297 51.136 159.157 51.22 159.037 51.332C158.925 51.444 158.833 51.572 158.761 51.716C158.697 51.86 158.665 52.016 158.665 52.184V56H157.825C157.641 56 157.477 56 157.333 56C157.189 56 157.065 56 156.961 56ZM164.57 56V49.652H166.274V56H164.57ZM165.41 48.344C165.082 48.344 164.826 48.264 164.642 48.104C164.458 47.944 164.366 47.716 164.366 47.42C164.366 47.148 164.458 46.928 164.642 46.76C164.834 46.584 165.09 46.496 165.41 46.496C165.738 46.496 165.994 46.58 166.178 46.748C166.362 46.908 166.454 47.132 166.454 47.42C166.454 47.7 166.358 47.924 166.166 48.092C165.982 48.26 165.73 48.344 165.41 48.344ZM171.106 56.12C170.418 56.12 169.818 55.98 169.306 55.7C168.794 55.42 168.394 55.036 168.106 54.548C167.818 54.06 167.674 53.5 167.674 52.868C167.674 52.38 167.754 51.932 167.914 51.524C168.074 51.116 168.298 50.764 168.586 50.468C168.874 50.164 169.214 49.932 169.606 49.772C170.006 49.604 170.438 49.52 170.902 49.52C171.334 49.52 171.734 49.6 172.102 49.76C172.47 49.912 172.786 50.132 173.05 50.42C173.322 50.7 173.53 51.032 173.674 51.416C173.818 51.8 173.882 52.22 173.866 52.676L173.854 53.204H168.754L168.478 52.16H172.45L172.258 52.376V52.112C172.242 51.896 172.17 51.7 172.042 51.524C171.922 51.348 171.766 51.212 171.574 51.116C171.382 51.02 171.166 50.972 170.926 50.972C170.574 50.972 170.274 51.04 170.026 51.176C169.786 51.312 169.602 51.512 169.474 51.776C169.346 52.04 169.282 52.36 169.282 52.736C169.282 53.12 169.362 53.452 169.522 53.732C169.69 54.012 169.922 54.232 170.218 54.392C170.522 54.544 170.878 54.62 171.286 54.62C171.566 54.62 171.822 54.576 172.054 54.488C172.286 54.4 172.534 54.248 172.798 54.032L173.614 55.172C173.382 55.38 173.126 55.556 172.846 55.7C172.566 55.836 172.278 55.94 171.982 56.012C171.686 56.084 171.394 56.12 171.106 56.12ZM177 56L174.336 49.652H176.208L177.9 54.392L177.504 54.464L179.28 49.652H181.104L178.308 56H177ZM184.981 56.12C184.293 56.12 183.693 55.98 183.181 55.7C182.669 55.42 182.269 55.036 181.981 54.548C181.693 54.06 181.549 53.5 181.549 52.868C181.549 52.38 181.629 51.932 181.789 51.524C181.949 51.116 182.173 50.764 182.461 50.468C182.749 50.164 183.089 49.932 183.481 49.772C183.881 49.604 184.313 49.52 184.777 49.52C185.209 49.52 185.609 49.6 185.977 49.76C186.345 49.912 186.661 50.132 186.925 50.42C187.197 50.7 187.405 51.032 187.549 51.416C187.693 51.8 187.757 52.22 187.741 52.676L187.729 53.204H182.629L182.353 52.16H186.325L186.133 52.376V52.112C186.117 51.896 186.045 51.7 185.917 51.524C185.797 51.348 185.641 51.212 185.449 51.116C185.257 51.02 185.041 50.972 184.801 50.972C184.449 50.972 184.149 51.04 183.901 51.176C183.661 51.312 183.477 51.512 183.349 51.776C183.221 52.04 183.157 52.36 183.157 52.736C183.157 53.12 183.237 53.452 183.397 53.732C183.565 54.012 183.797 54.232 184.093 54.392C184.397 54.544 184.753 54.62 185.161 54.62C185.441 54.62 185.697 54.576 185.929 54.488C186.161 54.4 186.409 54.248 186.673 54.032L187.489 55.172C187.257 55.38 187.001 55.556 186.721 55.7C186.441 55.836 186.153 55.94 185.857 56.012C185.561 56.084 185.269 56.12 184.981 56.12Z" fill="black"/>
<path d="M86.22 77.02V65.66L86.96 67.36L83.96 68.78L83.38 65.74L87.36 63.8H89.56V77.02H86.22ZM83.66 78V75H92.18V78H83.66ZM99.9509 78.2C98.6976 78.2 97.6243 77.9133 96.7309 77.34C95.8509 76.7667 95.1776 75.9467 94.7109 74.88C94.2443 73.8 94.0109 72.5067 94.0109 71C94.0109 69.4933 94.2443 68.2067 94.7109 67.14C95.1776 66.06 95.8509 65.2333 96.7309 64.66C97.6243 64.0867 98.6976 63.8 99.9509 63.8C101.204 63.8 102.278 64.0867 103.171 64.66C104.064 65.2333 104.744 66.06 105.211 67.14C105.678 68.2067 105.911 69.4933 105.911 71C105.911 72.5067 105.678 73.8 105.211 74.88C104.744 75.9467 104.064 76.7667 103.171 77.34C102.278 77.9133 101.204 78.2 99.9509 78.2ZM99.9509 75.32C100.818 75.32 101.484 74.9467 101.951 74.2C102.431 73.4533 102.671 72.3867 102.671 71C102.671 69.5733 102.431 68.48 101.951 67.72C101.484 66.9467 100.818 66.56 99.9509 66.56C99.0843 66.56 98.4109 66.9467 97.9309 67.72C97.4643 68.48 97.2309 69.5733 97.2309 71C97.2309 72.3867 97.4643 73.4533 97.9309 74.2C98.4109 74.9467 99.0843 75.32 99.9509 75.32ZM113.447 78.2C112.194 78.2 111.12 77.9133 110.227 77.34C109.347 76.7667 108.674 75.9467 108.207 74.88C107.74 73.8 107.507 72.5067 107.507 71C107.507 69.4933 107.74 68.2067 108.207 67.14C108.674 66.06 109.347 65.2333 110.227 64.66C111.12 64.0867 112.194 63.8 113.447 63.8C114.7 63.8 115.774 64.0867 116.667 64.66C117.56 65.2333 118.24 66.06 118.707 67.14C119.174 68.2067 119.407 69.4933 119.407 71C119.407 72.5067 119.174 73.8 118.707 74.88C118.24 75.9467 117.56 76.7667 116.667 77.34C115.774 77.9133 114.7 78.2 113.447 78.2ZM113.447 75.32C114.314 75.32 114.98 74.9467 115.447 74.2C115.927 73.4533 116.167 72.3867 116.167 71C116.167 69.5733 115.927 68.48 115.447 67.72C114.98 66.9467 114.314 66.56 113.447 66.56C112.58 66.56 111.907 66.9467 111.427 67.72C110.96 68.48 110.727 69.5733 110.727 71C110.727 72.3867 110.96 73.4533 111.427 74.2C111.907 74.9467 112.58 75.32 113.447 75.32ZM121.163 73.64V71.02H131.183V73.64H121.163ZM124.743 77.22V67.44H127.583V77.22H124.743ZM144.943 78.2C144.023 78.2 143.19 78.0933 142.443 77.88C141.71 77.6533 141.056 77.3333 140.483 76.92C139.91 76.4933 139.396 75.9933 138.943 75.42L141.003 73.08C141.67 73.9733 142.336 74.5733 143.003 74.88C143.683 75.1867 144.383 75.34 145.103 75.34C145.463 75.34 145.79 75.2933 146.083 75.2C146.376 75.1067 146.603 74.9733 146.763 74.8C146.923 74.6133 147.003 74.3867 147.003 74.12C147.003 73.92 146.95 73.74 146.843 73.58C146.75 73.42 146.616 73.28 146.443 73.16C146.27 73.04 146.063 72.9333 145.823 72.84C145.583 72.7333 145.33 72.6467 145.063 72.58C144.796 72.5 144.523 72.4333 144.243 72.38C143.47 72.2067 142.796 71.9933 142.223 71.74C141.65 71.4867 141.17 71.18 140.783 70.82C140.41 70.4467 140.13 70.0267 139.943 69.56C139.756 69.08 139.663 68.5467 139.663 67.96C139.663 67.3333 139.803 66.76 140.083 66.24C140.376 65.7067 140.763 65.2533 141.243 64.88C141.736 64.4933 142.303 64.2 142.943 64C143.583 63.7867 144.25 63.68 144.943 63.68C145.863 63.68 146.65 63.78 147.303 63.98C147.97 64.1667 148.536 64.44 149.003 64.8C149.483 65.16 149.89 65.5933 150.223 66.1L148.123 68.12C147.843 67.7733 147.536 67.4867 147.203 67.26C146.883 67.0333 146.536 66.86 146.163 66.74C145.803 66.62 145.43 66.56 145.043 66.56C144.643 66.56 144.296 66.6133 144.003 66.72C143.723 66.8133 143.503 66.9533 143.343 67.14C143.183 67.3133 143.103 67.5267 143.103 67.78C143.103 68.0067 143.17 68.2 143.303 68.36C143.436 68.52 143.616 68.6667 143.843 68.8C144.07 68.92 144.33 69.0267 144.623 69.12C144.916 69.2 145.223 69.2667 145.543 69.32C146.276 69.4667 146.936 69.66 147.523 69.9C148.123 70.14 148.636 70.4333 149.063 70.78C149.503 71.1267 149.836 71.54 150.063 72.02C150.303 72.4867 150.423 73.0333 150.423 73.66C150.423 74.6333 150.183 75.46 149.703 76.14C149.236 76.8067 148.59 77.32 147.763 77.68C146.95 78.0267 146.01 78.2 144.943 78.2ZM157.299 78.2C156.272 78.2 155.352 77.96 154.539 77.48C153.725 77 153.079 76.3467 152.599 75.52C152.132 74.68 151.899 73.7333 151.899 72.68C151.899 71.6267 152.132 70.6867 152.599 69.86C153.079 69.02 153.725 68.36 154.539 67.88C155.352 67.4 156.272 67.16 157.299 67.16C158.245 67.16 159.112 67.3267 159.899 67.66C160.699 67.9933 161.332 68.46 161.799 69.06L160.059 71.14C159.872 70.9267 159.652 70.7267 159.399 70.54C159.145 70.3533 158.865 70.2067 158.559 70.1C158.252 69.9933 157.932 69.94 157.599 69.94C157.092 69.94 156.645 70.06 156.259 70.3C155.872 70.5267 155.572 70.8467 155.359 71.26C155.145 71.6733 155.039 72.1467 155.039 72.68C155.039 73.1867 155.145 73.6467 155.359 74.06C155.585 74.4733 155.892 74.8 156.279 75.04C156.665 75.28 157.105 75.4 157.599 75.4C157.945 75.4 158.265 75.36 158.559 75.28C158.852 75.1867 159.119 75.0533 159.359 74.88C159.612 74.7067 159.845 74.4933 160.059 74.24L161.779 76.34C161.325 76.9133 160.692 77.3667 159.879 77.7C159.079 78.0333 158.219 78.2 157.299 78.2ZM168.537 78.2C167.431 78.2 166.444 77.96 165.577 77.48C164.724 77 164.044 76.3467 163.537 75.52C163.044 74.6933 162.797 73.7467 162.797 72.68C162.797 71.6133 163.044 70.6667 163.537 69.84C164.044 69.0133 164.724 68.36 165.577 67.88C166.444 67.4 167.431 67.16 168.537 67.16C169.644 67.16 170.624 67.4 171.477 67.88C172.344 68.36 173.024 69.0133 173.517 69.84C174.011 70.6667 174.257 71.6133 174.257 72.68C174.257 73.7467 174.011 74.6933 173.517 75.52C173.024 76.3467 172.344 77 171.477 77.48C170.624 77.96 169.644 78.2 168.537 78.2ZM168.537 75.44C169.017 75.44 169.444 75.32 169.817 75.08C170.191 74.84 170.484 74.5133 170.697 74.1C170.911 73.6867 171.011 73.2133 170.997 72.68C171.011 72.1467 170.911 71.6733 170.697 71.26C170.484 70.8333 170.191 70.5 169.817 70.26C169.444 70.02 169.017 69.9 168.537 69.9C168.057 69.9 167.624 70.02 167.237 70.26C166.864 70.5 166.571 70.8333 166.357 71.26C166.144 71.6733 166.044 72.1467 166.057 72.68C166.044 73.2133 166.144 73.6867 166.357 74.1C166.571 74.5133 166.864 74.84 167.237 75.08C167.624 75.32 168.057 75.44 168.537 75.44ZM176.35 78V67.38H179.39L179.53 70.84L178.93 70.18C179.09 69.6067 179.35 69.0933 179.71 68.64C180.083 68.1867 180.516 67.8267 181.01 67.56C181.503 67.2933 182.03 67.16 182.59 67.16C182.83 67.16 183.05 67.18 183.25 67.22C183.463 67.26 183.656 67.3067 183.83 67.36L182.95 70.9C182.803 70.8067 182.603 70.7333 182.35 70.68C182.11 70.6133 181.856 70.58 181.59 70.58C181.296 70.58 181.023 70.6333 180.77 70.74C180.516 70.8333 180.303 70.9733 180.13 71.16C179.956 71.3467 179.816 71.5667 179.71 71.82C179.616 72.0733 179.57 72.36 179.57 72.68V78H176.35ZM190.062 78.2C188.889 78.2 187.869 77.9667 187.002 77.5C186.135 77.02 185.462 76.3733 184.982 75.56C184.502 74.7333 184.262 73.7933 184.262 72.74C184.262 71.9267 184.395 71.18 184.662 70.5C184.929 69.82 185.302 69.2333 185.782 68.74C186.262 68.2333 186.829 67.8467 187.482 67.58C188.149 67.3 188.875 67.16 189.662 67.16C190.409 67.16 191.089 67.2933 191.702 67.56C192.329 67.8267 192.869 68.2 193.322 68.68C193.775 69.16 194.122 69.7267 194.362 70.38C194.602 71.0333 194.709 71.7467 194.682 72.52L194.662 73.38H186.202L185.742 71.58H192.062L191.722 71.96V71.56C191.695 71.2267 191.589 70.9333 191.402 70.68C191.229 70.4133 190.995 70.2067 190.702 70.06C190.409 69.9133 190.075 69.84 189.702 69.84C189.182 69.84 188.735 69.9467 188.362 70.16C188.002 70.36 187.729 70.66 187.542 71.06C187.355 71.4467 187.262 71.9267 187.262 72.5C187.262 73.0867 187.382 73.6 187.622 74.04C187.875 74.4667 188.235 74.8 188.702 75.04C189.182 75.28 189.749 75.4 190.402 75.4C190.855 75.4 191.255 75.3333 191.602 75.2C191.962 75.0667 192.349 74.84 192.762 74.52L194.262 76.64C193.849 77 193.409 77.2933 192.942 77.52C192.475 77.7467 191.995 77.9133 191.502 78.02C191.022 78.14 190.542 78.2 190.062 78.2Z" fill="black"/>
<rect x="52" y="54" width="24" height="24" rx="12" fill="#0C99FF"/>
<path d="M58.6445 66.5357L61.8588 69.75L69.3588 62.25" stroke="white" stroke-width="2.14286" stroke-linecap="round"/>
<defs>
<filter id="filter0_d_1746_52171" x="0.1" y="0.1" width="251.8" height="131.8" filterUnits="userSpaceOnUse" color-interpolation-filters="sRGB">
<feFlood flood-opacity="0" result="BackgroundImageFix"/>
<feColorMatrix in="SourceAlpha" type="matrix" values="0 0 0 0 0 0 0 0 0 0 0 0 0 0 0 0 0 0 127 0" result="hardAlpha"/>
<feOffset dy="1"/>
<feGaussianBlur stdDeviation="14.45"/>
<feComposite in2="hardAlpha" operator="out"/>
<feColorMatrix type="matrix" values="0 0 0 0 0 0 0 0 0 0 0 0 0 0 0 0 0 0 0.16 0"/>
<feBlend mode="normal" in2="BackgroundImageFix" result="effect1_dropShadow_1746_52171"/>
<feBlend mode="normal" in="SourceGraphic" in2="effect1_dropShadow_1746_52171" result="shape"/>
</filter>
</defs>
</svg>
