<svg width="252" height="132" viewBox="0 0 252 132" fill="none" xmlns="http://www.w3.org/2000/svg">
<g filter="url(#filter0_d_675_8274)">
<rect x="29" y="28" width="194" height="74" rx="7" fill="white"/>
</g>
<path d="M91.5071 62.4545V77H88.4318V65.3736H88.3466L85.0156 67.4616V64.7344L88.6165 62.4545H91.5071ZM100.667 77.3196C99.4457 77.3149 98.3945 77.0142 97.5138 76.4176C96.6379 75.821 95.9632 74.9569 95.4897 73.8253C95.021 72.6937 94.7889 71.3324 94.7937 69.7415C94.7937 68.1553 95.0281 66.8035 95.4968 65.6861C95.9703 64.5687 96.645 63.7187 97.521 63.1364C98.4016 62.5492 99.4504 62.2557 100.667 62.2557C101.884 62.2557 102.931 62.5492 103.806 63.1364C104.687 63.7235 105.364 64.5758 105.838 65.6932C106.311 66.8059 106.546 68.1553 106.541 69.7415C106.541 71.3371 106.304 72.7008 105.831 73.8324C105.362 74.964 104.69 75.8281 103.814 76.4247C102.938 77.0213 101.889 77.3196 100.667 77.3196ZM100.667 74.7699C101.501 74.7699 102.166 74.3509 102.663 73.5128C103.16 72.6747 103.406 71.4176 103.402 69.7415C103.402 68.6383 103.288 67.7197 103.061 66.9858C102.838 66.2519 102.521 65.7003 102.109 65.331C101.702 64.9616 101.221 64.777 100.667 64.777C99.8387 64.777 99.1758 65.1913 98.6786 66.0199C98.1815 66.8485 97.9305 68.089 97.9258 69.7415C97.9258 70.8589 98.0371 71.7917 98.2596 72.5398C98.4869 73.2831 98.8065 73.8419 99.2184 74.2159C99.6303 74.5852 100.113 74.7699 100.667 74.7699ZM114.437 77.3196C113.215 77.3149 112.164 77.0142 111.283 76.4176C110.407 75.821 109.733 74.9569 109.259 73.8253C108.79 72.6937 108.558 71.3324 108.563 69.7415C108.563 68.1553 108.798 66.8035 109.266 65.6861C109.74 64.5687 110.415 63.7187 111.29 63.1364C112.171 62.5492 113.22 62.2557 114.437 62.2557C115.654 62.2557 116.7 62.5492 117.576 63.1364C118.457 63.7235 119.134 64.5758 119.607 65.6932C120.081 66.8059 120.315 68.1553 120.31 69.7415C120.31 71.3371 120.074 72.7008 119.6 73.8324C119.131 74.964 118.459 75.8281 117.583 76.4247C116.707 77.0213 115.658 77.3196 114.437 77.3196ZM114.437 74.7699C115.27 74.7699 115.935 74.3509 116.433 73.5128C116.93 72.6747 117.176 71.4176 117.171 69.7415C117.171 68.6383 117.058 67.7197 116.83 66.9858C116.608 66.2519 116.29 65.7003 115.879 65.331C115.471 64.9616 114.991 64.777 114.437 64.777C113.608 64.777 112.945 65.1913 112.448 66.0199C111.951 66.8485 111.7 68.089 111.695 69.7415C111.695 70.8589 111.807 71.7917 112.029 72.5398C112.256 73.2831 112.576 73.8419 112.988 74.2159C113.4 74.5852 113.883 74.7699 114.437 74.7699ZM126.85 74.7841V64.7273H129.392V74.7841H126.85ZM123.093 71.027V68.4844H133.15V71.027H123.093ZM148.702 66.6378C148.645 66.0649 148.401 65.6198 147.97 65.3026C147.539 64.9853 146.955 64.8267 146.216 64.8267C145.714 64.8267 145.29 64.8977 144.945 65.0398C144.599 65.1771 144.334 65.3688 144.149 65.6151C143.969 65.8613 143.879 66.1406 143.879 66.4531C143.87 66.7135 143.924 66.9408 144.043 67.1349C144.166 67.3291 144.334 67.4972 144.547 67.6392C144.76 67.7765 145.006 67.8973 145.286 68.0014C145.565 68.1009 145.863 68.1861 146.18 68.2571L147.487 68.5696C148.122 68.7116 148.704 68.901 149.234 69.1378C149.765 69.3745 150.224 69.6657 150.612 70.0114C151 70.357 151.301 70.7642 151.514 71.233C151.732 71.7017 151.843 72.2391 151.848 72.8452C151.843 73.7353 151.616 74.5071 151.166 75.1605C150.721 75.8092 150.077 76.3134 149.234 76.6733C148.396 77.0284 147.385 77.206 146.202 77.206C145.027 77.206 144.005 77.026 143.134 76.6662C142.267 76.3063 141.59 75.7737 141.102 75.0682C140.619 74.358 140.366 73.4796 140.342 72.4332H143.318C143.351 72.9209 143.491 73.3281 143.737 73.6548C143.988 73.9768 144.322 74.2206 144.739 74.3864C145.16 74.5473 145.636 74.6278 146.166 74.6278C146.687 74.6278 147.139 74.5521 147.523 74.4006C147.911 74.2491 148.212 74.0384 148.425 73.7685C148.638 73.4986 148.744 73.1884 148.744 72.8381C148.744 72.5114 148.647 72.2367 148.453 72.0142C148.264 71.7917 147.984 71.6023 147.615 71.446C147.25 71.2898 146.803 71.1477 146.273 71.0199L144.689 70.6222C143.463 70.3239 142.494 69.8575 141.784 69.223C141.074 68.5885 140.721 67.7339 140.726 66.6591C140.721 65.7784 140.955 65.009 141.429 64.3509C141.907 63.6927 142.563 63.179 143.396 62.8097C144.23 62.4403 145.177 62.2557 146.237 62.2557C147.317 62.2557 148.259 62.4403 149.064 62.8097C149.874 63.179 150.503 63.6927 150.953 64.3509C151.403 65.009 151.635 65.7713 151.649 66.6378H148.702ZM158.789 77.2131C157.671 77.2131 156.71 76.9763 155.905 76.5028C155.105 76.0246 154.489 75.3617 154.059 74.5142C153.632 73.6667 153.419 72.6913 153.419 71.5881C153.419 70.4706 153.635 69.4905 154.066 68.6477C154.501 67.8002 155.119 67.1397 155.919 66.6662C156.72 66.188 157.671 65.9489 158.775 65.9489C159.726 65.9489 160.56 66.1217 161.275 66.4673C161.989 66.813 162.555 67.2983 162.972 67.9233C163.389 68.5483 163.618 69.2822 163.661 70.125H160.806C160.725 69.5805 160.512 69.1425 160.167 68.8111C159.826 68.4749 159.378 68.3068 158.824 68.3068C158.355 68.3068 157.946 68.4347 157.596 68.6903C157.25 68.9413 156.98 69.3082 156.786 69.7912C156.592 70.2741 156.495 70.8589 156.495 71.5455C156.495 72.2415 156.589 72.8333 156.779 73.321C156.973 73.8087 157.245 74.1804 157.596 74.4361C157.946 74.6918 158.355 74.8196 158.824 74.8196C159.17 74.8196 159.48 74.7486 159.755 74.6065C160.034 74.4645 160.264 74.2585 160.444 73.9886C160.628 73.714 160.749 73.3849 160.806 73.0014H163.661C163.614 73.8348 163.386 74.5687 162.979 75.2031C162.577 75.8329 162.02 76.3253 161.31 76.6804C160.6 77.0355 159.759 77.2131 158.789 77.2131ZM170.527 77.2131C169.424 77.2131 168.47 76.9787 167.665 76.5099C166.865 76.0365 166.247 75.3783 165.811 74.5355C165.375 73.688 165.158 72.7055 165.158 71.5881C165.158 70.4612 165.375 69.4763 165.811 68.6335C166.247 67.786 166.865 67.1278 167.665 66.6591C168.47 66.1856 169.424 65.9489 170.527 65.9489C171.63 65.9489 172.582 66.1856 173.382 66.6591C174.187 67.1278 174.807 67.786 175.243 68.6335C175.679 69.4763 175.896 70.4612 175.896 71.5881C175.896 72.7055 175.679 73.688 175.243 74.5355C174.807 75.3783 174.187 76.0365 173.382 76.5099C172.582 76.9787 171.63 77.2131 170.527 77.2131ZM170.541 74.8693C171.043 74.8693 171.462 74.7273 171.798 74.4432C172.134 74.1544 172.388 73.7614 172.558 73.2642C172.733 72.767 172.821 72.2012 172.821 71.5668C172.821 70.9323 172.733 70.3665 172.558 69.8693C172.388 69.3722 172.134 68.9792 171.798 68.6903C171.462 68.4015 171.043 68.2571 170.541 68.2571C170.035 68.2571 169.608 68.4015 169.263 68.6903C168.922 68.9792 168.664 69.3722 168.489 69.8693C168.318 70.3665 168.233 70.9323 168.233 71.5668C168.233 72.2012 168.318 72.767 168.489 73.2642C168.664 73.7614 168.922 74.1544 169.263 74.4432C169.608 74.7273 170.035 74.8693 170.541 74.8693ZM177.864 77V66.0909H180.797V67.9943H180.911C181.109 67.3172 181.443 66.8059 181.912 66.4602C182.381 66.1098 182.92 65.9347 183.531 65.9347C183.683 65.9347 183.846 65.9441 184.021 65.9631C184.196 65.982 184.35 66.008 184.483 66.0412V68.7259C184.341 68.6832 184.144 68.6454 183.893 68.6122C183.643 68.5791 183.413 68.5625 183.205 68.5625C182.759 68.5625 182.362 68.6596 182.011 68.8537C181.666 69.0431 181.391 69.3082 181.188 69.6491C180.989 69.9901 180.889 70.383 180.889 70.8281V77H177.864ZM190.511 77.2131C189.389 77.2131 188.423 76.9858 187.613 76.5312C186.808 76.072 186.188 75.4233 185.752 74.5852C185.317 73.7424 185.099 72.7457 185.099 71.5952C185.099 70.473 185.317 69.4882 185.752 68.6406C186.188 67.7931 186.801 67.1326 187.592 66.6591C188.387 66.1856 189.32 65.9489 190.39 65.9489C191.11 65.9489 191.78 66.0649 192.4 66.2969C193.025 66.5241 193.57 66.8674 194.034 67.3267C194.502 67.786 194.867 68.3636 195.127 69.0597C195.388 69.7509 195.518 70.5606 195.518 71.4886V72.3196H186.306V70.4446H192.67C192.67 70.009 192.575 69.6231 192.386 69.2869C192.197 68.9508 191.934 68.688 191.598 68.4986C191.266 68.3045 190.88 68.2074 190.44 68.2074C189.981 68.2074 189.574 68.3139 189.218 68.527C188.868 68.7353 188.593 69.017 188.395 69.3722C188.196 69.7225 188.094 70.1132 188.089 70.544V72.3267C188.089 72.8665 188.189 73.3329 188.387 73.7259C188.591 74.1188 188.877 74.4219 189.247 74.6349C189.616 74.848 190.054 74.9545 190.561 74.9545C190.897 74.9545 191.205 74.9072 191.484 74.8125C191.763 74.7178 192.002 74.5758 192.201 74.3864C192.4 74.197 192.552 73.965 192.656 73.6903L195.454 73.875C195.312 74.5473 195.021 75.1345 194.581 75.6364C194.145 76.1335 193.582 76.5218 192.89 76.8011C192.204 77.0758 191.411 77.2131 190.511 77.2131Z" fill="black"/>
<path d="M87.6477 45.1278C87.0085 45.1278 86.4545 44.9872 85.9858 44.706C85.517 44.4247 85.1534 44.0312 84.8949 43.5256C84.6392 43.0199 84.5114 42.429 84.5114 41.7528C84.5114 41.0767 84.6392 40.4844 84.8949 39.9759C85.1534 39.4673 85.517 39.0724 85.9858 38.7912C86.4545 38.5099 87.0085 38.3693 87.6477 38.3693C88.2869 38.3693 88.8409 38.5099 89.3097 38.7912C89.7784 39.0724 90.1406 39.4673 90.3963 39.9759C90.6548 40.4844 90.7841 41.0767 90.7841 41.7528C90.7841 42.429 90.6548 43.0199 90.3963 43.5256C90.1406 44.0312 89.7784 44.4247 89.3097 44.706C88.8409 44.9872 88.2869 45.1278 87.6477 45.1278ZM87.6562 43.892C88.0028 43.892 88.2926 43.7969 88.5256 43.6065C88.7585 43.4134 88.9318 43.1548 89.0455 42.831C89.1619 42.5071 89.2202 42.1463 89.2202 41.7486C89.2202 41.348 89.1619 40.9858 89.0455 40.6619C88.9318 40.3352 88.7585 40.0753 88.5256 39.8821C88.2926 39.6889 88.0028 39.5923 87.6562 39.5923C87.3011 39.5923 87.0057 39.6889 86.7699 39.8821C86.5369 40.0753 86.3622 40.3352 86.2457 40.6619C86.1321 40.9858 86.0753 41.348 86.0753 41.7486C86.0753 42.1463 86.1321 42.5071 86.2457 42.831C86.3622 43.1548 86.5369 43.4134 86.7699 43.6065C87.0057 43.7969 87.3011 43.892 87.6562 43.892ZM97.7173 38.4545L95.3864 45H93.6818L91.3509 38.4545H92.9957L94.5 43.3168H94.5682L96.0767 38.4545H97.7173ZM101.46 45.1278C100.804 45.1278 100.237 44.9915 99.7596 44.7188C99.2852 44.4432 98.9201 44.054 98.6644 43.5511C98.4087 43.0455 98.2809 42.4503 98.2809 41.7656C98.2809 41.0923 98.4087 40.5014 98.6644 39.9929C98.9229 39.4815 99.2837 39.0838 99.7468 38.7997C100.21 38.5128 100.754 38.3693 101.379 38.3693C101.782 38.3693 102.163 38.4347 102.521 38.5653C102.882 38.6932 103.2 38.892 103.475 39.1619C103.754 39.4318 103.973 39.7756 104.132 40.1932C104.291 40.608 104.37 41.1023 104.37 41.6761V42.1491H99.0053V41.1094H102.892C102.889 40.8139 102.825 40.5511 102.7 40.321C102.575 40.0881 102.4 39.9048 102.176 39.7713C101.954 39.6378 101.696 39.571 101.4 39.571C101.085 39.571 100.808 39.6477 100.569 39.8011C100.331 39.9517 100.145 40.1506 100.011 40.3977C99.8803 40.642 99.8136 40.9105 99.8107 41.2031V42.1108C99.8107 42.4915 99.8803 42.8182 100.02 43.0909C100.159 43.3608 100.353 43.5682 100.603 43.7131C100.853 43.8551 101.146 43.9261 101.481 43.9261C101.706 43.9261 101.909 43.8949 102.091 43.8324C102.272 43.767 102.43 43.6719 102.564 43.5469C102.697 43.4219 102.798 43.267 102.866 43.0824L104.306 43.2443C104.216 43.625 104.042 43.9574 103.787 44.2415C103.534 44.5227 103.21 44.7415 102.815 44.8977C102.42 45.0511 101.968 45.1278 101.46 45.1278ZM105.675 45V38.4545H107.171V39.5455H107.239C107.359 39.1676 107.563 38.8764 107.853 38.6719C108.146 38.4645 108.479 38.3608 108.854 38.3608C108.94 38.3608 109.035 38.3651 109.14 38.3736C109.248 38.3793 109.337 38.3892 109.408 38.4034V39.8224C109.343 39.7997 109.239 39.7798 109.097 39.7628C108.958 39.7429 108.823 39.733 108.692 39.733C108.411 39.733 108.158 39.794 107.934 39.9162C107.712 40.0355 107.538 40.2017 107.41 40.4148C107.282 40.6278 107.218 40.8736 107.218 41.152V45H105.675ZM116.423 36.1534C116.84 36.1562 117.246 36.2301 117.641 36.375C118.039 36.517 118.397 36.75 118.715 37.0739C119.033 37.3949 119.286 37.8253 119.474 38.3651C119.661 38.9048 119.755 39.5724 119.755 40.3679C119.758 41.1179 119.678 41.7884 119.516 42.3793C119.357 42.9673 119.129 43.4645 118.83 43.8707C118.532 44.277 118.173 44.5866 117.752 44.7997C117.332 45.0128 116.859 45.1193 116.333 45.1193C115.782 45.1193 115.293 45.0114 114.867 44.7955C114.444 44.5795 114.102 44.2841 113.84 43.9091C113.579 43.5341 113.418 43.1051 113.359 42.6222H114.914C114.994 42.9687 115.156 43.2443 115.4 43.4489C115.647 43.6506 115.958 43.7514 116.333 43.7514C116.938 43.7514 117.404 43.4886 117.731 42.9631C118.058 42.4375 118.221 41.7074 118.221 40.7727H118.161C118.022 41.0227 117.842 41.2386 117.62 41.4205C117.398 41.5994 117.147 41.7372 116.866 41.8338C116.587 41.9304 116.292 41.9787 115.979 41.9787C115.468 41.9787 115.008 41.8565 114.599 41.6122C114.192 41.3679 113.87 41.0327 113.631 40.6065C113.396 40.1804 113.276 39.6932 113.273 39.1449C113.273 38.5767 113.404 38.0668 113.665 37.6151C113.93 37.1605 114.298 36.8026 114.769 36.5412C115.241 36.277 115.792 36.1477 116.423 36.1534ZM116.427 37.4318C116.12 37.4318 115.843 37.5071 115.596 37.6577C115.352 37.8054 115.158 38.0071 115.016 38.2628C114.877 38.5156 114.808 38.7983 114.808 39.1108C114.81 39.4205 114.88 39.7017 115.016 39.9545C115.156 40.2074 115.344 40.4077 115.583 40.5554C115.825 40.7031 116.1 40.777 116.41 40.777C116.64 40.777 116.854 40.733 117.053 40.6449C117.252 40.5568 117.425 40.4347 117.573 40.2784C117.724 40.1193 117.84 39.9389 117.923 39.7372C118.008 39.5355 118.049 39.3224 118.046 39.098C118.046 38.7997 117.975 38.5241 117.833 38.2713C117.694 38.0185 117.502 37.8153 117.258 37.6619C117.016 37.5085 116.739 37.4318 116.427 37.4318ZM124.4 45.1662C123.698 45.1662 123.096 44.9886 122.593 44.6335C122.093 44.2756 121.708 43.7599 121.438 43.0866C121.171 42.4105 121.038 41.5966 121.038 40.6449C121.04 39.6932 121.175 38.8835 121.442 38.2159C121.712 37.5455 122.097 37.0341 122.597 36.6818C123.1 36.3295 123.701 36.1534 124.4 36.1534C125.099 36.1534 125.7 36.3295 126.202 36.6818C126.705 37.0341 127.09 37.5455 127.357 38.2159C127.627 38.8864 127.762 39.696 127.762 40.6449C127.762 41.5994 127.627 42.4148 127.357 43.0909C127.09 43.7642 126.705 44.2784 126.202 44.6335C125.702 44.9886 125.102 45.1662 124.4 45.1662ZM124.4 43.8324C124.945 43.8324 125.376 43.5639 125.691 43.027C126.009 42.4872 126.168 41.6932 126.168 40.6449C126.168 39.9517 126.096 39.3693 125.951 38.8977C125.806 38.4261 125.602 38.071 125.337 37.8324C125.073 37.5909 124.761 37.4702 124.4 37.4702C123.857 37.4702 123.428 37.7401 123.113 38.2798C122.798 38.8168 122.638 39.6051 122.636 40.6449C122.633 41.3409 122.702 41.9261 122.844 42.4006C122.989 42.875 123.194 43.233 123.458 43.4744C123.722 43.7131 124.036 43.8324 124.4 43.8324ZM133.844 43.3636V42.9034C133.844 42.5653 133.915 42.2543 134.057 41.9702C134.202 41.6861 134.412 41.4574 134.688 41.2841C134.963 41.1108 135.297 41.0241 135.689 41.0241C136.093 41.0241 136.431 41.1108 136.703 41.2841C136.976 41.4545 137.182 41.6818 137.321 41.9659C137.463 42.25 137.534 42.5625 137.534 42.9034V43.3636C137.534 43.7017 137.463 44.0128 137.321 44.2969C137.179 44.581 136.971 44.8097 136.695 44.983C136.422 45.1563 136.087 45.2429 135.689 45.2429C135.292 45.2429 134.955 45.1563 134.679 44.983C134.404 44.8097 134.195 44.581 134.053 44.2969C133.914 44.0128 133.844 43.7017 133.844 43.3636ZM134.956 42.9034V43.3636C134.956 43.5881 135.01 43.794 135.118 43.9815C135.226 44.169 135.417 44.2628 135.689 44.2628C135.965 44.2628 136.154 44.1705 136.256 43.9858C136.361 43.7983 136.414 43.5909 136.414 43.3636V42.9034C136.414 42.6761 136.364 42.4688 136.265 42.2812C136.165 42.0909 135.973 41.9957 135.689 41.9957C135.422 41.9957 135.233 42.0909 135.123 42.2812C135.012 42.4688 134.956 42.6761 134.956 42.9034ZM129.408 38.3693V37.9091C129.408 37.5682 129.48 37.2557 129.625 36.9716C129.77 36.6875 129.98 36.4602 130.256 36.2898C130.532 36.1165 130.865 36.0298 131.257 36.0298C131.658 36.0298 131.995 36.1165 132.267 36.2898C132.543 36.4602 132.75 36.6875 132.89 36.9716C133.029 37.2557 133.098 37.5682 133.098 37.9091V38.3693C133.098 38.7102 133.027 39.0227 132.885 39.3068C132.746 39.5881 132.539 39.8139 132.263 39.9844C131.988 40.1548 131.652 40.2401 131.257 40.2401C130.857 40.2401 130.519 40.1548 130.243 39.9844C129.971 39.8139 129.763 39.5866 129.621 39.3026C129.479 39.0185 129.408 38.7074 129.408 38.3693ZM130.529 37.9091V38.3693C130.529 38.5966 130.581 38.804 130.686 38.9915C130.794 39.1761 130.985 39.2685 131.257 39.2685C131.53 39.2685 131.718 39.1761 131.82 38.9915C131.925 38.804 131.978 38.5966 131.978 38.3693V37.9091C131.978 37.6818 131.928 37.4744 131.828 37.2869C131.729 37.0966 131.539 37.0014 131.257 37.0014C130.988 37.0014 130.799 37.0966 130.691 37.2869C130.583 37.4773 130.529 37.6847 130.529 37.9091ZM129.894 45L135.894 36.2727H136.959L130.959 45H129.894ZM144.18 45.1321C143.765 45.1321 143.392 45.0582 143.059 44.9105C142.73 44.7599 142.468 44.5384 142.275 44.2457C142.085 43.9531 141.99 43.5923 141.99 43.1634C141.99 42.794 142.058 42.4886 142.194 42.2472C142.331 42.0057 142.517 41.8125 142.752 41.6676C142.988 41.5227 143.254 41.4134 143.549 41.3395C143.848 41.2628 144.156 41.2074 144.474 41.1733C144.858 41.1335 145.169 41.098 145.407 41.0668C145.646 41.0327 145.819 40.9815 145.927 40.9134C146.038 40.8423 146.093 40.733 146.093 40.5852V40.5597C146.093 40.2386 145.998 39.9901 145.808 39.8139C145.618 39.6378 145.343 39.5497 144.985 39.5497C144.608 39.5497 144.308 39.6321 144.086 39.7969C143.868 39.9616 143.72 40.1562 143.643 40.3807L142.203 40.1761C142.316 39.7784 142.504 39.446 142.765 39.179C143.027 38.9091 143.346 38.7074 143.724 38.5739C144.102 38.4375 144.52 38.3693 144.977 38.3693C145.292 38.3693 145.606 38.4062 145.919 38.4801C146.231 38.554 146.517 38.6761 146.775 38.8466C147.034 39.0142 147.241 39.2429 147.397 39.5327C147.556 39.8224 147.636 40.1847 147.636 40.6193V45H146.153V44.1009H146.102C146.008 44.2827 145.876 44.4531 145.706 44.6122C145.538 44.7685 145.326 44.8949 145.071 44.9915C144.818 45.0852 144.521 45.1321 144.18 45.1321ZM144.581 43.9986C144.89 43.9986 145.159 43.9375 145.386 43.8153C145.613 43.6903 145.788 43.5256 145.91 43.321C146.035 43.1165 146.098 42.8935 146.098 42.652V41.8807C146.049 41.9205 145.967 41.9574 145.85 41.9915C145.737 42.0256 145.609 42.0554 145.467 42.081C145.325 42.1065 145.184 42.1293 145.045 42.1491C144.906 42.169 144.785 42.1861 144.683 42.2003C144.453 42.2315 144.247 42.2827 144.065 42.3537C143.883 42.4247 143.74 42.5241 143.635 42.652C143.529 42.777 143.477 42.9389 143.477 43.1378C143.477 43.4219 143.581 43.6364 143.788 43.7812C143.995 43.9261 144.26 43.9986 144.581 43.9986ZM152.042 45.1278C151.389 45.1278 150.828 44.9844 150.359 44.6974C149.893 44.4105 149.534 44.0142 149.281 43.5085C149.031 43 148.906 42.4148 148.906 41.7528C148.906 41.0881 149.034 40.5014 149.289 39.9929C149.545 39.4815 149.906 39.0838 150.372 38.7997C150.841 38.5128 151.395 38.3693 152.034 38.3693C152.565 38.3693 153.035 38.4673 153.444 38.6634C153.856 38.8565 154.184 39.1307 154.429 39.4858C154.673 39.8381 154.812 40.25 154.846 40.7216H153.372C153.312 40.4062 153.17 40.1435 152.946 39.9332C152.724 39.7202 152.427 39.6136 152.055 39.6136C151.74 39.6136 151.463 39.6989 151.224 39.8693C150.985 40.0369 150.799 40.2784 150.666 40.5938C150.535 40.9091 150.47 41.2869 150.47 41.7273C150.47 42.1733 150.535 42.5568 150.666 42.8778C150.797 43.196 150.98 43.4418 151.216 43.6151C151.454 43.7855 151.734 43.8707 152.055 43.8707C152.282 43.8707 152.485 43.8281 152.664 43.7429C152.846 43.6548 152.998 43.5284 153.12 43.3636C153.243 43.1989 153.326 42.9986 153.372 42.7628H154.846C154.809 43.2259 154.673 43.6364 154.437 43.9943C154.201 44.3494 153.88 44.6278 153.474 44.8295C153.068 45.0284 152.591 45.1278 152.042 45.1278ZM157.656 41.1648V45H156.113V36.2727H157.621V39.5668H157.698C157.852 39.1974 158.089 38.9062 158.41 38.6932C158.734 38.4773 159.146 38.3693 159.646 38.3693C160.1 38.3693 160.496 38.4645 160.835 38.6548C161.173 38.8452 161.434 39.1236 161.619 39.4901C161.806 39.8565 161.9 40.304 161.9 40.8324V45H160.357V41.071C160.357 40.6307 160.244 40.2884 160.016 40.044C159.792 39.7969 159.477 39.6733 159.07 39.6733C158.798 39.6733 158.553 39.733 158.337 39.8523C158.124 39.9687 157.957 40.1378 157.835 40.3594C157.715 40.581 157.656 40.8494 157.656 41.1648ZM163.472 45V38.4545H165.015V45H163.472ZM164.248 37.5256C164.004 37.5256 163.793 37.4446 163.617 37.2827C163.441 37.1179 163.353 36.9205 163.353 36.6903C163.353 36.4574 163.441 36.2599 163.617 36.098C163.793 35.9332 164.004 35.8509 164.248 35.8509C164.495 35.8509 164.705 35.9332 164.879 36.098C165.055 36.2599 165.143 36.4574 165.143 36.6903C165.143 36.9205 165.055 37.1179 164.879 37.2827C164.705 37.4446 164.495 37.5256 164.248 37.5256ZM169.499 45.1278C168.843 45.1278 168.276 44.9915 167.799 44.7188C167.324 44.4432 166.959 44.054 166.703 43.5511C166.448 43.0455 166.32 42.4503 166.32 41.7656C166.32 41.0923 166.448 40.5014 166.703 39.9929C166.962 39.4815 167.323 39.0838 167.786 38.7997C168.249 38.5128 168.793 38.3693 169.418 38.3693C169.821 38.3693 170.202 38.4347 170.56 38.5653C170.921 38.6932 171.239 38.892 171.515 39.1619C171.793 39.4318 172.012 39.7756 172.171 40.1932C172.33 40.608 172.409 41.1023 172.409 41.6761V42.1491H167.044V41.1094H170.931C170.928 40.8139 170.864 40.5511 170.739 40.321C170.614 40.0881 170.439 39.9048 170.215 39.7713C169.993 39.6378 169.735 39.571 169.439 39.571C169.124 39.571 168.847 39.6477 168.608 39.8011C168.37 39.9517 168.184 40.1506 168.05 40.3977C167.919 40.642 167.853 40.9105 167.85 41.2031V42.1108C167.85 42.4915 167.919 42.8182 168.059 43.0909C168.198 43.3608 168.392 43.5682 168.642 43.7131C168.892 43.8551 169.185 43.9261 169.52 43.9261C169.745 43.9261 169.948 43.8949 170.13 43.8324C170.311 43.767 170.469 43.6719 170.603 43.5469C170.736 43.4219 170.837 43.267 170.905 43.0824L172.346 43.2443C172.255 43.625 172.081 43.9574 171.826 44.2415C171.573 44.5227 171.249 44.7415 170.854 44.8977C170.459 45.0511 170.007 45.1278 169.499 45.1278ZM179.374 38.4545L177.043 45H175.338L173.007 38.4545H174.652L176.156 43.3168H176.224L177.733 38.4545H179.374ZM183.116 45.1278C182.46 45.1278 181.893 44.9915 181.416 44.7188C180.941 44.4432 180.576 44.054 180.321 43.5511C180.065 43.0455 179.937 42.4503 179.937 41.7656C179.937 41.0923 180.065 40.5014 180.321 39.9929C180.579 39.4815 180.94 39.0838 181.403 38.7997C181.866 38.5128 182.41 38.3693 183.035 38.3693C183.439 38.3693 183.819 38.4347 184.177 38.5653C184.538 38.6932 184.856 38.892 185.132 39.1619C185.41 39.4318 185.629 39.7756 185.788 40.1932C185.947 40.608 186.027 41.1023 186.027 41.6761V42.1491H180.662V41.1094H184.548C184.545 40.8139 184.481 40.5511 184.356 40.321C184.231 40.0881 184.056 39.9048 183.832 39.7713C183.61 39.6378 183.352 39.571 183.056 39.571C182.741 39.571 182.464 39.6477 182.225 39.8011C181.987 39.9517 181.801 40.1506 181.667 40.3977C181.537 40.642 181.47 40.9105 181.467 41.2031V42.1108C181.467 42.4915 181.537 42.8182 181.676 43.0909C181.815 43.3608 182.01 43.5682 182.26 43.7131C182.51 43.8551 182.802 43.9261 183.137 43.9261C183.362 43.9261 183.565 43.8949 183.747 43.8324C183.929 43.767 184.086 43.6719 184.22 43.5469C184.353 43.4219 184.454 43.267 184.522 43.0824L185.963 43.2443C185.872 43.625 185.699 43.9574 185.443 44.2415C185.19 44.5227 184.866 44.7415 184.471 44.8977C184.076 45.0511 183.625 45.1278 183.116 45.1278Z" fill="black"/>
<path d="M197.698 118.451C196.604 120.702 193.396 120.702 192.302 118.451L183.24 99.8118C182.271 97.8192 183.722 95.5 185.938 95.5L204.062 95.5C206.278 95.5 207.729 97.8192 206.76 99.8117L197.698 118.451Z" fill="white"/>
<circle cx="59" cy="63" r="19" fill="#0C99FF"/>
<path d="M52 64.5L56.5 69L67 58.5" stroke="white" stroke-width="3" stroke-linecap="round"/>
<defs>
<filter id="filter0_d_675_8274" x="0.1" y="0.1" width="251.8" height="131.8" filterUnits="userSpaceOnUse" color-interpolation-filters="sRGB">
<feFlood flood-opacity="0" result="BackgroundImageFix"/>
<feColorMatrix in="SourceAlpha" type="matrix" values="0 0 0 0 0 0 0 0 0 0 0 0 0 0 0 0 0 0 127 0" result="hardAlpha"/>
<feOffset dy="1"/>
<feGaussianBlur stdDeviation="14.45"/>
<feComposite in2="hardAlpha" operator="out"/>
<feColorMatrix type="matrix" values="0 0 0 0 0 0 0 0 0 0 0 0 0 0 0 0 0 0 0.16 0"/>
<feBlend mode="normal" in2="BackgroundImageFix" result="effect1_dropShadow_675_8274"/>
<feBlend mode="normal" in="SourceGraphic" in2="effect1_dropShadow_675_8274" result="shape"/>
</filter>
</defs>
</svg>
