<svg width="379" height="140" viewBox="0 0 379 140" fill="none" xmlns="http://www.w3.org/2000/svg">
<g filter="url(#filter0_d_675_8281)">
<rect x="29" y="28" width="321" height="82" rx="4" fill="white"/>
</g>
<path d="M67.1307 48.8182H68.3636V56.0966C68.3636 56.7462 68.2443 57.2981 68.0057 57.7521C67.767 58.2062 67.4306 58.5509 66.9964 58.7862C66.5623 59.0215 66.0502 59.1392 65.4602 59.1392C64.9034 59.1392 64.4079 59.0381 63.9737 58.8359C63.5395 58.6304 63.1982 58.3388 62.9496 57.9609C62.701 57.5831 62.5767 57.134 62.5767 56.6136H63.7898C63.7898 56.902 63.861 57.1539 64.0036 57.3693C64.1494 57.5814 64.3482 57.7472 64.6001 57.8665C64.852 57.9858 65.1387 58.0455 65.4602 58.0455C65.8149 58.0455 66.1165 57.9709 66.3651 57.8217C66.6136 57.6726 66.8026 57.4538 66.9318 57.1655C67.0644 56.8738 67.1307 56.5175 67.1307 56.0966V48.8182ZM73.7777 59.1591C73.0883 59.1591 72.4834 58.995 71.9631 58.6669C71.446 58.3388 71.0417 57.8797 70.75 57.2898C70.4616 56.6998 70.3175 56.0104 70.3175 55.2216C70.3175 54.4261 70.4616 53.7318 70.75 53.1385C71.0417 52.5452 71.446 52.0845 71.9631 51.7564C72.4834 51.4283 73.0883 51.2642 73.7777 51.2642C74.4671 51.2642 75.0703 51.4283 75.5874 51.7564C76.1077 52.0845 76.5121 52.5452 76.8004 53.1385C77.0921 53.7318 77.2379 54.4261 77.2379 55.2216C77.2379 56.0104 77.0921 56.6998 76.8004 57.2898C76.5121 57.8797 76.1077 58.3388 75.5874 58.6669C75.0703 58.995 74.4671 59.1591 73.7777 59.1591ZM73.7777 58.1051C74.3014 58.1051 74.7322 57.9709 75.0703 57.7024C75.4084 57.4339 75.6586 57.081 75.821 56.6435C75.9834 56.206 76.0646 55.732 76.0646 55.2216C76.0646 54.7112 75.9834 54.2356 75.821 53.7947C75.6586 53.3539 75.4084 52.9976 75.0703 52.7259C74.7322 52.4541 74.3014 52.3182 73.7777 52.3182C73.254 52.3182 72.8232 52.4541 72.4851 52.7259C72.147 52.9976 71.8968 53.3539 71.7344 53.7947C71.572 54.2356 71.4908 54.7112 71.4908 55.2216C71.4908 55.732 71.572 56.206 71.7344 56.6435C71.8968 57.081 72.147 57.4339 72.4851 57.7024C72.8232 57.9709 73.254 58.1051 73.7777 58.1051ZM79.0289 59V51.3636H80.2022V59H79.0289ZM79.6255 50.0909C79.3968 50.0909 79.1996 50.013 79.0339 49.8572C78.8715 49.7015 78.7903 49.5142 78.7903 49.2955C78.7903 49.0767 78.8715 48.8894 79.0339 48.7337C79.1996 48.5779 79.3968 48.5 79.6255 48.5C79.8542 48.5 80.0498 48.5779 80.2122 48.7337C80.3779 48.8894 80.4608 49.0767 80.4608 49.2955C80.4608 49.5142 80.3779 49.7015 80.2122 49.8572C80.0498 50.013 79.8542 50.0909 79.6255 50.0909ZM83.5245 54.4062V59H82.3512V51.3636H83.4847V52.5568H83.5842C83.7631 52.169 84.0349 51.8575 84.3995 51.6222C84.7641 51.3835 85.2347 51.2642 85.8114 51.2642C86.3285 51.2642 86.7809 51.3703 87.1687 51.5824C87.5565 51.7912 87.8581 52.1094 88.0735 52.5369C88.2889 52.9612 88.3967 53.4981 88.3967 54.1477V59H87.2234V54.2273C87.2234 53.6274 87.0676 53.16 86.756 52.8253C86.4445 52.4872 86.0169 52.3182 85.4734 52.3182C85.0988 52.3182 84.7641 52.3994 84.4691 52.5618C84.1774 52.7242 83.9471 52.9612 83.7781 53.2727C83.609 53.5843 83.5245 53.9621 83.5245 54.4062ZM97.5804 59.1591C96.891 59.1591 96.2862 58.995 95.7658 58.6669C95.2488 58.3388 94.8444 57.8797 94.5527 57.2898C94.2644 56.6998 94.1202 56.0104 94.1202 55.2216C94.1202 54.4261 94.2644 53.7318 94.5527 53.1385C94.8444 52.5452 95.2488 52.0845 95.7658 51.7564C96.2862 51.4283 96.891 51.2642 97.5804 51.2642C98.2698 51.2642 98.873 51.4283 99.3901 51.7564C99.9105 52.0845 100.315 52.5452 100.603 53.1385C100.895 53.7318 101.041 54.4261 101.041 55.2216C101.041 56.0104 100.895 56.6998 100.603 57.2898C100.315 57.8797 99.9105 58.3388 99.3901 58.6669C98.873 58.995 98.2698 59.1591 97.5804 59.1591ZM97.5804 58.1051C98.1041 58.1051 98.535 57.9709 98.873 57.7024C99.2111 57.4339 99.4614 57.081 99.6238 56.6435C99.7862 56.206 99.8674 55.732 99.8674 55.2216C99.8674 54.7112 99.7862 54.2356 99.6238 53.7947C99.4614 53.3539 99.2111 52.9976 98.873 52.7259C98.535 52.4541 98.1041 52.3182 97.5804 52.3182C97.0568 52.3182 96.6259 52.4541 96.2878 52.7259C95.9498 52.9976 95.6995 53.3539 95.5371 53.7947C95.3747 54.2356 95.2935 54.7112 95.2935 55.2216C95.2935 55.732 95.3747 56.206 95.5371 56.6435C95.6995 57.081 95.9498 57.4339 96.2878 57.7024C96.6259 57.9709 97.0568 58.1051 97.5804 58.1051ZM106.153 51.3636V52.358H102.195V51.3636H106.153ZM103.349 49.5341H104.522V56.8125C104.522 57.1439 104.57 57.3925 104.666 57.5582C104.766 57.7206 104.892 57.83 105.044 57.8864C105.2 57.9394 105.364 57.9659 105.536 57.9659C105.665 57.9659 105.772 57.9593 105.854 57.946C105.937 57.9295 106.004 57.9162 106.053 57.9062L106.292 58.9602C106.212 58.9901 106.101 59.0199 105.959 59.0497C105.816 59.0829 105.636 59.0994 105.417 59.0994C105.085 59.0994 104.761 59.0282 104.442 58.8857C104.128 58.7431 103.866 58.526 103.657 58.2344C103.451 57.9427 103.349 57.5748 103.349 57.1307V49.5341ZM109.255 54.4062V59H108.082V48.8182H109.255V52.5568H109.354C109.533 52.1624 109.802 51.8492 110.16 51.6172C110.521 51.3819 111.002 51.2642 111.602 51.2642C112.122 51.2642 112.578 51.3686 112.969 51.5774C113.36 51.7829 113.663 52.0994 113.879 52.527C114.097 52.9512 114.207 53.4915 114.207 54.1477V59H113.033V54.2273C113.033 53.6207 112.876 53.1518 112.561 52.8203C112.25 52.4856 111.817 52.3182 111.263 52.3182C110.879 52.3182 110.534 52.3994 110.229 52.5618C109.928 52.7242 109.689 52.9612 109.513 53.2727C109.341 53.5843 109.255 53.9621 109.255 54.4062ZM119.555 59.1591C118.819 59.1591 118.184 58.9967 117.651 58.6719C117.12 58.3438 116.711 57.8864 116.423 57.2997C116.138 56.7098 115.995 56.0237 115.995 55.2415C115.995 54.4593 116.138 53.7699 116.423 53.1733C116.711 52.5734 117.112 52.1061 117.626 51.7713C118.143 51.4332 118.746 51.2642 119.436 51.2642C119.833 51.2642 120.226 51.3305 120.614 51.4631C121.002 51.5956 121.355 51.8111 121.673 52.1094C121.991 52.4044 122.244 52.7955 122.433 53.2827C122.622 53.7699 122.717 54.3698 122.717 55.0824V55.5795H116.83V54.5653H121.524C121.524 54.1345 121.437 53.75 121.265 53.4119C121.096 53.0739 120.854 52.8071 120.539 52.6115C120.228 52.416 119.86 52.3182 119.436 52.3182C118.968 52.3182 118.564 52.4342 118.222 52.6662C117.884 52.8949 117.624 53.1932 117.442 53.5611C117.26 53.929 117.169 54.3234 117.169 54.7443V55.4205C117.169 55.9972 117.268 56.486 117.467 56.8871C117.669 57.2848 117.949 57.5881 118.307 57.7969C118.665 58.0024 119.081 58.1051 119.555 58.1051C119.863 58.1051 120.142 58.062 120.39 57.9759C120.642 57.8864 120.859 57.7538 121.041 57.5781C121.224 57.3991 121.365 57.1771 121.464 56.9119L122.597 57.2301C122.478 57.6146 122.278 57.9527 121.996 58.2443C121.714 58.5327 121.366 58.758 120.952 58.9205C120.538 59.0795 120.072 59.1591 119.555 59.1591ZM124.502 59V51.3636H125.635V52.517H125.715C125.854 52.1392 126.106 51.8326 126.47 51.5973C126.835 51.362 127.246 51.2443 127.703 51.2443C127.789 51.2443 127.897 51.246 128.026 51.2493C128.156 51.2526 128.253 51.2576 128.32 51.2642V52.4574C128.28 52.4474 128.189 52.4325 128.046 52.4126C127.907 52.3894 127.76 52.3778 127.604 52.3778C127.233 52.3778 126.901 52.4557 126.61 52.6115C126.321 52.764 126.093 52.9761 125.923 53.2479C125.758 53.5163 125.675 53.8229 125.675 54.1676V59H124.502ZM138.461 55.8778V51.3636H139.634V59H138.461V57.7074H138.381C138.202 58.0952 137.924 58.425 137.546 58.6967C137.168 58.9652 136.691 59.0994 136.114 59.0994C135.637 59.0994 135.212 58.995 134.841 58.7862C134.47 58.5741 134.178 58.2559 133.966 57.8317C133.754 57.4041 133.648 56.8655 133.648 56.2159V51.3636H134.821V56.1364C134.821 56.6932 134.977 57.1373 135.289 57.4688C135.604 57.8002 136.005 57.9659 136.492 57.9659C136.783 57.9659 137.08 57.8913 137.382 57.7422C137.687 57.593 137.942 57.3643 138.147 57.0561C138.356 56.7479 138.461 56.3551 138.461 55.8778ZM147.192 53.0739L146.138 53.3722C146.072 53.1965 145.974 53.0258 145.845 52.8601C145.719 52.6911 145.546 52.5518 145.328 52.4425C145.109 52.3331 144.829 52.2784 144.487 52.2784C144.02 52.2784 143.631 52.3861 143.319 52.6016C143.011 52.8137 142.857 53.0838 142.857 53.4119C142.857 53.7036 142.963 53.9339 143.175 54.103C143.387 54.272 143.718 54.4129 144.169 54.5256L145.303 54.804C145.985 54.9697 146.494 55.2232 146.829 55.5646C147.164 55.9027 147.331 56.3385 147.331 56.8722C147.331 57.3097 147.205 57.7008 146.953 58.0455C146.705 58.3902 146.357 58.6619 145.909 58.8608C145.462 59.0597 144.941 59.1591 144.348 59.1591C143.569 59.1591 142.925 58.9901 142.414 58.652C141.904 58.3139 141.581 57.8201 141.445 57.1705L142.558 56.892C142.664 57.303 142.865 57.6113 143.16 57.8168C143.458 58.0223 143.848 58.125 144.328 58.125C144.875 58.125 145.309 58.009 145.631 57.777C145.956 57.5417 146.118 57.2599 146.118 56.9318C146.118 56.6667 146.025 56.4446 145.84 56.2656C145.654 56.0833 145.369 55.9474 144.985 55.858L143.712 55.5597C143.012 55.3939 142.499 55.1371 142.171 54.7891C141.846 54.4377 141.683 53.9986 141.683 53.4716C141.683 53.0407 141.804 52.6596 142.046 52.3281C142.292 51.9967 142.625 51.7365 143.046 51.5476C143.47 51.3587 143.95 51.2642 144.487 51.2642C145.243 51.2642 145.836 51.4299 146.267 51.7614C146.701 52.0928 147.01 52.5303 147.192 53.0739ZM152.299 59.1591C151.563 59.1591 150.929 58.9967 150.395 58.6719C149.865 58.3438 149.455 57.8864 149.167 57.2997C148.882 56.7098 148.739 56.0237 148.739 55.2415C148.739 54.4593 148.882 53.7699 149.167 53.1733C149.455 52.5734 149.856 52.1061 150.37 51.7713C150.887 51.4332 151.49 51.2642 152.18 51.2642C152.577 51.2642 152.97 51.3305 153.358 51.4631C153.746 51.5956 154.099 51.8111 154.417 52.1094C154.735 52.4044 154.989 52.7955 155.178 53.2827C155.366 53.7699 155.461 54.3698 155.461 55.0824V55.5795H149.575V54.5653H154.268C154.268 54.1345 154.182 53.75 154.009 53.4119C153.84 53.0739 153.598 52.8071 153.283 52.6115C152.972 52.416 152.604 52.3182 152.18 52.3182C151.712 52.3182 151.308 52.4342 150.967 52.6662C150.629 52.8949 150.368 53.1932 150.186 53.5611C150.004 53.929 149.913 54.3234 149.913 54.7443V55.4205C149.913 55.9972 150.012 56.486 150.211 56.8871C150.413 57.2848 150.693 57.5881 151.051 57.7969C151.409 58.0024 151.825 58.1051 152.299 58.1051C152.607 58.1051 152.886 58.062 153.134 57.9759C153.386 57.8864 153.603 57.7538 153.786 57.5781C153.968 57.3991 154.109 57.1771 154.208 56.9119L155.342 57.2301C155.222 57.6146 155.022 57.9527 154.74 58.2443C154.458 58.5327 154.11 58.758 153.696 58.9205C153.282 59.0795 152.816 59.1591 152.299 59.1591ZM157.246 59V51.3636H158.379V52.517H158.459C158.598 52.1392 158.85 51.8326 159.214 51.5973C159.579 51.362 159.99 51.2443 160.447 51.2443C160.534 51.2443 160.641 51.246 160.771 51.2493C160.9 51.2526 160.998 51.2576 161.064 51.2642V52.4574C161.024 52.4474 160.933 52.4325 160.79 52.4126C160.651 52.3894 160.504 52.3778 160.348 52.3778C159.977 52.3778 159.645 52.4557 159.354 52.6115C159.065 52.764 158.837 52.9761 158.668 53.2479C158.502 53.5163 158.419 53.8229 158.419 54.1676V59H157.246ZM167.864 53.0739L166.81 53.3722C166.744 53.1965 166.646 53.0258 166.517 52.8601C166.391 52.6911 166.218 52.5518 165.999 52.4425C165.781 52.3331 165.501 52.2784 165.159 52.2784C164.692 52.2784 164.302 52.3861 163.991 52.6016C163.683 52.8137 163.529 53.0838 163.529 53.4119C163.529 53.7036 163.635 53.9339 163.847 54.103C164.059 54.272 164.39 54.4129 164.841 54.5256L165.975 54.804C166.657 54.9697 167.166 55.2232 167.501 55.5646C167.836 55.9027 168.003 56.3385 168.003 56.8722C168.003 57.3097 167.877 57.7008 167.625 58.0455C167.377 58.3902 167.029 58.6619 166.581 58.8608C166.134 59.0597 165.613 59.1591 165.02 59.1591C164.241 59.1591 163.597 58.9901 163.086 58.652C162.576 58.3139 162.253 57.8201 162.117 57.1705L163.23 56.892C163.336 57.303 163.537 57.6113 163.832 57.8168C164.13 58.0223 164.52 58.125 165 58.125C165.547 58.125 165.981 58.009 166.303 57.777C166.628 57.5417 166.79 57.2599 166.79 56.9318C166.79 56.6667 166.697 56.4446 166.512 56.2656C166.326 56.0833 166.041 55.9474 165.656 55.858L164.384 55.5597C163.684 55.3939 163.171 55.1371 162.843 54.7891C162.518 54.4377 162.355 53.9986 162.355 53.4716C162.355 53.0407 162.476 52.6596 162.718 52.3281C162.963 51.9967 163.297 51.7365 163.718 51.5476C164.142 51.3587 164.622 51.2642 165.159 51.2642C165.915 51.2642 166.508 51.4299 166.939 51.7614C167.373 52.0928 167.682 52.5303 167.864 53.0739ZM177.107 51.3636V52.358H172.991V51.3636H177.107ZM174.224 59V50.3097C174.224 49.8722 174.326 49.5076 174.532 49.2159C174.737 48.9242 175.004 48.7055 175.332 48.5597C175.661 48.4138 176.007 48.3409 176.371 48.3409C176.66 48.3409 176.895 48.3641 177.077 48.4105C177.26 48.4569 177.396 48.5 177.485 48.5398L177.147 49.554C177.087 49.5341 177.004 49.5092 176.898 49.4794C176.796 49.4496 176.66 49.4347 176.491 49.4347C176.103 49.4347 175.823 49.5324 175.651 49.728C175.482 49.9235 175.397 50.2102 175.397 50.5881V59H174.224ZM178.752 59V51.3636H179.885V52.517H179.965C180.104 52.1392 180.356 51.8326 180.72 51.5973C181.085 51.362 181.496 51.2443 181.953 51.2443C182.039 51.2443 182.147 51.246 182.276 51.2493C182.406 51.2526 182.503 51.2576 182.57 51.2642V52.4574C182.53 52.4474 182.439 52.4325 182.296 52.4126C182.157 52.3894 182.01 52.3778 181.854 52.3778C181.483 52.3778 181.151 52.4557 180.86 52.6115C180.571 52.764 180.343 52.9761 180.173 53.2479C180.008 53.5163 179.925 53.8229 179.925 54.1676V59H178.752ZM186.83 59.1591C186.141 59.1591 185.536 58.995 185.016 58.6669C184.499 58.3388 184.094 57.8797 183.803 57.2898C183.514 56.6998 183.37 56.0104 183.37 55.2216C183.37 54.4261 183.514 53.7318 183.803 53.1385C184.094 52.5452 184.499 52.0845 185.016 51.7564C185.536 51.4283 186.141 51.2642 186.83 51.2642C187.52 51.2642 188.123 51.4283 188.64 51.7564C189.16 52.0845 189.565 52.5452 189.853 53.1385C190.145 53.7318 190.291 54.4261 190.291 55.2216C190.291 56.0104 190.145 56.6998 189.853 57.2898C189.565 57.8797 189.16 58.3388 188.64 58.6669C188.123 58.995 187.52 59.1591 186.83 59.1591ZM186.83 58.1051C187.354 58.1051 187.785 57.9709 188.123 57.7024C188.461 57.4339 188.711 57.081 188.874 56.6435C189.036 56.206 189.117 55.732 189.117 55.2216C189.117 54.7112 189.036 54.2356 188.874 53.7947C188.711 53.3539 188.461 52.9976 188.123 52.7259C187.785 52.4541 187.354 52.3182 186.83 52.3182C186.307 52.3182 185.876 52.4541 185.538 52.7259C185.2 52.9976 184.95 53.3539 184.787 53.7947C184.625 54.2356 184.544 54.7112 184.544 55.2216C184.544 55.732 184.625 56.206 184.787 56.6435C184.95 57.081 185.2 57.4339 185.538 57.7024C185.876 57.9709 186.307 58.1051 186.83 58.1051ZM192.082 59V51.3636H193.215V52.5568H193.315C193.474 52.1491 193.731 51.8326 194.085 51.6072C194.44 51.3786 194.866 51.2642 195.363 51.2642C195.867 51.2642 196.286 51.3786 196.621 51.6072C196.959 51.8326 197.222 52.1491 197.411 52.5568H197.491C197.686 52.1624 197.98 51.8492 198.371 51.6172C198.762 51.3819 199.231 51.2642 199.778 51.2642C200.46 51.2642 201.019 51.478 201.453 51.9055C201.887 52.3298 202.104 52.991 202.104 53.8892V59H200.931V53.8892C200.931 53.3258 200.777 52.9231 200.469 52.6811C200.161 52.4392 199.798 52.3182 199.38 52.3182C198.843 52.3182 198.427 52.4806 198.132 52.8054C197.837 53.1269 197.69 53.5346 197.69 54.0284V59H196.496V53.7699C196.496 53.3357 196.356 52.986 196.074 52.7209C195.792 52.4524 195.429 52.3182 194.985 52.3182C194.68 52.3182 194.395 52.3994 194.13 52.5618C193.868 52.7242 193.656 52.9496 193.494 53.2379C193.335 53.523 193.255 53.8527 193.255 54.2273V59H192.082ZM210.434 59.179C209.95 59.179 209.511 59.0878 209.117 58.9055C208.722 58.7199 208.409 58.4531 208.177 58.1051C207.945 57.7538 207.829 57.3295 207.829 56.8324C207.829 56.3949 207.915 56.0402 208.088 55.7685C208.26 55.4934 208.49 55.2779 208.779 55.1222C209.067 54.9664 209.385 54.8504 209.733 54.7741C210.085 54.6946 210.438 54.6316 210.792 54.5852C211.256 54.5256 211.632 54.4808 211.921 54.451C212.212 54.4179 212.425 54.3632 212.557 54.2869C212.693 54.2107 212.761 54.0781 212.761 53.8892V53.8494C212.761 53.3589 212.627 52.9777 212.358 52.706C212.093 52.4342 211.69 52.2983 211.15 52.2983C210.59 52.2983 210.151 52.4209 209.833 52.6662C209.515 52.9115 209.291 53.1733 209.162 53.4517L208.048 53.054C208.247 52.59 208.512 52.2287 208.843 51.9702C209.178 51.7083 209.543 51.526 209.937 51.4233C210.335 51.3172 210.726 51.2642 211.11 51.2642C211.356 51.2642 211.637 51.294 211.956 51.3537C212.277 51.41 212.587 51.5277 212.885 51.7067C213.187 51.8857 213.437 52.1558 213.636 52.517C213.835 52.8783 213.934 53.3622 213.934 53.9688V59H212.761V57.9659H212.701C212.622 58.1316 212.489 58.3089 212.304 58.4979C212.118 58.6868 211.871 58.8475 211.563 58.9801C211.255 59.1127 210.878 59.179 210.434 59.179ZM210.613 58.125C211.077 58.125 211.468 58.0339 211.787 57.8516C212.108 57.6693 212.35 57.4339 212.512 57.1456C212.678 56.8572 212.761 56.554 212.761 56.2358V55.1619C212.711 55.2216 212.602 55.2763 212.433 55.326C212.267 55.3724 212.075 55.4138 211.856 55.4503C211.641 55.4834 211.43 55.5133 211.225 55.5398C211.023 55.563 210.859 55.5829 210.733 55.5994C210.428 55.6392 210.143 55.7038 209.877 55.7933C209.616 55.8795 209.404 56.0104 209.241 56.1861C209.082 56.3584 209.002 56.5937 209.002 56.892C209.002 57.2997 209.153 57.608 209.455 57.8168C209.76 58.0223 210.146 58.125 210.613 58.125ZM217.249 48.8182V59H216.076V48.8182H217.249ZM220.571 48.8182V59H219.398V48.8182H220.571ZM229.76 59.1591C229.071 59.1591 228.466 58.995 227.945 58.6669C227.428 58.3388 227.024 57.8797 226.732 57.2898C226.444 56.6998 226.3 56.0104 226.3 55.2216C226.3 54.4261 226.444 53.7318 226.732 53.1385C227.024 52.5452 227.428 52.0845 227.945 51.7564C228.466 51.4283 229.071 51.2642 229.76 51.2642C230.45 51.2642 231.053 51.4283 231.57 51.7564C232.09 52.0845 232.494 52.5452 232.783 53.1385C233.075 53.7318 233.22 54.4261 233.22 55.2216C233.22 56.0104 233.075 56.6998 232.783 57.2898C232.494 57.8797 232.09 58.3388 231.57 58.6669C231.053 58.995 230.45 59.1591 229.76 59.1591ZM229.76 58.1051C230.284 58.1051 230.715 57.9709 231.053 57.7024C231.391 57.4339 231.641 57.081 231.803 56.6435C231.966 56.206 232.047 55.732 232.047 55.2216C232.047 54.7112 231.966 54.2356 231.803 53.7947C231.641 53.3539 231.391 52.9976 231.053 52.7259C230.715 52.4541 230.284 52.3182 229.76 52.3182C229.236 52.3182 228.806 52.4541 228.468 52.7259C228.129 52.9976 227.879 53.3539 227.717 53.7947C227.554 54.2356 227.473 54.7112 227.473 55.2216C227.473 55.732 227.554 56.206 227.717 56.6435C227.879 57.081 228.129 57.4339 228.468 57.7024C228.806 57.9709 229.236 58.1051 229.76 58.1051ZM240.982 51.3636L238.158 59H236.965L234.141 51.3636H235.414L237.522 57.4489H237.602L239.71 51.3636H240.982ZM245.459 59.1591C244.723 59.1591 244.089 58.9967 243.555 58.6719C243.025 58.3438 242.615 57.8864 242.327 57.2997C242.042 56.7098 241.9 56.0237 241.9 55.2415C241.9 54.4593 242.042 53.7699 242.327 53.1733C242.615 52.5734 243.016 52.1061 243.53 51.7713C244.047 51.4332 244.65 51.2642 245.34 51.2642C245.738 51.2642 246.13 51.3305 246.518 51.4631C246.906 51.5956 247.259 51.8111 247.577 52.1094C247.895 52.4044 248.149 52.7955 248.338 53.2827C248.527 53.7699 248.621 54.3698 248.621 55.0824V55.5795H242.735V54.5653H247.428C247.428 54.1345 247.342 53.75 247.169 53.4119C247 53.0739 246.758 52.8071 246.444 52.6115C246.132 52.416 245.764 52.3182 245.34 52.3182C244.873 52.3182 244.468 52.4342 244.127 52.6662C243.789 52.8949 243.529 53.1932 243.346 53.5611C243.164 53.929 243.073 54.3234 243.073 54.7443V55.4205C243.073 55.9972 243.172 56.486 243.371 56.8871C243.573 57.2848 243.853 57.5881 244.211 57.7969C244.569 58.0024 244.985 58.1051 245.459 58.1051C245.767 58.1051 246.046 58.062 246.294 57.9759C246.546 57.8864 246.763 57.7538 246.946 57.5781C247.128 57.3991 247.269 57.1771 247.368 56.9119L248.502 57.2301C248.382 57.6146 248.182 57.9527 247.9 58.2443C247.618 58.5327 247.27 58.758 246.856 58.9205C246.442 59.0795 245.976 59.1591 245.459 59.1591ZM250.406 59V51.3636H251.539V52.517H251.619C251.758 52.1392 252.01 51.8326 252.375 51.5973C252.739 51.362 253.15 51.2443 253.608 51.2443C253.694 51.2443 253.801 51.246 253.931 51.2493C254.06 51.2526 254.158 51.2576 254.224 51.2642V52.4574C254.184 52.4474 254.093 52.4325 253.951 52.4126C253.811 52.3894 253.664 52.3778 253.508 52.3778C253.137 52.3778 252.806 52.4557 252.514 52.6115C252.225 52.764 251.997 52.9761 251.828 53.2479C251.662 53.5163 251.579 53.8229 251.579 54.1676V59H250.406ZM262.873 51.3636V52.358H258.916V51.3636H262.873ZM260.069 49.5341H261.243V56.8125C261.243 57.1439 261.291 57.3925 261.387 57.5582C261.486 57.7206 261.612 57.83 261.765 57.8864C261.921 57.9394 262.085 57.9659 262.257 57.9659C262.386 57.9659 262.492 57.9593 262.575 57.946C262.658 57.9295 262.724 57.9162 262.774 57.9062L263.013 58.9602C262.933 58.9901 262.822 59.0199 262.68 59.0497C262.537 59.0829 262.356 59.0994 262.138 59.0994C261.806 59.0994 261.481 59.0282 261.163 58.8857C260.848 58.7431 260.586 58.526 260.378 58.2344C260.172 57.9427 260.069 57.5748 260.069 57.1307V49.5341ZM265.976 54.4062V59H264.802V48.8182H265.976V52.5568H266.075C266.254 52.1624 266.523 51.8492 266.881 51.6172C267.242 51.3819 267.722 51.2642 268.322 51.2642C268.843 51.2642 269.298 51.3686 269.689 51.5774C270.081 51.7829 270.384 52.0994 270.599 52.527C270.818 52.9512 270.927 53.4915 270.927 54.1477V59H269.754V54.2273C269.754 53.6207 269.597 53.1518 269.282 52.8203C268.97 52.4856 268.538 52.3182 267.984 52.3182C267.6 52.3182 267.255 52.3994 266.95 52.5618C266.648 52.7242 266.41 52.9612 266.234 53.2727C266.062 53.5843 265.976 53.9621 265.976 54.4062ZM276.276 59.1591C275.54 59.1591 274.905 58.9967 274.371 58.6719C273.841 58.3438 273.432 57.8864 273.143 57.2997C272.858 56.7098 272.716 56.0237 272.716 55.2415C272.716 54.4593 272.858 53.7699 273.143 53.1733C273.432 52.5734 273.833 52.1061 274.347 51.7713C274.864 51.4332 275.467 51.2642 276.156 51.2642C276.554 51.2642 276.947 51.3305 277.335 51.4631C277.722 51.5956 278.075 51.8111 278.393 52.1094C278.712 52.4044 278.965 52.7955 279.154 53.2827C279.343 53.7699 279.438 54.3698 279.438 55.0824V55.5795H273.551V54.5653H278.244C278.244 54.1345 278.158 53.75 277.986 53.4119C277.817 53.0739 277.575 52.8071 277.26 52.6115C276.948 52.416 276.58 52.3182 276.156 52.3182C275.689 52.3182 275.285 52.4342 274.943 52.6662C274.605 52.8949 274.345 53.1932 274.163 53.5611C273.98 53.929 273.889 54.3234 273.889 54.7443V55.4205C273.889 55.9972 273.989 56.486 274.188 56.8871C274.39 57.2848 274.67 57.5881 275.028 57.7969C275.386 58.0024 275.802 58.1051 276.276 58.1051C276.584 58.1051 276.862 58.062 277.111 57.9759C277.363 57.8864 277.58 57.7538 277.762 57.5781C277.944 57.3991 278.085 57.1771 278.185 56.9119L279.318 57.2301C279.199 57.6146 278.998 57.9527 278.717 58.2443C278.435 58.5327 278.087 58.758 277.673 58.9205C277.258 59.0795 276.793 59.1591 276.276 59.1591ZM286.89 59L284.563 51.3636H285.796L287.447 57.2102H287.526L289.157 51.3636H290.41L292.021 57.1903H292.1L293.751 51.3636H294.984L292.657 59H291.504L289.833 53.1335H289.714L288.043 59H286.89ZM299.377 59.1591C298.688 59.1591 298.083 58.995 297.563 58.6669C297.046 58.3388 296.641 57.8797 296.35 57.2898C296.061 56.6998 295.917 56.0104 295.917 55.2216C295.917 54.4261 296.061 53.7318 296.35 53.1385C296.641 52.5452 297.046 52.0845 297.563 51.7564C298.083 51.4283 298.688 51.2642 299.377 51.2642C300.067 51.2642 300.67 51.4283 301.187 51.7564C301.707 52.0845 302.112 52.5452 302.4 53.1385C302.692 53.7318 302.838 54.4261 302.838 55.2216C302.838 56.0104 302.692 56.6998 302.4 57.2898C302.112 57.8797 301.707 58.3388 301.187 58.6669C300.67 58.995 300.067 59.1591 299.377 59.1591ZM299.377 58.1051C299.901 58.1051 300.332 57.9709 300.67 57.7024C301.008 57.4339 301.258 57.081 301.421 56.6435C301.583 56.206 301.664 55.732 301.664 55.2216C301.664 54.7112 301.583 54.2356 301.421 53.7947C301.258 53.3539 301.008 52.9976 300.67 52.7259C300.332 52.4541 299.901 52.3182 299.377 52.3182C298.854 52.3182 298.423 52.4541 298.085 52.7259C297.747 52.9976 297.496 53.3539 297.334 53.7947C297.172 54.2356 297.09 54.7112 297.09 55.2216C297.09 55.732 297.172 56.206 297.334 56.6435C297.496 57.081 297.747 57.4339 298.085 57.7024C298.423 57.9709 298.854 58.1051 299.377 58.1051ZM304.629 59V51.3636H305.762V52.517H305.842C305.981 52.1392 306.233 51.8326 306.597 51.5973C306.962 51.362 307.373 51.2443 307.83 51.2443C307.916 51.2443 308.024 51.246 308.153 51.2493C308.283 51.2526 308.38 51.2576 308.447 51.2642V52.4574C308.407 52.4474 308.316 52.4325 308.173 52.4126C308.034 52.3894 307.887 52.3778 307.731 52.3778C307.36 52.3778 307.028 52.4557 306.737 52.6115C306.448 52.764 306.219 52.9761 306.05 53.2479C305.885 53.5163 305.802 53.8229 305.802 54.1676V59H304.629ZM311.011 48.8182V59H309.838V48.8182H311.011ZM316.043 59.1591C315.407 59.1591 314.845 58.9983 314.358 58.6768C313.871 58.352 313.49 57.8946 313.214 57.3047C312.939 56.7114 312.802 56.0104 312.802 55.2017C312.802 54.3996 312.939 53.7036 313.214 53.1136C313.49 52.5237 313.872 52.0679 314.363 51.7464C314.853 51.425 315.42 51.2642 316.063 51.2642C316.56 51.2642 316.953 51.3471 317.241 51.5128C317.533 51.6752 317.755 51.8608 317.908 52.0696C318.063 52.2751 318.184 52.4441 318.271 52.5767H318.37V48.8182H319.543V59H318.41V57.8267H318.271C318.184 57.9659 318.062 58.1416 317.903 58.3537C317.744 58.5625 317.517 58.7498 317.222 58.9155C316.927 59.0779 316.534 59.1591 316.043 59.1591ZM316.202 58.1051C316.673 58.1051 317.071 57.9825 317.396 57.7372C317.72 57.4886 317.967 57.1456 318.136 56.7081C318.305 56.2673 318.39 55.7585 318.39 55.1818C318.39 54.6117 318.307 54.1129 318.141 53.6854C317.976 53.2545 317.73 52.9197 317.406 52.6811C317.081 52.4392 316.68 52.3182 316.202 52.3182C315.705 52.3182 315.291 52.4458 314.96 52.701C314.631 52.9529 314.384 53.2959 314.219 53.7301C314.056 54.161 313.975 54.6449 313.975 55.1818C313.975 55.7254 314.058 56.2192 314.224 56.6634C314.393 57.1042 314.641 57.4555 314.969 57.7173C315.301 57.9759 315.712 58.1051 316.202 58.1051Z" fill="#414141"/>
<path d="M64.4659 81.8182V92H63.233V81.8182H64.4659ZM66.7789 92V84.3636H67.9125V85.5568H68.0119C68.171 85.1491 68.4279 84.8326 68.7825 84.6072C69.1371 84.3786 69.563 84.2642 70.0602 84.2642C70.564 84.2642 70.9833 84.3786 71.318 84.6072C71.6561 84.8326 71.9196 85.1491 72.1085 85.5568H72.188C72.3836 85.1624 72.6769 84.8492 73.068 84.6172C73.4591 84.3819 73.9281 84.2642 74.475 84.2642C75.1577 84.2642 75.7162 84.478 76.1504 84.9055C76.5846 85.3298 76.8017 85.991 76.8017 86.8892V92H75.6284V86.8892C75.6284 86.3258 75.4743 85.9231 75.166 85.6811C74.8578 85.4392 74.4949 85.3182 74.0772 85.3182C73.5403 85.3182 73.1243 85.4806 72.8294 85.8054C72.5344 86.1269 72.3869 86.5346 72.3869 87.0284V92H71.1937V86.7699C71.1937 86.3357 71.0529 85.986 70.7711 85.7209C70.4894 85.4524 70.1265 85.3182 69.6824 85.3182C69.3774 85.3182 69.0924 85.3994 68.8272 85.5618C68.5654 85.7242 68.3533 85.9496 68.1909 86.2379C68.0318 86.523 67.9522 86.8527 67.9522 87.2273V92H66.7789ZM78.9469 92V84.3636H80.0804V85.5568H80.1799C80.339 85.1491 80.5958 84.8326 80.9505 84.6072C81.3051 84.3786 81.731 84.2642 82.2282 84.2642C82.7319 84.2642 83.1512 84.3786 83.486 84.6072C83.824 84.8326 84.0875 85.1491 84.2765 85.5568H84.356C84.5516 85.1624 84.8449 84.8492 85.236 84.6172C85.6271 84.3819 86.0961 84.2642 86.6429 84.2642C87.3257 84.2642 87.8842 84.478 88.3184 84.9055C88.7525 85.3298 88.9696 85.991 88.9696 86.8892V92H87.7963V86.8892C87.7963 86.3258 87.6422 85.9231 87.334 85.6811C87.0257 85.4392 86.6628 85.3182 86.2452 85.3182C85.7083 85.3182 85.2923 85.4806 84.9973 85.8054C84.7024 86.1269 84.5549 86.5346 84.5549 87.0284V92H83.3617V86.7699C83.3617 86.3357 83.2208 85.986 82.9391 85.7209C82.6574 85.4524 82.2944 85.3182 81.8503 85.3182C81.5454 85.3182 81.2604 85.3994 80.9952 85.5618C80.7334 85.7242 80.5212 85.9496 80.3588 86.2379C80.1998 86.523 80.1202 86.8527 80.1202 87.2273V92H78.9469ZM94.3166 92.1591C93.5808 92.1591 92.9461 91.9967 92.4125 91.6719C91.8822 91.3438 91.4728 90.8864 91.1845 90.2997C90.8994 89.7098 90.7569 89.0237 90.7569 88.2415C90.7569 87.4593 90.8994 86.7699 91.1845 86.1733C91.4728 85.5734 91.8739 85.1061 92.3876 84.7713C92.9047 84.4332 93.5079 84.2642 94.1973 84.2642C94.595 84.2642 94.9877 84.3305 95.3755 84.4631C95.7633 84.5956 96.1163 84.8111 96.4345 85.1094C96.7527 85.4044 97.0062 85.7955 97.1951 86.2827C97.3841 86.7699 97.4785 87.3698 97.4785 88.0824V88.5795H91.5922V87.5653H96.2853C96.2853 87.1345 96.1992 86.75 96.0268 86.4119C95.8578 86.0739 95.6158 85.8071 95.301 85.6115C94.9894 85.416 94.6215 85.3182 94.1973 85.3182C93.7299 85.3182 93.3256 85.4342 92.9842 85.6662C92.6461 85.8949 92.3859 86.1932 92.2037 86.5611C92.0214 86.929 91.9302 87.3234 91.9302 87.7443V88.4205C91.9302 88.9972 92.0297 89.486 92.2285 89.8871C92.4307 90.2848 92.7108 90.5881 93.0687 90.7969C93.4267 91.0024 93.8426 91.1051 94.3166 91.1051C94.6248 91.1051 94.9032 91.062 95.1518 90.9759C95.4037 90.8864 95.6208 90.7538 95.8031 90.5781C95.9854 90.3991 96.1262 90.1771 96.2257 89.9119L97.3592 90.2301C97.2399 90.6146 97.0394 90.9527 96.7576 91.2443C96.4759 91.5327 96.1279 91.758 95.7136 91.9205C95.2993 92.0795 94.8336 92.1591 94.3166 92.1591ZM99.2633 92V84.3636H100.397V85.517H100.476C100.616 85.1392 100.867 84.8326 101.232 84.5973C101.597 84.362 102.008 84.2443 102.465 84.2443C102.551 84.2443 102.659 84.246 102.788 84.2493C102.917 84.2526 103.015 84.2576 103.081 84.2642V85.4574C103.042 85.4474 102.951 85.4325 102.808 85.4126C102.669 85.3894 102.521 85.3778 102.366 85.3778C101.994 85.3778 101.663 85.4557 101.371 85.6115C101.083 85.764 100.854 85.9761 100.685 86.2479C100.519 86.5163 100.437 86.8229 100.437 87.1676V92H99.2633ZM109.881 86.0739L108.827 86.3722C108.761 86.1965 108.663 86.0258 108.534 85.8601C108.408 85.6911 108.236 85.5518 108.017 85.4425C107.798 85.3331 107.518 85.2784 107.177 85.2784C106.71 85.2784 106.32 85.3861 106.009 85.6016C105.7 85.8137 105.546 86.0838 105.546 86.4119C105.546 86.7036 105.652 86.9339 105.864 87.103C106.076 87.272 106.408 87.4129 106.859 87.5256L107.992 87.804C108.675 87.9697 109.184 88.2232 109.518 88.5646C109.853 88.9027 110.021 89.3385 110.021 89.8722C110.021 90.3097 109.895 90.7008 109.643 91.0455C109.394 91.3902 109.046 91.6619 108.599 91.8608C108.151 92.0597 107.631 92.1591 107.038 92.1591C106.259 92.1591 105.614 91.9901 105.104 91.652C104.593 91.3139 104.27 90.8201 104.134 90.1705L105.248 89.892C105.354 90.303 105.554 90.6113 105.849 90.8168C106.148 91.0223 106.537 91.125 107.018 91.125C107.565 91.125 107.999 91.009 108.32 90.777C108.645 90.5417 108.808 90.2599 108.808 89.9318C108.808 89.6667 108.715 89.4446 108.529 89.2656C108.344 89.0833 108.058 88.9474 107.674 88.858L106.401 88.5597C105.702 88.3939 105.188 88.1371 104.86 87.7891C104.535 87.4377 104.373 86.9986 104.373 86.4716C104.373 86.0407 104.494 85.6596 104.736 85.3281C104.981 84.9967 105.314 84.7365 105.735 84.5476C106.159 84.3587 106.64 84.2642 107.177 84.2642C107.933 84.2642 108.526 84.4299 108.957 84.7614C109.391 85.0928 109.699 85.5303 109.881 86.0739ZM114.988 92.1591C114.253 92.1591 113.618 91.9967 113.084 91.6719C112.554 91.3438 112.145 90.8864 111.856 90.2997C111.571 89.7098 111.429 89.0237 111.429 88.2415C111.429 87.4593 111.571 86.7699 111.856 86.1733C112.145 85.5734 112.546 85.1061 113.059 84.7713C113.577 84.4332 114.18 84.2642 114.869 84.2642C115.267 84.2642 115.66 84.3305 116.047 84.4631C116.435 84.5956 116.788 84.8111 117.106 85.1094C117.425 85.4044 117.678 85.7955 117.867 86.2827C118.056 86.7699 118.15 87.3698 118.15 88.0824V88.5795H112.264V87.5653H116.957C116.957 87.1345 116.871 86.75 116.699 86.4119C116.53 86.0739 116.288 85.8071 115.973 85.6115C115.661 85.416 115.293 85.3182 114.869 85.3182C114.402 85.3182 113.997 85.4342 113.656 85.6662C113.318 85.8949 113.058 86.1932 112.876 86.5611C112.693 86.929 112.602 87.3234 112.602 87.7443V88.4205C112.602 88.9972 112.702 89.486 112.9 89.8871C113.103 90.2848 113.383 90.5881 113.741 90.7969C114.099 91.0024 114.515 91.1051 114.988 91.1051C115.297 91.1051 115.575 91.062 115.824 90.9759C116.076 90.8864 116.293 90.7538 116.475 90.5781C116.657 90.3991 116.798 90.1771 116.898 89.9119L118.031 90.2301C117.912 90.6146 117.711 90.9527 117.43 91.2443C117.148 91.5327 116.8 91.758 116.385 91.9205C115.971 92.0795 115.506 92.1591 114.988 92.1591ZM124.628 94.8636C124.43 94.8636 124.252 94.8471 124.096 94.8139C123.941 94.7841 123.833 94.7543 123.773 94.7244L124.072 93.6903C124.357 93.7633 124.608 93.7898 124.827 93.7699C125.046 93.75 125.24 93.6522 125.409 93.4766C125.581 93.3042 125.739 93.0241 125.881 92.6364L126.1 92.0398L123.276 84.3636H124.549L126.657 90.4489H126.736L128.844 84.3636H130.117L126.876 93.1136C126.73 93.508 126.549 93.8345 126.334 94.093C126.118 94.3549 125.868 94.5488 125.583 94.6747C125.301 94.8007 124.983 94.8636 124.628 94.8636ZM134.494 92.1591C133.805 92.1591 133.2 91.995 132.68 91.6669C132.163 91.3388 131.758 90.8797 131.467 90.2898C131.178 89.6998 131.034 89.0104 131.034 88.2216C131.034 87.4261 131.178 86.7318 131.467 86.1385C131.758 85.5452 132.163 85.0845 132.68 84.7564C133.2 84.4283 133.805 84.2642 134.494 84.2642C135.184 84.2642 135.787 84.4283 136.304 84.7564C136.825 85.0845 137.229 85.5452 137.517 86.1385C137.809 86.7318 137.955 87.4261 137.955 88.2216C137.955 89.0104 137.809 89.6998 137.517 90.2898C137.229 90.8797 136.825 91.3388 136.304 91.6669C135.787 91.995 135.184 92.1591 134.494 92.1591ZM134.494 91.1051C135.018 91.1051 135.449 90.9709 135.787 90.7024C136.125 90.4339 136.375 90.081 136.538 89.6435C136.7 89.206 136.781 88.732 136.781 88.2216C136.781 87.7112 136.7 87.2356 136.538 86.7947C136.375 86.3539 136.125 85.9976 135.787 85.7259C135.449 85.4541 135.018 85.3182 134.494 85.3182C133.971 85.3182 133.54 85.4541 133.202 85.7259C132.864 85.9976 132.614 86.3539 132.451 86.7947C132.289 87.2356 132.208 87.7112 132.208 88.2216C132.208 88.732 132.289 89.206 132.451 89.6435C132.614 90.081 132.864 90.4339 133.202 90.7024C133.54 90.9709 133.971 91.1051 134.494 91.1051ZM144.558 88.8778V84.3636H145.732V92H144.558V90.7074H144.479C144.3 91.0952 144.021 91.425 143.643 91.6967C143.266 91.9652 142.788 92.0994 142.212 92.0994C141.734 92.0994 141.31 91.995 140.939 91.7862C140.568 91.5741 140.276 91.2559 140.064 90.8317C139.852 90.4041 139.746 89.8655 139.746 89.2159V84.3636H140.919V89.1364C140.919 89.6932 141.075 90.1373 141.386 90.4688C141.701 90.8002 142.102 90.9659 142.589 90.9659C142.881 90.9659 143.178 90.8913 143.479 90.7422C143.784 90.593 144.04 90.3643 144.245 90.0561C144.454 89.7479 144.558 89.3551 144.558 88.8778ZM147.881 92V84.3636H149.014V85.517H149.094C149.233 85.1392 149.485 84.8326 149.849 84.5973C150.214 84.362 150.625 84.2443 151.082 84.2443C151.168 84.2443 151.276 84.246 151.405 84.2493C151.535 84.2526 151.632 84.2576 151.699 84.2642V85.4574C151.659 85.4474 151.568 85.4325 151.425 85.4126C151.286 85.3894 151.139 85.3778 150.983 85.3778C150.612 85.3778 150.28 85.4557 149.988 85.6115C149.7 85.764 149.471 85.9761 149.302 86.2479C149.137 86.5163 149.054 86.8229 149.054 87.1676V92H147.881ZM158.499 86.0739L157.445 86.3722C157.378 86.1965 157.281 86.0258 157.151 85.8601C157.025 85.6911 156.853 85.5518 156.634 85.4425C156.415 85.3331 156.135 85.2784 155.794 85.2784C155.327 85.2784 154.937 85.3861 154.626 85.6016C154.317 85.8137 154.163 86.0838 154.163 86.4119C154.163 86.7036 154.269 86.9339 154.482 87.103C154.694 87.272 155.025 87.4129 155.476 87.5256L156.609 87.804C157.292 87.9697 157.801 88.2232 158.136 88.5646C158.47 88.9027 158.638 89.3385 158.638 89.8722C158.638 90.3097 158.512 90.7008 158.26 91.0455C158.011 91.3902 157.663 91.6619 157.216 91.8608C156.768 92.0597 156.248 92.1591 155.655 92.1591C154.876 92.1591 154.231 91.9901 153.721 91.652C153.21 91.3139 152.887 90.8201 152.751 90.1705L153.865 89.892C153.971 90.303 154.172 90.6113 154.467 90.8168C154.765 91.0223 155.154 91.125 155.635 91.125C156.182 91.125 156.616 91.009 156.938 90.777C157.262 90.5417 157.425 90.2599 157.425 89.9318C157.425 89.6667 157.332 89.4446 157.146 89.2656C156.961 89.0833 156.676 88.9474 156.291 88.858L155.018 88.5597C154.319 88.3939 153.805 88.1371 153.477 87.7891C153.152 87.4377 152.99 86.9986 152.99 86.4716C152.99 86.0407 153.111 85.6596 153.353 85.3281C153.598 84.9967 153.931 84.7365 154.352 84.5476C154.777 84.3587 155.257 84.2642 155.794 84.2642C156.55 84.2642 157.143 84.4299 157.574 84.7614C158.008 85.0928 158.316 85.5303 158.499 86.0739ZM163.606 92.1591C162.87 92.1591 162.235 91.9967 161.702 91.6719C161.171 91.3438 160.762 90.8864 160.474 90.2997C160.189 89.7098 160.046 89.0237 160.046 88.2415C160.046 87.4593 160.189 86.7699 160.474 86.1733C160.762 85.5734 161.163 85.1061 161.677 84.7713C162.194 84.4332 162.797 84.2642 163.486 84.2642C163.884 84.2642 164.277 84.3305 164.665 84.4631C165.052 84.5956 165.405 84.8111 165.724 85.1094C166.042 85.4044 166.295 85.7955 166.484 86.2827C166.673 86.7699 166.768 87.3698 166.768 88.0824V88.5795H160.881V87.5653H165.574C165.574 87.1345 165.488 86.75 165.316 86.4119C165.147 86.0739 164.905 85.8071 164.59 85.6115C164.278 85.416 163.911 85.3182 163.486 85.3182C163.019 85.3182 162.615 85.4342 162.273 85.6662C161.935 85.8949 161.675 86.1932 161.493 86.5611C161.31 86.929 161.219 87.3234 161.219 87.7443V88.4205C161.219 88.9972 161.319 89.486 161.518 89.8871C161.72 90.2848 162 90.5881 162.358 90.7969C162.716 91.0024 163.132 91.1051 163.606 91.1051C163.914 91.1051 164.192 91.062 164.441 90.9759C164.693 90.8864 164.91 90.7538 165.092 90.5781C165.274 90.3991 165.415 90.1771 165.515 89.9119L166.648 90.2301C166.529 90.6146 166.328 90.9527 166.047 91.2443C165.765 91.5327 165.417 91.758 165.003 91.9205C164.588 92.0795 164.123 92.1591 163.606 92.1591ZM169.726 81.8182V92H168.552V81.8182H169.726ZM175.275 84.3636V85.358H171.159V84.3636H175.275ZM172.392 92V83.3097C172.392 82.8722 172.494 82.5076 172.7 82.2159C172.905 81.9242 173.172 81.7055 173.5 81.5597C173.828 81.4138 174.175 81.3409 174.539 81.3409C174.828 81.3409 175.063 81.3641 175.245 81.4105C175.428 81.4569 175.564 81.5 175.653 81.5398L175.315 82.554C175.255 82.5341 175.172 82.5092 175.066 82.4794C174.964 82.4496 174.828 82.4347 174.659 82.4347C174.271 82.4347 173.991 82.5324 173.819 82.728C173.65 82.9235 173.565 83.2102 173.565 83.5881V92H172.392ZM180.857 92V84.3636H182.03V92H180.857ZM181.454 83.0909C181.225 83.0909 181.028 83.013 180.862 82.8572C180.7 82.7015 180.618 82.5142 180.618 82.2955C180.618 82.0767 180.7 81.8894 180.862 81.7337C181.028 81.5779 181.225 81.5 181.454 81.5C181.682 81.5 181.878 81.5779 182.04 81.7337C182.206 81.8894 182.289 82.0767 182.289 82.2955C182.289 82.5142 182.206 82.7015 182.04 82.8572C181.878 83.013 181.682 83.0909 181.454 83.0909ZM185.353 87.4062V92H184.179V84.3636H185.313V85.5568H185.412C185.591 85.169 185.863 84.8575 186.228 84.6222C186.592 84.3835 187.063 84.2642 187.64 84.2642C188.157 84.2642 188.609 84.3703 188.997 84.5824C189.385 84.7912 189.686 85.1094 189.902 85.5369C190.117 85.9612 190.225 86.4981 190.225 87.1477V92H189.051V87.2273C189.051 86.6274 188.896 86.16 188.584 85.8253C188.273 85.4872 187.845 85.3182 187.301 85.3182C186.927 85.3182 186.592 85.3994 186.297 85.5618C186.006 85.7242 185.775 85.9612 185.606 86.2727C185.437 86.5843 185.353 86.9621 185.353 87.4062ZM197.48 81.8182V92H196.306V81.8182H197.48ZM201.876 92.179C201.392 92.179 200.953 92.0878 200.558 91.9055C200.164 91.7199 199.851 91.4531 199.619 91.1051C199.387 90.7538 199.271 90.3295 199.271 89.8324C199.271 89.3949 199.357 89.0402 199.529 88.7685C199.701 88.4934 199.932 88.2779 200.22 88.1222C200.509 87.9664 200.827 87.8504 201.175 87.7741C201.526 87.6946 201.879 87.6316 202.234 87.5852C202.698 87.5256 203.074 87.4808 203.362 87.451C203.654 87.4179 203.866 87.3632 203.999 87.2869C204.134 87.2107 204.202 87.0781 204.202 86.8892V86.8494C204.202 86.3589 204.068 85.9777 203.8 85.706C203.535 85.4342 203.132 85.2983 202.592 85.2983C202.031 85.2983 201.592 85.4209 201.274 85.6662C200.956 85.9115 200.732 86.1733 200.603 86.4517L199.489 86.054C199.688 85.59 199.953 85.2287 200.285 84.9702C200.62 84.7083 200.984 84.526 201.379 84.4233C201.776 84.3172 202.167 84.2642 202.552 84.2642C202.797 84.2642 203.079 84.294 203.397 84.3537C203.719 84.41 204.028 84.5277 204.327 84.7067C204.628 84.8857 204.879 85.1558 205.077 85.517C205.276 85.8783 205.376 86.3622 205.376 86.9688V92H204.202V90.9659H204.143C204.063 91.1316 203.931 91.3089 203.745 91.4979C203.559 91.6868 203.313 91.8475 203.004 91.9801C202.696 92.1127 202.32 92.179 201.876 92.179ZM202.055 91.125C202.519 91.125 202.91 91.0339 203.228 90.8516C203.549 90.6693 203.791 90.4339 203.954 90.1456C204.12 89.8572 204.202 89.554 204.202 89.2358V88.1619C204.153 88.2216 204.043 88.2763 203.874 88.326C203.709 88.3724 203.516 88.4138 203.298 88.4503C203.082 88.4834 202.872 88.5133 202.666 88.5398C202.464 88.563 202.3 88.5829 202.174 88.5994C201.869 88.6392 201.584 88.7038 201.319 88.7933C201.057 88.8795 200.845 89.0104 200.683 89.1861C200.523 89.3584 200.444 89.5937 200.444 89.892C200.444 90.2997 200.595 90.608 200.896 90.8168C201.201 91.0223 201.587 91.125 202.055 91.125ZM208.691 87.4062V92H207.517V84.3636H208.651V85.5568H208.75C208.929 85.169 209.201 84.8575 209.566 84.6222C209.93 84.3835 210.401 84.2642 210.977 84.2642C211.494 84.2642 211.947 84.3703 212.335 84.5824C212.722 84.7912 213.024 85.1094 213.24 85.5369C213.455 85.9612 213.563 86.4981 213.563 87.1477V92H212.389V87.2273C212.389 86.6274 212.234 86.16 211.922 85.8253C211.61 85.4872 211.183 85.3182 210.639 85.3182C210.265 85.3182 209.93 85.3994 209.635 85.5618C209.343 85.7242 209.113 85.9612 208.944 86.2727C208.775 86.5843 208.691 86.9621 208.691 87.4062ZM218.789 95.0227C218.222 95.0227 217.735 94.9498 217.327 94.804C216.92 94.6615 216.58 94.4725 216.308 94.2372C216.04 94.0052 215.826 93.7566 215.667 93.4915L216.602 92.8352C216.708 92.9744 216.842 93.1335 217.004 93.3125C217.167 93.4948 217.389 93.6522 217.67 93.7848C217.955 93.9207 218.328 93.9886 218.789 93.9886C219.406 93.9886 219.914 93.8395 220.315 93.5412C220.716 93.2429 220.917 92.7756 220.917 92.1392V90.5881H220.817C220.731 90.7273 220.609 90.8996 220.45 91.1051C220.294 91.3073 220.068 91.4879 219.773 91.647C219.482 91.8028 219.087 91.8807 218.59 91.8807C217.974 91.8807 217.42 91.7348 216.93 91.4432C216.442 91.1515 216.056 90.7273 215.771 90.1705C215.49 89.6136 215.349 88.9375 215.349 88.142C215.349 87.3598 215.486 86.6787 215.761 86.0987C216.036 85.5154 216.419 85.0646 216.91 84.7464C217.4 84.425 217.967 84.2642 218.61 84.2642C219.107 84.2642 219.502 84.3471 219.793 84.5128C220.088 84.6752 220.314 84.8608 220.469 85.0696C220.629 85.2751 220.751 85.4441 220.837 85.5767H220.957V84.3636H222.09V92.2188C222.09 92.875 221.941 93.4086 221.643 93.8196C221.348 94.2339 220.95 94.5372 220.45 94.7294C219.952 94.925 219.399 95.0227 218.789 95.0227ZM218.749 90.8267C219.22 90.8267 219.618 90.719 219.942 90.5036C220.267 90.2881 220.514 89.9782 220.683 89.5739C220.852 89.1695 220.937 88.6856 220.937 88.1222C220.937 87.572 220.854 87.0864 220.688 86.6655C220.522 86.2446 220.277 85.9148 219.952 85.6761C219.628 85.4375 219.227 85.3182 218.749 85.3182C218.252 85.3182 217.838 85.4441 217.506 85.696C217.178 85.9479 216.931 86.286 216.766 86.7102C216.603 87.1345 216.522 87.6051 216.522 88.1222C216.522 88.6525 216.605 89.1214 216.771 89.5291C216.94 89.9335 217.188 90.2517 217.516 90.4837C217.848 90.7124 218.259 90.8267 218.749 90.8267ZM229.05 88.8778V84.3636H230.224V92H229.05V90.7074H228.971C228.792 91.0952 228.513 91.425 228.136 91.6967C227.758 91.9652 227.281 92.0994 226.704 92.0994C226.227 92.0994 225.802 91.995 225.431 91.7862C225.06 91.5741 224.768 91.2559 224.556 90.8317C224.344 90.4041 224.238 89.8655 224.238 89.2159V84.3636H225.411V89.1364C225.411 89.6932 225.567 90.1373 225.879 90.4688C226.193 90.8002 226.594 90.9659 227.082 90.9659C227.373 90.9659 227.67 90.8913 227.972 90.7422C228.277 90.593 228.532 90.3643 228.737 90.0561C228.946 89.7479 229.05 89.3551 229.05 88.8778ZM234.62 92.179C234.136 92.179 233.697 92.0878 233.302 91.9055C232.908 91.7199 232.595 91.4531 232.363 91.1051C232.131 90.7538 232.015 90.3295 232.015 89.8324C232.015 89.3949 232.101 89.0402 232.273 88.7685C232.446 88.4934 232.676 88.2779 232.964 88.1222C233.253 87.9664 233.571 87.8504 233.919 87.7741C234.27 87.6946 234.623 87.6316 234.978 87.5852C235.442 87.5256 235.818 87.4808 236.106 87.451C236.398 87.4179 236.61 87.3632 236.743 87.2869C236.879 87.2107 236.947 87.0781 236.947 86.8892V86.8494C236.947 86.3589 236.812 85.9777 236.544 85.706C236.279 85.4342 235.876 85.2983 235.336 85.2983C234.776 85.2983 234.336 85.4209 234.018 85.6662C233.7 85.9115 233.476 86.1733 233.347 86.4517L232.233 86.054C232.432 85.59 232.698 85.2287 233.029 84.9702C233.364 84.7083 233.728 84.526 234.123 84.4233C234.52 84.3172 234.912 84.2642 235.296 84.2642C235.541 84.2642 235.823 84.294 236.141 84.3537C236.463 84.41 236.773 84.5277 237.071 84.7067C237.372 84.8857 237.623 85.1558 237.822 85.517C238.02 85.8783 238.12 86.3622 238.12 86.9688V92H236.947V90.9659H236.887C236.807 91.1316 236.675 91.3089 236.489 91.4979C236.304 91.6868 236.057 91.8475 235.748 91.9801C235.44 92.1127 235.064 92.179 234.62 92.179ZM234.799 91.125C235.263 91.125 235.654 91.0339 235.972 90.8516C236.294 90.6693 236.536 90.4339 236.698 90.1456C236.864 89.8572 236.947 89.554 236.947 89.2358V88.1619C236.897 88.2216 236.787 88.2763 236.618 88.326C236.453 88.3724 236.26 88.4138 236.042 88.4503C235.826 88.4834 235.616 88.5133 235.41 88.5398C235.208 88.563 235.044 88.5829 234.918 88.5994C234.613 88.6392 234.328 88.7038 234.063 88.7933C233.801 88.8795 233.589 89.0104 233.427 89.1861C233.268 89.3584 233.188 89.5937 233.188 89.892C233.188 90.2997 233.339 90.608 233.64 90.8168C233.945 91.0223 234.331 91.125 234.799 91.125ZM243.344 95.0227C242.777 95.0227 242.29 94.9498 241.882 94.804C241.474 94.6615 241.135 94.4725 240.863 94.2372C240.594 94.0052 240.381 93.7566 240.222 93.4915L241.156 92.8352C241.262 92.9744 241.397 93.1335 241.559 93.3125C241.721 93.4948 241.943 93.6522 242.225 93.7848C242.51 93.9207 242.883 93.9886 243.344 93.9886C243.96 93.9886 244.469 93.8395 244.87 93.5412C245.271 93.2429 245.472 92.7756 245.472 92.1392V90.5881H245.372C245.286 90.7273 245.163 90.8996 245.004 91.1051C244.848 91.3073 244.623 91.4879 244.328 91.647C244.036 91.8028 243.642 91.8807 243.145 91.8807C242.528 91.8807 241.975 91.7348 241.484 91.4432C240.997 91.1515 240.611 90.7273 240.326 90.1705C240.044 89.6136 239.903 88.9375 239.903 88.142C239.903 87.3598 240.041 86.6787 240.316 86.0987C240.591 85.5154 240.974 85.0646 241.464 84.7464C241.955 84.425 242.522 84.2642 243.165 84.2642C243.662 84.2642 244.056 84.3471 244.348 84.5128C244.643 84.6752 244.868 84.8608 245.024 85.0696C245.183 85.2751 245.306 85.4441 245.392 85.5767H245.511V84.3636H246.645V92.2188C246.645 92.875 246.496 93.4086 246.197 93.8196C245.902 94.2339 245.505 94.5372 245.004 94.7294C244.507 94.925 243.954 95.0227 243.344 95.0227ZM243.304 90.8267C243.775 90.8267 244.172 90.719 244.497 90.5036C244.822 90.2881 245.069 89.9782 245.238 89.5739C245.407 89.1695 245.491 88.6856 245.491 88.1222C245.491 87.572 245.409 87.0864 245.243 86.6655C245.077 86.2446 244.832 85.9148 244.507 85.6761C244.182 85.4375 243.781 85.3182 243.304 85.3182C242.807 85.3182 242.393 85.4441 242.061 85.696C241.733 85.9479 241.486 86.286 241.32 86.7102C241.158 87.1345 241.077 87.6051 241.077 88.1222C241.077 88.6525 241.16 89.1214 241.325 89.5291C241.494 89.9335 241.743 90.2517 242.071 90.4837C242.402 90.7124 242.813 90.8267 243.304 90.8267ZM251.994 92.1591C251.259 92.1591 250.624 91.9967 250.09 91.6719C249.56 91.3438 249.151 90.8864 248.862 90.2997C248.577 89.7098 248.435 89.0237 248.435 88.2415C248.435 87.4593 248.577 86.7699 248.862 86.1733C249.151 85.5734 249.552 85.1061 250.065 84.7713C250.582 84.4332 251.186 84.2642 251.875 84.2642C252.273 84.2642 252.665 84.3305 253.053 84.4631C253.441 84.5956 253.794 84.8111 254.112 85.1094C254.43 85.4044 254.684 85.7955 254.873 86.2827C255.062 86.7699 255.156 87.3698 255.156 88.0824V88.5795H249.27V87.5653H253.963C253.963 87.1345 253.877 86.75 253.705 86.4119C253.536 86.0739 253.294 85.8071 252.979 85.6115C252.667 85.416 252.299 85.3182 251.875 85.3182C251.408 85.3182 251.003 85.4342 250.662 85.6662C250.324 85.8949 250.064 86.1932 249.881 86.5611C249.699 86.929 249.608 87.3234 249.608 87.7443V88.4205C249.608 88.9972 249.707 89.486 249.906 89.8871C250.108 90.2848 250.388 90.5881 250.746 90.7969C251.104 91.0024 251.52 91.1051 251.994 91.1051C252.303 91.1051 252.581 91.062 252.83 90.9759C253.081 90.8864 253.299 90.7538 253.481 90.5781C253.663 90.3991 253.804 90.1771 253.903 89.9119L255.037 90.2301C254.918 90.6146 254.717 90.9527 254.435 91.2443C254.154 91.5327 253.806 91.758 253.391 91.9205C252.977 92.0795 252.511 92.1591 251.994 92.1591ZM263.762 92.1392C263.093 92.1392 262.516 92.0166 262.032 91.7713C261.548 91.526 261.175 91.1896 260.913 90.7621C260.652 90.3345 260.521 89.8456 260.521 89.2955C260.521 88.8712 260.61 88.495 260.789 88.1669C260.971 87.8355 261.222 87.5289 261.54 87.2472C261.861 86.9621 262.231 86.6771 262.648 86.392L264.12 85.2983C264.408 85.1094 264.639 84.9072 264.811 84.6918C264.987 84.4763 265.075 84.1946 265.075 83.8466C265.075 83.5881 264.96 83.3378 264.732 83.0959C264.506 82.8539 264.21 82.733 263.842 82.733C263.583 82.733 263.354 82.7992 263.156 82.9318C262.96 83.0611 262.806 83.2268 262.693 83.429C262.584 83.6278 262.529 83.8333 262.529 84.0455C262.529 84.2841 262.594 84.526 262.723 84.7713C262.856 85.0133 263.023 85.2618 263.225 85.517C263.431 85.7689 263.643 86.0275 263.862 86.2926L268.535 92H267.123L263.265 87.3466C262.907 86.9157 262.582 86.5246 262.29 86.1733C261.999 85.822 261.767 85.4756 261.594 85.1342C261.422 84.7929 261.336 84.4233 261.336 84.0256C261.336 83.5682 261.437 83.1671 261.639 82.8224C261.845 82.4744 262.131 82.2043 262.499 82.0121C262.871 81.8165 263.305 81.7188 263.802 81.7188C264.312 81.7188 264.751 81.8182 265.119 82.017C265.487 82.2126 265.771 82.4728 265.969 82.7976C266.168 83.1191 266.268 83.4688 266.268 83.8466C266.268 84.3338 266.147 84.7564 265.905 85.1143C265.663 85.4723 265.333 85.8054 264.915 86.1136L262.887 87.625C262.43 87.9631 262.12 88.2912 261.957 88.6094C261.795 88.9276 261.714 89.1562 261.714 89.2955C261.714 89.6136 261.797 89.9103 261.962 90.1854C262.128 90.4605 262.362 90.6825 262.663 90.8516C262.965 91.0206 263.318 91.1051 263.722 91.1051C264.107 91.1051 264.481 91.0239 264.846 90.8615C265.21 90.6958 265.54 90.4571 265.835 90.1456C266.134 89.834 266.369 89.4595 266.541 89.022C266.717 88.5845 266.805 88.0923 266.805 87.5455H267.938C267.938 88.2216 267.86 88.7734 267.705 89.201C267.549 89.6286 267.373 89.9633 267.178 90.2053C266.982 90.4472 266.825 90.6278 266.705 90.7472C266.665 90.7969 266.629 90.8466 266.596 90.8963C266.563 90.946 266.526 90.9957 266.487 91.0455C266.158 91.4134 265.744 91.6884 265.244 91.8707C264.743 92.0497 264.249 92.1392 263.762 92.1392ZM276.873 92.1591C276.157 92.1591 275.541 91.9901 275.024 91.652C274.507 91.3139 274.109 90.8482 273.831 90.255C273.552 89.6617 273.413 88.9839 273.413 88.2216C273.413 87.446 273.556 86.7616 273.841 86.1683C274.129 85.5717 274.53 85.1061 275.044 84.7713C275.561 84.4332 276.164 84.2642 276.854 84.2642C277.39 84.2642 277.874 84.3636 278.305 84.5625C278.736 84.7614 279.089 85.0398 279.364 85.3977C279.639 85.7557 279.81 86.1733 279.876 86.6506H278.703C278.613 86.3026 278.415 85.9943 278.106 85.7259C277.801 85.4541 277.39 85.3182 276.873 85.3182C276.416 85.3182 276.015 85.4375 275.67 85.6761C275.329 85.9115 275.062 86.2446 274.87 86.6754C274.681 87.103 274.586 87.6051 274.586 88.1818C274.586 88.7718 274.679 89.2855 274.865 89.723C275.054 90.1605 275.319 90.5002 275.66 90.7422C276.005 90.9841 276.409 91.1051 276.873 91.1051C277.178 91.1051 277.455 91.0521 277.704 90.946C277.952 90.84 278.163 90.6875 278.335 90.4886C278.507 90.2898 278.63 90.0511 278.703 89.7727H279.876C279.81 90.2235 279.646 90.6295 279.384 90.9908C279.126 91.3487 278.782 91.6338 278.355 91.8459C277.931 92.0547 277.437 92.1591 276.873 92.1591ZM286.404 88.8778V84.3636H287.577V92H286.404V90.7074H286.324C286.145 91.0952 285.867 91.425 285.489 91.6967C285.111 91.9652 284.634 92.0994 284.057 92.0994C283.58 92.0994 283.156 91.995 282.785 91.7862C282.413 91.5741 282.122 91.2559 281.91 90.8317C281.698 90.4041 281.591 89.8655 281.591 89.2159V84.3636H282.765V89.1364C282.765 89.6932 282.921 90.1373 283.232 90.4688C283.547 90.8002 283.948 90.9659 284.435 90.9659C284.727 90.9659 285.023 90.8913 285.325 90.7422C285.63 90.593 285.885 90.3643 286.091 90.0561C286.3 89.7479 286.404 89.3551 286.404 88.8778ZM290.9 81.8182V92H289.726V81.8182H290.9ZM296.369 84.3636V85.358H292.412V84.3636H296.369ZM293.566 82.5341H294.739V89.8125C294.739 90.1439 294.787 90.3925 294.883 90.5582C294.982 90.7206 295.108 90.83 295.261 90.8864C295.417 90.9394 295.581 90.9659 295.753 90.9659C295.882 90.9659 295.988 90.9593 296.071 90.946C296.154 90.9295 296.22 90.9162 296.27 90.9062L296.509 91.9602C296.429 91.9901 296.318 92.0199 296.176 92.0497C296.033 92.0829 295.852 92.0994 295.634 92.0994C295.302 92.0994 294.977 92.0282 294.659 91.8857C294.344 91.7431 294.083 91.526 293.874 91.2344C293.668 90.9427 293.566 90.5748 293.566 90.1307V82.5341ZM302.947 88.8778V84.3636H304.12V92H302.947V90.7074H302.867C302.688 91.0952 302.41 91.425 302.032 91.6967C301.654 91.9652 301.177 92.0994 300.6 92.0994C300.123 92.0994 299.699 91.995 299.328 91.7862C298.956 91.5741 298.665 91.2559 298.453 90.8317C298.24 90.4041 298.134 89.8655 298.134 89.2159V84.3636H299.308V89.1364C299.308 89.6932 299.463 90.1373 299.775 90.4688C300.09 90.8002 300.491 90.9659 300.978 90.9659C301.27 90.9659 301.566 90.8913 301.868 90.7422C302.173 90.593 302.428 90.3643 302.634 90.0561C302.843 89.7479 302.947 89.3551 302.947 88.8778ZM306.269 92V84.3636H307.403V85.517H307.482C307.621 85.1392 307.873 84.8326 308.238 84.5973C308.603 84.362 309.013 84.2443 309.471 84.2443C309.557 84.2443 309.665 84.246 309.794 84.2493C309.923 84.2526 310.021 84.2576 310.087 84.2642V85.4574C310.048 85.4474 309.956 85.4325 309.814 85.4126C309.675 85.3894 309.527 85.3778 309.371 85.3778C309 85.3778 308.669 85.4557 308.377 85.6115C308.089 85.764 307.86 85.9761 307.691 86.2479C307.525 86.5163 307.442 86.8229 307.442 87.1676V92H306.269ZM314.447 92.1591C313.712 92.1591 313.077 91.9967 312.543 91.6719C312.013 91.3438 311.604 90.8864 311.315 90.2997C311.03 89.7098 310.888 89.0237 310.888 88.2415C310.888 87.4593 311.03 86.7699 311.315 86.1733C311.604 85.5734 312.005 85.1061 312.518 84.7713C313.036 84.4332 313.639 84.2642 314.328 84.2642C314.726 84.2642 315.119 84.3305 315.506 84.4631C315.894 84.5956 316.247 84.8111 316.565 85.1094C316.884 85.4044 317.137 85.7955 317.326 86.2827C317.515 86.7699 317.609 87.3698 317.609 88.0824V88.5795H311.723V87.5653H316.416C316.416 87.1345 316.33 86.75 316.158 86.4119C315.989 86.0739 315.747 85.8071 315.432 85.6115C315.12 85.416 314.752 85.3182 314.328 85.3182C313.861 85.3182 313.456 85.4342 313.115 85.6662C312.777 85.8949 312.517 86.1932 312.335 86.5611C312.152 86.929 312.061 87.3234 312.061 87.7443V88.4205C312.061 88.9972 312.161 89.486 312.359 89.8871C312.562 90.2848 312.842 90.5881 313.2 90.7969C313.558 91.0024 313.973 91.1051 314.447 91.1051C314.756 91.1051 315.034 91.062 315.283 90.9759C315.535 90.8864 315.752 90.7538 315.934 90.5781C316.116 90.3991 316.257 90.1771 316.357 89.9119L317.49 90.2301C317.371 90.6146 317.17 90.9527 316.888 91.2443C316.607 91.5327 316.259 91.758 315.844 91.9205C315.43 92.0795 314.964 92.1591 314.447 92.1591Z" fill="#414141"/>
<circle cx="47" cy="54" r="9" fill="#DAEBFD"/>
<circle cx="47" cy="86" r="9" fill="#DAEBFD"/>
<path d="M43 54.5L45.6667 57L51 52" stroke="#0C99FF" strokeWidth="1.7" strokeLinecap="round"/>
<path d="M43 86.5L45.6667 89L51 84" stroke="#0C99FF" strokeWidth="1.7" strokeLinecap="round"/>
<defs>
<filter id="filter0_d_675_8281" x="0.1" y="0.1" width="378.8" height="139.8" filterUnits="userSpaceOnUse" color-interpolation-filters="sRGB">
<feFlood flood-opacity="0" result="BackgroundImageFix"/>
<feColorMatrix in="SourceAlpha" type="matrix" values="0 0 0 0 0 0 0 0 0 0 0 0 0 0 0 0 0 0 127 0" result="hardAlpha"/>
<feOffset dy="1"/>
<feGaussianBlur stdDeviation="14.45"/>
<feComposite in2="hardAlpha" operator="out"/>
<feColorMatrix type="matrix" values="0 0 0 0 0 0 0 0 0 0 0 0 0 0 0 0 0 0 0.16 0"/>
<feBlend mode="normal" in2="BackgroundImageFix" result="effect1_dropShadow_675_8281"/>
<feBlend mode="normal" in="SourceGraphic" in2="effect1_dropShadow_675_8281" result="shape"/>
</filter>
</defs>
</svg>
