<svg width="435" height="583" viewBox="0 0 435 583" fill="none" xmlns="http://www.w3.org/2000/svg">
<g clip-path="url(#clip0_675_8847)">
<mask id="path-1-outside-1_675_8847" maskUnits="userSpaceOnUse" x="0.925781" y="0" width="434" height="583" fill="black">
<rect fill="white" x="0.925781" width="434" height="583"/>
<path d="M0.925781 20.0698C0.925781 8.98559 9.91134 0 20.9956 0H414.364C425.448 0 434.434 8.98556 434.434 20.0698V554.93C434.434 566.014 425.448 575 414.364 575H20.9956C9.91132 575 0.925781 566.014 0.925781 554.93V20.0698Z"/>
</mask>
<path d="M0.925781 20.0698C0.925781 8.98559 9.91134 0 20.9956 0H414.364C425.448 0 434.434 8.98556 434.434 20.0698V554.93C434.434 566.014 425.448 575 414.364 575H20.9956C9.91132 575 0.925781 566.014 0.925781 554.93V20.0698Z" fill="#EBEBEB"/>
<path opacity="0.0144928" d="M481.484 588.64C491.691 592.624 503.302 589.372 509.956 580.666L585.269 482.125C589.204 476.976 590.947 470.483 590.12 464.056L565.741 274.702C565.09 269.648 562.885 264.921 559.431 261.174L448.903 141.316C442.639 134.523 433.096 131.816 424.199 134.308L322.934 162.669C314.036 165.161 307.287 172.431 305.463 181.488L273.266 341.319C272.259 346.314 272.83 351.499 274.899 356.156L352.415 530.628C355.046 536.55 359.908 541.193 365.945 543.549L481.484 588.64Z" stroke="url(#paint0_linear_675_8847)" stroke-opacity="0.14" stroke-width="1.00349"/>
<path opacity="0.0289855" d="M459.686 590.062C469.651 594.547 481.381 591.915 488.475 583.603L568.356 490.014C572.568 485.078 574.659 478.677 574.171 472.206L559.968 283.697C559.584 278.6 557.621 273.75 554.352 269.821L451.051 145.651C445.15 138.557 435.773 135.365 426.769 137.385L324.844 160.253C315.841 162.273 308.726 169.165 306.421 178.1L266.069 334.5C264.792 339.45 265.09 344.674 266.92 349.446L334.612 525.954C336.936 532.013 341.561 536.907 347.479 539.57L459.686 590.062Z" stroke="url(#paint1_linear_675_8847)" stroke-opacity="0.14" stroke-width="1.00349"/>
<path opacity="0.0434783" d="M438.005 590.813C447.704 595.784 459.517 593.776 467.03 585.881L551.167 497.449C555.647 492.74 558.08 486.45 557.935 479.952L553.751 292.83C553.636 287.705 551.922 282.743 548.848 278.64L452.921 150.583C447.396 143.207 438.21 139.541 429.124 141.085L326.835 158.469C317.75 160.014 310.291 166.509 307.513 175.296L259.278 327.854C257.732 332.743 257.753 337.992 259.339 342.868L317.208 520.865C319.218 527.046 323.593 532.179 329.376 535.143L438.005 590.813Z" stroke="url(#paint2_linear_675_8847)" stroke-opacity="0.14" stroke-width="1.00349"/>
<path opacity="0.057971" d="M416.481 590.907C425.889 596.348 437.754 594.965 445.659 587.507L533.735 504.419C538.469 499.952 541.239 493.791 541.438 487.285L547.088 302.078C547.245 296.937 545.785 291.877 542.916 287.61L454.484 156.092C449.349 148.455 440.378 144.325 431.237 145.39L328.875 157.317C319.733 158.382 311.952 164.463 308.71 173.076L252.883 321.401C251.071 326.214 250.815 331.474 252.149 336.441L300.227 515.388C301.916 521.674 306.028 527.034 311.663 530.292L416.481 590.907Z" stroke="url(#paint3_linear_675_8847)" stroke-opacity="0.14" stroke-width="1.00349"/>
<path opacity="0.0724638" d="M395.137 590.357C404.233 596.251 416.115 595.494 424.388 588.494L516.074 510.915C521.051 506.704 524.151 500.69 524.694 494.194L539.966 311.413C540.395 306.272 539.197 301.126 536.54 296.704L455.702 162.156C450.968 154.278 442.236 149.698 433.064 150.282L330.918 156.791C321.746 157.375 313.665 163.026 309.97 171.441L246.861 315.16C244.787 319.884 244.251 325.14 245.33 330.185L283.675 509.55C285.038 515.924 288.877 521.497 294.347 525.042L395.137 590.357Z" stroke="url(#paint4_linear_675_8847)" stroke-opacity="0.14" stroke-width="1.00349"/>
<path opacity="0.0869565" d="M374.017 589.181C382.777 595.51 394.643 595.376 403.259 588.851L498.222 516.93C503.426 512.988 506.849 507.138 507.736 500.67L532.391 320.811C533.094 315.684 532.161 310.465 529.725 305.899L456.554 168.751C452.234 160.654 443.763 155.637 434.585 155.74L332.939 156.886C323.761 156.989 315.406 162.196 311.269 170.389L241.207 309.15C238.874 313.77 238.059 319.008 238.877 324.118L267.579 503.376C268.611 509.823 272.165 515.594 277.457 519.418L374.017 589.181Z" stroke="url(#paint5_linear_675_8847)" stroke-opacity="0.14" stroke-width="1.00349"/>
<path opacity="0.101449" d="M353.149 587.396C361.553 594.141 373.37 594.627 382.3 588.594L480.201 522.458C485.62 518.797 489.357 513.129 490.586 506.707L524.361 330.246C525.337 325.147 524.674 319.869 522.466 315.17L457.012 175.852C453.115 167.557 444.927 162.118 435.77 161.741L334.901 157.594C325.744 157.218 317.137 161.966 312.572 169.913L235.902 303.388C233.316 307.89 232.222 313.095 232.776 318.258L251.951 496.895C252.649 503.397 255.908 509.353 261.007 513.446L353.149 587.396Z" stroke="url(#paint6_linear_675_8847)" stroke-opacity="0.14" stroke-width="1.00349"/>
<path opacity="0.115942" d="M332.568 585.022C340.597 592.163 352.333 593.262 361.548 587.738L462.045 527.494C467.662 524.127 471.704 518.657 473.273 512.299L515.88 339.694C517.128 334.636 516.738 329.313 514.766 324.492L457.054 183.431C453.589 174.961 445.706 169.116 436.594 168.262L336.776 158.907C327.664 158.053 318.832 162.331 313.853 170.009L230.935 297.89C228.101 302.261 226.729 307.419 227.016 312.62L236.807 490.136C237.168 496.676 240.123 502.801 245.016 507.153L332.568 585.022Z" stroke="url(#paint7_linear_675_8847)" stroke-opacity="0.14" stroke-width="1.00349"/>
<path opacity="0.130435" d="M312.299 582.081C319.934 589.596 331.555 591.303 341.028 586.3L443.774 532.036C449.574 528.973 453.91 523.719 455.816 517.442L506.944 349.129C508.463 344.128 508.349 338.773 506.619 333.842L456.653 191.462C453.627 182.839 446.068 176.606 437.027 175.278L338.525 160.813C329.484 159.485 320.452 163.282 315.075 170.671L226.284 292.673C223.208 296.899 221.56 301.995 221.577 307.221L222.155 483.128C222.176 489.688 224.818 495.967 229.493 500.568L312.299 582.081Z" stroke="url(#paint8_linear_675_8847)" stroke-opacity="0.14" stroke-width="1.00349"/>
<path opacity="0.144928" d="M292.372 578.596C299.595 586.464 311.071 588.768 320.771 584.299L425.418 536.083C431.385 533.334 436.004 528.31 438.243 522.134L497.561 358.526C499.348 353.596 499.512 348.224 498.029 343.194L455.789 199.915C453.209 191.163 445.994 184.56 437.048 182.763L340.121 163.3C331.175 161.503 321.97 164.809 316.211 171.887L221.933 287.752C218.623 291.819 216.701 296.839 216.446 302.076L208.005 475.9C207.687 482.463 210.008 488.88 214.451 493.719L292.372 578.596Z" stroke="url(#paint9_linear_675_8847)" stroke-opacity="0.14" stroke-width="1.00349"/>
<path opacity="0.15942" d="M272.813 574.591C279.608 582.788 290.908 585.68 300.805 581.754L407.004 539.635C413.121 537.208 418.011 532.431 420.578 526.372L487.734 367.862C489.786 363.017 490.23 357.641 489.001 352.525L454.443 208.762C452.313 199.903 445.46 192.949 436.633 190.69L341.533 166.353C332.707 164.094 323.355 166.902 317.232 173.648L217.864 283.139C214.328 287.035 212.135 291.964 211.608 297.199L194.367 468.483C193.708 475.03 195.702 481.569 199.901 486.635L272.813 574.591Z" stroke="url(#paint10_linear_675_8847)" stroke-opacity="0.14" stroke-width="1.00349"/>
<path opacity="0.173913" d="M253.651 570.092C260.004 578.595 271.096 582.061 281.16 578.688L388.563 542.693C394.813 540.598 399.96 536.081 402.849 530.157L477.473 377.112C479.787 372.366 480.512 367.001 479.54 361.811L452.6 217.971C450.925 209.029 444.45 201.744 435.768 199.03L342.735 169.957C334.052 167.243 324.581 169.546 318.113 175.943L214.063 278.848C210.309 282.561 207.85 287.384 207.05 292.603L181.251 460.906C180.252 467.421 181.911 474.065 185.856 479.345L253.651 570.092Z" stroke="url(#paint11_linear_675_8847)" stroke-opacity="0.14" stroke-width="1.00349"/>
<path opacity="0.188406" d="M234.905 565.124C240.801 573.909 251.657 577.937 261.856 575.123L370.116 545.26C376.48 543.504 381.871 539.262 385.075 533.489L466.781 386.253C469.352 381.62 470.358 376.28 469.647 371.029L450.239 227.51C449.022 218.51 442.942 210.913 434.427 207.754L343.694 174.093C335.178 170.934 325.615 172.727 318.822 178.756L210.505 274.89C206.542 278.407 203.821 283.11 202.748 288.3L168.655 453.199C167.318 459.665 168.638 466.396 172.318 471.878L234.905 565.124Z" stroke="url(#paint12_linear_675_8847)" stroke-opacity="0.14" stroke-width="1.00349"/>
<path opacity="0.202899" d="M216.598 559.718C222.026 568.759 232.616 573.332 242.92 571.083L351.691 547.341C358.153 545.931 363.774 541.977 367.284 536.372L455.67 395.263C458.493 390.756 459.778 385.455 459.334 380.156L447.35 237.349C446.592 228.313 440.922 220.428 432.597 216.833L344.386 178.744C336.061 175.15 326.434 176.429 319.337 182.073L207.173 271.275C203.011 274.585 200.035 279.155 198.69 284.3L156.586 445.394C154.914 451.792 155.89 458.595 159.294 464.265L216.598 559.718Z" stroke="url(#paint13_linear_675_8847)" stroke-opacity="0.14" stroke-width="1.00349"/>
<path opacity="0.217391" d="M198.749 553.9C203.698 563.173 213.995 568.275 224.371 566.594L333.314 548.943C339.854 547.883 345.689 544.23 349.498 538.809L444.148 404.118C447.216 399.751 448.78 394.504 448.604 389.17L443.919 247.454C443.62 238.406 438.373 230.255 430.261 226.236L344.785 183.89C336.673 179.871 327.009 180.635 319.63 185.879L204.046 268.013C199.696 271.105 196.469 275.528 194.854 280.615L145.043 437.52C143.039 443.834 143.667 450.69 146.787 456.535L198.749 553.9Z" stroke="url(#paint14_linear_675_8847)" stroke-opacity="0.14" stroke-width="1.00349"/>
<path opacity="0.231884" d="M181.379 547.701C185.839 557.18 195.816 562.792 206.233 561.68L315.011 550.072C321.61 549.368 327.643 546.026 331.741 540.806L432.228 412.798C435.535 408.584 437.376 403.405 437.471 398.049L439.938 257.792C440.097 248.756 435.286 240.361 427.409 235.931L344.868 189.508C336.991 185.078 327.318 185.327 319.679 190.156L201.106 265.112C196.577 267.975 193.108 272.237 191.226 277.253L134.029 429.608C131.697 435.821 131.975 442.713 134.8 448.717L181.379 547.701Z" stroke="url(#paint15_linear_675_8847)" stroke-opacity="0.14" stroke-width="1.00349"/>
<path opacity="0.246377" d="M164.504 541.152C168.468 550.81 178.099 556.912 188.526 556.37L296.808 550.737C303.446 550.392 309.662 547.373 314.038 542.369L419.924 421.281C423.463 417.234 425.578 412.137 425.945 406.773L435.401 268.331C436.015 259.33 431.651 250.716 424.029 245.887L344.614 195.578C336.993 190.749 327.339 190.484 319.463 194.885L198.332 262.579C193.638 265.202 189.934 269.292 187.786 274.221L123.542 421.688C120.887 427.783 120.813 434.692 123.336 440.842L164.504 541.152Z" stroke="url(#paint16_linear_675_8847)" stroke-opacity="0.14" stroke-width="1.00349"/>
<path opacity="0.26087" d="M148.135 534.283C151.595 544.095 160.857 550.666 171.261 550.691L278.724 550.948C285.383 550.964 291.764 548.278 296.407 543.505L407.245 429.549C411.008 425.68 413.393 420.68 414.033 415.32L430.296 279.038C431.363 270.095 427.455 261.284 420.11 256.073L343.998 202.075C336.653 196.863 327.046 196.086 318.958 200.047L195.7 260.421C190.853 262.795 186.922 266.698 184.513 271.528L113.573 413.79C110.601 419.75 110.174 426.659 112.389 432.939L148.135 534.283Z" stroke="url(#paint17_linear_675_8847)" stroke-opacity="0.14" stroke-width="1.00349"/>
<path opacity="0.275362" d="M132.287 527.127C135.239 537.065 144.108 544.083 154.458 544.671L260.785 550.717C267.446 551.095 273.974 548.751 278.872 544.222L394.208 437.581C398.186 433.903 400.838 429.013 401.751 423.672L424.623 289.878C426.138 281.016 422.695 272.034 415.645 266.456L343.003 208.975C335.953 203.396 326.42 202.11 318.144 205.622L193.192 258.641C188.204 260.757 184.055 264.462 181.39 269.179L104.121 405.943C100.839 411.751 100.059 418.643 101.958 425.038L132.287 527.127Z" stroke="url(#paint18_linear_675_8847)" stroke-opacity="0.14" stroke-width="1.00349"/>
<path opacity="0.289855" d="M116.968 519.714C119.409 529.752 127.863 537.193 138.129 538.34L243.013 550.054C249.654 550.796 256.312 548.802 261.452 544.531L380.827 445.36C385.011 441.884 387.924 437.118 389.11 431.81L418.377 300.818C420.334 292.06 417.364 282.932 410.627 277.002L341.609 216.252C334.873 210.323 325.442 208.535 317.003 211.588L190.785 257.242C185.669 259.093 181.312 262.587 178.395 267.178L95.1758 398.174C91.5923 403.815 90.4594 410.672 92.0381 417.165L116.968 519.714Z" stroke="url(#paint19_linear_675_8847)" stroke-opacity="0.14" stroke-width="1.00349"/>
<path opacity="0.304348" d="M102.193 512.079C104.118 522.189 112.138 530.03 122.289 531.727L225.43 548.974C232.034 550.079 238.802 548.442 244.171 544.443L367.122 452.869C371.502 449.606 374.671 444.979 376.129 439.716L411.563 311.826C413.955 303.193 411.462 293.944 405.058 287.682L339.804 223.882C333.399 217.62 324.096 215.337 315.52 217.923L188.461 256.229C183.232 257.806 178.677 261.078 175.514 265.531L86.7333 390.514C82.8562 395.972 81.3727 402.775 82.6254 409.352L102.193 512.079Z" stroke="url(#paint20_linear_675_8847)" stroke-opacity="0.14" stroke-width="1.00349"/>
<path opacity="0.318841" d="M87.9616 504.252C89.372 514.408 96.9376 522.622 106.944 524.862L208.055 547.492C214.6 548.957 221.46 547.684 227.044 543.968L353.107 460.09C357.672 457.053 361.091 452.576 362.819 447.372L404.178 322.867C406.996 314.382 404.987 305.037 398.93 298.46L337.569 231.837C331.512 225.261 322.363 222.491 313.675 224.603L186.195 255.601C180.867 256.897 176.125 259.937 172.723 264.237L78.7788 382.988C74.6175 388.248 72.7859 394.98 73.7085 401.624L87.9616 504.252Z" stroke="url(#paint21_linear_675_8847)" stroke-opacity="0.14" stroke-width="1.00349"/>
<path opacity="0.333333" d="M74.2824 496.268C75.1782 506.443 82.2723 515.005 92.104 517.775L190.909 545.622C197.376 547.445 204.308 546.541 210.092 543.121L338.8 467.011C343.539 464.208 347.201 459.896 349.198 454.764L396.227 333.91C399.463 325.594 397.939 316.178 392.246 309.308L334.891 240.09C329.198 233.219 320.229 229.973 311.457 231.607L183.969 255.36C178.556 256.369 173.638 259.165 170.003 263.301L71.3028 375.625C66.8673 380.673 64.6911 387.316 65.2804 394.01L74.2824 496.268Z" stroke="url(#paint22_linear_675_8847)" stroke-opacity="0.14" stroke-width="1.00349"/>
<path opacity="0.347826" d="M61.1588 488.157C61.5418 498.325 68.1486 507.206 77.7771 510.496L174.01 543.38C180.38 545.557 187.364 545.026 193.333 541.912L324.222 473.614C329.124 471.057 333.021 466.921 335.283 461.876L387.717 344.921C391.36 336.795 390.324 327.334 385.009 320.189L331.762 248.612C326.447 241.467 317.683 237.755 308.853 238.908L181.761 255.503C176.279 256.219 171.198 258.762 167.338 262.721L64.2927 368.448C59.5939 373.269 57.0776 379.806 57.331 386.533L61.1588 488.157Z" stroke="url(#paint23_linear_675_8847)" stroke-opacity="0.14" stroke-width="1.00349"/>
<path opacity="0.362319" d="M48.5905 479.954C48.464 490.088 54.5692 499.261 63.9665 503.057L157.374 540.785C163.628 543.311 170.645 543.156 176.782 540.358L309.391 479.89C314.443 477.586 318.567 473.64 321.09 468.694L378.653 355.871C382.692 347.955 382.144 338.475 377.22 331.076L328.17 257.377C323.246 249.979 314.712 245.813 305.85 246.483L179.552 256.028C174.015 256.447 168.782 258.727 164.707 262.499L57.733 361.484C52.7825 366.065 49.9313 372.478 49.8471 379.222L48.5905 479.954Z" stroke="url(#paint24_linear_675_8847)" stroke-opacity="0.14" stroke-width="1.00349"/>
<path opacity="0.376812" d="M36.5737 471.69C35.9426 481.764 41.5335 491.201 50.6725 495.487L141.016 537.853C147.134 540.722 154.164 540.947 160.453 538.473L294.323 485.825C299.513 483.784 303.855 480.039 306.636 475.205L369.042 366.728C373.464 359.04 373.404 349.567 368.883 341.936L324.103 266.356C319.583 258.725 311.303 254.121 302.436 254.307L177.316 256.934C171.74 257.051 166.37 259.06 162.087 262.631L51.6049 354.756C46.4148 359.083 43.2348 365.357 42.8124 372.101L36.5737 471.69Z" stroke="url(#paint25_linear_675_8847)" stroke-opacity="0.14" stroke-width="1.00349"/>
<path opacity="0.391304" d="M25.1128 463.397C23.9832 473.386 29.0486 483.056 37.9033 487.816L124.957 534.604C130.921 537.809 137.942 538.413 144.366 536.274L279.047 491.409C284.362 489.639 288.912 486.107 291.946 481.398L358.901 377.461C363.694 370.021 364.118 360.579 360.011 352.739L319.564 275.519C315.457 267.679 307.454 262.652 298.608 262.355L175.041 258.214C169.443 258.026 163.948 259.756 159.467 263.117L45.8982 348.286C40.4815 352.348 36.9798 358.465 36.2189 365.192L25.1128 463.397Z" stroke="url(#paint26_linear_675_8847)" stroke-opacity="0.14" stroke-width="1.00349"/>
<path opacity="0.405797" d="M14.1966 455.107C12.5758 464.986 17.1064 474.86 25.6518 480.075L109.204 531.057C114.995 534.591 121.988 535.574 128.529 533.775L263.577 496.634C269.002 495.142 273.751 491.834 277.032 487.263L348.236 388.043C353.385 380.868 354.29 371.483 350.608 363.456L314.539 284.84C310.856 276.813 303.151 271.379 294.354 270.602L172.701 259.864C167.097 259.37 161.492 260.812 156.822 263.952L40.588 342.098C34.9582 345.883 31.1426 351.826 30.0442 358.52L14.1966 455.107Z" stroke="url(#paint27_linear_675_8847)" stroke-opacity="0.14" stroke-width="1.00349"/>
<path opacity="0.42029" d="M3.82378 446.85C1.7205 456.594 5.70851 466.643 13.9206 472.293L93.7747 527.232C99.3747 531.084 106.32 532.447 112.96 530.995L247.938 501.49C253.46 500.283 258.397 497.21 261.919 492.789L337.066 398.443C342.556 391.55 343.937 382.247 340.687 374.057L309.031 294.289C305.781 286.098 298.396 280.274 289.674 279.021L170.282 261.878C164.687 261.074 158.986 262.223 154.14 265.131L35.6599 336.21C29.8311 339.707 25.7102 345.461 24.2759 352.105L3.82378 446.85Z" stroke="url(#paint28_linear_675_8847)" stroke-opacity="0.14" stroke-width="1.00349"/>
<path opacity="0.434783" d="M-6.01681 438.657C-8.59256 448.242 -5.15313 458.435 2.70294 464.499L78.6777 523.148C84.069 527.31 90.9452 529.049 97.6668 527.95L232.15 505.97C237.754 505.054 242.868 502.227 246.624 497.968L325.403 408.635C331.218 402.041 333.069 392.844 330.258 384.514L303.036 303.837C300.225 295.506 293.18 289.311 284.558 287.588L167.761 264.247C162.193 263.135 156.411 263.984 151.398 266.65L31.0904 330.642C25.0773 333.841 20.6604 339.39 18.8928 345.967L-6.01681 438.657Z" stroke="url(#paint29_linear_675_8847)" stroke-opacity="0.14" stroke-width="1.00349"/>
<path opacity="0.449275" d="M-15.3343 430.557C-18.3713 439.959 -15.4847 450.266 -8.00614 456.723L63.9236 518.828C69.0891 523.288 75.8759 525.4 82.6601 524.659L216.234 510.07C221.906 509.45 227.185 506.878 231.168 502.793L313.264 418.593C319.387 412.313 321.701 403.246 319.335 394.8L296.554 313.456C294.188 305.01 287.502 298.463 279.007 296.277L165.121 266.964C159.596 265.542 153.748 266.086 148.58 268.502L26.8585 325.412C20.6763 328.303 15.9737 333.633 13.876 340.127L-15.3343 430.557Z" stroke="url(#paint30_linear_675_8847)" stroke-opacity="0.14" stroke-width="1.00349"/>
<path opacity="0.463768" d="M-24.1378 422.58C-27.6237 431.777 -25.2926 442.167 -18.2116 448.993L49.5232 514.292C54.4464 519.038 61.1239 521.52 67.9517 521.14L200.216 513.785C205.94 513.467 211.372 511.158 215.574 507.259L300.669 428.293C307.084 422.341 309.851 413.428 307.935 404.89L289.589 323.12C287.673 314.581 281.364 307.705 273.021 305.063L162.347 270.021C156.882 268.29 150.984 268.524 145.673 270.682L22.9441 320.538C16.6085 323.111 11.6312 328.207 9.20753 334.602L-24.1378 422.58Z" stroke="url(#paint31_linear_675_8847)" stroke-opacity="0.14" stroke-width="1.00349"/>
<path opacity="0.478261" d="M-32.4425 414.751C-36.3639 423.722 -34.5892 434.164 -27.9244 441.335L35.482 509.562C40.1469 514.581 46.6949 517.426 53.5474 517.41L184.114 517.112C189.875 517.098 195.448 515.063 199.861 511.36L287.637 437.71C294.324 432.099 297.534 423.363 296.072 414.757L282.142 332.799C280.68 324.193 274.763 317.008 266.598 313.921L159.419 273.405C154.03 271.368 148.098 271.288 142.656 273.179L19.3219 316.032C12.849 318.281 7.60851 323.129 4.86385 329.408L-32.4425 414.751Z" stroke="url(#paint32_linear_675_8847)" stroke-opacity="0.14" stroke-width="1.00349"/>
<path opacity="0.492754" d="M-40.2619 407.099C-44.6041 415.822 -43.3849 426.286 -37.1536 433.777L21.8072 504.658C26.1984 509.937 32.5973 513.139 39.4551 513.49L167.952 520.048C173.734 520.343 179.434 518.589 184.049 515.093L274.187 446.823C281.129 441.565 284.771 433.028 283.764 424.379L274.22 342.467C273.212 333.817 267.705 326.346 259.74 322.826L156.321 277.107C151.026 274.766 145.075 274.369 139.516 275.985L15.9689 311.909C9.37528 313.827 3.88396 318.414 0.823988 324.561L-40.2619 407.099Z" stroke="url(#paint33_linear_675_8847)" stroke-opacity="0.14" stroke-width="1.00349"/>
<path opacity="0.507246" d="M-47.6116 399.649C-52.359 408.104 -51.6928 418.56 -45.9107 426.345L8.50394 499.604C12.607 505.128 18.8373 508.68 25.681 509.396L151.752 522.594C157.539 523.2 163.353 521.733 168.161 518.456L260.343 455.609C267.52 450.716 271.582 442.4 271.03 433.732L265.828 352.097C265.276 343.429 260.191 335.696 252.452 331.753L153.039 281.114C147.854 278.473 141.901 277.756 136.238 279.092L12.8609 308.183C6.16347 309.762 0.434325 314.075 -2.93448 320.075L-47.6116 399.649Z" stroke="url(#paint34_linear_675_8847)" stroke-opacity="0.14" stroke-width="1.00349"/>
<path opacity="0.521739" d="M-54.5074 392.424C-59.6434 400.593 -59.526 411.011 -54.2072 419.062L-4.42267 494.421C-0.621664 500.174 5.4209 504.067 12.2311 505.15L135.538 524.75C141.314 525.668 147.228 524.497 152.218 521.447L246.128 464.05C253.52 459.533 257.989 451.458 257.891 442.796L256.977 361.664C256.879 353.002 252.23 345.03 244.738 340.68L149.559 285.415C144.501 282.478 138.562 281.44 132.808 282.488L9.97428 304.862C3.19016 306.097 -2.76317 310.125 -6.43357 315.963L-54.5074 392.424Z" stroke="url(#paint35_linear_675_8847)" stroke-opacity="0.14" stroke-width="1.00349"/>
<path opacity="0.536232" d="M-60.9713 385.45C-66.4785 393.315 -66.904 403.665 -62.061 411.955L-16.9738 489.131C-13.4879 495.098 -7.6517 499.322 -0.89442 500.769L119.327 526.518C125.076 527.749 131.075 526.88 136.238 524.067L231.563 472.129C239.149 467.996 244.01 460.183 244.364 451.55L247.67 371.144C248.025 362.511 243.823 354.326 236.601 349.583L145.862 289.996C140.948 286.769 135.039 285.409 129.209 286.164L7.27982 301.957C0.42653 302.845 -5.73676 306.576 -9.70076 312.236L-60.9713 385.45Z" stroke="url(#paint36_linear_675_8847)" stroke-opacity="0.14" stroke-width="1.00349"/>
<path opacity="0.550725" d="M-67.018 378.747C-72.878 386.29 -73.839 396.544 -69.4827 405.044L-29.1434 483.755C-25.9847 489.918 -20.3731 494.463 -13.6882 496.273L103.146 527.901C108.851 529.445 114.922 528.882 120.246 526.316L216.675 479.828C224.437 476.086 229.673 468.554 230.477 459.976L237.925 380.51C238.729 371.931 234.983 363.558 228.053 358.439L141.941 294.842C137.186 291.331 131.326 289.65 125.433 290.107L4.75674 299.475C-2.14802 300.011 -8.50648 303.434 -12.7554 308.903L-67.018 378.747Z" stroke="url(#paint37_linear_675_8847)" stroke-opacity="0.14" stroke-width="1.00349"/>
<path opacity="0.565217" d="M-72.6704 372.337C-78.864 379.542 -80.3514 389.671 -76.4909 398.353L-40.9335 478.316C-38.1134 484.658 -32.744 489.512 -26.1508 491.681L87.0135 528.904C92.659 530.76 98.7861 530.51 104.261 528.197L201.49 487.133C209.405 483.79 215.001 476.557 216.249 468.056L227.75 389.741C228.999 381.24 225.719 372.704 219.099 367.227L137.781 299.942C133.202 296.153 127.406 294.151 121.465 294.307L2.37686 297.422C-4.56147 297.604 -11.0998 300.71 -15.6242 305.973L-72.6704 372.337Z" stroke="url(#paint38_linear_675_8847)" stroke-opacity="0.14" stroke-width="1.00349"/>
<path opacity="0.57971" d="M-77.9517 366.237C-84.459 373.09 -86.4623 383.066 -83.1051 391.9L-52.347 472.833C-49.8758 479.336 -44.7658 484.487 -38.2836 487.01L70.9497 529.531C76.5188 531.699 82.6868 531.764 88.3004 529.714L186.031 494.03C194.078 491.091 200.016 484.175 201.703 475.776L217.157 398.813C218.844 390.413 216.037 381.742 209.747 375.924L133.369 305.277C128.982 301.219 123.267 298.898 117.293 298.748L0.112258 295.803C-6.84163 295.628 -13.5441 298.408 -18.3339 303.452L-77.9517 366.237Z" stroke="url(#paint39_linear_675_8847)" stroke-opacity="0.14" stroke-width="1.00349"/>
<path opacity="0.594203" d="M-82.88 360.466C-89.6805 366.954 -92.1875 376.75 -89.3392 385.707L-63.3817 467.33C-61.2689 473.974 -56.4348 479.408 -50.0824 482.281L54.9792 529.79C60.4553 532.266 66.6488 532.651 72.3893 530.871L170.329 500.508C178.487 497.978 184.749 491.395 186.866 483.12L206.166 407.706C208.283 399.43 205.954 390.649 200.013 384.511L128.698 310.835C124.518 306.516 118.902 303.878 112.909 303.42L-2.0587 294.621C-9.01003 294.089 -15.8604 296.533 -20.9049 301.346L-82.88 360.466Z" stroke="url(#paint40_linear_675_8847)" stroke-opacity="0.14" stroke-width="1.00349"/>
<path opacity="0.608696" d="M-87.4815 355.041C-94.554 361.15 -97.5512 370.741 -95.2158 379.79L-74.0441 461.826C-72.2981 468.592 -67.7556 474.295 -61.5519 477.51L39.1188 529.687C44.4855 532.469 50.6889 533.176 56.5439 531.673L154.407 506.556C162.656 504.439 169.222 498.205 171.762 490.076L194.787 416.398C197.327 408.269 195.48 399.405 189.905 392.968L123.757 316.597C119.799 312.028 114.297 309.076 108.302 308.307L-4.16525 293.877C-11.0959 292.988 -18.0774 295.09 -23.3653 299.657L-87.4815 355.041Z" stroke="url(#paint41_linear_675_8847)" stroke-opacity="0.14" stroke-width="1.00349"/>
<path opacity="0.623188" d="M-91.7832 349.975C-99.106 355.695 -102.578 365.055 -100.758 374.167L-84.3418 456.342C-82.9698 463.21 -78.7341 469.166 -72.6975 472.717L23.3853 529.234C28.6262 532.316 34.8236 533.348 40.7804 532.128L138.292 512.169C146.609 510.466 153.459 504.593 156.412 496.634L183.035 424.871C185.988 416.912 184.626 407.992 179.432 401.277L118.533 322.548C114.812 317.739 109.442 314.479 103.459 313.397L-6.23635 293.572C-13.1281 292.327 -20.2239 294.079 -25.7431 298.39L-91.7832 349.975Z" stroke="url(#paint42_linear_675_8847)" stroke-opacity="0.14" stroke-width="1.00349"/>
<path opacity="0.637681" d="M-95.8047 345.282C-103.356 350.603 -107.287 359.707 -105.982 368.852L-94.2754 450.897C-93.2838 457.846 -89.3691 464.04 -83.5178 467.918L7.80243 528.437C12.9013 531.816 19.0766 533.173 25.1223 532.243L122.014 517.337C130.378 516.05 137.492 510.552 140.847 502.783L170.933 433.106C174.287 425.337 173.411 416.389 168.612 409.419L113.023 328.672C109.555 323.634 104.332 320.069 98.3766 318.675L-8.29298 293.703C-15.1277 292.103 -22.3205 293.501 -28.0586 297.545L-95.8047 345.282Z" stroke="url(#paint43_linear_675_8847)" stroke-opacity="0.14" stroke-width="1.00349"/>
<path opacity="0.652174" d="M-99.5704 340.974C-107.327 345.888 -111.7 354.714 -110.909 363.861L-103.851 445.512C-103.245 452.522 -99.6646 458.936 -94.0163 463.131L-7.61078 527.31C-2.67019 530.98 3.46706 532.663 9.58849 532.028L105.603 522.057C113.992 521.185 121.35 516.074 125.094 508.517L158.499 441.088C162.243 433.531 161.851 424.581 157.462 417.379L107.222 334.952C104.019 329.697 98.9619 325.834 93.049 324.127L-10.3598 294.269C-17.1196 292.317 -24.3917 293.355 -30.3356 297.12L-99.5704 340.974Z" stroke="url(#paint44_linear_675_8847)" stroke-opacity="0.14" stroke-width="1.00349"/>
<path opacity="0.666667" d="M-103.111 337.061C-111.051 341.559 -115.846 350.085 -115.566 359.206L-113.081 440.204C-112.865 447.253 -109.632 453.87 -104.204 458.373L-22.8422 525.864C-18.0758 529.818 -11.9928 531.827 -5.80912 531.49L89.0812 526.325C97.4747 525.868 105.053 521.154 109.174 513.828L145.746 448.801C149.867 441.474 149.959 432.55 145.99 425.14L101.119 341.37C98.1952 335.911 93.3186 331.756 87.4643 329.737L-12.4674 295.264C-19.1343 292.964 -26.4679 293.638 -32.604 297.115L-103.111 337.061Z" stroke="url(#paint45_linear_675_8847)" stroke-opacity="0.14" stroke-width="1.00349"/>
<path opacity="0.681159" d="M-106.448 333.55C-114.548 337.627 -119.745 345.831 -119.972 354.896L-121.97 434.992C-122.147 442.059 -119.273 448.86 -114.082 453.659L-37.8707 524.11C-33.2943 528.341 -27.2819 530.676 -21.0496 530.642L72.4805 530.14C80.8571 530.095 88.6343 525.788 93.1171 518.712L132.7 456.229C137.183 449.152 137.755 440.281 134.217 432.688L94.7132 347.908C92.081 342.259 87.4015 337.82 81.6212 335.49L-14.6363 296.682C-21.1928 294.039 -28.5698 294.345 -34.884 297.524L-106.448 333.55Z" stroke="url(#paint46_linear_675_8847)" stroke-opacity="0.14" stroke-width="1.00349"/>
<path opacity="0.695652" d="M-109.607 330.449C-117.843 334.1 -123.422 341.964 -124.148 350.944L-130.527 429.893C-131.098 436.956 -128.594 443.922 -123.656 449.005L-52.679 522.064C-48.3079 526.563 -42.3823 529.222 -36.1153 529.495L55.8302 533.502C64.1689 533.865 72.1226 529.973 76.9522 523.166L119.382 463.36C124.212 456.553 125.258 447.76 122.16 440.009L88.0021 354.55C85.6739 348.725 81.2072 344.011 75.5165 341.371L-16.8892 298.516C-23.3177 295.535 -30.7199 295.472 -37.198 298.344L-109.607 330.449Z" stroke="url(#paint47_linear_675_8847)" stroke-opacity="0.14" stroke-width="1.00349"/>
<path opacity="0.710145" d="M-112.62 327.761C-120.969 330.984 -126.907 338.489 -128.124 347.355L-138.769 424.924C-139.735 431.961 -137.61 439.072 -132.941 444.426L-67.2587 519.739C-63.1082 524.498 -57.2856 527.477 -50.9979 528.06L39.1508 536.412C47.4313 537.18 55.5383 533.709 60.6986 527.188L105.806 470.183C110.966 463.662 112.48 454.974 109.83 447.091L80.9762 361.278C78.9637 355.292 74.7254 350.311 69.1396 347.366L-19.2563 300.757C-25.5398 297.444 -32.949 297.011 -39.5759 299.569L-112.62 327.761Z" stroke="url(#paint48_linear_675_8847)" stroke-opacity="0.14" stroke-width="1.00349"/>
<path opacity="0.724638" d="M-115.507 325.493C-123.946 328.284 -130.221 335.413 -131.919 344.138L-146.7 420.101C-148.061 427.09 -146.323 434.326 -141.938 439.937L-81.5895 517.151C-77.6744 522.16 -71.9712 525.457 -65.6768 526.352L22.4755 538.876C30.6775 540.041 38.9149 536.997 44.3885 530.779L91.9998 476.688C97.4734 470.469 99.4471 461.912 97.2504 453.924L73.64 368.074C71.9541 361.944 67.9592 356.706 62.4937 353.458L-21.7547 303.396C-27.8762 299.759 -35.2741 298.954 -42.0346 301.19L-115.507 325.493Z" stroke="url(#paint49_linear_675_8847)" stroke-opacity="0.14" stroke-width="1.00349"/>
<path opacity="0.73913" d="M-118.299 323.644C-126.805 326.003 -133.393 332.741 -135.56 341.298L-154.338 415.438C-156.091 422.358 -154.75 429.698 -150.663 435.55L-95.6627 514.314C-91.9976 519.563 -86.4298 523.175 -80.143 524.383L5.82639 540.896C13.9303 542.453 22.2746 539.84 28.0435 533.94L77.9804 482.865C83.7493 476.964 86.1733 468.563 84.4345 460.496L65.9879 374.921C64.639 368.663 60.9023 363.178 55.5724 359.632L-24.4109 306.421C-30.3541 302.467 -37.7223 301.291 -44.6008 303.199L-118.299 323.644Z" stroke="url(#paint50_linear_675_8847)" stroke-opacity="0.14" stroke-width="1.00349"/>
<path opacity="0.753623" d="M-121.02 322.215C-129.569 324.143 -136.445 330.476 -139.069 338.838L-161.693 410.95C-163.835 417.778 -162.896 425.201 -159.121 431.28L-109.464 511.247C-106.063 516.724 -100.646 520.646 -94.3815 522.168L-10.7681 542.481C-2.78163 544.421 5.64616 542.242 11.6916 536.674L63.7722 488.707C69.8176 483.139 72.681 474.918 71.4029 466.8L58.0226 381.801C57.0201 375.432 53.5561 369.712 48.3768 365.873L-27.2439 309.818C-32.9928 305.557 -40.313 304.012 -47.2937 305.586L-121.02 322.215Z" stroke="url(#paint51_linear_675_8847)" stroke-opacity="0.14" stroke-width="1.00349"/>
<path opacity="0.768116" d="M-123.694 321.204C-132.264 322.703 -139.403 328.619 -142.468 336.761L-168.777 406.651C-171.305 413.365 -170.774 420.848 -167.323 427.137L-122.98 507.965C-119.857 513.659 -114.608 517.885 -108.379 519.722L-27.2814 543.637C-19.4309 545.952 -10.9432 544.208 -4.64095 538.986L49.3987 494.208C55.7009 488.986 58.9912 480.97 58.1753 472.826L49.7462 388.697C49.0988 382.236 45.9214 376.293 40.9077 372.166L-30.2731 313.576C-35.812 309.017 -43.066 307.104 -50.1327 308.34L-123.694 321.204Z" stroke="url(#paint52_linear_675_8847)" stroke-opacity="0.14" stroke-width="1.00349"/>
<path opacity="0.782609" d="M-126.349 320.61C-134.916 321.682 -142.294 327.17 -145.784 335.068L-175.607 402.552C-178.514 409.13 -178.395 416.652 -175.281 423.135L-136.203 504.488C-133.371 510.385 -128.305 514.91 -122.127 517.061L-43.6906 544.375C-35.9942 547.055 -27.47 545.747 -20.9312 540.883L34.8803 499.365C41.4191 494.5 45.1226 486.712 44.7684 478.57L41.1589 395.592C40.8746 389.057 37.9973 382.904 33.1638 378.496L-33.5196 317.679C-38.8336 312.832 -46.0032 310.556 -53.1397 311.449L-126.349 320.61Z" stroke="url(#paint53_linear_675_8847)" stroke-opacity="0.14" stroke-width="1.00349"/>
<path opacity="0.797101" d="M-129.009 320.427C-137.552 321.077 -145.14 326.127 -149.038 333.757L-182.195 398.664C-185.475 405.086 -185.771 412.623 -183.005 419.282L-149.124 500.832C-146.595 506.919 -141.728 511.735 -135.615 514.2L-59.9709 544.705C-52.4461 547.739 -43.9087 546.866 -37.1543 542.37L20.2401 504.172C26.9945 499.676 31.0961 492.138 31.2018 484.025L32.2643 402.469C32.3502 395.878 29.786 389.529 25.1472 384.846L-37.0014 322.11C-42.0759 316.987 -49.1433 314.35 -56.3329 314.897L-129.009 320.427Z" stroke="url(#paint54_linear_675_8847)" stroke-opacity="0.14" stroke-width="1.00349"/>
<path opacity="0.811594" d="M-131.699 320.65C-140.195 320.884 -147.968 325.489 -152.254 332.829L-188.558 395C-192.204 401.243 -192.917 408.773 -190.508 415.589L-161.734 497.016C-159.521 503.279 -154.868 508.38 -148.834 511.158L-76.1001 544.64C-68.7635 548.017 -60.2361 547.576 -53.2875 543.459L5.49965 508.629C12.4482 504.512 16.9317 497.245 17.4937 489.188L23.0656 409.312C23.5278 402.686 21.2892 396.154 16.8593 391.205L-40.7365 326.853C-45.5576 321.467 -52.505 318.475 -59.7312 318.673L-131.699 320.65Z" stroke="url(#paint55_linear_675_8847)" stroke-opacity="0.14" stroke-width="1.00349"/>
<path opacity="0.826087" d="M-134.443 321.271C-142.871 321.095 -150.802 325.249 -155.457 332.278L-194.712 391.567C-198.714 397.61 -199.845 405.11 -197.803 412.065L-174.027 493.06C-172.141 499.484 -167.717 504.861 -161.777 507.949L-92.056 544.193C-84.9237 547.901 -76.4292 547.888 -69.3084 544.158L-9.31908 512.735C-2.19826 509.005 2.64942 502.03 3.66264 494.055L13.5672 416.103C14.4111 409.462 12.5099 402.763 8.30284 397.555L-44.7414 331.891C-49.2957 326.253 -56.1056 322.912 -63.3517 322.76L-134.443 321.271Z" stroke="url(#paint56_linear_675_8847)" stroke-opacity="0.14" stroke-width="1.00349"/>
<path opacity="0.84058" d="M-137.263 322.282C-145.603 321.704 -153.665 325.403 -158.666 332.102L-200.673 388.374C-205.019 394.197 -206.568 401.645 -204.902 408.718L-185.996 488.982C-184.449 495.551 -180.269 501.196 -174.436 504.592L-107.817 543.379C-100.904 547.404 -92.4654 547.815 -85.1947 544.479L-24.1939 516.492C-16.9232 513.156 -11.73 506.491 -10.2723 498.626L3.77509 422.829C5.00499 416.192 3.45259 409.342 -0.518121 403.885L-49.0308 337.204C-53.3057 331.328 -59.961 327.645 -67.2101 327.142L-137.263 322.282Z" stroke="url(#paint57_linear_675_8847)" stroke-opacity="0.14" stroke-width="1.00349"/>
<path opacity="0.855072" d="M-140.185 323.673C-148.416 322.702 -156.582 325.942 -161.907 332.293L-206.457 385.429C-211.137 391.012 -213.101 398.383 -211.818 405.555L-197.639 484.801C-196.44 491.5 -192.519 497.403 -186.808 501.104L-123.366 542.215C-116.686 546.543 -108.325 547.37 -100.927 544.434L-39.1047 519.9C-31.7069 516.964 -26.1879 510.629 -24.2941 502.898L-6.30595 429.472C-4.68667 422.862 -5.87956 415.876 -9.60063 410.179L-53.62 342.774C-57.6037 336.674 -64.0876 332.655 -71.3228 331.801L-140.185 323.673Z" stroke="url(#paint58_linear_675_8847)" stroke-opacity="0.14" stroke-width="1.00349"/>
<path opacity="0.869565" d="M-143.224 325.432C-151.326 324.078 -159.569 326.859 -165.194 332.845L-212.076 382.737C-217.078 388.06 -219.454 395.332 -218.56 402.582L-208.947 480.538C-208.106 487.349 -204.458 493.5 -198.882 497.502L-138.677 540.715C-132.244 545.332 -123.982 546.569 -116.48 544.037L-54.0256 522.964C-46.5234 520.432 -40.6996 514.443 -38.3795 506.873L-16.6639 436.017C-14.6529 429.455 -15.4762 422.351 -18.9348 416.423L-58.517 348.58C-62.1981 342.27 -68.4942 337.925 -75.6989 336.72L-143.224 325.432Z" stroke="url(#paint59_linear_675_8847)" stroke-opacity="0.14" stroke-width="1.00349"/>
<path d="M-50.293 170.951C258.054 93.2085 -96.6797 518.688 600.244 518.688" stroke="#F6E2C2" stroke-width="40.1396"/>
<path fill-rule="evenodd" clip-rule="evenodd" d="M249.615 590.75C235.564 590.794 221.912 591.275 207.822 591.322C150.547 591.513 92.7443 591.235 35.2614 588.912C19.0146 588.256 14.959 588.272 -1.21771 587.253C-10.7691 587.219 -39.4599 586.429 -38.0236 573.414C-37.3894 549.175 -31.3903 525.038 -29.5009 500.864C-25.8745 455.419 -22.7863 408.552 -4.5766 366.047C-0.361572 355.896 8.69086 349.258 17.6519 343.289C26.6386 336.85 28.8442 329.7 37.1382 322.425C38.892 320.887 48.851 320.261 54.2094 316.359C62.0085 310.68 65.8762 301.383 68.786 299.8C70.9272 298.635 70.8881 290.601 75.1796 287.757C80.9386 283.941 99.2905 281.103 105.967 280.573C112.376 280.063 123.522 281.133 129.535 283.481C139.562 287.396 143.561 294.863 147.977 304.484C206.317 322.522 259.64 353.066 276.201 414.674C290.482 466.346 291.005 521.741 285.488 574.735C284.384 578.61 285.158 584.685 281.81 587.253C293.444 587.921 251.193 590.321 249.615 590.75Z" fill="white"/>
<path fill-rule="evenodd" clip-rule="evenodd" d="M-15.7354 539.73C-14.6314 539.179 -13.4806 538.548 -12.2198 538.504C-10.0546 538.429 -10.0517 535.058 -12.2198 535.134C-14.1109 535.2 -15.7717 535.989 -17.4358 536.82C-19.3774 537.79 -17.6695 540.695 -15.7354 539.73ZM-12.2208 444.873C-13.6983 444.874 -15.1877 445.06 -16.3225 446.094C-16.9971 446.709 -16.9436 447.855 -16.3225 448.477C-15.6576 449.141 -14.6125 449.09 -13.94 448.477C-14.1594 448.676 -13.9421 448.479 -13.8625 448.435C-13.8436 448.424 -13.8331 448.417 -13.828 448.413C-13.8112 448.408 -13.7943 448.405 -13.767 448.398C-13.5909 448.354 -13.4171 448.31 -13.2389 448.278C-13.236 448.287 -12.8629 448.253 -12.7753 448.25C-12.5901 448.243 -12.4056 448.243 -12.2208 448.243C-11.307 448.242 -10.5364 447.472 -10.5364 446.558C-10.5364 445.648 -11.3104 444.872 -12.2208 444.873ZM3.61835 482.673C4.10092 484.79 7.34787 483.889 6.86658 481.777C6.16675 478.708 6.29431 475.563 6.86658 472.482C7.26071 470.359 4.01373 469.457 3.61835 471.587C2.93198 475.282 2.77829 478.99 3.61835 482.673ZM7.87247 361.561C10.3813 360.965 12.8627 360.894 15.4288 360.893C17.5999 360.892 17.5965 357.522 15.4288 357.523C12.5667 357.524 9.77283 357.647 6.97684 358.311C4.86551 358.813 5.76495 362.061 7.87247 361.561ZM16.2804 443.645C17.7352 442.917 19.1909 442.189 20.6458 441.461C22.5878 440.49 20.8794 437.584 18.9458 438.551L14.58 440.735C12.6389 441.706 14.3468 444.612 16.2804 443.645ZM16.8858 510.009C18.7314 512.671 21.3265 514.324 24.4408 515.15C26.542 515.708 27.4305 512.456 25.3365 511.901C23.1093 511.31 21.1307 510.235 19.7946 508.308C18.5663 506.536 15.6474 508.223 16.8858 510.009ZM28.5251 391.359C29.0245 390.425 29.7761 390.031 30.7092 390.01C32.877 389.96 32.8774 386.59 30.7092 386.64C28.5828 386.688 26.6328 387.756 25.6167 389.658C24.5939 391.572 27.5031 393.272 28.5251 391.359ZM49.8919 414.265C50.4957 414.923 51.6668 414.907 52.274 414.265C52.6458 413.872 52.9582 413.434 53.2041 412.953C53.2976 412.771 53.3856 412.585 53.4884 412.408C53.5343 412.329 53.5852 412.251 53.6374 412.175C53.6551 412.159 53.6918 412.121 53.7297 412.081C54.3769 411.397 54.3604 410.386 53.7297 409.698C53.1254 409.04 51.9544 409.057 51.3472 409.698C50.9758 410.091 50.6629 410.529 50.4174 411.01C50.3239 411.192 50.2359 411.378 50.1328 411.556C50.0869 411.635 50.0359 411.713 49.9837 411.788C49.966 411.804 49.9298 411.842 49.8919 411.882C49.2443 412.567 49.2607 413.577 49.8919 414.265ZM51.6885 464.027C53.8823 465.031 56.2884 465.031 58.4822 464.027C59.313 463.646 59.5101 462.446 59.0861 461.721C58.5951 460.881 57.6085 460.738 56.7819 461.117C55.7869 461.572 54.3822 461.572 53.3884 461.117C52.558 460.737 51.5811 460.871 51.0842 461.721C50.6577 462.451 50.8611 463.648 51.6885 464.027ZM57.6719 499.249C58.0488 500.142 58.8627 500.616 59.8144 500.652C60.7572 500.688 61.4591 499.852 61.4987 498.967C61.524 498.396 61.2153 497.908 60.7719 497.605C60.7715 497.574 60.7707 497.543 60.7707 497.512C60.7702 496.567 59.9993 495.867 59.0863 495.827C58.1772 495.786 57.4016 496.63 57.402 497.512C57.4024 498.106 57.4391 498.697 57.6719 499.249ZM66.3629 555.246C69.0511 555.29 71.6778 555.93 74.3664 555.974C76.5388 556.009 76.532 552.639 74.3664 552.604C71.6782 552.56 69.0515 551.92 66.3629 551.876C64.1905 551.841 64.1973 555.211 66.3629 555.246ZM77.5422 339.29C79.1158 340.79 81.0595 341.528 82.9763 342.465C84.9183 343.414 86.6241 340.507 84.6766 339.555C83.0529 338.762 81.2553 338.175 79.9239 336.907C78.3532 335.411 75.9686 337.791 77.5422 339.29ZM81.7661 378.133C82.8702 377.582 84.021 376.951 85.2813 376.907C87.4469 376.832 87.4499 373.462 85.2813 373.537C83.3907 373.603 81.7299 374.392 80.0658 375.223C78.1234 376.193 79.8317 379.099 81.7661 378.133ZM102.016 534.03C102.515 533.096 103.266 532.702 104.199 532.681C106.367 532.631 106.368 529.261 104.199 529.311C102.073 529.359 100.123 530.427 99.1067 532.329C98.0844 534.243 100.993 535.943 102.016 534.03ZM109.029 460.851C109.699 460.236 109.652 459.093 109.029 458.469C108.301 457.741 107.574 457.013 106.845 456.285C106.18 455.619 105.136 455.668 104.464 456.285C103.793 456.901 103.84 458.044 104.464 458.668C105.192 459.396 105.919 460.123 106.647 460.851C107.313 461.518 108.356 461.469 109.029 460.851ZM117.297 574.9C119.727 574.843 122.005 574.145 124.293 573.384C126.343 572.701 125.459 569.448 123.397 570.134C121.409 570.796 119.411 571.481 117.297 571.53C115.129 571.58 115.128 574.95 117.297 574.9ZM128.213 502.836C130.408 502.775 132.229 501.656 133.769 500.159C135.327 498.644 132.942 496.263 131.387 497.776C130.506 498.633 129.489 499.431 128.213 499.466C126.045 499.526 126.044 502.896 128.213 502.836ZM121.434 410.162C121.407 411.059 121.028 412.02 120.472 412.61C118.983 414.187 121.362 416.573 122.854 414.993C124.084 413.69 124.751 411.945 124.802 410.162C124.865 407.989 121.496 407.998 121.434 410.162ZM147.129 336.765C147.834 335.385 148.758 333.765 150.163 333.002C152.071 331.967 150.369 329.058 148.462 330.092C146.552 331.13 145.186 333.173 144.22 335.064C143.235 336.994 146.143 338.697 147.129 336.765ZM151.495 371.812C152.277 371.79 153.052 371.656 153.806 371.451C154.128 371.364 154.447 371.263 154.769 371.175C154.907 371.138 155.494 371.065 155.133 371.084C156.046 371.035 156.818 370.352 156.818 369.399C156.818 368.523 156.043 367.665 155.133 367.714C153.883 367.781 152.746 368.407 151.495 368.442C149.329 368.503 149.327 371.873 151.495 371.812ZM162.41 425.677H166.048C168.219 425.677 168.215 422.307 166.048 422.307H162.41C160.239 422.307 160.242 425.677 162.41 425.677ZM166.653 574.669C167.756 575.222 169.056 575.745 169.95 576.59C171.526 578.08 173.911 575.7 172.332 574.207C171.194 573.13 169.739 572.453 168.353 571.76C167.536 571.351 166.532 571.536 166.048 572.364C165.611 573.113 165.839 574.262 166.653 574.669ZM174.783 532.09C174.924 532.05 175.073 532.023 175.216 532.004C175.789 531.926 176.388 531.953 176.963 531.953C179.134 531.951 179.131 528.581 176.963 528.583C175.255 528.584 173.477 528.608 172.134 529.804C171.452 530.412 171.518 531.571 172.134 532.187C172.803 532.857 173.837 532.792 174.516 532.187C174.444 532.251 174.69 532.116 174.783 532.09ZM176.962 474.824C176.473 473.814 176.465 473.156 176.464 472.035C176.463 469.863 173.094 469.866 173.096 472.035C173.097 473.663 173.339 475.05 174.053 476.525C174.452 477.347 175.619 477.561 176.357 477.129C177.185 476.645 177.358 475.642 176.962 474.824ZM186.702 395.773C188.656 396.437 190.4 397.379 192.121 398.515C193.937 399.714 195.623 396.794 193.821 395.605C191.858 394.308 189.827 393.281 187.598 392.523C185.537 391.822 184.661 395.078 186.702 395.773ZM198.064 339.056C199.516 339.096 201.014 339.653 202.307 340.281C204.252 341.226 205.957 338.319 204.007 337.371C202.16 336.473 200.138 335.744 198.064 335.686C195.892 335.625 195.901 338.995 198.064 339.056ZM203.158 490.462C203.729 490.487 204.217 490.178 204.52 489.734C204.551 489.734 204.582 489.734 204.614 489.734C205.558 489.733 206.257 488.962 206.298 488.049C206.339 487.139 205.495 486.363 204.614 486.364C204.019 486.364 203.429 486.4 202.877 486.634C201.984 487.01 201.51 487.825 201.474 488.777C201.438 489.72 202.275 490.422 203.158 490.462ZM211.441 373.935C213.509 374.611 214.388 371.356 212.336 370.686C209.928 369.899 207.467 369.289 205.059 368.502C202.991 367.826 202.112 371.081 204.164 371.752C206.572 372.538 209.033 373.148 211.441 373.935ZM218.996 437.543C219.637 439.611 222.888 438.723 222.244 436.647C221.623 434.643 221.578 432.626 221.577 430.543C221.576 428.371 218.207 428.375 218.208 430.543C218.209 432.913 218.289 435.262 218.996 437.543ZM241.518 513.728C241.64 514.567 242.306 515.171 243.176 515.211C244.063 515.25 244.893 514.407 244.861 513.526C244.799 511.829 243.416 510.447 241.721 510.385C240.778 510.35 240.076 511.184 240.037 512.07C239.998 512.93 240.716 513.602 241.518 513.728ZM252.916 416.882C254.696 417.477 256.598 418.043 257.993 419.361C259.57 420.849 261.955 418.47 260.375 416.978C258.535 415.24 256.168 414.42 253.811 413.632C251.747 412.943 250.87 416.199 252.916 416.882ZM260.641 482.348C261.13 483.185 262.121 483.336 262.945 482.952C264.05 482.439 265.27 482.456 266.461 482.455C268.632 482.453 268.629 479.083 266.461 479.085C264.624 479.086 262.929 479.259 261.245 480.042C260.417 480.428 260.215 481.619 260.641 482.348ZM265.007 561.797C265.95 561.832 266.651 560.997 266.691 560.112C266.73 559.252 266.012 558.58 265.21 558.454C265.088 557.615 264.422 557.01 263.551 556.971C262.665 556.931 261.835 557.774 261.867 558.656C261.929 560.353 263.311 561.735 265.007 561.797ZM-41.8897 574.539C-41.3175 572.479 -40.0079 570.815 -39.0184 568.962C-38.6866 568.337 -38.5712 567.949 -38.3914 567.491C-38.1472 567.98 -37.673 568.348 -36.9601 568.349C-35.5924 568.349 -33.9927 568.261 -32.7165 568.846C-31.8865 569.227 -30.9088 569.092 -30.4123 568.242C-29.9857 567.512 -30.1895 566.316 -31.0165 565.936C-32.8975 565.074 -34.9196 564.979 -36.9601 564.978C-37.4641 564.978 -37.8456 565.164 -38.1151 565.443C-38.895 554.76 -38.8756 544.07 -38.1379 533.379C-37.3509 521.955 -35.5398 510.758 -33.645 499.481C-32.7274 494.014 -31.5357 488.491 -31.7673 482.922C-31.9989 477.391 -34.3696 472.235 -32.6895 466.687C-32.0157 464.463 -30.862 462.424 -30.1125 460.225C-29.3082 457.858 -29.3798 455.52 -29.7461 453.068C-30.4999 448.077 -31.7501 443.144 -29.7499 438.27C-28.8661 436.109 -27.434 434.18 -26.7438 431.947C-25.8848 429.171 -26.0027 426.1 -25.8596 423.223C-25.569 417.418 -25.4932 411.576 -25.0128 405.783C-24.7984 403.188 -24.331 400.728 -23.2657 398.348C-22.242 396.057 -20.7224 393.972 -20.0444 391.541C-19.3707 389.148 -19.3117 386.625 -18.9496 384.178C-18.5706 381.591 -17.9769 379.043 -17.1768 376.557C-14.0861 366.936 -8.42255 358.292 -1.73154 350.798C5.38055 342.832 13.8822 336.834 22.906 331.244C27.6512 328.304 32.3959 325.365 37.1377 322.425C37.2388 322.977 37.5904 323.483 38.2654 323.709C40.0462 324.304 41.9473 324.869 43.3432 326.187C44.9198 327.676 47.3052 325.297 45.7253 323.805C44.0772 322.248 42.0059 321.429 39.8979 320.709C42.0585 319.346 44.2422 317.936 46.6803 317.149C48.8156 316.458 51.9649 317.06 53.696 315.493C55.0556 314.259 55.4855 311.972 56.0073 310.295C56.6599 308.214 57.2242 306.019 58.0538 303.997C58.618 302.616 59.4391 301.289 60.475 300.219C60.9297 298.466 61.7639 296.866 63.2377 295.893C67.0944 293.34 71.8316 295.876 73.5285 299.515C74.9307 299.511 76.4087 299.819 77.773 299.903C80.5774 300.08 83.386 300.16 86.1947 300.151C91.6898 300.135 97.1891 299.777 102.638 299.048C112.382 297.742 121.835 295.109 131.415 293.058C131.469 292.931 131.533 292.805 131.608 292.679C133.672 289.216 138.813 289.801 142.052 291.111C143.441 291.672 144.856 292.379 145.651 293.694C146.494 294.262 147.222 294.953 147.706 295.682C148.709 297.186 149.483 300.219 151.517 300.472C152.856 300.636 154.216 300.379 155.576 300.573C157.278 300.809 158.802 301.407 160.373 302.089C172.331 307.283 184.694 313.058 197.672 315.072C200.716 315.544 203.816 316.032 206.46 317.738C208.608 319.124 210.267 321.028 212.039 322.836C213.766 324.596 215.189 325.376 217.652 325.692C220.642 326.075 223.232 326.901 225.417 329.074C227.232 330.881 228.415 333.19 229.838 335.288C231.287 337.428 233.413 338.632 235.62 339.875C240.837 342.815 245.696 346.366 249.928 350.625C258.843 359.606 264.241 371.148 269.681 382.396C275.564 394.561 281.063 406.874 284.878 419.866C288.617 432.621 290.841 445.743 291.868 458.987C292.95 472.884 293.102 486.836 294.003 500.741C294.454 507.687 294.795 514.642 295.14 521.593C295.477 528.459 295.969 535.338 295.89 542.213C295.738 555.503 293.081 568.835 288.436 581.279C287.278 584.375 285.994 587.429 284.626 590.437C283.425 593.078 279.32 592.783 278.031 590.437C277.737 589.898 277.505 589.342 277.311 588.777C273.943 588.807 270.54 588.546 267.193 588.857C261.281 589.409 255.356 589.717 249.428 590.083C237.696 590.812 225.943 591.296 214.208 591.966C213.069 592.031 211.931 592.096 210.793 592.164C219.156 566.269 218.071 538.273 219.394 511.342C219.501 509.171 216.131 509.184 216.026 511.342C214.697 538.389 215.828 566.456 207.17 592.393C203.81 592.621 200.455 592.899 197.112 593.306C194.409 593.63 191.693 594.013 188.964 593.879C185.869 593.731 182.846 593.023 179.827 592.408C174.34 591.292 169.055 591.798 163.547 592.484C157.657 593.221 151.745 593.63 145.816 593.887C122.075 594.928 98.1745 595.875 74.4423 594.287C68.6987 593.904 62.9678 593.365 57.2621 592.632C51.3838 591.878 45.5687 590.61 39.695 589.889C33.9051 589.182 28.5822 591.124 22.8597 591.482C17.0239 591.848 11.0315 590.631 5.25003 589.932C3.36398 589.703 1.47586 589.48 -0.412689 589.26C2.01865 572.589 3.40103 555.792 4.74387 539.003C4.91693 536.837 1.547 536.856 1.37521 539.003C0.043335 555.661 -1.30835 572.333 -3.7359 588.872C-13.7471 587.707 -23.768 586.528 -33.6748 584.712C-36.4961 584.198 -39.3005 583.36 -40.989 580.841C-42.2392 578.975 -42.4923 576.688 -41.8897 574.539Z" fill="black"/>
<path fill-rule="evenodd" clip-rule="evenodd" d="M94.9245 137.246C31.5462 139.254 27.7235 169.369 27.7235 219.875C27.7235 270.38 60.6015 302.206 72.7076 307.763C84.8138 313.32 116.691 337.19 145.458 326.19C174.226 315.19 165.895 268.717 165.895 248.749C165.895 228.781 158.303 135.239 94.9245 137.246Z" fill="#D08B5B"/>
<path fill-rule="evenodd" clip-rule="evenodd" d="M69.2145 291.176C80.8532 297.676 94.18 297.928 106.699 293.838C114.207 291.391 121.091 287.608 127.534 283.084C133.139 279.145 138.141 274.777 143.098 270.138C147.178 261.137 150.811 252.151 152.513 242.357C154.037 233.566 154.239 224.438 152.471 215.663C139.392 204.9 126.393 194.049 113.411 183.164C106.8 177.62 100.172 172.106 93.4646 166.68C90.058 163.925 86.6848 161.128 83.2913 158.361C82.7312 157.906 82.175 157.451 81.6149 156.996C74.6085 162.127 67.0964 166.525 60.1397 171.74C56.4978 174.473 52.9565 177.384 49.5836 180.446C47.8151 182.052 46.0882 183.707 44.4039 185.405C42.8631 186.955 41.3767 189.179 39.1909 189.765C38.8919 189.845 38.6102 189.862 38.3449 189.824C35.4226 215.419 33.3467 243.057 45.8654 266.301C51.3269 276.44 59.0702 285.506 69.2145 291.176ZM144.928 300.582C146.531 299.114 144.143 296.736 142.547 298.199C132.522 307.385 119.418 312.254 106.18 314.508C104.045 314.872 104.955 318.119 107.076 317.757C120.896 315.404 134.48 310.157 144.928 300.582ZM156.957 314.676C158.871 313.649 157.167 310.742 155.257 311.766C147.447 315.957 138.881 318.134 130.193 319.604C128.056 319.965 128.967 323.212 131.088 322.853C140.072 321.333 148.887 319.006 156.957 314.676ZM125.172 172.704C118.691 166.887 111.726 161.351 104.37 156.68C96.9254 151.953 88.7943 149.127 80.0063 149.059C80.6211 149.552 81.2064 150.1 81.8001 150.609C83.4587 152.029 85.114 153.457 86.7689 154.881C90.0786 157.733 93.3967 160.58 96.6643 163.479C103.098 169.191 109.554 174.873 115.975 180.598C128.317 191.601 140.393 202.844 152.209 214.412C152.146 214.129 152.078 213.847 152.011 213.565C148.1 197.221 137.459 183.736 125.172 172.704ZM74.3719 149.771C74.3298 149.645 74.2999 149.522 74.283 149.405C57.4187 151.604 43.3335 164.018 38.6767 180.362C39.081 180.927 39.3041 181.597 39.2199 182.308C39.1778 182.667 39.1357 183.029 39.0936 183.387C39.6705 182.814 40.2642 182.279 40.7691 181.769C42.4496 180.067 44.1714 178.412 45.9404 176.798C49.5575 173.5 53.3131 170.417 57.2717 167.54C64.156 162.535 71.6096 157.935 79.8165 155.534C79.2775 155.092 78.7381 154.649 78.1949 154.211C76.5741 152.892 75.0704 151.806 74.3719 149.771ZM44.1378 132.294C54.4922 120.975 68.8305 112.685 83.9301 109.804C98.3483 107.049 113.276 108.864 126.897 114.218C155.401 125.423 177.891 150.063 188.422 178.614C194.561 195.249 196.574 213.485 194.729 231.093C192.894 248.621 187.618 266.722 178.017 281.634C177.137 283 176.173 284.309 175.162 285.577C175.613 290.725 177.331 295.771 180.034 300.161C180.179 300.396 180.333 300.627 180.484 300.858C183.252 302.932 186.124 304.878 188.927 306.887C191.356 308.628 193.761 310.413 196.045 312.341C198.201 314.161 200.705 316.189 202.165 318.645C203.362 320.658 203.85 323.394 202.217 325.313C200.249 327.625 196.915 326.809 194.25 326.809C194.022 326.809 193.794 326.814 193.566 326.817C192.766 327.32 191.941 327.775 191.142 328.199C183.07 332.479 174.968 336.713 166.858 340.925C150.705 349.32 134.62 358.053 118.135 365.783C110.496 369.368 102.319 372.501 93.7627 372.489C85.7365 372.476 78.4817 369.288 72.216 364.439C65.0744 358.916 59.103 351.903 53.3094 345.028C50.9934 342.277 48.7238 339.493 46.4962 336.67C42.218 335.242 37.9735 334.825 34.1585 337.58C31.0973 339.792 27.0633 336.784 26.9917 333.464C26.9665 332.286 27.0166 331.123 27.1433 329.977C27.9093 322.899 31.371 316.497 35.2702 310.558C37.4005 307.309 39.6448 304.12 41.9022 300.961C42.4328 300.216 42.9549 299.47 43.4603 298.711C34.3943 285.358 27.2023 270.551 22.7809 255.079C18.1359 238.798 16.5569 221.914 17.5927 205.043C19.1848 179.187 26.2755 151.823 44.1378 132.294Z" fill="black"/>
<path fill-rule="evenodd" clip-rule="evenodd" d="M75.8489 272.784C78.6796 271.629 81.2052 269.702 83.0517 267.241C83.6936 266.385 83.8601 265.481 83.7254 264.655C83.574 263.725 83.0244 262.883 82.2749 262.318C81.523 261.751 80.5825 261.472 79.6733 261.614C78.8832 261.738 78.0967 262.171 77.4743 263.068L77.3442 263.248C76.2465 264.734 74.816 265.953 73.186 266.738C71.615 267.496 69.858 267.849 68.0398 267.644C64.5769 267.252 62.1901 265.379 59.6532 262.835C59.3387 262.513 59.024 262.182 58.7079 261.845C58.5082 261.54 58.2311 261.344 57.9234 261.241C57.5818 261.127 57.1954 261.133 56.8414 261.257C56.5001 261.376 56.1949 261.602 55.9903 261.903C55.7958 262.188 55.6855 262.541 55.7213 262.947C55.9535 265.584 57.3314 267.937 59.2887 269.785C61.4626 271.837 64.3441 273.256 67.057 273.754C70.0458 274.303 73.0912 273.91 75.8489 272.784ZM65.6467 232.109C62.467 234.042 57.622 238.551 61.0427 243.345C65.0692 247.571 70.8664 242.725 73.7231 240.533C76.3721 238.835 79.3483 243.203 76.8906 245.187C56.2476 260.476 47.8702 232.615 64.0385 229.836C65.8187 229.529 66.4798 231.511 65.6467 232.109ZM102.639 214.323C102.287 209.961 95.6459 208.97 94.9852 213.287C94.3936 217.154 95.0901 220.707 96.8312 224.188C98.4949 227.514 102.676 225.963 102.993 222.934C103.417 218.874 102.857 217.037 102.639 214.323ZM52.0815 212.392C51.1555 211.179 49.8186 210.351 48.2168 210.819C43.2123 212.282 44.6873 219.389 46.4449 222.849C47.3999 224.728 50.4869 225.204 51.8819 223.55C54.1558 220.852 55.2447 215.465 52.354 212.808C52.2756 212.67 52.1885 212.532 52.0815 212.392ZM96.9018 195.234L96.1113 195.096C93.6657 194.673 90.6249 194.266 88.8949 196.233C87.9774 197.276 87.6616 199.214 88.8949 200.213C91.0643 201.969 93.4628 201.289 96.0626 201.437C98.205 201.56 100.264 201.915 102.328 202.505C106.855 203.8 110.544 206.163 114.411 208.758C114.919 209.098 115.437 208.449 115.194 207.974C112.962 203.6 108.637 200.008 104.304 197.818C101.991 196.649 99.4603 195.679 96.9018 195.234ZM56.6438 193.275L56.0388 193.399C49.4542 194.776 40.8993 197.526 37.7812 203.996C37.6624 204.911 37.7879 205.107 37.89 205.235L37.924 205.278C38.0081 205.387 38.0752 205.538 38.4716 205.663C38.5816 205.636 38.6927 205.609 38.805 205.579C40.2343 205.205 41.3651 204.688 42.4599 204.153L43.6469 203.568C45.0241 202.892 46.4134 202.241 47.8858 201.761C51.028 200.735 54.26 200.013 57.542 199.627C58.2534 199.544 58.9384 199.304 59.4788 198.892C59.9918 198.501 60.3836 197.96 60.5623 197.241C60.7939 196.311 60.7273 195.606 60.2282 194.767C59.853 194.136 59.316 193.699 58.6994 193.448C58.0708 193.193 57.3552 193.132 56.6438 193.275Z" fill="black"/>
<path fill-rule="evenodd" clip-rule="evenodd" d="M27.9608 234.674C33.0732 239.959 41.6077 241.475 48.4094 238.641C65.8742 231.341 57.3258 208.573 43.8567 202.459C42.174 202.039 39.9267 201.044 37.8773 200.818C37.692 200.727 37.2886 200.99 36.7998 200.741C21.9478 202.4 18.5656 225.464 27.9608 234.674ZM84.2928 236.027C90.0267 243.635 100.687 245.982 109.396 242.445C126.603 235.667 120.5 215.477 108.728 207.561C83.8599 198.214 73.591 221.999 84.2928 236.027ZM121.592 219.17C121.608 219.162 121.624 219.158 121.641 219.151C121.55 219.111 121.459 219.071 121.368 219.03C121.398 219.107 121.43 219.183 121.458 219.26C121.503 219.229 121.542 219.194 121.592 219.17ZM16.1238 210.945C17.5277 210.948 19.5556 211.179 20.7178 212.153C23.5837 202.485 34.1621 193.536 43.3619 200.061C50.6066 202.392 55.9826 207.561 59.038 214.433C64.547 211.155 73.2095 212.555 77.9867 216.89C81.1153 206.548 88.8152 202.926 97.9801 202.392C107.983 200.753 117.954 210.471 121.065 218.268C123.651 217.973 127.516 217.15 129.95 218.747C145.743 214.603 173.356 212.319 176.567 214.621C178.855 215.499 180.11 220.902 176.914 221.194C174.129 220.798 177.24 217.235 174.432 216.846C159.474 215.919 144.953 218.932 130.153 220.197C128.832 221.975 124.563 222.57 122.285 221.855C125.872 235.081 118.128 244.078 106.526 246.774C88.5592 250.902 72.9282 234.824 77.6262 218.101C72.1837 215.392 65.9235 215.508 59.9947 216.935C69.9019 253.411 11.179 251.774 20.3506 213.403C14.247 216.44 12.9214 211.558 16.1238 210.945Z" fill="black"/>
<path fill-rule="evenodd" clip-rule="evenodd" d="M172.822 584.922C198.606 585.644 222.962 586.44 248.696 584.922C289.876 582.374 410.726 586.967 437.29 584.922C439.295 584.767 446.189 586.967 446.332 584.922C447.5 570.681 448.257 426.598 444.788 416.685C441.319 406.771 424.194 359.113 402.374 336.891C396.29 330.887 387.031 328.562 381.917 321.624C377.507 314.058 377.849 309.618 373.494 305.638C371.605 303.911 367.148 303.21 363.836 300.813C360.506 297.502 363.659 290.215 362.292 285.605C359.475 274.094 349.096 266.709 337.753 264.968C321.987 261.194 305.342 264.763 297.79 277.152C294.979 281.764 296.475 287.369 293.018 294.759C293.265 300.343 286.748 301.692 282.852 303.905L275.116 311.727C251.283 325.142 223.246 332.386 202.363 350.409C184.609 368.427 166.949 389.253 159.072 413.63C157.441 420.273 156.909 427.138 156.233 433.926C154.303 453.762 148.931 473.014 144.307 492.335C139.035 516.679 134.121 542.52 141.226 567.094C143.275 572.295 168.158 584.679 172.822 584.922Z" fill="white"/>
<path fill-rule="evenodd" clip-rule="evenodd" d="M296.424 279.136C296.631 278.461 297.519 278.651 297.587 279.291C298.256 285.644 297.414 292.283 296.606 298.593C296.218 301.639 295.995 304.806 295.405 307.809C295.329 308.13 295.258 308.454 295.19 308.774C295.384 309.119 295.957 309.507 296.231 309.772L297.419 310.929L299.801 313.236C304.463 317.751 309.124 322.271 313.785 326.787L320.628 333.422C322.974 335.696 325.639 337.874 327.698 340.41C328.814 341.787 329.067 343.476 327.967 344.951C327.424 345.68 326.448 346.21 325.458 346.32C325.845 346.859 326.144 347.47 326.334 348.148C326.721 349.53 325.324 351.227 323.837 350.65C322.149 350.002 320.754 348.839 319.036 348.283C317.301 347.718 315.415 347.609 313.617 347.912C312.792 348.051 311.983 348.258 311.196 348.519C319.622 352.399 328.738 354.627 338.036 354.947C339.93 355.011 341.822 354.985 343.703 354.859C346.87 354.652 350.015 354.172 353.106 353.397C355.536 352.786 357.941 352.019 360.273 351.093C361.419 350.638 362.551 350.137 363.646 349.568L363.742 349.511C363.99 349.356 368.565 346.761 368.644 346.371C368.724 345.981 368.724 345.845 368.575 345.505C368.427 345.166 368.014 344.932 368.014 344.932C366.6 344.327 365.136 343.765 363.591 343.754C360.037 343.733 356.159 346.362 353.22 348.153C349.991 350.12 347.021 352.419 343.914 354.551C343.842 354.602 343.763 354.623 343.687 354.623C343.358 354.623 343.055 354.218 343.265 353.902C345.493 350.622 348.499 347.89 351.643 345.505L352.911 344.555C355.791 342.406 359.159 340.027 362.661 339.508C366.951 338.876 371.432 341.552 375.26 343.118L382.039 345.894C383.247 346.387 384.561 346.808 385.778 347.369L382.937 338.477C381.518 334.03 380.102 329.582 378.7 325.132L378.428 324.26C377.031 319.742 375.749 315.042 373.423 310.914C372.868 309.924 372.232 308.994 371.604 308.054C370.952 307.081 370.707 306.007 369.887 305.139C368.261 303.416 365.932 302.405 363.709 301.744C363.166 301.584 363.326 300.868 363.836 300.813C366.117 300.572 368.293 301.105 370.355 302.067L371.212 302.476C373.161 303.399 375.062 304.257 376.51 305.914C379.811 309.697 381.525 314.46 383.1 319.16L383.521 320.422C384.11 320.228 388.115 321.45 388.616 321.74C403.628 328.089 415.191 339.908 423.646 353.759C432.91 368.937 437.954 386.279 442.119 403.441C443.404 408.738 444.633 414.05 445.814 419.375C440.553 421.4 434.962 422.459 430.037 425.312C428.162 426.398 429.856 429.312 431.737 428.222C436.35 425.551 441.604 424.564 446.541 422.687C449.218 435.014 451.599 447.409 453.593 459.855C459.72 498.053 463.59 536.875 463.345 575.596C463.341 576.452 463.089 577.408 462.621 578.229C462.895 578.095 463.11 577.934 463.232 577.741C464.786 575.301 468.681 577.564 467.118 580.016L466.89 580.371C465.718 582.179 464.624 583.56 462.563 584.581C460.486 585.61 458.238 585.782 455.947 585.841C448.162 586.046 440.37 586.18 432.577 586.276C431.508 577.936 431.073 569.517 429.601 561.226C429.222 559.094 425.975 559.997 426.353 562.122C427.775 570.128 428.23 578.256 429.222 586.317C412.56 586.496 395.889 586.498 379.239 586.545C356.675 586.611 334.114 586.564 311.552 586.552L301.882 586.549C275.817 586.549 249.751 586.464 223.687 586.292L217.488 586.248C215.022 571.706 213.344 557.04 213.313 542.262C213.308 540.094 209.939 540.09 209.944 542.262C209.975 557.023 211.635 571.691 214.078 586.229C207.907 586.202 201.738 586.224 195.567 586.443L192.425 586.555C186.14 586.771 179.843 586.903 173.569 586.402C166.605 585.841 159.56 584.561 153.316 581.279C150.503 579.799 148.027 577.906 145.91 575.68C148.062 574.428 150.244 573.228 152.328 571.864C154.135 570.681 152.449 567.762 150.627 568.954C148.382 570.424 146.021 571.704 143.709 573.064C142.035 570.829 140.661 568.348 139.617 565.672C137.971 561.447 137.335 556.901 136.783 552.428C136.131 547.158 135.861 541.846 135.861 536.539C135.861 525.376 137.036 514.246 138.675 503.218C140.241 492.653 142.312 482.173 144.502 471.726L144.801 470.301C146.961 460.031 149.02 449.732 151.496 439.533C153.786 430.103 156.431 420.717 159.584 411.512C162.391 413.248 165.328 414.767 168.091 416.575C169.91 417.766 171.6 414.85 169.791 413.665C166.843 411.736 163.7 410.132 160.725 408.247C164.251 398.39 168.389 388.764 173.351 379.544C183.288 361.081 196.679 344.563 213.829 332.373C222.415 326.273 231.834 321.281 241.726 317.65C251.811 313.943 262.262 311.912 272.949 311.079C273.254 311.055 273.425 311.337 273.413 311.598L273.408 311.647L273.829 311.715C273.985 310.657 274.305 309.633 274.916 308.694C276.305 306.555 278.941 305.181 281.046 303.867L281.545 303.556C284.05 302.003 286.694 300.473 289.607 299.928C289.708 299.911 289.771 300.016 289.704 300.097C287.783 302.3 285.326 303.984 283.074 305.848L282.557 306.28C280.691 307.816 278.088 309.559 278.019 312.127C277.939 315.152 278.558 318.298 278.781 321.315C279.004 324.322 279.16 327.326 279.24 330.342C279.531 341.147 279.181 351.957 278.225 362.719L282.452 359.888C289.031 355.482 295.632 351.089 302.37 346.964C306.446 344.467 311.028 342.331 315.912 342.428C317.28 342.453 318.826 342.651 320.308 343.072C318.713 341.56 317.184 339.951 315.622 338.43C313.049 335.923 310.476 333.417 307.903 330.915L300.485 323.686L293.064 316.458C290.765 314.212 288.07 312.144 288.314 308.606C288.513 305.784 289.948 302.974 290.929 300.253C291.068 299.861 291.194 299.473 291.312 299.09C293.292 292.51 294.416 285.69 296.424 279.136ZM392.301 561.453C390.767 559.917 388.384 562.299 389.919 563.835L390.731 564.644C392.087 565.997 393.431 567.392 394.37 569.065L394.507 569.318C395.518 571.237 398.427 569.536 397.416 567.617C396.165 565.245 394.177 563.33 392.301 561.453ZM326.556 561.019C321.671 560.086 316.963 560.086 312.078 561.019C309.951 561.426 310.851 564.674 312.973 564.269C317.245 563.453 321.387 563.453 325.66 564.269C327.778 564.673 328.686 561.426 326.556 561.019ZM260.585 527.05C258.483 526.517 257.586 529.766 259.69 530.299L260.726 530.559C264.246 531.43 267.6 532.078 271.257 531.27C273.345 530.808 272.501 527.638 270.444 528.004L270.361 528.02C266.977 528.768 263.86 527.88 260.585 527.05ZM377.748 505.161C376.193 503.648 373.808 506.029 375.366 507.543C377.31 509.435 379.602 510.872 382.378 510.949C384.514 511.009 384.545 507.739 382.474 507.584L382.378 507.579C380.517 507.527 379.035 506.412 377.748 505.161ZM179.492 496.161C181.431 495.19 179.727 492.283 177.792 493.251L166.15 499.074C164.21 500.044 165.914 502.952 167.85 501.984L179.492 496.161ZM409.542 496.903C407.374 496.842 407.376 500.212 409.542 500.273C411.58 500.33 413.668 501.102 415.484 501.983C417.426 502.927 419.136 500.022 417.184 499.073C414.811 497.921 412.205 496.977 409.542 496.903ZM300.765 480.632C302.548 479.42 300.865 476.498 299.065 477.722C296.609 479.391 294.384 481.364 291.968 483.083L291.303 483.545C289.521 484.757 291.204 487.678 293.004 486.455C295.682 484.634 298.087 482.452 300.765 480.632ZM426.036 456.139C423.868 456.138 423.865 459.508 426.036 459.509L426.447 459.508C428.236 459.498 430.122 459.448 431.786 460.164L431.977 460.25C433.927 461.169 435.639 458.264 433.677 457.34C431.238 456.191 428.687 456.141 426.036 456.139ZM238.959 453.732L239.242 453.626C241.267 452.898 240.394 449.64 238.346 450.376C235.26 451.486 232.86 453.581 230.183 455.399C228.399 456.611 230.083 459.531 231.883 458.309C234.189 456.742 236.335 454.758 238.959 453.732ZM365.312 444.965L365.766 444.721C367.695 443.729 365.992 440.82 364.066 441.811C362.537 442.598 361.169 443.645 359.669 444.48L359.215 444.723C357.287 445.716 358.989 448.624 360.915 447.633C362.444 446.846 363.812 445.799 365.312 444.965ZM314.063 412.323L313.716 411.988C312.166 410.469 309.782 412.85 311.334 414.371C315.211 418.166 319.794 421.048 324.417 423.834L325.258 424.34C327.121 425.458 328.817 422.546 326.958 421.43L325.724 420.687C321.613 418.208 317.551 415.648 314.063 412.323ZM220.843 409.177C222.15 407.48 219.309 405.819 217.981 407.417L217.935 407.476C216.575 409.242 214.961 410.84 213.275 412.299L212.958 412.571C211.954 413.426 210.127 415.256 208.717 415.376C206.573 415.559 206.554 418.93 208.717 418.746C210.899 418.561 212.777 417.024 214.425 415.708C216.825 413.792 218.971 411.608 220.843 409.177ZM400.063 396.901C401.628 395.43 399.316 393.088 397.736 394.468L397.681 394.518C394.756 397.267 390.548 398.005 386.782 398.937C384.679 399.458 385.57 402.709 387.678 402.187L389.393 401.763C393.241 400.802 397.103 399.683 400.063 396.901ZM333.348 375.644C331.246 375.11 330.349 378.359 332.453 378.894C336.025 379.802 339.41 380.976 342.722 382.606C344.66 383.56 346.369 380.655 344.422 379.696C340.859 377.942 337.195 376.622 333.348 375.644ZM367.759 304.604C367.709 304.452 367.869 304.28 368.025 304.334C371.805 305.744 369.795 310.697 368.621 313.662L368.408 314.204C366.568 318.956 363.995 323.581 361.191 327.836C358.256 332.288 354.997 336.551 351.468 340.553C349.937 342.291 348.349 343.978 346.708 345.615L346.09 346.227C344.432 347.858 342.293 350.722 339.719 350.406C336.949 350.073 335.403 347.112 337.424 344.863C338.852 343.27 340.831 342.002 342.427 340.553C344.011 339.121 345.543 337.642 347.038 336.122C350.095 333 352.992 329.702 355.641 326.227C358.203 322.866 360.654 319.412 362.883 315.821L363.326 315.101C365.022 312.309 368.939 308.201 367.759 304.604ZM233.821 339.904C232.027 338.676 230.34 341.596 232.121 342.814C235.396 345.053 238.278 347.766 241.823 349.607C243.721 350.594 245.409 347.767 243.59 346.734L243.523 346.698C239.981 344.857 237.095 342.142 233.821 339.904Z" fill="black"/>
<path fill-rule="evenodd" clip-rule="evenodd" d="M309.09 127.768C372.914 124.628 401.714 169.583 403.577 189.662C404.871 203.6 396.639 219.665 396.639 232.12C396.639 238.477 404.42 252.126 400.797 261.392C392.735 282.015 375.664 304.904 353.911 304.904C332.158 304.904 303.847 310.922 279.811 276.493C277.556 273.262 249.03 254.902 246.259 237.456C239.356 193.998 263.55 130.008 309.09 127.768Z" fill="#D08B5B"/>
<path fill-rule="evenodd" clip-rule="evenodd" d="M306.082 99.7908C308.365 97.1791 312.218 96.1344 315.641 96.3366C320.614 96.6314 324.939 99.7023 329.887 99.9298C335.074 100.17 340.081 98.3712 345.281 99.2053C348.469 99.7192 351.627 101.198 353.669 103.692C360.743 101.665 368.424 104.349 372.929 110.208C378.488 109.345 384.534 113.027 386.235 118.385C393.297 118.612 399.963 124.286 400.75 131.397C403.572 132.143 406.022 134.089 407.525 136.663C409.273 139.645 409.563 143.065 409.248 146.427C412.57 148.125 414.258 151.773 414.701 155.631C417.737 157.898 419.055 161.971 418.436 165.817C420.76 167.127 421.96 170.177 421.947 172.898C421.935 175.438 421.261 177.688 422.209 180.139C423.053 182.323 423.356 184.142 422.892 186.429L422.844 186.652C422.762 187.025 422.693 187.382 422.631 187.735C423.26 188.287 423.792 188.978 424.191 189.783C425.647 192.723 425.43 196.077 424.32 199.059C424.806 200.958 424.744 202.964 424.025 204.789C425.372 206.729 426.08 209.108 425.871 211.577C425.638 214.34 424.377 216.815 422.464 218.645C422.973 222.42 421.439 226.499 418.664 229.157C419.058 231.417 418.718 233.786 417.482 235.929C416.601 237.456 415.416 238.593 414.048 239.386C414.093 240.647 413.922 241.936 413.503 243.228C412.92 245.021 411.934 246.672 410.636 248.003C411.411 252.956 408.446 258.452 403.229 259.841C402.79 259.958 402.372 260.012 401.972 260.02C401.453 264.784 400.321 269.482 398.569 273.943C394.114 285.304 386.012 295.237 375.447 301.433C370.222 304.496 364.352 306.594 358.36 307.47C354.048 308.102 349.9 307.946 345.572 307.516C340.14 306.973 334.682 306.16 329.402 304.761L328.553 304.535C326.364 303.949 324.056 303.272 322.159 302.09C320.037 300.768 318.934 298.729 318.446 296.328C318.173 294.991 319.019 293.554 320.482 293.526L320.576 293.527C320.896 293.533 321.213 293.521 321.535 293.501L321.777 293.484H321.789C321.806 293.48 321.814 293.48 321.831 293.48C321.974 293.459 322.113 293.417 322.252 293.396C323.861 293.125 325.268 293.394 326.779 293.896L326.968 293.96C329.511 294.837 332.034 295.65 334.661 296.252C337.377 296.871 340.127 297.364 342.885 297.752L343.159 297.785L343.243 297.798L343.285 297.802C343.293 297.802 343.302 297.802 343.31 297.806L344.123 297.908C344.763 297.983 345.403 298.051 346.043 298.118C347.222 298.236 348.401 298.329 349.58 298.396C369.931 299.542 387.023 283.513 392.181 264.296C394.051 257.341 394.173 250.403 393.621 243.461C393.444 242.956 393.339 242.396 393.343 241.781C393.343 241.46 393.361 241.144 393.381 240.824C392.695 234.11 391.504 227.391 390.758 220.651C389.887 212.778 389.402 204.859 389.579 196.935C389.667 193.021 390.084 189.146 390.632 185.271L390.829 183.878C388.356 183.395 386.056 182.222 384.224 180.523C380.25 182.819 375.107 183.022 371.184 180.598C366.788 183.356 360.646 183.606 356.219 180.909C353.543 182.82 350.172 183.645 346.863 182.919C345.374 182.593 343.894 181.888 342.627 180.911C341.722 181.07 340.805 181.132 339.894 181.085L339.705 181.19C337.604 182.298 335.276 183.027 332.881 182.946C331.107 182.886 329.28 182.536 327.589 181.874C325.782 182.965 323.805 183.71 321.689 183.977C318.6 184.366 315.265 183.683 312.696 181.929C308 184.605 302.225 185.017 297.157 183.219C296.119 184.978 294.682 186.494 293.001 187.663C293.302 188.743 293.398 189.893 293.294 191C293.124 192.822 292.668 194.455 291.921 195.921C292.708 197.559 292.945 199.57 292.504 201.589C291.876 204.468 290.202 206.972 288.034 208.922C287.843 213.517 285.325 217.824 281.226 220.217C281.018 220.338 280.812 220.437 280.606 220.526C280.425 220.773 280.209 220.991 279.961 221.175C277.355 223.584 273.23 223.392 269.963 222.031C269.9 222.034 269.837 222.04 269.773 222.041C268.606 222.07 267.811 221.615 267.339 220.946C266.863 220.971 266.391 221.021 265.916 221.11C264.181 221.434 262.277 222.058 260.707 222.867C256.631 224.964 254.744 228.671 254.18 233.128C253.565 237.989 254.963 242.943 258.724 246.233C260.551 247.834 262.888 248.836 265.263 249.258C267.886 249.725 270.69 248.575 272.627 250.829C273.015 251.275 273.28 251.899 273.07 252.501C272.413 254.38 271.331 255.1 269.638 255.362C272.084 258.264 274.594 261.069 277.373 263.677C280.38 266.504 283.487 269.242 286.199 272.359C289.066 275.657 291.656 279.154 293.454 283.155C294.482 285.455 295.307 287.827 296.196 290.182L296.355 290.592C297.346 293.094 298.664 295.506 297.139 298.118C296.532 299.146 295.16 300.14 293.896 299.976C290.339 299.521 289.147 297.116 288.052 293.981C287.226 291.614 286.595 289.179 285.707 286.833C285.54 286.399 285.359 285.969 285.169 285.541C283.118 286.113 280.862 285.659 279.031 284.489C277.075 285.356 274.908 285.789 272.814 285.752C270.012 285.703 267.451 284.924 265.25 283.519C265.074 283.473 264.898 283.428 264.724 283.378C261.375 284.661 257.453 284.432 254.421 282.352C252.457 281.005 251.115 279.208 250.352 277.207C247.815 277.158 245.305 276.258 243.487 274.458C241.818 272.805 240.842 270.672 240.553 268.456C238.369 268.023 236.322 266.967 234.716 265.188C233.375 263.703 232.561 261.81 232.285 259.846C229.626 259.087 227.227 257.349 225.917 254.927C224.698 252.672 224.522 250.226 225.118 248.001L224.964 247.779C222.224 246.344 220.134 243.996 219.919 240.642C219.858 239.687 219.961 238.732 220.22 237.828C220.126 236.817 220.186 235.807 220.451 234.83C216.767 231.245 215.432 225.487 217.432 220.727C213.832 216.851 212.88 210.722 215.52 206.122C213.71 203.931 212.779 201.139 212.935 198.156C213.129 194.433 214.834 191.18 216.876 188.168C215.36 186.492 214.552 184.154 214.611 181.896C214.695 178.623 216.434 175.805 218.611 173.471C216.712 167.708 218.834 161.457 223.496 157.809C222.552 156.255 222.203 154.33 222.511 152.379C223.049 148.971 225.605 146.65 228.363 144.814C227.786 142.935 227.938 140.909 228.856 138.967C230.081 136.376 232.393 134.733 234.806 133.343C235.429 127.597 241.846 122.69 247.228 125.655C245.893 121.38 249.738 116.763 254.159 116.274C256.323 109.711 263.789 105.575 270.501 107.205C273.933 102.512 280.321 100.705 285.744 102.718C291.707 98.1479 299.105 97.4697 306.082 99.7908ZM263.608 228.655C267.798 228.427 270.939 231.848 273.146 234.978C275.217 237.914 269.903 241.014 268.354 237.779C267.798 236.625 267.166 235.403 266.32 234.392C266.178 234.591 266.052 234.797 265.927 235.009L265.802 235.222C265.709 235.378 265.612 235.538 265.532 235.702C265.541 235.732 265.414 236.119 265.41 236.136C265.065 237.185 264.311 237.859 263.284 238.221C261.957 238.685 260.702 237.686 260.277 236.515C259.6 234.645 261.174 233.015 262.812 232.273C261.204 232.012 259.62 232.56 258.458 233.798C258.298 233.971 258.029 233.832 258.021 233.617C257.885 230.681 260.955 228.798 263.608 228.655Z" fill="black"/>
<path fill-rule="evenodd" clip-rule="evenodd" d="M355.491 272.784C352.66 271.629 350.135 269.702 348.288 267.241C347.646 266.385 347.48 265.481 347.614 264.655C347.766 263.725 348.315 262.883 349.065 262.318C349.817 261.751 350.757 261.472 351.667 261.614C352.457 261.738 353.243 262.171 353.866 263.068L353.996 263.248C355.093 264.734 356.524 265.953 358.154 266.738C359.725 267.496 361.482 267.849 363.3 267.644C366.763 267.252 369.15 265.379 371.687 262.835C372.001 262.513 372.316 262.182 372.632 261.845C372.832 261.54 373.109 261.344 373.416 261.241C373.758 261.127 374.144 261.133 374.498 261.257C374.84 261.376 375.145 261.602 375.35 261.903C375.544 262.188 375.654 262.541 375.619 262.947C375.386 265.584 374.008 267.937 372.051 269.785C369.877 271.837 366.996 273.256 364.283 273.754C361.294 274.303 358.249 273.91 355.491 272.784ZM365.693 232.109C368.873 234.042 373.718 238.551 370.297 243.345C366.271 247.571 360.473 242.725 357.617 240.533C354.968 238.835 351.992 243.203 354.449 245.187C375.092 260.476 383.47 232.615 367.301 229.836C365.521 229.529 364.86 231.511 365.693 232.109ZM328.701 214.323C329.052 209.961 335.694 208.97 336.355 213.287C336.946 217.154 336.25 220.707 334.509 224.188C332.845 227.514 328.663 225.963 328.347 222.934C327.923 218.874 328.483 217.037 328.701 214.323ZM379.258 212.392C380.184 211.179 381.521 210.351 383.123 210.819C388.128 212.282 386.653 219.389 384.895 222.849C383.94 224.728 380.853 225.204 379.458 223.55C377.184 220.852 376.095 215.465 378.986 212.808C379.064 212.67 379.151 212.532 379.258 212.392ZM334.438 195.234L335.229 195.096C337.674 194.673 340.715 194.266 342.445 196.233C343.362 197.276 343.678 199.214 342.445 200.213C340.276 201.969 337.877 201.289 335.277 201.437C333.135 201.56 331.076 201.915 329.012 202.505C324.485 203.8 320.795 206.163 316.929 208.758C316.421 209.098 315.903 208.449 316.145 207.974C318.378 203.6 322.703 200.008 327.036 197.818C329.349 196.649 331.88 195.679 334.438 195.234ZM374.696 193.275L375.301 193.399C381.886 194.776 390.441 197.526 393.559 203.996C393.677 204.911 393.552 205.107 393.45 205.235L393.416 205.278C393.332 205.387 393.265 205.538 392.868 205.663C392.758 205.636 392.647 205.609 392.535 205.579C391.106 205.205 389.975 204.688 388.88 204.153L387.693 203.568C386.316 202.892 384.926 202.241 383.454 201.761C380.312 200.735 377.08 200.013 373.798 199.627C373.086 199.544 372.401 199.304 371.861 198.892C371.348 198.501 370.956 197.96 370.778 197.241C370.546 196.311 370.613 195.606 371.112 194.767C371.487 194.136 372.024 193.699 372.64 193.448C373.269 193.193 373.985 193.132 374.696 193.275Z" fill="black"/>
<path fill-rule="evenodd" clip-rule="evenodd" d="M383.093 282.387C381.623 281.906 380.18 281.347 378.73 280.807C371.315 277.081 362.358 276.405 354.582 279.543C350.765 281.083 347.206 283.85 343.376 285.664C342.467 286.003 341.55 286.312 340.623 286.57C340.054 286.372 339.486 286.162 338.921 285.951C334.859 284.42 331.038 282.53 327.329 280.452C326.933 279.895 326.522 279.353 326.081 278.833C328.765 278.451 331.394 277.818 333.772 277.164C341.073 275.163 347.954 271.903 355.23 269.813C362.005 267.863 369.357 266.797 376.162 269.219C379.392 270.369 382.234 272.383 385.375 273.739C387.001 274.439 388.95 275.125 390.849 275.226C389.624 278.162 388.074 280.905 385.956 283.188C384.988 282.981 384.028 282.691 383.093 282.387ZM398.892 259.391C398.242 259.931 395.559 261.675 394.688 262.715C394.463 262.629 394.24 262.542 394.017 262.452C393.635 261.981 393.071 261.775 392.496 261.788C388.484 259.921 384.911 257.282 381.724 253.974C379.458 251.628 377.138 249.172 374.111 247.812C370.544 246.202 367.037 246.944 363.289 247.188C359.301 247.453 355.364 246.32 351.381 246.864C348.467 247.264 345.738 248.498 343.38 250.238C338.567 253.789 335.249 258.777 331.181 263.078C326.566 267.956 320.89 271.073 314.578 272.665C314.502 272.615 314.422 272.564 314.342 272.518C309.689 268.305 305.487 263.549 301.769 258.482C298.139 253.532 288.568 231.252 286.256 229.298C285.296 228.485 284.243 228.135 283.237 228.165C281.414 228.207 279.729 229.475 278.976 231.471C277.696 234.867 278.336 239.256 278.437 242.807C278.563 247.154 278.849 251.497 279.304 255.824C279.755 260.099 280.353 264.362 281.098 268.596C281.473 270.736 281.889 272.872 282.348 274.999C282.492 275.669 282.673 276.267 282.892 276.823C283.115 277.872 283.355 278.916 283.612 279.953C285.288 286.739 287.932 293.534 292.981 298.542C298.236 303.762 305.377 307.228 312.01 310.329C318.326 313.282 324.945 315.906 331.737 317.962C337.637 320.637 343.953 322.751 350.294 323.863C357.276 325.089 364.615 325.165 371.357 322.739C374.671 321.547 377.804 319.883 380.646 317.81C384.676 315.717 388.301 312.839 391.27 309.031C396.587 302.207 399.125 293.925 400.235 285.384C400.519 283.199 401.588 274.821 401.672 273.517C401.943 269.305 402.215 265.093 402.486 260.88C402.614 258.892 400.175 258.325 398.892 259.391Z" fill="black"/>
</g>
<path d="M0.925781 0H434.434H0.925781ZM434.434 554.93C434.434 570.112 422.126 582.419 406.944 582.419H28.4149C13.2331 582.419 0.925781 570.112 0.925781 554.93C0.925781 561.917 9.91134 567.581 20.9956 567.581H414.364C425.448 567.581 434.434 561.917 434.434 554.93ZM0.925781 575V0V575ZM434.434 0V575V0Z" fill="#D95225" mask="url(#path-1-outside-1_675_8847)"/>
<defs>
<linearGradient id="paint0_linear_675_8847" x1="498.89" y1="595.972" x2="361.945" y2="106.995" gradientUnits="userSpaceOnUse">
<stop stop-color="#FF1CF7"/>
<stop offset="1" stop-color="#00F0FF"/>
</linearGradient>
<linearGradient id="paint1_linear_675_8847" x1="476.64" y1="598.242" x2="366.456" y2="107.141" gradientUnits="userSpaceOnUse">
<stop stop-color="#FF1CF7"/>
<stop offset="1" stop-color="#00F0FF"/>
</linearGradient>
<linearGradient id="paint2_linear_675_8847" x1="454.466" y1="599.813" x2="370.886" y2="108.037" gradientUnits="userSpaceOnUse">
<stop stop-color="#FF1CF7"/>
<stop offset="1" stop-color="#00F0FF"/>
</linearGradient>
<linearGradient id="paint3_linear_675_8847" x1="432.409" y1="600.697" x2="375.199" y2="109.673" gradientUnits="userSpaceOnUse">
<stop stop-color="#FF1CF7"/>
<stop offset="1" stop-color="#00F0FF"/>
</linearGradient>
<linearGradient id="paint4_linear_675_8847" x1="410.494" y1="600.907" x2="379.347" y2="112.034" gradientUnits="userSpaceOnUse">
<stop stop-color="#FF1CF7"/>
<stop offset="1" stop-color="#00F0FF"/>
</linearGradient>
<linearGradient id="paint5_linear_675_8847" x1="388.767" y1="600.456" x2="383.298" y2="115.105" gradientUnits="userSpaceOnUse">
<stop stop-color="#FF1CF7"/>
<stop offset="1" stop-color="#00F0FF"/>
</linearGradient>
<linearGradient id="paint6_linear_675_8847" x1="367.257" y1="599.362" x2="387.013" y2="118.867" gradientUnits="userSpaceOnUse">
<stop stop-color="#FF1CF7"/>
<stop offset="1" stop-color="#00F0FF"/>
</linearGradient>
<linearGradient id="paint7_linear_675_8847" x1="346.003" y1="597.642" x2="390.46" y2="123.302" gradientUnits="userSpaceOnUse">
<stop stop-color="#FF1CF7"/>
<stop offset="1" stop-color="#00F0FF"/>
</linearGradient>
<linearGradient id="paint8_linear_675_8847" x1="325.03" y1="595.317" x2="393.6" y2="128.388" gradientUnits="userSpaceOnUse">
<stop stop-color="#FF1CF7"/>
<stop offset="1" stop-color="#00F0FF"/>
</linearGradient>
<linearGradient id="paint9_linear_675_8847" x1="304.371" y1="592.408" x2="396.402" y2="134.101" gradientUnits="userSpaceOnUse">
<stop stop-color="#FF1CF7"/>
<stop offset="1" stop-color="#00F0FF"/>
</linearGradient>
<linearGradient id="paint10_linear_675_8847" x1="284.054" y1="588.938" x2="398.834" y2="140.418" gradientUnits="userSpaceOnUse">
<stop stop-color="#FF1CF7"/>
<stop offset="1" stop-color="#00F0FF"/>
</linearGradient>
<linearGradient id="paint11_linear_675_8847" x1="264.111" y1="584.931" x2="400.871" y2="147.311" gradientUnits="userSpaceOnUse">
<stop stop-color="#FF1CF7"/>
<stop offset="1" stop-color="#00F0FF"/>
</linearGradient>
<linearGradient id="paint12_linear_675_8847" x1="244.563" y1="580.414" x2="402.479" y2="154.753" gradientUnits="userSpaceOnUse">
<stop stop-color="#FF1CF7"/>
<stop offset="1" stop-color="#00F0FF"/>
</linearGradient>
<linearGradient id="paint13_linear_675_8847" x1="225.436" y1="575.413" x2="403.636" y2="162.715" gradientUnits="userSpaceOnUse">
<stop stop-color="#FF1CF7"/>
<stop offset="1" stop-color="#00F0FF"/>
</linearGradient>
<linearGradient id="paint14_linear_675_8847" x1="206.75" y1="569.957" x2="404.316" y2="171.166" gradientUnits="userSpaceOnUse">
<stop stop-color="#FF1CF7"/>
<stop offset="1" stop-color="#00F0FF"/>
</linearGradient>
<linearGradient id="paint15_linear_675_8847" x1="188.529" y1="564.074" x2="404.498" y2="180.076" gradientUnits="userSpaceOnUse">
<stop stop-color="#FF1CF7"/>
<stop offset="1" stop-color="#00F0FF"/>
</linearGradient>
<linearGradient id="paint16_linear_675_8847" x1="170.792" y1="557.795" x2="404.163" y2="189.412" gradientUnits="userSpaceOnUse">
<stop stop-color="#FF1CF7"/>
<stop offset="1" stop-color="#00F0FF"/>
</linearGradient>
<linearGradient id="paint17_linear_675_8847" x1="153.552" y1="551.15" x2="403.29" y2="199.142" gradientUnits="userSpaceOnUse">
<stop stop-color="#FF1CF7"/>
<stop offset="1" stop-color="#00F0FF"/>
</linearGradient>
<linearGradient id="paint18_linear_675_8847" x1="136.827" y1="544.171" x2="401.864" y2="209.23" gradientUnits="userSpaceOnUse">
<stop stop-color="#FF1CF7"/>
<stop offset="1" stop-color="#00F0FF"/>
</linearGradient>
<linearGradient id="paint19_linear_675_8847" x1="120.628" y1="536.89" x2="399.87" y2="219.643" gradientUnits="userSpaceOnUse">
<stop stop-color="#FF1CF7"/>
<stop offset="1" stop-color="#00F0FF"/>
</linearGradient>
<linearGradient id="paint20_linear_675_8847" x1="104.97" y1="529.34" x2="397.3" y2="230.347" gradientUnits="userSpaceOnUse">
<stop stop-color="#FF1CF7"/>
<stop offset="1" stop-color="#00F0FF"/>
</linearGradient>
<linearGradient id="paint21_linear_675_8847" x1="89.8576" y1="521.552" x2="394.138" y2="241.304" gradientUnits="userSpaceOnUse">
<stop stop-color="#FF1CF7"/>
<stop offset="1" stop-color="#00F0FF"/>
</linearGradient>
<linearGradient id="paint22_linear_675_8847" x1="75.3011" y1="513.561" x2="390.381" y2="252.482" gradientUnits="userSpaceOnUse">
<stop stop-color="#FF1CF7"/>
<stop offset="1" stop-color="#00F0FF"/>
</linearGradient>
<linearGradient id="paint23_linear_675_8847" x1="61.3061" y1="505.398" x2="386.022" y2="263.842" gradientUnits="userSpaceOnUse">
<stop stop-color="#FF1CF7"/>
<stop offset="1" stop-color="#00F0FF"/>
</linearGradient>
<linearGradient id="paint24_linear_675_8847" x1="47.8748" y1="497.098" x2="381.057" y2="275.351" gradientUnits="userSpaceOnUse">
<stop stop-color="#FF1CF7"/>
<stop offset="1" stop-color="#00F0FF"/>
</linearGradient>
<linearGradient id="paint25_linear_675_8847" x1="35.0058" y1="488.694" x2="375.481" y2="286.972" gradientUnits="userSpaceOnUse">
<stop stop-color="#FF1CF7"/>
<stop offset="1" stop-color="#00F0FF"/>
</linearGradient>
<linearGradient id="paint26_linear_675_8847" x1="22.7057" y1="480.217" x2="369.301" y2="298.67" gradientUnits="userSpaceOnUse">
<stop stop-color="#FF1CF7"/>
<stop offset="1" stop-color="#00F0FF"/>
</linearGradient>
<linearGradient id="paint27_linear_675_8847" x1="10.9655" y1="471.701" x2="362.514" y2="310.411" gradientUnits="userSpaceOnUse">
<stop stop-color="#FF1CF7"/>
<stop offset="1" stop-color="#00F0FF"/>
</linearGradient>
<linearGradient id="paint28_linear_675_8847" x1="-0.213965" y1="463.177" x2="355.128" y2="322.16" gradientUnits="userSpaceOnUse">
<stop stop-color="#FF1CF7"/>
<stop offset="1" stop-color="#00F0FF"/>
</linearGradient>
<linearGradient id="paint29_linear_675_8847" x1="-10.8417" y1="454.677" x2="347.147" y2="333.884" gradientUnits="userSpaceOnUse">
<stop stop-color="#FF1CF7"/>
<stop offset="1" stop-color="#00F0FF"/>
</linearGradient>
<linearGradient id="paint30_linear_675_8847" x1="-20.9247" y1="446.232" x2="338.579" y2="345.548" gradientUnits="userSpaceOnUse">
<stop stop-color="#FF1CF7"/>
<stop offset="1" stop-color="#00F0FF"/>
</linearGradient>
<linearGradient id="paint31_linear_675_8847" x1="-30.4704" y1="437.872" x2="329.437" y2="357.122" gradientUnits="userSpaceOnUse">
<stop stop-color="#FF1CF7"/>
<stop offset="1" stop-color="#00F0FF"/>
</linearGradient>
<linearGradient id="paint32_linear_675_8847" x1="-39.4921" y1="429.625" x2="319.73" y2="368.573" gradientUnits="userSpaceOnUse">
<stop stop-color="#FF1CF7"/>
<stop offset="1" stop-color="#00F0FF"/>
</linearGradient>
<linearGradient id="paint33_linear_675_8847" x1="-48.0015" y1="421.521" x2="309.472" y2="379.872" gradientUnits="userSpaceOnUse">
<stop stop-color="#FF1CF7"/>
<stop offset="1" stop-color="#00F0FF"/>
</linearGradient>
<linearGradient id="paint34_linear_675_8847" x1="-56.0124" y1="413.586" x2="298.678" y2="390.987" gradientUnits="userSpaceOnUse">
<stop stop-color="#FF1CF7"/>
<stop offset="1" stop-color="#00F0FF"/>
</linearGradient>
<linearGradient id="paint35_linear_675_8847" x1="-63.5392" y1="405.847" x2="287.366" y2="401.893" gradientUnits="userSpaceOnUse">
<stop stop-color="#FF1CF7"/>
<stop offset="1" stop-color="#00F0FF"/>
</linearGradient>
<linearGradient id="paint36_linear_675_8847" x1="-70.6025" y1="398.329" x2="275.551" y2="412.561" gradientUnits="userSpaceOnUse">
<stop stop-color="#FF1CF7"/>
<stop offset="1" stop-color="#00F0FF"/>
</linearGradient>
<linearGradient id="paint37_linear_675_8847" x1="-77.2157" y1="391.055" x2="263.256" y2="422.966" gradientUnits="userSpaceOnUse">
<stop stop-color="#FF1CF7"/>
<stop offset="1" stop-color="#00F0FF"/>
</linearGradient>
<linearGradient id="paint38_linear_675_8847" x1="-83.4003" y1="384.049" x2="250.501" y2="433.084" gradientUnits="userSpaceOnUse">
<stop stop-color="#FF1CF7"/>
<stop offset="1" stop-color="#00F0FF"/>
</linearGradient>
<linearGradient id="paint39_linear_675_8847" x1="-89.1785" y1="377.332" x2="237.304" y2="442.892" gradientUnits="userSpaceOnUse">
<stop stop-color="#FF1CF7"/>
<stop offset="1" stop-color="#00F0FF"/>
</linearGradient>
<linearGradient id="paint40_linear_675_8847" x1="-94.5674" y1="370.922" x2="223.695" y2="452.368" gradientUnits="userSpaceOnUse">
<stop stop-color="#FF1CF7"/>
<stop offset="1" stop-color="#00F0FF"/>
</linearGradient>
<linearGradient id="paint41_linear_675_8847" x1="-99.5924" y1="364.839" x2="209.693" y2="461.493" gradientUnits="userSpaceOnUse">
<stop stop-color="#FF1CF7"/>
<stop offset="1" stop-color="#00F0FF"/>
</linearGradient>
<linearGradient id="paint42_linear_675_8847" x1="-104.28" y1="359.1" x2="195.322" y2="470.249" gradientUnits="userSpaceOnUse">
<stop stop-color="#FF1CF7"/>
<stop offset="1" stop-color="#00F0FF"/>
</linearGradient>
<linearGradient id="paint43_linear_675_8847" x1="-108.648" y1="353.719" x2="180.611" y2="478.619" gradientUnits="userSpaceOnUse">
<stop stop-color="#FF1CF7"/>
<stop offset="1" stop-color="#00F0FF"/>
</linearGradient>
<linearGradient id="paint44_linear_675_8847" x1="-112.722" y1="348.711" x2="165.588" y2="486.589" gradientUnits="userSpaceOnUse">
<stop stop-color="#FF1CF7"/>
<stop offset="1" stop-color="#00F0FF"/>
</linearGradient>
<linearGradient id="paint45_linear_675_8847" x1="-116.532" y1="344.088" x2="150.274" y2="494.146" gradientUnits="userSpaceOnUse">
<stop stop-color="#FF1CF7"/>
<stop offset="1" stop-color="#00F0FF"/>
</linearGradient>
<linearGradient id="paint46_linear_675_8847" x1="-120.098" y1="339.859" x2="134.703" y2="501.277" gradientUnits="userSpaceOnUse">
<stop stop-color="#FF1CF7"/>
<stop offset="1" stop-color="#00F0FF"/>
</linearGradient>
<linearGradient id="paint47_linear_675_8847" x1="-123.446" y1="336.036" x2="118.902" y2="507.974" gradientUnits="userSpaceOnUse">
<stop stop-color="#FF1CF7"/>
<stop offset="1" stop-color="#00F0FF"/>
</linearGradient>
<linearGradient id="paint48_linear_675_8847" x1="-126.609" y1="332.623" x2="102.894" y2="514.228" gradientUnits="userSpaceOnUse">
<stop stop-color="#FF1CF7"/>
<stop offset="1" stop-color="#00F0FF"/>
</linearGradient>
<linearGradient id="paint49_linear_675_8847" x1="-129.606" y1="329.628" x2="86.7136" y2="520.034" gradientUnits="userSpaceOnUse">
<stop stop-color="#FF1CF7"/>
<stop offset="1" stop-color="#00F0FF"/>
</linearGradient>
<linearGradient id="paint50_linear_675_8847" x1="-132.47" y1="327.054" x2="70.3841" y2="525.387" gradientUnits="userSpaceOnUse">
<stop stop-color="#FF1CF7"/>
<stop offset="1" stop-color="#00F0FF"/>
</linearGradient>
<linearGradient id="paint51_linear_675_8847" x1="-135.223" y1="324.904" x2="53.9367" y2="530.285" gradientUnits="userSpaceOnUse">
<stop stop-color="#FF1CF7"/>
<stop offset="1" stop-color="#00F0FF"/>
</linearGradient>
<linearGradient id="paint52_linear_675_8847" x1="-137.891" y1="323.178" x2="37.4008" y2="534.726" gradientUnits="userSpaceOnUse">
<stop stop-color="#FF1CF7"/>
<stop offset="1" stop-color="#00F0FF"/>
</linearGradient>
<linearGradient id="paint53_linear_675_8847" x1="-140.502" y1="321.876" x2="20.8028" y2="538.713" gradientUnits="userSpaceOnUse">
<stop stop-color="#FF1CF7"/>
<stop offset="1" stop-color="#00F0FF"/>
</linearGradient>
<linearGradient id="paint54_linear_675_8847" x1="-143.081" y1="320.995" x2="4.17103" y2="542.245" gradientUnits="userSpaceOnUse">
<stop stop-color="#FF1CF7"/>
<stop offset="1" stop-color="#00F0FF"/>
</linearGradient>
<linearGradient id="paint55_linear_675_8847" x1="-145.655" y1="320.532" x2="-12.4677" y2="545.33" gradientUnits="userSpaceOnUse">
<stop stop-color="#FF1CF7"/>
<stop offset="1" stop-color="#00F0FF"/>
</linearGradient>
<linearGradient id="paint56_linear_675_8847" x1="-148.247" y1="320.48" x2="-29.0869" y2="547.971" gradientUnits="userSpaceOnUse">
<stop stop-color="#FF1CF7"/>
<stop offset="1" stop-color="#00F0FF"/>
</linearGradient>
<linearGradient id="paint57_linear_675_8847" x1="-150.882" y1="320.835" x2="-45.6601" y2="550.176" gradientUnits="userSpaceOnUse">
<stop stop-color="#FF1CF7"/>
<stop offset="1" stop-color="#00F0FF"/>
</linearGradient>
<linearGradient id="paint58_linear_675_8847" x1="-153.585" y1="321.586" x2="-62.1632" y2="551.955" gradientUnits="userSpaceOnUse">
<stop stop-color="#FF1CF7"/>
<stop offset="1" stop-color="#00F0FF"/>
</linearGradient>
<linearGradient id="paint59_linear_675_8847" x1="-156.373" y1="322.725" x2="-78.5668" y2="553.316" gradientUnits="userSpaceOnUse">
<stop stop-color="#FF1CF7"/>
<stop offset="1" stop-color="#00F0FF"/>
</linearGradient>
<clipPath id="clip0_675_8847">
<path d="M0.925781 20.0698C0.925781 8.98559 9.91134 0 20.9956 0H414.364C425.448 0 434.434 8.98556 434.434 20.0698V554.93C434.434 566.014 425.448 575 414.364 575H20.9956C9.91132 575 0.925781 566.014 0.925781 554.93V20.0698Z" fill="white"/>
</clipPath>
</defs>
</svg>
