<svg width="302" height="283" viewBox="0 0 302 283" fill="none" xmlns="http://www.w3.org/2000/svg">
<path d="M151.317 266.866C231.298 266.866 296.136 208.341 296.136 136.148C296.136 63.9548 231.298 5.43042 151.317 5.43042C71.3363 5.43042 6.49902 63.9548 6.49902 136.148C6.49902 208.341 71.3363 266.866 151.317 266.866Z" fill="#8FE3F9"/>
<path d="M151.317 266.866C231.298 266.866 296.136 208.341 296.136 136.148C296.136 63.9548 231.298 5.43042 151.317 5.43042C71.3363 5.43042 6.49902 63.9548 6.49902 136.148C6.49902 208.341 71.3363 266.866 151.317 266.866Z" fill="#FCB59A"/>
<path d="M155.129 264.324C188.221 264.324 218.709 254.606 243.099 238.283L236.43 222.594C222.456 189.629 189.301 168.096 152.524 168.096C115.748 168.096 82.5924 189.629 68.6187 222.594L63.1562 235.551C88.1184 253.527 120.194 264.324 155.129 264.324Z" fill="#FBCCBD"/>
<path d="M151.253 125.223L123.56 165.874L144.457 193.694C147.887 198.267 154.81 198.267 158.24 193.694L178.946 165.874L151.253 125.223Z" fill="#54200E"/>
<path d="M151.317 251.621C74.1444 251.621 11.1358 197.187 6.75311 128.525C6.56256 131.066 6.49902 133.607 6.49902 136.147C6.49902 208.303 71.3497 266.865 151.317 266.865C231.285 266.865 296.136 208.366 296.136 136.147C296.136 133.607 296.072 131.066 295.882 128.525C291.499 197.187 228.427 251.621 151.317 251.621Z" fill="#F15B29"/>
<path d="M238.208 225.452C214.009 241.84 183.902 251.621 151.318 251.621C119.559 251.621 90.2144 242.411 66.3956 226.786L63.2197 234.599C88.2453 253.146 120.258 264.325 155.192 264.325C186.76 264.325 215.978 255.178 239.796 239.68C240.94 238.918 242.02 238.092 243.163 237.267L238.208 225.452Z" fill="#F15B29"/>
<path d="M2.94238 136.592C7.00746 144.913 12.4699 152.662 19.3297 159.585C52.549 192.805 106.475 192.805 139.694 159.585C167.514 131.765 172.024 89.5262 153.35 57.0056" fill="#F15B29"/>
<path d="M295.627 146.501C280.383 169.43 254.341 184.484 224.742 184.484C177.74 184.484 139.63 146.374 139.63 99.3714C139.63 78.4109 147.188 59.2288 159.765 44.3659" fill="#F15B29"/>
<path d="M151.317 266.866C231.298 266.866 296.136 208.341 296.136 136.148C296.136 63.9548 231.298 5.43042 151.317 5.43042C71.3363 5.43042 6.49902 63.9548 6.49902 136.148C6.49902 208.341 71.3363 266.866 151.317 266.866Z" stroke="#54200E" stroke-width="10.1627" stroke-miterlimit="10" stroke-linecap="round" stroke-linejoin="round"/>
<path d="M151.253 107.438L123.56 148.089L151.38 185.119L179.01 148.089L151.253 107.438Z" fill="#FDE6DF"/>
<path d="M151.253 107.438L123.56 148.089L151.38 185.119L179.01 148.089L151.253 107.438Z" stroke="#F15B29" stroke-width="10.1627" stroke-miterlimit="10" stroke-linecap="round" stroke-linejoin="round"/>
<path d="M150.619 5.9381C173.302 5.9381 194.85 10.9136 213.819 19.7331V108.2H87.4201V19.7331C106.389 10.9136 127.936 5.9381 150.619 5.9381Z" fill="#54200E" stroke="#54200E" stroke-width="0.635168"/>
<path d="M226.512 170.321L226.511 170.321C187.433 171.522 154.742 140.791 153.604 101.65L153.604 101.649C152.402 62.5714 183.133 29.9428 222.275 28.7414L290.835 26.66C281.002 51.6797 279.738 89.0412 288.371 129.821C277.349 153.041 253.979 169.5 226.512 170.321Z" fill="#FDE6DF" stroke="#54200E" stroke-width="0.635168"/>
<path d="M222.265 28.4239L291.308 26.3279C281.336 51.29 280.002 88.8284 288.704 129.86C277.652 153.234 254.151 169.812 226.521 170.638C187.268 171.845 154.429 140.976 153.286 101.659C152.079 62.4054 182.949 29.6307 222.265 28.4239Z" stroke="#54200E" stroke-width="10.1627" stroke-miterlimit="10" stroke-linecap="round" stroke-linejoin="round"/>
<path d="M295.564 99.4356C295.564 138.549 263.856 170.257 224.742 170.257C185.629 170.257 153.921 138.549 153.921 99.4356C153.921 60.322 185.629 28.6143 224.742 28.6143C263.856 28.6143 295.564 60.322 295.564 99.4356Z" fill="#F7E8AD" stroke="#54200E" stroke-width="0.635168"/>
<path d="M295.564 99.4356C295.564 138.549 263.856 170.257 224.742 170.257C185.629 170.257 153.921 138.549 153.921 99.4356C153.921 60.322 185.629 28.6143 224.742 28.6143C263.856 28.6143 295.564 60.322 295.564 99.4356Z" fill="#FDE6DF" stroke="#54200E" stroke-width="0.635168"/>
<path d="M275.046 49.1303C261.39 35.4742 243.478 28.5508 225.567 28.2968C239.032 30.9009 251.926 37.3797 262.343 47.8599C290.1 75.6168 290.1 120.65 262.343 148.471C248.242 162.571 229.695 169.495 211.275 169.304C233.697 173.623 257.706 167.081 275.046 149.741C302.803 121.921 302.803 76.8871 275.046 49.1303Z" fill="#F77A4A"/>
<path d="M275.046 49.1303C261.39 35.4742 243.478 28.5508 225.567 28.2968C239.032 30.9009 251.926 37.3797 262.343 47.8599C290.1 75.6168 290.1 120.65 262.343 148.471C248.242 162.571 229.695 169.495 211.275 169.304C233.697 173.623 257.706 167.081 275.046 149.741C302.803 121.921 302.803 76.8871 275.046 49.1303Z" stroke="#54200E"/>
<g opacity="0.7">
<path d="M245.781 137.432C266.617 116.597 266.496 82.694 245.512 61.7093C224.527 40.7247 190.625 40.604 169.789 61.44C148.953 82.2761 149.073 116.178 170.058 137.163C191.043 158.148 224.945 158.268 245.781 137.432Z" fill="white"/>
<path d="M245.781 137.432C266.617 116.597 266.496 82.694 245.512 61.7093C224.527 40.7247 190.625 40.604 169.789 61.44C148.953 82.2761 149.073 116.178 170.058 137.163C191.043 158.148 224.945 158.268 245.781 137.432Z" stroke="#54200E"/>
</g>
<path d="M284.448 65.7084C283.669 64.7035 282.602 63.003 281.452 61.1689C279.693 58.3661 277.739 55.2513 276.318 53.8307C248.371 26.2644 203.337 26.5185 175.771 54.5294C170.309 60.0554 165.926 66.28 162.687 72.9493C201.876 59.1662 244.814 62.469 284.448 65.7084Z" fill="#FBCCBD"/>
<path d="M284.448 65.7084C283.669 64.7035 282.602 63.003 281.452 61.1689C279.693 58.3661 277.739 55.2513 276.318 53.8307C248.371 26.2644 203.337 26.5185 175.771 54.5294C170.309 60.0554 165.926 66.28 162.687 72.9493C201.876 59.1662 244.814 62.469 284.448 65.7084Z" stroke="#54200E"/>
<path d="M224.742 170.574C264.031 170.574 295.881 138.725 295.881 99.4356C295.881 60.1466 264.031 28.2968 224.742 28.2968C185.454 28.2968 153.604 60.1466 153.604 99.4356C153.604 138.725 185.454 170.574 224.742 170.574Z" stroke="#54200E" stroke-width="10.1627" stroke-miterlimit="10" stroke-linecap="round" stroke-linejoin="round"/>
<path d="M224.742 170.574C264.031 170.574 295.881 138.725 295.881 99.4356C295.881 60.1466 264.031 28.2968 224.742 28.2968C185.454 28.2968 153.604 60.1466 153.604 99.4356C153.604 138.725 185.454 170.574 224.742 170.574Z" stroke="#54200E" stroke-width="10.1627" stroke-miterlimit="10" stroke-linecap="round" stroke-linejoin="round"/>
<path d="M281.464 56.4983C279.495 53.9576 277.399 51.4804 275.049 49.1303C247.292 21.3735 202.258 21.3735 174.438 49.1303C168.912 54.6563 164.529 60.8174 161.227 67.4231C200.607 53.9576 241.829 52.9413 281.464 56.4983Z" fill="#F15B29"/>
<path d="M281.464 56.4983C279.495 53.9576 277.399 51.4804 275.049 49.1303C247.292 21.3735 202.258 21.3735 174.438 49.1303C168.912 54.6563 164.529 60.8174 161.227 67.4231C200.607 53.9576 241.829 52.9413 281.464 56.4983Z" stroke="#54200E"/>
<path d="M216.485 104.771C216.485 119.329 204.683 131.13 190.125 131.13C175.567 131.13 163.766 119.329 163.766 104.771C163.766 90.2128 175.567 78.4112 190.125 78.4112C204.683 78.4112 216.485 90.2128 216.485 104.771Z" fill="#333333" stroke="#54200E" stroke-width="0.635168"/>
<path d="M183.582 104.961C183.582 109.697 179.743 113.536 175.008 113.536C170.272 113.536 166.433 109.697 166.433 104.961C166.433 100.225 170.272 96.3862 175.008 96.3862C179.743 96.3862 183.582 100.225 183.582 104.961Z" fill="white" stroke="#54200E" stroke-width="0.635168"/>
<path d="M75.2364 170.32L75.2361 170.32C47.7688 169.499 24.3987 153.04 13.3766 129.82C22.0092 89.0402 20.7454 51.6787 10.9126 26.659L79.536 28.7404C79.536 28.7404 79.536 28.7404 79.5361 28.7404C118.614 29.9419 149.345 62.5703 148.144 101.648L148.144 101.649C147.006 140.79 114.314 171.521 75.2364 170.32ZM10.4395 26.3269C10.4822 26.4338 10.5248 26.541 10.5672 26.6485L10.7855 26.3374L10.4395 26.3269Z" fill="#413D51" stroke="#54200E" stroke-width="0.635168"/>
<path d="M79.5457 28.4229L10.4395 26.3269C20.4116 51.289 21.7454 88.8274 13.0436 129.859C24.0956 153.233 47.5968 169.811 75.2266 170.637C114.48 171.844 147.318 140.975 148.461 101.658C149.668 62.4044 118.799 29.6297 79.5457 28.4229Z" fill="#FDE6DF" stroke="#54200E" stroke-width="10.1627" stroke-miterlimit="10" stroke-linecap="round" stroke-linejoin="round"/>
<path d="M147.825 99.4348C147.825 138.548 116.118 170.256 77.0041 170.256C37.8905 170.256 6.18282 138.548 6.18282 99.4348C6.18282 60.3212 37.8905 28.6135 77.0041 28.6135C116.118 28.6135 147.825 60.3212 147.825 99.4348Z" fill="#F7E8AD" stroke="#54200E" stroke-width="0.635168"/>
<path d="M77.0041 170.574C116.293 170.574 148.143 138.724 148.143 99.4348C148.143 60.1458 116.293 28.296 77.0041 28.296C37.7151 28.296 5.86523 60.1458 5.86523 99.4348C5.86523 138.724 37.7151 170.574 77.0041 170.574Z" fill="#FDE6DF"/>
<path d="M77.0041 170.574C116.293 170.574 148.143 138.724 148.143 99.4348C148.143 60.1458 116.293 28.296 77.0041 28.296C37.7151 28.296 5.86523 60.1458 5.86523 99.4348C5.86523 138.724 37.7151 170.574 77.0041 170.574Z" stroke="#54200E"/>
<path d="M26.6975 49.1295C40.3536 35.4734 58.2654 28.55 76.1771 28.296C62.7115 30.9001 49.8176 37.3789 39.4009 47.8591C11.644 75.616 11.644 120.649 39.4009 148.47C53.5016 162.57 72.0485 169.494 90.4684 169.303C68.0469 173.622 44.0376 167.08 26.6975 149.74C-1.05933 121.92 -1.05933 76.8863 26.6975 49.1295Z" fill="#F77A4A"/>
<path d="M26.6975 49.1295C40.3536 35.4734 58.2654 28.55 76.1771 28.296C62.7115 30.9001 49.8176 37.3789 39.4009 47.8591C11.644 75.616 11.644 120.649 39.4009 148.47C53.5016 162.57 72.0485 169.494 90.4684 169.303C68.0469 173.622 44.0376 167.08 26.6975 149.74C-1.05933 121.92 -1.05933 76.8863 26.6975 49.1295Z" stroke="#54200E"/>
<g opacity="0.7">
<path d="M131.697 137.175C152.682 116.19 152.802 82.2877 131.966 61.4523C111.13 40.6162 77.2282 40.7369 56.2436 61.7216C35.2589 82.7063 35.1382 116.608 55.9742 137.444C76.8103 158.28 110.712 158.16 131.697 137.175Z" fill="white"/>
<path d="M131.697 137.175C152.682 116.19 152.802 82.2877 131.966 61.4523C111.13 40.6162 77.2282 40.7369 56.2436 61.7216C35.2589 82.7063 35.1382 116.608 55.9742 137.444C76.8103 158.28 110.712 158.16 131.697 137.175Z" stroke="#54200E"/>
</g>
<g opacity="0.89">
<path d="M17.3633 65.7076C18.1421 64.7027 19.2091 63.0022 20.3598 61.1682C22.1185 58.3653 24.0729 55.2506 25.4934 53.83C53.4408 26.2637 98.4742 26.5178 126.041 54.5287C131.503 60.0546 135.886 66.2793 139.125 72.9485C99.8716 59.1654 56.9342 62.4683 17.3633 65.7076Z" fill="#FBCCBD"/>
<path d="M17.3633 65.7076C18.1421 64.7027 19.2091 63.0022 20.3598 61.1682C22.1185 58.3653 24.0729 55.2506 25.4934 53.83C53.4408 26.2637 98.4742 26.5178 126.041 54.5287C131.503 60.0546 135.886 66.2793 139.125 72.9485C99.8716 59.1654 56.9342 62.4683 17.3633 65.7076Z" stroke="#54200E"/>
</g>
<path d="M77.0041 170.574C116.293 170.574 148.143 138.724 148.143 99.4348C148.143 60.1458 116.293 28.296 77.0041 28.296C37.7151 28.296 5.86523 60.1458 5.86523 99.4348C5.86523 138.724 37.7151 170.574 77.0041 170.574Z" stroke="#54200E" stroke-width="10.1627" stroke-miterlimit="10" stroke-linecap="round" stroke-linejoin="round"/>
<path d="M77.0041 170.574C116.293 170.574 148.143 138.724 148.143 99.4348C148.143 60.1458 116.293 28.296 77.0041 28.296C37.7151 28.296 5.86523 60.1458 5.86523 99.4348C5.86523 138.724 37.7151 170.574 77.0041 170.574Z" stroke="#54200E" stroke-width="10.1627" stroke-miterlimit="10" stroke-linecap="round" stroke-linejoin="round"/>
<path d="M20.3477 56.4975C22.3167 53.9568 24.4127 51.4797 26.7629 49.1296C54.5197 21.3727 99.5531 21.3727 127.373 49.1296C132.899 54.6555 137.282 60.8166 140.585 67.4224C101.205 53.9568 59.9186 52.9406 20.3477 56.4975Z" fill="#F15B29"/>
<path d="M20.3477 56.4975C22.3167 53.9568 24.4127 51.4797 26.7629 49.1296C54.5197 21.3727 99.5531 21.3727 127.373 49.1296C132.899 54.6555 137.282 60.8166 140.585 67.4224C101.205 53.9568 59.9186 52.9406 20.3477 56.4975Z" stroke="#54200E"/>
<path d="M138.043 104.771C138.043 119.329 126.242 131.13 111.684 131.13C97.1259 131.13 85.3244 119.329 85.3244 104.771C85.3244 90.2128 97.1259 78.4112 111.684 78.4112C126.242 78.4112 138.043 90.2128 138.043 104.771Z" fill="#333333" stroke="#54200E" stroke-width="0.635168"/>
<path d="M135.377 104.961C135.377 109.697 131.538 113.536 126.803 113.536C122.067 113.536 118.228 109.697 118.228 104.961C118.228 100.225 122.067 96.3862 126.803 96.3862C131.538 96.3862 135.377 100.225 135.377 104.961Z" fill="white" stroke="#54200E" stroke-width="0.635168"/>
<path d="M117.082 282.744C111.492 282.744 106.919 278.171 106.919 272.581V261.148C106.919 255.559 111.492 250.986 117.082 250.986C122.671 250.986 127.244 255.559 127.244 261.148V272.581C127.244 278.171 122.735 282.744 117.082 282.744Z" fill="#54200E"/>
<path d="M96.7574 282.744C91.1679 282.744 86.5947 278.171 86.5947 272.581V261.148C86.5947 255.559 91.1679 250.986 96.7574 250.986C102.347 250.986 106.92 255.559 106.92 261.148V272.581C106.92 278.171 102.41 282.744 96.7574 282.744Z" fill="#54200E"/>
<path d="M137.28 282.744C131.69 282.744 127.117 278.171 127.117 272.581V261.148C127.117 255.559 131.69 250.986 137.28 250.986C142.869 250.986 147.443 255.559 147.443 261.148V272.581C147.443 278.171 142.869 282.744 137.28 282.744Z" fill="#54200E"/>
<path d="M164.084 282.744C158.494 282.744 153.921 278.171 153.921 272.581V261.148C153.921 255.559 158.494 250.986 164.084 250.986C169.673 250.986 174.246 255.559 174.246 261.148V272.581C174.246 278.171 169.673 282.744 164.084 282.744Z" fill="#54200E"/>
<path d="M184.283 282.744C178.693 282.744 174.12 278.171 174.12 272.581V261.148C174.12 255.559 178.693 250.986 184.283 250.986C189.872 250.986 194.445 255.559 194.445 261.148V272.581C194.445 278.171 189.872 282.744 184.283 282.744Z" fill="#54200E"/>
<path d="M204.608 282.744C199.019 282.744 194.445 278.171 194.445 272.581V261.148C194.445 255.559 199.019 250.986 204.608 250.986C210.197 250.986 214.771 255.559 214.771 261.148V272.581C214.771 278.171 210.197 282.744 204.608 282.744Z" fill="#54200E"/>
<path d="M145.029 199.728C145.029 205.064 140.71 209.383 135.374 209.383C130.039 209.383 125.72 205.064 125.72 199.728" stroke="#54200E" stroke-width="5.08134" stroke-miterlimit="10" stroke-linecap="round" stroke-linejoin="round"/>
<path d="M174.565 199.728C174.565 205.064 170.246 209.383 164.91 209.383C159.575 209.383 155.256 205.064 155.256 199.728" stroke="#54200E" stroke-width="5.08134" stroke-miterlimit="10" stroke-linecap="round" stroke-linejoin="round"/>
<path opacity="0.31" d="M37.7497 175.084C36.3524 178.069 32.8589 179.403 29.8101 178.006C26.7613 176.609 25.491 173.115 26.8884 170.066" stroke="#F15B29" stroke-width="5.08134" stroke-miterlimit="10" stroke-linecap="round" stroke-linejoin="round"/>
<path opacity="0.31" d="M56.6779 184.928C55.2805 187.914 51.7871 189.247 48.7383 187.85C45.753 186.453 44.4192 182.959 45.8165 179.911" stroke="#F15B29" stroke-width="5.08134" stroke-miterlimit="10" stroke-linecap="round" stroke-linejoin="round"/>
<path opacity="0.31" d="M45.6887 192.487C44.2913 195.473 40.7979 196.807 37.7491 195.409C34.7638 194.012 33.4299 190.518 34.8273 187.47" stroke="#F15B29" stroke-width="5.08134" stroke-miterlimit="10" stroke-linecap="round" stroke-linejoin="round"/>
<path opacity="0.31" d="M62.3293 205.127C60.9319 208.112 57.4385 209.446 54.3897 208.049C51.4044 206.651 50.0705 203.158 51.4679 200.109" stroke="#F15B29" stroke-width="5.08134" stroke-miterlimit="10" stroke-linecap="round" stroke-linejoin="round"/>
<path opacity="0.31" d="M75.0344 193.694C73.637 196.679 70.1436 198.013 67.0948 196.616C64.1095 195.218 62.7756 191.725 64.173 188.676" stroke="#F15B29" stroke-width="5.08134" stroke-miterlimit="10" stroke-linecap="round" stroke-linejoin="round"/>
<path opacity="0.31" d="M266.854 176.354C268.251 179.339 271.744 180.673 274.793 179.275C277.842 177.878 279.112 174.385 277.715 171.336" stroke="#F15B29" stroke-width="5.08134" stroke-miterlimit="10" stroke-linecap="round" stroke-linejoin="round"/>
<path opacity="0.31" d="M247.99 186.199C249.388 189.184 252.881 190.518 255.93 189.121C258.915 187.723 260.249 184.23 258.852 181.181" stroke="#F15B29" stroke-width="5.08134" stroke-miterlimit="10" stroke-linecap="round" stroke-linejoin="round"/>
<path opacity="0.31" d="M258.915 193.758C260.312 196.743 263.806 198.077 266.855 196.68C269.84 195.282 271.174 191.789 269.776 188.74" stroke="#F15B29" stroke-width="5.08134" stroke-miterlimit="10" stroke-linecap="round" stroke-linejoin="round"/>
<path opacity="0.31" d="M242.336 206.397C243.733 209.383 247.227 210.716 250.276 209.319C253.261 207.922 254.595 204.428 253.197 201.38" stroke="#F15B29" stroke-width="5.08134" stroke-miterlimit="10" stroke-linecap="round" stroke-linejoin="round"/>
<path opacity="0.31" d="M229.633 194.964C231.03 197.95 234.524 199.283 237.572 197.886C240.558 196.489 241.892 192.995 240.494 189.946" stroke="#F15B29" stroke-width="5.08134" stroke-miterlimit="10" stroke-linecap="round" stroke-linejoin="round"/>
<path d="M130.293 222.912C130.293 228.247 125.974 232.566 120.639 232.566C115.304 232.566 110.984 228.247 110.984 222.912" stroke="#54200E" stroke-width="5.08134" stroke-miterlimit="10" stroke-linecap="round" stroke-linejoin="round"/>
<path d="M159.829 222.912C159.829 228.247 155.51 232.566 150.174 232.566C144.839 232.566 140.52 228.247 140.52 222.912" stroke="#54200E" stroke-width="5.08134" stroke-miterlimit="10" stroke-linecap="round" stroke-linejoin="round"/>
<path d="M189.364 222.912C189.364 228.247 185.045 232.566 179.709 232.566C174.374 232.566 170.055 228.247 170.055 222.912" stroke="#54200E" stroke-width="5.08134" stroke-miterlimit="10" stroke-linecap="round" stroke-linejoin="round"/>
</svg>
