<svg width="474" height="61" viewBox="0 0 474 61" fill="none" xmlns="http://www.w3.org/2000/svg">
<rect width="473" height="60" transform="translate(0.220703 0.0605469)" fill="url(#paint0_radial_1522_19052)" fill-opacity="0.07"/>
<rect x="5.91809" y="13.1261" width="33.868" height="33.868" rx="16.934" stroke="white" stroke-width="2.60523"/>
<path d="M22.8521 45.6915C31.485 45.6915 38.4834 38.6931 38.4834 30.0601C38.4834 21.4271 31.485 14.4287 22.8521 14.4287C14.2191 14.4287 7.2207 21.4271 7.2207 30.0601C7.2207 38.6931 14.2191 45.6915 22.8521 45.6915Z" fill="#F0F0F0"/>
<path d="M7.2207 30.0585C7.2207 36.7795 11.4627 42.509 17.4151 44.7176V15.3994C11.4627 17.608 7.2207 23.3376 7.2207 30.0585Z" fill="#6DA544"/>
<path d="M38.4835 30.0585C38.4835 23.3376 34.2415 17.608 28.2891 15.3994V44.7177C34.2415 42.509 38.4835 36.7795 38.4835 30.0585Z" fill="#6DA544"/>
<rect x="53.9786" y="13.1261" width="33.868" height="33.868" rx="16.934" stroke="white" stroke-width="2.60523"/>
<path d="M70.9126 45.6915C79.5456 45.6915 86.544 38.6931 86.544 30.0601C86.544 21.4271 79.5456 14.4287 70.9126 14.4287C62.2797 14.4287 55.2812 21.4271 55.2812 30.0601C55.2812 38.6931 62.2797 45.6915 70.9126 45.6915Z" fill="#F0F0F0"/>
<path d="M70.2324 30.0602H86.5434C86.5434 28.6493 86.3553 27.2826 86.0049 25.9824H70.2324V30.0602Z" fill="#D80027"/>
<path d="M70.2324 21.9049H84.2491C83.2922 20.3435 82.0688 18.9634 80.6423 17.8271H70.2324V21.9049Z" fill="#D80027"/>
<path d="M70.9119 45.6921C74.5907 45.6921 77.972 44.4205 80.6422 42.2939H61.1816C63.8518 44.4205 67.2331 45.6921 70.9119 45.6921Z" fill="#D80027"/>
<path d="M57.5761 38.2155H84.2503C85.0185 36.962 85.6143 35.5918 86.0061 34.1377H55.8203C56.2121 35.5918 56.8079 36.962 57.5761 38.2155V38.2155Z" fill="#D80027"/>
<path d="M62.522 16.8698H63.9465L62.6215 17.8324L63.1276 19.39L61.8026 18.4273L60.4777 19.39L60.9149 18.0444C59.7483 19.0162 58.7258 20.1547 57.8831 21.4233H58.3396L57.4961 22.036C57.3647 22.2552 57.2387 22.4779 57.1179 22.7039L57.5207 23.9435L56.7693 23.3975C56.5825 23.7932 56.4117 24.1979 56.2581 24.611L56.7018 25.9768H58.3396L57.0146 26.9394L57.5207 28.4969L56.1957 27.5343L55.4021 28.111C55.3226 28.7495 55.2812 29.4 55.2812 30.0601H70.9126C70.9126 21.4272 70.9126 20.4094 70.9126 14.4287C67.8247 14.4287 64.9461 15.3245 62.522 16.8698V16.8698ZM63.1276 28.4969L61.8026 27.5343L60.4777 28.4969L60.9838 26.9394L59.6588 25.9768H61.2966L61.8026 24.4192L62.3087 25.9768H63.9465L62.6215 26.9394L63.1276 28.4969ZM62.6215 22.3859L63.1276 23.9435L61.8026 22.9808L60.4777 23.9435L60.9838 22.3859L59.6588 21.4233H61.2966L61.8026 19.8657L62.3087 21.4233H63.9465L62.6215 22.3859ZM68.7345 28.4969L67.4095 27.5343L66.0846 28.4969L66.5907 26.9394L65.2657 25.9768H66.9035L67.4095 24.4192L67.9156 25.9768H69.5534L68.2284 26.9394L68.7345 28.4969ZM68.2284 22.3859L68.7345 23.9435L67.4095 22.9808L66.0846 23.9435L66.5907 22.3859L65.2657 21.4233H66.9035L67.4095 19.8657L67.9156 21.4233H69.5534L68.2284 22.3859ZM68.2284 17.8324L68.7345 19.39L67.4095 18.4273L66.0846 19.39L66.5907 17.8324L65.2657 16.8698H66.9035L67.4095 15.3122L67.9156 16.8698H69.5534L68.2284 17.8324Z" fill="#0052B4"/>
<rect x="102.041" y="13.1261" width="33.868" height="33.868" rx="16.934" stroke="white" stroke-width="2.60523"/>
<path d="M118.975 45.6915C127.608 45.6915 134.606 38.6931 134.606 30.0601C134.606 21.4271 127.608 14.4287 118.975 14.4287C110.342 14.4287 103.344 21.4271 103.344 30.0601C103.344 38.6931 110.342 45.6915 118.975 45.6915Z" fill="#F0F0F0"/>
<path d="M106.574 20.543C105.346 22.1405 104.42 23.9817 103.881 25.982H112.013L106.574 20.543Z" fill="#0052B4"/>
<path d="M134.067 25.982C133.528 23.9817 132.602 22.1405 131.374 20.543L125.936 25.982H134.067Z" fill="#0052B4"/>
<path d="M103.881 34.1377C104.42 36.1379 105.346 37.9792 106.574 39.5766L112.013 34.1377H103.881Z" fill="#0052B4"/>
<path d="M128.49 17.6597C126.892 16.4318 125.051 15.506 123.051 14.9668V23.0986L128.49 17.6597Z" fill="#0052B4"/>
<path d="M109.457 42.4594C111.055 43.6872 112.896 44.6131 114.896 45.1522V37.0205L109.457 42.4594Z" fill="#0052B4"/>
<path d="M114.896 14.9668C112.896 15.506 111.054 16.4318 109.457 17.6596L114.896 23.0985V14.9668Z" fill="#0052B4"/>
<path d="M123.051 45.1522C125.051 44.6131 126.892 43.6872 128.49 42.4594L123.051 37.0205V45.1522Z" fill="#0052B4"/>
<path d="M125.936 34.1377L131.374 39.5767C132.602 37.9792 133.528 36.1379 134.067 34.1377H125.936Z" fill="#0052B4"/>
<path d="M134.474 28.0212H121.014H121.014V14.561C120.347 14.4741 119.666 14.4287 118.975 14.4287C118.284 14.4287 117.604 14.4741 116.936 14.561V28.0211V28.0212H103.476C103.389 28.6886 103.344 29.3691 103.344 30.0601C103.344 30.7512 103.389 31.4316 103.476 32.0989H116.936H116.936V45.5591C117.604 45.646 118.284 45.6915 118.975 45.6915C119.666 45.6915 120.347 45.6461 121.014 45.5591V32.0991V32.099H134.474C134.561 31.4316 134.606 30.7512 134.606 30.0601C134.606 29.3691 134.561 28.6886 134.474 28.0212Z" fill="#D80027"/>
<path d="M123.053 34.1378L130.028 41.113C130.349 40.7923 130.655 40.457 130.947 40.1095L124.975 34.1377H123.053V34.1378Z" fill="#D80027"/>
<path d="M114.897 34.1377H114.897L107.922 41.1129C108.243 41.4337 108.578 41.7397 108.925 42.0317L114.897 36.0598V34.1377Z" fill="#D80027"/>
<path d="M114.898 25.9823V25.9822L107.923 19.0068C107.602 19.3275 107.296 19.6628 107.004 20.0104L112.976 25.9822H114.898V25.9823Z" fill="#D80027"/>
<path d="M123.053 25.982L130.028 19.0067C129.707 18.6859 129.372 18.3798 129.025 18.0879L123.053 24.0597V25.982Z" fill="#D80027"/>
<rect x="150.102" y="13.1261" width="33.868" height="33.868" rx="16.934" stroke="white" stroke-width="2.60523"/>
<path d="M167.036 45.6915C175.669 45.6915 182.667 38.6931 182.667 30.0601C182.667 21.4271 175.669 14.4287 167.036 14.4287C158.403 14.4287 151.404 21.4271 151.404 30.0601C151.404 38.6931 158.403 45.6915 167.036 45.6915Z" fill="#D80027"/>
<path d="M159.959 23.9414L161.309 28.0935H165.675L162.145 30.6641L163.495 34.8162L159.959 32.2517L156.424 34.8162L157.78 30.6641L154.244 28.0935H158.61L159.959 23.9414Z" fill="#FFDA44"/>
<path d="M169.935 38.6387L168.904 37.3687L167.377 37.9609L168.262 36.5871L167.23 35.3109L168.812 35.7322L169.703 34.3584L169.789 35.9948L171.376 36.4161L169.844 37.0023L169.935 38.6387Z" fill="#FFDA44"/>
<path d="M171.987 34.9145L172.476 33.3514L171.139 32.4049L172.775 32.3805L173.257 30.8174L173.789 32.3683L175.425 32.35L174.112 33.327L174.637 34.8779L173.3 33.9314L171.987 34.9145Z" fill="#FFDA44"/>
<path d="M174.753 25.902L174.032 27.3736L175.205 28.5154L173.587 28.2834L172.866 29.7488L172.585 28.1368L170.961 27.9048L172.414 27.1415L172.133 25.5234L173.306 26.6653L174.753 25.902Z" fill="#FFDA44"/>
<path d="M169.979 21.4443L169.857 23.0746L171.377 23.6913L169.784 24.0821L169.668 25.7185L168.807 24.3264L167.213 24.7172L168.269 23.4654L167.402 22.0794L168.923 22.6961L169.979 21.4443Z" fill="#FFDA44"/>
<rect x="198.164" y="13.1261" width="33.868" height="33.868" rx="16.934" stroke="white" stroke-width="2.60523"/>
<path d="M199.467 30.0595C199.467 32.7675 200.156 35.3145 201.367 37.5353L215.098 38.8946L228.829 37.5353C230.041 35.3145 230.73 32.7675 230.73 30.0595L215.098 28.7002L199.467 30.0595Z" fill="#FFDA44"/>
<path d="M228.829 22.5842C226.178 17.7253 221.023 14.4287 215.098 14.4287C209.173 14.4287 204.019 17.7253 201.367 22.5842C200.156 24.805 199.467 27.3521 199.467 30.0601H230.73C230.73 27.3521 230.041 24.805 228.829 22.5842Z" fill="#338AF3"/>
<path d="M215.098 45.6916C221.023 45.6916 226.178 42.395 228.829 37.5361H201.367C204.018 42.395 209.173 45.6916 215.098 45.6916Z" fill="#496E2D"/>
<path d="M217.137 23.5771L219.046 24.4751L218.029 26.324L220.102 25.9275L220.365 28.0216L221.809 26.4814L223.253 28.0216L223.515 25.9275L225.588 26.3239L224.572 24.4751L226.481 23.5771L224.572 22.6792L225.588 20.8303L223.515 21.2269L223.253 19.1328L221.809 20.673L220.365 19.1328L220.102 21.2269L218.029 20.8303L219.046 22.6793L217.137 23.5771Z" fill="#FFDA44"/>
<g clip-path="url(#clip0_1522_19052)">
<path d="M263.157 45.6907C271.79 45.6907 278.787 38.6929 278.787 30.0607C278.787 21.4285 271.79 14.4307 263.157 14.4307C254.525 14.4307 247.527 21.4285 247.527 30.0607C247.527 38.6929 254.525 45.6907 263.157 45.6907Z" fill="#F0F0F0"/>
<path d="M262.479 30.0598H278.788C278.788 28.6491 278.6 27.2825 278.25 25.9824H262.479V30.0598Z" fill="#D80027"/>
<path d="M262.479 21.9055H276.494C275.537 20.3442 274.314 18.9642 272.887 17.8281H262.479V21.9055Z" fill="#D80027"/>
<path d="M263.157 45.6908C266.836 45.6908 270.217 44.4194 272.887 42.293H253.428C256.098 44.4194 259.479 45.6908 263.157 45.6908Z" fill="#D80027"/>
<path d="M249.822 38.2151H276.494C277.262 36.9617 277.858 35.5917 278.25 34.1377H248.066C248.458 35.5917 249.054 36.9617 249.822 38.2151Z" fill="#D80027"/>
<path d="M254.767 16.8715H256.192L254.867 17.834L255.373 19.3915L254.048 18.429L252.723 19.3915L253.16 18.046C251.994 19.0177 250.972 20.1561 250.129 21.4246H250.585L249.742 22.0373C249.611 22.2565 249.485 22.4791 249.364 22.7051L249.767 23.9446L249.015 23.3987C248.828 23.7944 248.658 24.199 248.504 24.612L248.948 25.9777H250.585L249.261 26.9402L249.767 28.4977L248.442 27.5351L247.648 28.1117C247.569 28.7502 247.527 29.4006 247.527 30.0607H263.157C263.157 21.4285 263.157 20.4108 263.157 14.4307C260.07 14.4307 257.191 15.3263 254.767 16.8715ZM255.373 28.4977L254.048 27.5351L252.723 28.4977L253.229 26.9402L251.905 25.9777H253.542L254.048 24.4202L254.554 25.9777H256.192L254.867 26.9402L255.373 28.4977ZM254.867 22.3871L255.373 23.9446L254.048 22.982L252.723 23.9446L253.229 22.3871L251.905 21.4246H253.542L254.048 19.8672L254.554 21.4246H256.192L254.867 22.3871ZM260.979 28.4977L259.655 27.5351L258.33 28.4977L258.836 26.9402L257.511 25.9777H259.149L259.655 24.4202L260.161 25.9777H261.798L260.473 26.9402L260.979 28.4977ZM260.473 22.3871L260.979 23.9446L259.655 22.982L258.33 23.9446L258.836 22.3871L257.511 21.4246H259.149L259.655 19.8672L260.161 21.4246H261.798L260.473 22.3871ZM260.473 17.834L260.979 19.3915L259.655 18.429L258.33 19.3915L258.836 17.834L257.511 16.8715H259.149L259.655 15.3141L260.161 16.8715H261.798L260.473 17.834Z" fill="#0052B4"/>
</g>
<g clip-path="url(#clip1_1522_19052)">
<path d="M311.216 45.6907C319.848 45.6907 326.846 38.6929 326.846 30.0607C326.846 21.4285 319.848 14.4307 311.216 14.4307C302.584 14.4307 295.586 21.4285 295.586 30.0607C295.586 38.6929 302.584 45.6907 311.216 45.6907Z" fill="#F0F0F0"/>
<path d="M311.217 14.4307C319.849 14.4307 326.847 21.4285 326.847 30.0607C326.847 38.6928 319.849 45.6907 311.217 45.6907" fill="#D80027"/>
<path d="M306.458 20.5465V18.5078H304.42V20.5465H302.381V22.5852H304.42V24.6239H306.458V22.5852H308.497V20.5465H306.458Z" fill="#ACABB1"/>
</g>
<g clip-path="url(#clip2_1522_19052)">
<path d="M359.275 45.6907C367.907 45.6907 374.905 38.6929 374.905 30.0607C374.905 21.4285 367.907 14.4307 359.275 14.4307C350.642 14.4307 343.645 21.4285 343.645 30.0607C343.645 38.6929 350.642 45.6907 359.275 45.6907Z" fill="#F0F0F0"/>
<path d="M374.904 30.0607C374.904 21.4285 367.906 14.4307 359.274 14.4307C356.216 14.4307 353.364 15.3095 350.955 16.8271L354.381 18.2827L349.76 20.2461L354.381 22.2095L349.76 24.1727L354.381 26.1359L349.76 28.0989L354.381 30.0618L349.76 32.025L354.381 33.9882L349.76 35.9512L354.381 37.9143L349.76 39.8776L354.381 41.8406L350.956 43.2954C353.365 44.8122 356.217 45.6907 359.274 45.6907C367.906 45.6907 374.904 38.6928 374.904 30.0607Z" fill="#751A46"/>
</g>
<rect x="390.401" y="13.1261" width="33.868" height="33.868" rx="16.934" stroke="white" stroke-width="2.60523"/>
<path d="M391.703 30.061C391.703 31.973 392.047 33.8046 392.675 35.4979L407.334 36.1776L421.994 35.498C422.622 33.8046 422.966 31.973 422.966 30.061C422.966 28.1489 422.622 26.3174 421.994 24.624L407.334 23.9443L392.675 24.6239C392.047 26.3174 391.703 28.1489 391.703 30.061V30.061Z" fill="#FFDA44"/>
<path d="M407.335 14.4287C400.614 14.4287 394.884 18.6707 392.676 24.6231H421.994C419.785 18.6707 414.056 14.4287 407.335 14.4287Z" fill="#D80027"/>
<path d="M421.994 35.4971H392.676C394.884 41.4494 400.614 45.6915 407.335 45.6915C414.056 45.6915 419.785 41.4494 421.994 35.4971Z" fill="#496E2D"/>
<path d="M407.334 24.623L408.683 28.7764H413.051L409.518 31.3435L410.867 35.497L407.334 32.93L403.801 35.497L405.15 31.3435L401.617 28.7764H405.984L407.334 24.623Z" fill="black"/>
<defs>
<radialGradient id="paint0_radial_1522_19052" cx="0" cy="0" r="1" gradientUnits="userSpaceOnUse" gradientTransform="translate(199.921 36) rotate(-86.9916) scale(24.0331 8.60723)">
<stop stop-color="white"/>
<stop offset="1" stop-color="#999999" stop-opacity="0.31"/>
</radialGradient>
<clipPath id="clip0_1522_19052">
<rect width="31.26" height="31.26" fill="white" transform="translate(247.527 14.4307)"/>
</clipPath>
<clipPath id="clip1_1522_19052">
<rect width="31.26" height="31.26" fill="white" transform="translate(295.586 14.4307)"/>
</clipPath>
<clipPath id="clip2_1522_19052">
<rect width="31.26" height="31.26" fill="white" transform="translate(343.645 14.4307)"/>
</clipPath>
</defs>
</svg>
