<svg width="333" height="61" viewBox="0 0 333 61" fill="none" xmlns="http://www.w3.org/2000/svg">
<rect width="315" height="60" transform="translate(0.220703 0.0605469)" fill="url(#paint0_radial_1443_20387)" fill-opacity="0.07"/>
<rect x="5.91809" y="13.1271" width="33.868" height="33.868" rx="16.934" stroke="white" stroke-width="2.60523"/>
<path d="M22.8521 45.6924C31.485 45.6924 38.4834 38.694 38.4834 30.0611C38.4834 21.4281 31.485 14.4297 22.8521 14.4297C14.2191 14.4297 7.2207 21.4281 7.2207 30.0611C7.2207 38.694 14.2191 45.6924 22.8521 45.6924Z" fill="#F0F0F0"/>
<path d="M7.2207 30.0594C7.2207 36.7804 11.4627 42.51 17.4151 44.7186V15.4004C11.4627 17.6089 7.2207 23.3386 7.2207 30.0594Z" fill="#6DA544"/>
<path d="M38.4835 30.0594C38.4835 23.3386 34.2415 17.6089 28.2891 15.4004V44.7187C34.2415 42.5099 38.4835 36.7804 38.4835 30.0594Z" fill="#6DA544"/>
<rect x="53.9786" y="13.1271" width="33.868" height="33.868" rx="16.934" stroke="white" stroke-width="2.60523"/>
<path d="M70.9126 45.6924C79.5456 45.6924 86.544 38.694 86.544 30.0611C86.544 21.4281 79.5456 14.4297 70.9126 14.4297C62.2797 14.4297 55.2812 21.4281 55.2812 30.0611C55.2812 38.694 62.2797 45.6924 70.9126 45.6924Z" fill="#F0F0F0"/>
<path d="M70.2324 30.0621H86.5434C86.5434 28.6513 86.3553 27.2845 86.0049 25.9844H70.2324V30.0621Z" fill="#D80027"/>
<path d="M70.2324 21.9059H84.2491C83.2922 20.3445 82.0688 18.9643 80.6423 17.8281H70.2324V21.9059Z" fill="#D80027"/>
<path d="M70.91 45.693C74.5888 45.693 77.9701 44.4215 80.6403 42.2949H61.1797C63.8498 44.4215 67.2312 45.693 70.91 45.693Z" fill="#D80027"/>
<path d="M57.5741 38.2164H84.2483C85.0165 36.9629 85.6123 35.5928 86.0041 34.1387H55.8184C56.2102 35.5928 56.8059 36.9629 57.5741 38.2164Z" fill="#D80027"/>
<path d="M62.522 16.8707H63.9465L62.6215 17.8334L63.1276 19.3909L61.8026 18.4283L60.4777 19.3909L60.9149 18.0454C59.7483 19.0171 58.7258 20.1557 57.8831 21.4242H58.3396L57.4961 22.037C57.3647 22.2562 57.2387 22.4789 57.1179 22.7048L57.5207 23.9444L56.7693 23.3985C56.5825 23.7942 56.4117 24.1989 56.2581 24.6119L56.7018 25.9777H58.3396L57.0146 26.9403L57.5207 28.4979L56.1957 27.5353L55.4021 28.112C55.3226 28.7505 55.2812 29.4009 55.2812 30.0611H70.9126C70.9126 21.4281 70.9126 20.4104 70.9126 14.4297C67.8247 14.4297 64.9461 15.3254 62.522 16.8707ZM63.1276 28.4979L61.8026 27.5353L60.4777 28.4979L60.9838 26.9403L59.6588 25.9777H61.2966L61.8026 24.4201L62.3087 25.9777H63.9465L62.6215 26.9403L63.1276 28.4979ZM62.6215 22.3868L63.1276 23.9444L61.8026 22.9818L60.4777 23.9444L60.9838 22.3868L59.6588 21.4242H61.2966L61.8026 19.8667L62.3087 21.4242H63.9465L62.6215 22.3868ZM68.7345 28.4979L67.4095 27.5353L66.0846 28.4979L66.5907 26.9403L65.2657 25.9777H66.9035L67.4095 24.4201L67.9156 25.9777H69.5534L68.2284 26.9403L68.7345 28.4979ZM68.2284 22.3868L68.7345 23.9444L67.4095 22.9818L66.0846 23.9444L66.5907 22.3868L65.2657 21.4242H66.9035L67.4095 19.8667L67.9156 21.4242H69.5534L68.2284 22.3868ZM68.2284 17.8334L68.7345 19.3909L67.4095 18.4283L66.0846 19.3909L66.5907 17.8334L65.2657 16.8707H66.9035L67.4095 15.3132L67.9156 16.8707H69.5534L68.2284 17.8334Z" fill="#0052B4"/>
<rect x="102.041" y="13.1271" width="33.868" height="33.868" rx="16.934" stroke="white" stroke-width="2.60523"/>
<path d="M118.975 45.6924C127.608 45.6924 134.606 38.694 134.606 30.0611C134.606 21.4281 127.608 14.4297 118.975 14.4297C110.342 14.4297 103.344 21.4281 103.344 30.0611C103.344 38.694 110.342 45.6924 118.975 45.6924Z" fill="#F0F0F0"/>
<path d="M106.574 20.543C105.346 22.1405 104.42 23.9817 103.881 25.982H112.013L106.574 20.543Z" fill="#0052B4"/>
<path d="M134.067 25.982C133.528 23.9817 132.602 22.1405 131.374 20.543L125.936 25.982H134.067Z" fill="#0052B4"/>
<path d="M103.881 34.1367C104.42 36.1369 105.346 37.9782 106.574 39.5756L112.013 34.1367H103.881Z" fill="#0052B4"/>
<path d="M128.49 17.6597C126.892 16.4318 125.051 15.506 123.051 14.9668V23.0986L128.49 17.6597Z" fill="#0052B4"/>
<path d="M109.457 42.4603C111.055 43.6882 112.896 44.6141 114.896 45.1532V37.0215L109.457 42.4603Z" fill="#0052B4"/>
<path d="M114.896 14.9668C112.896 15.506 111.054 16.4318 109.457 17.6596L114.896 23.0985V14.9668Z" fill="#0052B4"/>
<path d="M123.051 45.1532C125.051 44.6141 126.892 43.6882 128.49 42.4604L123.051 37.0215V45.1532Z" fill="#0052B4"/>
<path d="M125.936 34.1367L131.374 39.5757C132.602 37.9783 133.528 36.1369 134.067 34.1367H125.936Z" fill="#0052B4"/>
<path d="M134.474 28.0222H121.014H121.014V14.562C120.347 14.4751 119.666 14.4297 118.975 14.4297C118.284 14.4297 117.604 14.4751 116.936 14.562V28.0221V28.0221H103.476C103.389 28.6896 103.344 29.37 103.344 30.0611C103.344 30.7522 103.389 31.4325 103.476 32.0999H116.936H116.936V45.5601C117.604 45.647 118.284 45.6924 118.975 45.6924C119.666 45.6924 120.347 45.6471 121.014 45.5601V32.1V32.1H134.474C134.561 31.4325 134.606 30.7522 134.606 30.0611C134.606 29.37 134.561 28.6896 134.474 28.0222Z" fill="#D80027"/>
<path d="M123.053 34.1387L130.028 41.114C130.349 40.7933 130.655 40.458 130.947 40.1105L124.975 34.1387H123.053V34.1387Z" fill="#D80027"/>
<path d="M114.897 34.1387H114.897L107.922 41.1139C108.243 41.4347 108.578 41.7407 108.925 42.0327L114.897 36.0608V34.1387Z" fill="#D80027"/>
<path d="M114.898 25.9832V25.9831L107.923 19.0078C107.602 19.3285 107.296 19.6638 107.004 20.0113L112.976 25.9832H114.898V25.9832Z" fill="#D80027"/>
<path d="M123.053 25.984L130.028 19.0086C129.707 18.6878 129.372 18.3818 129.025 18.0898L123.053 24.0617V25.984Z" fill="#D80027"/>
<rect x="150.102" y="13.1271" width="33.868" height="33.868" rx="16.934" stroke="white" stroke-width="2.60523"/>
<path d="M151.404 30.0604C151.404 32.7684 152.093 35.3155 153.305 37.5363L167.036 38.8956L180.766 37.5363C181.978 35.3155 182.667 32.7684 182.667 30.0604L167.036 28.7012L151.404 30.0604Z" fill="#FFDA44"/>
<path d="M180.766 22.5852C178.115 17.7263 172.961 14.4297 167.036 14.4297C161.111 14.4297 155.956 17.7263 153.305 22.5852C152.093 24.806 151.404 27.353 151.404 30.0611H182.667C182.667 27.353 181.978 24.806 180.766 22.5852Z" fill="#338AF3"/>
<path d="M167.035 45.6926C172.96 45.6926 178.115 42.396 180.766 37.5371H153.305C155.956 42.396 161.11 45.6926 167.035 45.6926Z" fill="#496E2D"/>
<path d="M169.074 23.5771L170.983 24.4751L169.967 26.324L172.04 25.9275L172.302 28.0216L173.746 26.4814L175.19 28.0216L175.453 25.9275L177.526 26.3239L176.509 24.4751L178.418 23.5771L176.509 22.6792L177.526 20.8303L175.453 21.2269L175.19 19.1328L173.746 20.673L172.302 19.1328L172.04 21.2269L169.967 20.8303L170.983 22.6793L169.074 23.5771Z" fill="#FFDA44"/>
<rect x="198.164" y="13.1271" width="33.868" height="33.868" rx="16.934" stroke="white" stroke-width="2.60523"/>
<path d="M199.467 30.0619C199.467 31.974 199.811 33.8055 200.439 35.4989L215.098 36.1786L229.757 35.499C230.386 33.8055 230.73 31.974 230.73 30.0619C230.73 28.1499 230.386 26.3183 229.757 24.625L215.098 23.9453L200.439 24.6249C199.811 26.3183 199.467 28.1499 199.467 30.0619V30.0619Z" fill="#FFDA44"/>
<path d="M215.099 14.4297C208.378 14.4297 202.648 18.6717 200.439 24.6241H229.758C227.549 18.6717 221.82 14.4297 215.099 14.4297Z" fill="#D80027"/>
<path d="M229.758 35.498H200.439C202.648 41.4504 208.378 45.6924 215.099 45.6924C221.82 45.6924 227.549 41.4504 229.758 35.498Z" fill="#496E2D"/>
<path d="M215.098 24.623L216.447 28.7764H220.814L217.281 31.3435L218.631 35.497L215.098 32.93L211.564 35.497L212.914 31.3435L209.381 28.7764H213.748L215.098 24.623Z" fill="black"/>
<rect x="246.225" y="13.1271" width="33.868" height="33.868" rx="16.934" stroke="white" stroke-width="2.60523"/>
<path d="M263.159 45.6924C271.792 45.6924 278.79 38.694 278.79 30.0611C278.79 21.4281 271.792 14.4297 263.159 14.4297C254.526 14.4297 247.527 21.4281 247.527 30.0611C247.527 38.694 254.526 45.6924 263.159 45.6924Z" fill="#D80027"/>
<path d="M256.08 23.9434L257.43 28.0954H261.796L258.266 30.6661L259.616 34.8182L256.08 32.2536L252.545 34.8182L253.901 30.6661L250.365 28.0954H254.731L256.08 23.9434Z" fill="#FFDA44"/>
<path d="M266.058 38.6397L265.027 37.3696L263.5 37.9619L264.385 36.5881L263.354 35.3119L264.935 35.7332L265.826 34.3594L265.912 35.9958L267.499 36.4171L265.967 37.0033L266.058 38.6397Z" fill="#FFDA44"/>
<path d="M268.108 34.9155L268.597 33.3524L267.26 32.4059L268.896 32.3815L269.379 30.8184L269.91 32.3693L271.546 32.351L270.233 33.3279L270.759 34.8789L269.421 33.9324L268.108 34.9155Z" fill="#FFDA44"/>
<path d="M270.876 25.902L270.155 27.3736L271.328 28.5154L269.71 28.2834L268.989 29.7488L268.708 28.1368L267.084 27.9048L268.537 27.1415L268.256 25.5234L269.429 26.6653L270.876 25.902Z" fill="#FFDA44"/>
<path d="M266.1 21.4453L265.978 23.0756L267.498 23.6923L265.905 24.0831L265.789 25.7195L264.928 24.3273L263.334 24.7181L264.39 23.4664L263.523 22.0803L265.044 22.697L266.1 21.4453Z" fill="#FFDA44"/>
<g clip-path="url(#clip0_1443_20387)">
<path d="M311.22 45.6897C319.852 45.6897 326.85 38.6919 326.85 30.0597C326.85 21.4275 319.852 14.4297 311.22 14.4297C302.588 14.4297 295.59 21.4275 295.59 30.0597C295.59 38.6919 302.588 45.6897 311.22 45.6897Z" fill="#F0F0F0"/>
<path d="M326.85 30.0596C326.85 23.8629 323.244 18.5086 318.016 15.9805V44.1386C323.244 41.6105 326.85 36.2562 326.85 30.0596Z" fill="#D80027"/>
<path d="M295.59 30.0596C295.59 36.2562 299.196 41.6105 304.424 44.1386V15.9805C299.196 18.5086 295.59 23.8629 295.59 30.0596Z" fill="#D80027"/>
<path d="M313.938 32.0984L316.656 30.7392L315.297 30.0597V28.7005L312.579 30.0597L313.938 27.3414H312.579L311.22 25.3027L309.861 27.3414H308.501L309.861 30.0597L307.142 28.7005V30.0597L305.783 30.7392L308.501 32.0984L307.822 33.4575H310.54V35.4962H311.899V33.4575H314.618L313.938 32.0984Z" fill="#D80027"/>
</g>
<defs>
<radialGradient id="paint0_radial_1443_20387" cx="0" cy="0" r="1" gradientUnits="userSpaceOnUse" gradientTransform="translate(133.14 36) rotate(-87.9955) scale(24.0147 5.73649)">
<stop stop-color="white"/>
<stop offset="1" stop-color="#999999" stop-opacity="0.31"/>
</radialGradient>
<clipPath id="clip0_1443_20387">
<rect width="31.26" height="31.26" fill="white" transform="translate(295.59 14.4297)"/>
</clipPath>
</defs>
</svg>
