<svg width="293" height="79" viewBox="0 0 293 79" fill="none" xmlns="http://www.w3.org/2000/svg">
<rect width="323.819" height="78.1633" transform="translate(-31)" fill="url(#paint0_radial_1309_29160)" fill-opacity="0.07"/>
<rect x="1.10227" y="20.9363" width="36.2901" height="36.2901" rx="18.145" stroke="white" stroke-width="2.79155"/>
<path d="M19.2473 55.8306C28.4977 55.8306 35.9966 48.3317 35.9966 39.0813C35.9966 29.8309 28.4977 22.332 19.2473 22.332C9.99695 22.332 2.49805 29.8309 2.49805 39.0813C2.49805 48.3317 9.99695 55.8306 19.2473 55.8306Z" fill="#F0F0F0"/>
<path d="M2.49805 39.0814C2.49805 46.2831 7.04338 52.4224 13.4215 54.789V23.374C7.04338 25.7405 2.49805 31.8799 2.49805 39.0814Z" fill="#6DA544"/>
<path d="M35.9977 39.0814C35.9977 31.8799 31.4524 25.7405 25.0742 23.374V54.789C31.4524 52.4224 35.9977 46.2831 35.9977 39.0814Z" fill="#6DA544"/>
<rect x="45.7683" y="20.9363" width="36.2901" height="36.2901" rx="18.145" stroke="white" stroke-width="2.79155"/>
<path d="M63.9133 55.8306C73.1637 55.8306 80.6626 48.3317 80.6626 39.0813C80.6626 29.8309 73.1637 22.332 63.9133 22.332C54.663 22.332 47.1641 29.8309 47.1641 39.0813C47.1641 48.3317 54.663 55.8306 63.9133 55.8306Z" fill="#F0F0F0"/>
<path d="M63.1855 39.0823H80.663C80.663 37.5705 80.4615 36.106 80.086 34.7129H63.1855V39.0823Z" fill="#D80027"/>
<path d="M63.1855 30.343H78.2047C77.1794 28.6699 75.8684 27.1911 74.3399 25.9736H63.1855V30.343Z" fill="#D80027"/>
<path d="M63.9144 55.8316C67.8563 55.8316 71.4795 54.4691 74.3406 52.1904H53.4883C56.3494 54.4691 59.9725 55.8316 63.9144 55.8316Z" fill="#D80027"/>
<path d="M49.6235 47.8206H78.2054C79.0285 46.4774 79.6669 45.0092 80.0867 43.4512H47.7422C48.162 45.0092 48.8004 46.4774 49.6235 47.8206Z" fill="#D80027"/>
<path d="M54.9226 24.9477H56.449L55.0292 25.9791L55.5715 27.6481L54.1518 26.6166L52.7321 27.6481L53.2006 26.2063C51.9506 27.2476 50.8549 28.4675 49.952 29.8268H50.4411L49.5374 30.4834C49.3966 30.7182 49.2615 30.9569 49.1321 31.199L49.5637 32.5272L48.7585 31.9423C48.5584 32.3663 48.3753 32.7999 48.2108 33.2425L48.6862 34.7059H50.4411L49.0213 35.7374L49.5637 37.4064L48.144 36.3749L47.2935 36.9928C47.2084 37.677 47.1641 38.374 47.1641 39.0813H63.9133C63.9133 29.831 63.9133 28.7405 63.9133 22.332C60.6046 22.332 57.5202 23.2918 54.9226 24.9477ZM55.5715 37.4064L54.1518 36.3749L52.7321 37.4064L53.2745 35.7374L51.8547 34.7059H53.6096L54.1518 33.037L54.6941 34.7059H56.449L55.0292 35.7374L55.5715 37.4064ZM55.0292 30.8583L55.5715 32.5272L54.1518 31.4958L52.7321 32.5272L53.2745 30.8583L51.8547 29.8268H53.6096L54.1518 28.1578L54.6941 29.8268H56.449L55.0292 30.8583ZM61.5794 37.4064L60.1597 36.3749L58.74 37.4064L59.2824 35.7374L57.8626 34.7059H59.6175L60.1597 33.037L60.702 34.7059H62.4569L61.0371 35.7374L61.5794 37.4064ZM61.0371 30.8583L61.5794 32.5272L60.1597 31.4958L58.74 32.5272L59.2824 30.8583L57.8626 29.8268H59.6175L60.1597 28.1578L60.702 29.8268H62.4569L61.0371 30.8583ZM61.0371 25.9791L61.5794 27.6481L60.1597 26.6166L58.74 27.6481L59.2824 25.9791L57.8626 24.9477H59.6175L60.1597 23.2787L60.702 24.9477H62.4569L61.0371 25.9791Z" fill="#0052B4"/>
<rect x="90.4324" y="20.9363" width="36.2901" height="36.2901" rx="18.145" stroke="white" stroke-width="2.79155"/>
<path d="M108.577 55.8306C117.828 55.8306 125.327 48.3317 125.327 39.0813C125.327 29.8309 117.828 22.332 108.577 22.332C99.327 22.332 91.8281 29.8309 91.8281 39.0813C91.8281 48.3317 99.327 55.8306 108.577 55.8306Z" fill="#F0F0F0"/>
<path d="M95.2916 28.8838C93.976 30.5956 92.9839 32.5685 92.4062 34.7118H101.12L95.2916 28.8838Z" fill="#0052B4"/>
<path d="M124.75 34.7118C124.173 32.5685 123.181 30.5956 121.865 28.8838L116.037 34.7118H124.75Z" fill="#0052B4"/>
<path d="M92.4062 43.4502C92.984 45.5934 93.976 47.5664 95.2916 49.2781L101.119 43.4502H92.4062Z" fill="#0052B4"/>
<path d="M118.775 25.7937C117.063 24.478 115.091 23.4859 112.947 22.9082V31.6216L118.775 25.7937Z" fill="#0052B4"/>
<path d="M98.3809 52.3669C100.093 53.6826 102.066 54.6746 104.209 55.2523V46.5391L98.3809 52.3669Z" fill="#0052B4"/>
<path d="M104.209 22.9082C102.066 23.4859 100.093 24.478 98.3809 25.7936L104.209 31.6215V22.9082Z" fill="#0052B4"/>
<path d="M112.947 55.2523C115.091 54.6746 117.063 53.6826 118.775 52.367L112.947 46.5391V55.2523Z" fill="#0052B4"/>
<path d="M116.037 43.4502L121.865 49.2782C123.181 47.5665 124.173 45.5934 124.75 43.4502H116.037Z" fill="#0052B4"/>
<path d="M125.185 36.8966H110.762H110.762V22.4738C110.047 22.3807 109.318 22.332 108.577 22.332C107.837 22.332 107.108 22.3807 106.393 22.4738V36.8965V36.8966H91.9699C91.8768 37.6118 91.8281 38.3409 91.8281 39.0813C91.8281 39.8219 91.8768 40.5509 91.9699 41.266H106.393H106.393V55.6888C107.108 55.7819 107.837 55.8306 108.577 55.8306C109.318 55.8306 110.047 55.782 110.762 55.6888V41.2661V41.266H125.185C125.278 40.5509 125.327 39.8219 125.327 39.0813C125.327 38.3409 125.278 37.6117 125.185 36.8966Z" fill="#D80027"/>
<path d="M112.947 43.4512L120.421 50.9253C120.765 50.5817 121.093 50.2225 121.406 49.85L115.007 43.4512H112.947V43.4512Z" fill="#D80027"/>
<path d="M104.209 43.4512H104.208L96.7344 50.9252C97.078 51.269 97.4373 51.5969 97.8097 51.9097L104.209 45.5107V43.4512Z" fill="#D80027"/>
<path d="M104.209 34.7126V34.7124L96.7345 27.2383C96.3908 27.5819 96.0629 27.9412 95.75 28.3136L102.149 34.7125H104.209V34.7126Z" fill="#D80027"/>
<path d="M112.947 34.7116L120.421 27.2374C120.078 26.8937 119.719 26.5657 119.346 26.2529L112.947 32.6519V34.7116Z" fill="#D80027"/>
<rect x="135.096" y="20.9363" width="36.2901" height="36.2901" rx="18.145" stroke="white" stroke-width="2.79155"/>
<path d="M136.492 39.0815C136.492 41.9831 137.23 44.7124 138.529 47.092L153.241 48.5485L167.954 47.092C169.253 44.7124 169.991 41.9831 169.991 39.0815L153.241 37.625L136.492 39.0815Z" fill="#FFDA44"/>
<path d="M167.954 31.0708C165.113 25.8644 159.59 22.332 153.241 22.332C146.893 22.332 141.369 25.8644 138.529 31.0708C137.23 33.4504 136.492 36.1796 136.492 39.0813H169.991C169.991 36.1796 169.253 33.4504 167.954 31.0708Z" fill="#338AF3"/>
<path d="M153.242 55.8305C159.591 55.8305 165.114 52.2982 167.955 47.0918H138.529C141.37 52.2982 146.893 55.8305 153.242 55.8305Z" fill="#496E2D"/>
<path d="M155.426 32.1342L157.471 33.0965L156.382 35.0776L158.603 34.6527L158.885 36.8965L160.432 35.2462L161.979 36.8965L162.261 34.6527L164.482 35.0775L163.393 33.0964L165.438 32.1342L163.392 31.1721L164.482 29.191L162.261 29.6159L161.979 27.3721L160.432 29.0224L158.885 27.3721L158.603 29.6159L156.382 29.191L157.471 31.1722L155.426 32.1342Z" fill="#FFDA44"/>
<rect x="179.762" y="20.9363" width="36.2901" height="36.2901" rx="18.145" stroke="white" stroke-width="2.79155"/>
<path d="M181.158 39.0814C181.158 41.1302 181.527 43.0927 182.2 44.9072L197.907 45.6355L213.615 44.9073C214.288 43.0927 214.657 41.1302 214.657 39.0814C214.657 37.0326 214.288 35.0701 213.615 33.2556L197.907 32.5273L182.2 33.2555C181.527 35.0701 181.158 37.0326 181.158 39.0814V39.0814Z" fill="#FFDA44"/>
<path d="M197.907 22.332C190.705 22.332 184.566 26.8774 182.199 33.2555H213.614C211.248 26.8774 205.108 22.332 197.907 22.332Z" fill="#D80027"/>
<path d="M213.614 44.9072H182.199C184.566 51.2853 190.705 55.8307 197.907 55.8307C205.108 55.8307 211.248 51.2853 213.614 44.9072Z" fill="#496E2D"/>
<path d="M197.907 33.2559L199.353 37.7062H204.033L200.247 40.4569L201.693 44.9075L197.907 42.1569L194.121 44.9075L195.567 40.4569L191.781 37.7062H196.461L197.907 33.2559Z" fill="black"/>
<rect x="224.426" y="20.9363" width="36.2901" height="36.2901" rx="18.145" stroke="white" stroke-width="2.79155"/>
<path d="M242.572 55.8306C251.822 55.8306 259.321 48.3317 259.321 39.0813C259.321 29.8309 251.822 22.332 242.572 22.332C233.321 22.332 225.822 29.8309 225.822 39.0813C225.822 48.3317 233.321 55.8306 242.572 55.8306Z" fill="#D80027"/>
<path d="M234.987 32.5254L236.433 36.9744H241.111L237.33 39.7289L238.775 44.1779L234.987 41.43L231.199 44.1779L232.651 39.7289L228.863 36.9744H233.541L234.987 32.5254Z" fill="#FFDA44"/>
<path d="M245.678 48.2739L244.572 46.913L242.936 47.5477L243.885 46.0756L242.779 44.7082L244.474 45.1596L245.429 43.6875L245.521 45.4409L247.222 45.8924L245.58 46.5205L245.678 48.2739Z" fill="#FFDA44"/>
<path d="M247.876 44.2827L248.4 42.6078L246.967 41.5937L248.72 41.5675L249.237 39.8926L249.806 41.5544L251.56 41.5348L250.153 42.5816L250.716 44.2435L249.283 43.2293L247.876 44.2827Z" fill="#FFDA44"/>
<path d="M250.84 34.6254L250.068 36.2022L251.325 37.4256L249.591 37.177L248.819 38.7473L248.518 37.02L246.777 36.7714L248.335 35.9535L248.034 34.2197L249.29 35.4432L250.84 34.6254Z" fill="#FFDA44"/>
<path d="M245.724 29.8496L245.593 31.5965L247.222 32.2573L245.514 32.6761L245.39 34.4295L244.467 32.9378L242.76 33.3565L243.892 32.0152L242.963 30.53L244.592 31.1909L245.724 29.8496Z" fill="#FFDA44"/>
<defs>
<radialGradient id="paint0_radial_1309_29160" cx="0" cy="0" r="1" gradientUnits="userSpaceOnUse" gradientTransform="translate(136.868 46.898) rotate(-88.4179) scale(31.2772 5.89846)">
<stop stop-color="white"/>
<stop offset="1" stop-color="#999999" stop-opacity="0.31"/>
</radialGradient>
</defs>
</svg>
