<svg width="510" height="61" viewBox="0 0 510 61" fill="none" xmlns="http://www.w3.org/2000/svg">
<rect width="473" height="60" transform="translate(0.220703 0.750977)" fill="url(#paint0_radial_1522_19052)" fill-opacity="0.07"/>
<rect x="5.91809" y="13.8165" width="33.868" height="33.868" rx="16.934" stroke="white" stroke-width="2.60523"/>
<path d="M22.8521 46.3819C31.485 46.3819 38.4834 39.3835 38.4834 30.7505C38.4834 22.1175 31.485 15.1191 22.8521 15.1191C14.2191 15.1191 7.2207 22.1175 7.2207 30.7505C7.2207 39.3835 14.2191 46.3819 22.8521 46.3819Z" fill="#F0F0F0"/>
<path d="M7.2207 30.7489C7.2207 37.4699 11.4627 43.1994 17.4151 45.4081V16.0898C11.4627 18.2984 7.2207 24.028 7.2207 30.7489Z" fill="#6DA544"/>
<path d="M38.4835 30.7489C38.4835 24.028 34.2415 18.2984 28.2891 16.0898V45.4081C34.2415 43.1994 38.4835 37.4699 38.4835 30.7489Z" fill="#6DA544"/>
<rect x="45.1818" y="13.8165" width="33.868" height="33.868" rx="16.934" stroke="white" stroke-width="2.60523"/>
<path d="M62.1157 46.3819C70.7487 46.3819 77.7471 39.3835 77.7471 30.7505C77.7471 22.1175 70.7487 15.1191 62.1157 15.1191C53.4828 15.1191 46.4844 22.1175 46.4844 30.7505C46.4844 39.3835 53.4828 46.3819 62.1157 46.3819Z" fill="#F0F0F0"/>
<path d="M61.4355 30.7496H77.7465C77.7465 29.3388 77.5585 27.972 77.208 26.6719H61.4355V30.7496Z" fill="#D80027"/>
<path d="M61.4355 22.5944H75.4522C74.4954 21.0329 73.2719 19.6528 71.8454 18.5166H61.4355V22.5944Z" fill="#D80027"/>
<path d="M62.1131 46.3815C65.7919 46.3815 69.1732 45.11 71.8434 42.9834H52.3828C55.053 45.11 58.4343 46.3815 62.1131 46.3815Z" fill="#D80027"/>
<path d="M48.7773 38.9059H75.4515C76.2197 37.6524 76.8154 36.2822 77.2072 34.8281H47.0215C47.4133 36.2822 48.0091 37.6524 48.7773 38.9059Z" fill="#D80027"/>
<path d="M53.7251 17.5602H55.1496L53.8246 18.5228L54.3307 20.0804L53.0058 19.1178L51.6808 20.0804L52.118 18.7348C50.9514 19.7066 49.9289 20.8451 49.0863 22.1137H49.5427L48.6993 22.7264C48.5679 22.9456 48.4418 23.1683 48.3211 23.3943L48.7238 24.6339L47.9724 24.0879C47.7856 24.4837 47.6148 24.8883 47.4612 25.3014L47.9049 26.6672H49.5427L48.2177 27.6298L48.7238 29.1874L47.3989 28.2248L46.6052 28.8014C46.5258 29.44 46.4844 30.0904 46.4844 30.7505H62.1157C62.1157 22.1176 62.1157 21.0998 62.1157 15.1191C59.0278 15.1191 56.1493 16.0149 53.7251 17.5602ZM54.3307 29.1874L53.0058 28.2248L51.6808 29.1874L52.187 27.6298L50.862 26.6672H52.4997L53.0058 25.1096L53.5118 26.6672H55.1496L53.8246 27.6298L54.3307 29.1874ZM53.8246 23.0763L54.3307 24.6339L53.0058 23.6713L51.6808 24.6339L52.187 23.0763L50.862 22.1137H52.4997L53.0058 20.5561L53.5118 22.1137H55.1496L53.8246 23.0763ZM59.9376 29.1874L58.6127 28.2248L57.2877 29.1874L57.7939 27.6298L56.4689 26.6672H58.1066L58.6127 25.1096L59.1187 26.6672H60.7565L59.4315 27.6298L59.9376 29.1874ZM59.4315 23.0763L59.9376 24.6339L58.6127 23.6713L57.2877 24.6339L57.7939 23.0763L56.4689 22.1137H58.1066L58.6127 20.5561L59.1187 22.1137H60.7565L59.4315 23.0763ZM59.4315 18.5228L59.9376 20.0804L58.6127 19.1178L57.2877 20.0804L57.7939 18.5228L56.4689 17.5602H58.1066L58.6127 16.0026L59.1187 17.5602H60.7565L59.4315 18.5228Z" fill="#0052B4"/>
<rect x="84.4435" y="13.8165" width="33.868" height="33.868" rx="16.934" stroke="white" stroke-width="2.60523"/>
<path d="M101.377 46.3819C110.01 46.3819 117.009 39.3835 117.009 30.7505C117.009 22.1175 110.01 15.1191 101.377 15.1191C92.7445 15.1191 85.7461 22.1175 85.7461 30.7505C85.7461 39.3835 92.7445 46.3819 101.377 46.3819Z" fill="#F0F0F0"/>
<path d="M88.976 21.2334C87.7482 22.8309 86.8223 24.6722 86.2832 26.6724H94.4151L88.976 21.2334Z" fill="#0052B4"/>
<path d="M116.47 26.6724C115.931 24.6722 115.005 22.8309 113.777 21.2334L108.338 26.6724H116.47Z" fill="#0052B4"/>
<path d="M86.2832 34.8281C86.8224 36.8283 87.7482 38.6696 88.976 40.2671L94.4149 34.8281H86.2832Z" fill="#0052B4"/>
<path d="M110.892 18.3501C109.295 17.1222 107.453 16.1964 105.453 15.6572V23.789L110.892 18.3501Z" fill="#0052B4"/>
<path d="M91.8594 43.1498C93.4569 44.3777 95.2982 45.3035 97.2984 45.8427V37.7109L91.8594 43.1498Z" fill="#0052B4"/>
<path d="M97.2983 15.6572C95.2981 16.1964 93.4568 17.1222 91.8594 18.35L97.2983 23.789V15.6572Z" fill="#0052B4"/>
<path d="M105.453 45.8427C107.453 45.3035 109.295 44.3777 110.892 43.1499L105.453 37.7109V45.8427Z" fill="#0052B4"/>
<path d="M108.338 34.8281L113.777 40.2671C115.005 38.6697 115.931 36.8283 116.47 34.8281H108.338Z" fill="#0052B4"/>
<path d="M116.877 28.7117H103.416H103.416V15.2515C102.749 15.1646 102.068 15.1191 101.377 15.1191C100.686 15.1191 100.006 15.1646 99.3386 15.2515V28.7115V28.7116H85.8784C85.7915 29.379 85.7461 30.0595 85.7461 30.7505C85.7461 31.4417 85.7915 32.122 85.8784 32.7894H99.3385H99.3385V46.2496C100.006 46.3365 100.686 46.3819 101.377 46.3819C102.068 46.3819 102.749 46.3365 103.416 46.2496V32.7895V32.7894H116.877C116.963 32.122 117.009 31.4417 117.009 30.7505C117.009 30.0595 116.963 29.379 116.877 28.7117Z" fill="#D80027"/>
<path d="M105.455 34.8282L112.43 41.8034C112.751 41.4828 113.057 41.1475 113.349 40.7999L107.377 34.8281H105.455V34.8282Z" fill="#D80027"/>
<path d="M97.2995 34.8281H97.2994L90.3242 41.8033C90.6449 42.1241 90.9802 42.4302 91.3277 42.7221L97.2995 36.7502V34.8281Z" fill="#D80027"/>
<path d="M97.3003 26.6727V26.6726L90.3251 19.6973C90.0043 20.018 89.6982 20.3532 89.4062 20.7008L95.3781 26.6726H97.3003V26.6727Z" fill="#D80027"/>
<path d="M105.455 26.6725L112.43 19.6971C112.11 19.3763 111.774 19.0702 111.427 18.7783L105.455 24.7502V26.6725Z" fill="#D80027"/>
<rect x="123.707" y="13.8165" width="33.868" height="33.868" rx="16.934" stroke="white" stroke-width="2.60523"/>
<path d="M125.01 30.7499C125.01 33.4579 125.699 36.005 126.91 38.2258L140.641 39.585L154.372 38.2258C155.584 36.005 156.273 33.4579 156.273 30.7499L140.641 29.3906L125.01 30.7499Z" fill="#FFDA44"/>
<path d="M154.372 23.2746C151.721 18.4157 146.566 15.1191 140.641 15.1191C134.716 15.1191 129.562 18.4157 126.91 23.2746C125.699 25.4954 125.01 28.0425 125.01 30.7505H156.273C156.273 28.0425 155.584 25.4954 154.372 23.2746Z" fill="#338AF3"/>
<path d="M140.641 46.382C146.566 46.382 151.72 43.0855 154.372 38.2266H126.91C129.561 43.0855 134.716 46.382 140.641 46.382Z" fill="#496E2D"/>
<path d="M142.68 24.2676L144.589 25.1656L143.572 27.0145L145.645 26.6179L145.908 28.712L147.352 27.1718L148.796 28.712L149.058 26.6179L151.131 27.0143L150.115 25.1655L152.024 24.2676L150.115 23.3697L151.131 21.5208L149.058 21.9173L148.796 19.8232L147.352 21.3634L145.908 19.8232L145.645 21.9173L143.572 21.5208L144.589 23.3697L142.68 24.2676Z" fill="#FFDA44"/>
<rect x="162.969" y="13.8165" width="33.868" height="33.868" rx="16.934" stroke="white" stroke-width="2.60523"/>
<path d="M179.903 46.3819C188.536 46.3819 195.534 39.3835 195.534 30.7505C195.534 22.1175 188.536 15.1191 179.903 15.1191C171.27 15.1191 164.271 22.1175 164.271 30.7505C164.271 39.3835 171.27 46.3819 179.903 46.3819Z" fill="#F0F0F0"/>
<path d="M179.903 15.1191C173.705 15.1191 168.351 18.7257 165.822 23.9543H193.983C191.455 18.7257 186.1 15.1191 179.903 15.1191Z" fill="black"/>
<path d="M179.903 46.382C173.705 46.382 168.351 42.7755 165.822 37.5469H193.983C191.455 42.7755 186.1 46.382 179.903 46.382Z" fill="#496E2D"/>
<path d="M194.796 25.9932H165.01C164.531 27.4933 164.271 29.0916 164.271 30.7505C164.271 32.4095 164.531 34.0077 165.01 35.5079H194.796C195.275 34.0077 195.534 32.4095 195.534 30.7505C195.534 29.0916 195.275 27.4933 194.796 25.9932Z" fill="#A2001D"/>
<path d="M184.77 22.3427L182.919 21.4883L179.903 28.3179L176.886 21.4883L175.035 22.3427L178.78 30.7506L175.035 39.1585L176.886 40.0129L179.903 33.1833L182.919 40.0129L184.77 39.1585L181.025 30.7506L184.77 22.3427Z" fill="#F0F0F0"/>
<path d="M181.159 23.1485C180.443 22.3659 179.902 21.916 179.902 21.916C179.902 21.916 179.361 22.3658 178.645 23.1485V38.3537C179.361 39.1364 179.902 39.5863 179.902 39.5863C179.902 39.5863 180.443 39.1365 181.159 38.3537V23.1485Z" fill="#F0F0F0"/>
<path d="M176.504 26.0643V35.4377C177.261 36.7795 178.188 37.8793 178.883 38.6085V22.8936C178.188 23.6227 177.261 24.7225 176.504 26.0643Z" fill="#A2001D"/>
<path d="M183.301 26.0643C182.543 24.7225 181.616 23.6227 180.922 22.8936V38.6085C181.616 37.8793 182.543 36.7795 183.301 35.4377V26.0643Z" fill="#A2001D"/>
<path d="M183.301 26.0635V35.4369C184.067 34.0784 184.66 32.472 184.66 30.7503C184.66 29.0286 184.067 27.4221 183.301 26.0635Z" fill="black"/>
<path d="M176.504 26.0635V35.4369C175.737 34.0784 175.145 32.472 175.145 30.7503C175.145 29.0286 175.737 27.4221 176.504 26.0635Z" fill="black"/>
<rect x="202.233" y="13.8165" width="33.868" height="33.868" rx="16.934" stroke="white" stroke-width="2.60523"/>
<path d="M203.535 30.7504C203.535 32.6625 203.879 34.494 204.507 36.1874L219.167 36.867L233.826 36.1874C234.454 34.494 234.798 32.6625 234.798 30.7504C234.798 28.8384 234.454 27.0068 233.826 25.3134L219.167 24.6338L204.507 25.3134C203.879 27.0068 203.535 28.8384 203.535 30.7504V30.7504Z" fill="#FFDA44"/>
<path d="M219.167 15.1191C212.446 15.1191 206.716 19.3611 204.508 25.3135H233.826C231.617 19.3611 225.888 15.1191 219.167 15.1191V15.1191Z" fill="#D80027"/>
<path d="M233.826 36.1875H204.508C206.716 42.1399 212.446 46.3819 219.167 46.3819C225.888 46.3819 231.617 42.1399 233.826 36.1875Z" fill="#496E2D"/>
<path d="M219.166 25.3135L220.515 29.4668H224.883L221.35 32.0339L222.699 36.1874L219.166 33.6205L215.633 36.1874L216.982 32.0339L213.449 29.4668H217.816L219.166 25.3135Z" fill="black"/>
<rect x="241.494" y="13.8165" width="33.868" height="33.868" rx="16.934" stroke="white" stroke-width="2.60523"/>
<path d="M274.06 30.7505C274.06 39.3834 267.061 46.3819 258.428 46.3819C249.795 46.3819 242.797 39.3834 242.797 30.7505C242.797 30.7542 258.428 15.1209 258.428 15.1191C267.061 15.1191 274.06 22.1176 274.06 30.7505Z" fill="#0052B4"/>
<path d="M258.387 30.7508H258.429C258.429 30.7366 258.429 30.7231 258.429 30.709C258.415 30.723 258.401 30.7369 258.387 30.7508Z" fill="#F0F0F0"/>
<path d="M258.428 23.2746C258.428 20.5242 258.428 18.7219 258.428 15.1191H258.426C249.794 15.1205 242.797 22.1183 242.797 30.7505H250.952V26.158L255.545 30.7505H258.386C258.4 30.7365 258.414 30.7226 258.428 30.7086C258.428 29.6555 258.428 28.7159 258.428 27.8671L253.836 23.2746H258.428Z" fill="#F0F0F0"/>
<path d="M250.705 17.1582C248.26 18.5503 246.228 20.5828 244.836 23.0275V30.7507H248.914V21.236V21.236H258.428C258.428 19.9499 258.428 18.7246 258.428 17.1582H250.705Z" fill="#D80027"/>
<path d="M258.429 28.828L252.875 23.2744H250.953C250.953 23.2744 250.953 23.2744 250.953 23.2744L258.429 30.7502H258.429C258.429 30.7502 258.429 29.4249 258.429 28.828Z" fill="#D80027"/>
<path d="M252.224 33.4688L253.082 35.2626L255.019 34.8148L254.151 36.604L255.709 37.8394L253.77 38.2766L253.775 40.265L252.224 39.021L250.673 40.265L250.678 38.2766L248.738 37.8394L250.296 36.604L249.429 34.8148L251.366 35.2626L252.224 33.4688Z" fill="#F0F0F0"/>
<path d="M266.2 36.8662L266.629 37.7631L267.597 37.5392L267.164 38.4338L267.943 39.0515L266.973 39.2701L266.975 40.2643L266.2 39.6423L265.424 40.2643L265.427 39.2701L264.457 39.0515L265.236 38.4338L264.802 37.5392L265.771 37.7631L266.2 36.8662Z" fill="#F0F0F0"/>
<path d="M262.21 27.3516L262.638 28.2485L263.607 28.0246L263.173 28.9192L263.952 29.5369L262.982 29.7555L262.985 30.7497L262.21 30.1277L261.434 30.7497L261.437 29.7555L260.467 29.5369L261.246 28.9192L260.812 28.0246L261.781 28.2485L262.21 27.3516Z" fill="#F0F0F0"/>
<path d="M266.2 21.915L266.629 22.812L267.597 22.5881L267.164 23.4827L267.942 24.1004L266.973 24.319L266.975 25.3132L266.2 24.6912L265.424 25.3132L265.427 24.319L264.457 24.1004L265.236 23.4827L264.802 22.5881L265.771 22.812L266.2 21.915Z" fill="#F0F0F0"/>
<path d="M269.686 25.9932L270.115 26.8901L271.084 26.6662L270.65 27.5608L271.429 28.1785L270.459 28.3972L270.462 29.3913L269.686 28.7693L268.911 29.3913L268.913 28.3972L267.943 28.1785L268.722 27.5608L268.289 26.6662L269.257 26.8901L269.686 25.9932Z" fill="#F0F0F0"/>
<path d="M267.193 30.751L267.53 31.7894H268.622L267.739 32.4312L268.076 33.4695L267.193 32.8278L266.31 33.4695L266.647 32.4312L265.764 31.7894H266.855L267.193 30.751Z" fill="#F0F0F0"/>
<rect x="280.758" y="13.8165" width="33.868" height="33.868" rx="16.934" stroke="white" stroke-width="2.60523"/>
<path d="M297.692 46.3819C306.325 46.3819 313.323 39.3835 313.323 30.7505C313.323 22.1175 306.325 15.1191 297.692 15.1191C289.059 15.1191 282.061 22.1175 282.061 30.7505C282.061 39.3835 289.059 46.3819 297.692 46.3819Z" fill="#F0F0F0"/>
<path d="M286.639 41.8034C280.534 35.699 280.534 25.8017 286.639 19.6973C286.638 19.6979 295.653 30.7504 295.653 30.7504L286.639 41.8034Z" fill="black"/>
<path d="M295.653 30.7512L284.134 22.9668C283.777 23.5876 283.462 24.2356 283.191 24.9062L289.023 30.7512L283.192 36.5965C283.462 37.2667 283.777 37.9142 284.134 38.5346L295.653 30.7512Z" fill="#FFDA44"/>
<path d="M313.191 28.7113H295.652L286.638 19.6973C285.667 20.6686 284.823 21.7671 284.133 22.9658L291.903 30.7501L284.133 38.5334C284.823 39.7324 285.667 40.8313 286.638 41.8029L295.652 32.789H313.191C313.278 32.1216 313.323 31.4411 313.323 30.7501C313.323 30.0591 313.278 29.3786 313.191 28.7113Z" fill="#6DA544"/>
<path d="M288.174 43.1502C290.81 45.1763 294.109 46.3817 297.691 46.3817C304.913 46.3817 310.99 41.4834 312.784 34.8281H296.496L288.174 43.1502Z" fill="#0052B4"/>
<path d="M312.784 26.6727C310.99 20.0174 304.913 15.1191 297.691 15.1191C294.109 15.1191 290.81 16.3245 288.174 18.3506L296.496 26.6727H312.784Z" fill="#D80027"/>
<rect x="320.02" y="13.8165" width="33.868" height="33.868" rx="16.934" stroke="white" stroke-width="2.60523"/>
<path d="M352.585 30.7505C352.585 39.3834 345.587 46.3819 336.954 46.3819C328.321 46.3819 321.322 39.3834 321.322 30.7505C321.322 30.7542 336.954 15.1209 336.954 15.1191C345.587 15.1191 352.585 22.1176 352.585 30.7505Z" fill="#0052B4"/>
<path d="M336.912 30.7508H336.954C336.954 30.7368 336.954 30.7231 336.954 30.709C336.94 30.723 336.926 30.7369 336.912 30.7508Z" fill="#F0F0F0"/>
<path d="M336.954 23.2746C336.954 20.5242 336.954 18.722 336.954 15.1191H336.951C328.319 15.1206 321.322 22.1184 321.322 30.7505H329.478V26.1581L334.07 30.7505H336.912C336.926 30.7366 336.94 30.7227 336.954 30.7087C336.954 29.6556 336.954 28.7159 336.954 27.8671L332.361 23.2746H336.954Z" fill="#F0F0F0"/>
<path d="M329.231 17.1582C326.786 18.5503 324.753 20.5828 323.361 23.0275V30.7507H327.439V21.2361V21.236H336.954C336.954 19.9499 336.954 18.7246 336.954 17.1582H329.231Z" fill="#D80027"/>
<path d="M336.954 28.828L331.401 23.2744C331.401 23.2744 329.479 23.2745 329.479 23.2744V23.2745L336.954 30.7502H336.954C336.954 30.7502 336.954 29.4248 336.954 28.828Z" fill="#D80027"/>
<path d="M348.392 26.7178L348.73 27.7562H349.821L348.938 28.3979L349.275 29.4362L348.392 28.7945L347.509 29.4362L347.846 28.3979L346.963 27.7562H348.055L348.392 26.7178Z" fill="#D80027"/>
<path d="M344.49 34.1934L344.996 35.751H346.633L345.308 36.7136L345.815 38.2711L344.49 37.3085L343.165 38.2711L343.671 36.7136L342.346 35.751H343.983L344.49 34.1934Z" fill="#D80027"/>
<path d="M344.636 21.9609L345.058 23.259H346.423L345.318 24.061L345.74 25.3591L344.636 24.5568L343.532 25.3591L343.954 24.061L342.85 23.259H344.214L344.636 21.9609Z" fill="#D80027"/>
<path d="M340.88 26.6729L341.386 28.2305H343.024L341.699 29.193L342.205 30.7506L340.88 29.788L339.555 30.7506L340.061 29.193L338.736 28.2305H340.374L340.88 26.6729Z" fill="#D80027"/>
<rect x="359.283" y="13.8165" width="33.868" height="33.868" rx="16.934" stroke="white" stroke-width="2.60523"/>
<path d="M376.217 46.3819C384.85 46.3819 391.849 39.3835 391.849 30.7505C391.849 22.1175 384.85 15.1191 376.217 15.1191C367.584 15.1191 360.586 22.1175 360.586 30.7505C360.586 39.3835 367.584 46.3819 376.217 46.3819Z" fill="#F0F0F0"/>
<path d="M376.217 15.1191C370.02 15.1191 364.665 18.7257 362.137 23.9543H390.297C387.769 18.7257 382.414 15.1191 376.217 15.1191Z" fill="#FF9811"/>
<path d="M376.217 46.382C382.414 46.382 387.769 42.7755 390.297 37.5469H362.137C364.665 42.7755 370.02 46.382 376.217 46.382Z" fill="#6DA544"/>
<path d="M376.216 36.1874C379.219 36.1874 381.653 33.7532 381.653 30.7504C381.653 27.7477 379.219 25.3135 376.216 25.3135C373.214 25.3135 370.779 27.7477 370.779 30.7504C370.779 33.7532 373.214 36.1874 376.216 36.1874Z" fill="#0052B4"/>
<path d="M376.216 34.1488C378.093 34.1488 379.615 32.6274 379.615 30.7507C379.615 28.8739 378.093 27.3525 376.216 27.3525C374.34 27.3525 372.818 28.8739 372.818 30.7507C372.818 32.6274 374.34 34.1488 376.216 34.1488Z" fill="#F0F0F0"/>
<path d="M376.217 26.5576L377.266 28.9352L379.849 28.6542L378.314 30.7509L379.849 32.8475L377.266 32.5665L376.217 34.9441L375.169 32.5665L372.586 32.8474L374.121 30.7509L372.586 28.6542L375.169 28.9352L376.217 26.5576Z" fill="#0052B4"/>
<rect x="398.545" y="13.8165" width="33.868" height="33.868" rx="16.934" stroke="white" stroke-width="2.60523"/>
<path d="M415.479 46.3819C424.112 46.3819 431.11 39.3835 431.11 30.7505C431.11 22.1175 424.112 15.1191 415.479 15.1191C406.846 15.1191 399.848 22.1175 399.848 30.7505C399.848 39.3835 406.846 46.3819 415.479 46.3819Z" fill="#F0F0F0"/>
<path d="M431.111 30.7502C431.111 24.553 427.504 19.1983 422.275 16.6699V44.8305C427.504 42.3022 431.111 36.9475 431.111 30.7502Z" fill="#D80027"/>
<path d="M399.848 30.7502C399.848 36.9475 403.454 42.3022 408.683 44.8306V16.6699C403.454 19.1983 399.848 24.553 399.848 30.7502Z" fill="#D80027"/>
<path d="M418.196 32.7894L420.915 31.4301L419.556 30.7505V29.3913L416.837 30.7505L418.196 28.032H416.837L415.478 25.9932L414.119 28.032H412.759L414.119 30.7505L411.4 29.3913V30.7505L410.041 31.4301L412.759 32.7894L412.08 34.1486H414.798V36.1875H416.158V34.1486H418.876L418.196 32.7894Z" fill="#D80027"/>
<rect x="437.809" y="13.8165" width="33.868" height="33.868" rx="16.934" stroke="white" stroke-width="2.60523"/>
<path d="M454.743 46.3819C463.376 46.3819 470.374 39.3835 470.374 30.7505C470.374 22.1175 463.376 15.1191 454.743 15.1191C446.11 15.1191 439.111 22.1175 439.111 30.7505C439.111 39.3835 446.11 46.3819 454.743 46.3819Z" fill="#F0F0F0"/>
<path d="M468.878 24.071C468.084 22.3935 467 20.8802 465.691 19.5952L454.743 18.5176L443.795 19.5953C443.76 19.6295 443.726 19.6646 443.691 19.6992L448.063 24.0711L454.743 24.2751L468.878 24.071Z" fill="#FFDA44"/>
<path d="M443.691 41.8024C443.749 41.8599 443.806 41.9175 443.865 41.9741L454.743 42.9838L465.622 41.9741C466.944 40.6919 468.041 39.1785 468.847 37.4983L448.627 36.8672C446.887 38.607 444.88 40.6136 443.691 41.8024Z" fill="#FFDA44"/>
<path d="M470.22 28.5468L452.025 28.0322L454.744 30.7507C453.939 31.5559 452.737 32.758 452.025 33.4693L470.21 33.0227C470.318 32.2808 470.375 31.5225 470.375 30.7507C470.375 30.0025 470.322 29.267 470.22 28.5468Z" fill="black"/>
<path d="M454.743 15.1191C450.479 15.1191 446.615 16.827 443.795 19.595H465.691C462.871 16.827 459.007 15.1191 454.743 15.1191Z" fill="#6DA544"/>
<path d="M452.538 28.5461H470.218C469.995 26.966 469.536 25.4618 468.878 24.0703H448.062L452.538 28.5461Z" fill="#D80027"/>
<path d="M447.994 37.4983H468.845C469.512 36.1078 469.978 34.6035 470.208 33.0225H452.47C450.737 34.7558 449.268 36.2248 447.994 37.4983Z" fill="#D80027"/>
<path d="M454.742 46.3815C458.97 46.3815 462.806 44.7016 465.62 41.9736H443.863C446.677 44.7016 450.513 46.3815 454.742 46.3815Z" fill="#6DA544"/>
<path d="M444.693 18.7783C444.345 19.0703 444.01 19.3764 443.689 19.697L454.743 30.7501L443.689 41.8032C444.01 42.1239 444.345 42.4299 444.693 42.7219L456.665 30.7501L444.693 18.7783Z" fill="black"/>
<path d="M445.395 26.6729L446.407 29.7879H449.683L447.033 31.7132L448.045 34.8284L445.395 32.9031L442.745 34.8284L443.757 31.7132L441.107 29.7879H444.383L445.395 26.6729Z" fill="#D80027"/>
<path d="M448.179 31.0055L445.541 30.0711C445.541 30.0711 445.347 28.2427 445.335 28.1808C445.245 27.7092 444.831 27.3525 444.333 27.3525C443.77 27.3525 443.314 27.809 443.314 28.372C443.314 28.4654 443.327 28.5553 443.351 28.6413L442.611 29.3858H443.926C443.926 30.7507 442.908 30.7507 442.908 32.1099L443.473 33.4692H446.871L447.437 32.1099H447.437C447.494 31.9795 447.528 31.845 447.542 31.7106C448.031 31.5131 448.179 31.0055 448.179 31.0055Z" fill="#FFDA44"/>
<defs>
<radialGradient id="paint0_radial_1522_19052" cx="0" cy="0" r="1" gradientUnits="userSpaceOnUse" gradientTransform="translate(199.921 36) rotate(-86.9916) scale(24.0331 8.60723)">
<stop stop-color="white"/>
<stop offset="1" stop-color="#999999" stop-opacity="0.31"/>
</radialGradient>
</defs>
</svg>
