<svg width="515" height="61" viewBox="0 0 515 61" fill="none" xmlns="http://www.w3.org/2000/svg">
<rect width="473" height="60" transform="translate(0.220703 0.0605469)" fill="url(#paint0_radial_1522_19052)" fill-opacity="0.07"/>
<rect x="5.91809" y="13.1261" width="33.868" height="33.868" rx="16.934" stroke="white" stroke-width="2.60523"/>
<path d="M22.8521 45.6915C31.485 45.6915 38.4834 38.6931 38.4834 30.0601C38.4834 21.4271 31.485 14.4287 22.8521 14.4287C14.2191 14.4287 7.2207 21.4271 7.2207 30.0601C7.2207 38.6931 14.2191 45.6915 22.8521 45.6915Z" fill="#F0F0F0"/>
<path d="M7.2207 30.0585C7.2207 36.7795 11.4627 42.509 17.4151 44.7176V15.3994C11.4627 17.608 7.2207 23.3376 7.2207 30.0585Z" fill="#6DA544"/>
<path d="M38.4835 30.0585C38.4835 23.3376 34.2415 17.608 28.2891 15.3994V44.7177C34.2415 42.509 38.4835 36.7795 38.4835 30.0585Z" fill="#6DA544"/>
<rect x="49.1818" y="13.1261" width="33.868" height="33.868" rx="16.934" stroke="white" stroke-width="2.60523"/>
<path d="M66.1157 45.6915C74.7487 45.6915 81.7471 38.6931 81.7471 30.0601C81.7471 21.4271 74.7487 14.4287 66.1157 14.4287C57.4828 14.4287 50.4844 21.4271 50.4844 30.0601C50.4844 38.6931 57.4828 45.6915 66.1157 45.6915Z" fill="#F0F0F0"/>
<path d="M65.4355 30.0592H81.7465C81.7465 28.6484 81.5585 27.2816 81.208 25.9814H65.4355V30.0592Z" fill="#D80027"/>
<path d="M65.4355 21.9039H79.4522C78.4954 20.3425 77.2719 18.9624 75.8454 17.8262H65.4355V21.9039Z" fill="#D80027"/>
<path d="M66.1131 45.6911C69.7919 45.6911 73.1732 44.4196 75.8434 42.293H56.3828C59.053 44.4196 62.4343 45.6911 66.1131 45.6911Z" fill="#D80027"/>
<path d="M52.7773 38.2155H79.4515C80.2197 36.962 80.8154 35.5918 81.2072 34.1377H51.0215C51.4133 35.5918 52.0091 36.962 52.7773 38.2155Z" fill="#D80027"/>
<path d="M57.7251 16.8698H59.1496L57.8246 17.8324L58.3307 19.39L57.0058 18.4273L55.6808 19.39L56.118 18.0444C54.9514 19.0162 53.9289 20.1547 53.0863 21.4233H53.5427L52.6993 22.036C52.5679 22.2552 52.4418 22.4779 52.3211 22.7039L52.7238 23.9435L51.9724 23.3975C51.7856 23.7932 51.6148 24.1979 51.4612 24.611L51.9049 25.9768H53.5427L52.2177 26.9394L52.7238 28.4969L51.3989 27.5343L50.6052 28.111C50.5258 28.7495 50.4844 29.4 50.4844 30.0601H66.1157C66.1157 21.4272 66.1157 20.4094 66.1157 14.4287C63.0278 14.4287 60.1493 15.3245 57.7251 16.8698ZM58.3307 28.4969L57.0058 27.5343L55.6808 28.4969L56.187 26.9394L54.862 25.9768H56.4997L57.0058 24.4192L57.5118 25.9768H59.1496L57.8246 26.9394L58.3307 28.4969ZM57.8246 22.3859L58.3307 23.9435L57.0058 22.9808L55.6808 23.9435L56.187 22.3859L54.862 21.4233H56.4997L57.0058 19.8657L57.5118 21.4233H59.1496L57.8246 22.3859ZM63.9376 28.4969L62.6127 27.5343L61.2877 28.4969L61.7939 26.9394L60.4689 25.9768H62.1066L62.6127 24.4192L63.1187 25.9768H64.7565L63.4315 26.9394L63.9376 28.4969ZM63.4315 22.3859L63.9376 23.9435L62.6127 22.9808L61.2877 23.9435L61.7939 22.3859L60.4689 21.4233H62.1066L62.6127 19.8657L63.1187 21.4233H64.7565L63.4315 22.3859ZM63.4315 17.8324L63.9376 19.39L62.6127 18.4273L61.2877 19.39L61.7939 17.8324L60.4689 16.8698H62.1066L62.6127 15.3122L63.1187 16.8698H64.7565L63.4315 17.8324Z" fill="#0052B4"/>
<rect x="92.4435" y="13.1261" width="33.868" height="33.868" rx="16.934" stroke="white" stroke-width="2.60523"/>
<path d="M109.377 45.6915C118.01 45.6915 125.009 38.6931 125.009 30.0601C125.009 21.4271 118.01 14.4287 109.377 14.4287C100.744 14.4287 93.7461 21.4271 93.7461 30.0601C93.7461 38.6931 100.744 45.6915 109.377 45.6915Z" fill="#F0F0F0"/>
<path d="M96.976 20.543C95.7482 22.1405 94.8223 23.9817 94.2832 25.982H102.415L96.976 20.543Z" fill="#0052B4"/>
<path d="M124.47 25.982C123.931 23.9817 123.005 22.1405 121.777 20.543L116.338 25.982H124.47Z" fill="#0052B4"/>
<path d="M94.2832 34.1377C94.8224 36.1379 95.7482 37.9792 96.976 39.5766L102.415 34.1377H94.2832Z" fill="#0052B4"/>
<path d="M118.892 17.6597C117.295 16.4318 115.453 15.506 113.453 14.9668V23.0986L118.892 17.6597Z" fill="#0052B4"/>
<path d="M99.8594 42.4594C101.457 43.6872 103.298 44.6131 105.298 45.1522V37.0205L99.8594 42.4594Z" fill="#0052B4"/>
<path d="M105.298 14.9668C103.298 15.506 101.457 16.4318 99.8594 17.6596L105.298 23.0985V14.9668Z" fill="#0052B4"/>
<path d="M113.453 45.1522C115.453 44.6131 117.295 43.6872 118.892 42.4594L113.453 37.0205V45.1522Z" fill="#0052B4"/>
<path d="M116.338 34.1377L121.777 39.5767C123.005 37.9792 123.931 36.1379 124.47 34.1377H116.338Z" fill="#0052B4"/>
<path d="M124.877 28.0212H111.416H111.416V14.561C110.749 14.4741 110.068 14.4287 109.377 14.4287C108.686 14.4287 108.006 14.4741 107.339 14.561V28.0211V28.0212H93.8784C93.7915 28.6886 93.7461 29.3691 93.7461 30.0601C93.7461 30.7512 93.7915 31.4316 93.8784 32.0989H107.338H107.339V45.5591C108.006 45.646 108.686 45.6915 109.377 45.6915C110.068 45.6915 110.749 45.6461 111.416 45.5591V32.0991V32.099H124.877C124.963 31.4316 125.009 30.7512 125.009 30.0601C125.009 29.3691 124.963 28.6886 124.877 28.0212Z" fill="#D80027"/>
<path d="M113.455 34.1378L120.43 41.113C120.751 40.7923 121.057 40.457 121.349 40.1095L115.377 34.1377H113.455V34.1378Z" fill="#D80027"/>
<path d="M105.3 34.1377H105.299L98.3242 41.1129C98.6449 41.4337 98.9802 41.7397 99.3277 42.0317L105.3 36.0598V34.1377Z" fill="#D80027"/>
<path d="M105.3 25.9823V25.9822L98.3251 19.0068C98.0043 19.3275 97.6982 19.6628 97.4062 20.0104L103.378 25.9822H105.3V25.9823Z" fill="#D80027"/>
<path d="M113.455 25.982L120.43 19.0067C120.11 18.6859 119.774 18.3798 119.427 18.0879L113.455 24.0597V25.982Z" fill="#D80027"/>
<rect x="135.707" y="13.1261" width="33.868" height="33.868" rx="16.934" stroke="white" stroke-width="2.60523"/>
<path d="M137.01 30.0595C137.01 32.7675 137.699 35.3145 138.91 37.5353L152.641 38.8946L166.372 37.5353C167.584 35.3145 168.273 32.7675 168.273 30.0595L152.641 28.7002L137.01 30.0595Z" fill="#FFDA44"/>
<path d="M166.372 22.5842C163.721 17.7253 158.566 14.4287 152.641 14.4287C146.716 14.4287 141.562 17.7253 138.91 22.5842C137.699 24.805 137.01 27.3521 137.01 30.0601H168.273C168.273 27.3521 167.584 24.805 166.372 22.5842Z" fill="#338AF3"/>
<path d="M152.641 45.6916C158.566 45.6916 163.72 42.395 166.372 37.5361H138.91C141.561 42.395 146.716 45.6916 152.641 45.6916Z" fill="#496E2D"/>
<path d="M154.68 23.5771L156.589 24.4751L155.572 26.324L157.645 25.9275L157.908 28.0216L159.352 26.4814L160.796 28.0216L161.058 25.9275L163.131 26.3239L162.115 24.4751L164.024 23.5771L162.115 22.6792L163.131 20.8303L161.058 21.2269L160.796 19.1328L159.352 20.673L157.908 19.1328L157.645 21.2269L155.572 20.8303L156.589 22.6793L154.68 23.5771Z" fill="#FFDA44"/>
<rect x="178.969" y="13.1261" width="33.868" height="33.868" rx="16.934" stroke="white" stroke-width="2.60523"/>
<path d="M195.903 45.6915C204.536 45.6915 211.534 38.6931 211.534 30.0601C211.534 21.4271 204.536 14.4287 195.903 14.4287C187.27 14.4287 180.271 21.4271 180.271 30.0601C180.271 38.6931 187.27 45.6915 195.903 45.6915Z" fill="#F0F0F0"/>
<path d="M195.903 14.4287C189.705 14.4287 184.351 18.0352 181.822 23.2639H209.983C207.455 18.0352 202.1 14.4287 195.903 14.4287Z" fill="black"/>
<path d="M195.903 45.6916C189.705 45.6916 184.351 42.0851 181.822 36.8564H209.983C207.455 42.0851 202.1 45.6916 195.903 45.6916Z" fill="#496E2D"/>
<path d="M210.796 25.3027H181.01C180.531 26.8029 180.271 28.4012 180.271 30.0601C180.271 31.719 180.531 33.3173 181.01 34.8175H210.796C211.275 33.3173 211.534 31.719 211.534 30.0601C211.534 28.4012 211.275 26.8029 210.796 25.3027Z" fill="#A2001D"/>
<path d="M200.77 21.6523L198.919 20.7979L195.903 27.6275L192.886 20.7979L191.035 21.6523L194.78 30.0602L191.035 38.4681L192.886 39.3225L195.903 32.4929L198.919 39.3225L200.77 38.4681L197.025 30.0602L200.77 21.6523Z" fill="#F0F0F0"/>
<path d="M197.159 22.4581C196.443 21.6755 195.902 21.2256 195.902 21.2256C195.902 21.2256 195.361 21.6754 194.645 22.4581V37.6633C195.361 38.446 195.902 38.8959 195.902 38.8959C195.902 38.8959 196.443 38.446 197.159 37.6633V22.4581Z" fill="#F0F0F0"/>
<path d="M192.504 25.3739V34.7473C193.261 36.0891 194.188 37.1889 194.883 37.9181V22.2031C194.188 22.9322 193.261 24.0321 192.504 25.3739Z" fill="#A2001D"/>
<path d="M199.301 25.3739C198.543 24.0321 197.616 22.9322 196.922 22.2031V37.9181C197.616 37.1889 198.543 36.0891 199.301 34.7473V25.3739Z" fill="#A2001D"/>
<path d="M199.301 25.373V34.7465C200.067 33.388 200.66 31.7815 200.66 30.0598C200.66 28.3381 200.067 26.7316 199.301 25.373Z" fill="black"/>
<path d="M192.504 25.373V34.7465C191.737 33.388 191.145 31.7815 191.145 30.0598C191.145 28.3381 191.737 26.7316 192.504 25.373Z" fill="black"/>
<rect x="222.233" y="13.1261" width="33.868" height="33.868" rx="16.934" stroke="white" stroke-width="2.60523"/>
<path d="M223.535 30.06C223.535 31.972 223.879 33.8036 224.507 35.497L239.167 36.1766L253.826 35.497C254.454 33.8036 254.798 31.972 254.798 30.06C254.798 28.148 254.454 26.3164 253.826 24.623L239.167 23.9434L224.507 24.623C223.879 26.3164 223.535 28.148 223.535 30.06V30.06Z" fill="#FFDA44"/>
<path d="M239.167 14.4287C232.446 14.4287 226.716 18.6707 224.508 24.6231H253.826C251.617 18.6707 245.888 14.4287 239.167 14.4287Z" fill="#D80027"/>
<path d="M253.826 35.4971H224.508C226.716 41.4494 232.446 45.6915 239.167 45.6915C245.888 45.6915 251.617 41.4494 253.826 35.4971Z" fill="#496E2D"/>
<path d="M239.166 24.623L240.515 28.7764H244.883L241.35 31.3435L242.699 35.497L239.166 32.93L235.633 35.497L236.982 31.3435L233.449 28.7764H237.816L239.166 24.623Z" fill="black"/>
<rect x="265.494" y="13.1261" width="33.868" height="33.868" rx="16.934" stroke="white" stroke-width="2.60523"/>
<path d="M298.06 30.0601C298.06 38.693 291.061 45.6915 282.428 45.6915C273.795 45.6915 266.797 38.693 266.797 30.0601C266.797 30.0637 282.428 14.4305 282.428 14.4287C291.061 14.4287 298.06 21.4272 298.06 30.0601Z" fill="#0052B4"/>
<path d="M282.387 30.0604H282.429C282.429 30.0462 282.429 30.0327 282.429 30.0186C282.415 30.0325 282.401 30.0465 282.387 30.0604Z" fill="#F0F0F0"/>
<path d="M282.428 22.5842C282.428 19.8337 282.428 18.0314 282.428 14.4287H282.426C273.794 14.4301 266.797 21.4279 266.797 30.06H274.952V25.4676L279.545 30.06H282.386C282.4 30.0461 282.414 30.0322 282.428 30.0182C282.428 28.9651 282.428 28.0254 282.428 27.1767L277.836 22.5842H282.428Z" fill="#F0F0F0"/>
<path d="M274.705 16.4678C272.26 17.8599 270.228 19.8923 268.836 22.3371V30.0603H272.914V20.5456V20.5455H282.428C282.428 19.2594 282.428 18.0342 282.428 16.4678H274.705Z" fill="#D80027"/>
<path d="M282.429 28.1375L276.875 22.584H274.953C274.953 22.584 274.953 22.584 274.953 22.584L282.429 30.0598H282.429C282.429 30.0598 282.429 28.7345 282.429 28.1375Z" fill="#D80027"/>
<path d="M276.224 32.7783L277.082 34.5721L279.019 34.1244L278.151 35.9136L279.709 37.149L277.77 37.5862L277.775 39.5745L276.224 38.3306L274.673 39.5745L274.678 37.5862L272.738 37.149L274.296 35.9136L273.429 34.1244L275.366 34.5721L276.224 32.7783Z" fill="#F0F0F0"/>
<path d="M290.2 36.1758L290.629 37.0727L291.597 36.8488L291.164 37.7434L291.943 38.3611L290.973 38.5797L290.975 39.5739L290.2 38.9519L289.424 39.5739L289.427 38.5797L288.457 38.3611L289.236 37.7434L288.802 36.8488L289.771 37.0727L290.2 36.1758Z" fill="#F0F0F0"/>
<path d="M286.21 26.6611L286.638 27.5581L287.607 27.3341L287.173 28.2287L287.952 28.8465L286.982 29.0651L286.985 30.0592L286.21 29.4372L285.434 30.0592L285.437 29.0651L284.467 28.8465L285.246 28.2287L284.812 27.3341L285.781 27.5581L286.21 26.6611Z" fill="#F0F0F0"/>
<path d="M290.2 21.2246L290.629 22.1216L291.597 21.8977L291.164 22.7923L291.942 23.4099L290.973 23.6286L290.975 24.6228L290.2 24.0008L289.424 24.6228L289.427 23.6286L288.457 23.4099L289.236 22.7923L288.802 21.8977L289.771 22.1216L290.2 21.2246Z" fill="#F0F0F0"/>
<path d="M293.686 25.3027L294.115 26.1997L295.084 25.9757L294.65 26.8703L295.429 27.4881L294.459 27.7067L294.462 28.7008L293.686 28.0789L292.911 28.7008L292.913 27.7067L291.943 27.4881L292.722 26.8703L292.289 25.9757L293.257 26.1997L293.686 25.3027Z" fill="#F0F0F0"/>
<path d="M291.193 30.0605L291.53 31.0989H292.622L291.739 31.7407L292.076 32.7791L291.193 32.1373L290.31 32.7791L290.647 31.7407L289.764 31.0989H290.855L291.193 30.0605Z" fill="#F0F0F0"/>
<rect x="308.758" y="13.1261" width="33.868" height="33.868" rx="16.934" stroke="white" stroke-width="2.60523"/>
<path d="M325.692 45.6915C334.325 45.6915 341.323 38.6931 341.323 30.0601C341.323 21.4271 334.325 14.4287 325.692 14.4287C317.059 14.4287 310.061 21.4271 310.061 30.0601C310.061 38.6931 317.059 45.6915 325.692 45.6915Z" fill="#F0F0F0"/>
<path d="M314.639 41.113C308.534 35.0085 308.534 25.1113 314.639 19.0068C314.638 19.0075 323.653 30.0599 323.653 30.0599L314.639 41.113Z" fill="black"/>
<path d="M323.653 30.0607L312.134 22.2764C311.777 22.8972 311.462 23.5451 311.191 24.2158L317.023 30.0608L311.192 35.9061C311.462 36.5763 311.777 37.2238 312.134 37.8442L323.653 30.0607Z" fill="#FFDA44"/>
<path d="M341.191 28.0208H323.652L314.638 19.0068C313.667 19.9782 312.823 21.0767 312.133 22.2754L319.903 30.0597L312.133 37.843C312.823 39.042 313.667 40.1409 314.638 41.1125L323.652 32.0985H341.191C341.278 31.4311 341.323 30.7507 341.323 30.0597C341.323 29.3687 341.278 28.6882 341.191 28.0208Z" fill="#6DA544"/>
<path d="M316.174 42.4598C318.81 44.4859 322.109 45.6913 325.691 45.6913C332.913 45.6913 338.99 40.793 340.784 34.1377H324.496L316.174 42.4598Z" fill="#0052B4"/>
<path d="M340.784 25.9823C338.99 19.327 332.913 14.4287 325.691 14.4287C322.109 14.4287 318.81 15.6341 316.174 17.6602L324.496 25.9823H340.784Z" fill="#D80027"/>
<rect x="352.02" y="13.1261" width="33.868" height="33.868" rx="16.934" stroke="white" stroke-width="2.60523"/>
<path d="M384.585 30.0601C384.585 38.693 377.587 45.6915 368.954 45.6915C360.321 45.6915 353.322 38.693 353.322 30.0601C353.322 30.0638 368.954 14.4304 368.954 14.4287C377.587 14.4287 384.585 21.4272 384.585 30.0601Z" fill="#0052B4"/>
<path d="M368.912 30.0604H368.954C368.954 30.0463 368.954 30.0327 368.954 30.0186C368.94 30.0325 368.926 30.0465 368.912 30.0604Z" fill="#F0F0F0"/>
<path d="M368.954 22.5842C368.954 19.8337 368.954 18.0316 368.954 14.4287H368.951C360.319 14.4302 353.322 21.428 353.322 30.0601H361.478V25.4677L366.07 30.0601H368.912C368.926 30.0462 368.94 30.0322 368.954 30.0183C368.954 28.9652 368.954 28.0255 368.954 27.1767L364.361 22.5842H368.954Z" fill="#F0F0F0"/>
<path d="M361.231 16.4678C358.786 17.8599 356.753 19.8923 355.361 22.3371V30.0603H359.439V20.5457V20.5455H368.954C368.954 19.2594 368.954 18.0342 368.954 16.4678H361.231Z" fill="#D80027"/>
<path d="M368.954 28.1376L363.401 22.584C363.401 22.584 361.479 22.5841 361.479 22.584V22.5841L368.954 30.0598H368.954C368.954 30.0598 368.954 28.7344 368.954 28.1376Z" fill="#D80027"/>
<path d="M380.392 26.0273L380.73 27.0657H381.821L380.938 27.7075L381.275 28.7458L380.392 28.1041L379.509 28.7458L379.846 27.7075L378.963 27.0657H380.055L380.392 26.0273Z" fill="#D80027"/>
<path d="M376.49 33.5029L376.996 35.0606H378.633L377.308 36.0231L377.815 37.5807L376.49 36.6181L375.165 37.5807L375.671 36.0231L374.346 35.0606H375.983L376.49 33.5029Z" fill="#D80027"/>
<path d="M376.636 21.2705L377.058 22.5686H378.423L377.318 23.3706L377.74 24.6686L376.636 23.8664L375.532 24.6686L375.954 23.3706L374.85 22.5686H376.214L376.636 21.2705Z" fill="#D80027"/>
<path d="M372.88 25.9824L373.386 27.5401H375.024L373.699 28.5026L374.205 30.0602L372.88 29.0976L371.555 30.0602L372.061 28.5026L370.736 27.5401H372.374L372.88 25.9824Z" fill="#D80027"/>
<rect x="395.283" y="13.1261" width="33.868" height="33.868" rx="16.934" stroke="white" stroke-width="2.60523"/>
<path d="M412.217 45.6915C420.85 45.6915 427.849 38.6931 427.849 30.0601C427.849 21.4271 420.85 14.4287 412.217 14.4287C403.584 14.4287 396.586 21.4271 396.586 30.0601C396.586 38.6931 403.584 45.6915 412.217 45.6915Z" fill="#F0F0F0"/>
<path d="M412.217 14.4287C406.02 14.4287 400.665 18.0352 398.137 23.2639H426.297C423.769 18.0352 418.414 14.4287 412.217 14.4287Z" fill="#FF9811"/>
<path d="M412.217 45.6916C418.414 45.6916 423.769 42.0851 426.297 36.8564H398.137C400.665 42.0851 406.02 45.6916 412.217 45.6916Z" fill="#6DA544"/>
<path d="M412.216 35.497C415.219 35.497 417.653 33.0628 417.653 30.06C417.653 27.0573 415.219 24.623 412.216 24.623C409.214 24.623 406.779 27.0573 406.779 30.06C406.779 33.0628 409.214 35.497 412.216 35.497Z" fill="#0052B4"/>
<path d="M412.216 33.4583C414.093 33.4583 415.615 31.9369 415.615 30.0602C415.615 28.1835 414.093 26.6621 412.216 26.6621C410.34 26.6621 408.818 28.1835 408.818 30.0602C408.818 31.9369 410.34 33.4583 412.216 33.4583Z" fill="#F0F0F0"/>
<path d="M412.217 25.8672L413.266 28.2447L415.849 27.9638L414.314 30.0604L415.849 32.157L413.266 31.8761L412.217 34.2537L411.169 31.8761L408.586 32.157L410.121 30.0604L408.586 27.9638L411.169 28.2447L412.217 25.8672Z" fill="#0052B4"/>
<rect x="438.545" y="13.1261" width="33.868" height="33.868" rx="16.934" stroke="white" stroke-width="2.60523"/>
<path d="M455.479 45.6915C464.112 45.6915 471.11 38.6931 471.11 30.0601C471.11 21.4271 464.112 14.4287 455.479 14.4287C446.846 14.4287 439.848 21.4271 439.848 30.0601C439.848 38.6931 446.846 45.6915 455.479 45.6915Z" fill="#F0F0F0"/>
<path d="M469.615 23.3806C468.82 21.7031 467.737 20.1898 466.427 18.9048L455.479 17.8271L444.531 18.9049C444.496 18.9391 444.462 18.9742 444.428 19.0088L448.8 23.3807L455.479 23.5847L469.615 23.3806Z" fill="#FFDA44"/>
<path d="M444.428 41.1119C444.485 41.1695 444.543 41.227 444.601 41.2837L455.48 42.2934L466.358 41.2837C467.681 40.0014 468.778 38.4881 469.583 36.8079L449.363 36.1768C447.623 37.9166 445.616 39.9232 444.428 41.1119Z" fill="#FFDA44"/>
<path d="M470.956 27.8563L452.762 27.3418L455.48 30.0603C454.675 30.8655 453.473 32.0675 452.762 32.7788L470.947 32.3322C471.055 31.5904 471.112 30.8321 471.112 30.0603C471.112 29.3121 471.058 28.5766 470.956 27.8563Z" fill="black"/>
<path d="M455.479 14.4287C451.216 14.4287 447.351 16.1366 444.531 18.9045H466.427C463.607 16.1366 459.743 14.4287 455.479 14.4287Z" fill="#6DA544"/>
<path d="M453.275 27.8557H470.955C470.731 26.2755 470.273 24.7714 469.614 23.3799H448.799L453.275 27.8557Z" fill="#D80027"/>
<path d="M448.73 36.8079H469.582C470.248 35.4174 470.714 33.9131 470.945 32.332H453.206C451.473 34.0653 450.004 35.5343 448.73 36.8079Z" fill="#D80027"/>
<path d="M455.478 45.6911C459.707 45.6911 463.543 44.0112 466.356 41.2832H444.6C447.414 44.0112 451.249 45.6911 455.478 45.6911Z" fill="#6DA544"/>
<path d="M445.429 18.0879C445.082 18.3799 444.747 18.686 444.426 19.0066L455.479 30.0597L444.426 41.1128C444.746 41.4335 445.082 41.7395 445.429 42.0315L457.401 30.0597L445.429 18.0879Z" fill="black"/>
<path d="M446.131 25.9824L447.143 29.0975H450.419L447.769 31.0228L448.781 34.138L446.131 32.2127L443.481 34.138L444.494 31.0228L441.844 29.0975H445.119L446.131 25.9824Z" fill="#D80027"/>
<path d="M448.915 30.3151L446.278 29.3806C446.278 29.3806 446.083 27.5523 446.071 27.4903C445.982 27.0188 445.567 26.6621 445.07 26.6621C444.507 26.6621 444.05 27.1185 444.05 27.6816C444.05 27.7749 444.064 27.8649 444.087 27.9508L443.348 28.6953H444.663C444.663 30.0602 443.644 30.0602 443.644 31.4195L444.209 32.7787H447.607L448.174 31.4195H448.173C448.23 31.2891 448.265 31.1545 448.279 31.0201C448.767 30.8227 448.915 30.3151 448.915 30.3151Z" fill="#FFDA44"/>
<defs>
<radialGradient id="paint0_radial_1522_19052" cx="0" cy="0" r="1" gradientUnits="userSpaceOnUse" gradientTransform="translate(199.921 36) rotate(-86.9916) scale(24.0331 8.60723)">
<stop stop-color="white"/>
<stop offset="1" stop-color="#999999" stop-opacity="0.31"/>
</radialGradient>
</defs>
</svg>
