<svg width="94" height="105" viewBox="0 0 94 105" fill="none" xmlns="http://www.w3.org/2000/svg">
<path d="M47.5459 83.0139C72.0972 83.0139 92 65.0497 92 42.8898C92 20.7298 72.0972 2.76562 47.5459 2.76562C22.9945 2.76562 3.09175 20.7298 3.09175 42.8898C3.09175 65.0497 22.9945 83.0139 47.5459 83.0139Z" fill="#8FE3F9"/>
<path d="M47.5459 83.0139C72.0972 83.0139 92 65.0497 92 42.8898C92 20.7298 72.0972 2.76562 47.5459 2.76562C22.9945 2.76562 3.09175 20.7298 3.09175 42.8898C3.09175 65.0497 22.9945 83.0139 47.5459 83.0139Z" fill="#FCB59A"/>
<path d="M48.7158 82.2357C58.874 82.2357 68.2327 79.2527 75.7197 74.2421L73.6725 69.4264C69.3831 59.3076 59.2054 52.6982 47.9164 52.6982C36.6274 52.6982 26.4498 59.3076 22.1603 69.4264L20.4836 73.4037C28.146 78.9213 37.9922 82.2357 48.7158 82.2357Z" fill="#FBCCBD"/>
<path d="M47.5265 39.5347L39.0256 52.0125L45.4402 60.5521C46.4931 61.9558 48.6183 61.9558 49.6712 60.5521L56.0273 52.0125L47.5265 39.5347Z" fill="#54200E"/>
<path d="M47.5459 78.3368C23.8565 78.3368 4.51507 61.6281 3.16975 40.5522C3.11125 41.3321 3.09175 42.112 3.09175 42.8918C3.09175 65.04 22.9986 83.016 47.5459 83.016C72.0931 83.016 92 65.0595 92 42.8918C92 42.112 91.9805 41.3321 91.922 40.5522C90.5767 61.6281 71.2158 78.3368 47.5459 78.3368Z" fill="#F15B29"/>
<path d="M74.2185 70.3022C66.79 75.3324 57.5482 78.3349 47.546 78.3349C37.7973 78.3349 28.7895 75.5079 21.478 70.7117L20.5031 73.1098C28.1851 78.8028 38.0118 82.2342 48.7353 82.2342C58.4256 82.2342 67.3944 79.4267 74.7059 74.6695C75.0569 74.4355 75.3883 74.1821 75.7393 73.9286L74.2185 70.3022Z" fill="#F15B29"/>
<path d="M2 43.0255C3.24784 45.5796 4.92461 47.9582 7.03033 50.0833C17.2275 60.2801 33.7808 60.2801 43.9779 50.0833C52.5178 41.5438 53.9021 28.5785 48.1699 18.5962" fill="#F15B29"/>
<path d="M91.8441 46.0655C87.1647 53.1038 79.1708 57.7245 70.085 57.7245C55.6569 57.7245 43.9584 46.0265 43.9584 31.5989C43.9584 25.1651 46.2786 19.2771 50.1391 14.7148" fill="#F15B29"/>
<path d="M47.5459 83.0139C72.0972 83.0139 92 65.0497 92 42.8898C92 20.7298 72.0972 2.76562 47.5459 2.76562C22.9945 2.76562 3.09175 20.7298 3.09175 42.8898C3.09175 65.0497 22.9945 83.0139 47.5459 83.0139Z" stroke="#54200E" strokeWidth="3.99258" stroke-miterlimit="10" strokeLinecap="round" strokeLinejoin="round"/>
<path d="M47.5265 34.0781L39.0256 46.556L47.5654 57.9225L56.0468 46.556L47.5265 34.0781Z" fill="#FDE6DF"/>
<path d="M47.5264 34.0781L39.0256 46.556L47.5654 57.9225L56.0468 46.556L47.5264 34.0781Z" stroke="#F15B29" strokeWidth="3.99258" stroke-miterlimit="10" strokeLinecap="round" strokeLinejoin="round"/>
<path d="M47.3315 2.95289C54.284 2.95289 60.8888 4.4765 66.7041 7.17743V34.2879H27.9588V7.17743C33.7741 4.4765 40.3789 2.95289 47.3315 2.95289Z" fill="#54200E" stroke="#54200E" strokeWidth="0.249536"/>
<path d="M70.6271 53.3548L70.627 53.3548C58.6465 53.7231 48.624 44.3019 48.275 32.3025L48.275 32.3023C47.9067 20.3225 57.3281 10.3196 69.3283 9.9512C69.3283 9.9512 69.3283 9.9512 69.3283 9.9512L90.3325 9.31357C87.326 16.9982 86.944 28.4513 89.588 40.9473C86.2072 48.0615 79.0446 53.1033 70.6271 53.3548Z" fill="#FDE6DF" stroke="#54200E" strokeWidth="0.249536"/>
<path d="M69.3245 9.82649L90.5182 9.18311C87.4571 16.8453 87.0477 28.3678 89.7188 40.9627C86.3263 48.1374 79.1122 53.2261 70.6309 53.4795C58.5814 53.85 48.5013 44.3746 48.1503 32.3061C47.7799 20.2572 57.2556 10.1969 69.3245 9.82649Z" stroke="#54200E" strokeWidth="3.99258" stroke-miterlimit="10" strokeLinecap="round" strokeLinejoin="round"/>
<path d="M91.7973 31.619C91.7973 43.6099 82.0764 53.3305 70.085 53.3305C58.0938 53.3305 48.3726 43.6099 48.3726 31.619C48.3726 19.628 58.0938 9.90748 70.085 9.90748C82.0764 9.90748 91.7973 19.628 91.7973 31.619Z" fill="#F7E8AD" stroke="#54200E" strokeWidth="0.249536"/>
<path d="M91.7973 31.619C91.7973 43.6099 82.0764 53.3305 70.085 53.3305C58.0938 53.3305 48.3726 43.6099 48.3726 31.619C48.3726 19.628 58.0938 9.90748 70.085 9.90748C82.0764 9.90748 91.7973 19.628 91.7973 31.619Z" fill="#FDE6DF" stroke="#54200E" strokeWidth="0.249536"/>
<path d="M85.5269 16.1776C81.335 11.9858 75.8367 9.8607 70.3384 9.78271C74.4719 10.5821 78.4299 12.5707 81.6274 15.7877C90.1478 24.3077 90.1478 38.1309 81.6274 46.6704C77.299 50.9987 71.6058 53.1238 65.9515 53.0653C72.8341 54.3911 80.2041 52.3829 85.5269 47.0603C94.0473 38.5208 94.0473 24.6977 85.5269 16.1776Z" fill="#F77A4A"/>
<path d="M85.5269 16.1776C81.335 11.9858 75.8367 9.8607 70.3384 9.78271C74.4719 10.5821 78.4299 12.5707 81.6274 15.7877C90.1478 24.3077 90.1478 38.1309 81.6274 46.6704C77.299 50.9987 71.6058 53.1238 65.9515 53.0653C72.8341 54.3911 80.2041 52.3829 85.5269 47.0603C94.0473 38.5208 94.0473 24.6977 85.5269 16.1776Z" stroke="#54200E"/>
<g opacity="0.7">
<path d="M76.5427 43.2832C82.9387 36.8877 82.9016 26.4812 76.4601 20.0399C70.0185 13.5986 59.6118 13.5615 53.2158 19.9572C46.8199 26.3529 46.857 36.7592 53.2985 43.2005C59.7401 49.6418 70.1468 49.6789 76.5427 43.2832Z" fill="white"/>
<path d="M76.5427 43.2832C82.9387 36.8877 82.9016 26.4812 76.4601 20.0399C70.0185 13.5986 59.6118 13.5615 53.2158 19.9572C46.8199 26.3529 46.857 36.7592 53.2985 43.2005C59.7401 49.6418 70.1468 49.6789 76.5427 43.2832Z" stroke="#54200E"/>
</g>
<path d="M88.4126 21.27C88.1735 20.9615 87.846 20.4395 87.4927 19.8766C86.9529 19.0162 86.353 18.0601 85.9169 17.6241C77.338 9.16252 63.5144 9.24051 55.0525 17.8385C53.3757 19.5347 52.0304 21.4454 51.036 23.4926C63.0659 19.2618 76.2462 20.2756 88.4126 21.27Z" fill="#FBCCBD"/>
<path d="M88.4126 21.27C88.1735 20.9615 87.846 20.4395 87.4927 19.8766C86.9529 19.0162 86.353 18.0601 85.9169 17.6241C77.338 9.16252 63.5144 9.24051 55.0525 17.8385C53.3757 19.5347 52.0304 21.4454 51.036 23.4926C63.0659 19.2618 76.2462 20.2756 88.4126 21.27Z" stroke="#54200E"/>
<path d="M70.085 53.4552C82.1453 53.4552 91.9221 43.6788 91.9221 31.619C91.9221 19.5591 82.1453 9.78271 70.085 9.78271C58.0249 9.78271 48.2479 19.5591 48.2479 31.619C48.2479 43.6788 58.0249 53.4552 70.085 53.4552Z" stroke="#54200E" strokeWidth="3.99258" stroke-miterlimit="10" strokeLinecap="round" strokeLinejoin="round"/>
<path d="M70.085 53.4552C82.1453 53.4552 91.9221 43.6788 91.9221 31.619C91.9221 19.5591 82.1453 9.78271 70.085 9.78271C58.0249 9.78271 48.2479 19.5591 48.2479 31.619C48.2479 43.6788 58.0249 53.4552 70.085 53.4552Z" stroke="#54200E" strokeWidth="3.99258" stroke-miterlimit="10" strokeLinecap="round" strokeLinejoin="round"/>
<path d="M87.4962 18.4412C86.8918 17.6613 86.2483 16.901 85.5269 16.1796C77.0066 7.65954 63.1829 7.65954 54.643 16.1796C52.9468 17.8758 51.6014 19.767 50.5876 21.7946C62.676 17.6613 75.3298 17.3494 87.4962 18.4412Z" fill="#F15B29"/>
<path d="M87.4962 18.4412C86.8918 17.6613 86.2483 16.901 85.5269 16.1796C77.0066 7.65954 63.1829 7.65954 54.643 16.1796C52.9468 17.8758 51.6014 19.767 50.5876 21.7946C62.676 17.6613 75.3298 17.3494 87.4962 18.4412Z" stroke="#54200E"/>
<path d="M67.5231 33.2555C67.5231 37.709 63.9126 41.3193 59.4589 41.3193C55.0052 41.3193 51.3948 37.709 51.3948 33.2555C51.3948 28.802 55.0052 25.1917 59.4589 25.1917C63.9126 25.1917 67.5231 28.802 67.5231 33.2555Z" fill="#333333" stroke="#54200E" strokeWidth="0.249536"/>
<path d="M57.4233 33.3184C57.4233 34.757 56.2571 35.9232 54.8185 35.9232C53.3798 35.9232 52.2136 34.757 52.2136 33.3184C52.2136 31.8798 53.3798 30.7136 54.8185 30.7136C56.2571 30.7136 57.4233 31.8798 57.4233 33.3184Z" fill="white" stroke="#54200E" strokeWidth="0.249536"/>
<path d="M24.192 53.3548L24.1919 53.3548C15.7744 53.1033 8.61184 48.0615 5.231 40.9473C7.87502 28.4513 7.493 16.9982 4.48655 9.31356L25.5102 9.9512C25.5102 9.9512 25.5102 9.9512 25.5102 9.9512C37.4909 10.3196 46.9123 20.3224 46.544 32.3023L46.544 32.3025C46.195 44.3019 36.1725 53.7231 24.192 53.3548ZM4.30081 9.18311C4.31759 9.2251 4.33429 9.26722 4.35091 9.30945L4.43676 9.18723L4.30081 9.18311Z" fill="#413D51" stroke="#54200E" strokeWidth="0.249536"/>
<path d="M25.514 9.82649L4.30081 9.18311C7.36191 16.8453 7.77135 28.3678 5.10021 40.9627C8.49276 48.1374 15.7068 53.2261 24.1882 53.4795C36.2376 53.85 46.3178 44.3746 46.6687 32.3061C47.0392 20.2572 37.5634 10.1969 25.514 9.82649Z" fill="#FDE6DF" stroke="#54200E" strokeWidth="3.99258" stroke-miterlimit="10" strokeLinecap="round" strokeLinejoin="round"/>
<path d="M46.4464 31.619C46.4464 43.6099 36.7255 53.3305 24.7341 53.3305C12.7426 53.3305 3.02171 43.6099 3.02171 31.619C3.02171 19.628 12.7426 9.90748 24.7341 9.90748C36.7255 9.90748 46.4464 19.628 46.4464 31.619Z" fill="#F7E8AD" stroke="#54200E" strokeWidth="0.249536"/>
<path d="M24.7341 53.4552C36.7944 53.4552 46.5712 43.6788 46.5712 31.619C46.5712 19.5591 36.7944 9.78271 24.7341 9.78271C12.6737 9.78271 2.89694 19.5591 2.89694 31.619C2.89694 43.6788 12.6737 53.4552 24.7341 53.4552Z" fill="#FDE6DF"/>
<path d="M24.7341 53.4552C36.7944 53.4552 46.5712 43.6788 46.5712 31.619C46.5712 19.5591 36.7944 9.78271 24.7341 9.78271C12.6737 9.78271 2.89694 19.5591 2.89694 31.619C2.89694 43.6788 12.6737 53.4552 24.7341 53.4552Z" stroke="#54200E"/>
<path d="M9.29212 16.1776C13.4841 11.9858 18.9823 9.8607 24.4806 9.78271C20.3472 10.5821 16.3892 12.5707 13.1916 15.7877C4.67123 24.3077 4.67123 38.1309 13.1916 46.6704C17.52 50.9987 23.2133 53.1238 28.8675 53.0653C21.9849 54.3911 14.6149 52.3829 9.29212 47.0603C0.771747 38.5208 0.771747 24.6977 9.29212 16.1776Z" fill="#F77A4A"/>
<path d="M9.29212 16.1776C13.4841 11.9858 18.9823 9.8607 24.4806 9.78271C20.3472 10.5821 16.3892 12.5707 13.1916 15.7877C4.67123 24.3077 4.67123 38.1309 13.1916 46.6704C17.52 50.9987 23.2133 53.1238 28.8675 53.0653C21.9849 54.3911 14.6149 52.3829 9.29212 47.0603C0.771747 38.5208 0.771747 24.6977 9.29212 16.1776Z" stroke="#54200E"/>
<g opacity="0.7">
<path d="M41.5226 43.2045C47.9642 36.7631 48.0012 26.3566 41.6053 19.9611C35.2094 13.5654 24.8026 13.6025 18.3611 20.0438C11.9195 26.4851 11.8824 36.8914 18.2784 43.2871C24.6743 49.6828 35.0811 49.6458 41.5226 43.2045Z" fill="white"/>
<path d="M41.5226 43.2045C47.9642 36.7631 48.0012 26.3566 41.6053 19.9611C35.2094 13.5654 24.8026 13.6025 18.3611 20.0438C11.9195 26.4851 11.8824 36.8914 18.2784 43.2871C24.6743 49.6828 35.0811 49.6458 41.5226 43.2045Z" stroke="#54200E"/>
</g>
<g opacity="0.89">
<path d="M6.42603 21.27C6.66509 20.9615 6.99262 20.4395 7.34586 19.8766C7.88571 19.0162 8.48563 18.0601 8.9217 17.6241C17.5006 9.16252 31.3242 9.24051 39.7861 17.8385C41.4629 19.5347 42.8082 21.4454 43.8026 23.4926C31.7532 19.2618 18.5729 20.2756 6.42603 21.27Z" fill="#FBCCBD"/>
<path d="M6.42603 21.27C6.66509 20.9615 6.99262 20.4395 7.34586 19.8766C7.88571 19.0162 8.48563 18.0601 8.9217 17.6241C17.5006 9.16252 31.3242 9.24051 39.7861 17.8385C41.4629 19.5347 42.8082 21.4454 43.8026 23.4926C31.7532 19.2618 18.5729 20.2756 6.42603 21.27Z" stroke="#54200E"/>
</g>
<path d="M24.7341 53.4552C36.7944 53.4552 46.5712 43.6788 46.5712 31.619C46.5712 19.5591 36.7944 9.78271 24.7341 9.78271C12.6737 9.78271 2.89694 19.5591 2.89694 31.619C2.89694 43.6788 12.6737 53.4552 24.7341 53.4552Z" stroke="#54200E" strokeWidth="3.99258" stroke-miterlimit="10" strokeLinecap="round" strokeLinejoin="round"/>
<path d="M24.7341 53.4552C36.7944 53.4552 46.5712 43.6788 46.5712 31.619C46.5712 19.5591 36.7944 9.78271 24.7341 9.78271C12.6737 9.78271 2.89694 19.5591 2.89694 31.619C2.89694 43.6788 12.6737 53.4552 24.7341 53.4552Z" stroke="#54200E" strokeWidth="3.99258" stroke-miterlimit="10" strokeLinecap="round" strokeLinejoin="round"/>
<path d="M7.34229 18.4412C7.94671 17.6613 8.59012 16.901 9.31153 16.1796C17.8319 7.65954 31.6556 7.65954 40.1954 16.1796C41.8917 17.8758 43.237 19.767 44.2509 21.7946C32.1625 17.6613 19.4892 17.3494 7.34229 18.4412Z" fill="#F15B29"/>
<path d="M7.34229 18.4412C7.94671 17.6613 8.59012 16.901 9.31153 16.1796C17.8319 7.65954 31.6556 7.65954 40.1954 16.1796C41.8917 17.8758 43.237 19.767 44.2509 21.7946C32.1625 17.6613 19.4892 17.3494 7.34229 18.4412Z" stroke="#54200E"/>
<path d="M43.4437 33.2555C43.4437 37.709 39.8333 41.3193 35.3795 41.3193C30.9258 41.3193 27.3154 37.709 27.3154 33.2555C27.3154 28.802 30.9258 25.1917 35.3795 25.1917C39.8333 25.1917 43.4437 28.802 43.4437 33.2555Z" fill="#333333" stroke="#54200E" strokeWidth="0.249536"/>
<path d="M42.6249 33.3184C42.6249 34.757 41.4586 35.9232 40.02 35.9232C38.5814 35.9232 37.4151 34.757 37.4151 33.3184C37.4151 31.8798 38.5814 30.7136 40.02 30.7136C41.4586 30.7136 42.6249 31.8798 42.6249 33.3184Z" fill="white" stroke="#54200E" strokeWidth="0.249536"/>
<path d="M37.0369 87.8914C35.3211 87.8914 33.9173 86.4876 33.9173 84.7719V81.2625C33.9173 79.5468 35.3211 78.1431 37.0369 78.1431C38.7527 78.1431 40.1565 79.5468 40.1565 81.2625V84.7719C40.1565 86.4876 38.7722 87.8914 37.0369 87.8914Z" fill="#54200E"/>
<path d="M30.7976 87.8914C29.0819 87.8914 27.678 86.4876 27.678 84.7719V81.2625C27.678 79.5468 29.0819 78.1431 30.7976 78.1431C32.5134 78.1431 33.9172 79.5468 33.9172 81.2625V84.7719C33.9172 86.4876 32.5329 87.8914 30.7976 87.8914Z" fill="#54200E"/>
<path d="M43.237 87.8914C41.5213 87.8914 40.1174 86.4876 40.1174 84.7719V81.2625C40.1174 79.5468 41.5213 78.1431 43.237 78.1431C44.9528 78.1431 46.3566 79.5468 46.3566 81.2625V84.7719C46.3566 86.4876 44.9528 87.8914 43.237 87.8914Z" fill="#54200E"/>
<path d="M51.465 87.8914C49.7492 87.8914 48.3454 86.4876 48.3454 84.7719V81.2625C48.3454 79.5468 49.7492 78.1431 51.465 78.1431C53.1807 78.1431 54.5846 79.5468 54.5846 81.2625V84.7719C54.5846 86.4876 53.1807 87.8914 51.465 87.8914Z" fill="#54200E"/>
<path d="M57.6651 87.8914C55.9493 87.8914 54.5455 86.4876 54.5455 84.7719V81.2625C54.5455 79.5468 55.9493 78.1431 57.6651 78.1431C59.3809 78.1431 60.7847 79.5468 60.7847 81.2625V84.7719C60.7847 86.4876 59.3809 87.8914 57.6651 87.8914Z" fill="#54200E"/>
<path d="M63.9043 87.8914C62.1886 87.8914 60.7848 86.4876 60.7848 84.7719V81.2625C60.7848 79.5468 62.1886 78.1431 63.9043 78.1431C65.6201 78.1431 67.0239 79.5468 67.0239 81.2625V84.7719C67.0239 86.4876 65.6201 87.8914 63.9043 87.8914Z" fill="#54200E"/>
<path d="M45.6158 62.4067C45.6158 64.0445 44.29 65.3702 42.6522 65.3702C41.0144 65.3702 39.6886 64.0445 39.6886 62.4067" stroke="#54200E" strokeWidth="1.99629" stroke-miterlimit="10" strokeLinecap="round" strokeLinejoin="round"/>
<path d="M54.682 62.4067C54.682 64.0445 53.3562 65.3702 51.7184 65.3702C50.0806 65.3702 48.7548 64.0445 48.7548 62.4067" stroke="#54200E" strokeWidth="1.99629" stroke-miterlimit="10" strokeLinecap="round" strokeLinejoin="round"/>
<path opacity="0.31" d="M12.6846 54.84C12.2557 55.7564 11.1833 56.1658 10.2474 55.7369C9.31155 55.308 8.9216 54.2356 9.35054 53.2998" stroke="#F15B29" strokeWidth="1.99629" stroke-miterlimit="10" strokeLinecap="round" strokeLinejoin="round"/>
<path opacity="0.31" d="M18.4947 57.862C18.0658 58.7783 16.9934 59.1878 16.0576 58.7589C15.1412 58.3299 14.7318 57.2576 15.1607 56.3218" stroke="#F15B29" strokeWidth="1.99629" stroke-miterlimit="10" strokeLinecap="round" strokeLinejoin="round"/>
<path opacity="0.31" d="M15.1217 60.1853C14.6928 61.1016 13.6204 61.511 12.6845 61.0821C11.7682 60.6532 11.3587 59.5809 11.7877 58.645" stroke="#F15B29" strokeWidth="1.99629" stroke-miterlimit="10" strokeLinecap="round" strokeLinejoin="round"/>
<path opacity="0.31" d="M20.23 64.0617C19.8011 64.9781 18.7287 65.3875 17.7929 64.9586C16.8765 64.5296 16.467 63.4573 16.896 62.5215" stroke="#F15B29" strokeWidth="1.99629" stroke-miterlimit="10" strokeLinecap="round" strokeLinejoin="round"/>
<path opacity="0.31" d="M24.1295 60.5549C23.7006 61.4712 22.6282 61.8807 21.6923 61.4517C20.776 61.0228 20.3665 59.9505 20.7955 59.0146" stroke="#F15B29" strokeWidth="1.99629" stroke-miterlimit="10" strokeLinecap="round" strokeLinejoin="round"/>
<path opacity="0.31" d="M83.0118 55.2316C83.4407 56.148 84.5131 56.5574 85.449 56.1285C86.3848 55.6996 86.7748 54.6272 86.3458 53.6914" stroke="#F15B29" strokeWidth="1.99629" stroke-miterlimit="10" strokeLinecap="round" strokeLinejoin="round"/>
<path opacity="0.31" d="M77.2211 58.2541C77.65 59.1704 78.7224 59.5799 79.6582 59.1509C80.5746 58.722 80.9841 57.6497 80.5551 56.7139" stroke="#F15B29" strokeWidth="1.99629" stroke-miterlimit="10" strokeLinecap="round" strokeLinejoin="round"/>
<path opacity="0.31" d="M80.5746 60.572C81.0036 61.4883 82.0759 61.8977 83.0118 61.4688C83.9282 61.0399 84.3376 59.9676 83.9087 59.0317" stroke="#F15B29" strokeWidth="1.99629" stroke-miterlimit="10" strokeLinecap="round" strokeLinejoin="round"/>
<path opacity="0.31" d="M75.4857 64.4538C75.9147 65.3701 76.9871 65.7796 77.9229 65.3507C78.8393 64.9217 79.2488 63.8494 78.8198 62.9136" stroke="#F15B29" strokeWidth="1.99629" stroke-miterlimit="10" strokeLinecap="round" strokeLinejoin="round"/>
<path opacity="0.31" d="M71.5863 60.9416C72.0153 61.8579 73.0876 62.2674 74.0235 61.8384C74.9399 61.4095 75.3493 60.3372 74.9204 59.4014" stroke="#F15B29" strokeWidth="1.99629" stroke-miterlimit="10" strokeLinecap="round" strokeLinejoin="round"/>
<path d="M41.0923 69.5234C41.0923 71.1612 39.7665 72.4869 38.1287 72.4869C36.4909 72.4869 35.1651 71.1612 35.1651 69.5234" stroke="#54200E" strokeWidth="1.99629" stroke-miterlimit="10" strokeLinecap="round" strokeLinejoin="round"/>
<path d="M50.1586 69.5234C50.1586 71.1612 48.8328 72.4869 47.195 72.4869C45.5572 72.4869 44.2314 71.1612 44.2314 69.5234" stroke="#54200E" strokeWidth="1.99629" stroke-miterlimit="10" strokeLinecap="round" strokeLinejoin="round"/>
<path d="M59.225 69.5234C59.225 71.1612 57.8991 72.4869 56.2613 72.4869C54.6236 72.4869 53.2977 71.1612 53.2977 69.5234" stroke="#54200E" strokeWidth="1.99629" stroke-miterlimit="10" strokeLinecap="round" strokeLinejoin="round"/>
<ellipse cx="47" cy="101.02" rx="31.7857" ry="3.21429" fill="#FDE6DF"/>
</svg>
