<svg width="32" height="31" viewBox="0 0 32 31" fill="none" xmlns="http://www.w3.org/2000/svg">
<path d="M6.73304 15.5C6.73304 14.7878 7.31041 14.2104 8.02263 14.2104H10.6018C11.314 14.2104 11.8914 14.7878 11.8914 15.5C11.8914 16.2122 11.314 16.7896 10.6018 16.7896H8.02263C7.31041 16.7896 6.73304 16.2122 6.73304 15.5Z" fill="#A6DFFF"/>
<path d="M14.4706 14.2104C13.7584 14.2104 13.181 14.7878 13.181 15.5C13.181 16.2122 13.7584 16.7896 14.4706 16.7896H17.0498C17.762 16.7896 18.3394 16.2122 18.3394 15.5C18.3394 14.7878 17.762 14.2104 17.0498 14.2104H14.4706Z" fill="#A6DFFF"/>
<path d="M19.629 15.5C19.629 14.7878 20.2063 14.2104 20.9186 14.2104H23.4977C24.21 14.2104 24.7873 14.7878 24.7873 15.5C24.7873 16.2122 24.21 16.7896 23.4977 16.7896H20.9186C20.2063 16.7896 19.629 16.2122 19.629 15.5Z" fill="#A6DFFF"/>
<path d="M23.4977 21.948C24.21 21.948 24.7873 21.3706 24.7873 20.6584C24.7873 19.9461 24.21 19.3688 23.4977 19.3688H22.2082C21.4959 19.3688 20.9186 19.9461 20.9186 20.6584C20.9186 21.3706 21.4959 21.948 22.2082 21.948H23.4977Z" fill="#A6DFFF"/>
<path d="M10.6018 20.6584C10.6018 21.3706 10.0244 21.948 9.31222 21.948H8.02263C7.31041 21.948 6.73304 21.3706 6.73304 20.6584C6.73304 19.9461 7.31041 19.3688 8.02263 19.3688H9.31222C10.0244 19.3688 10.6018 19.9461 10.6018 20.6584Z" fill="#A6DFFF"/>
<path d="M13.181 19.3688C12.4688 19.3688 11.8914 19.9461 11.8914 20.6584C11.8914 21.3706 12.4688 21.948 13.181 21.948H18.9842C19.6964 21.948 20.2738 21.3706 20.2738 20.6584C20.2738 19.9461 19.6964 19.3688 18.9842 19.3688H13.181Z" fill="#A6DFFF"/>
<path fillRule="evenodd" clipRule="evenodd" d="M20.9185 5.82801C20.9185 5.11579 20.3411 4.53843 19.6289 4.53845C18.9166 4.53847 18.3393 5.11586 18.3393 5.82808C18.3393 6.05158 18.2617 6.41553 18.0665 6.68654C17.9188 6.89179 17.6611 7.11764 17.0498 7.11764C16.3665 7.11764 15.7157 7.25892 15.1812 7.63047C14.6232 8.01839 14.3282 8.56267 14.2105 9.09734C14.1664 9.29817 14.1463 9.49935 14.1445 9.69682H8.02263C5.17374 9.69682 2.86426 12.0063 2.86426 14.8552V21.3032C2.86426 24.152 5.17374 26.4615 8.02263 26.4615H23.4977C26.3466 26.4615 28.6561 24.152 28.6561 21.3032V14.8552C28.6561 12.0063 26.3466 9.69682 23.4977 9.69682H17.0498C18.5017 9.69682 19.5337 9.06294 20.1597 8.19353C20.7383 7.38988 20.9185 6.46424 20.9185 5.82801ZM15.7342 12.276C15.7522 12.2764 15.7701 12.2764 15.7881 12.276H23.4977C24.9222 12.276 26.0769 13.4308 26.0769 14.8552V21.3032C26.0769 22.7276 24.9222 23.8823 23.4977 23.8823H8.02263C6.59818 23.8823 5.44344 22.7276 5.44344 21.3032V14.8552C5.44344 13.4308 6.59818 12.276 8.02263 12.276H15.7342Z" fill="#A6DFFF"/>
</svg>
