<svg width="324" height="433" viewBox="0 0 324 433" fill="none" xmlns="http://www.w3.org/2000/svg">
<path d="M14.7321 70.9623C28.7885 47.6303 51.5538 31.7262 80.5593 24.9635C94.2604 21.7736 108.39 20.1513 122.564 20.1513C145.148 20.1513 167.968 24.0612 192.318 32.1181C200.808 34.9252 209.308 36.347 217.561 36.347C240.636 36.347 259.175 25.4648 269.751 5.71454C270.598 4.11957 273.687 0 277.677 0C277.904 0 278.132 0.0182282 278.351 0.0364564C282.742 0.565074 285.247 5.4958 285.702 6.47101C289.975 15.6671 291.159 25.2005 289.246 35.3809C289.856 35.2351 290.476 35.1531 291.114 35.1531C296.333 35.1531 298.274 40.2205 299.003 42.1345C304.004 55.2405 302.246 67.7633 293.928 78.363C287.005 87.1854 277.932 91.6605 266.964 91.6605C266.827 91.6605 266.69 91.6605 266.554 91.6605C281.721 117.544 288.362 142.098 286.276 164.755C283.944 190.138 270.671 213.853 246.795 235.289C256.351 244.814 267.419 253.882 280.482 262.914C283.47 264.974 285.83 266.605 286.55 269.568C287.297 272.675 285.766 275.309 283.999 278.363C282.596 280.769 280.464 284.25 277.713 287.367C285.074 293.793 292.48 300.373 299.659 306.744C305.443 311.875 311.419 317.189 317.332 322.375C326.104 330.085 322.77 336.438 321.677 338.525C319.591 342.508 316.165 344.613 311.784 344.613C309.761 344.613 307.529 344.166 304.96 343.246C300.269 341.56 295.586 339.874 290.713 338.115C291.897 339.983 293.072 341.815 294.247 343.62C298.748 350.519 295.641 355.094 293.391 357.209C291.022 359.433 288.608 359.897 286.996 359.897C283.972 359.897 281.448 358.302 279.817 357.108C276.738 354.857 273.595 352.606 270.717 350.546C270.143 351.841 269.359 353.116 268.202 354.165C266.153 356.006 264.076 356.398 262.7 356.398C259.339 356.398 256.833 354.265 255.012 352.715C254.793 352.533 254.583 352.351 254.374 352.178C252.743 350.829 251.113 349.471 249.491 348.122C245.856 345.087 242.094 341.952 238.341 338.981C232.911 341.223 227.573 343.574 221.934 346.053C221.296 346.336 220.659 346.609 220.021 346.892C221.187 352.506 220.376 357.446 217.57 361.83C221.287 363.461 224.813 365.001 228.347 366.286C232.037 367.626 236.309 369.094 240.454 369.577C249.3 370.597 254.975 375.537 257.316 384.278L257.426 384.688L257.735 388.898V389.983V392.143L256.815 398.824L256.487 401.111L250.375 415.557L249.691 416.778L249.527 417.052L249.427 417.189L249.527 417.972L234.159 431.498L232.428 431.917L230.406 432.619H229.905L227.236 432.874L221.032 431.516L189.148 405.276L191.835 402.004L188.638 404.793L187.736 403.764L188.629 402.934L187.69 403.7L186.624 402.396L186.442 402.661L181.805 397.329L181.332 395.688L181.077 395.351L180.102 393.966L180.029 393.847C179.655 393.237 179.264 392.635 178.881 392.034C177.925 390.548 176.923 389.008 176.075 387.285C174.317 383.703 173.342 383.348 171.384 383.348C171.165 383.348 170.937 383.348 170.701 383.375C170.373 383.394 170.054 383.412 169.744 383.412C163.048 383.412 157.847 378.7 155.833 370.989C153.665 372.092 151.315 372.666 148.937 372.666C145.184 372.666 141.394 371.226 138.27 368.61C136.83 367.407 135.519 366.897 133.879 366.897C132.731 366.897 131.365 367.143 129.442 367.699C127.875 368.155 126.29 368.784 124.614 369.449C123.895 369.731 123.175 370.023 122.455 370.297L114.912 374.225L110.631 377.26L105.192 381.088L99.4712 384.533L99.1979 383.913L98.6969 384.132L97.4397 384.478L94.479 385.235L86.7357 385.307L76.2413 382.737L74.8839 382.491L72.233 381.963L68.6437 381.999L67.0859 382.382L63.0503 384.56L59.1969 389.409L58.7141 389.764C55.1977 392.362 51.5629 393.674 47.9099 393.674C44.6577 393.674 41.4419 392.635 38.3628 390.575L38.0622 390.375L37.297 390.147L32.9334 383.102L32.4232 380.368L32.4506 373.97L33.1156 371.199L33.3615 370.716C39.9752 357.737 51.1894 350.811 67.6234 349.635C67.587 349.352 67.5414 349.079 67.505 348.796C66.8582 344.239 66.1932 339.527 65.6193 334.87C65.1273 330.896 66.4391 328.472 67.6234 327.132C68.7803 325.829 70.9485 324.27 74.7199 324.27C75.0388 324.27 75.3758 324.279 75.6673 324.307C75.7493 324.307 75.8313 324.307 75.9133 324.298H76.1501C77.6715 324.234 79.1017 324.179 80.3407 324.179C89.168 324.179 90.58 328.235 93.1308 335.608L93.2857 336.064C94.06 338.288 95.3718 340.448 96.8749 341.988C98.041 343.173 98.8335 343.601 99.1888 343.601C99.3892 343.601 100.182 343.483 101.995 341.979C110.649 334.779 120.26 329.958 130.572 327.615C111.778 311.046 99.9996 290.494 96.4467 268.073C92.812 245.114 97.9954 221.308 111.441 199.234C111.56 199.043 111.678 198.842 111.797 198.651C101.402 191.369 94.0782 181.771 90.0061 170.06C89.086 167.408 88.6761 163.27 90.5709 160.326C91.737 158.521 93.8049 157.61 96.72 157.61C98.0227 157.61 99.4985 157.783 100.783 158.084C103.179 158.649 105.383 159.05 107.442 159.287C100.765 156.17 93.9416 153.007 87.1639 150C85.597 149.307 84.0301 148.596 82.4541 147.885C75.2847 144.65 67.8603 141.314 60.4176 139.045C55.6167 137.586 50.8705 136.839 46.2974 136.839C35.8121 136.839 25.8004 140.74 16.5449 148.432C14.231 150.355 11.6894 152.142 8.83804 152.142C2.74359 152.142 1.66864 145.124 1.32245 142.809C-2.56741 117.298 2.19699 91.7789 14.7321 70.9623ZM227.755 415.676C227.782 416.049 227.846 416.314 227.901 416.496C228.074 416.459 228.329 416.387 228.666 416.222C235.608 412.96 243.415 395.889 241.529 388.124L241.493 387.941C241.383 387.413 241.292 386.994 241.201 386.656C241.074 386.702 240.928 386.757 240.773 386.82C233.458 390.475 230.77 397.83 228.447 405.677C227.664 408.348 227.427 411.711 227.755 415.685V415.676ZM86.9817 355.249C87.1274 355.668 87.2732 356.106 87.4007 356.543L87.7378 356.142L86.9817 355.249ZM127.393 347.065C127.32 346.354 127.256 345.643 127.192 344.932C123.931 346.099 120.897 347.703 118.019 349.763L117.226 350.419L117.099 350.273L117.053 350.291L116.989 350.145L114.958 347.821L116.771 350.729L115.277 351.658L114.521 352.251L113.582 353.044L112.516 353.909L112.352 353.928L111.615 354.465L108.098 356.288C104.527 358.138 100.847 360.061 97.1391 361.857C96.4285 362.203 95.6633 362.376 94.8616 362.376C93.5498 362.376 92.484 361.902 91.7825 361.593C91.6732 361.547 91.5639 361.492 91.5184 361.474L87.8198 360.344C87.7196 361.21 87.4463 362.057 86.927 362.887C85.0777 365.84 81.4338 366.15 79.2566 366.341L78.5369 366.405L77.8355 366.241C74.6106 365.493 71.7228 365.129 68.9899 365.129C64.4077 365.129 60.3538 366.195 56.6917 368.364L49.5496 374.416L49.495 375.264L48.3745 376.458C48.0374 376.813 47.8825 377.077 47.8188 377.214C47.8643 377.296 47.9645 377.424 48.1194 377.597C48.2834 377.415 48.4838 377.169 48.7206 376.831C53.8403 369.613 61.0644 365.794 69.6185 365.794C72.7978 365.794 76.1866 366.323 79.6848 367.362C83.0554 368.364 86.0252 368.847 88.7672 368.847C93.9233 368.847 98.4236 367.088 102.951 363.315C109.957 357.473 118.301 353.627 127.784 351.868C127.702 350.3 127.548 348.705 127.393 347.037V347.065ZM274.005 27.7524C262.117 40.6762 247.068 48.3958 228.484 51.0936L233.266 54.0466C237.648 55.8421 242.03 56.7444 246.303 56.7444C261.525 56.7444 273.45 44.896 274.024 29.1924C274.042 28.7185 274.024 28.2355 274.005 27.7433V27.7524ZM266.608 76.0207C271.947 76.0207 277.085 73.8151 280.719 69.978C284.172 66.3324 285.921 61.5931 285.657 56.6168V56.4254L285.675 55.4684C284.928 55.9423 284.19 56.4071 283.452 56.8628C280.291 58.8497 277.03 60.9004 273.987 63.0513C266.891 68.0641 259.894 70.9897 252.379 72.0287C254.665 73.3047 257.508 74.207 260.933 75.2004C262.8 75.7381 264.713 76.0207 266.608 76.0207ZM186.178 373.368C192.673 385.636 201.41 396.445 212.196 405.559C212.505 404.356 212.897 403.18 213.28 402.041C213.899 400.163 214.755 397.602 214.455 396.6C214.182 395.843 211.868 394.248 210.62 393.392C209.463 392.59 208.26 391.769 207.149 390.831L203.323 387.577L206.93 384.086C207.076 383.949 207.213 383.813 207.358 383.685L209.645 381.598L212.423 382.956C213.207 383.339 213.999 383.713 214.783 384.077C216.368 384.824 217.989 385.59 219.602 386.447C220.741 384.66 221.97 382.983 223.164 381.352C223.2 381.297 223.237 381.252 223.273 381.197L210.92 375.355L211.886 380.787L206.092 374.908L206.028 374.981L203.013 371.782L201.036 369.777L193.694 365.448C188.419 365.566 186.907 367.544 186.132 370.898C185.887 371.974 186.032 373.076 186.178 373.368ZM192.746 349.516C196.08 349.516 199.46 350.209 202.785 351.567C203.04 351.667 203.35 351.777 203.669 351.877C203.796 351.257 203.915 350.619 204.033 349.972C204.042 349.927 204.051 349.872 204.061 349.826L201.592 346.345L201.355 346.153C198.658 344.677 195.57 343.902 192.409 343.902C186.798 343.902 181.295 346.29 177.232 350.483L176.112 351.786L173.798 354.857L173.169 355.933L171.63 364.655C175.019 355.34 182.953 349.516 192.728 349.516H192.746ZM143.918 351.959C144.328 352.469 144.701 352.98 145.066 353.481C145.694 354.347 146.487 355.413 146.979 355.705C146.979 355.705 147.061 355.75 147.225 355.805C147.225 355.787 147.225 355.769 147.225 355.75C147.015 350.956 147.27 345.497 150.304 340.43C149.056 339.71 147.753 339.026 146.396 338.315C145.931 338.069 145.457 337.823 144.993 337.577C142.761 342.909 141.768 347.448 143.909 351.977L143.918 351.959ZM127.229 301.312C138.816 316.852 154.121 327.214 172.705 332.118C172.96 332.181 173.397 332.263 174.007 332.263C174.827 332.263 175.674 332.108 176.294 331.862C182.188 329.438 187.654 328.262 192.983 328.262C198.677 328.262 204.243 329.666 209.508 332.437C209.672 332.528 210.173 332.664 210.793 332.664C211.175 332.664 211.439 332.61 211.531 332.573C215.994 331.051 220.522 329.256 224.885 327.515C226.471 326.886 228.056 326.257 229.65 325.638L258.856 309.05L261.079 310.262L267 313.534L250.438 328.472L252.552 330.012C252.935 328.727 253.618 327.524 254.829 326.622C255.968 325.774 257.389 325.346 259.065 325.346C261.042 325.346 263.21 325.956 264.732 326.941C265.16 327.214 265.579 327.497 266.007 327.77C265.606 326.467 265.406 325.191 265.224 324.015C265.123 323.359 265.023 322.748 264.905 322.201L263.702 316.769L269.268 316.66C269.824 316.651 270.471 316.587 271.163 316.514C272.065 316.423 273.085 316.314 274.133 316.314C275.518 316.314 276.729 316.496 277.832 316.87C283.206 318.683 288.59 320.597 293.901 322.52C290.904 319.859 287.898 317.198 284.901 314.546C278.852 309.196 272.603 303.663 266.481 298.159C256.688 305.231 244.736 309.114 232.765 309.114C222.025 309.114 211.859 305.969 203.368 300.036C203.186 299.908 202.703 299.708 202.302 299.544C201.929 299.389 201.546 299.225 201.182 299.052L200.408 298.687L183.099 280.359L185.814 277.242L189.366 273.159L203.213 282.336L203.332 282.428C208.716 286.529 212.952 289.445 218.372 289.609L218.937 289.628L220.531 290.083C222.298 290.43 224.029 290.876 225.705 291.305C228.939 292.134 231.991 292.909 234.788 292.909C235.025 292.909 235.262 292.909 235.498 292.891C248.553 292.225 259.074 286.274 267.656 274.69C268.02 274.198 268.275 273.824 268.448 273.541C268.394 273.505 268.33 273.468 268.266 273.432C266.872 272.621 265.606 271.746 264.367 270.889C263.848 270.534 263.338 270.178 262.809 269.823L261.361 268.857L262.718 266.651L261.097 268.647L255.604 264.199L237.703 248.468L231.18 242.344L228.666 240.904L220.422 223.87L222.071 221.655L225.213 217.444L228.839 220.023C229.468 220.47 230.096 220.935 230.716 221.4C232.073 222.411 233.367 223.377 234.651 224.088C253.217 209.934 264.349 193.301 268.649 173.286C268.622 173.086 268.603 172.894 268.585 172.694L268.53 171.937L268.722 171.208C271.692 160.034 271.436 147.849 267.938 133.959C260.732 105.322 243.916 82.1453 216.541 63.1151C197.101 49.5989 174.718 41.0499 149.866 37.6412C155.861 43.4651 161.946 50.9113 165.663 60.4811C166 61.3561 166.328 62.2219 166.638 63.0969C171.985 56.9449 178.863 53.6091 186.369 53.6091C192.327 53.6091 198.349 55.7874 203.778 59.9161C219.893 72.1563 223.565 98.9973 211.33 115.138C207.55 120.124 202.63 123.432 196.864 124.918C199.478 128.345 202.084 131.908 204.042 135.919C211.567 151.303 210.984 167.08 202.366 181.544C201.892 182.337 201.464 183.239 201 184.205C200.763 184.706 200.517 185.217 200.271 185.718L199.861 186.538L199.159 187.14C198.003 188.124 196.882 189.19 195.689 190.311C192.846 192.991 189.904 195.762 186.269 197.767C181.241 200.537 175.93 202.67 170.783 204.739C168.669 205.587 166.492 206.462 164.397 207.364L164.014 207.528L163.604 207.619C158.439 208.786 153.192 209.378 148.008 209.378C140.702 209.378 133.268 208.202 125.89 205.887C105.657 237.431 106.121 273.058 127.183 301.303L127.229 301.312ZM16.1805 129.329C16.8546 128.964 17.5197 128.6 18.1755 128.226C26.7661 123.414 36.2038 120.971 46.2245 120.971C51.6813 120.971 57.5025 121.691 63.5331 123.122C74.5013 125.711 84.2852 130.714 93.7594 135.545C95.7544 136.566 97.7585 137.586 99.7718 138.589C114.193 145.753 131.109 153.463 149.393 154.329C150.076 154.365 150.759 154.375 151.442 154.375C158.575 154.375 165.408 152.579 171.739 149.025C171.83 148.97 171.894 148.933 171.93 148.906C172.012 148.578 172.003 147.758 172.003 147.202C172.003 146.345 171.985 145.37 172.131 144.313L172.313 143.018L181.177 132.391L184.183 138.972C184.912 140.576 185.704 142.153 186.46 143.693C188.273 147.348 190.159 151.13 191.27 155.186C192.045 157.984 191.252 159.816 190.451 160.864C189.685 161.866 188.228 163.069 185.631 163.069C184.985 163.069 184.402 162.996 183.882 162.942C183.737 162.924 183.536 162.905 183.381 162.887L183.09 162.933C182.379 163.042 181.714 163.079 181.131 163.106C180.876 163.115 180.521 163.133 180.275 163.161C169.289 171.026 156.708 176.494 142.87 179.429L142.624 179.484L142.378 179.511C140.811 179.666 139.235 179.83 137.668 179.994C133.387 180.441 128.969 180.897 124.569 181.225C124.359 181.243 124.15 181.252 123.931 181.252C122.419 181.252 121.098 180.86 120.041 180.541C119.704 180.441 119.367 180.331 119.03 180.259V178.846L113.455 178.727C120.952 187.504 130.973 192.225 143.991 193.137C145.439 193.237 146.897 193.292 148.309 193.292C159.095 193.292 168.961 190.275 177.633 184.333C186.943 177.953 191.908 170.26 192.828 160.818C193.53 150.72 191.343 143.31 185.941 137.477L185.686 137.204L184.766 135.809L183.272 134.305L175.547 126.549L175.237 126.002C175.019 125.61 174.827 125.2 174.627 124.781C174.554 124.617 174.454 124.407 174.39 124.271C163.103 113.735 156.817 99.7538 154.604 80.2952C153.62 71.6915 150.841 64.2544 146.314 58.2026L146.059 57.8563L145.339 56.3707L143.335 54.2562C141.768 52.9347 140.228 51.5584 138.734 50.2369C135.273 47.1746 132.011 44.2763 128.449 41.8428C123.047 38.1516 116.907 36.4382 109.128 36.4382C106.44 36.4382 103.534 36.6387 100.255 37.067C78.0997 39.9106 60.3811 46.9923 46.0879 58.7221C45.3227 59.351 44.5483 60.2989 43.7376 61.3105C43.2639 61.9029 42.7811 62.4862 42.2891 63.0513L40.9044 61.83L42.1434 63.2245L40.3305 65.0382L39.4286 65.9405L38.5086 66.8701L37.5429 67.8362L36.5135 68.8661L36.4315 68.939L35.7756 69.495C34.5823 71.3634 33.3524 73.2226 32.1591 75.0181C29.1711 79.5205 26.3561 83.7768 23.9876 88.3065C19.3507 97.1562 16.7909 107.628 16.1714 120.297V129.32L16.1805 129.329ZM118.365 174.918L119.066 175.592V174.817C118.839 174.854 118.602 174.89 118.365 174.918Z" fill="white"/>
<path d="M40.2489 386.273C40.5222 386.355 40.7317 386.528 40.8774 386.775C46.0882 390.256 51.1169 389.691 56.0088 386.073L56.191 386.273L55.9814 386.1C57.2568 384.496 58.5413 382.883 59.8167 381.279C59.8987 381.051 60.0535 380.905 60.2904 380.85C61.9757 379.939 63.6701 379.028 65.3554 378.125L65.5285 377.907L65.7927 377.989C66.5488 377.797 67.3049 377.615 68.061 377.423C69.5915 377.405 71.1219 377.396 72.6523 377.378C73.6909 377.588 74.7294 377.788 75.7679 377.998C76.2416 378.08 76.7153 378.171 77.1799 378.253C80.5414 379.073 83.8938 379.893 87.2553 380.723C89.469 380.705 91.6735 380.686 93.8872 380.668C94.698 380.458 95.4996 380.258 96.3104 380.048C96.6019 379.966 96.8843 379.884 97.1759 379.811C98.6516 379.173 100.127 378.535 101.594 377.897L101.539 377.952C101.922 377.715 102.314 377.487 102.696 377.25C104.464 376.002 106.24 374.762 108.007 373.514C109.52 372.447 111.023 371.372 112.535 370.305C115.222 368.911 117.91 367.507 120.597 366.113C123.12 365.165 125.598 364.062 128.176 363.315C132.722 362.002 136.876 361.51 141.185 365.11C145.157 368.437 150.523 369.321 155.178 366.076C158.676 363.643 159.268 364.846 159.878 368.227C161.063 374.762 164.871 379.201 170.391 378.827C175.921 378.444 178.144 381.16 180.157 385.271C181.214 387.422 182.644 389.399 183.901 391.459C184.165 391.842 184.438 392.225 184.703 392.608C184.958 392.945 185.204 393.282 185.459 393.619C185.595 394.111 185.741 394.604 185.878 395.096L185.987 395.214L186.16 394.959C186.16 394.959 186.461 395.023 186.47 395.032C186.816 395.46 187.153 395.889 187.499 396.317L187.463 396.271C188.702 397.784 189.941 399.297 191.189 400.81C191.189 400.81 191.134 400.756 191.134 400.765C191.435 401.111 191.735 401.448 192.036 401.795L192.009 401.758C202.357 410.271 212.706 418.783 223.046 427.296C224.521 427.615 225.997 427.943 227.473 428.262C228.074 428.207 228.675 428.143 229.286 428.089L229.605 428.052C230.106 427.879 230.607 427.706 231.099 427.533C231.381 427.46 231.663 427.396 231.946 427.323L244.663 416.131C244.627 415.839 244.736 415.621 245 415.484C245.219 415.174 245.447 414.855 245.665 414.545C245.856 414.208 246.039 413.88 246.23 413.543C248.161 408.986 250.083 404.438 252.015 399.881C252.097 399.316 252.179 398.741 252.261 398.176C252.552 396.062 252.844 393.938 253.135 391.824V389.983C253.135 389.682 253.135 389.39 253.135 389.09C253.044 387.877 252.953 386.674 252.871 385.462C251.086 378.772 247.095 374.935 239.89 374.106C235.426 373.596 230.998 372.119 226.744 370.579C221.287 368.592 216.022 366.095 210.028 363.552C217.024 357.382 216.787 350.71 214.528 344.321C222.335 340.903 229.769 337.558 237.312 334.469C238.295 334.068 240.126 334.624 241.056 335.362C246.531 339.691 251.842 344.221 257.225 348.668C259.558 350.592 262.209 353.399 265.105 350.792C266.927 349.152 267.283 345.898 268.33 343.291C272.421 346.226 277.477 349.79 282.46 353.444C285.001 355.304 287.579 356.388 290.23 353.891C292.845 351.439 292.161 348.833 290.394 346.117C286.987 340.894 283.708 335.581 279.772 329.347C289.429 332.828 297.937 335.9 306.464 338.962C312.121 340.994 315.583 340.256 317.605 336.419C320.001 331.853 317.651 328.763 314.289 325.81C300.952 314.09 287.743 302.214 274.37 290.539C272.12 288.57 271.501 287.367 273.778 284.897C276.201 282.272 278.214 279.192 280.027 276.084C283.234 270.561 283.043 270.251 277.868 266.678C264.231 257.263 251.423 246.864 240.136 235.043C292.307 190.667 292.963 140.53 257.754 86.1279C258.865 86.301 260.05 86.5015 261.234 86.6747C273.013 88.4337 282.961 84.943 290.321 75.5646C297.855 65.9584 299.058 55.1491 294.721 43.7747C292.972 39.1812 291.332 38.7163 287.215 41.2774C285.666 42.2344 284.136 43.2096 281.84 44.6496C286.714 31.8625 286.951 20.0325 281.539 8.41198C280.792 6.8079 279.189 4.74811 277.777 4.57495C276.556 4.42912 274.534 6.38865 273.732 7.88336C257.189 38.7801 223.465 47.2289 190.861 36.4561C154.659 24.4892 118.329 20.8436 81.5617 29.4109C21.8745 43.319 -1.40103 95.0232 5.78659 142.125C6.75223 148.477 8.56509 149.115 13.5937 144.932C27.8505 133.084 44.0203 129.301 61.7024 134.679C71.0581 137.531 79.9948 141.842 88.9679 145.825C100.692 151.029 112.271 156.562 123.84 161.921C116.042 165.083 107.916 164.436 99.6992 162.504C97.9411 162.094 94.9348 161.884 94.3518 162.787C93.4591 164.172 93.6504 166.769 94.2607 168.547C98.5605 180.914 106.568 190.348 117.91 197.21C116.971 198.769 116.133 200.182 115.286 201.585C89.0499 244.677 96.6475 292.608 134.854 325.318C135.738 326.075 136.976 327.907 136.712 328.28C135.701 329.702 134.289 331.47 132.75 331.789C122.237 333.949 113.054 338.661 104.865 345.469C100.601 349.015 97.5038 349.17 93.5866 345.169C91.546 343.091 89.8971 340.311 88.9406 337.54C85.8068 328.517 85.9617 328.463 76.278 328.827C75.9774 328.836 75.6677 328.864 75.3671 328.845C71.4499 328.581 69.6279 330.477 70.1016 334.305C70.9124 340.867 71.8871 347.411 72.7981 354.009C58.0949 353.991 44.9131 358.001 37.3793 372.775C37.2426 373.349 37.106 373.933 36.9602 374.507C36.9602 376.321 36.942 378.125 36.9329 379.939C37.024 380.431 37.1151 380.914 37.2062 381.406C38.2083 383.029 39.2104 384.642 40.2124 386.264L40.2489 386.273ZM36.2041 62.7411L36.1495 62.7958C36.4683 62.4768 36.7963 62.1487 37.1151 61.8297L37.0605 61.8844C37.3793 61.5654 37.6982 61.2373 38.017 60.9183L37.9714 60.9639C38.2903 60.6449 38.6091 60.3259 38.9279 60.0069L38.8824 60.0433C40.3127 58.421 41.5607 56.5617 43.2096 55.2037C59.6436 41.7149 78.8288 35.2256 99.681 32.5461C110.868 31.1152 121.544 31.6074 131.028 38.0875C136.53 41.8516 141.349 46.6274 146.478 50.9475L146.432 50.9019C147.316 51.8315 148.191 52.7612 149.074 53.6908L149.184 53.8549C149.448 54.4017 149.712 54.9394 149.976 55.4863C155.369 62.7046 158.148 71.044 159.141 79.7936C160.944 95.6248 165.636 109.961 177.679 121.108C178.399 121.773 178.717 122.876 179.218 123.778C181.669 126.239 184.12 128.691 186.57 131.151L186.515 131.106C187.135 131.735 187.763 132.364 188.383 132.993L188.319 132.938C188.638 133.421 188.957 133.904 189.276 134.396C196.336 142.016 198.067 151.248 197.365 161.21C196.236 173.104 189.695 181.607 180.202 188.105C169.198 195.643 156.89 198.623 143.663 197.694C129.279 196.682 117.099 191.195 108.18 179.456C107.297 177.971 106.413 176.485 105.53 175.009C107.033 174.708 108.536 174.398 110.048 174.124C110.339 174.07 110.649 174.124 110.95 174.134C109.274 172.52 108.618 171.299 111.861 171.044C119.577 170.433 127.165 169.33 133.697 164.6C134.107 164.309 134.845 164.354 135.41 164.418C141.185 165.047 146.952 165.703 153.693 166.469C149.32 168.255 145.749 170.205 141.932 171.181C134.699 173.031 127.329 174.316 120.014 175.838C121.417 176.148 122.847 176.813 124.223 176.713C130.126 176.266 136.02 175.592 141.914 175.009C155.014 172.229 167.075 167.107 177.97 159.232C179.055 158.448 180.895 158.694 182.38 158.466C183.992 157.874 187.836 159.961 186.862 156.434C185.422 151.212 182.516 146.381 180.02 140.904C178.69 142.499 177.661 143.729 176.631 144.968C176.24 147.812 177.479 151.066 173.962 153.034C166.228 157.364 157.874 159.323 149.174 158.913C130.673 158.038 114.002 150.774 97.7498 142.699C86.2623 136.994 75.1575 130.586 62.4949 127.588C47.8647 124.134 33.79 124.744 20.4169 132.236C17.7386 133.74 15.0239 135.162 11.6442 136.994V120.233C12.2181 108.357 14.45 96.7914 19.9796 86.2372C23.5689 79.3834 28.1784 73.0674 32.3325 66.5052C32.7242 66.1771 33.1068 65.849 33.4985 65.5209L33.4348 65.5756C33.7536 65.2475 34.0815 64.9285 34.4004 64.6004L34.3457 64.6642C34.6646 64.3361 34.9925 64.0171 35.3114 63.689L35.2476 63.7437C35.5664 63.4155 35.8853 63.0966 36.2132 62.7684L36.2041 62.7411ZM45.9972 371.545L45.9607 371.518C46.2978 371.235 46.6348 370.943 46.9719 370.661H46.9355C47.2634 370.369 47.6005 370.087 47.9284 369.795H47.9011C48.2199 369.494 48.5388 369.203 48.8576 368.902L48.7756 368.802C49.3951 368.2 50.0146 367.608 50.6249 367.006L50.6704 367.07C59.1061 360.125 68.7169 359.441 78.8925 361.811C83.994 361.364 84.076 360.38 82.2723 355.632C80.0039 349.671 78.7559 343.337 77.0615 337.157C78.3824 334.633 79.9128 334.551 81.6801 336.893C83.0102 340.11 84.3402 343.328 85.6793 346.554C85.989 346.964 86.3079 347.383 86.6176 347.794C86.9 348.131 87.1824 348.459 87.4648 348.796L87.4466 348.732C87.7381 349.079 88.0296 349.416 88.3212 349.762L88.3576 349.671C90.3344 350.892 92.375 352.041 94.2516 353.408C94.5887 353.654 94.2516 354.811 94.2425 355.541C93.7961 356.069 93.3406 356.607 92.8942 357.135C93.6686 357.372 94.6524 358.038 95.1808 357.783C99.9088 355.486 104.564 353.016 109.237 350.601C109.702 350.263 110.157 349.926 110.622 349.58H110.677C110.995 349.306 111.314 349.033 111.633 348.769L111.815 348.96L111.642 348.751C111.97 348.495 112.298 348.24 112.617 347.976L112.681 347.93C113.245 347.575 113.819 347.219 114.384 346.873L114.32 346.928C114.658 346.645 114.985 346.372 115.323 346.089H115.359C120.497 342.389 126.127 339.992 132.549 338.807C132.185 341.013 131.948 342.498 131.702 343.975C131.975 347.283 132.412 350.582 132.412 353.891C132.412 354.656 131.037 355.978 130.153 356.115C121.098 357.546 112.799 361.082 105.894 366.842C97.4127 373.915 88.804 374.835 78.4097 371.745C68.6623 368.847 59.1152 370.114 52.4651 379.483C50.7798 381.862 48.4568 383.776 45.6237 381.461C42.8361 379.192 42.3441 376.248 45.0862 373.349C45.1044 373.085 45.159 372.821 45.241 372.566C45.5052 372.228 45.7603 371.882 46.0245 371.545H45.9972ZM204.826 367.052C205.136 367.38 205.446 367.708 205.746 368.027L205.846 367.899C214.109 371.809 222.371 375.719 230.734 379.675C230.333 380.03 229.495 380.768 228.648 381.516C226.653 384.341 224.485 387.048 222.736 390.019C221.47 392.179 220.294 392.042 218.409 390.985C215.822 389.527 213.089 388.342 210.41 387.039C210.301 387.139 210.183 387.248 210.073 387.358C213.125 389.955 217.807 392.052 218.782 395.269C219.83 398.705 217.37 403.207 216.45 407.254V413.907C215.065 413.333 214.464 413.224 214.027 412.896C200.699 402.742 189.977 390.32 182.134 375.51C181.314 373.96 181.268 371.645 181.678 369.868C183.172 363.452 187.445 360.699 194.933 360.9C197.93 362.668 200.936 364.436 203.933 366.204L203.87 366.168C204.188 366.496 204.507 366.815 204.826 367.143V367.061V367.052ZM172.65 348.851C172.942 348.504 173.242 348.167 173.534 347.821V347.784C181.569 339.099 194.168 336.829 203.86 342.334L204.088 342.507C204.38 342.735 204.662 342.972 204.954 343.2C206.275 345.059 207.595 346.928 208.916 348.787C208.342 351.567 207.996 354.438 206.921 357.008C206.766 357.372 202.968 356.57 201.064 355.796C189.13 350.92 177.633 356.744 174.992 369.522C174.126 373.723 171.867 373.24 169.58 371.837C168.168 370.971 167.54 368.82 166.565 367.243L168.842 354.347C169.207 353.727 169.562 353.107 169.927 352.487L169.945 352.433C170.856 351.22 171.767 350.017 172.678 348.805L172.65 348.851ZM263.93 265.074C264.413 265.393 264.896 265.721 265.37 266.04C267.1 267.198 268.777 268.446 270.571 269.494C274.589 271.828 273.76 274.133 271.337 277.405C262.409 289.445 250.703 296.682 235.754 297.438C230.397 297.712 224.913 295.561 219.493 294.513C219.083 294.394 218.664 294.276 218.254 294.157C211.221 293.947 205.874 290.065 200.59 286.046C197.128 283.749 193.657 281.452 190.196 279.155C189.886 279.511 189.576 279.875 189.257 280.231C193.885 285.125 198.513 290.028 203.132 294.932C204.088 295.378 205.127 295.706 205.983 296.299C223.802 308.767 247.706 306.361 264.276 294.13C266.381 292.571 267.41 292.863 269.178 294.449C279.408 303.663 289.775 312.732 300.06 321.891C304.041 325.446 307.912 329.119 311.839 332.737C310.39 333.193 309.388 332.992 308.441 332.646C297.764 328.8 287.133 324.808 276.383 321.18C274.288 320.469 271.71 321.162 269.36 321.208C269.843 323.395 269.897 325.81 270.899 327.733C273.523 332.801 276.566 337.65 279.435 342.58C279.554 342.617 279.681 342.626 279.781 342.69C279.836 342.735 279.836 342.863 279.854 342.954C279.708 342.835 279.563 342.717 279.426 342.599C273.723 338.625 268.093 334.533 262.263 330.759C261.015 329.948 258.51 329.556 257.553 330.267C256.597 330.978 256.615 333.329 256.633 334.952C256.652 336.255 257.307 337.549 257.681 338.853C257.881 339.208 258.091 339.564 258.255 339.928C258.273 339.965 258.064 340.119 257.954 340.211C257.754 339.846 257.553 339.491 257.353 339.126C253.153 336.073 248.954 333.02 243.206 328.845C249.072 323.559 254.137 318.993 259.202 314.427C259.102 314.372 259.002 314.317 258.902 314.263L231.609 329.757C225.414 332.163 219.283 334.733 212.998 336.884C211.34 337.449 208.935 337.276 207.386 336.465C197.593 331.324 187.918 332.008 178.016 336.073C176.094 336.857 173.543 337.048 171.539 336.519C151.78 331.315 135.765 320.397 123.567 304.037C100.392 272.958 101.703 234.742 122.492 202.807C123.157 201.786 125.571 201.002 126.755 201.385C138.58 205.194 150.504 205.924 162.63 203.189C169.817 200.118 177.287 197.548 184.101 193.793C188.629 191.305 192.218 187.121 196.236 183.694C196.983 182.209 197.638 180.659 198.495 179.237C206.539 165.739 206.757 151.768 199.998 137.951C197.074 131.972 192.391 126.85 188.465 121.272C196.072 121.554 202.795 118.948 207.75 112.413C218.436 98.3225 215.175 74.2795 201.073 63.5705C189.339 54.6569 175.884 56.981 167.695 69.3306C166.975 70.4152 166.192 71.4451 165.244 72.7757C163.887 68.9296 162.766 65.5118 161.473 62.1578C157.237 51.2391 149.548 42.9817 140.793 35.5629C138.889 34.5603 136.986 33.5669 133.843 31.9172C136.548 31.9172 137.723 31.8443 138.88 31.9263C168.05 34.0499 195.088 42.6354 219.192 59.3962C245.428 77.6335 264.468 101.339 272.402 132.874C275.691 145.925 276.693 159.159 273.168 172.411C273.195 172.858 273.341 173.332 273.25 173.76C268.385 197.056 255.012 214.655 236.309 228.599C235.544 229.164 233.558 228.709 232.483 228.107C230.279 226.877 228.302 225.236 226.234 223.76C226.079 223.969 225.924 224.179 225.76 224.389C227.901 228.818 230.042 233.238 232.183 237.668C232.766 238.005 233.349 238.333 233.941 238.67L233.923 238.652C236.2 240.785 238.468 242.927 240.746 245.059C246.695 250.282 252.634 255.504 258.583 260.727C260.387 262.194 262.199 263.652 264.003 265.12L263.939 265.083L263.93 265.074ZM161.819 344.157C163.194 343.865 164.552 343.51 165.946 343.373C166.082 343.364 166.346 344.695 166.556 345.397C165.007 347.803 163.459 350.209 161.919 352.606L159.888 357.746C159.405 357.682 158.913 357.619 158.43 357.546V350.756C159.56 348.55 160.689 346.354 161.819 344.148V344.157ZM141.021 335.262C141.896 333.576 141.887 330.632 145.184 332.473C148.345 334.241 151.634 335.781 154.668 337.732C155.378 338.187 155.897 340.402 155.451 340.967C151.971 345.324 151.552 350.291 151.771 355.541C151.844 357.227 151.516 360.353 151.097 360.398C148.983 360.635 146.451 360.654 144.692 359.642C142.779 358.539 141.568 356.233 140.046 354.447C136.667 347.866 138.316 341.532 141.003 335.253L141.021 335.262ZM243.861 70.0779C242.932 69.4855 241.994 68.8931 239.853 67.5351C252.488 69.121 262.309 65.7305 271.364 59.3415C276.411 55.7779 281.767 52.6518 286.942 49.2522C289.055 47.8669 289.939 48.1677 289.538 50.8016C289.793 51.0021 289.902 51.2665 289.866 51.5854C289.993 52.588 290.13 53.5997 290.258 54.6022L290.203 56.3795C291.059 72.2106 275.563 84.1866 259.667 79.5839C253.727 77.8614 247.469 75.993 243.861 70.0779ZM277.349 18.9934C277.786 22.4568 278.706 25.9293 278.579 29.3744C277.722 52.4148 255.768 68.4283 231.181 58.1294C226.307 55.1126 221.424 52.0958 216.55 49.0882C215.457 48.6051 214.364 48.1221 213.271 47.6482C240.054 47.4932 261.972 38.5067 277.577 16.004C277.504 17.0066 277.431 18.0091 277.358 19.0117L277.349 18.9934ZM176.203 68.9296C176.003 68.8567 175.802 68.7837 175.602 68.7199C175.693 68.6288 175.793 68.5377 175.884 68.4465C182.534 62.8687 189.667 62.5771 196.682 67.5898C208.461 76.0021 212.023 95.7888 203.915 107.747C200.171 113.27 195.161 115.73 189.367 114.938C191.171 113.261 193.284 111.757 194.833 109.797C203.205 99.161 200.335 78.7272 189.449 70.7433C185.377 67.763 180.995 66.7786 176.203 68.9387V68.9296ZM245.957 387.048C248.362 396.937 239.489 416.177 230.607 420.351C226.772 422.155 223.601 420.615 223.219 416.058C222.9 412.203 222.991 408.056 224.075 404.383C226.653 395.643 229.869 387.066 238.933 382.646C243.561 380.823 244.882 381.652 245.957 387.048ZM182.061 84.6605C179.082 87.0666 177.36 89.3087 175.238 89.8008C174.263 90.0287 171.575 86.939 171.302 85.1162C170.856 82.0721 172.732 79.1465 176.176 79.5566C177.916 79.7571 179.382 82.2362 182.052 84.6696L182.061 84.6605Z" fill="#162B6E"/>
<path d="M140.783 35.5535C149.547 42.9632 157.235 51.2206 161.462 62.1484C162.765 65.5024 163.876 68.9202 165.234 72.7663C166.181 71.4357 166.974 70.3967 167.684 69.3212C175.874 56.9807 189.338 54.6566 201.062 63.5611C215.164 74.2701 218.416 98.304 207.74 112.404C202.784 118.938 196.061 121.545 188.454 121.262C192.39 126.84 197.063 131.962 199.987 137.941C206.747 151.758 206.528 165.73 198.484 179.228C197.637 180.659 196.972 182.199 196.234 183.685C196.28 183.986 196.435 184.323 196.353 184.578C190.386 201.703 180.055 215.01 163.193 222.675C161.681 223.359 159.558 224.653 159.349 225.92C158.128 233.457 156.643 241.076 156.679 248.659C156.716 257.309 158.192 265.958 159.157 274.598C159.677 279.283 162.291 281.898 166.919 281.397C170.362 281.023 173.66 279.292 178.661 277.615C176.293 280.094 174.708 281.716 173.168 283.384C172.23 284.396 171.355 285.471 170.453 286.519C171.783 287.002 173.195 288.023 174.434 287.841C176.493 287.549 178.443 286.492 180.438 285.754C179.017 291.66 174.544 293.81 169.424 291.177C168.386 290.648 167.083 290.648 165.899 290.402C166.217 291.66 166.227 293.127 166.919 294.139C169.697 298.222 172.694 302.168 175.6 306.16C176.548 307.035 177.486 307.91 178.434 308.776C178.734 309.077 179.035 309.377 179.335 309.678C180.538 310.216 181.914 310.535 182.907 311.328C191.625 318.336 211.038 319.403 221.149 313.096C219.163 311.592 217.159 310.307 215.438 308.721C210.901 304.529 205.089 301.448 203.148 294.932C198.521 290.037 193.893 285.134 189.265 280.24C189.575 279.884 189.885 279.52 190.203 279.164C193.665 281.461 197.136 283.758 200.598 286.054C202.201 285.69 203.804 285.325 205.417 284.97C207.685 282.144 207.548 279.064 206.164 276.002C205.171 273.805 203.659 271.836 202.729 269.622C202.247 268.473 202.52 266.997 202.456 265.675C203.613 266.058 204.961 266.204 205.9 266.887C207.603 268.127 208.942 269.877 210.673 271.053C211.821 271.836 213.397 272 214.782 272.447C215.091 270.916 215.957 269.248 215.601 267.89C214.763 264.7 213.215 261.702 212.222 258.548C211.83 257.299 212.122 255.841 212.103 254.474C213.388 254.957 214.873 255.176 215.92 255.969C219.136 258.43 222.106 261.209 225.349 263.615C226.087 264.162 227.973 264.144 228.592 263.57C229.257 262.959 229.539 261.173 229.139 260.298C228.073 257.992 226.706 255.777 225.149 253.763C223.764 251.986 221.778 250.664 220.43 248.869C219.792 248.012 220.029 246.49 219.874 245.278C220.967 245.323 222.17 245.087 223.144 245.451C226.233 246.636 229.139 248.523 232.318 249.17C233.949 249.498 235.998 247.775 237.857 246.973C236.554 244.202 235.26 241.432 233.958 238.652L233.976 238.67C233.393 238.333 232.81 238.005 232.218 237.668C230.077 233.238 227.936 228.818 225.795 224.388C225.95 224.179 226.105 223.969 226.269 223.76C228.337 225.236 230.314 226.877 232.518 228.107C233.593 228.708 235.579 229.164 236.344 228.599C255.047 214.655 268.42 197.055 273.285 173.76C273.376 173.331 273.239 172.866 273.203 172.411C275.179 158.357 273.294 144.658 269.249 131.206C268.657 129.237 267.354 126.731 265.687 125.956C258.144 122.456 256.996 120.57 258.408 112.294C258.745 110.326 259.155 107.71 258.199 106.297C253.097 98.8053 248.142 91.0948 242.084 84.405C220.594 60.6719 193.683 45.8797 162.737 38.4244C155.614 36.711 148.135 36.474 140.81 35.5535H140.783ZM245.336 199.489C244.826 203.262 240.662 205.231 235.233 203.845C233.265 203.344 230.97 203.317 228.984 203.791C224.429 204.875 220.411 202.706 219.801 198.559C221.532 199.161 223.308 200.172 225.139 200.291C226.406 200.373 227.763 199.243 229.075 198.659C228.282 197.739 227.453 196.846 226.715 195.88C225.258 193.984 223.855 192.061 222.552 190.302C226.169 191.696 229.221 193.738 232.318 193.82C235.506 193.911 238.759 192.097 243.149 190.757C240.772 193.091 238.886 194.95 236.982 196.791C236.381 197.374 235.734 197.921 235.106 198.495C235.789 199.215 236.499 200.582 237.146 200.555C239.852 200.437 242.548 199.899 245.336 199.498V199.489ZM186.887 249.862C186.077 252.068 185.995 253.207 185.393 253.781C182.16 256.853 179.044 260.143 175.418 262.677C170.071 266.413 163.566 263.05 162.701 256.488C168.322 261.711 171.027 261.975 173.979 258.065C172.111 255.376 170.335 252.824 168.55 250.263C168.877 249.908 169.205 249.552 169.524 249.206C174.462 255.941 180.055 255.094 186.878 249.853L186.887 249.862ZM215.392 229.738C214.117 235.043 209.908 237.668 205.207 236.565C200.661 235.499 198.439 232.792 199.122 229.182C204.761 234.332 207.047 234.45 215.392 229.738ZM206.975 210.462C205.909 215.128 202.547 217.343 198.074 216.751C193.283 216.113 190.677 213.342 190.932 208.876C195.715 214.235 201.071 214.5 206.975 210.471V210.462Z" fill="#24A5EE"/>
<path d="M141.921 174.971C136.027 175.564 130.133 176.229 124.23 176.676C122.855 176.776 121.424 176.11 120.022 175.801C116.997 175.236 113.982 174.67 110.957 174.105C110.657 174.105 110.347 174.042 110.055 174.096C108.543 174.379 107.04 174.689 105.537 174.98C106.421 176.466 107.304 177.952 108.188 179.428C109.855 180.048 111.549 180.604 113.189 181.287C117.635 183.137 121.916 185.635 126.535 186.801C140.874 190.438 155.085 188.961 168.823 183.885C178.224 180.412 186.814 175.409 192.964 167.078C194.421 165.101 195.906 163.15 197.373 161.182C198.074 151.22 196.352 141.987 189.283 134.368C188.964 133.885 188.646 133.402 188.327 132.91L188.39 132.964C187.771 132.335 187.142 131.707 186.523 131.078L186.578 131.123C184.127 128.663 181.677 126.211 179.226 123.75C178.725 122.848 178.406 121.754 177.686 121.08C165.643 109.924 160.952 95.5966 159.148 79.7654C158.155 71.0159 155.377 62.6765 149.984 55.4581C149.719 54.9113 149.455 54.3735 149.191 53.8267L149.082 53.6626C148.198 52.733 147.324 51.8034 146.44 50.8737L146.485 50.9193C145.602 50.3907 144.691 49.8985 143.825 49.3334C138.405 45.8154 133.058 42.1698 127.51 38.8705C126.59 38.3236 124.185 38.752 123.511 39.5722C117.626 46.7906 106.658 46.0797 101.747 38.1413C101.009 36.9474 99.0782 35.5711 97.8757 35.717C82.5895 37.5398 67.941 41.6047 54.5861 49.4793C49.1657 52.6783 44.1007 56.4789 38.8808 60.006L38.9263 59.9696C38.6075 60.2886 38.2887 60.6076 37.9698 60.9266L38.0154 60.881C37.6965 61.2 37.3777 61.5281 37.0589 61.8471L37.1135 61.7924C36.7947 62.1114 36.4667 62.4395 36.1479 62.7585L36.2025 62.7038C35.8837 63.0319 35.5648 63.3509 35.2369 63.679L35.3006 63.6243C34.9818 63.9524 34.6539 64.2714 34.335 64.5995L34.3897 64.5357C34.0708 64.8638 33.7429 65.1828 33.424 65.5109L33.4878 65.4563C33.0961 65.7844 32.7135 66.1125 32.3218 66.4406C28.1677 72.9936 23.5582 79.3188 19.9689 86.1726C14.4302 96.7358 12.1983 108.293 11.6335 120.168C14.8583 113.807 18.5933 107.846 24.6058 103.663C39.4274 93.3363 58.23 96.6447 73.3522 106.789C85.2131 114.745 96.7643 123.203 108.99 130.54C125.679 140.556 143.962 145.797 163.575 145.669C167.93 145.642 172.284 145.168 176.639 144.904C177.668 143.664 178.698 142.434 180.028 140.839C182.533 146.317 185.43 151.138 186.869 156.369C187.844 159.897 184 157.809 182.387 158.402C172.184 167.771 159.959 172.939 146.549 175.536C145.101 175.819 143.47 175.163 141.921 174.944V174.971ZM92.3643 40.593C94.3776 42.2153 95.6802 43.2726 96.9921 44.3207C95.1245 45.5511 93.3846 47.3921 91.344 47.8023C90.0686 48.0666 88.3469 46.1982 86.8347 45.2959C88.5017 43.8832 90.1688 42.4705 92.3643 40.593Z" fill="#5C6A7A"/>
<path d="M162.638 203.181C150.513 205.915 138.598 205.186 126.764 201.376C125.58 200.993 123.166 201.786 122.501 202.798C101.712 234.743 100.4 272.949 123.576 304.028C135.774 320.388 151.789 331.307 171.548 336.511C173.552 337.039 176.112 336.848 178.025 336.064C187.927 331.999 197.602 331.316 207.395 336.456C208.943 337.267 211.348 337.44 213.006 336.875C219.292 334.733 225.423 332.163 231.618 329.748C225.268 328.545 218.682 328.025 212.615 325.975C202.685 322.621 193.092 318.264 183.354 314.327C169.717 311.009 157.974 304.365 147.38 295.114C135.573 284.816 127.557 272.393 123.958 257.245C120.515 242.754 129.16 230.204 143.845 227.643C148.436 226.841 152.991 225.902 157.564 225.018C159.259 217.736 160.953 210.463 162.648 203.181H162.638Z" fill="#B4912C"/>
<path d="M176.628 144.921C172.273 145.185 167.919 145.659 163.565 145.686C143.951 145.805 125.668 140.573 108.979 130.557C96.7534 123.211 85.1931 114.762 73.3413 106.806C58.2191 96.6616 39.4165 93.3532 24.5949 103.679C18.5824 107.863 14.8474 113.823 11.6226 120.185C11.6226 125.462 11.6226 130.739 11.6226 136.946C15.0023 135.114 17.7261 133.692 20.3953 132.188C33.7684 124.697 47.843 124.077 62.4733 127.54C75.1359 130.53 86.2407 136.946 97.7282 142.651C113.98 150.726 130.651 157.981 149.153 158.865C157.853 159.275 166.206 157.316 173.941 152.987C177.466 151.018 176.218 147.764 176.61 144.921H176.628Z" fill="#455677"/>
<path d="M183.356 314.327C193.094 318.265 202.687 322.621 212.617 325.975C218.684 328.026 225.27 328.545 231.62 329.748C240.72 324.581 249.812 319.413 258.913 314.254C259.013 314.309 259.113 314.364 259.213 314.419C254.148 318.985 249.083 323.551 243.216 328.837C248.965 333.02 253.164 336.074 257.364 339.118L257.692 338.844C257.318 337.541 256.653 336.247 256.635 334.943C256.617 333.321 256.59 330.97 257.555 330.259C258.512 329.548 261.017 329.94 262.265 330.751C268.095 334.524 273.725 338.616 279.428 342.59V342.572C276.567 337.632 273.525 332.783 270.901 327.725C269.899 325.802 269.844 323.387 269.361 321.199C271.712 321.154 274.281 320.461 276.385 321.172C287.135 324.799 297.766 328.791 308.442 332.638C309.39 332.984 310.392 333.184 311.84 332.729C307.914 329.11 304.042 325.437 300.061 321.883C289.786 312.723 279.41 303.655 269.179 294.44C267.412 292.845 266.383 292.563 264.278 294.121C247.717 306.353 223.803 308.759 205.985 296.291C205.128 295.698 204.09 295.37 203.133 294.914C205.074 301.431 210.886 304.511 215.422 308.704C217.144 310.299 219.148 311.575 221.134 313.079C211.022 319.386 191.6 318.319 182.891 311.311C181.898 310.518 180.523 310.199 179.32 309.661L179.22 309.77C180.596 311.283 181.971 312.805 183.338 314.318L183.356 314.327Z" fill="#207EC5"/>
<path d="M210.427 387.037C213.096 388.34 215.838 389.525 218.425 390.983C220.311 392.049 221.477 392.177 222.752 390.017C224.501 387.046 226.679 384.339 228.665 381.513C227.344 380.675 226.114 379.645 224.702 379.043C220.867 377.394 216.749 376.3 213.151 374.268C210.399 372.718 208.268 370.066 205.863 367.897L205.763 368.025C205.453 367.696 205.143 367.368 204.842 367.049L204.852 367.131C204.533 366.803 204.214 366.484 203.895 366.156L203.959 366.193C200.843 364.689 197.728 363.176 194.612 361.672C184.619 364.789 181.722 373.247 188.299 381.258C193.665 387.793 199.349 394.118 205.407 400.006C208.514 403.023 212.75 404.873 216.467 407.242C217.396 403.205 219.846 398.703 218.799 395.257C217.824 392.031 213.141 389.935 210.09 387.346C209.926 387.1 209.762 386.845 209.589 386.599C209.862 386.745 210.144 386.891 210.418 387.037H210.427ZM200.934 378.478C196.134 378.579 193.346 376.382 192.189 372.454C192.499 372.117 192.808 371.78 193.118 371.442C195.724 373.785 198.329 376.136 200.934 378.478Z" fill="#E5886D"/>
<path d="M205.409 284.953C203.805 285.318 202.193 285.673 200.589 286.038C205.873 290.066 211.221 293.94 218.253 294.158C217.998 291.47 217.734 288.781 217.479 286.092C217.37 285.956 217.269 285.819 217.16 285.673C217.279 285.801 217.397 285.928 217.515 286.056L221.305 287.405C221.888 287.605 222.471 287.806 223.054 288.006C223.355 288.134 223.665 288.252 223.965 288.38C224.32 288.508 224.676 288.635 225.022 288.763C227.39 289.018 229.759 289.264 232.137 289.519C235.188 287.624 233.284 285.409 232.629 283.203C232.319 282.146 232.419 280.961 232.328 279.84C233.448 279.758 234.614 279.43 235.68 279.63C238.477 280.168 241.219 280.943 245.255 281.927C243.588 279.448 242.64 278.282 241.975 276.978C241.483 276.012 240.836 274.581 241.228 273.879C241.593 273.205 243.196 273.005 244.262 272.968C246.311 272.904 248.37 273.096 250.42 273.187C249.8 271.127 249.181 269.067 248.562 267.007C248.47 266.716 248.37 266.433 248.27 266.151C247.742 265.221 247.213 264.291 246.539 263.116H255.767C256.095 262.933 256.423 262.751 256.751 262.56L256.924 262.706C251.03 258.012 245.127 253.327 239.224 248.633C236.272 250.055 233.312 251.486 230.26 252.954C232.109 256.927 236.008 261.32 232.118 266.315C228.666 270.753 224.384 267.573 220.467 266.497C219.055 277.279 218.572 277.717 209.617 276.34C208.305 279.266 210.838 284.087 205.372 284.953H205.409Z" fill="#F0BC19"/>
<path d="M162.638 203.18C160.944 210.462 159.25 217.736 157.555 225.018C156.908 229.812 156.198 234.587 155.615 239.391C153.629 255.723 155.241 271.636 161.454 286.966C162.046 288.297 162.638 289.618 163.231 290.949C163.385 291.04 163.458 291.168 163.449 291.341C163.568 291.614 163.677 291.879 163.795 292.152C167.594 296.946 171.393 301.731 175.192 306.525C175.319 306.397 175.456 306.27 175.602 306.151C172.687 302.159 169.699 298.213 166.92 294.13C166.237 293.118 166.219 291.651 165.9 290.393C167.084 290.639 168.396 290.639 169.425 291.168C174.545 293.802 179.018 291.651 180.439 285.745C178.444 286.483 176.494 287.54 174.436 287.832C173.197 288.005 171.785 286.984 170.455 286.51C171.357 285.462 172.231 284.396 173.169 283.375C174.709 281.707 176.294 280.085 178.663 277.606C173.652 279.283 170.364 281.015 166.92 281.388C162.292 281.89 159.687 279.274 159.159 274.589C158.193 265.949 156.717 257.3 156.681 248.651C156.644 241.068 158.129 233.448 159.35 225.911C159.559 224.635 161.682 223.35 163.194 222.666C180.065 215.001 190.387 201.695 196.354 184.569C196.445 184.314 196.281 183.977 196.235 183.676C192.227 187.103 188.629 191.286 184.101 193.775C177.287 197.53 169.817 200.1 162.629 203.171L162.638 203.18Z" fill="#207EC5"/>
<path d="M140.783 35.554C148.098 36.4745 155.586 36.7023 162.71 38.4249C193.656 45.8802 220.566 60.6724 242.056 84.4055C248.114 91.0952 253.07 98.8058 258.171 106.298C259.128 107.701 258.718 110.326 258.381 112.295C256.969 120.57 258.117 122.457 265.66 125.957C267.327 126.731 268.629 129.238 269.221 131.206C273.266 144.659 275.152 158.357 273.175 172.411C276.701 159.159 275.698 145.926 272.41 132.874C264.475 101.339 245.436 77.6428 219.2 59.3964C195.095 42.6356 168.057 34.0592 138.888 31.9266C137.722 31.8445 136.547 31.9174 133.85 31.9174C136.993 33.5671 138.897 34.5605 140.801 35.5631L140.783 35.554Z" fill="#91D1F7"/>
<path d="M197.375 161.192C195.899 163.16 194.414 165.111 192.965 167.088C186.825 175.428 178.235 180.422 168.824 183.895C155.087 188.971 140.876 190.448 126.537 186.811C121.918 185.645 117.646 183.138 113.191 181.297C111.551 180.614 109.857 180.058 108.19 179.438C117.108 191.177 129.288 196.664 143.672 197.675C156.9 198.605 169.207 195.625 180.212 188.087C189.704 181.589 196.236 173.086 197.375 161.192Z" fill="#455677"/>
<path d="M219.492 294.512C224.922 295.56 230.397 297.702 235.753 297.438C250.702 296.681 262.408 289.454 271.336 277.405C273.759 274.133 274.588 271.827 270.571 269.494C268.776 268.446 267.1 267.197 265.369 266.039C264.886 265.72 264.403 265.392 263.93 265.073L263.993 265.11C262.308 264.481 260.623 263.843 258.928 263.214C256.332 263.87 253.736 264.536 251.14 265.192C251.832 266.349 252.497 267.516 253.217 268.646C256.278 273.44 255.403 275.974 250.083 278.025C249.463 278.261 248.698 279.127 248.662 279.756C248.252 285.717 248.006 286.008 241.747 285.225C239.516 284.942 238.45 285.334 238.349 287.904C238.195 291.987 235.626 294.111 231.727 293.427C227.864 292.753 224.156 291.222 220.385 290.073C220.084 291.55 219.784 293.026 219.483 294.503L219.492 294.512Z" fill="#207EC5"/>
<path d="M238.934 382.636C229.879 387.056 226.663 395.632 224.076 404.373C222.992 408.046 222.891 412.193 223.219 416.048C223.602 420.605 226.763 422.145 230.607 420.341C239.489 416.166 248.362 396.927 245.957 387.038C245.475 387.165 244.773 387.566 244.545 387.384C242.623 385.862 240.792 384.231 238.934 382.627V382.636Z" fill="#A36B70"/>
<path d="M45.0687 373.35C42.3358 376.249 42.8186 379.192 45.6062 381.462C48.4484 383.777 50.7623 381.863 52.4476 379.484C59.0978 370.106 68.6448 368.848 78.3923 371.746C88.7865 374.836 97.3862 373.915 105.876 366.843C112.782 361.083 121.081 357.547 130.136 356.116C131.019 355.979 132.395 354.657 132.395 353.892C132.395 350.583 131.958 347.284 131.684 343.985C131.502 344.149 131.302 344.24 131.056 344.258C131.785 350.921 126.373 349.79 122.693 350.839C116.325 354.466 109.958 358.102 103.59 361.73H103.626C103.426 361.967 103.226 362.213 103.025 362.459C97.8416 366.378 92.0023 368.283 85.6072 366.98C80.4875 365.941 75.5136 364.154 70.4759 362.705C69.2005 362.732 67.916 362.76 66.6406 362.787C61.4299 365.804 56.21 368.62 52.4112 373.733C51.3089 375.219 47.2824 377.743 45.0596 373.359L45.0687 373.35Z" fill="#A36B70"/>
<path d="M216.551 49.0808C221.425 52.0976 226.308 55.1143 231.182 58.1311C232.922 57.8759 234.671 57.3473 236.393 57.4111C248.654 57.8668 258.894 53.9842 266.145 43.7035C269.889 38.3991 273.223 32.8668 272.722 25.9492C266.072 31.1443 259.404 36.3211 252.79 41.5617C252.125 42.0903 251.56 42.9561 251.305 43.7764C249.839 48.6251 246.45 48.7527 242.287 47.9142C239.59 47.3673 236.73 47.1942 233.978 47.3765C228.157 47.7684 222.354 48.4975 216.542 49.0899L216.551 49.0808Z" fill="#24A5EE"/>
<path d="M70.4846 362.702C75.5223 364.151 80.4963 365.937 85.616 366.976C92.011 368.271 97.8504 366.375 103.034 362.456C103.234 362.21 103.435 361.964 103.635 361.708L103.599 361.718C108.281 355.137 114.886 351.902 122.702 350.826C126.391 349.778 131.793 350.908 131.065 344.246C131.11 340.609 128.669 341.338 126.692 341.976C122.866 343.198 119.122 344.692 115.35 346.069C115.35 346.069 115.314 346.078 115.323 346.078C114.986 346.36 114.658 346.634 114.321 346.916L114.385 346.862C113.82 347.217 113.246 347.573 112.681 347.919L112.617 347.964C112.289 348.22 111.961 348.475 111.643 348.739L111.816 348.949L111.633 348.757C111.315 349.031 110.996 349.295 110.677 349.559H110.622C110.158 349.897 109.702 350.234 109.238 350.571C104.564 352.986 99.9092 355.456 95.1812 357.753C94.6528 358.008 93.669 357.343 92.8947 357.106C93.341 356.577 93.7965 356.04 94.2429 355.511C92.2843 353.551 90.3257 351.601 88.3671 349.641L88.3307 349.733C88.0392 349.386 87.7476 349.049 87.4561 348.703L87.4744 348.766C87.1919 348.429 86.9095 348.101 86.6271 347.764C86.3174 347.354 86.0077 346.935 85.6888 346.524C84.3588 343.307 83.0288 340.09 81.6896 336.873C80.1501 336.964 78.6105 337.046 77.071 337.128C78.7654 343.307 80.0134 349.641 82.2818 355.602C84.0855 360.35 84.0035 361.344 78.9021 361.781C76.0962 362.073 73.2995 362.374 70.4937 362.665L70.4846 362.702Z" fill="#E5886D"/>
<path d="M38.8831 60.0425C44.1122 56.5154 49.1681 52.7148 54.5884 49.5157C67.9342 41.6412 82.5918 37.5763 97.878 35.7535C99.0805 35.6076 101.012 36.9839 101.75 38.1778C106.66 46.1071 117.628 46.818 123.513 39.6087C124.187 38.7793 126.592 38.3601 127.512 38.9069C133.06 42.2062 138.407 45.8519 143.828 49.3699C144.693 49.935 145.604 50.4271 146.488 50.9558C141.359 46.6357 136.54 41.8599 131.038 38.0958C121.554 31.6157 110.878 31.1235 99.6909 32.5544C78.8295 35.234 59.6534 41.7232 43.2194 55.212C41.5705 56.57 40.3225 58.4293 38.8922 60.0516L38.8831 60.0425Z" fill="#ACB6C5"/>
<path d="M289.868 51.5875C289.904 51.2685 289.795 51.0042 289.54 50.8037C286.415 52.5536 283.19 54.1577 280.175 56.0808C270.045 62.5518 260.434 70.1894 247.498 70.0891C247.872 70.6998 248.09 71.6112 248.628 71.8846C257.437 76.2958 268.888 77.3257 278.134 71.0826C283.737 67.3002 286.725 61.7224 290.214 56.3815C290.232 55.7891 290.25 55.1967 290.269 54.6043C290.141 53.6017 290.004 52.5901 289.877 51.5875H289.868Z" fill="#24A5EE"/>
<path d="M272.728 25.9495C273.229 32.8671 269.895 38.3994 266.151 43.7038C258.899 53.9845 248.651 57.8671 236.398 57.4114C234.667 57.3476 232.918 57.8762 231.187 58.1314C255.775 68.4303 277.729 52.4169 278.586 29.3764C278.713 25.9404 277.793 22.4588 277.356 18.9955C275.816 21.3105 274.277 23.6346 272.737 25.9495H272.728Z" fill="#207EC5"/>
<path d="M168.843 354.339C168.087 358.641 167.322 362.933 166.566 367.235C169.946 367.718 171.868 366.132 173.253 363.097C174.628 360.081 176.177 357.009 178.263 354.485C183.255 348.451 190.98 344.486 202.422 349.782C204.727 350.848 207.259 352.37 208.908 348.779C207.587 346.92 206.266 345.051 204.955 343.192C204.672 342.964 204.381 342.727 204.089 342.5C204.089 342.5 203.861 342.326 203.861 342.335C203.114 342.335 202.349 342.436 201.629 342.29C192.556 340.403 184.002 341.069 176.432 347.157C175.74 347.713 174.51 347.594 173.526 347.795V347.831C173.234 348.178 172.934 348.515 172.642 348.861L172.67 348.816C171.759 350.028 170.848 351.231 169.937 352.443C169.937 352.443 169.918 352.498 169.927 352.498C169.563 353.117 169.208 353.737 168.843 354.357V354.339Z" fill="#EFB04B"/>
<path d="M208.916 348.776C207.258 352.367 204.735 350.845 202.43 349.779C190.979 344.483 183.263 348.448 178.271 354.482C176.176 357.015 174.636 360.078 173.261 363.094C171.876 366.12 169.954 367.706 166.574 367.232C167.549 368.809 168.177 370.96 169.589 371.826C171.885 373.238 174.135 373.721 175 369.511C177.642 356.733 189.148 350.909 201.073 355.785C202.977 356.56 206.775 357.362 206.93 356.997C207.996 354.427 208.342 351.556 208.925 348.776H208.916Z" fill="#A36B70"/>
<path d="M290.213 56.3791C286.733 61.72 283.736 67.2978 278.133 71.0801C268.887 77.3324 257.436 76.3025 248.627 71.8822C248.089 71.6088 247.871 70.6974 247.497 70.0867C246.286 70.0867 245.074 70.0776 243.862 70.0685C247.47 75.9835 253.728 77.8519 259.668 79.5745C275.564 84.1771 291.06 72.2012 290.204 56.37L290.213 56.3791Z" fill="#207EC5"/>
<path d="M110.959 174.105C113.983 174.67 116.998 175.235 120.023 175.8C127.338 174.278 134.708 172.984 141.941 171.143C145.758 170.168 149.329 168.226 153.702 166.431C146.96 165.674 141.194 165.009 135.418 164.38C134.854 164.316 134.116 164.271 133.706 164.562C127.183 169.293 119.595 170.395 111.87 171.006C108.617 171.261 109.282 172.483 110.959 174.096V174.105Z" fill="#455677"/>
<path d="M216.468 407.253C212.742 404.875 208.506 403.024 205.409 400.017C199.351 394.129 193.666 387.804 188.3 381.269C181.723 373.258 184.62 364.8 194.613 361.683C194.695 361.409 194.805 361.145 194.95 360.899C187.471 360.699 183.19 363.451 181.696 369.867C181.286 371.635 181.331 373.96 182.151 375.509C189.995 390.319 200.717 402.742 214.045 412.895C214.482 413.223 215.083 413.342 216.468 413.907V407.253Z" fill="#A36B70"/>
<path d="M272.731 25.9482C274.27 23.6332 275.81 21.3091 277.349 18.9941C277.422 17.9916 277.495 16.989 277.568 15.9865C261.963 38.4892 240.045 47.4848 213.262 47.6306C214.355 48.1136 215.448 48.5967 216.541 49.0706C222.354 48.4782 228.156 47.7491 233.978 47.3572C236.729 47.1749 239.589 47.348 242.286 47.8949C246.449 48.7425 249.838 48.6058 251.304 43.7571C251.55 42.9368 252.115 42.071 252.789 41.5424C259.403 36.3018 266.071 31.125 272.721 25.9299L272.731 25.9482Z" fill="#91D1F7"/>
<path d="M141.019 335.261C138.331 341.541 136.682 347.866 140.062 354.455C146.639 354.218 151.121 350.035 150.985 344.275C150.875 339.472 146.475 335.498 141.019 335.27V335.261Z" fill="#EFB04B"/>
<path d="M141.022 335.262C146.478 335.49 150.869 339.463 150.988 344.267C151.124 350.036 146.642 354.21 140.065 354.447C141.586 356.233 142.798 358.539 144.711 359.642C146.46 360.654 149.002 360.635 151.115 360.398C151.534 360.353 151.853 357.227 151.789 355.541C151.562 350.291 151.99 345.315 155.47 340.967C155.916 340.402 155.397 338.187 154.686 337.732C151.653 335.781 148.355 334.232 145.203 332.473C141.914 330.632 141.924 333.576 141.04 335.262H141.022Z" fill="#A36B70"/>
<path d="M243.864 70.0782C245.075 70.0782 246.287 70.0873 247.499 70.0964C260.435 70.1967 270.045 62.559 280.175 56.088C283.191 54.165 286.416 52.5609 289.54 50.811C289.941 48.1679 289.057 47.8671 286.944 49.2525C281.77 52.6429 276.413 55.7782 271.366 59.3418C262.311 65.7399 252.491 69.1212 239.856 67.5353C241.996 68.8933 242.926 69.4858 243.864 70.0782Z" fill="#91D1F7"/>
<path d="M141.921 174.971C143.469 175.19 145.1 175.837 146.548 175.563C159.958 172.966 172.183 167.798 182.386 158.429C180.901 158.657 179.061 158.411 177.977 159.195C167.082 167.069 155.02 172.191 141.921 174.971Z" fill="#ACB6C5"/>
<path d="M45.0654 373.347C47.2882 377.731 51.3147 375.206 52.417 373.721C56.2158 368.617 61.4357 365.801 66.6465 362.775C64.861 363.021 63.0208 363.057 61.3173 363.558C57.728 364.607 54.2116 365.892 50.6679 367.077L50.6224 367.013C50.0029 367.614 49.3835 368.207 48.7731 368.808L48.8551 368.908C48.5363 369.209 48.2174 369.501 47.8986 369.802H47.9259C47.598 370.084 47.2609 370.376 46.9329 370.658C46.9329 370.658 46.9694 370.658 46.9785 370.658C46.6414 370.941 46.3044 371.233 45.9673 371.515C45.9673 371.515 46.0037 371.542 46.0037 371.552C45.7395 371.898 45.4845 372.235 45.2203 372.572C45.1383 372.828 45.0836 373.092 45.0654 373.356V373.347Z" fill="#E5886D"/>
<path d="M239.26 248.632C245.154 253.326 251.057 258.011 256.951 262.705C257.434 262.65 257.907 262.586 258.39 262.531C258.454 261.93 258.518 261.319 258.582 260.718C252.633 255.495 246.693 250.273 240.745 245.051C240.198 245.598 239.651 246.135 239.105 246.682L239.26 248.632Z" fill="#EFB04B"/>
<path d="M205.853 367.91C208.258 370.07 210.39 372.722 213.141 374.28C216.739 376.313 220.857 377.407 224.692 379.056C226.104 379.667 227.334 380.697 228.655 381.526C229.502 380.779 230.34 380.041 230.741 379.685C222.378 375.73 214.116 371.82 205.853 367.91Z" fill="#ACB6C5"/>
<path d="M173.533 347.784C174.516 347.584 175.746 347.702 176.439 347.146C184 341.067 192.554 340.402 201.636 342.279C202.356 342.425 203.13 342.316 203.868 342.325C194.175 336.82 181.567 339.089 173.542 347.775L173.533 347.784Z" fill="#ACB6C5"/>
<path d="M50.6703 367.081C54.214 365.896 57.7304 364.611 61.3197 363.563C63.0232 363.061 64.8634 363.025 66.6489 362.779C67.9334 362.752 69.2087 362.724 70.4841 362.697C73.2808 362.405 76.0866 362.104 78.8833 361.813C68.7077 359.443 59.0969 360.127 50.6612 367.072L50.6703 367.081Z" fill="#ACB6C5"/>
<path d="M161.908 352.614C163.457 350.208 165.005 347.801 166.545 345.395C164.969 344.985 163.393 344.566 161.817 344.156C160.687 346.361 159.558 348.558 158.428 350.763C159.594 351.383 160.751 351.994 161.917 352.614H161.908Z" fill="#E5886D"/>
<path d="M115.341 346.071C119.112 344.695 122.856 343.2 126.682 341.979C128.659 341.35 131.11 340.612 131.055 344.248C131.292 344.221 131.501 344.13 131.684 343.966C131.93 342.48 132.166 340.994 132.531 338.789C126.108 339.974 120.479 342.38 115.341 346.062V346.071Z" fill="#ACB6C5"/>
<path d="M238.934 382.635C240.793 384.23 242.624 385.87 244.546 387.392C244.783 387.575 245.475 387.174 245.958 387.046C244.883 381.65 243.562 380.821 238.934 382.644V382.635Z" fill="#E5886D"/>
<path d="M239.105 246.683C239.651 246.136 240.198 245.598 240.745 245.051C238.476 242.919 236.199 240.786 233.921 238.644C235.224 241.415 236.518 244.186 237.82 246.956C238.249 246.865 238.677 246.774 239.105 246.683Z" fill="#91D1F7"/>
<path d="M194.943 360.891C194.797 361.137 194.679 361.401 194.606 361.675C197.722 363.178 200.837 364.691 203.953 366.195C200.956 364.427 197.949 362.659 194.952 360.891H194.943Z" fill="#ACB6C5"/>
<path d="M161.908 352.616C160.742 351.996 159.585 351.385 158.419 350.766C158.419 353.026 158.419 355.295 158.419 357.556C158.901 357.619 159.393 357.683 159.876 357.756L161.908 352.616Z" fill="#A36B70"/>
<path d="M88.3371 349.673C90.2957 351.633 92.2544 353.583 94.213 355.543C94.2403 354.804 94.5682 353.656 94.2312 353.41C92.3546 352.043 90.3231 350.894 88.3371 349.673Z" fill="#ACB6C5"/>
<path d="M219.49 294.514C219.79 293.037 220.091 291.561 220.391 290.075C220.701 289.182 221.002 288.289 221.312 287.395C220.045 286.949 218.779 286.502 217.522 286.047L217.476 286.083C217.731 288.772 217.996 291.46 218.251 294.149C218.661 294.267 219.08 294.386 219.49 294.504V294.514Z" fill="#455677"/>
<path d="M258.583 260.716C258.519 261.317 258.455 261.928 258.391 262.529C258.655 262.693 258.838 262.921 258.938 263.213C260.623 263.842 262.309 264.48 264.003 265.109C262.199 263.641 260.386 262.183 258.583 260.716Z" fill="#91D1F7"/>
<path d="M161.817 344.156C163.393 344.566 164.969 344.986 166.545 345.396C166.335 344.685 166.071 343.354 165.935 343.372C164.55 343.509 163.183 343.865 161.808 344.156H161.817Z" fill="#ACB6C5"/>
<path d="M169.945 352.426C170.856 351.223 171.767 350.01 172.678 348.798C171.767 350.001 170.856 351.213 169.945 352.426Z" fill="#ACB6C5"/>
<path d="M48.7655 368.8C49.3849 368.198 50.0044 367.606 50.6147 367.004C49.9953 367.597 49.3758 368.198 48.7655 368.8Z" fill="#ACB6C5"/>
<path d="M257.372 339.125C257.573 339.49 257.773 339.845 257.974 340.21C258.074 340.11 258.293 339.964 258.274 339.928C258.101 339.563 257.892 339.208 257.7 338.852L257.372 339.125Z" fill="#207EC5"/>
<path d="M109.217 350.591C109.681 350.254 110.146 349.917 110.602 349.579C110.137 349.917 109.672 350.254 109.217 350.591Z" fill="#ACB6C5"/>
<path d="M232.182 237.649C232.765 237.987 233.348 238.315 233.94 238.652C233.357 238.315 232.774 237.987 232.182 237.649Z" fill="#91D1F7"/>
<path d="M85.6696 346.554C85.9793 346.964 86.2891 347.384 86.6079 347.794C86.2982 347.374 85.9884 346.964 85.6696 346.554Z" fill="#ACB6C5"/>
<path d="M111.624 348.751C111.952 348.496 112.28 348.241 112.599 347.976C112.271 348.232 111.943 348.487 111.624 348.751Z" fill="#ACB6C5"/>
<path d="M279.426 342.597C279.572 342.716 279.717 342.834 279.854 342.953C279.827 342.861 279.836 342.734 279.781 342.688C279.69 342.624 279.553 342.606 279.435 342.579L279.426 342.597Z" fill="#207EC5"/>
<path d="M175.885 68.4472C175.794 68.5384 175.694 68.6295 175.603 68.7207C175.803 68.7936 176.004 68.8665 176.195 68.9303C176.086 68.7662 175.985 68.6022 175.885 68.4381V68.4472Z" fill="#5C6A7A"/>
<path d="M204.824 367.053C205.133 367.381 205.443 367.7 205.744 368.028C205.434 367.7 205.124 367.381 204.824 367.053Z" fill="#ACB6C5"/>
<path d="M263.932 265.073C264.415 265.392 264.897 265.721 265.371 266.04C264.888 265.721 264.405 265.392 263.932 265.073Z" fill="#91D1F7"/>
<path d="M188.327 132.929C188.646 133.412 188.965 133.896 189.284 134.388C188.965 133.905 188.646 133.422 188.327 132.929Z" fill="#ACB6C5"/>
<path d="M35.2399 63.7067C35.5588 63.3785 35.8776 63.0596 36.2056 62.7314C35.8867 63.0596 35.5679 63.3785 35.2399 63.7067Z" fill="#ACB6C5"/>
<path d="M204.098 342.498C204.389 342.735 204.672 342.962 204.963 343.19C204.672 342.953 204.389 342.726 204.098 342.498Z" fill="#ACB6C5"/>
<path d="M239.105 246.682C238.677 246.773 238.249 246.864 237.82 246.956C235.962 247.758 233.912 249.489 232.282 249.152C229.102 248.505 226.196 246.618 223.108 245.434C222.142 245.06 220.94 245.297 219.838 245.26C219.993 246.482 219.756 247.995 220.393 248.851C221.733 250.656 223.728 251.968 225.112 253.746C226.67 255.751 228.037 257.975 229.102 260.28C229.503 261.155 229.221 262.942 228.556 263.552C227.936 264.117 226.051 264.136 225.313 263.598C222.07 261.192 219.1 258.403 215.884 255.951C214.846 255.158 213.352 254.94 212.067 254.457C212.085 255.824 211.785 257.282 212.185 258.531C213.188 261.684 214.727 264.683 215.565 267.872C215.921 269.221 215.055 270.898 214.745 272.43C213.361 271.983 211.785 271.819 210.637 271.035C208.906 269.859 207.567 268.109 205.863 266.87C204.925 266.186 203.577 266.041 202.42 265.658C202.484 266.988 202.21 268.456 202.693 269.604C203.622 271.819 205.135 273.788 206.127 275.984C207.521 279.046 207.658 282.136 205.381 284.952C210.855 284.086 208.314 279.256 209.626 276.339C218.571 277.716 219.063 277.278 220.475 266.496C224.393 267.572 228.674 270.762 232.127 266.314C236.017 261.31 232.118 256.926 230.268 252.953C233.32 251.476 236.281 250.054 239.232 248.633C239.178 247.986 239.132 247.329 239.078 246.682H239.105Z" fill="#162B6E"/>
<path d="M245.337 199.49C242.541 199.891 239.853 200.429 237.148 200.547C236.501 200.575 235.79 199.217 235.107 198.488C235.736 197.923 236.382 197.376 236.984 196.783C238.888 194.942 240.773 193.083 243.151 190.75C238.76 192.09 235.517 193.903 232.32 193.812C229.213 193.721 226.17 191.679 222.554 190.294C223.866 192.053 225.269 193.976 226.717 195.872C227.455 196.838 228.284 197.731 229.076 198.652C227.765 199.235 226.407 200.365 225.141 200.283C223.31 200.165 221.534 199.153 219.803 198.551C220.413 202.698 224.44 204.858 228.985 203.783C230.962 203.309 233.258 203.336 235.235 203.838C240.655 205.223 244.827 203.254 245.337 199.481V199.49Z" fill="#207EC5"/>
<path d="M186.885 249.864C180.053 255.096 174.46 255.943 169.531 249.217C169.203 249.573 168.875 249.928 168.557 250.274C170.333 252.826 172.109 255.387 173.986 258.076C171.034 261.986 168.32 261.722 162.708 256.499C163.574 263.061 170.078 266.425 175.425 262.688C179.051 260.154 182.167 256.864 185.401 253.792C186.011 253.218 186.084 252.088 186.895 249.873L186.885 249.864Z" fill="#207EC5"/>
<path d="M215.392 229.738C207.047 234.45 204.76 234.332 199.122 229.182C198.438 232.791 200.661 235.489 205.207 236.565C209.898 237.667 214.107 235.052 215.392 229.738Z" fill="#207EC5"/>
<path d="M206.975 210.461C201.071 214.49 195.715 214.235 190.932 208.866C190.677 213.332 193.292 216.103 198.074 216.741C202.547 217.333 205.909 215.119 206.975 210.452V210.461Z" fill="#207EC5"/>
<path d="M178.436 308.766C177.489 307.891 176.55 307.016 175.603 306.151C175.466 306.269 175.33 306.397 175.193 306.524C176.231 307.308 177.27 308.092 178.308 308.876L178.427 308.775L178.436 308.766Z" fill="#207EC5"/>
<path d="M179.327 309.669C179.026 309.368 178.725 309.068 178.425 308.767L178.306 308.867C178.607 309.168 178.917 309.469 179.217 309.779L179.318 309.669H179.327Z" fill="#207EC5"/>
<path d="M92.3654 40.593C90.1608 42.4614 88.4937 43.8832 86.8358 45.2959C88.3571 46.2073 90.0697 48.0666 91.3451 47.8023C93.3766 47.383 95.1257 45.5511 96.9932 44.3207C95.6905 43.2726 94.3787 42.2153 92.3654 40.593Z" fill="#ACB6C5"/>
<path d="M179.229 309.779C178.928 309.478 178.618 309.177 178.318 308.867C177.279 308.083 176.241 307.3 175.202 306.516C171.403 301.722 167.605 296.937 163.806 292.143C163.669 292.125 163.414 292.106 163.405 292.07C163.405 291.824 163.432 291.578 163.46 291.332C163.46 291.158 163.396 291.022 163.241 290.94C157.429 292.052 154.095 289.709 154.477 285.991C156.791 286.31 159.123 286.629 161.465 286.948C155.243 271.618 153.639 255.705 155.625 239.372C156.208 234.578 156.919 229.793 157.566 224.999C152.993 225.874 148.429 226.822 143.846 227.624C129.161 230.185 120.516 242.735 123.96 257.227C127.558 272.374 135.584 284.797 147.381 295.096C157.976 304.347 169.718 310.991 183.355 314.308C181.98 312.795 180.604 311.273 179.238 309.76L179.229 309.779ZM133.99 240.366C138.699 245.816 144.092 245.059 149.731 242.134C149.285 246.691 146.944 248.176 141.041 247.803C136.358 247.502 133.953 245.032 133.99 240.375V240.366Z" fill="#F9C10F"/>
<path d="M200.936 378.482C198.331 376.139 195.725 373.788 193.12 371.445C192.81 371.783 192.5 372.12 192.191 372.457C193.348 376.376 196.135 378.573 200.936 378.482Z" fill="#455677"/>
<path d="M210.43 387.041C210.157 386.896 209.875 386.75 209.601 386.604C209.765 386.85 209.929 387.105 210.102 387.351C210.212 387.242 210.321 387.142 210.439 387.032L210.43 387.041Z" fill="#162B6E"/>
<path d="M221.313 287.393C221.004 288.287 220.694 289.18 220.393 290.073C224.174 291.231 227.882 292.753 231.744 293.427C235.643 294.111 238.212 291.987 238.367 287.904C238.458 285.334 239.524 284.942 241.765 285.224C248.023 286.008 248.269 285.717 248.679 279.756C248.725 279.136 249.481 278.27 250.1 278.024C255.42 275.964 256.295 273.44 253.234 268.646C252.514 267.516 251.849 266.34 251.157 265.182L251.175 265.137C250.884 264.854 250.592 264.572 250.301 264.28C249.636 264.9 248.971 265.52 248.306 266.139C248.406 266.422 248.506 266.705 248.597 266.996C249.217 269.056 249.836 271.116 250.456 273.176C248.406 273.084 246.347 272.893 244.297 272.957C243.232 272.993 241.628 273.194 241.264 273.868C240.881 274.57 241.528 276.001 242.011 276.967C242.676 278.27 243.614 279.437 245.29 281.916C241.255 280.932 238.504 280.157 235.716 279.619C234.65 279.41 233.484 279.738 232.364 279.829C232.455 280.95 232.355 282.135 232.664 283.192C233.32 285.398 235.224 287.621 232.172 289.508C229.804 289.253 227.435 289.007 225.058 288.752C224.702 288.624 224.347 288.496 224.001 288.369C223.7 288.25 223.391 288.123 223.081 287.995C222.498 287.795 221.915 287.594 221.332 287.384L221.313 287.393Z" fill="#162B6E"/>
<path d="M248.299 266.151C248.964 265.531 249.629 264.911 250.294 264.292C250.585 264.574 250.877 264.866 251.168 265.148L251.15 265.194C253.746 264.538 256.343 263.872 258.939 263.216C258.839 262.924 258.657 262.697 258.392 262.532C257.91 262.587 257.436 262.642 256.953 262.706C256.953 262.706 256.78 262.569 256.78 262.56C256.452 262.742 256.124 262.924 255.796 263.116H246.568C247.233 264.292 247.761 265.221 248.299 266.151Z" fill="#455677"/>
<path d="M225.038 288.762C227.406 289.018 229.775 289.264 232.152 289.519C229.784 289.264 227.415 289.018 225.038 288.762Z" fill="#455677"/>
<path d="M223.062 288.003C223.372 288.131 223.673 288.259 223.982 288.377C223.673 288.25 223.372 288.131 223.062 288.003Z" fill="#455677"/>
<path d="M217.524 286.055C217.406 285.927 217.287 285.8 217.169 285.672C217.278 285.809 217.378 285.945 217.488 286.091L217.533 286.055H217.524Z" fill="#455677"/>
<path d="M161.465 286.957C159.133 286.638 156.791 286.319 154.478 286C154.095 289.718 157.42 292.061 163.241 290.949C162.649 289.618 162.057 288.287 161.465 286.966V286.957Z" fill="#B4912C"/>
<path d="M163.459 291.342C163.432 291.588 163.395 291.834 163.404 292.08C163.404 292.108 163.659 292.126 163.805 292.153C163.687 291.88 163.577 291.615 163.459 291.342Z" fill="#B4912C"/>
<path d="M122.69 350.837C114.865 351.912 108.269 355.148 103.587 361.728C109.954 358.101 116.322 354.464 122.69 350.837Z" fill="#162B6E"/>
<path d="M103.625 361.709C103.424 361.955 103.224 362.21 103.023 362.456C103.224 362.21 103.424 361.964 103.625 361.709Z" fill="#162B6E"/>
<path d="M133.986 240.366C133.949 245.024 136.354 247.503 141.037 247.794C146.931 248.168 149.272 246.682 149.728 242.125C144.089 245.06 138.705 245.808 133.986 240.357V240.366Z" fill="#B4912C"/>
</svg>
