<svg width="21" height="20" viewBox="0 0 21 20" fill="none" xmlns="http://www.w3.org/2000/svg">
<path d="M8.27784 5.77866C8.89148 5.77866 9.38892 6.20985 9.38892 6.74177V10.5942C9.38892 11.1261 8.89148 11.5573 8.27784 11.5573C7.66421 11.5573 7.16677 11.1261 7.16677 10.5942V6.74177C7.16677 6.20985 7.66421 5.77866 8.27784 5.77866Z" fill="white"/>
<path d="M13.8332 6.74177C13.8332 6.20985 13.3358 5.77866 12.7222 5.77866C12.1085 5.77866 11.6111 6.20985 11.6111 6.74177V10.5942C11.6111 11.1261 12.1085 11.5573 12.7222 11.5573C13.3358 11.5573 13.8332 11.1261 13.8332 10.5942V6.74177Z" fill="white"/>
<path fill-rule="evenodd" clip-rule="evenodd" d="M10.5 0C6.20458 0 2.72246 3.01839 2.72246 6.74177V10.5942C2.72246 14.3176 6.20458 17.336 10.5 17.336C14.7954 17.336 18.2775 14.3176 18.2775 10.5942V6.74177C18.2775 3.01839 14.7954 0 10.5 0ZM4.94461 6.74177C4.94461 4.08221 7.43184 1.92622 10.5 1.92622C13.5682 1.92622 16.0554 4.08221 16.0554 6.74177V10.5942C16.0554 13.2538 13.5682 15.4097 10.5 15.4097C7.43184 15.4097 4.94461 13.2538 4.94461 10.5942V6.74177Z" fill="white"/>
<path d="M2.66544 13.179C2.47139 12.6744 1.84217 12.4016 1.26003 12.5698C0.677884 12.738 0.363271 13.2835 0.557318 13.7881C3.74233 22.0706 17.2577 22.0706 20.4427 13.7881C20.6367 13.2835 20.3221 12.738 19.74 12.5698C19.1578 12.4016 18.5286 12.6744 18.3346 13.179C15.8249 19.7054 5.17514 19.7054 2.66544 13.179Z" fill="white"/>
</svg>
