<svg width="20" height="20" viewBox="0 0 20 20" fill="none" xmlns="http://www.w3.org/2000/svg">
<path fillRule="evenodd" clipRule="evenodd" d="M11.9829 1.75795C12.2616 1.61552 12.5967 1.64132 12.8503 1.82474C13.7107 2.4469 15.5205 3.71123 16.2102 4.06002C16.5164 4.21491 16.6964 4.54168 16.6636 4.88329C16.6029 5.5157 16.3147 6.41224 15.6437 7.16459C15.0829 7.79329 14.2785 8.29321 13.1953 8.46383V13.7617C13.1953 15.9588 11.5828 18.3334 8.95779 18.3334C7.92928 18.3334 7.11746 17.7127 6.55443 17.0955C5.97665 16.4621 5.53321 15.6945 5.24039 15.1107C4.79559 14.2238 4.92893 12.9302 6.09156 12.4031C6.74463 12.107 7.67633 11.8603 8.95779 11.8603C10.0581 11.8603 10.9001 12.0422 11.5287 12.2805V2.50002C11.5287 2.187 11.7041 1.90037 11.9829 1.75795ZM11.508 14.1252C11.4386 14.0788 11.351 14.0264 11.2435 13.9724C10.8359 13.7678 10.1142 13.5269 8.95779 13.5269C7.89556 13.5269 7.2007 13.7302 6.77977 13.9211C6.74016 13.939 6.72038 13.9577 6.70925 13.9712C6.69735 13.9856 6.68518 14.0067 6.67687 14.0389C6.65925 14.1071 6.661 14.2255 6.73017 14.3635C6.99289 14.8873 7.35604 15.5012 7.78579 15.9723C8.23031 16.4596 8.62696 16.6667 8.95779 16.6667C10.3023 16.6667 11.35 15.511 11.508 14.1252ZM13.1953 6.76524C13.7554 6.62601 14.1361 6.35095 14.3998 6.05524C14.6365 5.78985 14.7928 5.49111 14.888 5.2227C14.3907 4.91913 13.7697 4.50367 13.1953 4.10768V6.76524Z" fill="#FFF9FF"/>
<path d="M3.82816 4.69235C4.22906 4.82599 4.54365 5.14057 4.67728 5.54147C4.81329 5.94948 5.3904 5.94948 5.52641 5.54147C5.66004 5.14057 5.97463 4.82599 6.37553 4.69235C6.78354 4.55635 6.78354 3.97923 6.37553 3.84323C5.97463 3.7096 5.66004 3.39501 5.52641 2.99411C5.3904 2.5861 4.81329 2.5861 4.67728 2.99411C4.54365 3.39501 4.22906 3.7096 3.82816 3.84323C3.42015 3.97923 3.42015 4.55635 3.82816 4.69235Z" fill="#FFF9FF"/>
<path d="M7.1615 8.85902C7.5624 8.99265 7.87698 9.30724 8.01062 9.70814C8.14662 10.1161 8.72374 10.1161 8.85974 9.70814C8.99337 9.30724 9.30796 8.99265 9.70886 8.85902C10.1169 8.72302 10.1169 8.1459 9.70886 8.0099C9.30796 7.87626 8.99337 7.56168 8.85974 7.16077C8.72374 6.75276 8.14662 6.75276 8.01062 7.16077C7.87698 7.56168 7.5624 7.87626 7.1615 8.0099C6.75349 8.1459 6.75349 8.72302 7.1615 8.85902Z" fill="#FFF9FF"/>
</svg>
