<svg width="394" height="133" viewBox="0 0 394 133" fill="none" xmlns="http://www.w3.org/2000/svg">
<path d="M224.156 87.6084C223.761 86.1288 221.661 86.1288 221.266 87.6084C218.597 97.6068 210.787 105.416 200.789 108.085C199.309 108.48 199.309 110.58 200.789 110.975C210.787 113.645 218.597 121.454 221.266 131.452C221.661 132.932 223.761 132.932 224.156 131.452C226.825 121.454 234.634 113.645 244.633 110.975C246.112 110.58 246.112 108.48 244.633 108.085C234.634 105.416 226.825 97.6068 224.156 87.6084Z" fill="#FFE3E0"/>
<path d="M49.7711 3.80195C50.0345 2.8155 51.4343 2.8155 51.6977 3.80195C53.4772 10.4675 58.6834 15.6737 65.349 17.4533C66.3354 17.7166 66.3354 19.1165 65.349 19.3798C58.6834 21.1593 53.4772 26.3656 51.6977 33.0311C51.4343 34.0176 50.0345 34.0176 49.7711 33.0311C47.9916 26.3656 42.7854 21.1593 36.1198 19.3798C35.1334 19.1165 35.1334 17.7166 36.1198 17.4533C42.7854 15.6737 47.9916 10.4675 49.7711 3.80195Z" fill="#FFB372"/>
<path d="M345.539 63.0256C345.276 62.0391 343.876 62.0391 343.613 63.0256C341.833 69.6911 336.627 74.8974 329.962 76.6769C328.975 76.9403 328.975 78.3401 329.962 78.6034C336.627 80.383 341.833 85.5892 343.613 92.2548C343.876 93.2412 345.276 93.2412 345.539 92.2548C347.319 85.5892 352.525 80.383 359.191 78.6034C360.177 78.3401 360.177 76.9403 359.191 76.6769C352.525 74.8974 347.319 69.6911 345.539 63.0256Z" fill="#BBB5F1"/>
<path d="M84.0078 49.0312C84.2375 48.1726 85.3942 48.1193 85.7393 48.8711L85.7969 49.0312C88.4762 59.0672 96.2346 66.9404 106.201 69.7803L106.678 69.9121C107.536 70.1416 107.59 71.2981 106.839 71.6436L106.678 71.7012C96.6418 74.3805 88.7686 82.1389 85.9287 92.1055L85.7969 92.582C85.5673 93.4405 84.4109 93.4943 84.0654 92.7432L84.0078 92.582C81.3285 82.5461 73.5701 74.6728 63.6035 71.833L63.127 71.7012C62.2683 71.4715 62.2149 70.3148 62.9668 69.9697L63.127 69.9121C73.1629 67.2328 81.0361 59.4744 83.876 49.5078L84.0078 49.0312Z" stroke="#359D33" strokeWidth="1.13892"/>
<path d="M300.463 5.60601C300.068 4.12633 297.969 4.12633 297.574 5.60601C294.904 15.6043 287.095 23.4137 277.097 26.083C275.617 26.478 275.617 28.5778 277.097 28.9728C287.095 31.6421 294.904 39.4514 297.574 49.4498C297.969 50.9294 300.068 50.9294 300.463 49.4498C303.133 39.4514 310.942 31.6421 320.94 28.9728C322.42 28.5778 322.42 26.478 320.94 26.083C310.942 23.4137 303.133 15.6043 300.463 5.60601Z" fill="#FFF8E6"/>
<g clip-path="url(#clip0_2162_5025)">
<path d="M208.469 5.40723C191.481 5.40723 177.705 19.1066 177.705 36.0001C177.705 44.7308 181.416 52.6097 187.341 58.2173L155.719 103.077C154.292 105.136 154.792 107.975 156.862 109.466C157.647 110.034 158.575 110.317 159.503 110.317C160.93 110.317 162.358 109.608 163.286 108.33L166.07 104.355L177.562 111.666C178.347 112.163 179.203 112.376 180.06 112.376C181.559 112.376 183.058 111.666 183.915 110.247C185.271 108.117 184.7 105.278 182.558 103.929L171.352 96.7601L176.134 89.9459L180.203 92.5722C180.988 93.0691 181.845 93.282 182.701 93.282C184.2 93.282 185.699 92.5012 186.556 91.1525C187.912 89.0231 187.269 86.1839 185.199 84.8352L181.416 82.4219L183.986 78.7308L193.836 85.0482C194.622 85.545 195.478 85.758 196.335 85.758C197.834 85.758 199.333 85.0482 200.189 83.6285C201.545 81.4991 200.974 78.6599 198.833 77.3112L189.268 71.2068L194.836 63.3279C198.904 65.3154 203.544 66.4511 208.469 66.4511C225.458 66.4511 239.234 52.7517 239.234 35.8582C239.234 18.9646 225.458 5.40723 208.469 5.40723ZM208.469 56.7267C196.977 56.7267 187.626 47.4281 187.626 36.0001C187.626 24.5722 196.977 15.2736 208.469 15.2736C219.961 15.2736 229.312 24.5722 229.312 36.0001C229.312 47.4281 219.961 56.7267 208.469 56.7267Z" fill="#F1B81A"/>
<path d="M180.133 113.156C179.133 113.156 178.134 112.872 177.206 112.305L166.285 105.348L163.929 108.755C162.93 110.175 161.288 111.027 159.504 111.027C158.433 111.027 157.362 110.672 156.434 110.033C154.007 108.33 153.436 104.993 155.078 102.58L186.271 58.2168C180.204 52.2544 176.92 44.3755 176.92 35.9287C176.92 18.6803 191.054 4.62598 208.47 4.62598C225.887 4.62598 240.02 18.6803 240.02 35.9997C240.02 53.3191 225.887 67.3734 208.47 67.3734C203.831 67.3734 199.334 66.3797 195.122 64.4632L190.411 71.2064L199.334 76.8849C201.832 78.4465 202.546 81.7826 200.975 84.2669C199.976 85.8285 198.263 86.7513 196.479 86.7513C195.479 86.7513 194.48 86.4673 193.552 85.8995L184.273 80.008L182.559 82.4214L185.7 84.4089C186.914 85.1897 187.77 86.3964 188.056 87.745C188.341 89.1646 188.056 90.5842 187.342 91.7909C186.343 93.3525 184.629 94.2753 182.845 94.2753C181.846 94.2753 180.846 93.9913 179.918 93.4235L176.421 91.2231L172.495 96.7596L183.059 103.503C185.557 105.064 186.271 108.401 184.701 110.885C183.702 112.446 181.988 113.369 180.204 113.369L180.133 113.156ZM166.071 103.574C166.071 103.574 166.356 103.574 166.499 103.716L177.991 111.027C178.634 111.453 179.347 111.666 180.061 111.666C181.346 111.666 182.559 111.027 183.273 109.891C184.415 108.117 183.916 105.774 182.131 104.639L170.925 97.4694C170.925 97.4694 170.639 97.1855 170.568 96.9726C170.568 96.7596 170.568 96.5467 170.71 96.4047L175.493 89.5905C175.493 89.5905 176.207 89.1646 176.564 89.3776L180.632 92.0039C181.275 92.4298 181.988 92.6427 182.702 92.6427C183.987 92.6427 185.201 92.0039 185.914 90.8682C186.485 90.0164 186.628 89.0227 186.414 87.9579C186.2 86.9642 185.629 86.1124 184.701 85.5446L180.918 83.1312C180.918 83.1312 180.632 82.8473 180.561 82.6343C180.561 82.4214 180.561 82.2085 180.704 82.0665L183.273 78.3755C183.273 78.3755 183.987 77.9496 184.344 78.1625L194.194 84.4799C194.837 84.9057 195.551 85.1187 196.264 85.1187C197.549 85.1187 198.763 84.4799 199.477 83.3442C200.619 81.5696 200.119 79.2272 198.334 78.0916L188.77 71.9872C188.77 71.9872 188.484 71.7032 188.413 71.4903C188.413 71.2774 188.413 71.0644 188.555 70.9224L194.123 63.0435C194.123 63.0435 194.765 62.6176 195.122 62.8306C199.262 64.889 203.759 65.8828 208.399 65.8828C224.959 65.8828 238.379 52.4673 238.379 36.0707C238.379 19.674 225.031 6.18756 208.47 6.18756C191.91 6.18756 178.491 19.532 178.491 35.9997C178.491 44.3045 181.846 51.9705 187.842 57.649C188.127 57.9329 188.127 58.3588 187.913 58.6427L156.363 103.503C155.15 105.206 155.578 107.62 157.291 108.826C157.933 109.252 158.719 109.536 159.504 109.536C160.789 109.536 161.931 108.897 162.644 107.904L165.428 103.929C165.428 103.929 165.785 103.574 166.071 103.574ZM208.47 57.507C196.55 57.507 186.842 47.8535 186.842 35.9997C186.842 24.1458 196.55 14.4924 208.47 14.4924C220.391 14.4924 230.099 24.1458 230.099 35.9997C230.099 47.8535 220.391 57.507 208.47 57.507ZM208.47 16.054C197.406 16.054 188.413 24.9976 188.413 35.9997C188.413 47.0018 197.406 55.9454 208.47 55.9454C219.534 55.9454 228.528 47.0018 228.528 35.9997C228.528 24.9976 219.534 16.054 208.47 16.054Z" fill="#BD8034"/>
<g style="mix-blend-mode:screen" opacity="0.71">
<path d="M183.059 53.0356C185.485 51.616 187.627 49.8415 189.697 47.996C190.054 47.6411 190.411 47.2862 190.768 47.0022C188.769 43.8081 187.627 40.0461 187.627 36.0001C187.627 24.5722 196.978 15.2736 208.47 15.2736C213.395 15.2736 217.892 16.9772 221.39 19.7454C222.032 19.5325 222.674 19.3195 223.317 19.1066C226.672 18.1129 230.241 17.758 233.667 18.4678C228.171 10.5889 218.891 5.40723 208.47 5.40723C191.481 5.40723 177.705 19.1066 177.705 36.0001C177.705 42.3175 179.632 48.2089 182.987 53.1066C182.987 53.1066 182.987 53.1066 183.059 53.1066V53.0356Z" fill="#FFF8A3"/>
</g>
<g style="mix-blend-mode:multiply">
<path d="M229.956 14.0664C231.241 15.7699 232.312 17.6864 233.097 19.7449C233.811 21.6613 234.31 23.8618 234.31 25.9202C234.31 26.63 234.31 27.4108 233.882 28.0497C233.525 28.6175 232.954 28.6885 232.312 28.4755C231.17 28.1206 230.313 27.1979 229.742 26.2041C228.957 24.9265 228.529 23.5778 227.815 22.3002C227.387 21.5904 226.887 20.9515 226.316 20.3837C225.745 19.7449 225.102 19.106 224.389 18.5382C223.104 17.4025 221.747 16.4087 220.32 15.415C217.679 13.7114 214.681 12.5048 211.54 12.0079C208.828 11.653 205.973 11.724 203.26 12.3628C198.406 13.4985 194.052 16.2668 190.626 19.8868C187.2 23.5069 184.773 28.1206 183.773 32.9474C183.274 35.3607 183.131 37.8451 183.416 40.3294C183.559 41.5361 183.845 42.7428 184.202 43.9495C184.487 44.8722 184.844 45.724 185.272 46.5758C186.272 48.3503 187.414 50.0538 188.128 51.9703C188.556 53.177 189.27 55.5194 187.485 56.0163C186.7 56.2292 185.843 55.8033 185.201 55.4484C184.844 55.2355 184.559 55.0225 184.273 54.8096C185.201 55.9453 186.2 57.081 187.271 58.0747L184.915 61.4818C185.415 61.3399 185.986 61.4108 186.414 61.6238C187.128 62.0497 187.556 62.9014 187.699 63.6822C187.842 64.8889 187.342 66.0956 186.771 67.0893C186.129 68.296 185.272 69.4317 184.416 70.5674C183.559 71.7031 179.776 77.3106 178.705 78.9432C176.493 82.2793 174.28 85.6154 172.067 88.8806C169.854 92.1457 167.641 95.4108 165.286 98.605C164.715 99.3858 164.144 100.238 163.501 101.018C163.002 101.657 162.573 102.367 162.002 103.006C161.289 103.929 160.432 104.709 159.504 105.348C158.219 106.2 156.363 106.91 154.936 105.845C154.864 105.845 154.793 105.703 154.722 105.632C154.722 107.052 155.435 108.4 156.649 109.252C157.434 109.82 158.362 110.104 159.29 110.104C160.718 110.104 162.145 109.394 163.073 108.116L165.857 104.142C165.857 104.142 166.142 103.645 166.357 103.361C166.714 102.864 167.07 102.438 167.57 102.083C168.498 101.302 169.711 101.16 170.854 101.586C172.067 102.012 173.138 102.793 174.137 103.645C174.779 104.142 175.422 104.638 176.064 105.064C177.421 105.916 178.705 106.768 179.919 107.691C180.633 108.187 181.275 108.755 181.846 109.394C182.274 109.891 182.703 110.388 182.988 110.956C183.202 110.743 183.416 110.459 183.631 110.175C184.987 108.046 184.416 105.206 182.274 103.858L171.068 96.6885L175.85 89.8743H175.922C176.278 89.1645 176.849 88.5257 177.492 87.9578C177.992 87.5319 178.634 87.177 179.348 87.106C179.776 87.106 180.276 87.106 180.633 87.319C181.703 87.7449 182.631 88.3837 183.488 89.0225C184.344 89.6614 185.272 90.5131 185.701 91.5779C185.701 91.5779 185.701 91.6488 185.701 91.7198C185.843 91.5069 186.057 91.2939 186.2 91.081C187.556 88.9516 186.914 86.1123 184.844 84.7637L181.061 82.3503L183.631 78.6593C183.631 78.6593 183.845 78.3753 183.916 78.1624C184.487 77.3106 185.201 76.5298 186.129 76.104C187.2 75.6781 188.27 76.104 189.198 76.6008C190.055 77.0977 190.84 77.6655 191.697 78.1624C192.91 78.8722 194.123 79.582 195.266 80.4338C195.837 80.8597 196.408 81.3566 196.907 81.8534C197.336 82.2793 197.692 82.7762 197.907 83.344C198.049 83.8409 198.049 84.3378 197.764 84.7637C197.55 85.1186 197.121 85.4025 196.764 85.6154C197.978 85.4025 199.12 84.6927 199.905 83.557C201.261 81.4275 200.69 78.5883 198.549 77.2396L188.984 71.1353L194.552 63.2563C198.62 65.2438 203.26 66.3795 208.185 66.3795C225.174 66.3795 238.95 52.6801 238.95 35.7866C238.95 27.1979 235.381 19.4609 229.671 13.8534L229.956 14.0664ZM208.471 56.7261C196.979 56.7261 187.628 47.4275 187.628 35.9996C187.628 24.5716 196.979 15.273 208.471 15.273C219.963 15.273 229.314 24.5716 229.314 35.9996C229.314 47.4275 219.963 56.7261 208.471 56.7261Z" fill="#F1B81A"/>
</g>
<g style="mix-blend-mode:multiply">
<path d="M234.881 20.2419C235.595 22.3003 236.095 24.5008 236.38 26.6302C236.594 28.2628 236.737 29.8243 236.88 31.4569C237.023 32.9475 237.023 34.5091 236.88 35.9997C236.594 39.0519 236.166 42.7429 234.881 45.5112C232.597 50.5509 229.385 55.3066 224.959 58.6427C220.534 61.9079 216.822 63.3985 211.397 64.3212C208.685 64.7471 203.474 64.7471 200.762 64.0373C198.049 63.2565 195.622 61.6949 193.124 60.4882C191.768 64.6761 188.556 67.9413 187.128 72.0582C188.341 72.697 189.626 73.3358 190.911 73.9747C193.909 75.4653 196.978 77.1688 199.334 79.5822C199.976 80.221 200.547 81.0018 200.904 81.7826C201.118 80.0791 200.333 78.3755 198.834 77.3818L189.269 71.2774L194.837 63.3985C198.906 65.3859 203.545 66.5216 208.471 66.5216C225.459 66.5216 239.235 52.8223 239.235 35.9287C239.235 30.1793 237.594 24.7847 234.81 20.1709L234.881 20.2419Z" fill="#F1B81A"/>
</g>
<g style="mix-blend-mode:multiply">
<path d="M180.133 84.6219C180.989 84.7639 181.775 85.0478 182.56 85.4027C184.273 86.2545 185.915 87.5322 186.914 89.1647C187.057 89.3777 187.128 89.5906 187.199 89.7326C187.628 87.8871 186.843 85.9706 185.201 84.9059L181.489 82.5635C181.489 82.5635 181.418 82.7054 181.346 82.7764C180.918 83.3443 180.49 83.9831 180.133 84.6219Z" fill="#F1B81A"/>
</g>
<g style="mix-blend-mode:multiply">
<path d="M174.85 101.515C176.207 102.438 177.42 103.361 178.776 104.284C179.419 104.709 180.061 105.064 180.704 105.419C181.275 105.703 181.846 106.058 182.417 106.413C183.273 106.981 184.13 107.691 184.558 108.613C184.915 106.839 184.13 104.993 182.488 103.929L171.71 97.0435C171.21 97.7533 170.782 98.4631 170.354 99.1729C171.924 99.6698 173.351 100.522 174.708 101.444L174.85 101.515Z" fill="#F1B81A"/>
</g>
<g style="mix-blend-mode:screen">
<path d="M157.22 104.568C157.22 104.568 156.934 104.568 156.792 104.426C156.435 104.213 156.363 103.716 156.577 103.361L184.701 63.7535C184.701 63.7535 185.415 63.3276 185.772 63.5406C186.129 63.7535 186.2 64.2504 185.986 64.6053L157.862 104.213C157.862 104.213 157.505 104.568 157.22 104.568Z" fill="#FBF9D3"/>
</g>
<g style="mix-blend-mode:screen">
<path d="M181.205 29.7534C181.205 29.7534 181.062 29.7534 180.991 29.7534C180.563 29.6114 180.349 29.1855 180.491 28.7596C184.988 15.4862 193.768 10.3755 200.264 8.38803C207.33 6.25859 213.183 7.32331 213.469 7.32331C213.897 7.39429 214.183 7.82018 214.111 8.17508C214.04 8.60097 213.612 8.8849 213.255 8.81391C213.183 8.81391 207.402 7.82018 200.692 9.80765C191.769 12.5049 185.488 19.0352 181.99 29.1855C181.848 29.4695 181.562 29.6824 181.276 29.6824L181.205 29.7534Z" fill="#FBF9D3"/>
</g>
<g style="mix-blend-mode:screen">
<path d="M181.132 44.2338C181.132 44.2338 180.561 44.0918 180.418 43.7369C178.348 38.6972 179.775 31.5991 179.847 31.3152C179.918 30.8893 180.346 30.6764 180.775 30.7473C181.203 30.8183 181.488 31.2442 181.346 31.6701C181.346 31.6701 179.918 38.6263 181.845 43.1691C181.988 43.524 181.845 44.0208 181.417 44.1628C181.346 44.1628 181.203 44.1628 181.132 44.1628V44.2338Z" fill="#FBF9D3"/>
</g>
</g>
<defs>
<clipPath id="clip0_2162_5025">
<rect width="85.8701" height="108.53" fill="white" transform="translate(154.151 4.62598)"/>
</clipPath>
</defs>
</svg>
