<svg width="20" height="20" viewBox="0 0 20 20" fill="none" xmlns="http://www.w3.org/2000/svg">
<path d="M13.125 9.99999C13.125 10.5753 13.5914 11.0417 14.1667 11.0417C14.742 11.0417 15.2083 10.5753 15.2083 9.99999C15.2083 9.42469 14.742 8.95832 14.1667 8.95832C13.5914 8.95832 13.125 9.42469 13.125 9.99999Z" fill="#FFF9FF"/>
<path d="M10 11.0417C9.42471 11.0417 8.95834 10.5753 8.95834 9.99999C8.95834 9.42469 9.42471 8.95832 10 8.95832C10.5753 8.95832 11.0417 9.42469 11.0417 9.99999C11.0417 10.5753 10.5753 11.0417 10 11.0417Z" fill="#FFF9FF"/>
<path d="M4.79167 9.99999C4.79167 10.5753 5.25804 11.0417 5.83334 11.0417C6.40864 11.0417 6.87501 10.5753 6.87501 9.99999C6.87501 9.42469 6.40864 8.95832 5.83334 8.95832C5.25804 8.95832 4.79167 9.42469 4.79167 9.99999Z" fill="#FFF9FF"/>
<path fillRule="evenodd" clipRule="evenodd" d="M10 1.66666C5.39763 1.66666 1.66667 5.39762 1.66667 9.99999C1.66667 10.6936 1.75159 11.3685 1.91199 12.0144L2.12491 13.7177C2.12616 13.7277 2.12595 13.7379 2.12429 13.7478L1.83855 15.4622C1.67311 16.4549 2.36708 17.3857 3.36565 17.5105L7.98558 18.088C8.63149 18.2484 9.3064 18.3333 10 18.3333C14.6024 18.3333 18.3333 14.6024 18.3333 9.99999C18.3333 5.39762 14.6024 1.66666 10 1.66666ZM3.33334 9.99999C3.33334 6.31809 6.31811 3.33332 10 3.33332C13.6819 3.33332 16.6667 6.31809 16.6667 9.99999C16.6667 13.6819 13.6819 16.6667 10 16.6667C9.42788 16.6667 8.87374 16.5948 8.34562 16.46L8.29487 16.447L3.57237 15.8567C3.51363 15.8494 3.47281 15.7946 3.48254 15.7362L3.76828 14.0218C3.79643 13.8529 3.79994 13.6809 3.7787 13.511L3.55297 11.7051L3.54001 11.6544C3.40522 11.1263 3.33334 10.5721 3.33334 9.99999Z" fill="#FFF9FF"/>
</svg>
