<?xml version="1.0" encoding="UTF-8"?>
<!DOCTYPE svg PUBLIC "-//W3C//DTD SVG 1.1//EN" "http://www.w3.org/Graphics/SVG/1.1/DTD/svg11.dtd">
<!-- Creator: CorelDRAW 2021 (64-Bit) -->
<svg xmlns="http://www.w3.org/2000/svg" xml:space="preserve" width="4.07346in" height="1.1088in" version="1.1" style="shape-rendering:geometricPrecision; text-rendering:geometricPrecision; image-rendering:optimizeQuality; fillRule:evenodd; clipRule:evenodd"
viewBox="0 0 1198.27 326.17"
 xmlns:xlink="http://www.w3.org/1999/xlink"
 xmlns:xodm="http://www.corel.com/coreldraw/odm/2003">
 <defs>
  <style type="text/css">
   <![CDATA[
    .fil3 {fill:none}
    .fil2 {fill:black}
    .fil4 {fill:#162B6E}
    .fil1 {fill:#24A5EE}
    .fil5 {fill:#E3A23A}
    .fil0 {fill:#162B6E;fillRule:nonzero}
   ]]>
  </style>
   <clipPath id="id0">
    <path d="M-0 69.54l163.52 0 -41.66 38.56 -121.86 0 0 -38.56z"/>
   </clipPath>
     <mask id="id1">
  <linearGradient id="id2" gradientUnits="userSpaceOnUse" x1="233.38" y1="117.75" x2="76.49" y2="69.54">
   <stop offset="0" style="stop-opacity:1; stop-color:white"/>
   <stop offset="1" style="stop-opacity:0; stop-color:white"/>
  </linearGradient>
      <rect style="fill:url(#id2)" x="37.63" y="68.52" width="165.56" height="40.6"/>
     </mask>
   <clipPath id="id3">
    <path d="M13.49 198.08l167.23 -154.8 -180.72 0 0 -38.56 221.67 0 0 0.66 0 37.9 0 13.48 -177.49 162.4 62.02 67.78 115.47 -105.65 0 44.72 -94.14 87.08c-15.61,15.1 -25.34,19.04 -41.45,1.54 -25.42,-27.63 -50.61,-54.51 -76.51,-82.5 -12.09,-13.06 -8.82,-22.27 3.91,-34.05z"/>
   </clipPath>
     <mask id="id4">
  <linearGradient id="id5" gradientUnits="userSpaceOnUse" x1="-223.91" y1="601.89" x2="-32.84" y2="473.7">
   <stop offset="0" style="stop-opacity:1; stop-color:white"/>
   <stop offset="1" style="stop-opacity:0; stop-color:white"/>
  </linearGradient>
      <rect style="fill:url(#id5)" x="-186.75" y="307.13" width="223.71" height="331.93"/>
     </mask>
 </defs>
 <g id="Layer_x0020_1">
  <metadata id="CorelCorpID_0Corel-Layer"/>
  <path class="fil0" d="M279.86 225.35l0 -27.71 119.07 -158.96 9.44 10.66 -120.59 0 0 -37.15 156.83 0 0 27.41 -118.46 159.27 -9.74 -10.05 131.55 0 0 36.54 -168.1 0zm240.2 3.04c-13.2,0 -25.17,-3.65 -35.93,-10.96 -10.76,-7.31 -19.39,-17.26 -25.89,-29.84 -6.5,-12.59 -9.74,-26.9 -9.74,-42.94 0,-16.04 3.25,-30.35 9.74,-42.94 6.5,-12.59 15.33,-22.43 26.49,-29.54 11.17,-7.11 23.75,-10.66 37.76,-10.66 8.12,0 15.53,1.17 22.23,3.5 6.7,2.33 12.59,5.63 17.66,9.9 5.08,4.26 9.29,9.14 12.64,14.62 3.35,5.48 5.63,11.37 6.85,17.66l-8.22 -2.13 0 -40.2 37.76 0 0 160.48 -38.07 0 0 -38.37 8.83 -1.52c-1.42,5.48 -4.01,10.81 -7.77,15.99 -3.76,5.18 -8.43,9.74 -14.01,13.7 -5.58,3.96 -11.77,7.16 -18.58,9.59 -6.8,2.44 -14.06,3.65 -21.77,3.65zm10.35 -33.19c8.73,0 16.44,-2.13 23.14,-6.39 6.7,-4.26 11.93,-10.2 15.68,-17.82 3.76,-7.61 5.63,-16.39 5.63,-26.34 0,-9.75 -1.88,-18.37 -5.63,-25.89 -3.76,-7.51 -8.98,-13.4 -15.68,-17.66 -6.7,-4.26 -14.41,-6.39 -23.14,-6.39 -8.73,0 -16.39,2.13 -22.99,6.39 -6.6,4.26 -11.72,10.15 -15.38,17.66 -3.65,7.51 -5.48,16.14 -5.48,25.89 0,9.95 1.83,18.73 5.48,26.34 3.65,7.61 8.78,13.55 15.38,17.82 6.6,4.26 14.26,6.39 22.99,6.39zm187.21 33.19c-7.11,0 -14.06,-1.07 -20.86,-3.2 -6.8,-2.13 -12.94,-5.03 -18.42,-8.68 -5.48,-3.66 -10.05,-7.77 -13.7,-12.33 -3.66,-4.57 -6.09,-9.19 -7.31,-13.86l8.83 -3.96 -0.91 38.37 -36.24 0 0 -224.74 37.46 0 0 102.02 -6.7 -3.04c1.02,-4.87 3.3,-9.49 6.85,-13.86 3.55,-4.37 7.97,-8.32 13.25,-11.88 5.28,-3.55 11.06,-6.4 17.36,-8.53 6.29,-2.13 12.69,-3.2 19.18,-3.2 14.41,0 27.15,3.55 38.22,10.66 11.06,7.11 19.79,16.95 26.19,29.54 6.4,12.59 9.59,26.9 9.59,42.94 0,16.24 -3.15,30.65 -9.44,43.24 -6.29,12.59 -14.97,22.48 -26.04,29.69 -11.06,7.21 -23.5,10.81 -37.3,10.81zm-7.92 -32.89c8.53,0 16.14,-2.18 22.84,-6.55 6.7,-4.37 11.98,-10.35 15.84,-17.97 3.86,-7.61 5.79,-16.39 5.79,-26.34 0,-9.75 -1.88,-18.37 -5.63,-25.89 -3.76,-7.51 -8.98,-13.4 -15.68,-17.66 -6.7,-4.26 -14.41,-6.39 -23.14,-6.39 -8.73,0 -16.44,2.13 -23.14,6.39 -6.7,4.26 -11.98,10.15 -15.84,17.66 -3.86,7.51 -5.79,16.14 -5.79,25.89 0,9.95 1.93,18.73 5.79,26.34 3.86,7.61 9.14,13.6 15.84,17.97 6.7,4.37 14.41,6.55 23.14,6.55zm166.2 32.89c-8.12,0 -15.78,-1.22 -22.99,-3.65 -7.21,-2.44 -13.81,-5.84 -19.79,-10.2 -5.99,-4.36 -11.06,-9.49 -15.23,-15.38 -4.16,-5.89 -7.16,-12.18 -8.98,-18.88l5.48 4.87 -1.52 40.2 -14.62 0 0 -225.35 15.23 0 0 106.58 -4.57 5.18c1.83,-6.7 4.82,-12.99 8.98,-18.88 4.16,-5.89 9.24,-11.01 15.23,-15.38 5.99,-4.37 12.59,-7.77 19.79,-10.2 7.21,-2.44 14.87,-3.66 22.99,-3.66 14.01,0 26.7,3.55 38.07,10.66 11.37,7.11 20.45,16.85 27.26,29.23 6.8,12.38 10.2,26.6 10.2,42.63 0,15.84 -3.3,29.95 -9.9,42.33 -6.6,12.38 -15.58,22.13 -26.95,29.23 -11.37,7.11 -24.26,10.66 -38.67,10.66zm-2.13 -15.23c12.18,0 22.89,-2.94 32.13,-8.83 9.24,-5.89 16.44,-13.91 21.62,-24.06 5.18,-10.15 7.77,-21.62 7.77,-34.41 0,-12.99 -2.64,-24.51 -7.92,-34.56 -5.28,-10.05 -12.54,-17.97 -21.77,-23.75 -9.24,-5.79 -19.84,-8.68 -31.82,-8.68 -11.98,0 -22.58,2.89 -31.82,8.68 -9.24,5.79 -16.5,13.7 -21.77,23.75 -5.28,10.05 -7.92,21.57 -7.92,34.56 0,13.2 2.69,24.82 8.07,34.87 5.38,10.05 12.69,17.97 21.93,23.75 9.24,5.79 19.74,8.68 31.52,8.68zm154.03 15.23c-15.84,0 -29.89,-3.55 -42.18,-10.66 -12.28,-7.11 -21.93,-16.95 -28.93,-29.54 -7,-12.59 -10.51,-26.9 -10.51,-42.94 0,-15.84 3.5,-29.89 10.51,-42.18 7,-12.28 16.65,-21.93 28.93,-28.93 12.28,-7 26.34,-10.51 42.18,-10.51 15.84,0 29.89,3.5 42.18,10.51 12.28,7 21.88,16.65 28.78,28.93 6.9,12.28 10.35,26.34 10.35,42.18 0,16.04 -3.45,30.35 -10.35,42.94 -6.9,12.59 -16.5,22.43 -28.78,29.54 -12.28,7.11 -26.34,10.66 -42.18,10.66zm0 -15.23c12.59,0 23.8,-2.94 33.65,-8.83 9.85,-5.89 17.56,-13.91 23.14,-24.06 5.58,-10.15 8.37,-21.82 8.37,-35.02 0,-12.79 -2.79,-24.21 -8.37,-34.26 -5.58,-10.05 -13.3,-17.92 -23.14,-23.6 -9.85,-5.68 -21.06,-8.53 -33.65,-8.53 -12.79,0 -24.11,2.84 -33.95,8.53 -9.85,5.68 -17.56,13.55 -23.14,23.6 -5.58,10.05 -8.37,21.47 -8.37,34.26 0,13.2 2.79,24.87 8.37,35.02 5.58,10.15 13.3,18.17 23.14,24.06 9.85,5.89 21.16,8.83 33.95,8.83zm112.62 12.18l0 -200.68 15.23 0 0 200.68 -15.23 0zm-38.07 -144.35l0 -14.01 95.92 0 0 14.01 -95.92 0z"/>
  <g id="_1878262690032">
   <path class="fil0" d="M269.85 278.9c-0.96,0 -1.69,-0.28 -2.21,-0.84 -0.52,-0.56 -0.78,-1.34 -0.78,-2.35 0,-0.93 0.27,-1.69 0.82,-2.29 0.54,-0.6 1.27,-0.9 2.17,-0.9 0.96,0 1.69,0.27 2.21,0.82 0.52,0.54 0.78,1.33 0.78,2.37 0,0.93 -0.27,1.69 -0.82,2.29 -0.54,0.6 -1.27,0.9 -2.17,0.9zm9.48 0c-0.96,0 -1.69,-0.28 -2.21,-0.84 -0.52,-0.56 -0.78,-1.34 -0.78,-2.35 0,-0.93 0.27,-1.69 0.82,-2.29 0.54,-0.6 1.27,-0.9 2.17,-0.9 0.96,0 1.69,0.27 2.21,0.82 0.52,0.54 0.78,1.33 0.78,2.37 0,0.93 -0.27,1.69 -0.82,2.29 -0.54,0.6 -1.27,0.9 -2.17,0.9zm9.48 0c-0.96,0 -1.69,-0.28 -2.21,-0.84 -0.52,-0.56 -0.78,-1.34 -0.78,-2.35 0,-0.93 0.27,-1.69 0.82,-2.29 0.54,-0.6 1.27,-0.9 2.17,-0.9 0.96,0 1.69,0.27 2.21,0.82 0.52,0.54 0.78,1.33 0.78,2.37 0,0.93 -0.27,1.69 -0.82,2.29 -0.54,0.6 -1.27,0.9 -2.17,0.9zm9.88 -0.44l0 -26.33 4.9 0 0 26.33 -4.9 0zm-4.14 -16.45l0 -4.54 13.62 0 0 4.54 -13.62 0zm17.37 16.45l0 -29.48 4.86 0 0 12.79 -0.92 0.48c0.27,-0.96 0.78,-1.83 1.55,-2.61 0.77,-0.78 1.69,-1.41 2.75,-1.89 1.06,-0.48 2.15,-0.72 3.27,-0.72 1.59,0 2.93,0.32 4,0.96 1.08,0.64 1.89,1.59 2.43,2.87 0.55,1.27 0.82,2.87 0.82,4.78l0 12.83 -4.9 0 0 -12.47c0,-1.06 -0.15,-1.95 -0.44,-2.65 -0.29,-0.7 -0.74,-1.22 -1.35,-1.55 -0.61,-0.33 -1.36,-0.49 -2.23,-0.46 -0.72,0 -1.37,0.11 -1.97,0.34 -0.6,0.23 -1.12,0.54 -1.55,0.96 -0.44,0.41 -0.78,0.88 -1.04,1.42 -0.25,0.53 -0.38,1.12 -0.38,1.75l0 12.67 -2.43 0c-0.48,0 -0.92,0 -1.33,0 -0.41,0 -0.79,0 -1.13,0zm34.1 0.4c-2.2,0 -4.15,-0.46 -5.84,-1.39 -1.69,-0.93 -3,-2.2 -3.94,-3.8 -0.94,-1.61 -1.41,-3.45 -1.41,-5.52 0,-1.65 0.27,-3.15 0.8,-4.5 0.53,-1.36 1.27,-2.53 2.21,-3.53 0.94,-1 2.07,-1.77 3.39,-2.31 1.31,-0.54 2.76,-0.82 4.32,-0.82 1.38,0 2.67,0.27 3.86,0.8 1.2,0.53 2.23,1.25 3.11,2.17 0.88,0.92 1.55,2 2.01,3.27 0.47,1.26 0.68,2.64 0.66,4.12l-0.04 1.71 -17.01 0 -0.92 -3.35 13.82 0 -0.64 0.68 0 -0.88c-0.08,-0.82 -0.35,-1.55 -0.8,-2.17 -0.45,-0.62 -1.03,-1.12 -1.73,-1.47 -0.7,-0.36 -1.48,-0.54 -2.33,-0.54 -1.3,0 -2.4,0.25 -3.29,0.76 -0.89,0.5 -1.56,1.23 -2.01,2.17 -0.45,0.94 -0.68,2.12 -0.68,3.53 0,1.36 0.28,2.54 0.86,3.55 0.57,1.01 1.38,1.79 2.43,2.33 1.05,0.54 2.28,0.82 3.68,0.82 0.98,0 1.89,-0.16 2.71,-0.48 0.82,-0.32 1.71,-0.89 2.67,-1.71l2.43 3.39c-0.72,0.66 -1.53,1.23 -2.45,1.69 -0.92,0.46 -1.88,0.83 -2.89,1.1 -1.01,0.27 -2,0.4 -2.99,0.4zm32.23 0c-1.86,0 -3.53,-0.31 -5,-0.94 -1.47,-0.62 -2.68,-1.52 -3.61,-2.69l3.19 -2.75c0.8,0.9 1.69,1.55 2.67,1.95 0.98,0.4 2.02,0.6 3.11,0.6 0.45,0 0.86,-0.05 1.21,-0.16 0.36,-0.11 0.67,-0.27 0.94,-0.48 0.27,-0.21 0.47,-0.46 0.62,-0.74 0.15,-0.28 0.22,-0.59 0.22,-0.94 0,-0.64 -0.24,-1.14 -0.72,-1.51 -0.27,-0.19 -0.68,-0.38 -1.25,-0.6 -0.57,-0.21 -1.31,-0.43 -2.21,-0.64 -1.43,-0.37 -2.63,-0.8 -3.59,-1.29 -0.96,-0.49 -1.7,-1.04 -2.23,-1.65 -0.45,-0.5 -0.79,-1.07 -1.02,-1.71 -0.23,-0.64 -0.34,-1.33 -0.34,-2.07 0,-0.93 0.2,-1.77 0.62,-2.53 0.41,-0.76 0.98,-1.41 1.69,-1.97 0.72,-0.56 1.55,-0.98 2.51,-1.27 0.96,-0.29 1.95,-0.44 2.99,-0.44 1.06,0 2.09,0.13 3.09,0.4 1,0.27 1.92,0.64 2.79,1.14 0.86,0.49 1.6,1.08 2.21,1.77l-2.71 2.99c-0.5,-0.48 -1.06,-0.9 -1.65,-1.27 -0.6,-0.37 -1.2,-0.67 -1.81,-0.9 -0.61,-0.23 -1.18,-0.34 -1.71,-0.34 -0.5,0 -0.96,0.05 -1.36,0.14 -0.4,0.09 -0.73,0.23 -1,0.42 -0.27,0.19 -0.47,0.42 -0.62,0.7 -0.15,0.28 -0.22,0.6 -0.22,0.98 0.03,0.32 0.11,0.62 0.26,0.9 0.15,0.28 0.35,0.51 0.62,0.7 0.29,0.19 0.73,0.4 1.31,0.64 0.58,0.24 1.34,0.46 2.27,0.68 1.3,0.35 2.39,0.73 3.27,1.15 0.88,0.43 1.57,0.92 2.07,1.47 0.5,0.48 0.86,1.04 1.08,1.67 0.21,0.64 0.32,1.34 0.32,2.11 0,1.25 -0.35,2.36 -1.06,3.35 -0.7,0.98 -1.66,1.75 -2.87,2.31 -1.21,0.56 -2.57,0.84 -4.08,0.84zm12.31 8.37l0 -29.76 4.82 0 0.08 4.78 -0.84 -0.36c0.16,-0.82 0.61,-1.6 1.36,-2.33 0.74,-0.73 1.65,-1.32 2.73,-1.77 1.08,-0.45 2.2,-0.68 3.37,-0.68 1.86,0 3.51,0.46 4.96,1.39 1.45,0.93 2.59,2.21 3.43,3.82 0.84,1.62 1.26,3.49 1.26,5.62 0,2.1 -0.42,3.96 -1.26,5.6 -0.84,1.63 -1.98,2.92 -3.43,3.86 -1.45,0.94 -3.07,1.42 -4.88,1.42 -1.22,0 -2.4,-0.24 -3.53,-0.72 -1.13,-0.48 -2.09,-1.1 -2.87,-1.87 -0.78,-0.77 -1.27,-1.58 -1.45,-2.43l1.2 -0.56 0 13.98 -4.94 0zm10.6 -12.75c1.12,0 2.11,-0.28 2.99,-0.84 0.88,-0.56 1.56,-1.33 2.05,-2.31 0.49,-0.98 0.74,-2.11 0.74,-3.39 0,-1.28 -0.24,-2.4 -0.72,-3.37 -0.48,-0.97 -1.16,-1.73 -2.03,-2.29 -0.88,-0.56 -1.89,-0.84 -3.03,-0.84 -1.17,0 -2.18,0.27 -3.05,0.82 -0.86,0.54 -1.55,1.31 -2.05,2.29 -0.5,0.98 -0.76,2.11 -0.76,3.39 0,1.27 0.25,2.4 0.76,3.39 0.5,0.98 1.19,1.75 2.05,2.31 0.86,0.56 1.88,0.84 3.05,0.84zm22.87 4.38c-1.73,0 -3.29,-0.48 -4.7,-1.43 -1.41,-0.96 -2.54,-2.26 -3.39,-3.9 -0.85,-1.65 -1.28,-3.52 -1.28,-5.62 0,-2.1 0.43,-3.97 1.28,-5.62 0.85,-1.65 2.01,-2.93 3.47,-3.86 1.46,-0.93 3.11,-1.39 4.94,-1.39 1.06,0 2.03,0.15 2.91,0.46 0.88,0.31 1.65,0.74 2.31,1.29 0.66,0.56 1.21,1.2 1.65,1.91 0.44,0.72 0.74,1.49 0.9,2.31l-1.08 -0.28 0 -5.26 4.94 0 0 20.99 -4.98 0 0 -5.02 1.16 -0.2c-0.19,0.72 -0.52,1.41 -1.02,2.09 -0.49,0.68 -1.1,1.27 -1.83,1.79 -0.73,0.52 -1.54,0.94 -2.43,1.25 -0.89,0.32 -1.84,0.48 -2.85,0.48zm1.36 -4.34c1.14,0 2.15,-0.28 3.03,-0.84 0.88,-0.56 1.56,-1.33 2.05,-2.33 0.49,-1 0.74,-2.14 0.74,-3.45 0,-1.28 -0.25,-2.4 -0.74,-3.39 -0.49,-0.98 -1.18,-1.75 -2.05,-2.31 -0.88,-0.56 -1.89,-0.84 -3.03,-0.84 -1.14,0 -2.14,0.28 -3.01,0.84 -0.86,0.56 -1.53,1.33 -2.01,2.31 -0.48,0.98 -0.72,2.11 -0.72,3.39 0,1.3 0.24,2.45 0.72,3.45 0.48,1 1.15,1.77 2.01,2.33 0.86,0.56 1.87,0.84 3.01,0.84zm16.29 3.94l0 -20.99 4.82 0 0.08 6.69 -0.68 -1.51c0.29,-1.06 0.8,-2.02 1.51,-2.87 0.72,-0.85 1.55,-1.52 2.49,-2.01 0.94,-0.49 1.93,-0.74 2.97,-0.74 0.45,0 0.88,0.04 1.29,0.12 0.41,0.08 0.75,0.17 1.02,0.28l-1.31 5.38c-0.29,-0.16 -0.65,-0.29 -1.08,-0.4 -0.43,-0.11 -0.85,-0.16 -1.28,-0.16 -0.66,0 -1.29,0.13 -1.89,0.38 -0.6,0.25 -1.12,0.6 -1.57,1.06 -0.45,0.45 -0.8,0.98 -1.06,1.57 -0.25,0.6 -0.38,1.27 -0.38,2.01l0 11.19 -4.94 0zm21.35 -6.41l-0.96 -4.58 9.96 -10 6.53 0 -15.54 14.58zm-4.58 6.41l0 -29.48 4.9 0 0 29.48 -4.9 0zm14.18 0l-7.73 -9.36 3.47 -2.95 10.32 12.31 -6.05 0zm23.26 0l0 -26.33 4.9 0 0 26.33 -4.9 0zm-4.14 -16.45l0 -4.54 13.62 0 0 4.54 -13.62 0zm17.37 16.45l0 -29.48 4.86 0 0 12.79 -0.92 0.48c0.27,-0.96 0.78,-1.83 1.55,-2.61 0.77,-0.78 1.69,-1.41 2.75,-1.89 1.06,-0.48 2.15,-0.72 3.27,-0.72 1.59,0 2.93,0.32 4,0.96 1.08,0.64 1.89,1.59 2.43,2.87 0.55,1.27 0.82,2.87 0.82,4.78l0 12.83 -4.9 0 0 -12.47c0,-1.06 -0.15,-1.95 -0.44,-2.65 -0.29,-0.7 -0.74,-1.22 -1.35,-1.55 -0.61,-0.33 -1.36,-0.49 -2.23,-0.46 -0.72,0 -1.37,0.11 -1.97,0.34 -0.6,0.23 -1.12,0.54 -1.55,0.96 -0.44,0.41 -0.78,0.88 -1.04,1.42 -0.25,0.53 -0.38,1.12 -0.38,1.75l0 12.67 -2.43 0c-0.48,0 -0.92,0 -1.33,0 -0.41,0 -0.79,0 -1.13,0zm32.19 0.4c-1.73,0 -3.29,-0.48 -4.7,-1.43 -1.41,-0.96 -2.54,-2.26 -3.39,-3.9 -0.85,-1.65 -1.28,-3.52 -1.28,-5.62 0,-2.1 0.43,-3.97 1.28,-5.62 0.85,-1.65 2.01,-2.93 3.47,-3.86 1.46,-0.93 3.11,-1.39 4.94,-1.39 1.06,0 2.03,0.15 2.91,0.46 0.88,0.31 1.65,0.74 2.31,1.29 0.66,0.56 1.21,1.2 1.65,1.91 0.44,0.72 0.74,1.49 0.9,2.31l-1.08 -0.28 0 -5.26 4.94 0 0 20.99 -4.98 0 0 -5.02 1.16 -0.2c-0.19,0.72 -0.52,1.41 -1.02,2.09 -0.49,0.68 -1.1,1.27 -1.83,1.79 -0.73,0.52 -1.54,0.94 -2.43,1.25 -0.89,0.32 -1.84,0.48 -2.85,0.48zm1.36 -4.34c1.14,0 2.15,-0.28 3.03,-0.84 0.88,-0.56 1.56,-1.33 2.05,-2.33 0.49,-1 0.74,-2.14 0.74,-3.45 0,-1.28 -0.25,-2.4 -0.74,-3.39 -0.49,-0.98 -1.18,-1.75 -2.05,-2.31 -0.88,-0.56 -1.89,-0.84 -3.03,-0.84 -1.14,0 -2.14,0.28 -3.01,0.84 -0.86,0.56 -1.53,1.33 -2.01,2.31 -0.48,0.98 -0.72,2.11 -0.72,3.39 0,1.3 0.24,2.45 0.72,3.45 0.48,1 1.15,1.77 2.01,2.33 0.86,0.56 1.87,0.84 3.01,0.84zm18.56 3.94l0 -26.33 4.9 0 0 26.33 -4.9 0zm-4.14 -16.45l0 -4.54 13.62 0 0 4.54 -13.62 0zm29.08 25.22l0 -29.76 4.82 0 0.08 4.78 -0.84 -0.36c0.16,-0.82 0.61,-1.6 1.36,-2.33 0.74,-0.73 1.65,-1.32 2.73,-1.77 1.08,-0.45 2.2,-0.68 3.37,-0.68 1.86,0 3.51,0.46 4.96,1.39 1.45,0.93 2.59,2.21 3.43,3.82 0.84,1.62 1.26,3.49 1.26,5.62 0,2.1 -0.42,3.96 -1.26,5.6 -0.84,1.63 -1.98,2.92 -3.43,3.86 -1.45,0.94 -3.07,1.42 -4.88,1.42 -1.22,0 -2.4,-0.24 -3.53,-0.72 -1.13,-0.48 -2.09,-1.1 -2.87,-1.87 -0.78,-0.77 -1.27,-1.58 -1.45,-2.43l1.2 -0.56 0 13.98 -4.94 0zm10.6 -12.75c1.12,0 2.11,-0.28 2.99,-0.84 0.88,-0.56 1.56,-1.33 2.05,-2.31 0.49,-0.98 0.74,-2.11 0.74,-3.39 0,-1.28 -0.24,-2.4 -0.72,-3.37 -0.48,-0.97 -1.16,-1.73 -2.03,-2.29 -0.88,-0.56 -1.89,-0.84 -3.03,-0.84 -1.17,0 -2.18,0.27 -3.05,0.82 -0.86,0.54 -1.55,1.31 -2.05,2.29 -0.5,0.98 -0.76,2.11 -0.76,3.39 0,1.27 0.25,2.4 0.76,3.39 0.5,0.98 1.19,1.75 2.05,2.31 0.86,0.56 1.88,0.84 3.05,0.84zm24.54 4.38c-2.1,0 -3.97,-0.47 -5.62,-1.41 -1.65,-0.94 -2.95,-2.24 -3.9,-3.88 -0.96,-1.65 -1.43,-3.52 -1.43,-5.62 0,-2.1 0.48,-3.97 1.43,-5.62 0.96,-1.65 2.26,-2.94 3.9,-3.88 1.65,-0.94 3.52,-1.42 5.62,-1.42 2.07,0 3.93,0.47 5.58,1.42 1.65,0.94 2.94,2.24 3.88,3.88 0.94,1.65 1.41,3.52 1.41,5.62 0,2.1 -0.47,3.97 -1.41,5.62 -0.94,1.65 -2.24,2.94 -3.88,3.88 -1.65,0.94 -3.51,1.41 -5.58,1.41zm0 -4.34c1.14,0 2.16,-0.29 3.05,-0.88 0.89,-0.58 1.59,-1.37 2.11,-2.35 0.52,-0.98 0.76,-2.1 0.74,-3.35 0.03,-1.28 -0.22,-2.4 -0.74,-3.39 -0.52,-0.98 -1.22,-1.76 -2.11,-2.33 -0.89,-0.57 -1.91,-0.86 -3.05,-0.86 -1.14,0 -2.17,0.28 -3.09,0.86 -0.92,0.57 -1.63,1.36 -2.13,2.35 -0.5,1 -0.76,2.12 -0.76,3.37 0,1.25 0.25,2.36 0.76,3.35 0.5,0.98 1.21,1.77 2.13,2.35 0.92,0.58 1.95,0.88 3.09,0.88zm19.4 3.94l-7.05 -20.99 5.02 -0.04 4.7 14.98 -0.88 -0.08 5.1 -11.71 2.95 0 5.22 11.71 -1.04 0.12 4.74 -14.98 5.02 0 -7.09 20.99 -3.51 0 -5.38 -12.59 0.76 0.08 -5.1 12.51 -3.47 0zm36.65 0.4c-2.2,0 -4.15,-0.46 -5.84,-1.39 -1.69,-0.93 -3,-2.2 -3.94,-3.8 -0.94,-1.61 -1.41,-3.45 -1.41,-5.52 0,-1.65 0.27,-3.15 0.8,-4.5 0.53,-1.36 1.27,-2.53 2.21,-3.53 0.94,-1 2.07,-1.77 3.39,-2.31 1.31,-0.54 2.76,-0.82 4.32,-0.82 1.38,0 2.67,0.27 3.86,0.8 1.2,0.53 2.23,1.25 3.11,2.17 0.88,0.92 1.55,2 2.01,3.27 0.47,1.26 0.68,2.64 0.66,4.12l-0.04 1.71 -17.01 0 -0.92 -3.35 13.82 0 -0.64 0.68 0 -0.88c-0.08,-0.82 -0.35,-1.55 -0.8,-2.17 -0.45,-0.62 -1.03,-1.12 -1.73,-1.47 -0.7,-0.36 -1.48,-0.54 -2.33,-0.54 -1.3,0 -2.4,0.25 -3.29,0.76 -0.89,0.5 -1.56,1.23 -2.01,2.17 -0.45,0.94 -0.68,2.12 -0.68,3.53 0,1.36 0.28,2.54 0.86,3.55 0.57,1.01 1.38,1.79 2.43,2.33 1.05,0.54 2.28,0.82 3.68,0.82 0.98,0 1.89,-0.16 2.71,-0.48 0.82,-0.32 1.71,-0.89 2.67,-1.71l2.43 3.39c-0.72,0.66 -1.53,1.23 -2.45,1.69 -0.92,0.46 -1.88,0.83 -2.89,1.1 -1.01,0.27 -2,0.4 -2.99,0.4zm13.51 -0.4l0 -20.99 4.82 0 0.08 6.69 -0.68 -1.51c0.29,-1.06 0.8,-2.02 1.51,-2.87 0.72,-0.85 1.55,-1.52 2.49,-2.01 0.94,-0.49 1.93,-0.74 2.97,-0.74 0.45,0 0.88,0.04 1.29,0.12 0.41,0.08 0.75,0.17 1.02,0.28l-1.31 5.38c-0.29,-0.16 -0.65,-0.29 -1.08,-0.4 -0.43,-0.11 -0.85,-0.16 -1.28,-0.16 -0.66,0 -1.29,0.13 -1.89,0.38 -0.6,0.25 -1.12,0.6 -1.57,1.06 -0.45,0.45 -0.8,0.98 -1.06,1.57 -0.25,0.6 -0.38,1.27 -0.38,2.01l0 11.19 -4.94 0zm23.78 0.4c-1.86,0 -3.53,-0.31 -5,-0.94 -1.47,-0.62 -2.68,-1.52 -3.61,-2.69l3.19 -2.75c0.8,0.9 1.69,1.55 2.67,1.95 0.98,0.4 2.02,0.6 3.11,0.6 0.45,0 0.86,-0.05 1.21,-0.16 0.36,-0.11 0.67,-0.27 0.94,-0.48 0.27,-0.21 0.47,-0.46 0.62,-0.74 0.15,-0.28 0.22,-0.59 0.22,-0.94 0,-0.64 -0.24,-1.14 -0.72,-1.51 -0.27,-0.19 -0.68,-0.38 -1.25,-0.6 -0.57,-0.21 -1.31,-0.43 -2.21,-0.64 -1.43,-0.37 -2.63,-0.8 -3.59,-1.29 -0.96,-0.49 -1.7,-1.04 -2.23,-1.65 -0.45,-0.5 -0.79,-1.07 -1.02,-1.71 -0.23,-0.64 -0.34,-1.33 -0.34,-2.07 0,-0.93 0.2,-1.77 0.62,-2.53 0.41,-0.76 0.98,-1.41 1.69,-1.97 0.72,-0.56 1.55,-0.98 2.51,-1.27 0.96,-0.29 1.95,-0.44 2.99,-0.44 1.06,0 2.09,0.13 3.09,0.4 1,0.27 1.92,0.64 2.79,1.14 0.86,0.49 1.6,1.08 2.21,1.77l-2.71 2.99c-0.5,-0.48 -1.06,-0.9 -1.65,-1.27 -0.6,-0.37 -1.2,-0.67 -1.81,-0.9 -0.61,-0.23 -1.18,-0.34 -1.71,-0.34 -0.5,0 -0.96,0.05 -1.36,0.14 -0.4,0.09 -0.73,0.23 -1,0.42 -0.27,0.19 -0.47,0.42 -0.62,0.7 -0.15,0.28 -0.22,0.6 -0.22,0.98 0.03,0.32 0.11,0.62 0.26,0.9 0.15,0.28 0.35,0.51 0.62,0.7 0.29,0.19 0.73,0.4 1.31,0.64 0.58,0.24 1.34,0.46 2.27,0.68 1.3,0.35 2.39,0.73 3.27,1.15 0.88,0.43 1.57,0.92 2.07,1.47 0.5,0.48 0.86,1.04 1.08,1.67 0.21,0.64 0.32,1.34 0.32,2.11 0,1.25 -0.35,2.36 -1.06,3.35 -0.7,0.98 -1.66,1.75 -2.87,2.31 -1.21,0.56 -2.57,0.84 -4.08,0.84zm24.06 -0.4l0 -29.48 4.94 0 0 29.48 -4.94 0zm18.25 0.4c-1.73,0 -3.29,-0.48 -4.7,-1.43 -1.41,-0.96 -2.54,-2.26 -3.39,-3.9 -0.85,-1.65 -1.28,-3.52 -1.28,-5.62 0,-2.1 0.43,-3.97 1.28,-5.62 0.85,-1.65 2.01,-2.93 3.47,-3.86 1.46,-0.93 3.11,-1.39 4.94,-1.39 1.06,0 2.03,0.15 2.91,0.46 0.88,0.31 1.65,0.74 2.31,1.29 0.66,0.56 1.21,1.2 1.65,1.91 0.44,0.72 0.74,1.49 0.9,2.31l-1.08 -0.28 0 -5.26 4.94 0 0 20.99 -4.98 0 0 -5.02 1.16 -0.2c-0.19,0.72 -0.52,1.41 -1.02,2.09 -0.49,0.68 -1.1,1.27 -1.83,1.79 -0.73,0.52 -1.54,0.94 -2.43,1.25 -0.89,0.32 -1.84,0.48 -2.85,0.48zm1.36 -4.34c1.14,0 2.15,-0.28 3.03,-0.84 0.88,-0.56 1.56,-1.33 2.05,-2.33 0.49,-1 0.74,-2.14 0.74,-3.45 0,-1.28 -0.25,-2.4 -0.74,-3.39 -0.49,-0.98 -1.18,-1.75 -2.05,-2.31 -0.88,-0.56 -1.89,-0.84 -3.03,-0.84 -1.14,0 -2.14,0.28 -3.01,0.84 -0.86,0.56 -1.53,1.33 -2.01,2.31 -0.48,0.98 -0.72,2.11 -0.72,3.39 0,1.3 0.24,2.45 0.72,3.45 0.48,1 1.15,1.77 2.01,2.33 0.86,0.56 1.87,0.84 3.01,0.84zm16.29 3.94l0 -20.99 4.78 0 0.08 4.3 -0.92 0.48c0.27,-0.96 0.78,-1.83 1.55,-2.61 0.77,-0.78 1.69,-1.41 2.75,-1.89 1.06,-0.48 2.15,-0.72 3.27,-0.72 1.59,0 2.93,0.32 4,0.96 1.08,0.64 1.89,1.59 2.43,2.87 0.55,1.27 0.82,2.87 0.82,4.78l0 12.83 -4.9 0 0 -12.47c0,-1.06 -0.15,-1.95 -0.44,-2.65 -0.29,-0.7 -0.74,-1.22 -1.35,-1.55 -0.61,-0.33 -1.36,-0.49 -2.23,-0.46 -0.72,0 -1.37,0.11 -1.97,0.34 -0.6,0.23 -1.12,0.54 -1.55,0.96 -0.44,0.41 -0.78,0.88 -1.04,1.42 -0.25,0.53 -0.38,1.12 -0.38,1.75l0 12.67 -2.43 0c-0.48,0 -0.92,0 -1.33,0 -0.41,0 -0.79,0 -1.13,0zm33.7 9.16c-1.57,0 -3.13,-0.24 -4.68,-0.72 -1.55,-0.48 -2.81,-1.1 -3.76,-1.87l1.75 -3.62c0.56,0.4 1.18,0.74 1.87,1.04 0.69,0.29 1.43,0.52 2.21,0.68 0.78,0.16 1.56,0.24 2.33,0.24 1.41,0 2.58,-0.22 3.53,-0.66 0.94,-0.44 1.65,-1.1 2.13,-1.99 0.48,-0.89 0.72,-2 0.72,-3.33l0 -3.86 0.72 0.28c-0.16,0.82 -0.6,1.61 -1.32,2.35 -0.72,0.74 -1.62,1.35 -2.71,1.81 -1.09,0.46 -2.2,0.7 -3.35,0.7 -1.99,0 -3.75,-0.46 -5.28,-1.39 -1.53,-0.93 -2.74,-2.2 -3.62,-3.8 -0.89,-1.61 -1.34,-3.46 -1.34,-5.56 0,-2.1 0.44,-3.96 1.31,-5.6 0.88,-1.63 2.08,-2.92 3.61,-3.86 1.53,-0.94 3.25,-1.42 5.16,-1.42 0.8,0 1.57,0.09 2.31,0.28 0.74,0.19 1.43,0.45 2.05,0.8 0.62,0.35 1.19,0.73 1.69,1.16 0.5,0.43 0.92,0.88 1.23,1.35 0.32,0.48 0.52,0.94 0.6,1.39l-1.04 0.32 0.08 -4.86 4.82 0 0 19.56c0,1.7 -0.25,3.2 -0.76,4.5 -0.5,1.3 -1.23,2.41 -2.19,3.33 -0.96,0.92 -2.11,1.61 -3.47,2.07 -1.36,0.46 -2.9,0.7 -4.62,0.7zm0.2 -13.15c1.2,0 2.25,-0.28 3.17,-0.84 0.92,-0.56 1.63,-1.33 2.13,-2.31 0.5,-0.98 0.76,-2.11 0.76,-3.39 0,-1.3 -0.26,-2.45 -0.78,-3.45 -0.52,-1 -1.23,-1.77 -2.13,-2.33 -0.9,-0.56 -1.95,-0.84 -3.15,-0.84 -1.2,0 -2.24,0.29 -3.15,0.86 -0.9,0.57 -1.61,1.36 -2.13,2.35 -0.52,1 -0.78,2.13 -0.78,3.41 0,1.25 0.26,2.37 0.78,3.37 0.52,1 1.23,1.77 2.13,2.33 0.9,0.56 1.95,0.84 3.15,0.84zm23.47 4.38c-1.51,0 -2.83,-0.34 -3.94,-1.02 -1.12,-0.68 -1.97,-1.65 -2.55,-2.91 -0.58,-1.26 -0.88,-2.77 -0.88,-4.52l0 -12.95 4.9 0 0 11.91c0,1.12 0.17,2.06 0.52,2.85 0.35,0.78 0.85,1.39 1.51,1.81 0.66,0.43 1.46,0.64 2.39,0.64 0.69,0 1.32,-0.11 1.89,-0.34 0.57,-0.23 1.07,-0.54 1.49,-0.96 0.43,-0.41 0.76,-0.9 1,-1.47 0.24,-0.57 0.36,-1.19 0.36,-1.85l0 -12.59 4.9 0 0 20.99 -4.78 0 -0.08 -4.38 0.88 -0.48c-0.32,1.01 -0.86,1.91 -1.61,2.69 -0.76,0.78 -1.65,1.41 -2.69,1.87 -1.04,0.46 -2.14,0.7 -3.31,0.7zm25.26 0c-1.73,0 -3.29,-0.48 -4.7,-1.43 -1.41,-0.96 -2.54,-2.26 -3.39,-3.9 -0.85,-1.65 -1.28,-3.52 -1.28,-5.62 0,-2.1 0.43,-3.97 1.28,-5.62 0.85,-1.65 2.01,-2.93 3.47,-3.86 1.46,-0.93 3.11,-1.39 4.94,-1.39 1.06,0 2.03,0.15 2.91,0.46 0.88,0.31 1.65,0.74 2.31,1.29 0.66,0.56 1.21,1.2 1.65,1.91 0.44,0.72 0.74,1.49 0.9,2.31l-1.08 -0.28 0 -5.26 4.94 0 0 20.99 -4.98 0 0 -5.02 1.16 -0.2c-0.19,0.72 -0.52,1.41 -1.02,2.09 -0.49,0.68 -1.1,1.27 -1.83,1.79 -0.73,0.52 -1.54,0.94 -2.43,1.25 -0.89,0.32 -1.84,0.48 -2.85,0.48zm1.36 -4.34c1.14,0 2.15,-0.28 3.03,-0.84 0.88,-0.56 1.56,-1.33 2.05,-2.33 0.49,-1 0.74,-2.14 0.74,-3.45 0,-1.28 -0.25,-2.4 -0.74,-3.39 -0.49,-0.98 -1.18,-1.75 -2.05,-2.31 -0.88,-0.56 -1.89,-0.84 -3.03,-0.84 -1.14,0 -2.14,0.28 -3.01,0.84 -0.86,0.56 -1.53,1.33 -2.01,2.31 -0.48,0.98 -0.72,2.11 -0.72,3.39 0,1.3 0.24,2.45 0.72,3.45 0.48,1 1.15,1.77 2.01,2.33 0.86,0.56 1.87,0.84 3.01,0.84zm25.73 13.11c-1.57,0 -3.13,-0.24 -4.68,-0.72 -1.55,-0.48 -2.81,-1.1 -3.76,-1.87l1.75 -3.62c0.56,0.4 1.18,0.74 1.87,1.04 0.69,0.29 1.43,0.52 2.21,0.68 0.78,0.16 1.56,0.24 2.33,0.24 1.41,0 2.58,-0.22 3.53,-0.66 0.94,-0.44 1.65,-1.1 2.13,-1.99 0.48,-0.89 0.72,-2 0.72,-3.33l0 -3.86 0.72 0.28c-0.16,0.82 -0.6,1.61 -1.32,2.35 -0.72,0.74 -1.62,1.35 -2.71,1.81 -1.09,0.46 -2.2,0.7 -3.35,0.7 -1.99,0 -3.75,-0.46 -5.28,-1.39 -1.53,-0.93 -2.74,-2.2 -3.62,-3.8 -0.89,-1.61 -1.34,-3.46 -1.34,-5.56 0,-2.1 0.44,-3.96 1.31,-5.6 0.88,-1.63 2.08,-2.92 3.61,-3.86 1.53,-0.94 3.25,-1.42 5.16,-1.42 0.8,0 1.57,0.09 2.31,0.28 0.74,0.19 1.43,0.45 2.05,0.8 0.62,0.35 1.19,0.73 1.69,1.16 0.5,0.43 0.92,0.88 1.23,1.35 0.32,0.48 0.52,0.94 0.6,1.39l-1.04 0.32 0.08 -4.86 4.82 0 0 19.56c0,1.7 -0.25,3.2 -0.76,4.5 -0.5,1.3 -1.23,2.41 -2.19,3.33 -0.96,0.92 -2.11,1.61 -3.47,2.07 -1.36,0.46 -2.9,0.7 -4.62,0.7zm0.2 -13.15c1.2,0 2.25,-0.28 3.17,-0.84 0.92,-0.56 1.63,-1.33 2.13,-2.31 0.5,-0.98 0.76,-2.11 0.76,-3.39 0,-1.3 -0.26,-2.45 -0.78,-3.45 -0.52,-1 -1.23,-1.77 -2.13,-2.33 -0.9,-0.56 -1.95,-0.84 -3.15,-0.84 -1.2,0 -2.24,0.29 -3.15,0.86 -0.9,0.57 -1.61,1.36 -2.13,2.35 -0.52,1 -0.78,2.13 -0.78,3.41 0,1.25 0.26,2.37 0.78,3.37 0.52,1 1.23,1.77 2.13,2.33 0.9,0.56 1.95,0.84 3.15,0.84z"/>
   <path class="fil0" d="M910.85 278.86c-2.2,0 -4.15,-0.46 -5.84,-1.39 -1.69,-0.93 -3,-2.2 -3.94,-3.8 -0.94,-1.61 -1.41,-3.45 -1.41,-5.52 0,-1.65 0.27,-3.15 0.8,-4.5 0.53,-1.36 1.27,-2.53 2.21,-3.53 0.94,-1 2.07,-1.77 3.39,-2.31 1.31,-0.54 2.76,-0.82 4.32,-0.82 1.38,0 2.67,0.27 3.86,0.8 1.2,0.53 2.23,1.25 3.11,2.17 0.88,0.92 1.55,2 2.01,3.27 0.47,1.26 0.68,2.64 0.66,4.12l-0.04 1.71 -17.01 0 -0.92 -3.35 13.82 0 -0.64 0.68 0 -0.88c-0.08,-0.82 -0.35,-1.55 -0.8,-2.17 -0.45,-0.62 -1.03,-1.12 -1.73,-1.47 -0.7,-0.36 -1.48,-0.54 -2.33,-0.54 -1.3,0 -2.4,0.25 -3.29,0.76 -0.89,0.5 -1.56,1.23 -2.01,2.17 -0.45,0.94 -0.68,2.12 -0.68,3.53 0,1.36 0.28,2.54 0.86,3.55 0.57,1.01 1.38,1.79 2.43,2.33 1.05,0.54 2.28,0.82 3.68,0.82 0.98,0 1.89,-0.16 2.71,-0.48 0.82,-0.32 1.71,-0.89 2.67,-1.71l2.43 3.39c-0.72,0.66 -1.53,1.23 -2.45,1.69 -0.92,0.46 -1.88,0.83 -2.89,1.1 -1.01,0.27 -2,0.4 -2.99,0.4zm33.15 0c-1.73,0 -3.29,-0.48 -4.7,-1.43 -1.41,-0.96 -2.54,-2.26 -3.39,-3.9 -0.85,-1.65 -1.28,-3.52 -1.28,-5.62 0,-2.1 0.43,-3.97 1.28,-5.62 0.85,-1.65 2.01,-2.93 3.47,-3.86 1.46,-0.93 3.11,-1.39 4.94,-1.39 1.06,0 2.03,0.15 2.91,0.46 0.88,0.31 1.65,0.74 2.31,1.29 0.66,0.56 1.21,1.2 1.65,1.91 0.44,0.72 0.74,1.49 0.9,2.31l-1.08 -0.28 0 -5.26 4.94 0 0 20.99 -4.98 0 0 -5.02 1.16 -0.2c-0.19,0.72 -0.52,1.41 -1.02,2.09 -0.49,0.68 -1.1,1.27 -1.83,1.79 -0.73,0.52 -1.54,0.94 -2.43,1.25 -0.89,0.32 -1.84,0.48 -2.85,0.48zm1.36 -4.34c1.14,0 2.15,-0.28 3.03,-0.84 0.88,-0.56 1.56,-1.33 2.05,-2.33 0.49,-1 0.74,-2.14 0.74,-3.45 0,-1.28 -0.25,-2.4 -0.74,-3.39 -0.49,-0.98 -1.18,-1.75 -2.05,-2.31 -0.88,-0.56 -1.89,-0.84 -3.03,-0.84 -1.14,0 -2.14,0.28 -3.01,0.84 -0.86,0.56 -1.53,1.33 -2.01,2.31 -0.48,0.98 -0.72,2.11 -0.72,3.39 0,1.3 0.24,2.45 0.72,3.45 0.48,1 1.15,1.77 2.01,2.33 0.86,0.56 1.87,0.84 3.01,0.84zm16.29 3.94l0 -20.99 4.78 0 0.08 4.3 -0.92 0.48c0.27,-0.96 0.78,-1.83 1.55,-2.61 0.77,-0.78 1.69,-1.41 2.75,-1.89 1.06,-0.48 2.15,-0.72 3.27,-0.72 1.59,0 2.93,0.32 4,0.96 1.08,0.64 1.89,1.59 2.43,2.87 0.55,1.27 0.82,2.87 0.82,4.78l0 12.83 -4.9 0 0 -12.47c0,-1.06 -0.15,-1.95 -0.44,-2.65 -0.29,-0.7 -0.74,-1.22 -1.35,-1.55 -0.61,-0.33 -1.36,-0.49 -2.23,-0.46 -0.72,0 -1.37,0.11 -1.97,0.34 -0.6,0.23 -1.12,0.54 -1.55,0.96 -0.44,0.41 -0.78,0.88 -1.04,1.42 -0.25,0.53 -0.38,1.12 -0.38,1.75l0 12.67 -2.43 0c-0.48,0 -0.92,0 -1.33,0 -0.41,0 -0.79,0 -1.13,0zm32.71 0.4c-1.86,0 -3.53,-0.47 -5,-1.41 -1.47,-0.94 -2.64,-2.23 -3.51,-3.86 -0.86,-1.63 -1.29,-3.51 -1.29,-5.64 0,-2.1 0.43,-3.97 1.28,-5.62 0.85,-1.65 2.01,-2.94 3.49,-3.88 1.47,-0.94 3.14,-1.42 5,-1.42 1.01,0 1.99,0.16 2.93,0.48 0.94,0.32 1.79,0.75 2.53,1.29 0.74,0.54 1.33,1.15 1.77,1.81 0.44,0.66 0.68,1.36 0.74,2.07l-1.31 0.16 0 -13.86 4.9 0 0 29.48 -4.74 0 -0.12 -4.94 0.96 0.08c-0.03,0.66 -0.26,1.3 -0.7,1.91 -0.44,0.61 -1,1.17 -1.69,1.67 -0.69,0.5 -1.49,0.91 -2.41,1.21 -0.92,0.31 -1.85,0.46 -2.81,0.46zm0.96 -4.14c1.14,0 2.15,-0.29 3.03,-0.88 0.88,-0.58 1.56,-1.38 2.05,-2.39 0.49,-1.01 0.74,-2.18 0.74,-3.51 0,-1.3 -0.25,-2.46 -0.74,-3.49 -0.49,-1.02 -1.18,-1.82 -2.05,-2.39 -0.88,-0.57 -1.89,-0.86 -3.03,-0.86 -1.14,0 -2.15,0.29 -3.03,0.86 -0.88,0.57 -1.56,1.37 -2.05,2.39 -0.49,1.02 -0.74,2.18 -0.74,3.49 0,1.33 0.25,2.5 0.74,3.51 0.49,1.01 1.18,1.81 2.05,2.39 0.88,0.58 1.89,0.88 3.03,0.88zm36.85 4.14c-1.97,0 -3.73,-0.48 -5.3,-1.43 -1.57,-0.96 -2.8,-2.26 -3.7,-3.9 -0.9,-1.65 -1.36,-3.51 -1.36,-5.58 0,-2.07 0.45,-3.93 1.36,-5.58 0.9,-1.65 2.14,-2.95 3.7,-3.9 1.57,-0.96 3.33,-1.43 5.3,-1.43 1.89,0 3.6,0.36 5.14,1.08 1.54,0.72 2.74,1.71 3.59,2.99l-2.71 3.27c-0.4,-0.56 -0.9,-1.06 -1.51,-1.51 -0.61,-0.45 -1.26,-0.81 -1.95,-1.08 -0.69,-0.27 -1.38,-0.4 -2.07,-0.4 -1.17,0 -2.21,0.28 -3.13,0.86 -0.92,0.57 -1.64,1.36 -2.17,2.35 -0.53,1 -0.8,2.12 -0.8,3.37 0,1.25 0.27,2.36 0.82,3.35 0.54,0.98 1.28,1.77 2.21,2.35 0.93,0.58 1.97,0.88 3.11,0.88 0.69,0 1.36,-0.11 2.01,-0.34 0.65,-0.23 1.27,-0.55 1.85,-0.98 0.58,-0.43 1.13,-0.96 1.63,-1.59l2.71 3.31c-0.9,1.17 -2.14,2.12 -3.72,2.85 -1.58,0.73 -3.25,1.1 -5,1.1zm19.76 0c-1.51,0 -2.83,-0.34 -3.94,-1.02 -1.12,-0.68 -1.97,-1.65 -2.55,-2.91 -0.58,-1.26 -0.88,-2.77 -0.88,-4.52l0 -12.95 4.9 0 0 11.91c0,1.12 0.17,2.06 0.52,2.85 0.35,0.78 0.85,1.39 1.51,1.81 0.66,0.43 1.46,0.64 2.39,0.64 0.69,0 1.32,-0.11 1.89,-0.34 0.57,-0.23 1.07,-0.54 1.49,-0.96 0.43,-0.41 0.76,-0.9 1,-1.47 0.24,-0.57 0.36,-1.19 0.36,-1.85l0 -12.59 4.9 0 0 20.99 -4.78 0 -0.08 -4.38 0.88 -0.48c-0.32,1.01 -0.86,1.91 -1.61,2.69 -0.76,0.78 -1.65,1.41 -2.69,1.87 -1.04,0.46 -2.14,0.7 -3.31,0.7zm17.37 -0.4l0 -29.48 4.94 0 0 29.48 -4.94 0zm12.87 0l0 -26.33 4.9 0 0 26.33 -4.9 0zm-4.14 -16.45l0 -4.54 13.62 0 0 4.54 -13.62 0zm24.66 16.85c-1.51,0 -2.83,-0.34 -3.94,-1.02 -1.12,-0.68 -1.97,-1.65 -2.55,-2.91 -0.58,-1.26 -0.88,-2.77 -0.88,-4.52l0 -12.95 4.9 0 0 11.91c0,1.12 0.17,2.06 0.52,2.85 0.35,0.78 0.85,1.39 1.51,1.81 0.66,0.43 1.46,0.64 2.39,0.64 0.69,0 1.32,-0.11 1.89,-0.34 0.57,-0.23 1.07,-0.54 1.49,-0.96 0.43,-0.41 0.76,-0.9 1,-1.47 0.24,-0.57 0.36,-1.19 0.36,-1.85l0 -12.59 4.9 0 0 20.99 -4.78 0 -0.08 -4.38 0.88 -0.48c-0.32,1.01 -0.86,1.91 -1.61,2.69 -0.76,0.78 -1.65,1.41 -2.69,1.87 -1.04,0.46 -2.14,0.7 -3.31,0.7zm17.33 -0.4l0 -20.99 4.82 0 0.08 6.69 -0.68 -1.51c0.29,-1.06 0.8,-2.02 1.51,-2.87 0.72,-0.85 1.55,-1.52 2.49,-2.01 0.94,-0.49 1.93,-0.74 2.97,-0.74 0.45,0 0.88,0.04 1.29,0.12 0.41,0.08 0.75,0.17 1.02,0.28l-1.31 5.38c-0.29,-0.16 -0.65,-0.29 -1.08,-0.4 -0.43,-0.11 -0.85,-0.16 -1.28,-0.16 -0.66,0 -1.29,0.13 -1.89,0.38 -0.6,0.25 -1.12,0.6 -1.57,1.06 -0.45,0.45 -0.8,0.98 -1.06,1.57 -0.25,0.6 -0.38,1.27 -0.38,2.01l0 11.19 -4.94 0zm25.73 0.4c-2.2,0 -4.15,-0.46 -5.84,-1.39 -1.69,-0.93 -3,-2.2 -3.94,-3.8 -0.94,-1.61 -1.41,-3.45 -1.41,-5.52 0,-1.65 0.27,-3.15 0.8,-4.5 0.53,-1.36 1.27,-2.53 2.21,-3.53 0.94,-1 2.07,-1.77 3.39,-2.31 1.31,-0.54 2.76,-0.82 4.32,-0.82 1.38,0 2.67,0.27 3.86,0.8 1.2,0.53 2.23,1.25 3.11,2.17 0.88,0.92 1.55,2 2.01,3.27 0.47,1.26 0.68,2.64 0.66,4.12l-0.04 1.71 -17.01 0 -0.92 -3.35 13.82 0 -0.64 0.68 0 -0.88c-0.08,-0.82 -0.35,-1.55 -0.8,-2.17 -0.45,-0.62 -1.03,-1.12 -1.73,-1.47 -0.7,-0.36 -1.48,-0.54 -2.33,-0.54 -1.3,0 -2.4,0.25 -3.29,0.76 -0.89,0.5 -1.56,1.23 -2.01,2.17 -0.45,0.94 -0.68,2.12 -0.68,3.53 0,1.36 0.28,2.54 0.86,3.55 0.57,1.01 1.38,1.79 2.43,2.33 1.05,0.54 2.28,0.82 3.68,0.82 0.98,0 1.89,-0.16 2.71,-0.48 0.82,-0.32 1.71,-0.89 2.67,-1.71l2.43 3.39c-0.72,0.66 -1.53,1.23 -2.45,1.69 -0.92,0.46 -1.88,0.83 -2.89,1.1 -1.01,0.27 -2,0.4 -2.99,0.4zm15.38 0.04c-0.96,0 -1.69,-0.28 -2.21,-0.84 -0.52,-0.56 -0.78,-1.34 -0.78,-2.35 0,-0.93 0.27,-1.69 0.82,-2.29 0.54,-0.6 1.27,-0.9 2.17,-0.9 0.96,0 1.69,0.27 2.21,0.82 0.52,0.54 0.78,1.33 0.78,2.37 0,0.93 -0.27,1.69 -0.82,2.29 -0.54,0.6 -1.27,0.9 -2.17,0.9z"/>
  </g>
  <polygon class="fil1" points="-0,69.54 163.52,69.54 121.86,108.1 -0,108.1 "/>
  <g style="clip-path:url(#id0)">
   <g id="_1878262688064">
    <polygon id="_1" class="fil2" style="mask:url(#id1)" points="38.65,69.54 202.17,69.54 160.5,108.1 38.65,108.1 "/>
   </g>
  </g>
  <polygon class="fil3" points="-0,69.54 163.52,69.54 121.86,108.1 -0,108.1 "/>
  <path class="fil4" d="M13.49 198.08l167.23 -154.8 -180.72 0 0 -38.56 221.67 0 0 0.66 0 37.9 0 13.48 -177.49 162.4 62.02 67.78 115.47 -105.65 0 44.72 -94.14 87.08c-15.61,15.1 -25.34,19.04 -41.45,1.54 -25.42,-27.63 -50.61,-54.51 -76.51,-82.5 -12.09,-13.06 -8.82,-22.27 3.91,-34.05z"/>
  <g style="clip-path:url(#id3)">
   <g id="_1878262695552">
    <polygon id="_1_0" class="fil2" style="mask:url(#id4)" points="-185.73,513.96 -5.01,346.71 -185.73,346.71 -185.73,308.16 35.94,308.16 35.94,308.82 35.94,346.71 35.94,360.2 -141.55,522.59 -79.53,590.37 35.94,484.72 35.94,529.45 -81.41,638.04 -185.73,525.31 "/>
   </g>
  </g>
  <path class="fil3" d="M13.49 198.08l167.23 -154.8 -180.72 0 0 -38.56 221.67 0 0 0.66 0 37.9 0 13.48 -177.49 162.4 62.02 67.78 115.47 -105.65 0 44.72 -94.14 87.08c-15.61,15.1 -25.34,19.04 -41.45,1.54 -25.42,-27.63 -50.61,-54.51 -76.51,-82.5 -12.09,-13.06 -8.82,-22.27 3.91,-34.05z"/>
  <polygon class="fil5" points="84.12,218.96 221.67,93.11 221.67,145.37 110.15,247.41 "/>
 </g>
</svg>
