<svg width="20" height="21" viewBox="0 0 20 21" fill="none" xmlns="http://www.w3.org/2000/svg">
<g clip-path="url(#clip0_6141_5137)">
<path d="M10.682 19.9428C10.682 19.4407 10.275 19.0337 9.77289 19.0337C9.27083 19.0337 8.86377 19.4407 8.86377 19.9428C8.86377 20.4449 9.27083 20.8519 9.77289 20.8519C10.275 20.8519 10.682 20.4449 10.682 19.9428Z" fill="black"/>
<path fillRule="evenodd" clipRule="evenodd" d="M15.8029 12.1901C16.6313 10.9616 17.0454 9.60637 17.0454 8.12462C17.0454 6.11629 16.3354 4.40209 14.9154 2.98201C13.4953 1.56191 11.781 0.851868 9.77275 0.851868C7.76442 0.851868 6.05022 1.56191 4.63014 2.98201C3.21004 4.40209 2.5 6.11629 2.5 8.12462C2.5 9.60637 2.91417 10.9616 3.7425 12.1901C4.30325 13.0219 4.98896 13.6994 5.79962 14.2228V14.2259C6.18801 14.5189 6.49276 14.9026 6.71384 15.3767C6.93492 15.8508 7.04546 16.3576 7.04546 16.8973C7.04546 16.9463 7.04448 16.9953 7.04254 17.0442C7.04061 17.0932 7.0377 17.1421 7.03383 17.1909H7.04546V17.2155H12.5V16.8973C12.5 16.3495 12.6136 15.8361 12.841 15.3568C13.0684 14.8774 13.3809 14.4923 13.7788 14.2014C14.5751 13.6811 15.2498 13.0106 15.8029 12.1901Z" fill="url(#paint0_radial_6141_5137)"/>
<path d="M7.04517 18.1247C7.04517 19.1289 7.8592 19.9429 8.86338 19.9429H10.6815C11.6857 19.9429 12.4997 19.1289 12.4997 18.1247V17.2156H7.04517V18.1247Z" fill="url(#paint1_radial_6141_5137)"/>
<path d="M11.1366 18.1247H8.40938C8.15834 18.1247 7.95483 18.3282 7.95483 18.5792C7.95483 18.8303 8.15834 19.0338 8.40938 19.0338H11.1366C11.3877 19.0338 11.5912 18.8303 11.5912 18.5792C11.5912 18.3282 11.3877 18.1247 11.1366 18.1247Z" fill="black" fill-opacity="0.2"/>
<path fillRule="evenodd" clipRule="evenodd" d="M7.84403 6.19602C8.37657 5.66349 9.01938 5.39722 9.7725 5.39722C10.0236 5.39722 10.2378 5.30847 10.4153 5.13096C10.5928 4.95344 10.6816 4.73917 10.6816 4.48813C10.6816 4.23709 10.5928 4.02282 10.4153 3.8453C10.2378 3.6678 10.0236 3.57904 9.7725 3.57904C8.51731 3.57904 7.44594 4.02282 6.55839 4.91038C5.67083 5.79793 5.22705 6.8693 5.22705 8.12451C5.22705 8.37551 5.31581 8.58982 5.49332 8.76732C5.67083 8.94482 5.88511 9.03357 6.13614 9.03357C6.38718 9.03357 6.60145 8.94482 6.77897 8.76732C6.95648 8.58982 7.04523 8.37551 7.04523 8.12451C7.04523 7.37138 7.3115 6.72855 7.84403 6.19602Z" fill="white"/>
</g>
<defs>
<radialGradient id="paint0_radial_6141_5137" cx="0" cy="0" r="1" gradientUnits="userSpaceOnUse" gradientTransform="translate(7.34109 5.3512) rotate(56.4705) scale(12.2688 10.9056)">
<stop stop-color="#FADF73"/>
<stop offset="0.457142" stop-color="#FFD500"/>
<stop offset="1" stop-color="#FC9900"/>
</radialGradient>
<radialGradient id="paint1_radial_6141_5137" cx="0" cy="0" r="1" gradientUnits="userSpaceOnUse" gradientTransform="translate(5.26672 16.3684) rotate(38.4256) scale(5.75138 11.5027)">
<stop stop-color="#EFFCFF"/>
<stop offset="0.999999" stop-color="#A5F2FF"/>
</radialGradient>
<clipPath id="clip0_6141_5137">
<rect width="20" height="20" fill="white" transform="translate(0 0.851868)"/>
</clipPath>
</defs>
</svg>
