<svg width="392" height="525" viewBox="0 0 392 525" fill="none" xmlns="http://www.w3.org/2000/svg">
<g clip-path="url(#clip0_1309_29051)">
<path d="M221.196 164.96C193.328 164.96 170.737 142.357 170.737 114.476C170.737 86.5945 193.328 63.9922 221.196 63.9922C249.065 63.9922 271.656 86.5945 271.656 114.476C271.656 142.357 249.065 164.96 221.196 164.96Z" fill="#F7F5FB"/>
<path d="M17.8658 86.0667C34.9141 57.7683 62.525 38.4791 97.7043 30.277C114.322 26.4081 131.458 24.4405 148.65 24.4405C176.04 24.4405 203.717 29.1826 233.251 38.9544C243.548 42.359 253.857 44.0835 263.867 44.0835C291.854 44.0835 314.338 30.885 327.166 6.93087C328.193 4.99642 331.939 0 336.778 0C337.054 0 337.33 0.0221081 337.596 0.0442161C342.921 0.68535 345.96 6.66558 346.512 7.84836C351.694 19.0019 353.13 30.5644 350.81 42.9117C351.55 42.7349 352.302 42.6354 353.075 42.6354C359.406 42.6354 361.759 48.7814 362.643 51.1028C368.709 66.9985 366.577 82.1867 356.489 95.0425C348.092 105.743 337.087 111.17 323.785 111.17C323.619 111.17 323.453 111.17 323.287 111.17C341.684 142.564 349.738 172.343 347.208 199.824C344.38 230.609 328.281 259.372 299.323 285.371C310.913 296.922 324.337 307.921 340.181 318.876C343.805 321.374 346.667 323.352 347.54 326.945C348.446 330.714 346.589 333.909 344.446 337.612C342.744 340.53 340.159 344.753 336.822 348.533C345.75 356.327 354.732 364.308 363.439 372.034C370.455 378.258 377.703 384.702 384.873 390.992C395.513 400.344 391.47 408.048 390.144 410.58C387.613 415.41 383.459 417.964 378.145 417.964C375.692 417.964 372.985 417.422 369.869 416.306C364.179 414.261 358.5 412.216 352.589 410.082C354.025 412.348 355.45 414.57 356.876 416.759C362.334 425.127 358.566 430.676 355.837 433.24C352.964 435.938 350.037 436.501 348.081 436.501C344.413 436.501 341.352 434.567 339.374 433.119C335.64 430.389 331.828 427.658 328.337 425.16C327.641 426.73 326.69 428.277 325.287 429.548C322.801 431.781 320.282 432.257 318.614 432.257C314.537 432.257 311.498 429.67 309.289 427.791C309.023 427.57 308.769 427.349 308.515 427.139C306.537 425.503 304.56 423.856 302.593 422.22C298.185 418.539 293.621 414.736 289.069 411.132C282.484 413.852 276.01 416.704 269.17 419.71C268.397 420.053 267.624 420.385 266.85 420.727C268.264 427.537 267.281 433.528 263.878 438.845C268.386 440.824 272.662 442.692 276.949 444.25C281.424 445.875 286.605 447.655 291.633 448.241C302.361 449.479 309.244 455.47 312.084 466.071L312.217 466.568L312.592 471.675V472.991V475.611L311.476 483.713L311.079 486.488L303.665 504.008L302.836 505.49L302.637 505.821L302.516 505.987L302.637 506.938L283.998 523.342L281.899 523.85L279.446 524.702H278.838L275.601 525.011L268.077 523.364L229.406 491.539L232.665 487.571L228.787 490.954L227.693 489.704L228.776 488.699L227.638 489.627L226.345 488.046L226.124 488.367L220.501 481.9L219.926 479.911L219.617 479.502L218.434 477.821L218.346 477.678C217.893 476.937 217.418 476.207 216.954 475.478C215.794 473.676 214.578 471.808 213.551 469.719C211.418 465.375 210.236 464.943 207.861 464.943C207.596 464.943 207.319 464.943 207.032 464.977C206.634 464.999 206.248 465.021 205.872 465.021C197.751 465.021 191.442 459.306 189 449.954C186.371 451.292 183.52 451.988 180.637 451.988C176.084 451.988 171.488 450.242 167.698 447.069C165.953 445.61 164.362 444.991 162.373 444.991C160.981 444.991 159.323 445.289 156.992 445.964C155.092 446.516 153.169 447.279 151.136 448.086C150.263 448.429 149.391 448.782 148.518 449.114L139.369 453.878L134.176 457.559L127.58 462.202L120.642 466.38L120.31 465.629L119.702 465.894L118.178 466.314L114.587 467.232L105.195 467.32L92.4672 464.203L90.8209 463.904L87.6057 463.263L83.2525 463.307L81.3632 463.772L76.4686 466.414L71.7949 472.294L71.2093 472.725C66.9445 475.876 62.536 477.468 58.1054 477.468C54.161 477.468 50.2608 476.207 46.5263 473.709L46.1617 473.466L45.2336 473.19L39.9412 464.645L39.3225 461.329L39.3557 453.569L40.1622 450.208L40.4605 449.623C48.4819 433.882 62.083 425.481 82.015 424.055C81.9708 423.712 81.9156 423.38 81.8714 423.038C81.0869 417.511 80.2804 411.796 79.5843 406.147C78.9876 401.328 80.5787 398.387 82.015 396.762C83.4182 395.181 86.0479 393.291 90.622 393.291C91.0088 393.291 91.4175 393.302 91.7711 393.335C91.8705 393.335 91.97 393.335 92.0694 393.324H92.3567C94.2018 393.247 95.9365 393.181 97.4391 393.181C108.145 393.181 109.858 398.1 112.952 407.042L113.139 407.595C114.079 410.292 115.67 412.912 117.493 414.78C118.907 416.217 119.868 416.737 120.299 416.737C120.542 416.737 121.503 416.593 123.702 414.769C134.198 406.037 145.855 400.189 158.362 397.348C135.569 377.252 121.282 352.325 116.973 325.132C112.565 297.287 118.852 268.414 135.16 241.641C135.303 241.409 135.447 241.166 135.591 240.934C122.984 232.101 114.101 220.462 109.162 206.257C108.046 203.04 107.549 198.022 109.847 194.451C111.261 192.263 113.769 191.157 117.305 191.157C118.885 191.157 120.675 191.367 122.233 191.732C125.138 192.417 127.812 192.904 130.309 193.191C122.211 189.411 113.935 185.575 105.715 181.927C103.814 181.087 101.914 180.225 100.002 179.363C91.3071 175.438 82.3023 171.393 73.2755 168.64C67.4527 166.872 61.6963 165.965 56.1498 165.965C43.4326 165.965 31.29 170.696 20.0645 180.026C17.2581 182.358 14.1755 184.525 10.7172 184.525C3.32556 184.525 2.02179 176.013 1.60196 173.206C-3.11588 142.265 2.66263 111.314 17.8658 86.0667ZM276.231 504.152C276.264 504.605 276.341 504.926 276.407 505.147C276.617 505.103 276.927 505.014 277.336 504.815C285.755 500.858 295.224 480.154 292.936 470.736L292.892 470.515C292.76 469.874 292.649 469.365 292.539 468.956C292.384 469.011 292.207 469.078 292.019 469.155C283.147 473.588 279.888 482.508 277.07 492.026C276.12 495.265 275.833 499.344 276.231 504.163V504.152ZM105.494 430.864C105.671 431.372 105.847 431.903 106.002 432.434L106.411 431.947L105.494 430.864ZM154.506 420.937C154.418 420.075 154.34 419.213 154.263 418.351C150.308 419.766 146.628 421.711 143.137 424.209L142.176 425.005L142.021 424.828L141.966 424.85L141.888 424.674L139.425 421.855L141.623 425.381L139.811 426.509L138.894 427.227L137.756 428.189L136.463 429.239L136.265 429.261L135.37 429.913L131.105 432.124C126.774 434.368 122.31 436.7 117.813 438.878C116.951 439.298 116.023 439.508 115.051 439.508C113.46 439.508 112.167 438.933 111.316 438.557C111.184 438.502 111.051 438.436 110.996 438.414L106.51 437.043C106.389 438.093 106.057 439.121 105.427 440.127C103.185 443.709 98.765 444.085 96.1243 444.317L95.2515 444.394L94.4007 444.195C90.4894 443.289 86.987 442.846 83.6724 442.846C78.1148 442.846 73.1981 444.14 68.7565 446.771L60.0942 454.11L60.028 455.138L58.6689 456.587C58.2601 457.018 58.0723 457.338 57.995 457.504C58.0502 457.604 58.1718 457.758 58.3596 457.968C58.5584 457.747 58.8015 457.449 59.0888 457.04C65.2982 448.285 74.0599 443.653 84.4347 443.653C88.2907 443.653 92.4009 444.295 96.6436 445.555C100.732 446.771 104.334 447.356 107.659 447.356C113.913 447.356 119.371 445.223 124.862 440.647C133.359 433.561 143.479 428.896 154.981 426.763C154.882 424.862 154.694 422.927 154.506 420.904V420.937ZM332.325 33.6595C317.907 49.3341 299.654 58.6969 277.115 61.9689L282.915 65.5504C288.23 67.728 293.544 68.8224 298.726 68.8224C317.189 68.8224 331.651 54.4521 332.347 35.406C332.37 34.8312 332.347 34.2454 332.325 33.6485V33.6595ZM323.354 92.2016C329.828 92.2016 336.06 89.5266 340.468 84.8728C344.656 80.4512 346.777 74.7031 346.457 68.6676V68.4355L346.479 67.2748C345.573 67.8496 344.678 68.4134 343.783 68.9661C339.949 71.3759 335.994 73.863 332.303 76.4718C323.696 82.5515 315.211 86.0998 306.096 87.36C308.869 88.9075 312.316 90.0019 316.47 91.2068C318.735 91.859 321.056 92.2016 323.354 92.2016ZM225.804 452.839C233.682 467.718 244.278 480.828 257.359 491.882C257.735 490.423 258.21 488.997 258.674 487.615C259.425 485.338 260.464 482.232 260.099 481.016C259.768 480.099 256.962 478.164 255.448 477.125C254.045 476.152 252.586 475.157 251.238 474.019L246.598 470.073L250.973 465.839C251.15 465.673 251.316 465.507 251.492 465.352L254.266 462.821L257.636 464.468C258.586 464.932 259.547 465.386 260.497 465.828C262.42 466.734 264.386 467.663 266.342 468.702C267.723 466.535 269.215 464.501 270.662 462.523C270.706 462.456 270.75 462.401 270.795 462.335L255.812 455.249L256.984 461.837L249.957 454.707L249.879 454.796L246.222 450.916L243.825 448.484L234.919 443.233C228.522 443.377 226.688 445.776 225.749 449.844C225.45 451.148 225.627 452.486 225.804 452.839ZM233.77 423.911C237.814 423.911 241.913 424.751 245.946 426.398C246.255 426.52 246.631 426.652 247.018 426.774C247.172 426.022 247.316 425.248 247.46 424.464C247.471 424.408 247.482 424.342 247.493 424.287L244.499 420.064L244.211 419.832C240.941 418.041 237.195 417.102 233.361 417.102C226.555 417.102 219.882 419.998 214.954 425.083L213.595 426.663L210.789 430.389L210.026 431.693L208.159 442.272C212.269 430.974 221.893 423.911 233.748 423.911H233.77ZM174.549 426.873C175.046 427.492 175.499 428.111 175.941 428.719C176.703 429.77 177.664 431.063 178.261 431.417C178.261 431.417 178.36 431.472 178.559 431.538C178.559 431.516 178.559 431.494 178.559 431.472C178.305 425.657 178.615 419.036 182.294 412.89C180.78 412.017 179.2 411.188 177.554 410.326C176.99 410.027 176.416 409.729 175.852 409.43C173.145 415.897 171.941 421.402 174.538 426.895L174.549 426.873ZM154.307 365.446C168.361 384.293 186.923 396.862 209.463 402.809C209.772 402.886 210.303 402.986 211.043 402.986C212.037 402.986 213.065 402.798 213.816 402.499C220.965 399.559 227.594 398.133 234.057 398.133C240.963 398.133 247.714 399.835 254.1 403.196C254.299 403.306 254.906 403.472 255.658 403.472C256.122 403.472 256.442 403.406 256.553 403.361C261.967 401.515 267.458 399.338 272.75 397.226C274.673 396.464 276.595 395.701 278.529 394.949L313.951 374.831L316.647 376.301L323.829 380.27L303.742 398.387L306.305 400.255C306.77 398.697 307.598 397.238 309.068 396.143C310.449 395.115 312.172 394.596 314.205 394.596C316.603 394.596 319.233 395.336 321.078 396.53C321.597 396.862 322.105 397.204 322.625 397.536C322.138 395.955 321.895 394.408 321.674 392.982C321.553 392.186 321.431 391.445 321.288 390.782L319.829 384.194L326.58 384.061C327.254 384.05 328.038 383.973 328.878 383.884C329.972 383.774 331.209 383.641 332.48 383.641C334.159 383.641 335.629 383.862 336.966 384.315C343.485 386.515 350.014 388.836 356.456 391.169C352.821 387.941 349.175 384.713 345.54 381.497C338.203 375.008 330.624 368.298 323.199 361.621C311.322 370.199 296.826 374.908 282.307 374.908C269.281 374.908 256.951 371.095 246.653 363.899C246.432 363.744 245.846 363.501 245.36 363.302C244.907 363.114 244.443 362.915 244.001 362.705L243.062 362.263L222.069 340.033L225.362 336.252L229.671 331.3L246.465 342.432L246.609 342.542C253.139 347.517 258.276 351.054 264.85 351.253L265.535 351.275L267.469 351.828C269.612 352.248 271.712 352.789 273.745 353.309C277.667 354.315 281.368 355.254 284.76 355.254C285.048 355.254 285.335 355.254 285.622 355.232C301.455 354.425 314.216 347.207 324.624 333.157C325.066 332.56 325.376 332.107 325.586 331.765C325.519 331.72 325.442 331.676 325.365 331.632C323.674 330.648 322.138 329.587 320.636 328.548C320.006 328.117 319.387 327.686 318.746 327.254L316.99 326.083L318.636 323.408L316.669 325.829L310.007 320.434L288.296 301.355L280.385 293.927L277.336 292.18L267.336 271.52L269.336 268.834L273.148 263.727L277.545 266.855C278.308 267.397 279.07 267.961 279.822 268.524C281.468 269.751 283.037 270.923 284.595 271.785C307.112 254.618 320.614 234.445 325.829 210.17C325.796 209.927 325.773 209.695 325.751 209.452L325.685 208.534L325.917 207.65C329.519 194.098 329.21 179.318 324.967 162.472C316.227 127.74 295.831 99.6299 262.63 76.5491C239.051 60.156 211.905 49.7873 181.764 45.6531C189.034 52.7167 196.414 61.7478 200.922 73.3545C201.331 74.4157 201.729 75.4658 202.104 76.527C208.59 69.0656 216.932 65.0198 226.036 65.0198C233.262 65.0198 240.565 67.6617 247.15 72.6692C266.696 87.5147 271.148 120.069 256.31 139.646C251.724 145.692 245.758 149.705 238.764 151.506C241.935 155.663 245.095 159.985 247.471 164.849C256.597 183.508 255.89 202.642 245.438 220.185C244.863 221.147 244.344 222.241 243.78 223.413C243.493 224.021 243.195 224.64 242.896 225.248L242.399 226.243L241.548 226.972C240.145 228.166 238.786 229.459 237.339 230.819C233.892 234.069 230.323 237.429 225.914 239.861C219.816 243.222 213.374 245.808 207.132 248.318C204.568 249.346 201.928 250.407 199.386 251.501L198.922 251.7L198.425 251.811C192.16 253.226 185.796 253.944 179.51 253.944C170.648 253.944 161.633 252.518 152.683 249.71C128.144 287.968 128.707 331.179 154.252 365.435L154.307 365.446ZM19.6225 156.857C20.4401 156.414 21.2467 155.972 22.0422 155.519C32.4612 149.683 43.9078 146.72 56.0614 146.72C62.6797 146.72 69.7398 147.593 77.0541 149.329C90.3569 152.468 102.223 158.537 113.714 164.395C116.134 165.634 118.564 166.872 121.006 168.088C138.496 176.776 159.014 186.128 181.189 187.178C182.018 187.222 182.846 187.233 183.675 187.233C192.326 187.233 200.613 185.055 208.292 180.744C208.402 180.678 208.479 180.634 208.524 180.601C208.623 180.203 208.612 179.208 208.612 178.534C208.612 177.495 208.59 176.312 208.767 175.029L208.988 173.46L219.738 160.571L223.384 168.552C224.268 170.497 225.229 172.41 226.146 174.278C228.345 178.71 230.632 183.298 231.98 188.217C232.919 191.611 231.958 193.832 230.986 195.104C230.058 196.32 228.29 197.779 225.141 197.779C224.357 197.779 223.649 197.69 223.02 197.624C222.843 197.602 222.6 197.58 222.412 197.558L222.058 197.613C221.197 197.745 220.39 197.79 219.683 197.823C219.374 197.834 218.943 197.856 218.644 197.889C205.32 207.429 190.061 214.061 173.278 217.621L172.98 217.687L172.681 217.72C170.781 217.908 168.87 218.107 166.969 218.306C161.776 218.848 156.418 219.4 151.081 219.798C150.827 219.82 150.573 219.831 150.308 219.831C148.473 219.831 146.871 219.356 145.59 218.969C145.181 218.848 144.772 218.715 144.363 218.627V216.913L137.601 216.769C146.695 227.415 158.848 233.14 174.637 234.246C176.394 234.367 178.162 234.434 179.874 234.434C192.956 234.434 204.922 230.775 215.44 223.568C226.732 215.83 232.754 206.5 233.87 195.048C234.72 182.8 232.069 173.814 225.517 166.739L225.207 166.407L224.091 164.716L222.279 162.892L212.91 153.485L212.534 152.822C212.269 152.347 212.037 151.849 211.794 151.341C211.706 151.142 211.584 150.887 211.507 150.722C197.817 137.943 190.194 120.986 187.509 97.386C186.316 86.951 182.946 77.9309 177.454 70.591L177.145 70.171L176.272 68.3692L173.842 65.8046C171.941 64.2018 170.074 62.5326 168.262 60.9298C164.063 57.2156 160.108 53.7005 155.788 50.749C149.236 46.2722 141.789 44.194 132.353 44.194C129.094 44.194 125.569 44.4372 121.592 44.9567C94.7211 48.4056 73.2312 56.9946 55.8957 71.2211C54.9676 71.9838 54.0284 73.1334 53.0451 74.3604C52.4706 75.0789 51.885 75.7864 51.2884 76.4718L49.6089 74.9905L51.1116 76.6818L48.9129 78.8815L47.819 79.9759L46.7031 81.1034L45.532 82.2751L44.2834 83.5242L44.184 83.6127L43.3885 84.287C41.9411 86.553 40.4495 88.8081 39.0021 90.9857C35.3781 96.4464 31.964 101.609 29.0913 107.102C23.4675 117.836 20.3628 130.537 19.6115 145.902V156.846L19.6225 156.857ZM143.557 212.149L144.408 212.967V212.027C144.131 212.072 143.844 212.116 143.557 212.149Z" fill="white"/>
<path d="M48.8126 468.492C49.144 468.592 49.3981 468.802 49.5749 469.1C55.8948 473.323 61.9937 472.637 67.9269 468.249L68.1479 468.492L67.8938 468.282C69.4406 466.337 70.9985 464.38 72.5453 462.434C72.6448 462.158 72.8326 461.981 73.1199 461.915C75.1639 460.81 77.219 459.704 79.263 458.61L79.473 458.344L79.7933 458.444C80.7104 458.212 81.6275 457.991 82.5445 457.759C84.4007 457.736 86.2569 457.725 88.1131 457.703C89.3727 457.958 90.6322 458.201 91.8918 458.455C92.4663 458.554 93.0408 458.665 93.6043 458.764C97.6813 459.759 101.747 460.754 105.824 461.76C108.509 461.738 111.183 461.716 113.868 461.694C114.851 461.44 115.823 461.196 116.807 460.942C117.16 460.843 117.503 460.743 117.856 460.655C119.646 459.881 121.436 459.107 123.215 458.333L123.149 458.4C123.613 458.112 124.088 457.836 124.552 457.549C126.695 456.034 128.85 454.531 130.993 453.016C132.828 451.723 134.651 450.419 136.485 449.125C139.744 447.434 143.003 445.732 146.263 444.041C149.323 442.891 152.329 441.553 155.455 440.647C160.969 439.055 166.007 438.458 171.233 442.825C176.05 446.859 182.558 447.932 188.204 443.996C192.447 441.045 193.165 442.504 193.905 446.605C195.342 454.531 199.96 459.914 206.656 459.461C213.362 458.997 216.058 462.291 218.5 467.276C219.781 469.885 221.516 472.284 223.041 474.782C223.361 475.246 223.693 475.71 224.013 476.175C224.323 476.584 224.621 476.993 224.93 477.402C225.096 477.999 225.273 478.595 225.438 479.192L225.571 479.336L225.781 479.027C225.781 479.027 226.146 479.104 226.157 479.115C226.576 479.635 226.985 480.154 227.405 480.674L227.361 480.618C228.864 482.453 230.366 484.288 231.88 486.123C231.88 486.123 231.814 486.057 231.814 486.068C232.178 486.488 232.543 486.897 232.907 487.317L232.874 487.273C245.426 497.597 257.977 507.922 270.518 518.246C272.307 518.633 274.097 519.031 275.887 519.418C276.616 519.352 277.346 519.274 278.086 519.208L278.473 519.164C279.08 518.954 279.688 518.744 280.285 518.534C280.627 518.445 280.97 518.368 281.312 518.279L296.736 504.705C296.692 504.351 296.825 504.086 297.145 503.92C297.41 503.544 297.686 503.158 297.952 502.782C298.184 502.373 298.405 501.975 298.637 501.566C300.979 496.039 303.31 490.523 305.653 484.996C305.752 484.31 305.852 483.614 305.951 482.929C306.305 480.364 306.658 477.789 307.012 475.224V472.991C307.012 472.626 307.012 472.273 307.012 471.908C306.901 470.438 306.791 468.978 306.691 467.508C304.526 459.395 299.686 454.741 290.947 453.735C285.533 453.116 280.163 451.325 275.003 449.457C268.385 447.047 261.999 444.018 254.729 440.934C263.214 433.451 262.927 425.359 260.187 417.61C269.656 413.465 278.672 409.408 287.82 405.661C289.013 405.175 291.234 405.849 292.361 406.744C299.001 411.995 305.443 417.489 311.973 422.883C314.801 425.216 318.016 428.62 321.53 425.459C323.74 423.469 324.17 419.523 325.441 416.361C330.402 419.921 336.534 424.243 342.578 428.675C345.66 430.93 348.787 432.246 352.002 429.217C355.173 426.244 354.345 423.082 352.201 419.788C348.069 413.454 344.091 407.01 339.318 399.449C351.03 403.671 361.35 407.396 371.691 411.111C378.553 413.576 382.751 412.68 385.204 408.027C388.11 402.488 385.259 398.741 381.182 395.16C365.007 380.944 348.986 366.541 332.766 352.381C330.037 349.993 329.286 348.534 332.048 345.538C334.987 342.355 337.429 338.618 339.628 334.849C343.517 328.15 343.285 327.774 337.009 323.441C320.469 312.022 304.935 299.41 291.245 285.073C354.521 231.251 355.317 170.442 312.613 104.461C313.961 104.671 315.398 104.914 316.834 105.124C331.12 107.257 343.185 103.024 352.113 91.6492C361.25 79.9982 362.709 66.8882 357.449 53.0927C355.328 47.5215 353.339 46.9578 348.345 50.0639C346.467 51.2246 344.611 52.4074 341.826 54.1539C347.738 38.6451 348.025 24.297 341.462 10.2031C340.556 8.2576 338.611 5.75939 336.899 5.54936C335.418 5.3725 332.965 7.74911 331.993 9.56197C311.928 47.0351 271.026 57.2822 231.482 44.2164C187.574 29.7024 143.512 25.2808 98.9188 35.6716C26.5271 52.54 -1.70251 115.25 7.01498 172.377C8.18616 180.081 10.3849 180.855 16.4838 175.781C33.7751 161.411 53.3867 156.824 74.8324 163.346C86.1795 166.806 97.0184 172.034 107.901 176.865C122.121 183.177 136.164 189.886 150.196 196.386C140.738 200.222 130.883 199.437 120.917 197.094C118.784 196.596 115.138 196.342 114.431 197.436C113.349 199.116 113.581 202.267 114.321 204.422C119.536 219.423 129.248 230.864 143.003 239.187C141.865 241.078 140.849 242.791 139.821 244.493C108.001 296.757 117.216 354.89 163.554 394.563C164.626 395.48 166.129 397.702 165.808 398.155C164.582 399.88 162.869 402.024 161.002 402.411C148.252 405.031 137.114 410.746 127.182 419.003C122.011 423.303 118.254 423.491 113.503 418.638C111.028 416.118 109.028 412.747 107.868 409.386C104.068 398.443 104.255 398.376 92.5105 398.819C92.1459 398.83 91.7702 398.863 91.4056 398.841C86.6546 398.52 84.4449 400.819 85.0194 405.462C86.0028 413.421 87.185 421.358 88.2899 429.361C70.4571 429.339 54.4695 434.202 45.3322 452.121C45.1664 452.817 45.0007 453.525 44.8239 454.221C44.8239 456.421 44.8018 458.61 44.7908 460.81C44.9013 461.406 45.0117 461.992 45.1222 462.589C46.3376 464.557 47.553 466.513 48.7683 468.481L48.8126 468.492ZM43.9069 76.0962L43.8406 76.1625C44.2273 75.7756 44.6251 75.3777 45.0118 74.9908L44.9455 75.0571C45.3322 74.6702 45.7189 74.2723 46.1056 73.8854L46.0504 73.9406C46.4371 73.5537 46.8238 73.1668 47.2105 72.78L47.1552 72.8242C48.8899 70.8566 50.4036 68.6015 52.4034 66.9545C72.3354 50.5945 95.6042 42.7241 120.895 39.4742C134.463 37.7387 147.412 38.3356 158.914 46.195C165.587 50.7603 171.432 56.5527 177.652 61.7923L177.597 61.737C178.669 62.8645 179.73 63.992 180.801 65.1195L180.934 65.3185C181.254 65.9817 181.575 66.6339 181.895 67.2972C188.436 76.052 191.806 86.1664 193.01 96.7783C195.198 115.979 200.888 133.367 215.495 146.886C216.367 147.693 216.754 149.031 217.362 150.125C220.334 153.11 223.306 156.083 226.278 159.068L226.212 159.012C226.963 159.775 227.726 160.538 228.477 161.301L228.4 161.234C228.786 161.82 229.173 162.406 229.56 163.003C238.122 172.244 240.222 183.442 239.371 195.524C238.001 209.949 230.068 220.263 218.555 228.144C205.208 237.286 190.281 240.901 174.238 239.773C156.792 238.546 142.02 231.892 131.203 217.654C130.132 215.852 129.06 214.05 127.988 212.26C129.811 211.895 131.634 211.519 133.468 211.187C133.822 211.121 134.198 211.187 134.562 211.199C132.529 209.242 131.734 207.761 135.667 207.451C145.025 206.711 154.229 205.373 162.151 199.636C162.648 199.282 163.543 199.338 164.228 199.415C171.233 200.178 178.227 200.974 186.403 201.902C181.1 204.069 176.769 206.434 172.139 207.617C163.366 209.861 154.428 211.42 145.556 213.266C147.257 213.641 148.992 214.448 150.66 214.327C157.82 213.785 164.968 212.967 172.117 212.26C188.005 208.888 202.634 202.676 215.848 193.125C217.163 192.175 219.395 192.473 221.196 192.197C223.151 191.478 227.814 194.009 226.632 189.732C224.886 183.398 221.361 177.539 218.334 170.896C216.721 172.83 215.472 174.322 214.224 175.826C213.749 179.274 215.251 183.221 210.987 185.608C201.606 190.859 191.475 193.236 180.923 192.738C158.483 191.677 138.264 182.867 118.552 173.073C104.62 166.153 91.1515 158.382 75.7937 154.746C58.0493 150.556 40.9789 151.297 24.7593 160.383C21.511 162.207 18.2184 163.931 14.1193 166.153V145.825C14.8154 131.422 17.5224 117.394 24.229 104.593C28.5822 96.2808 34.1729 88.6204 39.2112 80.6615C39.6862 80.2635 40.1503 79.8656 40.6254 79.4677L40.5481 79.534C40.9348 79.136 41.3325 78.7491 41.7192 78.3512L41.6529 78.4286C42.0396 78.0306 42.4374 77.6437 42.8241 77.2458L42.7468 77.3121C43.1335 76.9142 43.5202 76.5273 43.9179 76.1293L43.9069 76.0962ZM55.7843 450.629L55.7401 450.596C56.149 450.253 56.5577 449.899 56.9665 449.557H56.9224C57.3201 449.203 57.7289 448.86 58.1267 448.506H58.0935C58.4803 448.142 58.8669 447.788 59.2536 447.423L59.1542 447.301C59.9055 446.572 60.6568 445.853 61.3971 445.124L61.4523 445.201C71.6835 436.778 83.34 435.949 95.6815 438.823C101.869 438.281 101.968 437.088 99.7806 431.328C97.0294 424.099 95.5157 416.417 93.4607 408.922C95.0628 405.86 96.919 405.76 99.0624 408.601C100.676 412.503 102.289 416.405 103.913 420.319C104.289 420.816 104.675 421.325 105.051 421.822C105.393 422.231 105.736 422.629 106.078 423.038L106.056 422.961C106.41 423.381 106.763 423.79 107.117 424.21L107.161 424.099C109.559 425.58 112.034 426.973 114.31 428.631C114.719 428.93 114.31 430.334 114.299 431.218C113.757 431.859 113.205 432.511 112.663 433.152C113.603 433.44 114.796 434.247 115.437 433.937C121.171 431.152 126.817 428.156 132.485 425.227C133.048 424.818 133.601 424.409 134.164 423.989H134.231C134.617 423.657 135.004 423.325 135.391 423.005L135.612 423.237L135.402 422.983C135.8 422.673 136.197 422.364 136.584 422.043L136.661 421.988C137.346 421.557 138.043 421.126 138.728 420.706L138.65 420.772C139.059 420.429 139.457 420.098 139.866 419.755H139.91C146.141 415.267 152.969 412.36 160.759 410.923C160.317 413.598 160.03 415.4 159.731 417.19C160.063 421.203 160.593 425.204 160.593 429.217C160.593 430.146 158.925 431.748 157.853 431.914C146.871 433.65 136.805 437.939 128.43 444.925C118.144 453.503 107.703 454.619 95.0959 450.872C83.2737 447.357 71.6946 448.893 63.629 460.257C61.5849 463.142 58.7675 465.463 55.3313 462.656C51.9504 459.903 51.3538 456.333 54.6795 452.817C54.7016 452.497 54.7678 452.176 54.8673 451.867C55.1877 451.458 55.4971 451.038 55.8175 450.629H55.7843ZM248.42 445.179C248.796 445.577 249.171 445.975 249.536 446.362L249.657 446.207C259.679 450.949 269.7 455.691 279.843 460.489C279.357 460.92 278.34 461.815 277.313 462.722C274.893 466.149 272.263 469.432 270.142 473.035C268.606 475.655 267.181 475.489 264.894 474.207C261.756 472.438 258.441 471.001 255.193 469.421C255.06 469.542 254.917 469.675 254.784 469.807C258.485 472.958 264.164 475.5 265.347 479.402C266.617 483.57 263.634 489.03 262.518 493.938V502.008C260.839 501.311 260.11 501.179 259.579 500.781C243.415 488.467 230.41 473.4 220.897 455.437C219.903 453.558 219.848 450.75 220.345 448.595C222.157 440.813 227.339 437.474 236.421 437.718C240.056 439.862 243.702 442.007 247.337 444.151L247.26 444.107C247.647 444.505 248.033 444.892 248.42 445.29V445.19V445.179ZM209.396 423.104C209.749 422.684 210.114 422.275 210.467 421.855V421.811C220.212 411.276 235.493 408.524 247.249 415.201L247.525 415.411C247.879 415.687 248.221 415.974 248.575 416.251C250.177 418.506 251.779 420.772 253.381 423.027C252.685 426.398 252.265 429.88 250.961 432.998C250.773 433.44 246.166 432.467 243.857 431.527C229.383 425.613 215.439 432.677 212.235 448.175C211.186 453.271 208.445 452.685 205.672 450.982C203.96 449.932 203.197 447.324 202.015 445.411L204.777 429.77C205.219 429.018 205.65 428.266 206.092 427.515L206.114 427.448C207.219 425.978 208.324 424.519 209.429 423.049L209.396 423.104ZM320.104 321.496C320.69 321.882 321.276 322.28 321.85 322.667C323.949 324.071 325.982 325.586 328.159 326.857C333.032 329.687 332.026 332.483 329.087 336.452C318.259 351.054 304.062 359.831 285.931 360.748C279.434 361.08 272.783 358.471 266.208 357.2C265.711 357.056 265.203 356.913 264.706 356.769C256.176 356.515 249.691 351.806 243.282 346.931C239.084 344.145 234.874 341.36 230.676 338.574C230.3 339.005 229.924 339.447 229.538 339.878C235.15 345.814 240.763 351.762 246.365 357.709C247.525 358.25 248.785 358.648 249.823 359.367C271.435 374.489 300.427 371.57 320.524 356.736C323.077 354.846 324.325 355.199 326.469 357.123C338.876 368.298 351.45 379.297 363.924 390.406C368.752 394.717 373.448 399.172 378.21 403.561C376.453 404.113 375.238 403.87 374.089 403.45C361.14 398.785 348.246 393.944 335.208 389.544C332.667 388.682 329.54 389.522 326.69 389.577C327.275 392.23 327.341 395.16 328.557 397.492C331.739 403.638 335.429 409.519 338.91 415.499C339.053 415.543 339.208 415.554 339.329 415.632C339.396 415.687 339.396 415.842 339.418 415.952C339.241 415.809 339.064 415.665 338.898 415.521C331.982 410.702 325.154 405.738 318.083 401.162C316.569 400.178 313.53 399.703 312.37 400.565C311.21 401.427 311.232 404.279 311.254 406.247C311.277 407.828 312.072 409.397 312.525 410.978C312.768 411.409 313.022 411.84 313.221 412.282C313.243 412.327 312.989 412.514 312.856 412.625C312.613 412.183 312.37 411.752 312.127 411.31C307.034 407.606 301.94 403.903 294.968 398.841C302.084 392.429 308.227 386.891 314.37 381.353C314.249 381.287 314.127 381.221 314.006 381.154L280.903 399.946C273.39 402.864 265.954 405.982 258.331 408.59C256.32 409.276 253.403 409.066 251.525 408.082C239.647 401.847 227.913 402.676 215.903 407.606C213.572 408.557 210.478 408.789 208.048 408.148C184.083 401.836 164.659 388.594 149.865 368.752C121.757 331.057 123.348 284.708 148.561 245.974C149.368 244.736 152.295 243.786 153.732 244.25C168.073 248.871 182.536 249.755 197.242 246.439C205.959 242.714 215.019 239.596 223.284 235.042C228.775 232.024 233.128 226.951 238.001 222.794C238.907 220.992 239.702 219.113 240.741 217.389C250.497 201.018 250.762 184.072 242.564 167.314C239.017 160.063 233.338 153.85 228.576 147.085C237.802 147.428 245.956 144.266 251.967 136.341C264.927 119.251 260.971 90.0906 243.868 77.1021C229.637 66.2912 213.318 69.11 203.385 84.0882C202.512 85.4037 201.562 86.6528 200.413 88.2667C198.767 83.6019 197.408 79.4566 195.839 75.3887C190.701 62.146 181.376 52.131 170.758 43.1331C168.449 41.9171 166.14 40.7122 162.328 38.7114C165.609 38.7114 167.035 38.623 168.438 38.7225C203.816 41.2981 236.609 51.711 265.844 72.0393C297.664 94.1584 320.756 122.91 330.38 161.157C334.368 176.986 335.584 193.037 331.308 209.109C331.341 209.651 331.518 210.226 331.407 210.745C325.507 238.999 309.288 260.345 286.605 277.257C285.676 277.943 283.268 277.39 281.964 276.66C279.29 275.168 276.893 273.178 274.385 271.388C274.197 271.642 274.009 271.896 273.81 272.15C276.407 277.523 279.003 282.884 281.599 288.256C282.307 288.665 283.014 289.063 283.732 289.472L283.71 289.45C286.472 292.037 289.223 294.634 291.985 297.221C299.2 303.555 306.404 309.889 313.619 316.223C315.807 318.003 318.005 319.771 320.193 321.551L320.116 321.507L320.104 321.496ZM196.259 417.411C197.927 417.058 199.573 416.627 201.264 416.461C201.429 416.45 201.75 418.064 202.004 418.915C200.126 421.833 198.247 424.751 196.38 427.658L193.916 433.893C193.331 433.816 192.734 433.738 192.148 433.65V425.415C193.519 422.739 194.889 420.075 196.259 417.4V417.411ZM171.034 406.623C172.095 404.578 172.084 401.007 176.084 403.24C179.917 405.385 183.906 407.253 187.585 409.618C188.447 410.171 189.077 412.857 188.536 413.542C184.315 418.826 183.807 424.851 184.072 431.218C184.16 433.263 183.762 437.054 183.254 437.11C180.691 437.397 177.619 437.419 175.487 436.192C173.167 434.855 171.697 432.058 169.852 429.891C165.753 421.91 167.753 414.228 171.012 406.612L171.034 406.623ZM295.764 84.9947C294.637 84.2762 293.499 83.5576 290.903 81.9106C306.227 83.834 318.138 79.7219 329.12 71.973C335.241 67.6509 341.738 63.8594 348.014 59.7362C350.577 58.056 351.649 58.4208 351.163 61.6154C351.472 61.8586 351.605 62.1791 351.56 62.566C351.715 63.782 351.881 65.009 352.035 66.2249L351.969 68.3805C353.008 87.5813 334.214 102.106 314.934 96.524C307.73 94.4348 300.139 92.1687 295.764 84.9947ZM336.379 23.0368C336.91 27.2374 338.026 31.4489 337.871 35.6274C336.832 63.572 310.205 82.9939 280.384 70.5028C274.473 66.8439 268.551 63.1851 262.64 59.5372C261.314 58.9514 259.988 58.3655 258.662 57.7907C291.146 57.6028 317.729 46.7035 336.656 19.4111C336.567 20.6271 336.479 21.843 336.39 23.0589L336.379 23.0368ZM213.705 83.6019C213.462 83.5134 213.219 83.425 212.975 83.3476C213.086 83.2371 213.207 83.1265 213.318 83.016C221.384 76.2509 230.035 75.8972 238.542 81.9769C252.828 92.1798 257.148 116.178 247.315 130.681C242.774 137.38 236.697 140.364 229.67 139.403C231.858 137.369 234.421 135.545 236.299 133.168C246.453 120.268 242.973 95.4849 229.77 85.8016C224.831 82.1869 219.516 80.9931 213.705 83.6129V83.6019ZM298.305 469.432C301.222 481.425 290.461 504.76 279.688 509.823C275.036 512.012 271.191 510.144 270.727 504.617C270.341 499.941 270.451 494.911 271.766 490.456C274.893 479.856 278.793 469.454 289.787 464.093C295.399 461.882 297.001 462.888 298.305 469.432ZM220.809 102.681C217.196 105.599 215.108 108.319 212.533 108.916C211.351 109.192 208.092 105.445 207.76 103.234C207.219 99.5418 209.495 95.9934 213.672 96.4909C215.782 96.734 217.561 99.7407 220.798 102.692L220.809 102.681Z" fill="#162B6E"/>
<path d="M170.747 43.1221C181.376 52.109 190.701 62.1239 195.828 75.3777C197.408 79.4456 198.756 83.5909 200.402 88.2557C201.551 86.6418 202.512 85.3816 203.374 84.0772C213.307 69.1101 229.637 66.2913 243.857 77.0911C260.96 90.0796 264.905 119.229 251.956 136.33C245.945 144.255 237.791 147.417 228.565 147.074C233.339 153.839 239.007 160.052 242.553 167.303C250.751 184.061 250.486 201.007 240.73 217.378C239.703 219.113 238.896 220.981 238.001 222.783C238.056 223.148 238.244 223.557 238.145 223.867C230.908 244.637 218.378 260.776 197.927 270.072C196.093 270.901 193.519 272.471 193.265 274.008C191.784 283.149 189.983 292.39 190.027 301.587C190.071 312.078 191.861 322.568 193.033 333.047C193.662 338.729 196.833 341.901 202.446 341.293C206.623 340.84 210.622 338.74 216.688 336.706C213.815 339.713 211.893 341.68 210.026 343.703C208.888 344.93 207.827 346.235 206.733 347.506C208.346 348.092 210.059 349.33 211.561 349.109C214.058 348.755 216.423 347.473 218.842 346.577C217.119 353.74 211.694 356.349 205.485 353.154C204.225 352.513 202.645 352.513 201.209 352.215C201.595 353.74 201.606 355.52 202.446 356.747C205.816 361.699 209.451 366.486 212.976 371.327C214.125 372.388 215.263 373.45 216.412 374.5C216.776 374.865 217.141 375.229 217.506 375.594C218.964 376.246 220.632 376.633 221.837 377.595C232.41 386.095 255.955 387.389 268.22 379.739C265.811 377.915 263.38 376.357 261.292 374.433C255.79 369.349 248.741 365.612 246.387 357.709C240.774 351.773 235.162 345.826 229.549 339.89C229.924 339.458 230.3 339.016 230.687 338.585C234.885 341.371 239.095 344.156 243.293 346.942C245.238 346.5 247.183 346.058 249.138 345.627C251.889 342.2 251.724 338.464 250.044 334.749C248.84 332.085 247.006 329.698 245.879 327.012C245.293 325.619 245.625 323.828 245.547 322.225C246.951 322.69 248.586 322.866 249.724 323.695C251.79 325.199 253.414 327.321 255.513 328.747C256.906 329.698 258.817 329.897 260.496 330.438C260.872 328.581 261.922 326.558 261.491 324.911C260.474 321.042 258.596 317.406 257.392 313.581C256.917 312.067 257.27 310.298 257.248 308.64C258.806 309.226 260.607 309.491 261.878 310.453C265.778 313.437 269.38 316.809 273.313 319.727C274.208 320.39 276.495 320.368 277.246 319.672C278.053 318.931 278.395 316.765 277.909 315.703C276.617 312.907 274.959 310.221 273.07 307.778C271.391 305.622 268.982 304.019 267.347 301.842C266.573 300.803 266.861 298.956 266.673 297.486C267.999 297.542 269.457 297.254 270.639 297.696C274.385 299.133 277.909 301.422 281.765 302.206C283.743 302.604 286.229 300.515 288.483 299.542C286.903 296.182 285.334 292.822 283.754 289.45L283.776 289.472C283.069 289.063 282.362 288.665 281.644 288.256C279.047 282.884 276.451 277.523 273.854 272.15C274.042 271.896 274.23 271.642 274.429 271.388C276.937 273.179 279.335 275.168 282.008 276.661C283.312 277.39 285.721 277.943 286.649 277.257C309.332 260.345 325.552 238.999 331.452 210.745C331.562 210.226 331.397 209.662 331.352 209.109C333.75 192.064 331.463 175.45 326.557 159.134C325.839 156.746 324.259 153.707 322.237 152.767C313.089 148.522 311.697 146.234 313.409 136.197C313.818 133.809 314.315 130.637 313.155 128.923C306.968 119.837 300.957 110.485 293.61 102.372C267.546 73.587 234.907 55.6463 197.375 46.6041C188.735 44.5259 179.663 44.2385 170.78 43.1221H170.747ZM297.554 241.951C296.935 246.527 291.886 248.915 285.301 247.235C282.914 246.627 280.13 246.594 277.721 247.168C272.197 248.484 267.325 245.853 266.584 240.823C268.684 241.553 270.838 242.78 273.059 242.924C274.595 243.023 276.241 241.652 277.832 240.945C276.871 239.829 275.865 238.745 274.97 237.573C273.203 235.274 271.501 232.942 269.921 230.808C274.307 232.5 278.009 234.976 281.765 235.075C285.632 235.186 289.577 232.986 294.902 231.361C292.019 234.191 289.732 236.446 287.422 238.679C286.693 239.386 285.909 240.05 285.146 240.746C285.975 241.619 286.837 243.277 287.621 243.244C290.903 243.101 294.173 242.448 297.554 241.962V241.951ZM226.665 303.046C225.682 305.722 225.582 307.103 224.853 307.8C220.931 311.525 217.152 315.515 212.755 318.588C206.269 323.121 198.38 319.042 197.33 311.083C204.148 317.417 207.429 317.737 211.009 312.995C208.744 309.734 206.589 306.639 204.424 303.533C204.822 303.102 205.219 302.671 205.606 302.251C211.594 310.42 218.378 309.392 226.654 303.035L226.665 303.046ZM261.237 278.639C259.69 285.073 254.585 288.256 248.884 286.919C243.371 285.625 240.675 282.342 241.504 277.965C248.343 284.21 251.116 284.354 261.237 278.639ZM251.028 255.26C249.735 260.92 245.658 263.606 240.233 262.887C234.421 262.113 231.261 258.753 231.571 253.337C237.371 259.836 243.868 260.157 251.028 255.271V255.26Z" fill="#24A5EE"/>
<path d="M172.129 212.215C164.981 212.934 157.832 213.741 150.673 214.282C149.004 214.404 147.27 213.597 145.568 213.221C141.9 212.536 138.243 211.85 134.575 211.165C134.21 211.165 133.834 211.088 133.481 211.154C131.647 211.497 129.824 211.872 128.001 212.226C129.072 214.028 130.144 215.83 131.216 217.62C133.238 218.372 135.293 219.046 137.282 219.876C142.673 222.119 147.866 225.148 153.468 226.563C170.859 230.974 188.095 229.183 204.757 223.026C216.159 218.814 226.578 212.746 234.036 202.642C235.804 200.244 237.605 197.878 239.383 195.49C240.234 183.408 238.146 172.211 229.572 162.969C229.185 162.383 228.799 161.798 228.412 161.201L228.489 161.267C227.738 160.504 226.976 159.742 226.224 158.979L226.291 159.034C223.319 156.05 220.346 153.076 217.374 150.091C216.767 148.997 216.38 147.671 215.507 146.853C200.901 133.322 195.21 115.946 193.023 96.7447C191.818 86.1328 188.449 76.0184 181.908 67.2636C181.587 66.6003 181.267 65.9482 180.946 65.2849L180.814 65.0859C179.742 63.9584 178.681 62.8309 177.61 61.7034L177.665 61.7587C176.593 61.1175 175.488 60.5206 174.439 59.8353C167.865 55.5684 161.379 51.1468 154.65 47.1453C153.534 46.482 150.617 47.0016 149.8 47.9964C142.662 56.7512 129.36 55.889 123.404 46.2609C122.509 44.8129 120.167 43.1437 118.709 43.3206C100.169 45.5314 82.4023 50.4615 66.2047 60.0121C59.6307 63.8921 53.4876 68.5016 47.1566 72.7795L47.2119 72.7353C46.8252 73.1222 46.4385 73.5091 46.0518 73.896L46.107 73.8407C45.7203 74.2276 45.3336 74.6256 44.9469 75.0125L45.0132 74.9461C44.6265 75.333 44.2287 75.731 43.842 76.1179L43.9083 76.0515C43.5216 76.4495 43.1349 76.8364 42.7371 77.2343L42.8144 77.168C42.4277 77.5659 42.03 77.9528 41.6433 78.3508L41.7095 78.2734C41.3228 78.6713 40.9251 79.0582 40.5384 79.4562L40.6157 79.3899C40.1406 79.7878 39.6766 80.1857 39.2015 80.5837C34.1632 88.5315 28.5726 96.203 24.2193 104.516C17.5017 117.327 14.7947 131.344 14.1097 145.747C18.021 138.031 22.551 130.802 29.8432 125.728C47.8195 113.204 70.6243 117.217 88.9653 129.52C103.351 139.17 117.361 149.428 132.188 158.327C152.429 170.475 174.604 176.831 198.392 176.676C203.674 176.643 208.955 176.068 214.236 175.748C215.485 174.244 216.733 172.752 218.347 170.818C221.385 177.461 224.898 183.309 226.644 189.654C227.826 193.932 223.164 191.4 221.208 192.119C208.834 203.482 194.006 209.75 177.742 212.9C175.985 213.243 174.008 212.447 172.129 212.182V212.215ZM112.024 49.2345C114.466 51.2021 116.046 52.4844 117.637 53.7556C115.372 55.2479 113.262 57.4808 110.787 57.9782C109.24 58.2988 107.152 56.0327 105.317 54.9383C107.339 53.225 109.361 51.5116 112.024 49.2345Z" fill="#5C6A7A"/>
<path d="M197.255 246.428C182.549 249.744 168.097 248.86 153.744 244.239C152.308 243.775 149.38 244.736 148.574 245.963C123.36 284.708 121.769 331.046 149.877 368.741C164.672 388.583 184.095 401.825 208.06 408.137C210.491 408.778 213.596 408.546 215.916 407.596C227.926 402.665 239.66 401.836 251.537 408.071C253.416 409.055 256.332 409.265 258.343 408.579C265.967 405.982 273.403 402.864 280.916 399.935C273.215 398.476 265.227 397.846 257.868 395.359C245.825 391.291 234.191 386.007 222.38 381.232C205.839 377.208 191.598 369.15 178.748 357.93C164.429 345.439 154.706 330.372 150.341 312C146.165 294.424 156.65 279.203 174.461 276.097C180.03 275.124 185.554 273.985 191.1 272.913C193.155 264.081 195.211 255.26 197.266 246.428H197.255Z" fill="#B4912C"/>
<path d="M214.225 175.77C208.943 176.091 203.662 176.666 198.381 176.699C174.593 176.843 152.418 170.498 132.176 158.349C117.349 149.44 103.328 139.193 88.9534 129.542C70.6124 117.239 47.8077 113.227 29.8314 125.751C22.5392 130.825 18.0092 138.054 14.0979 145.77C14.0979 152.17 14.0979 158.57 14.0979 166.098C18.197 163.876 21.5006 162.152 24.7379 160.328C40.9575 151.242 58.0279 150.49 75.7722 154.69C91.1301 158.316 104.599 166.098 118.531 173.018C138.242 182.812 158.461 191.611 180.901 192.683C191.453 193.181 201.585 190.804 210.965 185.553C215.241 183.166 213.727 179.219 214.203 175.77H214.225Z" fill="#455677"/>
<path d="M222.379 381.231C234.19 386.007 245.824 391.29 257.868 395.358C265.226 397.845 273.214 398.476 280.915 399.935C291.953 393.667 302.98 387.399 314.017 381.143C314.139 381.209 314.261 381.276 314.382 381.342C308.239 386.88 302.096 392.418 294.98 398.829C301.952 403.903 307.046 407.606 312.139 411.298L312.537 410.967C312.084 409.386 311.277 407.816 311.255 406.235C311.233 404.268 311.2 401.416 312.371 400.554C313.531 399.691 316.57 400.167 318.083 401.151C325.155 405.727 331.983 410.69 338.899 415.51V415.488C335.43 409.496 331.74 403.616 328.558 397.481C327.342 395.148 327.276 392.219 326.69 389.566C329.541 389.511 332.657 388.671 335.209 389.533C348.247 393.932 361.141 398.774 374.09 403.439C375.239 403.859 376.454 404.102 378.211 403.549C373.449 399.161 368.753 394.706 363.925 390.395C351.462 379.286 338.877 368.287 326.469 357.111C324.326 355.177 323.077 354.834 320.525 356.724C300.438 371.559 271.435 374.477 249.824 359.355C248.785 358.637 247.526 358.239 246.366 357.686C248.719 365.59 255.768 369.326 261.271 374.411C263.359 376.345 265.789 377.893 268.198 379.717C255.934 387.366 232.378 386.073 221.815 377.572C220.611 376.611 218.943 376.224 217.484 375.572L217.363 375.704C219.031 377.539 220.699 379.385 222.357 381.22L222.379 381.231Z" fill="#207EC5"/>
<path d="M255.216 469.421C258.454 471.001 261.779 472.438 264.917 474.207C267.204 475.5 268.618 475.655 270.165 473.035C272.287 469.432 274.927 466.149 277.336 462.722C275.734 461.705 274.242 460.456 272.53 459.726C267.878 457.725 262.884 456.399 258.52 453.934C255.183 452.055 252.598 448.838 249.681 446.207L249.559 446.362C249.184 445.964 248.808 445.566 248.443 445.179L248.454 445.279C248.068 444.881 247.681 444.494 247.294 444.096L247.372 444.14C243.593 442.316 239.814 440.481 236.036 438.657C223.915 442.438 220.402 452.696 228.379 462.412C234.886 470.338 241.781 478.01 249.128 485.15C252.896 488.809 258.034 491.053 262.542 493.927C263.669 489.03 266.641 483.57 265.37 479.391C264.188 475.478 258.509 472.936 254.807 469.796C254.609 469.498 254.41 469.188 254.2 468.89C254.531 469.067 254.874 469.244 255.205 469.421H255.216ZM243.703 459.041C237.881 459.162 234.5 456.498 233.097 451.734C233.472 451.325 233.848 450.916 234.224 450.507C237.384 453.348 240.543 456.2 243.703 459.041Z" fill="#E5886D"/>
<path d="M249.128 345.604C247.184 346.046 245.228 346.477 243.284 346.919C249.692 351.805 256.178 356.503 264.707 356.769C264.398 353.508 264.077 350.247 263.768 346.986C263.636 346.82 263.514 346.654 263.381 346.477C263.525 346.632 263.669 346.787 263.812 346.942L268.409 348.578C269.116 348.821 269.823 349.064 270.53 349.307C270.895 349.462 271.27 349.606 271.635 349.76C272.066 349.915 272.497 350.07 272.917 350.225C275.789 350.534 278.662 350.833 281.546 351.142C285.247 348.843 282.938 346.157 282.142 343.482C281.767 342.199 281.888 340.762 281.778 339.403C283.137 339.303 284.551 338.905 285.844 339.148C289.236 339.801 292.561 340.74 297.456 341.934C295.434 338.927 294.285 337.512 293.478 335.932C292.882 334.76 292.097 333.025 292.572 332.173C293.014 331.355 294.959 331.112 296.252 331.068C298.738 330.991 301.235 331.223 303.721 331.333C302.969 328.835 302.218 326.337 301.467 323.839C301.356 323.485 301.235 323.142 301.113 322.8C300.472 321.672 299.831 320.545 299.014 319.119H310.206C310.604 318.897 311.002 318.676 311.399 318.444L311.609 318.621C304.461 312.928 297.301 307.247 290.142 301.554C286.562 303.278 282.971 305.014 279.27 306.793C281.512 311.613 286.241 316.941 281.524 322.999C277.336 328.382 272.143 324.524 267.392 323.22C265.68 336.297 265.094 336.827 254.233 335.158C252.642 338.706 255.714 344.554 249.084 345.604H249.128Z" fill="#F0BC19"/>
<path d="M197.253 246.427C195.198 255.259 193.143 264.08 191.088 272.913C190.304 278.727 189.442 284.519 188.735 290.345C186.326 310.154 188.282 329.454 195.817 348.047C196.535 349.661 197.253 351.264 197.971 352.877C198.159 352.988 198.248 353.143 198.237 353.353C198.38 353.684 198.513 354.005 198.656 354.337C203.264 360.151 207.871 365.954 212.479 371.769C212.633 371.614 212.799 371.459 212.976 371.316C209.44 366.474 205.816 361.687 202.446 356.735C201.618 355.508 201.595 353.729 201.209 352.203C202.645 352.502 204.236 352.502 205.485 353.143C211.694 356.337 217.119 353.729 218.843 346.566C216.423 347.461 214.059 348.743 211.561 349.097C210.059 349.307 208.346 348.069 206.733 347.494C207.827 346.223 208.888 344.93 210.026 343.692C211.893 341.669 213.815 339.701 216.688 336.694C210.611 338.728 206.623 340.828 202.446 341.282C196.833 341.89 193.673 338.717 193.033 333.035C191.861 322.556 190.072 312.066 190.027 301.576C189.983 292.379 191.784 283.138 193.265 273.996C193.519 272.448 196.093 270.89 197.927 270.061C218.39 260.764 230.908 244.625 238.145 223.855C238.255 223.545 238.056 223.136 238.001 222.771C233.14 226.928 228.775 232.002 223.284 235.019C215.02 239.574 205.96 242.691 197.242 246.416L197.253 246.427Z" fill="#207EC5"/>
<path d="M170.747 43.1216C179.619 44.238 188.702 44.5144 197.342 46.6036C234.874 55.6458 267.513 73.5865 293.577 102.371C300.924 110.485 306.935 119.837 313.122 128.923C314.282 130.625 313.785 133.809 313.376 136.197C311.664 146.234 313.056 148.522 322.204 152.766C324.226 153.706 325.806 156.746 326.524 159.134C331.43 175.449 333.717 192.064 331.319 209.109C335.595 193.036 334.38 176.986 330.391 161.156C320.768 122.91 297.676 94.1691 265.855 72.0389C236.62 51.7106 203.827 41.3087 168.449 38.7221C167.035 38.6226 165.61 38.711 162.339 38.711C166.151 40.7118 168.46 41.9167 170.769 43.1326L170.747 43.1216Z" fill="#91D1F7"/>
<path d="M239.383 195.502C237.593 197.89 235.792 200.255 234.035 202.654C226.588 212.768 216.169 218.826 204.756 223.038C188.094 229.195 170.858 230.985 153.467 226.575C147.866 225.16 142.684 222.12 137.281 219.887C135.292 219.058 133.237 218.384 131.215 217.632C142.032 231.87 156.804 238.524 174.25 239.751C190.293 240.879 205.22 237.264 218.567 228.122C230.08 220.241 238.002 209.927 239.383 195.502Z" fill="#455677"/>
<path d="M266.209 357.2C272.794 358.471 279.434 361.069 285.931 360.748C304.062 359.831 318.26 351.065 329.087 336.451C332.026 332.483 333.032 329.686 328.159 326.856C325.983 325.585 323.95 324.071 321.85 322.667C321.265 322.28 320.679 321.882 320.105 321.495L320.182 321.539C318.138 320.777 316.094 320.003 314.039 319.24C310.89 320.036 307.741 320.843 304.592 321.639C305.432 323.043 306.239 324.458 307.111 325.828C310.824 331.643 309.763 334.716 303.311 337.203C302.559 337.49 301.631 338.541 301.587 339.303C301.09 346.533 300.791 346.886 293.201 345.936C290.494 345.593 289.201 346.068 289.08 349.186C288.892 354.138 285.776 356.713 281.047 355.884C276.363 355.066 271.866 353.209 267.292 351.816C266.927 353.607 266.562 355.398 266.198 357.189L266.209 357.2Z" fill="#207EC5"/>
<path d="M289.788 464.081C278.805 469.443 274.905 479.844 271.767 490.445C270.452 494.9 270.331 499.93 270.729 504.605C271.193 510.132 275.027 512.001 279.689 509.812C290.462 504.749 301.223 481.414 298.306 469.42C297.721 469.575 296.87 470.062 296.594 469.841C294.263 467.994 292.042 466.016 289.788 464.07V464.081Z" fill="#A36B70"/>
<path d="M54.6586 452.817C51.3439 456.332 51.9295 459.903 55.3104 462.655C58.7577 465.463 61.5641 463.142 63.6081 460.257C71.6737 448.882 83.2529 447.357 95.0751 450.872C107.682 454.619 118.112 453.503 128.409 444.925C136.784 437.939 146.85 433.65 157.832 431.914C158.904 431.748 160.572 430.145 160.572 429.217C160.572 425.204 160.042 421.203 159.71 417.201C159.489 417.4 159.246 417.511 158.948 417.533C159.832 425.613 153.269 424.243 148.805 425.514C141.082 429.913 133.359 434.324 125.636 438.723H125.68C125.437 439.011 125.194 439.309 124.951 439.608C118.664 444.361 111.582 446.671 103.826 445.09C97.6163 443.83 91.5836 441.664 85.4737 439.906C83.9268 439.939 82.3689 439.972 80.8221 440.006C74.5022 443.664 68.1712 447.08 63.5639 453.282C62.227 455.083 57.3435 458.145 54.6475 452.828L54.6586 452.817Z" fill="#A36B70"/>
<path d="M262.641 59.5258C268.552 63.1847 274.474 66.8436 280.385 70.5025C282.495 70.193 284.617 69.5518 286.705 69.6292C301.576 70.1819 313.995 65.4729 322.79 53.004C327.331 46.5705 331.375 39.8607 330.767 31.4707C322.702 37.7715 314.614 44.0502 306.593 50.4062C305.786 51.0474 305.101 52.0975 304.792 53.0924C303.013 58.9731 298.903 59.1279 293.853 58.1109C290.583 57.4477 287.114 57.2376 283.777 57.4587C276.717 57.934 269.679 58.8184 262.629 59.5369L262.641 59.5258Z" fill="#24A5EE"/>
<path d="M85.4837 439.906C91.5937 441.664 97.6263 443.83 103.836 445.091C111.592 446.66 118.674 444.361 124.961 439.608C125.204 439.309 125.447 439.011 125.69 438.701L125.646 438.712C131.325 430.731 139.335 426.807 148.815 425.503C153.29 424.232 159.842 425.602 158.958 417.522C159.013 413.111 156.052 413.996 153.655 414.769C149.014 416.251 144.473 418.063 139.899 419.733C139.899 419.733 139.855 419.744 139.866 419.744C139.457 420.086 139.059 420.418 138.65 420.761L138.728 420.694C138.043 421.125 137.347 421.557 136.662 421.977L136.584 422.032C136.187 422.341 135.789 422.651 135.402 422.971L135.612 423.226L135.391 422.994C135.004 423.325 134.618 423.646 134.231 423.966H134.165C133.601 424.375 133.049 424.784 132.485 425.193C126.817 428.123 121.171 431.118 115.437 433.904C114.796 434.213 113.603 433.406 112.664 433.119C113.205 432.478 113.758 431.826 114.299 431.185C111.923 428.808 109.548 426.442 107.172 424.066L107.128 424.176C106.775 423.756 106.421 423.347 106.068 422.927L106.09 423.005C105.747 422.596 105.405 422.198 105.062 421.789C104.686 421.291 104.311 420.783 103.924 420.285C102.311 416.383 100.698 412.481 99.0737 408.579C97.2065 408.69 95.3392 408.789 93.472 408.889C95.527 416.383 97.0407 424.066 99.7919 431.295C101.98 437.054 101.88 438.259 95.6928 438.79C92.2897 439.144 88.8978 439.508 85.4947 439.862L85.4837 439.906Z" fill="#E5886D"/>
<path d="M47.1558 72.8239C53.4978 68.546 59.6299 63.9365 66.2039 60.0565C82.3904 50.5058 100.168 45.5757 118.708 43.3649C120.166 43.1881 122.509 44.8572 123.403 46.3053C129.359 55.9223 142.661 56.7845 149.799 48.0408C150.617 47.0349 153.534 46.5264 154.649 47.1896C161.378 51.1912 167.864 55.6128 174.438 59.8796C175.487 60.565 176.592 61.1619 177.664 61.803C171.444 56.5634 165.599 50.7711 158.925 46.2058C147.424 38.3464 134.474 37.7495 120.906 39.485C95.6047 42.7348 72.347 50.6053 52.415 66.9653C50.4152 68.6123 48.9015 70.8673 47.1668 72.835L47.1558 72.8239Z" fill="#ACB6C5"/>
<path d="M351.561 62.5659C351.605 62.179 351.472 61.8584 351.163 61.6152C347.373 63.7376 343.462 65.6831 339.805 68.0155C327.519 75.8639 315.862 85.1271 300.173 85.0056C300.626 85.7462 300.891 86.8516 301.543 87.1832C312.227 92.5333 326.115 93.7824 337.33 86.2104C344.125 81.623 347.749 74.858 351.981 68.3803C352.003 67.6618 352.025 66.9433 352.047 66.2248C351.892 65.0088 351.726 63.7818 351.572 62.5659H351.561Z" fill="#24A5EE"/>
<path d="M330.778 31.4704C331.385 39.8604 327.341 46.5702 322.8 53.0036C314.005 65.4725 301.576 70.1816 286.715 69.6289C284.616 69.5515 282.494 70.1926 280.395 70.5021C310.216 82.9932 336.843 63.5713 337.882 35.6267C338.037 31.4593 336.921 27.2367 336.39 23.0361C334.523 25.8439 332.656 28.6626 330.789 31.4704H330.778Z" fill="#207EC5"/>
<path d="M204.779 429.758C203.861 434.976 202.933 440.182 202.016 445.4C206.115 445.986 208.447 444.062 210.126 440.381C211.795 436.722 213.673 432.997 216.203 429.935C222.258 422.617 231.627 417.809 245.504 424.231C248.3 425.525 251.371 427.371 253.371 423.015C251.769 420.76 250.167 418.494 248.576 416.239C248.233 415.963 247.88 415.675 247.526 415.399C247.526 415.399 247.25 415.189 247.25 415.2C246.344 415.2 245.416 415.322 244.543 415.145C233.539 412.857 223.164 413.664 213.982 421.048C213.142 421.722 211.651 421.578 210.458 421.822V421.866C210.104 422.286 209.739 422.695 209.386 423.115L209.419 423.06C208.314 424.53 207.209 425.989 206.104 427.459C206.104 427.459 206.082 427.525 206.093 427.525C205.651 428.277 205.22 429.029 204.779 429.78V429.758Z" fill="#EFB04B"/>
<path d="M253.382 423.015C251.371 427.37 248.31 425.524 245.515 424.231C231.626 417.809 222.268 422.617 216.213 429.935C213.672 433.008 211.805 436.722 210.137 440.381C208.457 444.051 206.126 445.974 202.027 445.4C203.209 447.312 203.971 449.921 205.684 450.971C208.468 452.684 211.197 453.27 212.247 448.163C215.451 432.665 229.406 425.602 243.869 431.516C246.178 432.455 250.785 433.428 250.973 432.986C252.266 429.869 252.685 426.387 253.393 423.015H253.382Z" fill="#A36B70"/>
<path d="M351.982 68.3802C347.761 74.8579 344.126 81.6229 337.331 86.2103C326.116 93.7934 312.228 92.5443 301.544 87.1831C300.892 86.8515 300.627 85.7461 300.174 85.0055C298.704 85.0055 297.235 84.9944 295.765 84.9833C300.141 92.1574 307.731 94.4235 314.935 96.5127C334.215 102.095 353.009 87.57 351.971 68.3691L351.982 68.3802Z" fill="#207EC5"/>
<path d="M134.573 211.165C138.241 211.85 141.899 212.535 145.567 213.221C154.439 211.375 163.377 209.805 172.15 207.572C176.78 206.389 181.111 204.035 186.414 201.857C178.238 200.94 171.244 200.133 164.239 199.37C163.554 199.293 162.659 199.237 162.162 199.591C154.251 205.328 145.047 206.666 135.678 207.406C131.734 207.716 132.54 209.197 134.573 211.154V211.165Z" fill="#455677"/>
<path d="M262.541 493.938C258.022 491.053 252.884 488.809 249.128 485.161C241.78 478.02 234.886 470.349 228.378 462.423C220.401 452.707 223.914 442.449 236.035 438.668C236.134 438.336 236.267 438.016 236.444 437.717C227.373 437.474 222.18 440.813 220.368 448.595C219.871 450.739 219.926 453.558 220.92 455.437C230.433 473.4 243.438 488.466 259.602 500.781C260.132 501.179 260.862 501.322 262.541 502.008V493.938Z" fill="#A36B70"/>
<path d="M330.778 31.4707C332.645 28.663 334.512 25.8442 336.379 23.0365C336.468 21.8206 336.556 20.6046 336.645 19.3887C317.718 46.6811 291.135 57.5914 258.651 57.7683C259.977 58.3541 261.303 58.94 262.629 59.5148C269.678 58.7963 276.716 57.912 283.776 57.4366C287.113 57.2156 290.582 57.4256 293.853 58.0888C298.902 59.1168 303.012 58.951 304.791 53.0703C305.089 52.0754 305.774 51.0253 306.592 50.3842C314.613 44.0281 322.701 37.7494 330.767 31.4486L330.778 31.4707Z" fill="#91D1F7"/>
<path d="M171.034 406.622C167.775 414.238 165.775 421.91 169.874 429.902C177.851 429.614 183.287 424.541 183.121 417.554C182.989 411.729 177.652 406.909 171.034 406.633V406.622Z" fill="#EFB04B"/>
<path d="M171.035 406.622C177.653 406.898 182.979 411.718 183.122 417.544C183.288 424.541 177.852 429.603 169.875 429.891C171.72 432.057 173.19 434.854 175.51 436.192C177.631 437.419 180.714 437.397 183.277 437.109C183.785 437.054 184.172 433.262 184.095 431.217C183.819 424.85 184.338 418.815 188.558 413.542C189.1 412.857 188.47 410.17 187.608 409.618C183.929 407.252 179.929 405.373 176.107 403.24C172.118 401.007 172.129 404.577 171.057 406.622H171.035Z" fill="#A36B70"/>
<path d="M295.765 84.9944C297.234 84.9944 298.704 85.0054 300.173 85.0165C315.862 85.1381 327.519 75.8748 339.805 68.0264C343.462 65.694 347.374 63.7485 351.163 61.6262C351.649 58.4205 350.578 58.0557 348.014 59.7359C341.739 63.848 335.242 67.6506 329.121 71.9727C318.138 79.7327 306.228 83.8337 290.903 81.9103C293.5 83.5573 294.627 84.2759 295.765 84.9944Z" fill="#91D1F7"/>
<path d="M172.128 212.215C174.007 212.481 175.984 213.266 177.741 212.934C194.005 209.784 208.832 203.516 221.207 192.152C219.406 192.429 217.174 192.13 215.859 193.081C202.645 202.632 188.016 208.844 172.128 212.215Z" fill="#ACB6C5"/>
<path d="M54.6574 452.817C57.3534 458.134 62.2369 455.072 63.5738 453.27C68.1812 447.08 74.5121 443.664 80.832 439.994C78.6665 440.293 76.4346 440.337 74.3685 440.945C70.0153 442.216 65.7504 443.775 61.4524 445.212L61.3972 445.134C60.6459 445.864 59.8946 446.582 59.1543 447.312L59.2537 447.433C58.867 447.798 58.4803 448.152 58.0936 448.517H58.1268C57.729 448.859 57.3202 449.213 56.9225 449.556C56.9225 449.556 56.9667 449.556 56.9777 449.556C56.5689 449.899 56.1601 450.252 55.7513 450.595C55.7513 450.595 55.7955 450.628 55.7955 450.639C55.4751 451.059 55.1657 451.468 54.8453 451.877C54.7459 452.187 54.6795 452.507 54.6574 452.828V452.817Z" fill="#E5886D"/>
<path d="M290.185 301.554C297.333 307.247 304.493 312.929 311.641 318.622C312.227 318.555 312.802 318.478 313.387 318.412C313.464 317.682 313.542 316.941 313.619 316.212C306.404 309.878 299.2 303.544 291.986 297.21C291.323 297.873 290.66 298.525 289.997 299.189L290.185 301.554Z" fill="#EFB04B"/>
<path d="M249.668 446.218C252.585 448.838 255.171 452.054 258.507 453.945C262.872 456.41 267.866 457.736 272.517 459.737C274.23 460.477 275.721 461.727 277.323 462.732C278.351 461.826 279.367 460.931 279.854 460.5C269.711 455.702 259.689 450.96 249.668 446.218Z" fill="#ACB6C5"/>
<path d="M210.467 421.81C211.661 421.567 213.152 421.711 213.992 421.036C223.162 413.663 233.537 412.856 244.553 415.134C245.426 415.31 246.365 415.178 247.26 415.189C235.504 408.512 220.212 411.265 210.478 421.799L210.467 421.81Z" fill="#ACB6C5"/>
<path d="M61.4538 445.212C65.7518 443.775 70.0166 442.216 74.3698 440.945C76.4359 440.337 78.6678 440.293 80.8334 439.995C82.3912 439.961 83.9381 439.928 85.4849 439.895C88.8769 439.541 92.2799 439.177 95.6719 438.823C83.3304 435.949 71.6739 436.778 61.4427 445.201L61.4538 445.212Z" fill="#ACB6C5"/>
<path d="M196.37 427.669C198.249 424.751 200.127 421.833 201.994 418.914C200.083 418.417 198.171 417.909 196.26 417.411C194.89 420.086 193.52 422.75 192.15 425.425C193.564 426.177 194.967 426.918 196.381 427.669H196.37Z" fill="#E5886D"/>
<path d="M139.889 419.733C144.463 418.063 149.004 416.251 153.645 414.769C156.043 414.007 159.015 413.111 158.948 417.522C159.236 417.489 159.49 417.378 159.711 417.179C160.009 415.377 160.296 413.575 160.738 410.9C152.949 412.337 146.121 415.256 139.889 419.722V419.733Z" fill="#ACB6C5"/>
<path d="M289.788 464.082C292.042 466.016 294.263 468.006 296.594 469.852C296.881 470.073 297.721 469.587 298.307 469.432C297.003 462.888 295.401 461.882 289.788 464.093V464.082Z" fill="#E5886D"/>
<path d="M289.998 299.188C290.66 298.525 291.323 297.873 291.986 297.209C289.235 294.623 286.473 292.036 283.711 289.438C285.291 292.799 286.86 296.159 288.44 299.52C288.959 299.409 289.478 299.299 289.998 299.188Z" fill="#91D1F7"/>
<path d="M236.432 437.706C236.255 438.005 236.112 438.325 236.023 438.657C239.802 440.481 243.581 442.316 247.359 444.14C243.724 441.995 240.078 439.851 236.443 437.706H236.432Z" fill="#ACB6C5"/>
<path d="M196.369 427.67C194.955 426.918 193.552 426.177 192.137 425.426C192.137 428.167 192.137 430.92 192.137 433.661C192.723 433.738 193.32 433.816 193.905 433.904L196.369 427.67Z" fill="#A36B70"/>
<path d="M107.139 424.099C109.514 426.475 111.89 428.841 114.265 431.217C114.298 430.322 114.696 428.929 114.287 428.631C112.011 426.973 109.547 425.58 107.139 424.099Z" fill="#ACB6C5"/>
<path d="M266.208 357.2C266.573 355.409 266.937 353.618 267.302 351.817C267.678 350.733 268.042 349.65 268.418 348.567C266.882 348.025 265.346 347.483 263.822 346.931L263.766 346.975C264.076 350.236 264.396 353.497 264.706 356.758C265.203 356.901 265.711 357.045 266.208 357.189V357.2Z" fill="#455677"/>
<path d="M313.619 316.212C313.542 316.941 313.465 317.682 313.387 318.412C313.708 318.611 313.929 318.887 314.05 319.241C316.094 320.003 318.138 320.777 320.193 321.54C318.006 319.76 315.807 317.992 313.619 316.212Z" fill="#91D1F7"/>
<path d="M196.26 417.411C198.171 417.908 200.083 418.417 201.994 418.914C201.74 418.052 201.42 416.438 201.254 416.46C199.574 416.626 197.917 417.057 196.249 417.411H196.26Z" fill="#ACB6C5"/>
<path d="M206.115 427.438C207.22 425.978 208.325 424.508 209.43 423.038C208.325 424.497 207.22 425.967 206.115 427.438Z" fill="#ACB6C5"/>
<path d="M59.1438 447.302C59.8951 446.572 60.6464 445.854 61.3867 445.124C60.6354 445.843 59.8841 446.572 59.1438 447.302Z" fill="#ACB6C5"/>
<path d="M312.151 411.309C312.394 411.751 312.637 412.182 312.88 412.625C313.002 412.503 313.267 412.326 313.245 412.282C313.035 411.84 312.781 411.409 312.549 410.978L312.151 411.309Z" fill="#207EC5"/>
<path d="M132.463 425.215C133.027 424.806 133.59 424.397 134.143 423.988C133.579 424.397 133.016 424.806 132.463 425.215Z" fill="#ACB6C5"/>
<path d="M281.6 288.233C282.307 288.642 283.014 289.04 283.732 289.449C283.025 289.04 282.318 288.642 281.6 288.233Z" fill="#91D1F7"/>
<path d="M103.903 420.318C104.279 420.816 104.654 421.324 105.041 421.822C104.665 421.313 104.29 420.816 103.903 420.318Z" fill="#ACB6C5"/>
<path d="M135.38 422.983C135.778 422.673 136.176 422.364 136.562 422.043C136.165 422.352 135.767 422.662 135.38 422.983Z" fill="#ACB6C5"/>
<path d="M338.899 415.521C339.075 415.665 339.252 415.809 339.418 415.952C339.385 415.842 339.396 415.687 339.33 415.632C339.219 415.554 339.053 415.532 338.91 415.499L338.899 415.521Z" fill="#207EC5"/>
<path d="M213.318 83.0159C213.207 83.1265 213.086 83.237 212.975 83.3476C213.218 83.436 213.461 83.5244 213.693 83.6018C213.561 83.4028 213.439 83.2039 213.318 83.0049V83.0159Z" fill="#5C6A7A"/>
<path d="M248.421 445.179C248.797 445.577 249.172 445.964 249.537 446.361C249.161 445.964 248.786 445.577 248.421 445.179Z" fill="#ACB6C5"/>
<path d="M320.106 321.495C320.691 321.882 321.277 322.28 321.852 322.667C321.266 322.28 320.68 321.882 320.106 321.495Z" fill="#91D1F7"/>
<path d="M228.412 161.223C228.799 161.809 229.186 162.394 229.572 162.991C229.186 162.405 228.799 161.82 228.412 161.223Z" fill="#ACB6C5"/>
<path d="M42.737 77.2677C43.1237 76.8698 43.5104 76.4829 43.9082 76.085C43.5215 76.4829 43.1348 76.8698 42.737 77.2677Z" fill="#ACB6C5"/>
<path d="M247.536 415.399C247.89 415.687 248.232 415.963 248.586 416.239C248.232 415.952 247.89 415.676 247.536 415.399Z" fill="#ACB6C5"/>
<path d="M289.998 299.188C289.478 299.299 288.959 299.409 288.44 299.52C286.186 300.492 283.7 302.593 281.722 302.184C277.866 301.399 274.342 299.111 270.596 297.674C269.425 297.221 267.966 297.508 266.629 297.464C266.817 298.945 266.53 300.78 267.303 301.819C268.928 304.008 271.347 305.599 273.027 307.755C274.916 310.187 276.573 312.884 277.866 315.681C278.352 316.742 278.01 318.909 277.203 319.649C276.452 320.334 274.165 320.357 273.27 319.704C269.336 316.786 265.735 313.404 261.834 310.43C260.575 309.468 258.763 309.203 257.205 308.617C257.227 310.275 256.862 312.044 257.348 313.558C258.564 317.383 260.431 321.02 261.448 324.889C261.878 326.525 260.829 328.559 260.453 330.416C258.774 329.874 256.862 329.675 255.47 328.724C253.371 327.299 251.747 325.176 249.681 323.673C248.543 322.844 246.907 322.667 245.504 322.203C245.582 323.817 245.25 325.596 245.836 326.989C246.963 329.675 248.797 332.063 250.001 334.727C251.692 338.441 251.857 342.188 249.095 345.604C255.735 344.554 252.653 338.695 254.244 335.158C265.094 336.827 265.69 336.296 267.403 323.22C272.154 324.524 277.347 328.393 281.534 322.999C286.252 316.93 281.523 311.613 279.28 306.793C282.982 305.003 286.573 303.278 290.152 301.554C290.086 300.769 290.031 299.973 289.965 299.188H289.998Z" fill="#162B6E"/>
<path d="M297.555 241.95C294.163 242.437 290.903 243.089 287.622 243.233C286.837 243.266 285.976 241.619 285.147 240.734C285.909 240.049 286.694 239.386 287.423 238.667C289.732 236.434 292.019 234.179 294.903 231.35C289.577 232.975 285.644 235.174 281.766 235.064C277.998 234.953 274.308 232.477 269.922 230.797C271.513 232.93 273.214 235.263 274.971 237.562C275.866 238.734 276.871 239.817 277.833 240.933C276.242 241.641 274.595 243.012 273.06 242.912C270.839 242.768 268.684 241.541 266.585 240.812C267.325 245.841 272.209 248.461 277.722 247.157C280.12 246.582 282.904 246.615 285.302 247.223C291.876 248.903 296.936 246.516 297.555 241.939V241.95Z" fill="#207EC5"/>
<path d="M226.665 303.047C218.378 309.392 211.594 310.42 205.617 302.262C205.219 302.693 204.821 303.124 204.435 303.544C206.589 306.639 208.744 309.745 211.02 313.006C207.44 317.748 204.147 317.428 197.341 311.094C198.391 319.053 206.28 323.132 212.765 318.6C217.163 315.527 220.941 311.536 224.864 307.811C225.604 307.114 225.692 305.744 226.676 303.058L226.665 303.047Z" fill="#207EC5"/>
<path d="M261.236 278.639C251.116 284.354 248.342 284.21 241.503 277.965C240.675 282.342 243.37 285.614 248.884 286.919C254.574 288.256 259.678 285.084 261.236 278.639Z" fill="#207EC5"/>
<path d="M251.027 255.26C243.868 260.146 237.371 259.836 231.57 253.325C231.261 258.742 234.432 262.102 240.233 262.876C245.658 263.594 249.735 260.908 251.027 255.249V255.26Z" fill="#207EC5"/>
<path d="M216.412 374.488C215.263 373.427 214.125 372.366 212.976 371.315C212.81 371.459 212.644 371.614 212.479 371.769C213.738 372.719 214.998 373.67 216.257 374.621L216.401 374.499L216.412 374.488Z" fill="#207EC5"/>
<path d="M217.494 375.583C217.13 375.218 216.765 374.853 216.4 374.488L216.257 374.61C216.621 374.975 216.997 375.339 217.362 375.715L217.483 375.583H217.494Z" fill="#207EC5"/>
<path d="M112.024 49.2344C109.35 51.5005 107.328 53.2249 105.317 54.9383C107.162 56.0437 109.24 58.2987 110.786 57.9781C113.25 57.4696 115.372 55.2478 117.637 53.7555C116.057 52.4843 114.466 51.202 112.024 49.2344Z" fill="#ACB6C5"/>
<path d="M217.374 375.715C217.009 375.35 216.634 374.986 216.269 374.61C215.009 373.659 213.75 372.708 212.49 371.758C207.883 365.943 203.276 360.14 198.668 354.326C198.502 354.304 198.193 354.281 198.182 354.237C198.182 353.939 198.215 353.64 198.248 353.342C198.248 353.132 198.171 352.966 197.983 352.867C190.934 354.215 186.89 351.374 187.354 346.864C190.161 347.251 192.989 347.638 195.829 348.025C188.282 329.432 186.338 310.132 188.746 290.323C189.454 284.508 190.315 278.705 191.1 272.891C185.553 273.952 180.018 275.101 174.46 276.074C156.65 279.18 146.164 294.402 150.341 311.978C154.705 330.349 164.439 345.416 178.747 357.907C191.597 369.127 205.839 377.185 222.379 381.209C220.711 379.374 219.042 377.528 217.385 375.693L217.374 375.715ZM162.506 291.528C168.218 298.138 174.759 297.221 181.598 293.672C181.056 299.199 178.217 301.001 171.057 300.548C165.378 300.183 162.461 297.187 162.506 291.539V291.528Z" fill="#F9C10F"/>
<path d="M243.703 459.041C240.543 456.2 237.383 453.348 234.223 450.507C233.848 450.916 233.472 451.325 233.096 451.734C234.499 456.487 237.88 459.151 243.703 459.041Z" fill="#455677"/>
<path d="M255.216 469.42C254.884 469.243 254.542 469.067 254.21 468.89C254.409 469.188 254.608 469.498 254.818 469.796C254.95 469.663 255.083 469.542 255.227 469.409L255.216 469.42Z" fill="#162B6E"/>
<path d="M268.418 348.566C268.043 349.649 267.667 350.733 267.302 351.816C271.888 353.22 276.384 355.066 281.069 355.884C285.798 356.713 288.914 354.137 289.102 349.185C289.212 346.068 290.505 345.593 293.223 345.935C300.813 346.886 301.112 346.532 301.609 339.303C301.664 338.551 302.581 337.501 303.332 337.203C309.785 334.704 310.846 331.643 307.133 325.828C306.26 324.457 305.454 323.031 304.614 321.628L304.636 321.572C304.283 321.23 303.929 320.887 303.575 320.533C302.769 321.285 301.962 322.037 301.156 322.788C301.277 323.131 301.399 323.474 301.509 323.827C302.261 326.326 303.012 328.824 303.763 331.322C301.277 331.211 298.78 330.979 296.294 331.057C295.002 331.101 293.057 331.344 292.615 332.162C292.151 333.013 292.935 334.749 293.521 335.92C294.328 337.501 295.466 338.916 297.499 341.923C292.604 340.729 289.267 339.789 285.886 339.137C284.594 338.883 283.179 339.281 281.82 339.391C281.931 340.751 281.809 342.188 282.185 343.47C282.981 346.145 285.29 348.843 281.588 351.131C278.716 350.821 275.843 350.523 272.959 350.213C272.528 350.059 272.097 349.904 271.678 349.749C271.313 349.605 270.937 349.451 270.562 349.296C269.855 349.053 269.147 348.809 268.44 348.555L268.418 348.566Z" fill="#162B6E"/>
<path d="M301.146 322.8C301.952 322.048 302.759 321.296 303.565 320.545C303.919 320.887 304.273 321.241 304.626 321.584L304.604 321.639C307.753 320.843 310.902 320.036 314.051 319.24C313.929 318.886 313.708 318.61 313.388 318.411C312.802 318.477 312.228 318.544 311.642 318.621C311.642 318.621 311.432 318.455 311.432 318.444C311.034 318.665 310.637 318.886 310.239 319.119H299.047C299.853 320.545 300.494 321.672 301.146 322.8Z" fill="#455677"/>
<path d="M272.937 350.225C275.81 350.534 278.683 350.833 281.566 351.142C278.694 350.833 275.821 350.534 272.937 350.225Z" fill="#455677"/>
<path d="M270.54 349.308C270.916 349.462 271.281 349.617 271.656 349.761C271.281 349.606 270.916 349.462 270.54 349.308Z" fill="#455677"/>
<path d="M263.823 346.942C263.679 346.787 263.536 346.632 263.392 346.478C263.525 346.643 263.646 346.809 263.779 346.986L263.834 346.942H263.823Z" fill="#455677"/>
<path d="M195.828 348.036C192.999 347.649 190.16 347.262 187.353 346.875C186.889 351.385 190.922 354.226 197.982 352.877C197.264 351.263 196.546 349.65 195.828 348.047V348.036Z" fill="#B4912C"/>
<path d="M198.248 353.354C198.215 353.652 198.171 353.95 198.182 354.249C198.182 354.282 198.491 354.304 198.668 354.337C198.524 354.006 198.392 353.685 198.248 353.354Z" fill="#B4912C"/>
<path d="M148.805 425.514C139.314 426.818 131.314 430.742 125.635 438.723C133.358 434.324 141.082 429.913 148.805 425.514Z" fill="#162B6E"/>
<path d="M125.68 438.701C125.437 439 125.194 439.309 124.95 439.608C125.194 439.309 125.437 439.011 125.68 438.701Z" fill="#162B6E"/>
<path d="M162.505 291.528C162.461 297.176 165.378 300.183 171.057 300.537C178.206 300.99 181.045 299.188 181.598 293.661C174.758 297.22 168.229 298.127 162.505 291.517V291.528Z" fill="#B4912C"/>
</g>
<defs>
<clipPath id="clip0_1309_29051">
<rect width="392" height="525" fill="white" transform="matrix(-1 0 0 1 392 0)"/>
</clipPath>
</defs>
</svg>
