<svg width="189" height="52" viewBox="0 0 189 52" fill="none" xmlns="http://www.w3.org/2000/svg">
<path d="M44.1387 35.5422V31.1715L62.9188 6.1005L64.4083 7.78225H45.388V1.92201H70.1244V6.24466L51.4404 31.3637L49.9028 29.778H70.6511V35.5422H44.1387ZM82.0223 36.0227C79.9414 36.0227 78.0527 35.4461 76.3543 34.2929C74.6577 33.1397 73.2957 31.5706 72.2719 29.5858C71.2481 27.601 70.7343 25.3426 70.7343 22.8145C70.7343 20.2845 71.2462 18.028 72.2719 16.0413C73.2957 14.0565 74.6892 12.5022 76.4504 11.3823C78.2116 10.2624 80.1964 9.70055 82.4067 9.70055C83.6874 9.70055 84.8554 9.88536 85.9125 10.2531C86.9696 10.6209 87.8973 11.142 88.6976 11.8147C89.4978 12.4874 90.1631 13.2562 90.6916 14.1211C91.2202 14.986 91.5805 15.9138 91.7727 16.9062L90.4754 16.5698V10.2291H96.4317V35.5403H90.4273V29.4879L91.8208 29.2476C91.5972 30.1125 91.1888 30.9534 90.5955 31.7684C90.0023 32.5852 89.2668 33.306 88.3852 33.9288C87.5055 34.5534 86.5279 35.058 85.456 35.4424C84.3841 35.8268 83.2383 36.019 82.0223 36.019V36.0227ZM83.656 30.7871C85.0328 30.7871 86.2489 30.4507 87.306 29.778C88.3631 29.1053 89.1873 28.1683 89.7787 26.9689C90.3719 25.7677 90.6676 24.3835 90.6676 22.8145C90.6676 21.2769 90.3719 19.9167 89.7787 18.7321C89.1854 17.5475 88.3612 16.6197 87.306 15.947C86.2489 15.2743 85.0328 14.938 83.656 14.938C82.2792 14.938 81.0706 15.2743 80.0301 15.947C78.9896 16.6197 78.1802 17.5475 77.6054 18.7321C77.0288 19.9167 76.7405 21.2769 76.7405 22.8145C76.7405 24.3835 77.0288 25.7677 77.6054 26.9689C78.182 28.1702 78.9896 29.1072 80.0301 29.778C81.0706 30.4507 82.2792 30.7871 83.656 30.7871ZM113.183 36.0227C112.063 36.0227 110.965 35.8545 109.893 35.5181C108.821 35.1818 107.851 34.7253 106.988 34.1487C106.123 33.5721 105.402 32.9234 104.828 32.2027C104.251 31.4819 103.867 30.7538 103.674 30.0164L105.068 29.3918L104.924 35.4442H99.2075V-0.00183105H105.116V16.0875L104.059 15.607C104.22 14.8382 104.58 14.1101 105.14 13.4207C105.7 12.7314 106.397 12.1086 107.23 11.5468C108.063 10.9868 108.975 10.5377 109.967 10.2014C110.959 9.86503 111.968 9.69686 112.992 9.69686C115.265 9.69686 117.274 10.2568 119.021 11.3786C120.765 12.4985 122.142 14.0528 123.151 16.0376C124.16 18.0224 124.665 20.2808 124.665 22.8108C124.665 25.3722 124.168 27.6453 123.175 29.6302C122.183 31.615 120.813 33.1766 119.069 34.3132C117.324 35.4497 115.362 36.019 113.185 36.019L113.183 36.0227ZM111.933 30.8351C113.279 30.8351 114.48 30.4914 115.535 29.802C116.592 29.1127 117.424 28.1683 118.032 26.9689C118.64 25.7677 118.945 24.3835 118.945 22.8145C118.945 21.2769 118.649 19.9167 118.056 18.7321C117.463 17.5475 116.639 16.6197 115.583 15.947C114.526 15.2743 113.31 14.938 111.933 14.938C110.557 14.938 109.341 15.2743 108.283 15.947C107.226 16.6197 106.395 17.5475 105.787 18.7321C105.179 19.9167 104.874 21.2769 104.874 22.8145C104.874 24.3835 105.179 25.7677 105.787 26.9689C106.395 28.1702 107.228 29.1146 108.283 29.802C109.341 30.4914 110.557 30.8351 111.933 30.8351ZM138.146 36.0227C136.866 36.0227 135.657 35.8305 134.521 35.4461C133.384 35.0617 132.343 34.5257 131.399 33.8364C130.455 33.1489 129.655 32.3394 128.998 31.4117C128.342 30.484 127.869 29.4897 127.581 28.4345L128.446 29.2033L128.206 35.544H125.901V0.00186509H128.302V16.8119L127.581 17.6288C127.869 16.5717 128.341 15.5793 128.998 14.6515C129.655 13.7238 130.455 12.9144 131.399 12.2269C132.343 11.5375 133.384 11.0016 134.521 10.6172C135.657 10.2328 136.866 10.0406 138.146 10.0406C140.355 10.0406 142.356 10.6006 144.151 11.7223C145.943 12.8423 147.378 14.3799 148.449 16.3333C149.521 18.2867 150.059 20.5284 150.059 23.0566C150.059 25.5533 149.54 27.7802 148.497 29.7337C147.457 31.6871 146.04 33.2247 144.247 34.3446C142.454 35.4645 140.421 36.0263 138.146 36.0263V36.0227ZM137.81 33.622C139.732 33.622 141.421 33.1581 142.877 32.2286C144.334 31.3008 145.47 30.0349 146.287 28.4345C147.104 26.834 147.512 25.0248 147.512 23.0067C147.512 20.9572 147.097 19.1405 146.263 17.5549C145.43 15.9692 144.286 14.7218 142.829 13.8088C141.373 12.8959 139.699 12.4394 137.81 12.4394C135.921 12.4394 134.249 12.8959 132.791 13.8088C131.334 14.7218 130.189 15.9711 129.357 17.5549C128.524 19.1405 128.108 20.9572 128.108 23.0067C128.108 25.0876 128.533 26.9209 129.381 28.5065C130.229 30.0922 131.382 31.3396 132.839 32.2526C134.295 33.1655 135.953 33.622 137.81 33.622ZM162.105 36.0227C159.608 36.0227 157.39 35.4627 155.454 34.3409C153.517 33.221 151.996 31.6667 150.891 29.6819C149.786 27.6971 149.233 25.4387 149.233 22.9087C149.233 20.412 149.786 18.1943 150.891 16.2575C151.996 14.3207 153.517 12.7998 155.454 11.6946C157.39 10.5895 159.608 10.0369 162.105 10.0369C164.603 10.0369 166.819 10.5895 168.758 11.6946C170.695 12.7998 172.208 14.3207 173.297 16.2575C174.385 18.1943 174.93 20.412 174.93 22.9087C174.93 25.4387 174.385 27.6952 173.297 29.6819C172.208 31.6667 170.695 33.221 168.758 34.3409C166.821 35.4608 164.603 36.0227 162.105 36.0227ZM162.105 33.622C164.09 33.622 165.86 33.1581 167.413 32.2286C168.965 31.3008 170.183 30.0349 171.062 28.4345C171.942 26.834 172.384 24.9915 172.384 22.9106C172.384 20.8943 171.944 19.0925 171.062 17.5068C170.181 15.9212 168.965 14.6811 167.413 13.7848C165.86 12.8885 164.09 12.4394 162.105 12.4394C160.089 12.4394 158.303 12.8885 156.749 13.7848C155.197 14.6811 153.979 15.923 153.099 17.5068C152.219 19.0925 151.778 20.8925 151.778 22.9106C151.778 24.9915 152.218 26.8322 153.099 28.4345C153.981 30.0349 155.197 31.3008 156.749 32.2286C158.301 33.1563 160.087 33.622 162.105 33.622ZM179.867 35.544V3.89206H182.267V35.544H179.867ZM173.862 12.7776V10.5691H188.992V12.7776H173.862Z" fill="white"/>
<path d="M42.5293 43.7051C42.3911 43.7051 42.2842 43.6653 42.2088 43.5857C42.1334 43.5019 42.0957 43.3846 42.0957 43.2338C42.0957 43.0956 42.1355 42.9825 42.2151 42.8945C42.2947 42.8066 42.3994 42.7626 42.5293 42.7626C42.6675 42.7626 42.7744 42.8045 42.8498 42.8883C42.9252 42.9678 42.9629 43.083 42.9629 43.2338C42.9629 43.3721 42.9231 43.4852 42.8435 43.5732C42.7639 43.6611 42.6592 43.7051 42.5293 43.7051ZM43.959 43.7051C43.8208 43.7051 43.714 43.6653 43.6386 43.5857C43.5632 43.5019 43.5255 43.3846 43.5255 43.2338C43.5255 43.0956 43.5653 42.9825 43.6449 42.8945C43.7244 42.8066 43.8292 42.7626 43.959 42.7626C44.0973 42.7626 44.2041 42.8045 44.2795 42.8883C44.3549 42.9678 44.3926 43.083 44.3926 43.2338C44.3926 43.3721 44.3528 43.4852 44.2732 43.5732C44.1936 43.6611 44.0889 43.7051 43.959 43.7051ZM45.3888 43.7051C45.2505 43.7051 45.1437 43.6653 45.0683 43.5857C44.9929 43.5019 44.9552 43.3846 44.9552 43.2338C44.9552 43.0956 44.995 42.9825 45.0746 42.8945C45.1542 42.8066 45.2589 42.7626 45.3888 42.7626C45.527 42.7626 45.6338 42.8045 45.7092 42.8883C45.7846 42.9678 45.8223 43.083 45.8223 43.2338C45.8223 43.3721 45.7825 43.4852 45.7029 43.5732C45.6233 43.6611 45.5186 43.7051 45.3888 43.7051ZM46.963 43.636V39.4952H47.6102V43.636H46.963ZM46.2781 40.9655V40.3372H48.3768V40.9655H46.2781ZM48.9661 43.636V38.9862H49.6133V41.0158L49.5002 41.0912C49.5421 40.9446 49.6238 40.8105 49.7453 40.689C49.8667 40.5634 50.0113 40.4628 50.1788 40.3874C50.3464 40.3079 50.5181 40.2681 50.6941 40.2681C50.9454 40.2681 51.1548 40.3183 51.3224 40.4189C51.49 40.5152 51.6156 40.6639 51.6994 40.865C51.7832 41.0661 51.8251 41.3195 51.8251 41.6253V43.636H51.1779V41.6693C51.1779 41.4808 51.1527 41.3258 51.1025 41.2043C51.0522 41.0786 50.9747 40.9886 50.87 40.9341C50.7653 40.8755 50.6354 40.8503 50.4804 40.8587C50.3547 40.8587 50.2395 40.8796 50.1348 40.9215C50.0301 40.9592 49.9379 41.0137 49.8584 41.0849C49.783 41.1561 49.7222 41.2399 49.6761 41.3362C49.6342 41.4284 49.6133 41.5289 49.6133 41.6378V43.636H49.2928C49.2384 43.636 49.1839 43.636 49.1295 43.636C49.075 43.636 49.0206 43.636 48.9661 43.636ZM54.2425 43.6988C53.9032 43.6988 53.6016 43.6276 53.3377 43.4852C53.0779 43.3386 52.8727 43.1396 52.7219 42.8883C52.5753 42.6369 52.502 42.3479 52.502 42.0211C52.502 41.7614 52.5439 41.5247 52.6276 41.3111C52.7114 41.0975 52.8266 40.9132 52.9732 40.7582C53.124 40.599 53.3021 40.4775 53.5073 40.3937C53.7168 40.3058 53.943 40.2618 54.1859 40.2618C54.3996 40.2618 54.5985 40.3037 54.7829 40.3874C54.9672 40.467 55.1264 40.578 55.2604 40.7205C55.3986 40.8629 55.5034 41.0325 55.5746 41.2294C55.65 41.4221 55.6856 41.6337 55.6814 41.8641L55.6751 42.1405H52.9795L52.835 41.6253H55.1159L55.0216 41.7321V41.5813C55.0091 41.4431 54.963 41.3195 54.8834 41.2106C54.8038 41.1017 54.7033 41.0158 54.5818 40.953C54.4603 40.8901 54.3284 40.8587 54.1859 40.8587C53.9597 40.8587 53.7691 40.9027 53.6141 40.9907C53.4591 41.0744 53.3419 41.2001 53.2623 41.3677C53.1827 41.531 53.1429 41.7342 53.1429 41.9772C53.1429 42.2075 53.1911 42.4086 53.2874 42.5804C53.3837 42.7479 53.5199 42.8778 53.6958 42.9699C53.8718 43.0621 54.0749 43.1082 54.3053 43.1082C54.4687 43.1082 54.6195 43.0809 54.7577 43.0265C54.9001 42.972 55.053 42.8736 55.2164 42.7312L55.5432 43.1899C55.4426 43.2904 55.319 43.3784 55.1724 43.4538C55.03 43.5292 54.8771 43.5899 54.7137 43.636C54.5546 43.6779 54.3975 43.6988 54.2425 43.6988ZM59.2454 43.6988C58.969 43.6988 58.7197 43.6506 58.4977 43.5543C58.2757 43.458 58.0914 43.3155 57.9448 43.127L58.3846 42.75C58.5103 42.8966 58.6464 43.0035 58.793 43.0705C58.9438 43.1333 59.1135 43.1647 59.302 43.1647C59.3774 43.1647 59.4465 43.1563 59.5093 43.1396C59.5764 43.1186 59.6329 43.0893 59.679 43.0516C59.7293 43.0139 59.767 42.9699 59.7921 42.9197C59.8172 42.8652 59.8298 42.8066 59.8298 42.7437C59.8298 42.6348 59.79 42.5469 59.7104 42.4798C59.6685 42.4505 59.6015 42.4191 59.5093 42.3856C59.4214 42.3479 59.3062 42.3102 59.1637 42.2725C58.9208 42.2096 58.7218 42.1384 58.5668 42.0588C58.4118 41.9793 58.2924 41.8892 58.2087 41.7887C58.1458 41.7091 58.0997 41.6232 58.0704 41.531C58.0411 41.4347 58.0264 41.33 58.0264 41.2169C58.0264 41.0786 58.0558 40.953 58.1144 40.8399C58.1772 40.7226 58.261 40.622 58.3657 40.5382C58.4747 40.4503 58.6003 40.3833 58.7428 40.3372C58.8894 40.2911 59.0444 40.2681 59.2077 40.2681C59.3627 40.2681 59.5156 40.289 59.6664 40.3309C59.8214 40.3728 59.9638 40.4335 60.0937 40.5131C60.2236 40.5927 60.3325 40.687 60.4204 40.7959L60.0497 41.2043C59.9701 41.1247 59.8822 41.0556 59.7858 40.9969C59.6937 40.9341 59.5994 40.8859 59.5031 40.8524C59.4067 40.8189 59.3187 40.8022 59.2391 40.8022C59.1512 40.8022 59.0716 40.8105 59.0004 40.8273C58.9292 40.844 58.8684 40.8692 58.8182 40.9027C58.7721 40.9362 58.7365 40.9781 58.7113 41.0284C58.6862 41.0786 58.6736 41.1352 58.6736 41.198C58.6778 41.2525 58.6904 41.3048 58.7113 41.3551C58.7365 41.4012 58.77 41.441 58.8119 41.4745C58.858 41.508 58.9271 41.5436 59.0192 41.5813C59.1114 41.619 59.2287 41.6546 59.3711 41.6881C59.5805 41.7426 59.7523 41.8033 59.8863 41.8703C60.0246 41.9332 60.1335 42.0065 60.2131 42.0903C60.2969 42.1698 60.3555 42.262 60.389 42.3667C60.4225 42.4715 60.4393 42.5887 60.4393 42.7186C60.4393 42.9071 60.3848 43.0768 60.2759 43.2276C60.1712 43.3742 60.0288 43.4894 59.8486 43.5732C59.6685 43.6569 59.4674 43.6988 59.2454 43.6988ZM61.1526 45.0183V40.3372H61.806V41.0912L61.7055 41.0346C61.7306 40.909 61.8018 40.7896 61.9191 40.6765C62.0364 40.5592 62.1789 40.4649 62.3464 40.3937C62.5182 40.3183 62.6941 40.2806 62.8742 40.2806C63.1716 40.2806 63.4355 40.3539 63.6659 40.5005C63.8963 40.6472 64.0785 40.8482 64.2126 41.1038C64.3466 41.3593 64.4137 41.6525 64.4137 41.9834C64.4137 42.3102 64.3466 42.6034 64.2126 42.8631C64.0827 43.1186 63.9026 43.3218 63.6722 43.4726C63.4418 43.6192 63.1821 43.6925 62.8931 43.6925C62.7004 43.6925 62.514 43.6548 62.3338 43.5794C62.1537 43.4998 62.0008 43.3993 61.8752 43.2778C61.7495 43.1563 61.672 43.0307 61.6427 42.9008L61.806 42.8129V45.0183H61.1526ZM62.7863 43.0956C62.9789 43.0956 63.1507 43.0474 63.3015 42.9511C63.4523 42.8547 63.5717 42.7228 63.6597 42.5552C63.7476 42.3877 63.7916 42.1971 63.7916 41.9834C63.7916 41.7698 63.7476 41.5813 63.6597 41.4179C63.5759 41.2504 63.4586 41.1184 63.3078 41.0221C63.157 40.9257 62.9831 40.8776 62.7863 40.8776C62.5894 40.8776 62.4155 40.9257 62.2647 41.0221C62.1139 41.1142 61.9945 41.2441 61.9066 41.4116C61.8186 41.5792 61.7746 41.7698 61.7746 41.9834C61.7746 42.1971 61.8186 42.3877 61.9066 42.5552C61.9945 42.7228 62.1139 42.8547 62.2647 42.9511C62.4155 43.0474 62.5894 43.0956 62.7863 43.0956ZM66.3858 43.6988C66.1135 43.6988 65.8643 43.6234 65.6381 43.4726C65.416 43.3218 65.238 43.1166 65.104 42.8568C64.9699 42.5971 64.9029 42.3039 64.9029 41.9772C64.9029 41.6462 64.9699 41.353 65.104 41.0975C65.2422 40.8378 65.4265 40.6346 65.6569 40.488C65.8915 40.3414 66.1533 40.2681 66.4423 40.2681C66.6141 40.2681 66.7712 40.2932 66.9136 40.3435C67.056 40.3937 67.1796 40.4649 67.2843 40.5571C67.3932 40.6451 67.4812 40.7477 67.5482 40.865C67.6194 40.9823 67.6634 41.1079 67.6802 41.242L67.5357 41.1917V40.3372H68.1891V43.636H67.5357V42.8506L67.6865 42.8066C67.6613 42.9197 67.609 43.0307 67.5294 43.1396C67.454 43.2443 67.3555 43.3386 67.234 43.4223C67.1168 43.5061 66.9848 43.5732 66.8382 43.6234C66.6958 43.6737 66.545 43.6988 66.3858 43.6988ZM66.5554 43.1019C66.7523 43.1019 66.9262 43.0537 67.077 42.9574C67.2278 42.861 67.3451 42.7291 67.4288 42.5615C67.5168 42.3898 67.5608 42.195 67.5608 41.9772C67.5608 41.7635 67.5168 41.5729 67.4288 41.4054C67.3451 41.2378 67.2278 41.1059 67.077 41.0095C66.9262 40.9132 66.7523 40.865 66.5554 40.865C66.3627 40.865 66.191 40.9132 66.0402 41.0095C65.8936 41.1059 65.7763 41.2378 65.6883 41.4054C65.6045 41.5729 65.5627 41.7635 65.5627 41.9772C65.5627 42.195 65.6045 42.3898 65.6883 42.5615C65.7763 42.7291 65.8936 42.861 66.0402 42.9574C66.191 43.0537 66.3627 43.1019 66.5554 43.1019ZM69.0928 43.636V40.3372H69.7462V41.3739L69.6834 41.1226C69.7295 40.9634 69.807 40.8189 69.9159 40.689C70.029 40.5592 70.1568 40.4566 70.2992 40.3812C70.4458 40.3058 70.5966 40.2681 70.7516 40.2681C70.8228 40.2681 70.8898 40.2743 70.9527 40.2869C71.0197 40.2995 71.0721 40.3141 71.1098 40.3309L70.9401 41.0346C70.8898 41.0137 70.8333 40.9969 70.7705 40.9844C70.7118 40.9676 70.6532 40.9592 70.5945 40.9592C70.4814 40.9592 70.3725 40.9823 70.2678 41.0284C70.1672 41.0702 70.0772 41.131 69.9976 41.2106C69.9222 41.286 69.8614 41.376 69.8154 41.4808C69.7693 41.5813 69.7462 41.6923 69.7462 41.8138V43.636H69.0928ZM72.2177 42.6055L72.1862 41.9018L73.7634 40.3372H74.6368L72.2177 42.6055ZM71.627 43.636V38.9862H72.2742V43.636H71.627ZM73.8514 43.636L72.6072 42.1845L73.0659 41.7635L74.6808 43.636H73.8514ZM77.3678 43.636V39.4952H78.015V43.636H77.3678ZM76.6829 40.9655V40.3372H78.7816V40.9655H76.6829ZM79.3709 43.636V38.9862H80.0181V41.0158L79.905 41.0912C79.9469 40.9446 80.0285 40.8105 80.15 40.689C80.2715 40.5634 80.416 40.4628 80.5836 40.3874C80.7511 40.3079 80.9229 40.2681 81.0988 40.2681C81.3502 40.2681 81.5596 40.3183 81.7272 40.4189C81.8947 40.5152 82.0204 40.6639 82.1042 40.865C82.1879 41.0661 82.2298 41.3195 82.2298 41.6253V43.636H81.5826V41.6693C81.5826 41.4808 81.5575 41.3258 81.5072 41.2043C81.457 41.0786 81.3795 40.9886 81.2748 40.9341C81.17 40.8755 81.0402 40.8503 80.8852 40.8587C80.7595 40.8587 80.6443 40.8796 80.5396 40.9215C80.4349 40.9592 80.3427 41.0137 80.2631 41.0849C80.1877 41.1561 80.127 41.2399 80.0809 41.3362C80.039 41.4284 80.0181 41.5289 80.0181 41.6378V43.636H79.6976C79.6432 43.636 79.5887 43.636 79.5342 43.636C79.4798 43.636 79.4253 43.636 79.3709 43.636ZM84.3771 43.6988C84.1048 43.6988 83.8555 43.6234 83.6293 43.4726C83.4073 43.3218 83.2293 43.1166 83.0952 42.8568C82.9612 42.5971 82.8942 42.3039 82.8942 41.9772C82.8942 41.6462 82.9612 41.353 83.0952 41.0975C83.2335 40.8378 83.4178 40.6346 83.6482 40.488C83.8828 40.3414 84.1446 40.2681 84.4336 40.2681C84.6054 40.2681 84.7624 40.2932 84.9049 40.3435C85.0473 40.3937 85.1709 40.4649 85.2756 40.5571C85.3845 40.6451 85.4725 40.7477 85.5395 40.865C85.6107 40.9823 85.6547 41.1079 85.6715 41.242L85.5269 41.1917V40.3372H86.1804V43.636H85.5269V42.8506L85.6777 42.8066C85.6526 42.9197 85.6002 43.0307 85.5206 43.1396C85.4452 43.2443 85.3468 43.3386 85.2253 43.4223C85.108 43.5061 84.9761 43.5732 84.8295 43.6234C84.687 43.6737 84.5362 43.6988 84.3771 43.6988ZM84.5467 43.1019C84.7436 43.1019 84.9174 43.0537 85.0682 42.9574C85.219 42.861 85.3363 42.7291 85.4201 42.5615C85.5081 42.3898 85.5521 42.195 85.5521 41.9772C85.5521 41.7635 85.5081 41.5729 85.4201 41.4054C85.3363 41.2378 85.219 41.1059 85.0682 41.0095C84.9174 40.9132 84.7436 40.865 84.5467 40.865C84.354 40.865 84.1823 40.9132 84.0315 41.0095C83.8849 41.1059 83.7676 41.2378 83.6796 41.4054C83.5958 41.5729 83.5539 41.7635 83.5539 41.9772C83.5539 42.195 83.5958 42.3898 83.6796 42.5615C83.7676 42.7291 83.8849 42.861 84.0315 42.9574C84.1823 43.0537 84.354 43.1019 84.5467 43.1019ZM87.4925 43.636V39.4952H88.1397V43.636H87.4925ZM86.8076 40.9655V40.3372H88.9062V40.9655H86.8076ZM91.2566 45.0183V40.3372H91.9101V41.0912L91.8096 41.0346C91.8347 40.909 91.9059 40.7896 92.0232 40.6765C92.1405 40.5592 92.2829 40.4649 92.4505 40.3937C92.6223 40.3183 92.7982 40.2806 92.9783 40.2806C93.2757 40.2806 93.5396 40.3539 93.77 40.5005C94.0004 40.6472 94.1826 40.8482 94.3167 41.1038C94.4507 41.3593 94.5178 41.6525 94.5178 41.9834C94.5178 42.3102 94.4507 42.6034 94.3167 42.8631C94.1868 43.1186 94.0067 43.3218 93.7763 43.4726C93.5459 43.6192 93.2862 43.6925 92.9972 43.6925C92.8045 43.6925 92.6181 43.6548 92.4379 43.5794C92.2578 43.4998 92.1049 43.3993 91.9792 43.2778C91.8536 43.1563 91.7761 43.0307 91.7468 42.9008L91.9101 42.8129V45.0183H91.2566ZM92.8903 43.0956C93.083 43.0956 93.2548 43.0474 93.4056 42.9511C93.5564 42.8547 93.6758 42.7228 93.7637 42.5552C93.8517 42.3877 93.8957 42.1971 93.8957 41.9834C93.8957 41.7698 93.8517 41.5813 93.7637 41.4179C93.68 41.2504 93.5627 41.1184 93.4119 41.0221C93.2611 40.9257 93.0872 40.8776 92.8903 40.8776C92.6935 40.8776 92.5196 40.9257 92.3688 41.0221C92.218 41.1142 92.0986 41.2441 92.0107 41.4116C91.9227 41.5792 91.8787 41.7698 91.8787 41.9834C91.8787 42.1971 91.9227 42.3877 92.0107 42.5552C92.0986 42.7228 92.218 42.8547 92.3688 42.9511C92.5196 43.0474 92.6935 43.0956 92.8903 43.0956ZM96.7035 43.6988C96.381 43.6988 96.0919 43.6255 95.8364 43.4789C95.5851 43.3281 95.3861 43.1249 95.2395 42.8694C95.0929 42.6097 95.0195 42.3144 95.0195 41.9834C95.0195 41.6525 95.0929 41.3593 95.2395 41.1038C95.3861 40.844 95.5851 40.6409 95.8364 40.4943C96.0919 40.3435 96.381 40.2681 96.7035 40.2681C97.0219 40.2681 97.3067 40.3435 97.5581 40.4943C97.8136 40.6409 98.0147 40.844 98.1613 41.1038C98.3079 41.3593 98.3812 41.6525 98.3812 41.9834C98.3812 42.3144 98.3079 42.6097 98.1613 42.8694C98.0147 43.1249 97.8136 43.3281 97.5581 43.4789C97.3067 43.6255 97.0219 43.6988 96.7035 43.6988ZM96.7035 43.1082C96.9004 43.1082 97.0763 43.06 97.2313 42.9637C97.3863 42.8631 97.5078 42.7291 97.5958 42.5615C97.6837 42.3898 97.7256 42.1971 97.7214 41.9834C97.7256 41.7656 97.6837 41.5729 97.5958 41.4054C97.5078 41.2336 97.3863 41.0996 97.2313 41.0032C97.0763 40.9069 96.9004 40.8587 96.7035 40.8587C96.5066 40.8587 96.3286 40.909 96.1694 41.0095C96.0144 41.1059 95.8929 41.2399 95.805 41.4116C95.717 41.5792 95.6751 41.7698 95.6793 41.9834C95.6751 42.1971 95.717 42.3898 95.805 42.5615C95.8929 42.7291 96.0144 42.8631 96.1694 42.9637C96.3286 43.06 96.5066 43.1082 96.7035 43.1082ZM99.7743 43.636L98.6495 40.3372L99.303 40.3309L100.107 42.8003L99.9628 42.7877L100.836 40.8587H101.226L102.105 42.794L101.936 42.8066L102.746 40.3372H103.4L102.288 43.636H101.842L100.924 41.5373L101.069 41.5562L100.214 43.636H99.7743ZM105.437 43.6988C105.097 43.6988 104.796 43.6276 104.532 43.4852C104.272 43.3386 104.067 43.1396 103.916 42.8883C103.769 42.6369 103.696 42.3479 103.696 42.0211C103.696 41.7614 103.738 41.5247 103.822 41.3111C103.906 41.0975 104.021 40.9132 104.167 40.7582C104.318 40.599 104.496 40.4775 104.701 40.3937C104.911 40.3058 105.137 40.2618 105.38 40.2618C105.594 40.2618 105.793 40.3037 105.977 40.3874C106.161 40.467 106.32 40.578 106.455 40.7205C106.593 40.8629 106.698 41.0325 106.769 41.2294C106.844 41.4221 106.88 41.6337 106.876 41.8641L106.869 42.1405H104.174L104.029 41.6253H106.31L106.216 41.7321V41.5813C106.203 41.4431 106.157 41.3195 106.078 41.2106C105.998 41.1017 105.897 41.0158 105.776 40.953C105.654 40.8901 105.522 40.8587 105.38 40.8587C105.154 40.8587 104.963 40.9027 104.808 40.9907C104.653 41.0744 104.536 41.2001 104.456 41.3677C104.377 41.531 104.337 41.7342 104.337 41.9772C104.337 42.2075 104.385 42.4086 104.482 42.5804C104.578 42.7479 104.714 42.8778 104.89 42.9699C105.066 43.0621 105.269 43.1082 105.499 43.1082C105.663 43.1082 105.814 43.0809 105.952 43.0265C106.094 42.972 106.247 42.8736 106.411 42.7312L106.737 43.1899C106.637 43.2904 106.513 43.3784 106.367 43.4538C106.224 43.5292 106.071 43.5899 105.908 43.636C105.749 43.6779 105.592 43.6988 105.437 43.6988ZM107.579 43.636V40.3372H108.232V41.3739L108.17 41.1226C108.216 40.9634 108.293 40.8189 108.402 40.689C108.515 40.5592 108.643 40.4566 108.785 40.3812C108.932 40.3058 109.083 40.2681 109.238 40.2681C109.309 40.2681 109.376 40.2743 109.439 40.2869C109.506 40.2995 109.558 40.3141 109.596 40.3309L109.426 41.0346C109.376 41.0137 109.319 40.9969 109.257 40.9844C109.198 40.9676 109.139 40.9592 109.081 40.9592C108.968 40.9592 108.859 40.9823 108.754 41.0284C108.653 41.0702 108.563 41.131 108.484 41.2106C108.408 41.286 108.348 41.376 108.301 41.4808C108.255 41.5813 108.232 41.6923 108.232 41.8138V43.636H107.579ZM111.213 43.6988C110.936 43.6988 110.687 43.6506 110.465 43.5543C110.243 43.458 110.059 43.3155 109.912 43.127L110.352 42.75C110.478 42.8966 110.614 43.0035 110.76 43.0705C110.911 43.1333 111.081 43.1647 111.269 43.1647C111.345 43.1647 111.414 43.1563 111.477 43.1396C111.544 43.1186 111.6 43.0893 111.646 43.0516C111.697 43.0139 111.734 42.9699 111.759 42.9197C111.785 42.8652 111.797 42.8066 111.797 42.7437C111.797 42.6348 111.757 42.5469 111.678 42.4798C111.636 42.4505 111.569 42.4191 111.477 42.3856C111.389 42.3479 111.273 42.3102 111.131 42.2725C110.888 42.2096 110.689 42.1384 110.534 42.0588C110.379 41.9793 110.26 41.8892 110.176 41.7887C110.113 41.7091 110.067 41.6232 110.038 41.531C110.008 41.4347 109.994 41.33 109.994 41.2169C109.994 41.0786 110.023 40.953 110.082 40.8399C110.145 40.7226 110.228 40.622 110.333 40.5382C110.442 40.4503 110.568 40.3833 110.71 40.3372C110.857 40.2911 111.012 40.2681 111.175 40.2681C111.33 40.2681 111.483 40.289 111.634 40.3309C111.789 40.3728 111.931 40.4335 112.061 40.5131C112.191 40.5927 112.3 40.687 112.388 40.7959L112.017 41.2043C111.937 41.1247 111.849 41.0556 111.753 40.9969C111.661 40.9341 111.567 40.8859 111.47 40.8524C111.374 40.8189 111.286 40.8022 111.206 40.8022C111.118 40.8022 111.039 40.8105 110.968 40.8273C110.896 40.844 110.836 40.8692 110.785 40.9027C110.739 40.9362 110.704 40.9781 110.679 41.0284C110.654 41.0786 110.641 41.1352 110.641 41.198C110.645 41.2525 110.658 41.3048 110.679 41.3551C110.704 41.4012 110.737 41.441 110.779 41.4745C110.825 41.508 110.894 41.5436 110.987 41.5813C111.079 41.619 111.196 41.6546 111.338 41.6881C111.548 41.7426 111.72 41.8033 111.854 41.8703C111.992 41.9332 112.101 42.0065 112.18 42.0903C112.264 42.1698 112.323 42.262 112.356 42.3667C112.39 42.4715 112.407 42.5887 112.407 42.7186C112.407 42.9071 112.352 43.0768 112.243 43.2276C112.138 43.3742 111.996 43.4894 111.816 43.5732C111.636 43.6569 111.435 43.6988 111.213 43.6988Z" fill="white"/>
<path d="M116.516 43.636V38.9862H117.163V43.636H116.516ZM119.289 43.6988C119.016 43.6988 118.767 43.6234 118.541 43.4726C118.319 43.3218 118.141 43.1166 118.007 42.8568C117.873 42.5971 117.806 42.3039 117.806 41.9772C117.806 41.6462 117.873 41.353 118.007 41.0975C118.145 40.8378 118.329 40.6346 118.56 40.488C118.794 40.3414 119.056 40.2681 119.345 40.2681C119.517 40.2681 119.674 40.2932 119.816 40.3435C119.959 40.3937 120.082 40.4649 120.187 40.5571C120.296 40.6451 120.384 40.7477 120.451 40.865C120.522 40.9823 120.566 41.1079 120.583 41.242L120.438 41.1917V40.3372H121.092V43.636H120.438V42.8506L120.589 42.8066C120.564 42.9197 120.512 43.0307 120.432 43.1396C120.357 43.2443 120.258 43.3386 120.137 43.4223C120.02 43.5061 119.888 43.5732 119.741 43.6234C119.599 43.6737 119.448 43.6988 119.289 43.6988ZM119.458 43.1019C119.655 43.1019 119.829 43.0537 119.98 42.9574C120.131 42.861 120.248 42.7291 120.332 42.5615C120.42 42.3898 120.464 42.195 120.464 41.9772C120.464 41.7635 120.42 41.5729 120.332 41.4054C120.248 41.2378 120.131 41.1059 119.98 41.0095C119.829 40.9132 119.655 40.865 119.458 40.865C119.266 40.865 119.094 40.9132 118.943 41.0095C118.796 41.1059 118.679 41.2378 118.591 41.4054C118.507 41.5729 118.465 41.7635 118.465 41.9772C118.465 42.195 118.507 42.3898 118.591 42.5615C118.679 42.7291 118.796 42.861 118.943 42.9574C119.094 43.0537 119.266 43.1019 119.458 43.1019ZM121.996 43.636V40.3372H122.643V41.0158L122.53 41.0912C122.572 40.9446 122.653 40.8105 122.775 40.689C122.896 40.5634 123.041 40.4628 123.208 40.3874C123.376 40.3079 123.548 40.2681 123.724 40.2681C123.975 40.2681 124.184 40.3183 124.352 40.4189C124.519 40.5152 124.645 40.6639 124.729 40.865C124.813 41.0661 124.855 41.3195 124.855 41.6253V43.636H124.207V41.6693C124.207 41.4808 124.182 41.3258 124.132 41.2043C124.082 41.0786 124.004 40.9886 123.899 40.9341C123.795 40.8755 123.665 40.8503 123.51 40.8587C123.384 40.8587 123.269 40.8796 123.164 40.9215C123.06 40.9592 122.967 41.0137 122.888 41.0849C122.812 41.1561 122.752 41.2399 122.706 41.3362C122.664 41.4284 122.643 41.5289 122.643 41.6378V43.636H122.322C122.268 43.636 122.213 43.636 122.159 43.636C122.104 43.636 122.05 43.636 121.996 43.636ZM127.209 45.0812C126.975 45.0812 126.74 45.0435 126.505 44.9681C126.275 44.8969 126.089 44.8026 125.946 44.6853L126.185 44.1826C126.269 44.2455 126.367 44.2999 126.48 44.346C126.593 44.3963 126.713 44.434 126.838 44.4591C126.964 44.4884 127.088 44.5031 127.209 44.5031C127.439 44.5031 127.632 44.4654 127.787 44.39C127.942 44.3146 128.059 44.2036 128.139 44.057C128.219 43.9104 128.258 43.7281 128.258 43.5103V42.8757L128.328 42.9197C128.307 43.0495 128.237 43.1752 128.12 43.2967C128.007 43.414 127.865 43.5103 127.693 43.5857C127.521 43.6611 127.345 43.6988 127.165 43.6988C126.851 43.6988 126.57 43.6255 126.323 43.4789C126.08 43.3281 125.887 43.1249 125.745 42.8694C125.603 42.6097 125.531 42.3144 125.531 41.9834C125.531 41.6525 125.601 41.3593 125.739 41.1038C125.881 40.844 126.074 40.6409 126.317 40.4943C126.564 40.3435 126.84 40.2681 127.146 40.2681C127.272 40.2681 127.393 40.2848 127.511 40.3183C127.628 40.3476 127.737 40.3916 127.837 40.4503C127.938 40.5047 128.028 40.5655 128.108 40.6325C128.187 40.6995 128.252 40.7707 128.302 40.8461C128.353 40.9215 128.384 40.9927 128.397 41.0598L128.258 41.11V40.3372H128.906V43.4349C128.906 43.6988 128.866 43.9313 128.786 44.1324C128.711 44.3376 128.6 44.5094 128.453 44.6476C128.307 44.79 128.129 44.8969 127.919 44.9681C127.71 45.0435 127.473 45.0812 127.209 45.0812ZM127.234 43.1019C127.439 43.1019 127.622 43.0537 127.781 42.9574C127.94 42.861 128.064 42.7291 128.152 42.5615C128.24 42.394 128.284 42.2013 128.284 41.9834C128.284 41.7656 128.237 41.5729 128.145 41.4054C128.057 41.2336 127.934 41.0996 127.775 41.0032C127.62 40.9069 127.439 40.8587 127.234 40.8587C127.033 40.8587 126.853 40.909 126.694 41.0095C126.539 41.1059 126.415 41.2399 126.323 41.4116C126.235 41.5792 126.191 41.7698 126.191 41.9834C126.191 42.1971 126.235 42.3898 126.323 42.5615C126.415 42.7291 126.539 42.861 126.694 42.9574C126.853 43.0537 127.033 43.1019 127.234 43.1019ZM130.92 43.6988C130.686 43.6988 130.48 43.6444 130.304 43.5355C130.133 43.4265 129.999 43.2736 129.902 43.0768C129.81 42.8799 129.764 42.6453 129.764 42.373V40.3372H130.411V42.1971C130.411 42.3898 130.44 42.5573 130.499 42.6998C130.562 42.838 130.65 42.9448 130.763 43.0202C130.88 43.0956 131.021 43.1333 131.184 43.1333C131.305 43.1333 131.417 43.1145 131.517 43.0768C131.618 43.0349 131.703 42.9783 131.775 42.9071C131.85 42.8359 131.909 42.75 131.951 42.6495C131.992 42.5489 132.013 42.44 132.013 42.3227V40.3372H132.661V43.636H132.013V42.9448L132.127 42.8694C132.076 43.0244 131.99 43.1647 131.869 43.2904C131.752 43.4161 131.611 43.5166 131.448 43.592C131.285 43.6632 131.109 43.6988 130.92 43.6988ZM134.838 43.6988C134.565 43.6988 134.316 43.6234 134.09 43.4726C133.868 43.3218 133.69 43.1166 133.556 42.8568C133.422 42.5971 133.355 42.3039 133.355 41.9772C133.355 41.6462 133.422 41.353 133.556 41.0975C133.694 40.8378 133.878 40.6346 134.109 40.488C134.343 40.3414 134.605 40.2681 134.894 40.2681C135.066 40.2681 135.223 40.2932 135.365 40.3435C135.508 40.3937 135.631 40.4649 135.736 40.5571C135.845 40.6451 135.933 40.7477 136 40.865C136.071 40.9823 136.115 41.1079 136.132 41.242L135.988 41.1917V40.3372H136.641V43.636H135.988V42.8506L136.138 42.8066C136.113 42.9197 136.061 43.0307 135.981 43.1396C135.906 43.2443 135.807 43.3386 135.686 43.4223C135.569 43.5061 135.437 43.5732 135.29 43.6234C135.148 43.6737 134.997 43.6988 134.838 43.6988ZM135.007 43.1019C135.204 43.1019 135.378 43.0537 135.529 42.9574C135.68 42.861 135.797 42.7291 135.881 42.5615C135.969 42.3898 136.013 42.195 136.013 41.9772C136.013 41.7635 135.969 41.5729 135.881 41.4054C135.797 41.2378 135.68 41.1059 135.529 41.0095C135.378 40.9132 135.204 40.865 135.007 40.865C134.815 40.865 134.643 40.9132 134.492 41.0095C134.345 41.1059 134.228 41.2378 134.14 41.4054C134.056 41.5729 134.015 41.7635 134.015 41.9772C134.015 42.195 134.056 42.3898 134.14 42.5615C134.228 42.7291 134.345 42.861 134.492 42.9574C134.643 43.0537 134.815 43.1019 135.007 43.1019ZM139.021 45.0812C138.787 45.0812 138.552 45.0435 138.318 44.9681C138.087 44.8969 137.901 44.8026 137.758 44.6853L137.997 44.1826C138.081 44.2455 138.179 44.2999 138.292 44.346C138.405 44.3963 138.525 44.434 138.651 44.4591C138.776 44.4884 138.9 44.5031 139.021 44.5031C139.252 44.5031 139.444 44.4654 139.599 44.39C139.754 44.3146 139.872 44.2036 139.951 44.057C140.031 43.9104 140.071 43.7281 140.071 43.5103V42.8757L140.14 42.9197C140.119 43.0495 140.05 43.1752 139.932 43.2967C139.819 43.414 139.677 43.5103 139.505 43.5857C139.333 43.6611 139.157 43.6988 138.977 43.6988C138.663 43.6988 138.382 43.6255 138.135 43.4789C137.892 43.3281 137.7 43.1249 137.557 42.8694C137.415 42.6097 137.344 42.3144 137.344 41.9834C137.344 41.6525 137.413 41.3593 137.551 41.1038C137.693 40.844 137.886 40.6409 138.129 40.4943C138.376 40.3435 138.653 40.2681 138.958 40.2681C139.084 40.2681 139.206 40.2848 139.323 40.3183C139.44 40.3476 139.549 40.3916 139.65 40.4503C139.75 40.5047 139.84 40.5655 139.92 40.6325C139.999 40.6995 140.064 40.7707 140.115 40.8461C140.165 40.9215 140.196 40.9927 140.209 41.0598L140.071 41.11V40.3372H140.718V43.4349C140.718 43.6988 140.678 43.9313 140.598 44.1324C140.523 44.3376 140.412 44.5094 140.265 44.6476C140.119 44.79 139.941 44.8969 139.731 44.9681C139.522 45.0435 139.285 45.0812 139.021 45.0812ZM139.046 43.1019C139.252 43.1019 139.434 43.0537 139.593 42.9574C139.752 42.861 139.876 42.7291 139.964 42.5615C140.052 42.394 140.096 42.2013 140.096 41.9834C140.096 41.7656 140.05 41.5729 139.957 41.4054C139.87 41.2336 139.746 41.0996 139.587 41.0032C139.432 40.9069 139.252 40.8587 139.046 40.8587C138.845 40.8587 138.665 40.909 138.506 41.0095C138.351 41.1059 138.227 41.2399 138.135 41.4116C138.047 41.5792 138.003 41.7698 138.003 41.9834C138.003 42.1971 138.047 42.3898 138.135 42.5615C138.227 42.7291 138.351 42.861 138.506 42.9574C138.665 43.0537 138.845 43.1019 139.046 43.1019ZM143.165 43.6988C142.825 43.6988 142.524 43.6276 142.26 43.4852C142 43.3386 141.795 43.1396 141.644 42.8883C141.497 42.6369 141.424 42.3479 141.424 42.0211C141.424 41.7614 141.466 41.5247 141.55 41.3111C141.634 41.0975 141.749 40.9132 141.895 40.7582C142.046 40.599 142.224 40.4775 142.429 40.3937C142.639 40.3058 142.865 40.2618 143.108 40.2618C143.322 40.2618 143.521 40.3037 143.705 40.3874C143.889 40.467 144.049 40.578 144.183 40.7205C144.321 40.8629 144.426 41.0325 144.497 41.2294C144.572 41.4221 144.608 41.6337 144.604 41.8641L144.597 42.1405H141.902L141.757 41.6253H144.038L143.944 41.7321V41.5813C143.931 41.4431 143.885 41.3195 143.806 41.2106C143.726 41.1017 143.625 41.0158 143.504 40.953C143.382 40.8901 143.251 40.8587 143.108 40.8587C142.882 40.8587 142.691 40.9027 142.536 40.9907C142.381 41.0744 142.264 41.2001 142.184 41.3677C142.105 41.531 142.065 41.7342 142.065 41.9772C142.065 42.2075 142.113 42.4086 142.21 42.5804C142.306 42.7479 142.442 42.8778 142.618 42.9699C142.794 43.0621 142.997 43.1082 143.227 43.1082C143.391 43.1082 143.542 43.0809 143.68 43.0265C143.822 42.972 143.975 42.8736 144.139 42.7312L144.465 43.1899C144.365 43.2904 144.241 43.3784 144.095 43.4538C143.952 43.5292 143.799 43.5899 143.636 43.636C143.477 43.6779 143.32 43.6988 143.165 43.6988ZM148.337 43.6988C148.065 43.6988 147.816 43.6234 147.59 43.4726C147.367 43.3218 147.189 43.1166 147.055 42.8568C146.921 42.5971 146.854 42.3039 146.854 41.9772C146.854 41.6462 146.921 41.353 147.055 41.0975C147.194 40.8378 147.378 40.6346 147.608 40.488C147.843 40.3414 148.105 40.2681 148.394 40.2681C148.566 40.2681 148.723 40.2932 148.865 40.3435C149.007 40.3937 149.131 40.4649 149.236 40.5571C149.345 40.6451 149.433 40.7477 149.5 40.865C149.571 40.9823 149.615 41.1079 149.632 41.242L149.487 41.1917V40.3372H150.141V43.636H149.487V42.8506L149.638 42.8066C149.613 42.9197 149.56 43.0307 149.481 43.1396C149.405 43.2443 149.307 43.3386 149.186 43.4223C149.068 43.5061 148.936 43.5732 148.79 43.6234C148.647 43.6737 148.496 43.6988 148.337 43.6988ZM148.507 43.1019C148.704 43.1019 148.878 43.0537 149.028 42.9574C149.179 42.861 149.297 42.7291 149.38 42.5615C149.468 42.3898 149.512 42.195 149.512 41.9772C149.512 41.7635 149.468 41.5729 149.38 41.4054C149.297 41.2378 149.179 41.1059 149.028 41.0095C148.878 40.9132 148.704 40.865 148.507 40.865C148.314 40.865 148.142 40.9132 147.992 41.0095C147.845 41.1059 147.728 41.2378 147.64 41.4054C147.556 41.5729 147.514 41.7635 147.514 41.9772C147.514 42.195 147.556 42.3898 147.64 42.5615C147.728 42.7291 147.845 42.861 147.992 42.9574C148.142 43.0537 148.314 43.1019 148.507 43.1019ZM151.044 43.636V40.3372H151.691V41.0158L151.578 41.0912C151.62 40.9446 151.702 40.8105 151.823 40.689C151.945 40.5634 152.089 40.4628 152.257 40.3874C152.424 40.3079 152.596 40.2681 152.772 40.2681C153.024 40.2681 153.233 40.3183 153.401 40.4189C153.568 40.5152 153.694 40.6639 153.778 40.865C153.861 41.0661 153.903 41.3195 153.903 41.6253V43.636H153.256V41.6693C153.256 41.4808 153.231 41.3258 153.181 41.2043C153.13 41.0786 153.053 40.9886 152.948 40.9341C152.843 40.8755 152.714 40.8503 152.559 40.8587C152.433 40.8587 152.318 40.8796 152.213 40.9215C152.108 40.9592 152.016 41.0137 151.936 41.0849C151.861 41.1561 151.8 41.2399 151.754 41.3362C151.712 41.4284 151.691 41.5289 151.691 41.6378V43.636H151.371C151.317 43.636 151.262 43.636 151.208 43.636C151.153 43.636 151.099 43.636 151.044 43.636ZM156.157 43.6988C155.856 43.6988 155.585 43.6255 155.347 43.4789C155.112 43.3281 154.926 43.1249 154.787 42.8694C154.649 42.6097 154.58 42.3144 154.58 41.9834C154.58 41.6525 154.647 41.3593 154.781 41.1038C154.919 40.844 155.106 40.6409 155.34 40.4943C155.575 40.3435 155.841 40.2681 156.138 40.2681C156.302 40.2681 156.459 40.2953 156.61 40.3497C156.765 40.4 156.903 40.4712 157.024 40.5634C157.146 40.6513 157.24 40.7498 157.307 40.8587C157.378 40.9634 157.414 41.0702 157.414 41.1792L157.225 41.1917V38.9862H157.873V43.636H157.225V42.8506H157.351C157.351 42.9511 157.318 43.0516 157.251 43.1522C157.184 43.2485 157.093 43.3386 156.98 43.4223C156.871 43.5061 156.744 43.5732 156.597 43.6234C156.455 43.6737 156.308 43.6988 156.157 43.6988ZM156.245 43.1396C156.442 43.1396 156.616 43.0893 156.767 42.9888C156.918 42.8883 157.035 42.7521 157.119 42.5804C157.207 42.4044 157.251 42.2055 157.251 41.9834C157.251 41.7614 157.207 41.5645 157.119 41.3928C157.035 41.2169 156.918 41.0786 156.767 40.9781C156.616 40.8776 156.442 40.8273 156.245 40.8273C156.048 40.8273 155.874 40.8776 155.724 40.9781C155.573 41.0786 155.453 41.2169 155.366 41.3928C155.282 41.5645 155.24 41.7614 155.24 41.9834C155.24 42.2055 155.282 42.4044 155.366 42.5804C155.453 42.7521 155.573 42.8883 155.724 42.9888C155.874 43.0893 156.048 43.1396 156.245 43.1396ZM161.926 43.6988C161.62 43.6988 161.346 43.6234 161.103 43.4726C160.864 43.3218 160.673 43.1166 160.531 42.8568C160.393 42.5971 160.324 42.306 160.324 41.9834C160.324 41.6609 160.393 41.3698 160.531 41.11C160.673 40.8503 160.864 40.6451 161.103 40.4943C161.346 40.3435 161.62 40.2681 161.926 40.2681C162.219 40.2681 162.485 40.3288 162.724 40.4503C162.967 40.5676 163.151 40.7288 163.277 40.9341L162.919 41.3739C162.852 41.2776 162.766 41.1896 162.661 41.11C162.556 41.0305 162.445 40.9676 162.328 40.9215C162.211 40.8755 162.098 40.8524 161.989 40.8524C161.788 40.8524 161.607 40.9027 161.448 41.0032C161.293 41.0996 161.17 41.2336 161.078 41.4054C160.985 41.5771 160.939 41.7698 160.939 41.9834C160.939 42.1971 160.988 42.3898 161.084 42.5615C161.18 42.7291 161.308 42.8631 161.467 42.9637C161.626 43.0642 161.802 43.1145 161.995 43.1145C162.108 43.1145 162.217 43.0956 162.322 43.0579C162.431 43.0202 162.535 42.9637 162.636 42.8883C162.736 42.8129 162.831 42.7207 162.919 42.6118L163.277 43.0516C163.143 43.2401 162.95 43.3951 162.699 43.5166C162.452 43.6381 162.194 43.6988 161.926 43.6988ZM165.043 43.6988C164.809 43.6988 164.604 43.6444 164.428 43.5355C164.256 43.4265 164.122 43.2736 164.025 43.0768C163.933 42.8799 163.887 42.6453 163.887 42.373V40.3372H164.534V42.1971C164.534 42.3898 164.564 42.5573 164.622 42.6998C164.685 42.838 164.773 42.9448 164.886 43.0202C165.004 43.0956 165.144 43.1333 165.307 43.1333C165.429 43.1333 165.54 43.1145 165.64 43.0768C165.741 43.0349 165.827 42.9783 165.898 42.9071C165.973 42.8359 166.032 42.75 166.074 42.6495C166.116 42.5489 166.137 42.44 166.137 42.3227V40.3372H166.784V43.636H166.137V42.9448L166.25 42.8694C166.2 43.0244 166.114 43.1647 165.992 43.2904C165.875 43.4161 165.735 43.5166 165.571 43.592C165.408 43.6632 165.232 43.6988 165.043 43.6988ZM167.704 43.636V38.9862H168.351V43.636H167.704ZM169.659 43.636V39.4952H170.306V43.636H169.659ZM168.974 40.9655V40.3372H171.072V40.9655H168.974ZM172.818 43.6988C172.583 43.6988 172.378 43.6444 172.202 43.5355C172.03 43.4265 171.896 43.2736 171.8 43.0768C171.708 42.8799 171.662 42.6453 171.662 42.373V40.3372H172.309V42.1971C172.309 42.3898 172.338 42.5573 172.397 42.6998C172.46 42.838 172.548 42.9448 172.661 43.0202C172.778 43.0956 172.918 43.1333 173.082 43.1333C173.203 43.1333 173.314 43.1145 173.415 43.0768C173.515 43.0349 173.601 42.9783 173.672 42.9071C173.748 42.8359 173.807 42.75 173.848 42.6495C173.89 42.5489 173.911 42.44 173.911 42.3227V40.3372H174.558V43.636H173.911V42.9448L174.024 42.8694C173.974 43.0244 173.888 43.1647 173.767 43.2904C173.649 43.4161 173.509 43.5166 173.346 43.592C173.182 43.6632 173.006 43.6988 172.818 43.6988ZM175.466 43.636V40.3372H176.12V41.3739L176.057 41.1226C176.103 40.9634 176.18 40.8189 176.289 40.689C176.402 40.5592 176.53 40.4566 176.673 40.3812C176.819 40.3058 176.97 40.2681 177.125 40.2681C177.196 40.2681 177.263 40.2743 177.326 40.2869C177.393 40.2995 177.446 40.3141 177.483 40.3309L177.314 41.0346C177.263 41.0137 177.207 40.9969 177.144 40.9844C177.085 40.9676 177.027 40.9592 176.968 40.9592C176.855 40.9592 176.746 40.9823 176.641 41.0284C176.541 41.0702 176.451 41.131 176.371 41.2106C176.296 41.286 176.235 41.376 176.189 41.4808C176.143 41.5813 176.12 41.6923 176.12 41.8138V43.636H175.466ZM179.399 43.6988C179.059 43.6988 178.758 43.6276 178.494 43.4852C178.234 43.3386 178.029 43.1396 177.878 42.8883C177.732 42.6369 177.658 42.3479 177.658 42.0211C177.658 41.7614 177.7 41.5247 177.784 41.3111C177.868 41.0975 177.983 40.9132 178.13 40.7582C178.28 40.599 178.458 40.4775 178.664 40.3937C178.873 40.3058 179.099 40.2618 179.342 40.2618C179.556 40.2618 179.755 40.3037 179.939 40.3874C180.123 40.467 180.283 40.578 180.417 40.7205C180.555 40.8629 180.66 41.0325 180.731 41.2294C180.806 41.4221 180.842 41.6337 180.838 41.8641L180.831 42.1405H178.136L177.991 41.6253H180.272L180.178 41.7321V41.5813C180.165 41.4431 180.119 41.3195 180.04 41.2106C179.96 41.1017 179.86 41.0158 179.738 40.953C179.617 40.8901 179.485 40.8587 179.342 40.8587C179.116 40.8587 178.925 40.9027 178.77 40.9907C178.615 41.0744 178.498 41.2001 178.419 41.3677C178.339 41.531 178.299 41.7342 178.299 41.9772C178.299 42.2075 178.347 42.4086 178.444 42.5804C178.54 42.7479 178.676 42.8778 178.852 42.9699C179.028 43.0621 179.231 43.1082 179.462 43.1082C179.625 43.1082 179.776 43.0809 179.914 43.0265C180.056 42.972 180.209 42.8736 180.373 42.7312L180.699 43.1899C180.599 43.2904 180.475 43.3784 180.329 43.4538C180.186 43.5292 180.033 43.5899 179.87 43.636C179.711 43.6779 179.554 43.6988 179.399 43.6988ZM181.805 43.7051C181.667 43.7051 181.56 43.6653 181.484 43.5857C181.409 43.5019 181.371 43.3846 181.371 43.2338C181.371 43.0956 181.411 42.9825 181.491 42.8945C181.57 42.8066 181.675 42.7626 181.805 42.7626C181.943 42.7626 182.05 42.8045 182.125 42.8883C182.201 42.9678 182.239 43.083 182.239 43.2338C182.239 43.3721 182.199 43.4852 182.119 43.5732C182.04 43.6611 181.935 43.7051 181.805 43.7051Z" fill="white"/>
<path fill-rule="evenodd" clip-rule="evenodd" d="M0 10.9683H25.7899L19.22 17.0503H0V10.9683Z" fill="#24A5EE"/>
<mask id="mask0_2038_125346" style="mask-type:luminance" maskUnits="userSpaceOnUse" x="-1" y="10" width="27" height="8">
<path d="M-0.00205818 10.9683H25.7878L19.216 17.0503H-0.00390625V10.9683H-0.00205818Z" fill="white"/>
</mask>
<g mask="url(#mask0_2038_125346)">
<path fill-rule="evenodd" clip-rule="evenodd" d="M6.09521 10.9683H31.8869L25.3152 17.0503H6.09521V10.9683Z" fill="#24A5EE"/>
</g>
<path fill-rule="evenodd" clip-rule="evenodd" d="M2.12713 31.2417L28.5028 6.82493H0V0.74292H34.9618V0.846412V6.82308V8.95021L6.96908 34.5645L16.7509 45.2556L34.9618 28.5915V35.6456L20.1144 49.3805C17.6528 51.7627 16.117 52.3836 13.5778 49.6226C9.56747 45.2648 5.59596 41.0254 1.51172 36.6122C-0.395487 34.5516 0.120125 33.1008 2.12898 31.2417H2.12713Z" fill="white"/>
<mask id="mask1_2038_125346" style="mask-type:luminance" maskUnits="userSpaceOnUse" x="0" y="0" width="35" height="52">
<path d="M2.12908 31.2417L28.5048 6.82493H0.00195312V0.74292H34.9638V0.846412V6.82308V8.95021L6.97103 34.5645L16.7529 45.2556L34.9638 28.5915V35.6456L20.1164 49.3805C17.6547 51.7627 16.119 52.3836 13.5797 49.6226C9.56942 45.2648 5.59792 41.0254 1.51368 36.6122C-0.393534 34.5516 0.122078 33.1008 2.13093 31.2417H2.12908Z" fill="white"/>
</mask>
<g mask="url(#mask1_2038_125346)">
<path fill-rule="evenodd" clip-rule="evenodd" d="M-29.2915 81.062L-0.788681 54.6845H-29.2915V48.6025H5.67033V48.7078V54.6845V56.8098L-22.3224 82.4241L-12.5406 93.1152L5.67033 76.4511V83.5052L-12.8363 100.631L-29.2915 82.8528V81.062Z" fill="black"/>
</g>
<path fill-rule="evenodd" clip-rule="evenodd" d="M13.2671 34.535L34.9616 14.6848V22.9272L17.3717 39.0221L13.2671 34.535Z" fill="#E3A23A"/>
</svg>
