<svg width="134" height="36" viewBox="0 0 134 36" fill="none" xmlns="http://www.w3.org/2000/svg">
<path d="M31.7617 24.8726V21.8141L44.9035 4.27023L45.9458 5.44707H32.6359V1.34625H49.9458V4.37111L36.8713 21.9486L35.7953 20.8391H50.3143V24.8726H31.7617ZM58.2716 25.2089C56.8154 25.2089 55.4937 24.8054 54.3052 23.9984C53.1181 23.1914 52.165 22.0935 51.4485 20.7046C50.7321 19.3156 50.3725 17.7353 50.3725 15.9662C50.3725 14.1957 50.7308 12.6167 51.4485 11.2265C52.165 9.83757 53.14 8.74997 54.3725 7.96627C55.6049 7.18258 56.9939 6.78944 58.5406 6.78944C59.4368 6.78944 60.2541 6.91876 60.9938 7.17611C61.7335 7.43347 62.3827 7.79816 62.9427 8.26889C63.5027 8.73962 63.9682 9.27761 64.3381 9.88284C64.708 10.4881 64.9601 11.1373 65.0946 11.8317L64.1868 11.5964V7.1593H68.3549V24.8713H64.1532V20.636L65.1283 20.4679C64.9718 21.0731 64.686 21.6615 64.2708 22.2319C63.8557 22.8035 63.341 23.3078 62.7241 23.7436C62.1086 24.1807 61.4245 24.5338 60.6744 24.8028C59.9243 25.0718 59.1225 25.2063 58.2716 25.2063V25.2089ZM59.4148 21.5452C60.3782 21.5452 61.2292 21.3098 61.9689 20.8391C62.7086 20.3683 63.2854 19.7127 63.6992 18.8733C64.1144 18.0327 64.3213 17.0641 64.3213 15.9662C64.3213 14.8902 64.1144 13.9384 63.6992 13.1094C63.2841 12.2805 62.7073 11.6313 61.9689 11.1605C61.2292 10.6898 60.3782 10.4544 59.4148 10.4544C58.4513 10.4544 57.6056 10.6898 56.8775 11.1605C56.1494 11.6313 55.5829 12.2805 55.1808 13.1094C54.7773 13.9384 54.5755 14.8902 54.5755 15.9662C54.5755 17.0641 54.7773 18.0327 55.1808 18.8733C55.5842 19.7139 56.1494 20.3696 56.8775 20.8391C57.6056 21.3098 58.4513 21.5452 59.4148 21.5452ZM80.0767 25.2089C79.293 25.2089 78.5248 25.0912 77.7747 24.8558C77.0246 24.6204 76.3457 24.301 75.7418 23.8975C75.1365 23.494 74.6322 23.0401 74.23 22.5358C73.8265 22.0314 73.5575 21.5219 73.423 21.0059L74.3981 20.5688L74.2972 24.8041H70.2973V0H74.4317V11.2588L73.692 10.9226C73.8045 10.3846 74.0567 9.87508 74.4485 9.3927C74.8404 8.91033 75.3279 8.47451 75.9112 8.08137C76.4944 7.68952 77.132 7.37527 77.8264 7.1399C78.5209 6.90454 79.227 6.78685 79.9435 6.78685C81.5341 6.78685 82.9399 7.1787 84.162 7.96369C85.3828 8.74738 86.3462 9.83499 87.0523 11.2239C87.7584 12.6128 88.1115 14.1932 88.1115 15.9636C88.1115 17.756 87.7636 19.3467 87.0691 20.7356C86.3747 22.1245 85.4164 23.2173 84.1956 24.0126C82.9748 24.808 81.6014 25.2063 80.0779 25.2063L80.0767 25.2089ZM79.2024 21.5788C80.1439 21.5788 80.9845 21.3382 81.7229 20.8559C82.4627 20.3735 83.0446 19.7127 83.4701 18.8733C83.8955 18.0327 84.1089 17.0641 84.1089 15.9662C84.1089 14.8902 83.902 13.9384 83.4869 13.1094C83.0718 12.2805 82.495 11.6313 81.7566 11.1605C81.0168 10.6898 80.1659 10.4544 79.2024 10.4544C78.239 10.4544 77.388 10.6898 76.6483 11.1605C75.9086 11.6313 75.3266 12.2805 74.9012 13.1094C74.4757 13.9384 74.2623 14.8902 74.2623 15.9662C74.2623 17.0641 74.4757 18.0327 74.9012 18.8733C75.3266 19.7139 75.9099 20.3748 76.6483 20.8559C77.388 21.3382 78.239 21.5788 79.2024 21.5788ZM97.5456 25.2089C96.6494 25.2089 95.8036 25.0744 95.0083 24.8054C94.2129 24.5364 93.4848 24.1613 92.824 23.679C92.1632 23.1979 91.6032 22.6315 91.1441 21.9823C90.685 21.3331 90.3539 20.6373 90.1522 19.8989L90.7574 20.4369L90.5893 24.8739H88.9766V0.00258645H90.6565V11.7658L90.1522 12.3374C90.3539 11.5977 90.6837 10.9032 91.1441 10.254C91.6032 9.60479 92.1632 9.03836 92.824 8.55728C93.4848 8.07491 94.2129 7.69987 95.0083 7.43088C95.8036 7.16189 96.6494 7.02739 97.5456 7.02739C99.091 7.02739 100.492 7.41924 101.747 8.20423C103.002 8.98792 104.005 10.0639 104.755 11.4308C105.505 12.7978 105.882 14.3665 105.882 16.1356C105.882 17.8827 105.518 19.4411 104.789 20.808C104.061 22.175 103.069 23.2509 101.815 24.0346C100.56 24.8183 99.1375 25.2115 97.5456 25.2115V25.2089ZM97.3102 23.529C98.6551 23.529 99.8372 23.2044 100.856 22.5539C101.875 21.9047 102.671 21.0188 103.242 19.8989C103.814 18.7789 104.1 17.5129 104.1 16.1007C104.1 14.6665 103.809 13.3952 103.225 12.2857C102.642 11.1761 101.842 10.3031 100.823 9.66428C99.8035 9.02543 98.6319 8.706 97.3102 8.706C95.9885 8.706 94.8181 9.02543 93.7978 9.66428C92.7787 10.3031 91.9769 11.1774 91.395 12.2857C90.8117 13.3952 90.5208 14.6665 90.5208 16.1007C90.5208 17.5568 90.8182 18.8397 91.4118 19.9493C92.0054 21.0589 92.8123 21.9318 93.8314 22.5707C94.8505 23.2095 96.0105 23.529 97.3102 23.529ZM114.311 25.2089C112.564 25.2089 111.012 24.817 109.657 24.032C108.301 23.2483 107.237 22.1607 106.464 20.7718C105.69 19.3829 105.304 17.8026 105.304 16.0321C105.304 14.285 105.69 12.7331 106.464 11.3778C107.237 10.0225 108.301 8.95818 109.657 8.18483C111.012 7.41148 112.564 7.02481 114.311 7.02481C116.059 7.02481 117.61 7.41148 118.967 8.18483C120.322 8.95818 121.381 10.0225 122.143 11.3778C122.904 12.7331 123.286 14.285 123.286 16.0321C123.286 17.8026 122.904 19.3816 122.143 20.7718C121.381 22.1607 120.322 23.2483 118.967 24.032C117.611 24.8157 116.059 25.2089 114.311 25.2089ZM114.311 23.529C115.7 23.529 116.939 23.2044 118.025 22.5539C119.111 21.9047 119.964 21.0188 120.579 19.8989C121.195 18.7789 121.504 17.4896 121.504 16.0334C121.504 14.6225 121.196 13.3616 120.579 12.252C119.962 11.1424 119.111 10.2747 118.025 9.64747C116.939 9.02025 115.7 8.706 114.311 8.706C112.9 8.706 111.651 9.02025 110.563 9.64747C109.477 10.2747 108.625 11.1437 108.009 12.252C107.393 13.3616 107.084 14.6212 107.084 16.0334C107.084 17.4896 107.392 18.7776 108.009 19.8989C108.626 21.0188 109.477 21.9047 110.563 22.5539C111.649 23.2031 112.899 23.529 114.311 23.529ZM126.74 24.8739V2.72483H128.42V24.8739H126.74ZM122.538 8.94266V7.39725H133.126V8.94266H122.538Z" fill="white"/>
<path d="M30.635 30.3863C30.5383 30.3863 30.4636 30.3584 30.4108 30.3027C30.358 30.2441 30.3317 30.162 30.3317 30.0565C30.3317 29.9598 30.3595 29.8806 30.4152 29.819C30.4709 29.7575 30.5442 29.7267 30.635 29.7267C30.7318 29.7267 30.8065 29.756 30.8593 29.8147C30.9121 29.8703 30.9384 29.951 30.9384 30.0565C30.9384 30.1532 30.9106 30.2324 30.8549 30.2939C30.7992 30.3555 30.7259 30.3863 30.635 30.3863ZM31.6355 30.3863C31.5388 30.3863 31.464 30.3584 31.4113 30.3027C31.3585 30.2441 31.3321 30.162 31.3321 30.0565C31.3321 29.9598 31.36 29.8806 31.4157 29.819C31.4714 29.7575 31.5447 29.7267 31.6355 29.7267C31.7323 29.7267 31.807 29.756 31.8598 29.8147C31.9125 29.8703 31.9389 29.951 31.9389 30.0565C31.9389 30.1532 31.9111 30.2324 31.8554 30.2939C31.7997 30.3555 31.7264 30.3863 31.6355 30.3863ZM32.636 30.3863C32.5393 30.3863 32.4645 30.3584 32.4118 30.3027C32.359 30.2441 32.3326 30.162 32.3326 30.0565C32.3326 29.9598 32.3605 29.8806 32.4162 29.819C32.4719 29.7575 32.5451 29.7267 32.636 29.7267C32.7327 29.7267 32.8075 29.756 32.8603 29.8147C32.913 29.8703 32.9394 29.951 32.9394 30.0565C32.9394 30.1532 32.9116 30.2324 32.8559 30.2939C32.8002 30.3555 32.7269 30.3863 32.636 30.3863ZM33.7376 30.3379V27.4403H34.1905V30.3379H33.7376ZM33.2584 28.4692V28.0295H34.7269V28.4692H33.2584ZM35.1393 30.3379V27.0841H35.5922V28.5044L35.5131 28.5571C35.5424 28.4545 35.5995 28.3607 35.6846 28.2757C35.7696 28.1878 35.8707 28.1174 35.9879 28.0647C36.1052 28.009 36.2254 27.9811 36.3485 27.9811C36.5244 27.9811 36.6709 28.0163 36.7882 28.0866C36.9054 28.1541 36.9934 28.2581 37.052 28.3988C37.1106 28.5395 37.1399 28.7169 37.1399 28.9309V30.3379H36.6871V28.9616C36.6871 28.8297 36.6695 28.7213 36.6343 28.6363C36.5991 28.5483 36.5449 28.4853 36.4716 28.4472C36.3983 28.4062 36.3075 28.3886 36.199 28.3944C36.1111 28.3944 36.0304 28.4091 35.9572 28.4384C35.8839 28.4648 35.8194 28.5029 35.7637 28.5527C35.7109 28.6026 35.6684 28.6612 35.6362 28.7286C35.6069 28.7931 35.5922 28.8634 35.5922 28.9397V30.3379H35.368C35.3299 30.3379 35.2918 30.3379 35.2536 30.3379C35.2155 30.3379 35.1774 30.3379 35.1393 30.3379ZM38.8316 30.3819C38.5941 30.3819 38.3831 30.332 38.1984 30.2324C38.0167 30.1298 37.873 29.9905 37.7675 29.8147C37.6649 29.6388 37.6136 29.4365 37.6136 29.2079C37.6136 29.0261 37.6429 28.8605 37.7016 28.711C37.7602 28.5615 37.8408 28.4325 37.9434 28.3241C38.0489 28.2127 38.1735 28.1277 38.3171 28.0691C38.4637 28.0075 38.622 27.9767 38.792 27.9767C38.9415 27.9767 39.0807 28.006 39.2097 28.0647C39.3387 28.1204 39.4501 28.198 39.5439 28.2977C39.6406 28.3974 39.7139 28.5161 39.7637 28.6539C39.8165 28.7887 39.8414 28.9367 39.8385 29.0979L39.8341 29.2914H37.9478L37.8467 28.9309H39.4428L39.3768 29.0056V28.9001C39.368 28.8033 39.3358 28.7169 39.2801 28.6407C39.2244 28.5644 39.154 28.5044 39.069 28.4604C38.984 28.4164 38.8917 28.3944 38.792 28.3944C38.6337 28.3944 38.5003 28.4252 38.3919 28.4868C38.2834 28.5454 38.2013 28.6333 38.1457 28.7506C38.09 28.8649 38.0621 29.0071 38.0621 29.1771C38.0621 29.3383 38.0958 29.479 38.1632 29.5992C38.2307 29.7165 38.3259 29.8073 38.449 29.8718C38.5722 29.9363 38.7143 29.9685 38.8755 29.9685C38.9899 29.9685 39.0954 29.9495 39.1921 29.9114C39.2918 29.8733 39.3988 29.8044 39.5131 29.7047L39.7418 30.0257C39.6714 30.0961 39.5849 30.1576 39.4823 30.2104C39.3827 30.2631 39.2757 30.3056 39.1614 30.3379C39.05 30.3672 38.94 30.3819 38.8316 30.3819ZM42.3325 30.3819C42.139 30.3819 41.9646 30.3482 41.8093 30.2807C41.6539 30.2133 41.5249 30.1136 41.4223 29.9817L41.7301 29.7179C41.818 29.8205 41.9133 29.8953 42.0159 29.9422C42.1214 29.9861 42.2402 30.0081 42.3721 30.0081C42.4248 30.0081 42.4732 30.0023 42.5172 29.9905C42.5641 29.9759 42.6036 29.9554 42.6359 29.929C42.6711 29.9026 42.6974 29.8718 42.715 29.8366C42.7326 29.7985 42.7414 29.7575 42.7414 29.7135C42.7414 29.6373 42.7136 29.5757 42.6579 29.5288C42.6286 29.5083 42.5817 29.4863 42.5172 29.4629C42.4556 29.4365 42.375 29.4101 42.2753 29.3837C42.1053 29.3398 41.9661 29.2899 41.8576 29.2343C41.7492 29.1786 41.6656 29.1155 41.607 29.0452C41.563 28.9895 41.5308 28.9294 41.5103 28.8649C41.4897 28.7975 41.4795 28.7242 41.4795 28.6451C41.4795 28.5483 41.5 28.4604 41.541 28.3812C41.585 28.2992 41.6436 28.2288 41.7169 28.1702C41.7931 28.1086 41.8811 28.0617 41.9807 28.0295C42.0833 27.9972 42.1918 27.9811 42.3061 27.9811C42.4146 27.9811 42.5216 27.9958 42.6271 28.0251C42.7356 28.0544 42.8352 28.0969 42.9261 28.1526C43.017 28.2083 43.0932 28.2742 43.1547 28.3505L42.8953 28.6363C42.8396 28.5806 42.7781 28.5322 42.7106 28.4912C42.6461 28.4472 42.5802 28.4135 42.5128 28.39C42.4454 28.3666 42.3838 28.3549 42.3281 28.3549C42.2665 28.3549 42.2108 28.3607 42.161 28.3724C42.1112 28.3842 42.0687 28.4018 42.0335 28.4252C42.0013 28.4487 41.9763 28.478 41.9588 28.5131C41.9412 28.5483 41.9324 28.5879 41.9324 28.6319C41.9353 28.67 41.9441 28.7066 41.9588 28.7418C41.9763 28.774 41.9998 28.8019 42.0291 28.8253C42.0613 28.8488 42.1097 28.8737 42.1742 28.9001C42.2387 28.9265 42.3208 28.9514 42.4204 28.9748C42.567 29.0129 42.6872 29.0554 42.781 29.1023C42.8777 29.1463 42.9539 29.1976 43.0096 29.2562C43.0683 29.3119 43.1093 29.3764 43.1327 29.4497C43.1562 29.523 43.1679 29.6051 43.1679 29.6959C43.1679 29.8278 43.1298 29.9466 43.0536 30.0521C42.9803 30.1547 42.8807 30.2353 42.7546 30.2939C42.6286 30.3525 42.4879 30.3819 42.3325 30.3819ZM43.667 31.3052V28.0295H44.1243V28.5571L44.054 28.5175C44.0716 28.4296 44.1214 28.3461 44.2035 28.2669C44.2856 28.1848 44.3852 28.1189 44.5025 28.0691C44.6227 28.0163 44.7458 27.9899 44.8718 27.9899C45.0799 27.9899 45.2646 28.0412 45.4258 28.1438C45.5871 28.2464 45.7146 28.3871 45.8084 28.5659C45.9022 28.7447 45.9491 28.9499 45.9491 29.1815C45.9491 29.4101 45.9022 29.6153 45.8084 29.7971C45.7175 29.9759 45.5915 30.118 45.4302 30.2236C45.269 30.3262 45.0873 30.3775 44.885 30.3775C44.7502 30.3775 44.6197 30.3511 44.4937 30.2983C44.3676 30.2426 44.2606 30.1723 44.1727 30.0873C44.0848 30.0023 44.0305 29.9143 44.01 29.8234L44.1243 29.7619V31.3052H43.667ZM44.8103 29.9598C44.9451 29.9598 45.0653 29.926 45.1708 29.8586C45.2763 29.7912 45.3599 29.6989 45.4214 29.5816C45.483 29.4644 45.5138 29.331 45.5138 29.1815C45.5138 29.032 45.483 28.9001 45.4214 28.7858C45.3628 28.6685 45.2807 28.5762 45.1752 28.5088C45.0697 28.4413 44.948 28.4076 44.8103 28.4076C44.6725 28.4076 44.5508 28.4413 44.4453 28.5088C44.3398 28.5732 44.2562 28.6641 44.1947 28.7814C44.1331 28.8986 44.1023 29.032 44.1023 29.1815C44.1023 29.331 44.1331 29.4644 44.1947 29.5816C44.2562 29.6989 44.3398 29.7912 44.4453 29.8586C44.5508 29.926 44.6725 29.9598 44.8103 29.9598ZM47.3291 30.3819C47.1386 30.3819 46.9642 30.3291 46.8059 30.2236C46.6505 30.118 46.5259 29.9744 46.4321 29.7927C46.3383 29.6109 46.2914 29.4057 46.2914 29.1771C46.2914 28.9455 46.3383 28.7403 46.4321 28.5615C46.5289 28.3798 46.6578 28.2376 46.8191 28.135C46.9832 28.0324 47.1664 27.9811 47.3687 27.9811C47.4889 27.9811 47.5988 27.9987 47.6984 28.0339C47.7981 28.0691 47.8846 28.1189 47.9579 28.1834C48.0341 28.2449 48.0956 28.3168 48.1425 28.3988C48.1924 28.4809 48.2232 28.5688 48.2349 28.6626L48.1337 28.6275V28.0295H48.591V30.3379H48.1337V29.7883L48.2393 29.7575C48.2217 29.8366 48.185 29.9143 48.1293 29.9905C48.0766 30.0638 48.0077 30.1298 47.9227 30.1884C47.8406 30.247 47.7483 30.2939 47.6457 30.3291C47.546 30.3643 47.4405 30.3819 47.3291 30.3819ZM47.4478 29.9641C47.5856 29.9641 47.7072 29.9304 47.8128 29.863C47.9183 29.7956 48.0004 29.7033 48.059 29.586C48.1206 29.4658 48.1513 29.3295 48.1513 29.1771C48.1513 29.0276 48.1206 28.8942 48.059 28.777C48.0004 28.6597 47.9183 28.5674 47.8128 28.5C47.7072 28.4325 47.5856 28.3988 47.4478 28.3988C47.313 28.3988 47.1928 28.4325 47.0873 28.5C46.9847 28.5674 46.9026 28.6597 46.841 28.777C46.7824 28.8942 46.7531 29.0276 46.7531 29.1771C46.7531 29.3295 46.7824 29.4658 46.841 29.586C46.9026 29.7033 46.9847 29.7956 47.0873 29.863C47.1928 29.9304 47.313 29.9641 47.4478 29.9641ZM49.2234 30.3379V28.0295H49.6807V28.755L49.6367 28.5791C49.6689 28.4677 49.7232 28.3666 49.7994 28.2757C49.8785 28.1848 49.9679 28.113 50.0676 28.0603C50.1702 28.0075 50.2757 27.9811 50.3842 27.9811C50.434 27.9811 50.4809 27.9855 50.5249 27.9943C50.5718 28.0031 50.6084 28.0134 50.6348 28.0251L50.5161 28.5175C50.4809 28.5029 50.4413 28.4912 50.3974 28.4824C50.3563 28.4706 50.3153 28.4648 50.2742 28.4648C50.1951 28.4648 50.1189 28.4809 50.0456 28.5131C49.9753 28.5425 49.9122 28.585 49.8565 28.6407C49.8038 28.6934 49.7613 28.7564 49.729 28.8297C49.6968 28.9001 49.6807 28.9778 49.6807 29.0628V30.3379H49.2234ZM51.4101 29.6168L51.3881 29.1243L52.4917 28.0295H53.1029L51.4101 29.6168ZM50.9968 30.3379V27.0841H51.4496V30.3379H50.9968ZM52.5533 30.3379L51.6827 29.3222L52.0037 29.0276L53.1337 30.3379H52.5533ZM55.014 30.3379V27.4403H55.4669V30.3379H55.014ZM54.5347 28.4692V28.0295H56.0033V28.4692H54.5347ZM56.4157 30.3379V27.0841H56.8686V28.5044L56.7894 28.5571C56.8187 28.4545 56.8759 28.3607 56.9609 28.2757C57.0459 28.1878 57.147 28.1174 57.2643 28.0647C57.3815 28.009 57.5017 27.9811 57.6248 27.9811C57.8007 27.9811 57.9473 28.0163 58.0645 28.0866C58.1818 28.1541 58.2697 28.2581 58.3284 28.3988C58.387 28.5395 58.4163 28.7169 58.4163 28.9309V30.3379H57.9634V28.9616C57.9634 28.8297 57.9458 28.7213 57.9106 28.6363C57.8755 28.5483 57.8212 28.4853 57.748 28.4472C57.6747 28.4062 57.5838 28.3886 57.4753 28.3944C57.3874 28.3944 57.3068 28.4091 57.2335 28.4384C57.1602 28.4648 57.0957 28.5029 57.04 28.5527C56.9873 28.6026 56.9448 28.6612 56.9125 28.7286C56.8832 28.7931 56.8686 28.8634 56.8686 28.9397V30.3379H56.6443C56.6062 30.3379 56.5681 30.3379 56.53 30.3379C56.4919 30.3379 56.4538 30.3379 56.4157 30.3379ZM59.9189 30.3819C59.7283 30.3819 59.5539 30.3291 59.3956 30.2236C59.2403 30.118 59.1157 29.9744 59.0219 29.7927C58.9281 29.6109 58.8812 29.4057 58.8812 29.1771C58.8812 28.9455 58.9281 28.7403 59.0219 28.5615C59.1186 28.3798 59.2476 28.2376 59.4088 28.135C59.573 28.0324 59.7562 27.9811 59.9584 27.9811C60.0786 27.9811 60.1885 27.9987 60.2882 28.0339C60.3879 28.0691 60.4743 28.1189 60.5476 28.1834C60.6238 28.2449 60.6854 28.3168 60.7323 28.3988C60.7821 28.4809 60.8129 28.5688 60.8246 28.6626L60.7235 28.6275V28.0295H61.1808V30.3379H60.7235V29.7883L60.829 29.7575C60.8114 29.8366 60.7748 29.9143 60.7191 29.9905C60.6663 30.0638 60.5975 30.1298 60.5125 30.1884C60.4304 30.247 60.338 30.2939 60.2354 30.3291C60.1358 30.3643 60.0303 30.3819 59.9189 30.3819ZM60.0376 29.9641C60.1754 29.9641 60.297 29.9304 60.4025 29.863C60.5081 29.7956 60.5901 29.7033 60.6488 29.586C60.7103 29.4658 60.7411 29.3295 60.7411 29.1771C60.7411 29.0276 60.7103 28.8942 60.6488 28.777C60.5901 28.6597 60.5081 28.5674 60.4025 28.5C60.297 28.4325 60.1754 28.3988 60.0376 28.3988C59.9027 28.3988 59.7826 28.4325 59.677 28.5C59.5744 28.5674 59.4924 28.6597 59.4308 28.777C59.3722 28.8942 59.3429 29.0276 59.3429 29.1771C59.3429 29.3295 59.3722 29.4658 59.4308 29.586C59.4924 29.7033 59.5744 29.7956 59.677 29.863C59.7826 29.9304 59.9027 29.9641 60.0376 29.9641ZM62.0989 30.3379V27.4403H62.5518V30.3379H62.0989ZM61.6197 28.4692V28.0295H63.0883V28.4692H61.6197ZM64.733 31.3052V28.0295H65.1903V28.5571L65.1199 28.5175C65.1375 28.4296 65.1873 28.3461 65.2694 28.2669C65.3515 28.1848 65.4512 28.1189 65.5684 28.0691C65.6886 28.0163 65.8117 27.9899 65.9378 27.9899C66.1459 27.9899 66.3306 28.0412 66.4918 28.1438C66.653 28.2464 66.7805 28.3871 66.8743 28.5659C66.9681 28.7447 67.015 28.9499 67.015 29.1815C67.015 29.4101 66.9681 29.6153 66.8743 29.7971C66.7834 29.9759 66.6574 30.118 66.4962 30.2236C66.335 30.3262 66.1532 30.3775 65.951 30.3775C65.8161 30.3775 65.6857 30.3511 65.5596 30.2983C65.4336 30.2426 65.3266 30.1723 65.2386 30.0873C65.1507 30.0023 65.0965 29.9143 65.076 29.8234L65.1903 29.7619V31.3052H64.733ZM65.8762 29.9598C66.011 29.9598 66.1312 29.926 66.2368 29.8586C66.3423 29.7912 66.4258 29.6989 66.4874 29.5816C66.5489 29.4644 66.5797 29.331 66.5797 29.1815C66.5797 29.032 66.5489 28.9001 66.4874 28.7858C66.4288 28.6685 66.3467 28.5762 66.2412 28.5088C66.1356 28.4413 66.014 28.4076 65.8762 28.4076C65.7384 28.4076 65.6168 28.4413 65.5113 28.5088C65.4057 28.5732 65.3222 28.6641 65.2606 28.7814C65.1991 28.8986 65.1683 29.032 65.1683 29.1815C65.1683 29.331 65.1991 29.4644 65.2606 29.5816C65.3222 29.6989 65.4057 29.7912 65.5113 29.8586C65.6168 29.926 65.7384 29.9598 65.8762 29.9598ZM68.5445 30.3819C68.3188 30.3819 68.1166 30.3306 67.9378 30.228C67.7619 30.1224 67.6226 29.9803 67.5201 29.8015C67.4175 29.6197 67.3662 29.4131 67.3662 29.1815C67.3662 28.9499 67.4175 28.7447 67.5201 28.5659C67.6226 28.3842 67.7619 28.242 67.9378 28.1394C68.1166 28.0339 68.3188 27.9811 68.5445 27.9811C68.7673 27.9811 68.9667 28.0339 69.1425 28.1394C69.3213 28.242 69.462 28.3842 69.5646 28.5659C69.6672 28.7447 69.7185 28.9499 69.7185 29.1815C69.7185 29.4131 69.6672 29.6197 69.5646 29.8015C69.462 29.9803 69.3213 30.1224 69.1425 30.228C68.9667 30.3306 68.7673 30.3819 68.5445 30.3819ZM68.5445 29.9685C68.6823 29.9685 68.8054 29.9348 68.9139 29.8674C69.0224 29.7971 69.1074 29.7033 69.1689 29.586C69.2305 29.4658 69.2598 29.331 69.2569 29.1815C69.2598 29.0291 69.2305 28.8942 69.1689 28.777C69.1074 28.6568 69.0224 28.563 68.9139 28.4956C68.8054 28.4281 68.6823 28.3944 68.5445 28.3944C68.4068 28.3944 68.2822 28.4296 68.1708 28.5C68.0623 28.5674 67.9773 28.6612 67.9158 28.7814C67.8542 28.8986 67.8249 29.032 67.8278 29.1815C67.8249 29.331 67.8542 29.4658 67.9158 29.586C67.9773 29.7033 68.0623 29.7971 68.1708 29.8674C68.2822 29.9348 68.4068 29.9685 68.5445 29.9685ZM70.6934 30.3379L69.9063 28.0295L70.3636 28.0251L70.9264 29.7531L70.8253 29.7443L71.4364 28.3944H71.7091L72.3246 29.7487L72.2059 29.7575L72.7731 28.0295H73.2304L72.4521 30.3379H72.14L71.498 28.8693L71.5991 28.8825L71.0011 30.3379H70.6934ZM74.6557 30.3819C74.4183 30.3819 74.2072 30.332 74.0226 30.2324C73.8408 30.1298 73.6972 29.9905 73.5917 29.8147C73.4891 29.6388 73.4378 29.4365 73.4378 29.2079C73.4378 29.0261 73.4671 28.8605 73.5257 28.711C73.5843 28.5615 73.6649 28.4325 73.7675 28.3241C73.8731 28.2127 73.9976 28.1277 74.1413 28.0691C74.2878 28.0075 74.4461 27.9767 74.6161 27.9767C74.7656 27.9767 74.9049 28.006 75.0339 28.0647C75.1628 28.1204 75.2742 28.198 75.368 28.2977C75.4648 28.3974 75.538 28.5161 75.5879 28.6539C75.6406 28.7887 75.6656 28.9367 75.6626 29.0979L75.6582 29.2914H73.7719L73.6708 28.9309H75.2669L75.2009 29.0056V28.9001C75.1921 28.8033 75.1599 28.7169 75.1042 28.6407C75.0485 28.5644 74.9782 28.5044 74.8932 28.4604C74.8081 28.4164 74.7158 28.3944 74.6161 28.3944C74.4579 28.3944 74.3245 28.4252 74.216 28.4868C74.1076 28.5454 74.0255 28.6333 73.9698 28.7506C73.9141 28.8649 73.8862 29.0071 73.8862 29.1771C73.8862 29.3383 73.92 29.479 73.9874 29.5992C74.0548 29.7165 74.1501 29.8073 74.2732 29.8718C74.3963 29.9363 74.5385 29.9685 74.6997 29.9685C74.814 29.9685 74.9195 29.9495 75.0163 29.9114C75.1159 29.8733 75.2229 29.8044 75.3372 29.7047L75.5659 30.0257C75.4955 30.0961 75.4091 30.1576 75.3065 30.2104C75.2068 30.2631 75.0998 30.3056 74.9855 30.3379C74.8741 30.3672 74.7642 30.3819 74.6557 30.3819ZM76.1548 30.3379V28.0295H76.6121V28.755L76.5681 28.5791C76.6004 28.4677 76.6546 28.3666 76.7308 28.2757C76.81 28.1848 76.8994 28.113 76.999 28.0603C77.1016 28.0075 77.2072 27.9811 77.3156 27.9811C77.3654 27.9811 77.4123 27.9855 77.4563 27.9943C77.5032 28.0031 77.5399 28.0134 77.5662 28.0251L77.4475 28.5175C77.4123 28.5029 77.3728 28.4912 77.3288 28.4824C77.2878 28.4706 77.2467 28.4648 77.2057 28.4648C77.1265 28.4648 77.0503 28.4809 76.977 28.5131C76.9067 28.5425 76.8437 28.585 76.788 28.6407C76.7352 28.6934 76.6927 28.7564 76.6605 28.8297C76.6282 28.9001 76.6121 28.9778 76.6121 29.0628V30.3379H76.1548ZM78.6977 30.3819C78.5042 30.3819 78.3298 30.3482 78.1744 30.2807C78.0191 30.2133 77.8901 30.1136 77.7875 29.9817L78.0953 29.7179C78.1832 29.8205 78.2785 29.8953 78.3811 29.9422C78.4866 29.9861 78.6053 30.0081 78.7372 30.0081C78.79 30.0081 78.8384 30.0023 78.8823 29.9905C78.9292 29.9759 78.9688 29.9554 79.0011 29.929C79.0362 29.9026 79.0626 29.8718 79.0802 29.8366C79.0978 29.7985 79.1066 29.7575 79.1066 29.7135C79.1066 29.6373 79.0787 29.5757 79.023 29.5288C78.9937 29.5083 78.9468 29.4863 78.8823 29.4629C78.8208 29.4365 78.7402 29.4101 78.6405 29.3837C78.4705 29.3398 78.3313 29.2899 78.2228 29.2343C78.1143 29.1786 78.0308 29.1155 77.9722 29.0452C77.9282 28.9895 77.896 28.9294 77.8754 28.8649C77.8549 28.7975 77.8447 28.7242 77.8447 28.6451C77.8447 28.5483 77.8652 28.4604 77.9062 28.3812C77.9502 28.2992 78.0088 28.2288 78.0821 28.1702C78.1583 28.1086 78.2462 28.0617 78.3459 28.0295C78.4485 27.9972 78.557 27.9811 78.6713 27.9811C78.7797 27.9811 78.8867 27.9958 78.9923 28.0251C79.1007 28.0544 79.2004 28.0969 79.2913 28.1526C79.3821 28.2083 79.4583 28.2742 79.5199 28.3505L79.2605 28.6363C79.2048 28.5806 79.1432 28.5322 79.0758 28.4912C79.0113 28.4472 78.9454 28.4135 78.8779 28.39C78.8105 28.3666 78.749 28.3549 78.6933 28.3549C78.6317 28.3549 78.576 28.3607 78.5262 28.3724C78.4764 28.3842 78.4338 28.4018 78.3987 28.4252C78.3664 28.4487 78.3415 28.478 78.3239 28.5131C78.3063 28.5483 78.2975 28.5879 78.2975 28.6319C78.3005 28.67 78.3093 28.7066 78.3239 28.7418C78.3415 28.774 78.365 28.8019 78.3943 28.8253C78.4265 28.8488 78.4749 28.8737 78.5394 28.9001C78.6039 28.9265 78.6859 28.9514 78.7856 28.9748C78.9322 29.0129 79.0524 29.0554 79.1462 29.1023C79.2429 29.1463 79.3191 29.1976 79.3748 29.2562C79.4334 29.3119 79.4745 29.3764 79.4979 29.4497C79.5214 29.523 79.5331 29.6051 79.5331 29.6959C79.5331 29.8278 79.495 29.9466 79.4188 30.0521C79.3455 30.1547 79.2458 30.2353 79.1198 30.2939C78.9937 30.3525 78.853 30.3819 78.6977 30.3819Z" fill="white"/>
<path d="M82.4094 30.3379V27.0841H82.8622V30.3379H82.4094ZM84.3494 30.3819C84.1588 30.3819 83.9844 30.3291 83.8261 30.2236C83.6708 30.118 83.5462 29.9744 83.4524 29.7927C83.3586 29.6109 83.3117 29.4057 83.3117 29.1771C83.3117 28.9455 83.3586 28.7403 83.4524 28.5615C83.5491 28.3798 83.6781 28.2376 83.8393 28.135C84.0035 28.0324 84.1867 27.9811 84.3889 27.9811C84.5091 27.9811 84.619 27.9987 84.7187 28.0339C84.8184 28.0691 84.9048 28.1189 84.9781 28.1834C85.0543 28.2449 85.1159 28.3168 85.1628 28.3988C85.2126 28.4809 85.2434 28.5688 85.2551 28.6626L85.154 28.6275V28.0295H85.6113V30.3379H85.154V29.7883L85.2595 29.7575C85.2419 29.8366 85.2053 29.9143 85.1496 29.9905C85.0968 30.0638 85.028 30.1298 84.9429 30.1884C84.8609 30.247 84.7685 30.2939 84.6659 30.3291C84.5663 30.3643 84.4607 30.3819 84.3494 30.3819ZM84.4681 29.9641C84.6058 29.9641 84.7275 29.9304 84.833 29.863C84.9385 29.7956 85.0206 29.7033 85.0792 29.586C85.1408 29.4658 85.1716 29.3295 85.1716 29.1771C85.1716 29.0276 85.1408 28.8942 85.0792 28.777C85.0206 28.6597 84.9385 28.5674 84.833 28.5C84.7275 28.4325 84.6058 28.3988 84.4681 28.3988C84.3332 28.3988 84.213 28.4325 84.1075 28.5C84.0049 28.5674 83.9228 28.6597 83.8613 28.777C83.8027 28.8942 83.7733 29.0276 83.7733 29.1771C83.7733 29.3295 83.8027 29.4658 83.8613 29.586C83.9228 29.7033 84.0049 29.7956 84.1075 29.863C84.213 29.9304 84.3332 29.9641 84.4681 29.9641ZM86.2436 30.3379V28.0295H86.6965V28.5044L86.6174 28.5571C86.6467 28.4545 86.7038 28.3607 86.7888 28.2757C86.8739 28.1878 86.975 28.1174 87.0922 28.0647C87.2095 28.009 87.3297 27.9811 87.4528 27.9811C87.6287 27.9811 87.7752 28.0163 87.8925 28.0866C88.0097 28.1541 88.0977 28.2581 88.1563 28.3988C88.2149 28.5395 88.2442 28.7169 88.2442 28.9309V30.3379H87.7914V28.9616C87.7914 28.8297 87.7738 28.7213 87.7386 28.6363C87.7034 28.5483 87.6492 28.4853 87.5759 28.4472C87.5026 28.4062 87.4117 28.3886 87.3033 28.3944C87.2154 28.3944 87.1347 28.4091 87.0615 28.4384C86.9882 28.4648 86.9237 28.5029 86.868 28.5527C86.8152 28.6026 86.7727 28.6612 86.7405 28.7286C86.7112 28.7931 86.6965 28.8634 86.6965 28.9397V30.3379H86.4723C86.4342 30.3379 86.396 30.3379 86.3579 30.3379C86.3198 30.3379 86.2817 30.3379 86.2436 30.3379ZM89.8919 31.3492C89.7277 31.3492 89.5636 31.3228 89.3994 31.27C89.2382 31.2202 89.1078 31.1543 89.0081 31.0722L89.1752 30.7204C89.2338 30.7644 89.3027 30.8025 89.3819 30.8347C89.461 30.8699 89.5445 30.8963 89.6325 30.9139C89.7204 30.9344 89.8069 30.9447 89.8919 30.9447C90.0531 30.9447 90.188 30.9183 90.2964 30.8655C90.4049 30.8128 90.487 30.7351 90.5427 30.6325C90.5984 30.5299 90.6262 30.4024 90.6262 30.25V29.8059L90.6746 29.8366C90.6599 29.9275 90.6115 30.0154 90.5295 30.1005C90.4503 30.1825 90.3507 30.25 90.2305 30.3027C90.1103 30.3555 89.9872 30.3819 89.8611 30.3819C89.6413 30.3819 89.4449 30.3306 89.2719 30.228C89.1019 30.1224 88.9671 29.9803 88.8674 29.8015C88.7677 29.6197 88.7179 29.4131 88.7179 29.1815C88.7179 28.9499 88.7663 28.7447 88.863 28.5659C88.9627 28.3842 89.0975 28.242 89.2675 28.1394C89.4405 28.0339 89.6339 27.9811 89.8479 27.9811C89.9359 27.9811 90.0209 27.9928 90.103 28.0163C90.185 28.0368 90.2612 28.0676 90.3316 28.1086C90.402 28.1467 90.465 28.1892 90.5207 28.2361C90.5764 28.283 90.6218 28.3329 90.657 28.3856C90.6922 28.4384 90.7141 28.4882 90.7229 28.5351L90.6262 28.5703V28.0295H91.0791V30.1972C91.0791 30.3819 91.0512 30.5445 90.9955 30.6853C90.9428 30.8289 90.8651 30.9491 90.7625 31.0458C90.6599 31.1455 90.5353 31.2202 90.3888 31.27C90.2422 31.3228 90.0766 31.3492 89.8919 31.3492ZM89.9095 29.9641C90.0531 29.9641 90.1806 29.9304 90.292 29.863C90.4034 29.7956 90.4899 29.7033 90.5514 29.586C90.613 29.4688 90.6438 29.3339 90.6438 29.1815C90.6438 29.0291 90.6115 28.8942 90.5471 28.777C90.4855 28.6568 90.399 28.563 90.2876 28.4956C90.1792 28.4281 90.0531 28.3944 89.9095 28.3944C89.7688 28.3944 89.6427 28.4296 89.5314 28.5C89.4229 28.5674 89.3364 28.6612 89.2719 28.7814C89.2104 28.8986 89.1796 29.032 89.1796 29.1815C89.1796 29.331 89.2104 29.4658 89.2719 29.586C89.3364 29.7033 89.4229 29.7956 89.5314 29.863C89.6427 29.9304 89.7688 29.9641 89.9095 29.9641ZM92.4888 30.3819C92.3246 30.3819 92.181 30.3438 92.0579 30.2675C91.9377 30.1913 91.8439 30.0843 91.7765 29.9466C91.712 29.8088 91.6797 29.6446 91.6797 29.4541V28.0295H92.1326V29.331C92.1326 29.4658 92.1531 29.5831 92.1942 29.6827C92.2381 29.7795 92.2997 29.8542 92.3788 29.907C92.4609 29.9598 92.5591 29.9861 92.6734 29.9861C92.7584 29.9861 92.8361 29.9729 92.9065 29.9466C92.9768 29.9172 93.0369 29.8777 93.0867 29.8278C93.1395 29.778 93.1806 29.7179 93.2099 29.6476C93.2392 29.5772 93.2538 29.501 93.2538 29.4189V28.0295H93.7067V30.3379H93.2538V29.8542L93.333 29.8015C93.2978 29.9099 93.2377 30.0081 93.1527 30.0961C93.0706 30.184 92.9724 30.2543 92.8581 30.3071C92.7438 30.3569 92.6207 30.3819 92.4888 30.3819ZM95.2301 30.3819C95.0396 30.3819 94.8652 30.3291 94.7069 30.2236C94.5515 30.118 94.427 29.9744 94.3332 29.7927C94.2393 29.6109 94.1924 29.4057 94.1924 29.1771C94.1924 28.9455 94.2393 28.7403 94.3332 28.5615C94.4299 28.3798 94.5589 28.2376 94.7201 28.135C94.8842 28.0324 95.0674 27.9811 95.2697 27.9811C95.3899 27.9811 95.4998 27.9987 95.5995 28.0339C95.6991 28.0691 95.7856 28.1189 95.8589 28.1834C95.9351 28.2449 95.9967 28.3168 96.0436 28.3988C96.0934 28.4809 96.1242 28.5688 96.1359 28.6626L96.0348 28.6275V28.0295H96.4921V30.3379H96.0348V29.7883L96.1403 29.7575C96.1227 29.8366 96.0861 29.9143 96.0304 29.9905C95.9776 30.0638 95.9087 30.1298 95.8237 30.1884C95.7416 30.247 95.6493 30.2939 95.5467 30.3291C95.4471 30.3643 95.3415 30.3819 95.2301 30.3819ZM95.3489 29.9641C95.4866 29.9641 95.6083 29.9304 95.7138 29.863C95.8193 29.7956 95.9014 29.7033 95.96 29.586C96.0216 29.4658 96.0524 29.3295 96.0524 29.1771C96.0524 29.0276 96.0216 28.8942 95.96 28.777C95.9014 28.6597 95.8193 28.5674 95.7138 28.5C95.6083 28.4325 95.4866 28.3988 95.3489 28.3988C95.214 28.3988 95.0938 28.4325 94.9883 28.5C94.8857 28.5674 94.8036 28.6597 94.7421 28.777C94.6834 28.8942 94.6541 29.0276 94.6541 29.1771C94.6541 29.3295 94.6834 29.4658 94.7421 29.586C94.8036 29.7033 94.8857 29.7956 94.9883 29.863C95.0938 29.9304 95.214 29.9641 95.3489 29.9641ZM98.1577 31.3492C97.9935 31.3492 97.8294 31.3228 97.6652 31.27C97.504 31.2202 97.3736 31.1543 97.2739 31.0722L97.441 30.7204C97.4996 30.7644 97.5685 30.8025 97.6476 30.8347C97.7268 30.8699 97.8103 30.8963 97.8983 30.9139C97.9862 30.9344 98.0727 30.9447 98.1577 30.9447C98.3189 30.9447 98.4538 30.9183 98.5622 30.8655C98.6707 30.8128 98.7527 30.7351 98.8084 30.6325C98.8641 30.5299 98.892 30.4024 98.892 30.25V29.8059L98.9404 29.8366C98.9257 29.9275 98.8773 30.0154 98.7953 30.1005C98.7161 30.1825 98.6164 30.25 98.4963 30.3027C98.3761 30.3555 98.253 30.3819 98.1269 30.3819C97.9071 30.3819 97.7107 30.3306 97.5377 30.228C97.3677 30.1224 97.2329 29.9803 97.1332 29.8015C97.0335 29.6197 96.9837 29.4131 96.9837 29.1815C96.9837 28.9499 97.0321 28.7447 97.1288 28.5659C97.2285 28.3842 97.3633 28.242 97.5333 28.1394C97.7063 28.0339 97.8997 27.9811 98.1137 27.9811C98.2017 27.9811 98.2867 27.9928 98.3687 28.0163C98.4508 28.0368 98.527 28.0676 98.5974 28.1086C98.6677 28.1467 98.7308 28.1892 98.7865 28.2361C98.8422 28.283 98.8876 28.3329 98.9228 28.3856C98.9579 28.4384 98.9799 28.4882 98.9887 28.5351L98.892 28.5703V28.0295H99.3449V30.1972C99.3449 30.3819 99.317 30.5445 99.2613 30.6853C99.2086 30.8289 99.1309 30.9491 99.0283 31.0458C98.9257 31.1455 98.8011 31.2202 98.6545 31.27C98.508 31.3228 98.3424 31.3492 98.1577 31.3492ZM98.1753 29.9641C98.3189 29.9641 98.4464 29.9304 98.5578 29.863C98.6692 29.7956 98.7557 29.7033 98.8172 29.586C98.8788 29.4688 98.9096 29.3339 98.9096 29.1815C98.9096 29.0291 98.8773 28.8942 98.8128 28.777C98.7513 28.6568 98.6648 28.563 98.5534 28.4956C98.445 28.4281 98.3189 28.3944 98.1753 28.3944C98.0346 28.3944 97.9085 28.4296 97.7971 28.5C97.6887 28.5674 97.6022 28.6612 97.5377 28.7814C97.4762 28.8986 97.4454 29.032 97.4454 29.1815C97.4454 29.331 97.4762 29.4658 97.5377 29.586C97.6022 29.7033 97.6887 29.7956 97.7971 29.863C97.9085 29.9304 98.0346 29.9641 98.1753 29.9641ZM101.057 30.3819C100.82 30.3819 100.609 30.332 100.424 30.2324C100.242 30.1298 100.099 29.9905 99.993 29.8147C99.8905 29.6388 99.8392 29.4365 99.8392 29.2079C99.8392 29.0261 99.8685 28.8605 99.9271 28.711C99.9857 28.5615 100.066 28.4325 100.169 28.3241C100.274 28.2127 100.399 28.1277 100.543 28.0691C100.689 28.0075 100.848 27.9767 101.018 27.9767C101.167 27.9767 101.306 28.006 101.435 28.0647C101.564 28.1204 101.676 28.198 101.769 28.2977C101.866 28.3974 101.939 28.5161 101.989 28.6539C102.042 28.7887 102.067 28.9367 102.064 29.0979L102.06 29.2914H100.173L100.072 28.9309H101.668L101.602 29.0056V28.9001C101.594 28.8033 101.561 28.7169 101.506 28.6407C101.45 28.5644 101.38 28.5044 101.295 28.4604C101.21 28.4164 101.117 28.3944 101.018 28.3944C100.859 28.3944 100.726 28.4252 100.617 28.4868C100.509 28.5454 100.427 28.6333 100.371 28.7506C100.315 28.8649 100.288 29.0071 100.288 29.1771C100.288 29.3383 100.321 29.479 100.389 29.5992C100.456 29.7165 100.551 29.8073 100.675 29.8718C100.798 29.9363 100.94 29.9685 101.101 29.9685C101.215 29.9685 101.321 29.9495 101.418 29.9114C101.517 29.8733 101.624 29.8044 101.739 29.7047L101.967 30.0257C101.897 30.0961 101.81 30.1576 101.708 30.2104C101.608 30.2631 101.501 30.3056 101.387 30.3379C101.275 30.3672 101.166 30.3819 101.057 30.3819ZM104.677 30.3819C104.486 30.3819 104.312 30.3291 104.154 30.2236C103.998 30.118 103.874 29.9744 103.78 29.7927C103.686 29.6109 103.639 29.4057 103.639 29.1771C103.639 28.9455 103.686 28.7403 103.78 28.5615C103.877 28.3798 104.005 28.2376 104.167 28.135C104.331 28.0324 104.514 27.9811 104.716 27.9811C104.837 27.9811 104.946 27.9987 105.046 28.0339C105.146 28.0691 105.232 28.1189 105.306 28.1834C105.382 28.2449 105.443 28.3168 105.49 28.3988C105.54 28.4809 105.571 28.5688 105.583 28.6626L105.481 28.6275V28.0295H105.939V30.3379H105.481V29.7883L105.587 29.7575C105.569 29.8366 105.533 29.9143 105.477 29.9905C105.424 30.0638 105.355 30.1298 105.27 30.1884C105.188 30.247 105.096 30.2939 104.993 30.3291C104.894 30.3643 104.788 30.3819 104.677 30.3819ZM104.795 29.9641C104.933 29.9641 105.055 29.9304 105.16 29.863C105.266 29.7956 105.348 29.7033 105.407 29.586C105.468 29.4658 105.499 29.3295 105.499 29.1771C105.499 29.0276 105.468 28.8942 105.407 28.777C105.348 28.6597 105.266 28.5674 105.16 28.5C105.055 28.4325 104.933 28.3988 104.795 28.3988C104.661 28.3988 104.54 28.4325 104.435 28.5C104.332 28.5674 104.25 28.6597 104.189 28.777C104.13 28.8942 104.101 29.0276 104.101 29.1771C104.101 29.3295 104.13 29.4658 104.189 29.586C104.25 29.7033 104.332 29.7956 104.435 29.863C104.54 29.9304 104.661 29.9641 104.795 29.9641ZM106.571 30.3379V28.0295H107.024V28.5044L106.945 28.5571C106.974 28.4545 107.031 28.3607 107.116 28.2757C107.201 28.1878 107.302 28.1174 107.42 28.0647C107.537 28.009 107.657 27.9811 107.78 27.9811C107.956 27.9811 108.103 28.0163 108.22 28.0866C108.337 28.1541 108.425 28.2581 108.484 28.3988C108.542 28.5395 108.572 28.7169 108.572 28.9309V30.3379H108.119V28.9616C108.119 28.8297 108.101 28.7213 108.066 28.6363C108.031 28.5483 107.977 28.4853 107.903 28.4472C107.83 28.4062 107.739 28.3886 107.631 28.3944C107.543 28.3944 107.462 28.4091 107.389 28.4384C107.316 28.4648 107.251 28.5029 107.195 28.5527C107.143 28.6026 107.1 28.6612 107.068 28.7286C107.039 28.7931 107.024 28.8634 107.024 28.9397V30.3379H106.8C106.762 30.3379 106.723 30.3379 106.685 30.3379C106.647 30.3379 106.609 30.3379 106.571 30.3379ZM110.149 30.3819C109.938 30.3819 109.749 30.3306 109.582 30.228C109.418 30.1224 109.287 29.9803 109.19 29.8015C109.094 29.6197 109.045 29.4131 109.045 29.1815C109.045 28.9499 109.092 28.7447 109.186 28.5659C109.283 28.3842 109.413 28.242 109.577 28.1394C109.741 28.0339 109.928 27.9811 110.136 27.9811C110.25 27.9811 110.36 28.0002 110.466 28.0383C110.574 28.0735 110.671 28.1233 110.756 28.1878C110.841 28.2493 110.907 28.3182 110.954 28.3944C111.003 28.4677 111.028 28.5425 111.028 28.6187L110.896 28.6275V27.0841H111.349V30.3379H110.896V29.7883H110.984C110.984 29.8586 110.961 29.929 110.914 29.9993C110.867 30.0667 110.804 30.1298 110.725 30.1884C110.649 30.247 110.559 30.2939 110.457 30.3291C110.357 30.3643 110.254 30.3819 110.149 30.3819ZM110.211 29.9905C110.348 29.9905 110.47 29.9554 110.575 29.885C110.681 29.8147 110.763 29.7194 110.822 29.5992C110.883 29.4761 110.914 29.3368 110.914 29.1815C110.914 29.0261 110.883 28.8884 110.822 28.7682C110.763 28.6451 110.681 28.5483 110.575 28.478C110.47 28.4076 110.348 28.3724 110.211 28.3724C110.073 28.3724 109.951 28.4076 109.846 28.478C109.74 28.5483 109.656 28.6451 109.595 28.7682C109.536 28.8884 109.507 29.0261 109.507 29.1815C109.507 29.3368 109.536 29.4761 109.595 29.5992C109.656 29.7194 109.74 29.8147 109.846 29.885C109.951 29.9554 110.073 29.9905 110.211 29.9905ZM114.186 30.3819C113.972 30.3819 113.78 30.3291 113.61 30.2236C113.443 30.118 113.309 29.9744 113.21 29.7927C113.113 29.6109 113.064 29.4072 113.064 29.1815C113.064 28.9558 113.113 28.7521 113.21 28.5703C113.309 28.3886 113.443 28.2449 113.61 28.1394C113.78 28.0339 113.972 27.9811 114.186 27.9811C114.391 27.9811 114.577 28.0236 114.744 28.1086C114.914 28.1907 115.043 28.3036 115.131 28.4472L114.88 28.755C114.833 28.6876 114.773 28.626 114.7 28.5703C114.627 28.5146 114.549 28.4706 114.467 28.4384C114.385 28.4062 114.306 28.39 114.23 28.39C114.089 28.39 113.963 28.4252 113.851 28.4956C113.743 28.563 113.657 28.6568 113.592 28.777C113.528 28.8972 113.495 29.032 113.495 29.1815C113.495 29.331 113.529 29.4658 113.596 29.586C113.664 29.7033 113.753 29.7971 113.865 29.8674C113.976 29.9378 114.099 29.9729 114.234 29.9729C114.313 29.9729 114.389 29.9598 114.463 29.9334C114.539 29.907 114.612 29.8674 114.683 29.8147C114.753 29.7619 114.819 29.6974 114.88 29.6212L115.131 29.929C115.037 30.0609 114.902 30.1693 114.726 30.2543C114.554 30.3394 114.373 30.3819 114.186 30.3819ZM116.367 30.3819C116.203 30.3819 116.059 30.3438 115.936 30.2675C115.816 30.1913 115.722 30.0843 115.655 29.9466C115.59 29.8088 115.558 29.6446 115.558 29.4541V28.0295H116.011V29.331C116.011 29.4658 116.032 29.5831 116.073 29.6827C116.117 29.7795 116.178 29.8542 116.257 29.907C116.339 29.9598 116.438 29.9861 116.552 29.9861C116.637 29.9861 116.715 29.9729 116.785 29.9466C116.855 29.9172 116.915 29.8777 116.965 29.8278C117.018 29.778 117.059 29.7179 117.088 29.6476C117.118 29.5772 117.132 29.501 117.132 29.4189V28.0295H117.585V30.3379H117.132V29.8542L117.211 29.8015C117.176 29.9099 117.116 30.0081 117.031 30.0961C116.949 30.184 116.851 30.2543 116.737 30.3071C116.622 30.3569 116.499 30.3819 116.367 30.3819ZM118.229 30.3379V27.0841H118.682V30.3379H118.229ZM119.597 30.3379V27.4403H120.05V30.3379H119.597ZM119.118 28.4692V28.0295H120.586V28.4692H119.118ZM121.808 30.3819C121.643 30.3819 121.5 30.3438 121.377 30.2675C121.257 30.1913 121.163 30.0843 121.095 29.9466C121.031 29.8088 120.999 29.6446 120.999 29.4541V28.0295H121.451V29.331C121.451 29.4658 121.472 29.5831 121.513 29.6827C121.557 29.7795 121.619 29.8542 121.698 29.907C121.78 29.9598 121.878 29.9861 121.992 29.9861C122.077 29.9861 122.155 29.9729 122.225 29.9466C122.296 29.9172 122.356 29.8777 122.406 29.8278C122.458 29.778 122.499 29.7179 122.529 29.6476C122.558 29.5772 122.573 29.501 122.573 29.4189V28.0295H123.026V30.3379H122.573V29.8542L122.652 29.8015C122.617 29.9099 122.557 30.0081 122.472 30.0961C122.389 30.184 122.291 30.2543 122.177 30.3071C122.063 30.3569 121.94 30.3819 121.808 30.3819ZM123.661 30.3379V28.0295H124.118V28.755L124.074 28.5791C124.106 28.4677 124.161 28.3666 124.237 28.2757C124.316 28.1848 124.405 28.113 124.505 28.0603C124.608 28.0075 124.713 27.9811 124.822 27.9811C124.871 27.9811 124.918 27.9855 124.962 27.9943C125.009 28.0031 125.046 28.0134 125.072 28.0251L124.954 28.5175C124.918 28.5029 124.879 28.4912 124.835 28.4824C124.794 28.4706 124.753 28.4648 124.712 28.4648C124.633 28.4648 124.556 28.4809 124.483 28.5131C124.413 28.5425 124.35 28.585 124.294 28.6407C124.241 28.6934 124.199 28.7564 124.166 28.8297C124.134 28.9001 124.118 28.9778 124.118 29.0628V30.3379H123.661ZM126.413 30.3819C126.175 30.3819 125.964 30.332 125.78 30.2324C125.598 30.1298 125.454 29.9905 125.349 29.8147C125.246 29.6388 125.195 29.4365 125.195 29.2079C125.195 29.0261 125.224 28.8605 125.283 28.711C125.341 28.5615 125.422 28.4325 125.524 28.3241C125.63 28.2127 125.755 28.1277 125.898 28.0691C126.045 28.0075 126.203 27.9767 126.373 27.9767C126.523 27.9767 126.662 28.006 126.791 28.0647C126.92 28.1204 127.031 28.198 127.125 28.2977C127.222 28.3974 127.295 28.5161 127.345 28.6539C127.398 28.7887 127.423 28.9367 127.42 29.0979L127.415 29.2914H125.529L125.428 28.9309H127.024L126.958 29.0056V28.9001C126.949 28.8033 126.917 28.7169 126.861 28.6407C126.805 28.5644 126.735 28.5044 126.65 28.4604C126.565 28.4164 126.473 28.3944 126.373 28.3944C126.215 28.3944 126.081 28.4252 125.973 28.4868C125.865 28.5454 125.782 28.6333 125.727 28.7506C125.671 28.8649 125.643 29.0071 125.643 29.1771C125.643 29.3383 125.677 29.479 125.744 29.5992C125.812 29.7165 125.907 29.8073 126.03 29.8718C126.153 29.9363 126.295 29.9685 126.457 29.9685C126.571 29.9685 126.677 29.9495 126.773 29.9114C126.873 29.8733 126.98 29.8044 127.094 29.7047L127.323 30.0257C127.253 30.0961 127.166 30.1576 127.063 30.2104C126.964 30.2631 126.857 30.3056 126.742 30.3379C126.631 30.3672 126.521 30.3819 126.413 30.3819ZM128.096 30.3863C128 30.3863 127.925 30.3584 127.872 30.3027C127.819 30.2441 127.793 30.162 127.793 30.0565C127.793 29.9598 127.821 29.8806 127.877 29.819C127.932 29.7575 128.006 29.7267 128.096 29.7267C128.193 29.7267 128.268 29.756 128.321 29.8147C128.373 29.8703 128.4 29.951 128.4 30.0565C128.4 30.1532 128.372 30.2324 128.316 30.2939C128.261 30.3555 128.187 30.3863 128.096 30.3863Z" fill="white"/>
<path fillRule="evenodd" clipRule="evenodd" d="M0.875 7.67676H18.922L14.3246 11.9328H0.875V7.67676Z" fill="#24A5EE"/>
<mask id="mask0_2162_4936" style="mask-type:luminance" maskUnits="userSpaceOnUse" x="0" y="7" width="19" height="5">
<path d="M0.87434 7.67676H18.9213L14.3226 11.9328H0.873047V7.67676H0.87434Z" fill="white"/>
</mask>
<g mask="url(#mask0_2162_4936)">
<path fillRule="evenodd" clipRule="evenodd" d="M5.1377 7.67676H23.186L18.5872 11.9328H5.1377V7.67676Z" fill="#24A5EE"/>
</g>
<path fillRule="evenodd" clipRule="evenodd" d="M2.3635 21.8631L20.8204 4.777H0.875V0.520996H25.3403V0.593417V4.77571V6.26421L5.75176 24.1883L12.5968 31.6696L25.3403 20.0086V24.9449L14.9505 34.5561C13.2279 36.2231 12.1532 36.6576 10.3763 34.7255C7.57003 31.6761 4.79089 28.7094 1.93286 25.6212C0.59825 24.1793 0.95906 23.1641 2.3648 21.8631H2.3635Z" fill="white"/>
<mask id="mask1_2162_4936" style="mask-type:luminance" maskUnits="userSpaceOnUse" x="0" y="0" width="26" height="36">
<path d="M2.3635 21.8631L20.8204 4.777H0.875V0.520996H25.3403V0.593417V4.77571V6.26421L5.75176 24.1883L12.5968 31.6696L25.3403 20.0086V24.9449L14.9505 34.5561C13.2279 36.2231 12.1532 36.6576 10.3763 34.7255C7.57003 31.6761 4.79089 28.7094 1.93286 25.6212C0.59825 24.1793 0.95906 23.1641 2.3648 21.8631H2.3635Z" fill="white"/>
</mask>
<g mask="url(#mask1_2162_4936)">
<path fillRule="evenodd" clipRule="evenodd" d="M-19.6221 56.726L0.323359 38.2677H-19.6221V34.0117H4.84319V34.0854V38.2677V39.7549L-14.7453 57.6791L-7.90027 65.1604L4.84319 53.4993V58.4356L-8.10718 70.4199L-19.6221 57.9791V56.726Z" fill="black"/>
</g>
<path fillRule="evenodd" clipRule="evenodd" d="M10.1582 24.1679L25.3394 10.2773V16.0451L13.0305 27.3078L10.1582 24.1679Z" fill="#E3A23A"/>
</svg>
