<svg xmlns="http://www.w3.org/2000/svg" viewBox="0 0 24 24" width="24" height="24" fill="none" stroke="#155dfc" strokeWidth="4" strokeLinecap="round" strokeLinejoin="round">
  <!-- Main user figure -->
  <circle cx="12" cy="8" r="3"/>
  <path d="M6 21v-2a4 4 0 0 1 4-4h4a4 4 0 0 1 4 4v2"/>
  
  <!-- Admin crown/hat -->
  <path d="M9 8L10 5l2 2 2-2 1 3"/>
  <line x1="9" y1="8" x2="15" y2="8"/>
  
  <!-- Small gear accent -->
  <circle cx="18" cy="6" r="1.5"/>
  <path d="M18 4.5v1M18 6.5v1M16.9 5.4l0.7 0.7M19.4 7.9l0.7 0.7M16.9 6.6l0.7-0.7M19.4 4.1l0.7-0.7"/>
</svg>