<svg width="28" height="28" viewBox="0 0 28 28" fill="none" xmlns="http://www.w3.org/2000/svg">
<path d="M2.91992 26.6122C3.20941 19.7002 3.46283 14.4344 3.80664 6.99248C5.28017 6.98292 6.7537 6.97336 8.22723 6.96376V5.20445C8.22723 3.21241 8.26953 2.86343 8.59044 2.20834C9.21902 0.925204 10.7043 0.178912 12.4249 0.281676C14.1505 0.384736 15.4142 1.29886 15.8934 2.79066C15.9765 3.04928 15.9937 3.37134 16.0133 5.02888L16.0363 6.96501C16.857 6.96501 17.6776 6.96501 18.4983 6.96501L18.4967 5.22112C18.4959 4.26198 18.4731 3.30769 18.4464 3.10048C18.3491 2.34532 17.8877 1.71408 17.1926 1.38529C16.817 1.2076 16.6553 1.15882 16.1967 1.0849C15.8881 1.03517 15.8084 0.995018 15.5508 0.759606C15.3892 0.611906 15.1332 0.410811 14.9818 0.312719C14.8138 0.203895 14.7263 0.114639 14.7572 0.0837391C14.8448 -0.00387693 15.9373 -0.0311959 16.396 0.0427601C17.6749 0.248964 18.6774 0.933511 19.1501 1.92335C19.2697 2.17381 19.3971 2.50231 19.4332 2.65336C19.4749 2.82761 19.5088 3.66571 19.5261 4.9465L19.5532 6.96501C20.1924 6.96501 20.8316 6.96501 21.4707 6.96501L22.2459 7.78889C22.2622 7.81093 23.8039 6.97926 23.8039 6.97926C23.8374 7.01274 25.0981 25.2913 25.0765 25.4297C24.013 26.3934 23.1339 27.0481 21.9314 28L2.91992 26.6122ZM11.755 4.86412C11.7731 2.93287 11.7837 2.73661 11.8856 2.43367L11.9964 2.10411L12.3366 2.11367C12.608 2.12131 13.0608 2.21243 13.0607 2.25941C13.0606 2.26461 13.0051 2.40482 12.9373 2.57097C12.8182 2.86243 12.8133 2.94503 12.7969 4.91904L12.7799 6.96501C13.5143 6.96501 14.2487 6.96501 14.9831 6.96501V5.27241C14.9831 4.28604 14.9581 3.44474 14.9232 3.2561C14.7368 2.24763 13.9365 1.55739 12.7311 1.36538C11.3377 1.14341 9.96454 1.70731 9.50555 2.69004C9.30031 3.12947 9.27081 3.44977 9.27081 5.23756V6.96501C10.0923 6.96501 10.9139 6.96501 11.7354 6.96501L11.755 4.86412Z" fill="#00BCF2"/>
</svg>
