<svg width="275" height="227" viewBox="0 0 275 227" fill="none" xmlns="http://www.w3.org/2000/svg">
<rect width="275" height="227" rx="20" fill="white"/>
<g clip-path="url(#clip0_1916_109570)">
<path d="M87.401 125.113C84.6693 125.156 81.9377 125.306 79.2276 125.37L70.7316 178.157C70.7316 178.157 68.4732 182.319 79.2706 184.208C79.2706 184.208 85.8093 185.109 88.3043 181.032C89.896 178.436 92.0684 147.322 93.4234 125.22C91.4231 125.134 89.4228 125.049 87.4225 125.091L87.401 125.113Z" fill="#F68B1F"/>
<g style="mix-blend-mode:screen">
<path d="M83.2498 183.843C83.2498 183.843 83.1852 183.843 83.1422 183.843C79.9374 184.165 76.3239 182.899 74.6462 180.024C74.2376 179.337 73.9579 178.565 73.8504 177.771C73.6998 176.784 73.7859 175.775 73.8719 174.788C74.0655 172.364 74.3451 169.939 74.6892 167.514C75.399 162.6 76.3669 157.729 77.3778 152.88C78.3888 148.03 79.4212 143.181 80.26 138.31C81.0128 133.997 81.5936 129.641 81.8732 125.264C80.9913 125.307 80.1095 125.328 79.2276 125.35L70.7316 178.157C70.7316 178.157 68.4732 182.32 79.2706 184.208C79.2706 184.208 81.1849 184.466 83.3143 184.08C83.3143 183.994 83.2713 183.929 83.2498 183.843Z" fill="#F68B1F"/>
</g>
<g style="mix-blend-mode:multiply" opacity="0.71">
<path d="M87.4006 125.113C84.6689 125.156 81.9373 125.306 79.2272 125.37L77.8076 134.211C77.8076 134.211 77.9152 134.318 77.9797 134.361C80.5607 136.915 82.6686 139.919 83.9376 143.331C85.4002 147.257 85.5293 151.506 85.5938 155.669C85.6583 160.304 85.4433 164.939 85.0991 169.552C84.755 174.208 84.2818 178.843 83.8946 183.478C83.8946 183.65 83.8731 183.8 83.8516 183.972C85.5293 183.585 87.2715 182.749 88.3039 181.053C89.8956 178.457 92.068 147.343 93.423 125.242C91.4227 125.156 89.4224 125.07 87.4221 125.113H87.4006Z" fill="#F68B1F"/>
</g>
<path d="M80.8404 184.851C79.9155 184.851 79.2703 184.765 79.2057 184.765C74.2802 183.907 71.312 182.448 70.3441 180.452C69.7849 179.294 70.1075 178.307 70.2366 178.006L78.7971 124.855H79.2488C80.3457 124.812 81.4427 124.769 82.5396 124.726C84.1528 124.662 85.809 124.598 87.4436 124.576C89.53 124.533 91.6163 124.641 93.4661 124.705H94.0253L93.9823 125.284C91.8314 160.368 90.0892 179.208 88.7987 181.332C86.9274 184.379 83.0773 184.851 80.8834 184.851H80.8404ZM79.7005 125.907L71.269 178.328L71.226 178.414C71.226 178.414 70.8818 179.122 71.3335 180.002C71.9143 181.139 73.764 182.705 79.3778 183.693C79.4208 183.693 85.5724 184.486 87.8523 180.774C88.9923 178.907 90.8205 158.866 92.8423 125.778C91.1431 125.714 89.2719 125.649 87.4221 125.671C85.809 125.692 84.1528 125.756 82.5396 125.821C81.5932 125.864 80.6468 125.885 79.6789 125.928L79.7005 125.907Z" fill="#965214"/>
<path d="M187.223 25.0114C165.176 17.5226 133.515 10.8492 125.944 27.758C118.373 44.6882 119.104 98.3541 119.104 98.3541L176.963 121.636C176.963 121.636 196.88 81.4025 200.235 67.9913C203.591 54.5802 209.269 32.4787 187.223 25.0114ZM130.977 35.8261C133.408 30.0754 138.828 27.3932 145.625 26.6636L135.946 102.388L125.256 98.397C125.256 98.397 124.632 50.8251 130.977 35.8261ZM189.739 71.6606C186.921 83.5482 171.349 115.563 171.349 115.563L141.882 104.598L157.347 26.964C163.133 27.715 169.22 29.1742 174.941 30.9337L157.497 109.662L164.337 111.25L184.104 34.1095C200.278 41.3407 192.449 60.1807 189.739 71.6606Z" fill="#F68B1F"/>
<g style="mix-blend-mode:multiply">
<path d="M187.223 25.0114C165.176 17.5226 133.515 10.8492 125.944 27.758C118.373 44.6882 119.104 98.3541 119.104 98.3541L176.963 121.636C176.963 121.636 196.88 81.4025 200.235 67.9913C203.591 54.5802 209.269 32.4787 187.223 25.0114ZM130.977 35.8261C133.408 30.0754 138.828 27.3932 145.625 26.6636L135.946 102.388L125.256 98.397C125.256 98.397 124.632 50.8251 130.977 35.8261ZM189.739 71.6606C186.921 83.5482 171.349 115.563 171.349 115.563L141.882 104.598L157.347 26.964C163.133 27.715 169.22 29.1742 174.941 30.9337L157.497 109.662L164.337 111.25L184.104 34.1095C200.278 41.3407 192.449 60.1807 189.739 71.6606Z" fill="#F68B1F"/>
</g>
<path d="M177.243 122.345L176.77 122.152L118.567 98.7412V98.3764C118.567 98.2477 118.395 84.7507 119.147 69.3869C120.158 48.7016 122.288 34.6253 125.45 27.5442C128.934 19.7765 137.581 16.1287 151.174 16.708C163.671 17.2445 177.759 21.2356 187.395 24.5187C209.786 32.1147 204.172 54.5167 200.817 67.8849L200.752 68.1424C197.418 81.4677 177.651 121.508 177.436 121.894L177.221 122.345H177.243ZM119.664 98.0116L176.727 120.971C178.921 116.508 196.622 80.3304 199.72 67.8849L199.784 67.6274C203.247 53.7656 208.495 32.8228 187.051 25.5486C171.521 20.27 134.505 9.97028 126.439 28.0163C119.32 43.9165 119.599 93.3124 119.642 98.0331L119.664 98.0116ZM171.608 116.229L141.259 104.921L141.345 104.47L156.895 26.3426L157.39 26.407C162.703 27.0936 168.639 28.424 175.07 30.3981L175.544 30.5483L158.1 109.234L163.907 110.586L183.695 33.3378L184.276 33.5953C198.773 40.0756 194.536 55.6325 191.46 67.0051C191.008 68.7003 190.557 70.3096 190.213 71.7902C187.417 83.592 171.93 115.478 171.78 115.8L171.564 116.251L171.608 116.229ZM160.186 110.822L171.07 114.877C172.963 110.972 186.621 82.4547 189.202 71.5327C189.546 70.0307 189.998 68.4213 190.449 66.7262C193.547 55.3106 197.397 41.127 184.448 34.8613L164.725 111.873L160.186 110.822ZM142.506 104.234L156.96 109.62V109.534L174.296 31.2993C168.317 29.4969 162.746 28.2309 157.777 27.5657L142.506 104.234ZM136.398 103.119L124.718 98.7627V98.3979C124.697 96.4452 124.159 50.547 130.483 35.6124C132.784 30.1406 137.882 26.9649 145.582 26.128L146.27 26.0636L136.419 103.14L136.398 103.119ZM125.772 98.0116L135.473 101.617L144.98 27.2653C138.075 28.1665 133.537 31.1062 131.451 36.02C125.514 50.0535 125.729 93.527 125.772 98.0116Z" fill="#965214"/>
<path d="M142.636 22.1797L132.269 103.247L138.14 105.264L154.681 22.1797H142.636Z" fill="#F68B1F"/>
<g style="mix-blend-mode:multiply" opacity="0.4">
<path d="M135.387 78.8496L132.269 103.247L138.14 105.264L142.614 82.7764C140.119 81.6391 137.689 80.3302 135.387 78.8496Z" fill="#F68B1F"/>
</g>
<path d="M138.549 105.993L131.688 103.611L142.162 21.6426H155.347L138.549 105.993ZM132.87 102.882L137.731 104.556L154.014 22.7155H143.109L132.849 102.86L132.87 102.882Z" fill="#965214"/>
<path d="M171.909 28.252L154.014 108.998L160.853 110.586L181.33 30.7196L171.909 28.252Z" fill="#F68B1F"/>
<g style="mix-blend-mode:multiply" opacity="0.4">
<path d="M158.746 87.7109L154.035 108.997L160.875 110.585L166.532 88.5478C163.929 88.4191 161.327 88.1401 158.767 87.7109H158.746Z" fill="#F68B1F"/>
</g>
<path d="M161.262 111.228L153.39 109.405L171.5 27.5859L181.975 30.3111L181.846 30.8261L161.262 111.207V111.228ZM154.659 108.589L160.466 109.941L180.663 31.105L172.317 28.9378L154.659 108.611V108.589Z" fill="#965214"/>
<path d="M183.76 24.3668C161.713 16.878 130.052 10.2047 122.481 27.1134C114.91 44.0436 115.641 97.7096 115.641 97.7096L173.5 120.991C173.5 120.991 193.417 80.7579 196.773 67.3468C200.128 53.9357 205.806 31.8341 183.76 24.3668ZM186.255 70.9946C183.437 82.8822 167.865 114.897 167.865 114.897L121.771 97.7311C121.771 97.7311 121.148 50.1591 127.493 35.1601C133.838 20.1611 160.38 26.0834 178.856 32.7139C197.332 39.3444 189.072 59.107 186.255 70.9946Z" fill="#F68B1F"/>
<g style="mix-blend-mode:multiply" opacity="0.4">
<path d="M128.676 25.8045C131.967 23.4656 135.753 22.0279 139.732 21.4056C144.937 20.5902 150.206 20.955 155.433 21.5344C164.295 22.5214 173.307 23.53 181.674 26.7701C185.438 28.2292 189.18 30.1175 192.192 32.8427C194.923 35.3103 197.031 38.4431 198.494 41.812C199.075 43.1424 199.569 44.5157 199.956 45.9105C199.569 36.8982 195.784 28.4438 183.739 24.3668C161.692 16.878 130.031 10.2047 122.46 27.1134C121.406 29.4523 120.524 32.4779 119.771 35.9755C122.094 32.0487 124.912 28.4653 128.655 25.783L128.676 25.8045Z" fill="#F68B1F"/>
</g>
<g style="mix-blend-mode:multiply" opacity="0.4">
<path d="M180.147 87.9034C174.705 100.842 167.865 114.919 167.865 114.919L121.772 97.7525C121.772 97.7525 121.578 82.6033 122.546 66.7245C120.61 63.8706 119.083 60.7378 118.072 57.3904C117.749 56.2746 117.47 55.1373 117.233 54.0215C115.319 74.6853 115.642 97.7525 115.642 97.7525L173.5 121.034C173.5 121.034 182.964 101.894 189.955 85.6074C186.771 86.6588 183.48 87.4313 180.147 87.9248V87.9034Z" fill="#F68B1F"/>
</g>
<path d="M173.78 121.7L173.307 121.507L115.104 98.0967V97.7319C115.104 97.6031 114.932 84.1062 115.685 68.7424C116.696 48.0571 118.825 33.9808 121.987 26.8997C125.45 19.132 134.118 15.4841 147.711 16.0635C160.208 16.5999 174.296 20.5911 183.932 23.8741C206.323 31.4702 200.709 53.8721 197.354 67.2404L197.289 67.4978C193.955 80.8231 174.189 120.863 173.974 121.25L173.758 121.7H173.78ZM116.179 97.3671L173.242 120.327C175.436 115.864 193.138 79.6859 196.235 67.2404L196.3 66.9829C199.763 53.1211 205.011 32.1783 183.566 24.9041C168.037 19.6255 131.02 9.32574 122.955 27.3718C115.835 43.272 116.115 92.6678 116.158 97.3886L116.179 97.3671ZM168.145 115.585L121.234 98.1181V97.7533C121.212 95.8007 120.675 49.9025 126.998 34.9678C129.945 28.0155 140.613 18.4453 179.05 32.2212C195.676 38.1865 191.267 54.4515 188.04 66.3391C187.589 68.0343 187.137 69.6436 186.793 71.1242C183.997 82.926 168.51 114.812 168.36 115.134L168.145 115.585ZM122.309 97.3671L167.585 114.233C169.478 110.328 183.136 81.8102 185.717 70.8882C186.061 69.3861 186.513 67.7768 186.965 66.0602C190.256 53.9365 194.342 38.8731 178.662 33.2512C165.671 28.5949 134.72 19.4753 127.988 35.397C122.051 49.4304 122.266 92.9039 122.309 97.3886V97.3671Z" fill="#965214"/>
<path d="M129.601 125.992L126.374 204.313C126.374 204.313 124.632 208.712 135.559 209.334C135.559 209.334 142.14 209.463 144.141 205.129C146.141 200.794 141.28 127.108 141.28 127.108L129.579 126.014L129.601 125.992Z" fill="#F68B1F"/>
<g style="mix-blend-mode:screen">
<path d="M131.709 207.94C129.988 206.609 128.955 204.549 128.611 202.446C128.375 201.03 128.461 199.571 128.482 198.133C128.504 196.352 128.568 194.571 128.633 192.79C128.783 189.25 128.998 185.709 129.192 182.19C129.579 175.173 129.665 168.157 130.031 161.162C130.375 154.574 130.956 148.008 131.343 141.42C131.644 136.356 131.816 131.206 131.171 126.164L129.601 126.014L126.374 204.335C126.374 204.335 124.632 208.734 135.559 209.356C135.559 209.356 135.795 209.356 136.204 209.356C134.591 209.442 133.021 209.012 131.687 208.004L131.709 207.94Z" fill="#F68B1F"/>
</g>
<g style="mix-blend-mode:multiply" opacity="0.71">
<path d="M141 127.215L129.299 126.121L128.052 156.72C128.202 156.806 128.374 156.892 128.525 156.956C130.16 157.75 131.923 158.243 133.537 159.102C135.15 159.982 136.354 161.226 137.042 162.943C137.731 164.702 137.86 166.655 137.881 168.543C137.881 169.487 137.881 170.431 137.881 171.376C137.881 172.363 137.967 173.35 138.032 174.337C138.311 179.422 138.742 184.486 139.172 189.572C139.58 194.378 140.011 199.163 140.183 203.991C140.247 205.472 140.29 206.953 140.376 208.455C141.796 207.832 143.151 206.845 143.882 205.257C145.883 200.923 141.022 127.237 141.022 127.237L141 127.215Z" fill="#F68B1F"/>
</g>
<path d="M135.365 209.999H135.279C130.289 209.72 127.17 208.626 125.965 206.759C125.256 205.664 125.471 204.656 125.557 204.334L128.805 125.52L141.538 126.7V127.15C141.774 130.154 146.42 201.03 144.377 205.45C142.355 209.827 136.247 209.977 135.365 209.977V209.999ZM129.837 126.721L126.632 204.57L126.589 204.656C126.589 204.656 126.331 205.385 126.869 206.222C127.579 207.274 129.6 208.626 135.3 208.926C135.343 208.926 141.538 208.99 143.366 205.021C144.958 201.587 141.86 148.501 140.484 127.708L129.816 126.721H129.837Z" fill="#965214"/>
<path d="M158.66 111.98L162.768 190.259C162.768 190.259 161.435 194.808 172.383 194.4C172.383 194.4 178.965 193.906 180.535 189.4C182.126 184.894 170.382 111.98 170.382 111.98H158.639H158.66Z" fill="#F68B1F"/>
<g style="mix-blend-mode:screen">
<path d="M171.867 193.627C169.823 193.456 167.737 192.812 166.339 191.246C165.521 190.344 165.027 189.229 164.812 188.048C164.554 186.589 164.597 185.087 164.446 183.607C164.059 180.088 163.758 176.547 163.5 173.006C162.983 165.904 162.639 158.78 162.317 151.656C161.994 144.639 161.585 137.644 161.048 130.649C160.574 124.426 160.101 118.203 160.101 111.959H158.682L162.79 190.237C162.79 190.237 161.456 194.786 172.404 194.378C172.404 194.378 174.362 194.228 176.383 193.37C174.899 193.627 173.372 193.735 171.888 193.606L171.867 193.627Z" fill="#F68B1F"/>
</g>
<g style="mix-blend-mode:multiply" opacity="0.71">
<path d="M170.404 111.98H158.66L160.531 147.6C162.059 146.592 164.166 146.291 165.93 146.828C167.436 147.3 168.511 148.566 169.178 149.939C169.952 151.484 170.318 153.222 170.576 154.917C170.834 156.72 170.92 158.522 170.985 160.325C171.135 164.788 171.479 169.251 171.867 173.693C172.361 179.422 172.985 185.152 173.695 190.859C173.824 191.932 173.974 193.027 174.103 194.099C176.168 193.627 179.502 192.426 180.578 189.379C182.169 184.873 170.425 111.959 170.425 111.959L170.404 111.98Z" fill="#F68B1F"/>
</g>
<path d="M171.049 194.957C166.833 194.957 164.102 194.163 162.854 192.575C162.058 191.545 162.166 190.537 162.23 190.193L158.101 111.422H170.877L170.941 111.872C171.415 114.855 182.685 184.979 181.051 189.55C179.373 194.335 172.705 194.871 172.425 194.893C171.952 194.893 171.479 194.914 171.027 194.914L171.049 194.957ZM159.241 112.516L163.327 190.322V190.408C163.327 190.408 163.112 191.159 163.736 191.932C164.532 192.919 166.683 194.056 172.382 193.841C172.425 193.841 178.598 193.326 180.061 189.206C181.309 185.644 173.264 133.073 169.973 112.516H159.262H159.241Z" fill="#965214"/>
<path d="M117.492 108.183C114.782 108.505 112.093 108.955 109.383 109.32L106.63 162.707C106.63 162.707 104.845 167.106 115.771 167.814C115.771 167.814 122.353 168.007 124.418 163.694C125.73 160.926 124.525 129.77 123.493 107.668C121.492 107.797 119.492 107.925 117.513 108.183H117.492Z" fill="#F68B1F"/>
<g style="mix-blend-mode:screen">
<path d="M109.899 165.389C109.082 164.145 108.673 162.707 108.523 161.248C108.415 160.261 108.458 159.274 108.48 158.265C108.523 156.978 108.587 155.669 108.652 154.381C108.953 149.189 109.469 143.996 109.899 138.803C110.114 136.185 110.286 133.567 110.329 130.928C110.394 128.289 110.372 125.628 110.372 122.989C110.372 118.354 110.394 113.719 110.867 109.105C110.372 109.17 109.856 109.256 109.362 109.32L106.608 162.707C106.608 162.707 105.318 165.883 111.641 167.278C110.975 166.741 110.372 166.119 109.878 165.389H109.899Z" fill="#F68B1F"/>
</g>
<g style="mix-blend-mode:multiply" opacity="0.71">
<path d="M123.472 107.668C121.471 107.797 119.471 107.925 117.492 108.183C114.782 108.505 112.093 108.955 109.383 109.32L107.297 149.704C108.351 150.305 109.426 150.905 110.48 151.549C112.265 152.644 113.965 153.952 115.105 155.755C116.309 157.665 116.89 160.025 117.298 162.214C117.643 164.016 117.836 165.819 118.008 167.643C120.116 167.321 123.127 166.377 124.396 163.694C125.708 160.926 124.504 129.77 123.472 107.668Z" fill="#F68B1F"/>
</g>
<path d="M115.922 168.371C115.922 168.371 115.771 168.371 115.749 168.371C110.759 168.05 107.641 166.912 106.479 165.045C105.791 163.951 106.006 162.943 106.114 162.621L108.888 108.869L109.34 108.805C110.437 108.654 111.512 108.504 112.609 108.332C114.201 108.096 115.836 107.86 117.449 107.667C119.363 107.431 121.234 107.302 123.45 107.152L124.009 107.109V107.667C125.687 142.772 125.966 161.698 124.912 163.951C122.912 168.178 117.083 168.393 115.943 168.393L115.922 168.371ZM109.899 109.792L107.146 162.814L107.103 162.9C107.103 162.9 106.845 163.629 107.383 164.466C108.071 165.539 110.093 166.891 115.771 167.256C115.814 167.256 122.009 167.384 123.88 163.436C124.826 161.462 124.482 141.335 122.933 108.225C120.955 108.354 119.277 108.483 117.535 108.697C115.922 108.89 114.287 109.126 112.717 109.362C111.77 109.491 110.824 109.641 109.878 109.77L109.899 109.792Z" fill="#965214"/>
<path d="M177.866 119.467L150.206 118.802L119.728 110.198C119.728 110.198 113.469 106.872 104.736 110.927C100.843 112.73 95.38 115.197 90.5405 117.365L74.1292 116.957V127.879C73.8711 130.175 75.6564 133.029 82.3671 136.183C91.2288 140.367 123.019 153.457 123.019 153.457C123.019 153.457 135.472 157.684 143.28 154.143C151.088 150.603 172.468 137.32 172.468 137.32C172.468 137.32 177.436 134.488 177.823 131.462H177.845V119.489L177.866 119.467Z" fill="#F68B1F"/>
<g style="mix-blend-mode:screen">
<path d="M138.204 154.98C134.569 154.272 131.02 153.071 127.536 151.826C120.631 149.401 113.878 146.547 107.188 143.608C103.811 142.127 100.435 140.625 97.0576 139.166C94.4121 138.029 91.745 136.934 89.1424 135.69C84.9912 133.694 80.8185 131.269 78.0223 127.536C76.6673 125.733 75.6994 123.63 75.2047 121.42C74.882 119.961 74.7745 118.459 74.796 116.957H74.1292V127.858C73.8711 130.154 75.6564 133.007 82.3671 136.162C91.2288 140.346 123.019 153.435 123.019 153.435C123.019 153.435 132.074 156.504 139.581 155.216C139.129 155.152 138.656 155.066 138.204 154.98Z" fill="#F68B1F"/>
</g>
<g style="mix-blend-mode:multiply" opacity="0.4">
<path d="M150.207 118.802L119.729 110.198C119.729 110.198 113.47 106.872 104.737 110.927C100.844 112.73 95.3806 115.197 90.5411 117.365L74.1299 116.957V118.244C75.8076 121.27 78.4316 123.78 81.1633 125.84C85.1854 128.845 89.6808 131.162 94.2191 133.243C96.284 134.188 98.3488 135.11 100.435 136.033C103.963 137.578 107.447 139.209 110.953 140.797C112.674 141.59 114.416 142.384 116.158 143.157C117.018 143.543 117.879 143.929 118.761 144.251C119.557 144.552 120.374 144.809 121.191 145.088C122.826 145.625 124.461 146.14 126.052 146.783C127.343 147.298 128.719 147.813 129.773 148.714C131.58 150.259 132.526 152.684 133.15 154.916C133.193 155.109 133.236 155.281 133.279 155.474C136.656 155.71 140.313 155.495 143.281 154.143C151.088 150.603 172.468 137.32 172.468 137.32C172.468 137.32 177.437 134.488 177.824 131.462H177.845V119.489L150.185 118.824L150.207 118.802Z" fill="#F68B1F"/>
</g>
<g style="mix-blend-mode:multiply" opacity="0.4">
<path d="M142.184 153.929C142.184 152.04 142.27 150.109 143.023 148.328C143.41 147.427 143.926 146.655 144.593 145.946C145.238 145.238 145.969 144.616 146.722 144.015C148.228 142.835 149.862 141.848 151.519 140.861C153.347 139.788 155.175 138.694 157.003 137.621C161.068 135.196 165.134 132.771 169.177 130.304C170.855 129.274 172.49 128.222 174.189 127.235C175.436 126.506 176.684 125.798 177.91 125.047V119.489L150.25 118.824L119.772 110.219C119.772 110.219 113.512 106.893 104.78 110.949C100.887 112.751 95.4235 115.219 90.584 117.386L79.3779 117.107C82.1311 120.712 85.4864 123.845 89.186 126.463C94.1975 130.025 99.7468 132.75 105.404 135.089C111.06 137.428 116.846 139.38 122.611 141.44C123.837 141.869 125.063 142.342 126.31 142.728C127.73 143.157 129.149 143.565 130.569 144.037C132.913 144.831 135.559 145.796 136.699 148.157C137.796 150.367 137.968 152.985 138.076 155.431C139.517 155.302 140.915 155.023 142.227 154.572C142.227 154.358 142.227 154.143 142.227 153.929H142.184Z" fill="#F68B1F"/>
</g>
<path d="M135.58 156.096C129.278 156.096 123.234 154.079 122.869 153.951C122.525 153.8 90.9281 140.776 82.1525 136.656C76.1515 133.823 73.2693 130.841 73.6135 127.815V116.399L90.4549 116.807C96.5419 114.082 101.274 111.936 104.543 110.413C113.082 106.443 119.277 109.318 119.965 109.683L150.314 118.266L178.448 118.953V132.021H178.318C177.523 135.068 172.984 137.686 172.791 137.793C172.597 137.922 151.303 151.118 143.56 154.637C141.151 155.732 138.355 156.118 135.602 156.118L135.58 156.096ZM74.6889 117.515V127.879C74.4093 130.433 77.1409 133.115 82.6042 135.69C91.3583 139.81 122.912 152.835 123.234 152.964C123.32 152.985 135.537 157.062 143.066 153.65C150.744 150.174 171.973 136.999 172.188 136.849C172.253 136.806 176.942 134.102 177.286 131.377V131.184L177.308 119.983L150.034 119.296L119.449 110.649C119.449 110.649 113.297 107.516 104.952 111.378C101.683 112.902 96.886 115.069 90.756 117.816L90.6485 117.859L74.6674 117.472L74.6889 117.515Z" fill="#965214"/>
<path d="M169.844 110.628L121.836 97.0664C121.836 97.0664 113.469 95.3712 104.736 99.4053C96.0037 103.439 79.4204 110.799 79.4204 110.799C79.4204 110.799 65.6763 116.808 82.3671 124.661C91.2288 128.845 123.019 141.935 123.019 141.935C123.019 141.935 135.472 146.162 143.28 142.621C151.088 139.081 172.468 125.798 172.468 125.798C172.468 125.798 177.565 122.322 177.565 118.395C177.565 114.469 169.822 110.628 169.822 110.628H169.844Z" fill="#F68B1F"/>
<g style="mix-blend-mode:multiply" opacity="0.4">
<path d="M169.844 110.628L121.836 97.0664C121.836 97.0664 113.469 95.3712 104.736 99.4053C96.0037 103.439 79.4204 110.799 79.4204 110.799C79.4204 110.799 65.6763 116.808 82.3671 124.661C91.2288 128.845 123.019 141.935 123.019 141.935C123.019 141.935 135.472 146.162 143.28 142.621C151.088 139.081 172.468 125.798 172.468 125.798C172.468 125.798 177.565 122.322 177.565 118.395C177.565 114.469 169.822 110.628 169.822 110.628H169.844ZM153.26 118.181C152.658 119.983 151.131 121.335 149.625 122.408C147.603 123.824 145.302 124.876 143.001 125.755C140.419 126.764 137.752 127.558 135.064 128.245C132.59 128.867 130.095 129.403 127.579 129.811C125.793 130.111 124.008 130.369 122.201 130.433C121.04 130.476 119.857 130.347 118.696 130.219C116.566 129.983 114.437 129.661 112.329 129.296C109.597 128.845 106.866 128.309 104.156 127.73C101.252 127.107 98.3697 126.378 95.509 125.541C92.885 124.768 90.2824 123.889 87.7659 122.794C85.8085 121.936 83.8297 120.949 82.2166 119.511C81.1196 118.546 80.1087 117.215 80.1732 115.67C80.3023 112.945 83.3135 111.507 85.4644 110.52C87.0561 109.791 88.7122 109.169 90.3469 108.525C92.3257 107.731 94.197 106.744 96.1543 105.907C99.4882 104.491 102.887 103.289 106.263 102.002C109.167 100.5 112.2 99.2765 115.448 98.8259C117.771 98.5041 120.115 98.5899 122.417 99.0405C123.6 99.2765 124.761 99.6199 125.944 99.9632C127.084 100.285 128.224 100.607 129.364 100.95C133.902 102.281 138.419 103.74 142.635 105.907C144.721 106.98 146.722 108.224 148.55 109.684C149.862 110.714 151.174 111.829 152.163 113.16C153.239 114.597 153.819 116.4 153.217 118.159L153.26 118.181Z" fill="#F68B1F"/>
</g>
<g style="mix-blend-mode:multiply" opacity="0.4">
<path d="M169.844 110.627L158.273 107.365C159.068 107.73 159.886 108.095 160.66 108.502C162.252 109.296 163.865 110.112 165.349 111.099C166.769 112.043 168.231 113.223 168.898 114.833C169.565 116.442 169.092 117.987 168.059 119.339C165.822 122.257 162.316 123.952 159.413 126.098C155.455 129.038 151.626 132.149 147.475 134.831C143.475 137.406 139.001 139.767 134.226 140.389C128.612 141.118 123.02 139.745 117.664 138.179C115.147 137.449 112.674 136.677 110.136 135.99C108.673 135.582 107.232 135.196 105.77 134.788C114.932 138.629 123.02 141.955 123.02 141.955C123.02 141.955 135.473 146.182 143.281 142.642C151.089 139.101 172.468 125.819 172.468 125.819C172.468 125.819 177.566 122.343 177.566 118.416C177.566 114.489 169.823 110.648 169.823 110.648L169.844 110.627Z" fill="#F68B1F"/>
</g>
<path d="M135.58 144.574C129.278 144.574 123.234 142.557 122.869 142.428C122.525 142.278 90.9281 129.253 82.1525 125.133C76.4311 122.429 73.5489 119.597 73.5704 116.7C73.635 112.773 78.9907 110.392 79.2057 110.284C79.3778 110.22 95.8751 102.881 104.5 98.8903C113.297 94.8133 121.578 96.4441 121.922 96.5085L170.059 110.113C170.382 110.263 178.103 113.997 178.103 118.374C178.103 122.751 172.984 126.077 172.769 126.228C172.533 126.378 151.239 139.574 143.496 143.093C141.087 144.188 138.29 144.574 135.537 144.574H135.58ZM117.405 97.2595C114.222 97.2595 109.641 97.753 104.973 99.8988C96.3483 103.89 79.8295 111.229 79.6574 111.293C79.6144 111.314 74.7104 113.503 74.6674 116.722C74.6244 119.125 77.3775 121.7 82.6256 124.168C91.3797 128.287 122.933 141.312 123.256 141.441C123.342 141.463 135.559 145.54 143.087 142.128C150.766 138.652 171.995 125.455 172.21 125.326C172.231 125.326 177.071 121.979 177.071 118.395C177.071 115.348 171.78 112.151 169.672 111.143L121.707 97.5813C121.707 97.5813 120.008 97.2595 117.405 97.2595Z" fill="#965214"/>
</g>
<defs>
<clipPath id="clip0_1916_109570">
<rect width="134" height="194" fill="white" transform="translate(70 16)"/>
</clipPath>
</defs>
</svg>
