<svg width="1382" height="76" viewBox="0 0 1382 76" fill="none" xmlns="http://www.w3.org/2000/svg">
<path opacity="0.4" d="M0 0.219727C0 0.219727 321.376 1.55841 305.515 11.1989C289.654 20.8394 249.959 31.6887 331.659 33.1872C413.359 34.6857 1180.03 40.1603 1383.26 11.1989V25.6546C1383.26 25.6546 727.371 78.0329 526.236 75.0858C325.101 72.1388 544.515 50.0605 432.945 54.5761C321.376 59.0916 67.0159 57.9827 0 48.582L0 0.219727Z" fill="#FFFEFD"/>
<path d="M1334.81 10.4099C1328.62 10.4099 1323.08 11.6486 1319.27 13.6067C1309.84 6.46376 1292.76 1.68848 1273.21 1.68848C1253.67 1.68848 1237.72 6.14408 1228.09 12.8874C1221.51 8.95131 1211.17 6.41382 1199.53 6.41382C1185.11 6.41382 1172.67 10.31 1166.92 15.9344H1353.72C1350.38 12.6776 1343.17 10.4099 1334.81 10.4099Z" fill="#FFFEFD"/>
<path d="M691.946 14.1263C687.044 14.1263 682.643 15.1054 679.614 16.6538C670.29 9.24116 652.838 4.24609 632.838 4.24609C615.147 4.24609 599.483 8.14225 589.635 14.1663C582.772 10.7397 572.925 8.59181 561.988 8.59181C549.025 8.59181 537.63 11.5988 530.876 16.1743C527.717 14.7657 523.425 13.8866 518.654 13.8866C511.595 13.8866 505.517 15.7947 502.728 18.532H707.044C704.386 15.9346 698.656 14.1363 691.989 14.1363L691.946 14.1263Z" fill="#FFFEFD"/>
</svg>