<svg width="1343" height="75" viewBox="0 0 1343 75" fill="none" xmlns="http://www.w3.org/2000/svg">
<g style="mix-blend-mode:overlay">
<path d="M722.217 30.8802C717.315 30.8802 712.915 31.8593 709.886 33.4078C700.562 25.9951 683.11 21 663.11 21C645.419 21 629.755 24.8962 619.907 30.9202C613.044 27.4936 603.197 25.3457 592.26 25.3457C579.297 25.3457 567.902 28.3527 561.148 32.9282C557.989 31.5196 553.697 30.6405 548.926 30.6405C541.867 30.6405 535.789 32.5486 533 35.2859H737.316C734.658 32.6885 728.928 30.8902 722.261 30.8902L722.217 30.8802Z" fill="#FFFEFD"/>
</g>
<g style="mix-blend-mode:overlay" opacity="0.11">
<path d="M-5 0C-5 0 308.184 1.33893 292.727 10.9812C277.271 20.6235 238.587 31.4748 318.205 32.9736C397.823 34.4724 1144.95 39.9481 1343 10.9812V25.4397C1343 25.4397 703.83 77.8278 507.822 74.8801C311.814 71.9325 525.635 49.8501 416.91 54.3665C308.184 58.8829 60.3076 57.7738 -5 48.3713L-5 0Z" fill="#FFFEFD" fill-opacity="0.68"/>
</g>
</svg>