<svg width="1384" height="116" viewBox="0 0 1384 116" fill="none" xmlns="http://www.w3.org/2000/svg">
<!-- Main background cloud layer -->
<path d="M0 20.22C0 20.22 1113.1 24.7156 1384 14.226V0H0V20.22Z" fill="#01295d"/>

<!-- Secondary flowing cloud layer -->
<path opacity="0.8" d="M0 31.1992C0 31.1992 791.14 62.1786 1383.26 54.686V84.6565C1383.26 84.6565 389.917 123.378 0 107.764V31.1992Z" fill="#01295d"/>

<!-- Complex middle cloud formation -->
<path opacity="0.9" d="M0 20.2197C0 20.2197 321.376 21.5584 305.515 31.1989C289.654 40.8394 249.959 51.6887 331.659 53.1872C413.359 54.6857 1180.03 60.1603 1383.26 31.1989V45.6546C1383.26 45.6546 727.371 98.0329 526.236 95.0858C325.101 92.1388 544.515 70.0605 432.945 74.5761C321.376 79.0916 67.0159 77.9827 0 68.582L0 20.2197Z" fill="#024cad"/>

<!-- Detailed cloud formations (thick clouds) -->
<path d="M1334.81 30.4099C1328.62 30.4099 1323.08 31.6486 1319.27 33.6067C1309.84 26.4638 1292.76 21.6885 1273.21 21.6885C1253.67 21.6885 1237.72 26.1441 1228.09 32.8874C1221.51 28.9513 1211.17 26.4138 1199.53 26.4138C1185.11 26.4138 1172.67 30.31 1166.92 35.9344H1353.72C1350.38 32.6776 1343.17 30.4099 1334.81 30.4099Z" fill="#024cad"/>

<path d="M691.946 34.1263C687.044 34.1263 682.643 35.1054 679.615 36.6538C670.29 29.2412 652.839 24.2461 632.839 24.2461C615.148 24.2461 599.483 28.1422 589.636 34.1663C582.773 30.7397 572.925 28.5918 561.988 28.5918C549.025 28.5918 537.631 31.5988 530.877 36.1743C527.718 34.7657 523.426 33.8866 518.655 33.8866C511.596 33.8866 505.517 35.7947 502.729 38.532H707.044C704.386 35.9346 698.656 34.1363 691.99 34.1363L691.946 34.1263Z" fill="#024cad"/>

<path d="M851.511 109.892C845.542 109.892 840.139 111.001 836.174 112.769C827.677 107.025 813.363 103.249 797.088 103.249C783.341 103.249 770.988 105.956 762.36 110.252C749.985 102.689 730.29 97.7939 708.09 97.7939C682.97 97.7939 661.052 104.068 649.331 113.379C645.518 111.44 639.984 110.212 633.841 110.212C625.474 110.212 618.263 112.469 614.93 115.736H871.533C868.004 112.29 860.379 109.892 851.533 109.892H851.511Z" fill="#024cad"/>

<!-- Additional wispy cloud details -->
<path opacity="0.7" d="M200 45C200 45 350 48 450 42C550 36 650 40 750 35C850 30 950 33 1100 28C1200 25 1300 22 1384 20V25C1384 25 1200 30 1100 33C950 38 850 35 750 40C650 45 550 41 450 47C350 53 200 50 200 45Z" fill="#01295d"/>

<path opacity="0.6" d="M0 85C0 85 150 88 250 82C350 76 450 80 550 75C650 70 750 73 850 68C950 65 1050 62 1200 58C1300 56 1384 54 1384 54V62C1384 62 1300 65 1200 67C1050 71 950 74 850 77C750 82 650 79 550 84C450 89 350 85 250 91C150 97 0 94 0 85Z" fill="#01295d"/>
</svg>