<svg width="28" height="28" viewBox="0 0 28 28" fill="none" xmlns="http://www.w3.org/2000/svg">
<path d="M26.9279 25.6784C26.8547 25.9807 26.6997 26.2569 26.4798 26.4768C26.2599 26.6967 25.9836 26.8517 25.6814 26.9249C17.9594 28.3544 10.0406 28.3544 2.31864 26.9249C2.01639 26.8517 1.74017 26.6967 1.52027 26.4768C1.30037 26.2569 1.14531 25.9807 1.07211 25.6784C-0.357371 17.9571 -0.357371 10.039 1.07211 2.31763C1.14531 2.01538 1.30037 1.73914 1.52027 1.51924C1.74017 1.29934 2.01639 1.14428 2.31864 1.07109C10.0406 -0.358331 17.9594 -0.358331 25.6814 1.07109C25.9836 1.14428 26.2599 1.29934 26.4798 1.51924C26.6997 1.73914 26.8547 2.01538 26.9279 2.31763C28.3575 10.0389 28.3575 17.9571 26.9279 25.6784ZM22.6793 18.6275C21.3931 17.4866 19.9331 16.5582 18.3545 15.8773C19.1942 15.0481 19.7671 13.9869 19.9998 12.8299C20.2324 11.6728 20.1141 10.4727 19.66 9.38337C19.206 8.29403 18.4369 7.36515 17.4514 6.71586C16.4659 6.06657 15.3089 5.72646 14.1288 5.73915C12.9487 5.75184 11.7992 6.11675 10.8279 6.78709C9.85658 7.45742 9.10764 8.40263 8.67712 9.50148C8.24661 10.6003 8.15414 11.8027 8.41159 12.9545C8.66903 14.1062 9.26466 15.1548 10.1221 15.9658C8.62771 16.643 7.24322 17.5401 6.01466 18.6275C0.460009 23.4101 3.23733 25.8014 14.3466 25.8014C25.4559 25.8014 28.2335 23.4101 22.6793 18.6275ZM14.3473 14.69C13.3859 14.69 12.6067 14.2239 12.6067 13.6485C12.6088 13.5584 12.6297 13.4697 12.6679 13.3881C12.6291 13.2474 12.6086 13.1024 12.6067 12.9565H13.0545C13.4469 12.7273 13.8932 12.6066 14.3476 12.6066C14.802 12.6066 15.2483 12.7273 15.6407 12.9565H16.0885C16.0867 13.1024 16.0661 13.2474 16.0273 13.3881C16.0655 13.4697 16.0864 13.5584 16.0885 13.6485C16.0885 14.2219 15.3074 14.688 14.3466 14.688L14.3473 14.69Z" fill="#F7C164"/>
</svg>
