<svg width="60" height="61" viewBox="0 0 60 61" fill="none" xmlns="http://www.w3.org/2000/svg">
<rect x="3" y="3.5" width="54" height="54" rx="27" fill="#207EC5"/>
<rect x="3" y="3.5" width="54" height="54" rx="27" stroke="#F6F6F6" strokeWidth="6"/>
<g clip-path="url(#clip0_2892_28345)">
<path d="M26.2622 43.8746C26.2622 44.2186 26.5436 44.5 26.8876 44.5H36.1313C36.4753 44.5 36.7567 44.2186 36.7567 43.8746V42.4424H26.2622V43.8746Z" fill="#F6F6F6"/>
<path d="M26.053 26.5974L26.0562 22.0224C26.0562 21.494 26.2563 20.9999 26.6222 20.6309C27.0287 20.2244 27.6104 19.993 28.2233 19.993C28.7017 19.993 29.1614 20.1399 29.5179 20.4026C29.9494 20.7216 30.2183 21.2031 30.2746 21.7535C30.2746 21.766 30.5216 24.152 30.7437 26.2878C32.2978 25.3747 33.3454 23.6861 33.3454 21.7535C33.3454 18.8516 30.9938 16.5 28.0919 16.5C25.19 16.5 22.8384 18.8516 22.8384 21.7535C22.8353 23.93 24.1611 25.8 26.053 26.5974Z" fill="#F6F6F6"/>
<path d="M38.3955 32.5668C38.3955 31.957 38.0046 31.416 37.423 31.2284C35.6875 30.6624 32.1851 29.5335 31.6503 29.4272C31.4846 29.3959 31.322 29.3803 31.1657 29.3803C30.7435 29.3803 30.3745 29.496 30.1525 29.693H30.1493C30.1493 29.693 30.1493 29.693 30.1493 29.6898C30.1462 29.6648 29.3395 21.8627 29.3395 21.8502C29.2738 21.2248 28.7547 20.9277 28.2199 20.9277C27.6133 20.9277 26.9879 21.3092 26.991 22.0191L26.9847 34.6619C26.9847 34.812 26.8753 34.9371 26.7252 34.959C26.7221 34.959 26.7221 34.959 26.7189 34.959C26.7065 34.9621 26.6908 34.9621 26.6783 34.9621C26.6752 34.9621 26.672 34.9621 26.6689 34.9621C26.2436 34.9496 25.2836 34.9371 24.3486 33.5831C24.2235 33.4048 24.1109 33.2422 24.0077 33.0921C23.6825 32.6262 23.2479 32.4261 22.8382 32.4261C22.119 32.4261 21.4717 33.0483 21.628 33.9771C21.8532 35.3311 23.3354 38.4863 26.2561 41.4446H36.7506L37.8107 39.6528C38.1891 39.018 38.3892 38.2925 38.3892 37.5513L38.3955 32.5668Z" fill="#F6F6F6"/>
</g>
<defs>
<clipPath id="clip0_2892_28345">
<rect width="28" height="28" fill="white" transform="translate(16 16.5)"/>
</clipPath>
</defs>
</svg>
