<svg width="16" height="16" viewBox="0 0 16 16" fill="none" xmlns="http://www.w3.org/2000/svg">
<path d="M2.66699 12.6663V11.333H4.00033V6.66634C4.00033 5.74412 4.2781 4.92745 4.83366 4.21634C5.38921 3.49412 6.11144 3.0219 7.00033 2.79967V2.33301C7.00033 2.05523 7.09477 1.8219 7.28366 1.63301C7.48366 1.43301 7.72255 1.33301 8.00033 1.33301C8.2781 1.33301 8.51144 1.43301 8.70033 1.63301C8.90033 1.8219 9.00033 2.05523 9.00033 2.33301V2.79967C9.88922 3.0219 10.6114 3.49412 11.167 4.21634C11.7225 4.92745 12.0003 5.74412 12.0003 6.66634V11.333H13.3337V12.6663H2.66699ZM8.00033 14.6663C7.63366 14.6663 7.31699 14.5386 7.05033 14.283C6.79477 14.0163 6.66699 13.6997 6.66699 13.333H9.33366C9.33366 13.6997 9.20033 14.0163 8.93366 14.283C8.6781 14.5386 8.36699 14.6663 8.00033 14.6663ZM5.33366 11.333H10.667V6.66634C10.667 5.93301 10.4059 5.30523 9.88366 4.78301C9.36144 4.26078 8.73366 3.99967 8.00033 3.99967C7.26699 3.99967 6.63921 4.26078 6.11699 4.78301C5.59477 5.30523 5.33366 5.93301 5.33366 6.66634V11.333Z" fill="#4C4F55"/>
</svg>
