<svg width="151" height="188" viewBox="0 0 151 188" fill="none" xmlns="http://www.w3.org/2000/svg">
<g clip-path="url(#clip0_6216_75277)">
<path d="M150.5 97.1011C150.5 140.227 116.922 174.919 75.5 174.919C34.078 174.919 0.5 139.959 0.5 96.8362C0.5 53.7138 34.078 18.7505 75.5 18.7505C116.922 18.7505 150.5 53.9755 150.5 97.1011Z" fill="#FEFEFE"/>
<path d="M78.9781 34.1971C81.2597 34.2929 83.484 34.7526 85.7275 35.1324C88.7696 35.6464 91.7226 36.4444 94.6343 37.418C96.0376 37.8872 97.425 38.4267 98.7775 39.0236C100.897 39.9557 102.965 40.99 104.979 42.1519C107.449 43.5756 109.788 45.1653 112.095 46.8316C115.414 49.2257 118.192 52.2039 120.954 55.1694C123.038 57.4039 124.852 59.9001 126.386 62.5719C127.232 64.0499 128.193 65.4736 128.896 67.0185C130.637 70.8427 132.244 74.7243 133.097 78.8773C133.456 80.6329 134.007 82.3535 134.316 84.1187C134.557 85.5041 134.443 86.9533 134.701 88.3323C135.245 91.2787 134.984 94.2409 134.936 97.1873C134.911 98.8248 134.79 100.501 134.402 102.138C134.201 102.981 134.284 103.881 134.067 104.762C133.635 106.508 133.453 108.318 132.998 110.055C131.948 114.083 130.465 117.965 128.607 121.69C127.108 124.7 125.339 127.57 123.334 130.258C121.514 132.7 119.516 135.03 117.237 137.082C116.782 137.494 116.321 137.9 115.862 138.305C114.637 136.15 113.428 133.989 112.184 131.847C109.797 127.733 106.816 124.11 103.121 121.032C103.789 120.001 104.454 119.012 105.081 118C107.449 114.189 108.779 109.984 109.148 105.56C109.457 101.848 109.247 98.1226 108.292 94.4452C107.159 90.0944 105.524 85.9893 103.108 82.2035C101.896 80.301 100.537 78.5229 99.0893 76.7864C97.1959 74.5105 94.9939 72.6048 92.7441 70.7278C93.6256 69.9361 94.5738 69.1796 95.4076 68.3145C97.04 66.6259 98.1028 64.5989 98.3606 62.2495C98.6183 59.8969 98.0583 57.672 96.7854 55.6769C95.8817 54.266 94.8125 53.0243 92.8523 53.4105C91.5731 54.2022 91.328 55.6961 90.4307 57.091C90.4307 56.4079 90.4657 55.9898 90.4243 55.578C90.2716 54.0777 90.0361 52.5933 89.4824 51.1792C88.8173 49.4746 88.0059 47.8211 86.7903 46.474C85.6225 45.1812 84.6646 43.5309 82.7585 43.2213C81.6607 43.5501 81.0338 44.2332 80.8811 45.344C80.4865 48.2457 79.7387 51.0228 78.1062 53.5127C77.1548 54.9651 76.1969 56.4143 74.8986 57.5667C72.5884 59.6256 69.9504 61.1897 67.0324 62.2016C66.1064 62.5208 65.1867 63.1242 64.178 62.9358C64.0157 61.161 63.8884 59.4915 63.7007 57.8252C63.3824 54.9938 61.9632 52.7625 59.6498 51.2175C58.5233 50.4642 57.2441 49.7364 55.7453 49.896C50.342 49.896 44.9355 49.896 39.5323 49.896C39.0295 49.9886 38.5203 50.0588 38.0239 50.1801C35.3095 50.8441 33.3684 52.5774 32.2611 55.0321C30.8864 58.0774 30.8959 61.3174 31.7615 64.5415C32.4933 67.2739 34.2435 69.1796 36.6588 70.498C36.6492 72.359 36.6811 74.1625 39.0295 74.7307C41.3206 74.3477 42.8035 72.5345 44.5505 71.2992H47.2299C45.8043 72.3845 44.5155 73.4443 43.1504 74.3923C40.7001 76.0937 38.5617 78.1271 36.8656 80.5563C33.553 85.3062 31.6978 90.5892 31.5673 96.4276C31.5483 97.2767 31.5546 98.129 31.5355 98.9812C31.4623 102.352 31.6183 105.691 32.5093 108.976C33.3557 112.085 34.4758 115.054 36.1083 117.847C37.0979 119.542 38.3294 121.032 39.6182 122.463C40.7606 123.73 42.0366 125.055 44.1082 124.477C44.6046 124.021 44.9896 123.385 45.2633 122.568C46.6921 118.322 49.1582 115.006 53.4478 113.298C55.3889 112.525 57.3555 111.938 59.5098 112.158C59.3029 112.816 59.1693 113.426 58.9243 113.987C58.4438 115.095 57.5146 115.762 56.4581 116.247C55.4589 116.704 54.4279 117.097 53.7787 118.233C53.8519 118.699 53.8519 119.296 54.0492 119.819C55.1152 122.702 57.3841 124.241 60.1526 125.192C60.4835 125.307 60.8176 125.412 61.2409 125.552C59.1661 128.55 57.3809 131.589 54.4502 133.686C51.7262 135.636 48.8464 137.05 45.171 136.597C44.8051 136.023 44.3532 135.391 43.9841 134.714C42.9976 132.891 42.358 130.899 41.1647 129.176C40.1591 127.72 39.3541 126.121 38.078 124.857C37.5816 124.365 37.0343 123.982 36.3183 123.912C34.4345 123.727 32.7193 124.148 31.09 125.157C29.4289 126.181 27.9652 127.436 26.5173 128.722C25.5085 127.04 24.5348 125.342 23.4847 123.685C22.4569 122.067 21.7027 120.327 20.9231 118.584C19.9589 116.423 19.1379 114.224 18.4664 111.957C17.8237 109.787 17.305 107.597 16.9136 105.369C16.6335 103.785 16.5031 102.173 16.2262 100.603C15.8985 98.7514 16.0385 96.9255 15.9748 95.0901C15.9303 93.7621 15.9653 92.431 15.9685 91.1031C15.9685 89.4847 16.2549 87.9046 16.5603 86.3181C16.7258 85.4626 16.7576 84.5688 16.8786 83.6942C17.1363 81.8491 17.5627 80.052 18.0591 78.274C18.6797 76.0586 19.4084 73.8752 20.1148 71.6854C20.2707 71.197 20.5253 70.7406 20.7417 70.2745C22.4791 66.527 24.3471 62.8528 26.7782 59.4947C28.2165 57.5092 29.639 55.5141 31.3382 53.7329C32.4297 52.5902 33.4639 51.3931 34.5331 50.2312C36.7129 47.8658 39.3604 46.0655 41.9189 44.1661C42.7812 43.5245 43.7741 43.0649 44.6873 42.4903C44.8242 42.4041 44.856 42.1487 44.9355 41.97C45.7215 42.0274 46.5075 42.1391 47.2967 42.1391C54.1415 42.1391 60.9926 42.2764 67.8311 41.8455C68.7475 41.721 69.6958 41.6986 70.5805 41.4528C74.1095 40.476 76.7761 38.4044 78.3831 35.0462C78.5295 34.7398 78.7777 34.4812 78.9781 34.2035V34.1971Z" fill="#4AC1C4"/>
<path d="M26.5173 128.722C27.9651 127.436 29.4289 126.185 31.09 125.157C32.7192 124.151 34.4344 123.727 36.3183 123.912C37.0342 123.982 37.5816 124.365 38.078 124.857C39.354 126.121 40.1591 127.72 41.1647 129.176C42.358 130.903 42.9976 132.894 43.984 134.714C44.35 135.391 44.805 136.02 45.171 136.597C48.8432 137.051 51.7262 135.636 54.4501 133.686C57.3809 131.589 59.1661 128.55 61.2408 125.553C60.8144 125.412 60.4803 125.307 60.1525 125.192C57.3841 124.241 55.1152 122.702 54.0492 119.819C53.8551 119.296 53.8551 118.699 53.7787 118.233C54.431 117.097 55.462 116.704 56.4581 116.247C57.5145 115.762 58.4437 115.095 58.9242 113.987C59.1661 113.426 59.3029 112.816 59.5097 112.158C57.3554 111.938 55.3889 112.525 53.4477 113.298C49.1582 115.006 46.6889 118.322 45.2633 122.568C44.9896 123.385 44.6046 124.021 44.1081 124.477C42.0366 125.055 40.7605 123.727 39.6181 122.463C38.3294 121.036 37.0979 119.542 36.1082 117.847C34.4758 115.054 33.3557 112.085 32.5092 108.976C31.615 105.691 31.4623 102.352 31.5355 98.9813C31.5546 98.1322 31.5482 97.2799 31.5673 96.4276C31.6978 90.5892 33.553 85.3031 36.8656 80.5564C38.5585 78.1272 40.7001 76.0938 43.1503 74.3924C44.5155 73.4443 45.8074 72.3846 47.2298 71.2992H44.5505C42.8035 72.5346 41.3206 74.3477 39.0294 74.7308C36.6842 74.1594 36.6492 72.359 36.6587 70.498C34.2467 69.1765 32.4965 67.274 31.7614 64.5415C30.8959 61.3175 30.8863 58.0775 32.261 55.0322C33.3684 52.5774 35.3095 50.8441 38.0239 50.1802C38.5203 50.0589 39.0294 49.9886 39.5322 49.8961C39.6882 49.9918 39.8473 50.1706 40.0032 50.1706C45.0946 50.1865 50.1861 50.1865 55.2775 50.1706C55.4334 50.1706 55.5925 49.9886 55.7484 49.8929C57.2504 49.7333 58.5265 50.4611 59.6529 51.2144C61.9664 52.7594 63.3856 54.9907 63.7038 57.8221C63.8915 59.4852 64.0188 61.1579 64.1811 62.9327C65.1899 63.1242 66.1095 62.5209 67.0355 62.1985C69.9535 61.1866 72.5915 59.6225 74.9018 57.5635C76.1969 56.408 77.1579 54.962 78.1094 53.5095C79.7418 51.0165 80.4896 48.2425 80.8842 45.3409C81.0338 44.23 81.6607 43.5469 82.7617 43.2181C84.671 43.5278 85.6256 45.1813 86.7934 46.4709C88.009 47.818 88.8205 49.4747 89.4855 51.1761C90.0392 52.5902 90.2747 54.0745 90.4275 55.5748C90.4688 55.9866 90.4338 56.4048 90.4338 57.0879C91.3312 55.6929 91.5762 54.199 92.8554 53.4074C94.8188 53.0243 95.888 54.2661 96.7886 55.6738C98.0646 57.6657 98.6215 59.8906 98.3637 62.2464C98.106 64.5958 97.0431 66.6228 95.4107 68.3114C94.5738 69.1765 93.6255 69.933 92.7473 70.7246C94.997 72.5984 97.1991 74.5073 99.0924 76.7833C100.537 78.5198 101.899 80.301 103.111 82.2003C105.527 85.9894 107.162 90.0912 108.295 94.4421C109.25 98.1162 109.46 101.845 109.151 105.557C108.782 109.978 107.452 114.185 105.084 117.997C104.458 119.009 103.792 119.998 103.124 121.029C106.819 124.106 109.8 127.73 112.187 131.844C113.431 133.986 114.64 136.15 115.866 138.302C116.578 139.853 117.291 141.408 118.02 142.997C122.017 144.252 125.953 145.497 129.899 146.713C130.936 147.032 132.018 147.195 133.049 147.53C135.175 148.22 135.649 150.237 134.051 151.814C132.957 152.896 131.585 153.525 130.115 153.937C129.94 153.985 129.768 154.055 129.38 154.186C130.43 154.799 131.283 155.294 132.136 155.791C132.136 156.283 132.502 156.133 132.769 156.152L132.763 156.146C132.877 156.251 132.989 156.356 133.103 156.462L133.09 156.449C133.09 157.212 133.09 157.975 133.09 158.741L133.1 158.731C132.129 158.974 131.162 159.22 130.242 159.45C130.227 159.711 130.22 159.814 130.214 159.916C130.102 159.925 129.991 159.935 129.88 159.944C129.272 159.316 128.518 159.756 127.837 159.695C127 159.619 126.182 159.852 125.437 160.283C125.196 160.382 125.202 160.478 125.358 160.695C125.857 161.384 126.004 162.121 125.485 162.881C124.782 162.607 124.546 163.402 123.974 163.536C122.001 164.005 120.044 163.912 118.077 163.622C117.527 163.539 117.005 163.309 116.524 163.772C114.475 163.248 112.454 162.632 110.602 161.675C108.757 162.805 106.901 163.944 105.011 165.103C104.286 166.144 103.512 167.258 102.739 168.368C102.456 169.901 102.335 171.541 101.839 173.061C100.68 176.614 97.6318 178.475 94.2047 178.545C92.149 178.586 91.1021 177.881 90.6502 175.793C89.2342 176.093 87.9136 175.998 86.7012 175.062C85.5588 174.184 85.1865 173.051 85.5301 171.65C85.8993 170.15 86.8857 169.214 88.1618 168.359C87.083 168.209 86.0647 168.065 84.9192 167.906C83.7831 169.122 82.6471 170.364 81.4825 171.58C80.2732 172.844 79.0608 174.108 77.8071 175.327C74.6217 178.424 71.411 181.498 68.2097 184.581L67.847 184.913L67.8597 184.9C67.7483 185.012 67.6401 185.121 67.5287 185.232L67.5415 185.22C67.4301 185.331 67.3219 185.44 67.2105 185.552L67.2233 185.539C67.1119 185.651 67.0037 185.759 66.8923 185.871L66.905 185.858C66.7937 185.97 66.6855 186.078 66.5741 186.19L66.5868 186.177C66.4755 186.289 66.3673 186.398 66.2559 186.509L66.2686 186.497C66.1572 186.608 66.049 186.717 65.9377 186.828L65.9504 186.816C65.839 186.927 65.7308 187.036 65.6195 187.148L65.629 187.135C65.5208 187.247 65.4094 187.355 65.3012 187.467L65.3108 187.457C64.2861 187.371 63.2679 187.467 62.2305 187.18C61.6481 187.02 60.8081 186.765 60.1939 187.393C59.9807 187.378 59.7675 187.362 59.5543 187.346C59.6275 187.183 59.7007 187.02 59.8152 186.771C58.0364 186.883 56.4008 186.509 54.7461 186.209C54.0746 186.088 53.2218 185.801 52.5567 186.436C51.4971 186.308 50.4343 186.18 49.3746 186.053C49.451 185.896 49.5242 185.74 49.6737 185.43C48.875 185.727 48.1049 185.143 47.4685 185.794C47.2553 185.769 47.0453 185.746 46.8321 185.721C46.9084 185.587 46.9848 185.453 47.128 185.201C46.3452 185.347 45.5942 184.853 44.9228 185.478C43.7263 185.37 42.5298 185.287 41.3365 185.146C39.9427 184.98 38.5521 184.77 37.1615 184.572C35.8728 184.387 34.5872 184.182 33.2984 184.007C32.2133 183.86 31.1218 183.735 30.0335 183.617C28.6334 183.464 27.23 183.32 25.8299 183.174C25.9063 183.039 25.9795 182.905 26.0972 182.701C24.7034 182.583 23.3383 182.465 21.9763 182.35L21.9859 182.363C21.7822 181.494 21.7822 180.623 21.9859 179.748L21.9763 179.761C22.0877 179.649 22.1959 179.538 22.3073 179.426L22.2945 179.442C22.4059 179.33 22.5173 179.222 22.6287 179.11L22.6159 179.123C22.861 179.084 23.2842 179.33 23.1983 178.759L23.2269 178.74C23.3192 178.736 23.4115 178.733 23.5038 178.73C23.421 178.653 23.3351 178.577 23.2524 178.503C24.2897 177.543 25.3112 176.559 26.3709 175.624C28.7002 173.565 31.0423 171.525 33.3907 169.492C35.3795 167.772 37.3875 166.07 39.3763 164.353C39.7709 164.011 40.1305 163.635 40.4519 163.328C40.1432 162.307 39.86 161.375 39.58 160.446C33.8489 161.419 29.5753 158.53 28.102 153.921C28.5888 153.685 28.3343 153.359 28.2579 153.002C28.032 151.948 27.526 150.885 27.7742 149.816C28.1147 148.335 28.3597 146.806 29.2443 145.484C29.5116 145.085 29.5212 144.514 29.6485 144.022V144.029C30.1035 143.572 30.0749 143.492 29.2921 143.1L29.308 143.112C29.2857 142.812 29.3525 142.461 29.2221 142.219C28.8116 141.452 28.3311 140.725 27.8728 139.978C27.8219 140.073 27.7742 140.156 27.7296 140.239C26.46 138.235 25.499 136.102 24.818 133.817C24.4298 132.518 24.8562 131.468 25.3558 130.401C25.639 129.795 26.1258 129.284 26.5204 128.732L26.5173 128.722ZM66.2336 182.94L66.2209 182.953C66.3323 182.842 66.4405 182.733 66.5518 182.621L66.5391 182.634C66.6505 182.513 66.7618 182.395 66.87 182.273C66.9623 182.181 67.0546 182.088 67.1501 181.996C67.271 181.887 67.3887 181.775 67.5097 181.667L67.5001 181.676C67.6083 181.568 67.7197 181.456 67.8279 181.348L67.8183 181.357C67.9297 181.249 68.0379 181.137 68.1493 181.028L68.1397 181.038C68.687 181.14 68.8716 180.885 68.7889 180.371C68.8843 180.275 68.9766 180.179 69.0721 180.084C69.1898 179.972 69.3044 179.86 69.4221 179.748L69.4094 179.761C69.5208 179.653 69.6321 179.541 69.7403 179.432L69.7276 179.442C69.9726 179.404 70.399 179.649 70.3036 179.072L70.3481 179.059C70.4404 178.963 70.5327 178.867 70.625 178.772L70.6632 178.74C70.7554 178.644 70.8477 178.548 70.9432 178.452L70.9814 178.42C71.0737 178.325 71.1691 178.229 71.2614 178.133L71.2805 178.095C71.8501 178.184 71.6051 177.76 71.6464 177.517L71.6369 177.527C72.1588 177.619 72.3751 177.402 72.286 176.882L72.2765 176.891C72.7093 176.962 73.0116 176.805 73.193 176.393C73.0784 176.339 72.9957 176.298 72.9098 176.256L79.6018 169.521C79.6686 169.62 79.7355 169.722 79.92 170.003V169.189C80.2223 168.882 80.5246 168.573 80.8269 168.266C80.951 168.148 81.072 168.03 81.1961 167.912L81.3583 167.612C81.4124 167.452 81.4665 167.293 81.492 167.219C80.0028 166.578 78.539 166.67 77.0847 166.702C76.8715 166.705 76.6583 166.871 76.4451 166.964C76.1237 166.945 75.8055 166.926 75.4841 166.906C75.6814 166.766 75.8755 166.626 76.1174 166.45C75.115 166.223 74.1285 166.284 73.158 166.121C71.1596 165.786 69.0975 165.831 67.061 165.741C66.905 165.735 66.7396 165.914 66.5805 166.006C66.4723 166.006 66.3609 166.006 66.2527 166.006C66.2368 165.85 66.2209 165.697 66.1922 165.413C65.4222 165.413 64.6457 165.397 63.8725 165.425C63.7133 165.432 63.5574 165.598 63.3983 165.69C61.9886 165.579 60.5821 165.473 59.1724 165.349C59.0101 165.336 58.8574 165.215 58.571 165.087V166.699C58.2178 167.554 58.1987 168.263 58.5551 169.655C58.5996 169.265 58.6219 169.071 58.6442 168.876C59.0897 169.374 58.9019 169.965 58.8924 170.53C58.8001 170.737 58.6315 170.944 58.6283 171.155C58.606 172.777 58.6156 174.395 58.6156 176.186C58.4087 176.387 58.1096 176.674 57.8359 176.939H56.0348L56.0412 176.952C55.9903 176.853 55.9394 176.751 55.8916 176.652C55.8471 176.729 55.8025 176.802 55.7548 176.879C54.1351 175.742 52.4899 174.635 50.8989 173.457C49.3396 172.304 47.7708 171.146 46.3197 169.862C44.8464 168.56 43.5067 167.104 42.0907 165.697C39.7963 167.727 37.5593 169.735 35.2904 171.701C32.6238 174.012 29.9158 176.279 27.2491 178.593C26.6254 179.135 26.1004 179.79 25.5308 180.393C25.9031 180.837 26.2913 180.859 26.7909 180.46C26.9023 180.537 27.0137 180.613 27.125 180.69C27.6978 181.159 28.4838 181.191 29.3366 180.779C29.5498 180.799 29.763 180.821 29.9762 180.84C29.9031 181 29.8299 181.159 29.7344 181.364C30.775 181.411 31.7392 181.341 32.7129 181.644C33.1966 181.794 33.9285 181.986 34.4312 181.418C35.5991 181.546 36.7638 181.67 37.9316 181.798C37.8584 181.957 37.7852 182.117 37.6961 182.312C38.5649 182.42 39.3668 182.337 40.1941 182.583C40.8178 182.768 41.7088 183.011 42.3802 182.382C42.4916 182.388 42.603 182.395 42.7144 182.401C42.7303 182.554 42.7462 182.707 42.7589 182.819C43.6722 182.979 44.56 183.244 45.451 183.257C46.1129 183.263 46.8703 183.649 47.4717 183.02C47.9808 183.1 48.4868 183.205 48.9991 183.26C51.2362 183.493 53.4764 183.687 55.7071 183.946C56.894 184.083 58.065 184.377 59.252 184.511C60.8621 184.696 62.4787 184.795 63.9966 184.926C64.6935 184.316 65.2885 183.799 65.8804 183.282L66.2336 182.947V182.94ZM59.8852 76.3396L59.898 76.3524C59.6816 76.2406 59.4652 76.1321 59.2456 76.0204L59.2615 76.0331C58.8606 75.4841 58.2687 75.4011 57.6545 75.382L57.6705 75.3947C56.369 74.453 54.797 74.7755 53.3555 74.5009C52.3467 74.3094 51.2871 74.5616 50.2465 74.6988C49.1391 74.8489 48.1081 75.0755 47.1344 75.5958C44.7223 76.8791 42.5839 78.4592 40.7828 80.5851C38.4885 83.292 36.7701 86.2799 35.7487 89.6443C34.9308 92.3385 34.5522 95.122 34.4217 97.9471C34.3167 100.223 34.6508 102.461 34.7813 104.718C35.0422 106.125 35.2045 107.565 35.5895 108.938C36.2642 111.357 37.1329 113.703 38.533 115.839C39.6977 117.614 40.9483 119.286 42.5775 120.685C42.7016 120.298 42.7717 119.998 42.8926 119.721C43.984 117.208 45.5083 115.015 47.5226 113.142C48.9991 111.772 50.7843 110.923 52.5854 110.234C54.6792 109.436 56.964 109.193 59.1915 108.947C61.2122 108.727 63.2742 108.998 65.2981 108.593C66.205 108.411 67.1596 108.424 68.0347 108.159C70.6695 107.364 72.9098 105.972 74.4945 103.434H72.3465V101.548C73.0689 100.989 73.7976 100.424 74.4849 99.8911C74.7618 100.076 74.8827 100.207 75.0259 100.242C76.4483 100.581 77.5302 101.353 78.3003 102.617C78.8445 103.511 79.4236 104.366 79.309 105.484C80.1332 106.441 79.2168 107.383 79.2422 108.341C79.2486 108.628 78.7172 108.96 78.3862 109.209C78.2621 109.301 78.0012 109.209 77.8421 109.199C77.6193 108.29 77.4189 107.476 77.177 106.499C76.9447 106.761 76.8142 106.847 76.7729 106.965C76.4451 107.875 76.2383 108.845 75.8055 109.697C74.5772 112.117 72.722 114.003 70.5772 115.635C69.4603 116.484 68.2288 117.093 66.9496 117.636C64.1461 118.827 61.2854 119.781 58.186 119.765C57.9059 119.765 57.6291 119.839 57.1359 119.909C58.1605 121.096 58.9942 122.057 60.4262 122.434C62.3387 122.935 64.2734 123.213 66.2241 123.219C67.2742 123.222 68.3593 122.938 69.368 122.597C70.7109 122.143 72.0728 121.754 73.2821 120.889C75.2741 119.465 77.1356 117.978 78.749 116.078C80.846 113.608 81.6511 110.792 81.8166 107.693C81.8516 107.038 81.5875 106.377 81.5302 105.71C81.3265 103.284 80.13 101.318 78.6631 99.492C77.5366 98.0907 76.0664 97.0852 74.5613 96.1244C72.6488 94.905 71.0227 93.4206 69.8994 91.3809C69.123 89.9763 68.687 88.4665 68.1588 86.9789C67.0896 83.972 65.6513 81.1884 63.3124 78.9507C62.8128 78.4751 62.3641 77.942 61.8359 77.5015C61.3204 77.0738 60.7349 76.7354 60.178 76.3587C60.0825 76.3396 59.9871 76.3268 59.8884 76.3204L59.8852 76.3396ZM60.1812 64.8448C60.4548 64.8416 60.8081 64.9884 60.8271 64.5032C60.9194 64.4074 61.0117 64.3085 61.104 64.2127C61.4763 64.2063 61.4795 63.9574 61.4795 63.6764C61.4731 62.1953 61.419 60.711 61.4986 59.233C61.5431 58.3999 61.2058 57.7231 61.0531 56.8134C60.9067 57.0847 60.859 57.1709 60.8144 57.2571C60.7189 57.1422 60.5758 57.04 60.5344 56.9091C59.8884 54.7417 57.4954 52.753 54.8733 52.737C49.9092 52.7115 44.9482 52.6955 39.9841 52.753C38.183 52.7753 36.7574 53.6468 35.6245 55.0928C34.3103 56.7687 33.9285 58.6361 34.1512 60.6918C34.0239 61.9272 34.4885 63.0604 34.7717 64.2223C34.7686 64.4809 34.6572 64.7905 35.0677 64.8511L35.074 64.8575C35.2554 66.1184 36.0796 66.8718 37.117 67.4463C37.7057 67.7719 38.3135 68.0624 38.9053 68.3784C39.4972 68.6913 39.7995 69.1094 39.6086 69.85C39.4972 70.2841 39.5895 70.7693 39.5895 71.4812C41.3174 70.6895 42.0684 69.0201 43.7422 68.3721H51.7517C52.1081 68.0848 52.4995 67.7656 52.8941 67.4495C53.1009 67.4144 53.3046 67.3793 53.5114 67.3442C53.6196 67.2612 53.7246 67.1782 53.8328 67.0952C55.1152 66.5845 56.3944 66.0737 57.6768 65.563C58.3164 65.9173 58.5424 65.8599 59.2329 65.1576L59.2265 65.164C59.5511 65.0682 60.0475 65.48 60.1875 64.8352L60.1812 64.8416V64.8448ZM124.145 147.556V147.562C123.837 147.109 123.401 146.879 122.857 146.901C122.761 146.905 122.675 147.087 122.583 147.186C121.418 146.87 120.254 146.557 119.089 146.241L119.095 146.247C118.825 146.059 118.554 145.867 118.227 145.637C118.163 145.864 118.109 146.049 118.055 146.234C117.616 146.573 117.151 146.758 116.55 146.435C116.464 146.317 116.311 146.164 116.225 145.979C115.64 144.715 115.137 143.409 114.484 142.18C112.741 138.889 111.041 135.566 109.119 132.38C107.446 129.607 105.504 126.986 103.15 124.732C102.096 123.723 100.909 122.855 99.7893 121.914C99.067 121.307 98.3319 120.701 98.0901 119.701C98.386 119.254 98.4019 118.562 99.2961 118.466C99.7543 118.721 100.314 119.037 100.884 119.357C101.11 119.101 101.365 118.891 101.527 118.622C102.679 116.723 103.853 114.837 104.598 112.723C105.584 109.927 106.421 107.108 106.364 104.095C106.335 102.662 106.415 101.222 106.325 99.7921C106.255 98.6589 106.106 97.5097 105.797 96.4212C105.651 95.9009 106.071 95.2178 105.396 94.8475C105.39 94.6879 105.415 94.5219 105.374 94.3719C104.289 90.4647 102.688 86.7874 100.496 83.375C100.139 82.8196 99.7321 82.3025 99.347 81.7662C99.2484 81.7343 99.1465 81.7279 99.0447 81.747L99.0511 81.7534C98.8315 81.297 98.6819 80.7798 98.3765 80.3904C96.3558 77.8175 94.0328 75.5703 91.4076 73.5976C86.2716 69.7415 80.4737 67.6315 74.1922 66.7058C74.1762 66.5525 74.1572 66.3993 74.1444 66.2589C70.5454 65.4608 67.0005 65.812 63.4492 66.543C63.4301 66.7122 63.4142 66.8654 63.3983 67.0186C59.9934 67.4751 54.3292 69.6617 51.1566 71.8195C51.3157 71.8547 51.4685 71.8866 51.6212 71.9217C51.6753 72.0047 51.7326 72.1547 51.7867 72.1547C53.05 72.1675 54.3165 72.1675 55.5798 72.1547C55.6339 72.1547 55.688 72.0015 55.7421 71.9185C57.4 72.043 58.9433 72.6048 60.4357 73.2815C63.6211 74.7308 65.9313 77.1376 67.6942 80.1829C68.652 78.8646 69.6417 77.5973 71.0546 76.7578C71.2169 77.128 71.4173 76.9621 71.6687 76.8408C73.6576 75.8703 75.6814 76.0108 77.7212 76.6716C78.4944 76.9238 79.0768 77.6196 79.955 77.6196L79.9455 77.6101L80.3146 77.9325C81.5397 78.3762 82.1221 79.4934 82.7712 80.467C83.6781 81.8332 84.3241 83.3559 84.6678 84.9839C84.5691 85.0892 84.3909 85.1913 84.3877 85.2999C84.3687 86.6789 84.3687 88.0579 84.3877 89.4369C84.3877 89.5422 84.5691 89.6475 84.6678 89.7497C84.4132 91.1287 84.0027 92.4694 83.1913 93.609C82.383 94.7422 81.422 95.7636 80.5564 96.8011C82.5357 99.3005 83.9836 101.95 84.3464 105.094C84.2509 105.2 84.0695 105.305 84.0695 105.41C84.0504 106.895 84.0504 108.382 84.0695 109.866C84.0695 109.972 84.2541 110.074 84.3528 110.179C84.3209 111.443 83.7577 112.548 83.2899 113.675C82.5548 115.44 81.5111 117.017 80.3178 118.501C79.5223 119.229 78.7235 119.954 77.9344 120.688C74.7713 123.618 71.0864 125.348 66.6727 125.613C66.2272 127.149 65.7213 128.716 65.3267 130.312C65.0435 131.464 64.9067 132.655 64.7062 133.826C64.3084 135.729 64.1398 137.657 64.0761 139.591C64.0475 140.421 64.3052 141.255 64.3211 142.088C64.3466 143.412 64.6553 144.67 65.018 145.925C65.8772 151.134 69.8549 156.835 72.3433 157.723C72.6902 157.094 72.9829 156.427 73.3903 155.839C74.3735 154.428 75.4141 153.059 76.4324 151.67C76.8843 151.172 77.3393 150.675 77.788 150.173C79.0513 148.766 80.3146 147.352 81.5747 145.944C82.1284 145.321 82.7076 144.718 83.2295 144.067C84.5373 142.432 85.6224 140.667 86.3098 138.672C87.0003 136.664 87.6304 134.637 87.9199 132.521C87.9358 132.4 88.1077 132.304 88.2095 132.195C88.2222 132.387 88.235 132.575 88.2477 132.767C88.4895 132.492 88.4673 132.202 88.5532 131.946C88.6073 131.793 88.83 131.697 89.1673 131.42C89.1673 132.722 89.1514 133.766 89.1801 134.806C89.1864 135.008 89.3774 135.202 89.4824 135.4C89.3805 135.901 89.1801 136.403 89.1928 136.901C89.2214 138.197 88.7441 139.368 88.3018 140.514C87.2008 143.377 85.6129 145.944 83.3822 148.092C81.7402 149.672 80.1332 151.291 78.5517 152.931C77.387 154.141 76.426 155.507 75.78 157.075C74.9718 158.221 74.5867 159.552 74.2208 160.877C74.0458 161.512 74.0171 162.189 73.9217 162.846C73.9312 163.044 73.9408 163.239 73.9567 163.516C76.3719 163.561 78.4944 162.642 80.566 161.837C86.3957 159.568 91.6271 156.334 95.6016 151.383C95.9485 151.578 96.2126 151.728 96.5022 151.891C96.1426 153.777 95.3248 155.46 94.2906 156.985C94.9143 157.668 95.6303 157.496 96.1871 157.378C98.4433 156.909 100.489 155.948 102.224 154.381C104.954 151.91 106.886 148.983 107.796 145.347C108.387 142.988 108.333 140.728 107.621 138.446C106.847 135.978 105.972 133.555 104.512 131.388C104.2 130.925 104.022 130.366 103.815 129.84C103.767 129.721 103.859 129.549 103.891 129.374H105.049C105.594 130.012 106.138 130.65 106.685 131.286C108.028 132.847 108.763 134.749 109.603 136.581C110.386 138.289 110.841 140.099 110.815 141.998C110.8 143.307 110.809 144.6 110.532 145.912C110.039 148.236 109.151 150.371 107.783 152.267C106.863 153.541 105.749 154.693 104.617 155.788C103.267 157.094 101.759 158.195 99.9039 158.728C99.5825 158.821 99.3152 159.105 99.0224 159.3C98.5642 159.383 98.106 159.504 97.6446 159.542C95.678 159.705 93.651 160.117 92.0535 158.32C89.1451 160.5 86.0902 162.351 82.803 163.807C82.2366 163.922 81.6766 164.046 80.9638 164.535C82.2621 164.739 83.2835 164.908 84.3114 165.052C84.5628 165.087 84.8269 165.033 85.0878 165.02C86.5007 165.141 87.9136 165.32 89.3264 165.358C90.262 165.384 91.2007 165.151 92.1395 165.119C94.7106 165.029 97.2118 164.516 99.6461 163.765C101.648 163.146 103.684 162.527 105.431 161.279C106.851 160.877 108.136 160.165 109.189 159.169C110.752 157.694 112.416 156.289 113.469 154.345C113.613 154.077 113.902 153.886 114.141 153.678C114.211 153.618 114.335 153.621 114.535 153.57C114.828 153.707 115.194 153.883 115.617 154.084C115.579 156.411 113.778 157.761 112.785 159.561C114.224 160.305 115.824 160.656 117.415 161.046C119.003 161.435 120.594 161.825 122.411 161.41C121.902 160.602 121.348 160.075 120.677 159.66C120.282 159.415 119.827 159.226 119.512 158.907C119.172 158.562 118.959 158.087 118.688 157.662C119.038 157.269 119.283 156.992 119.554 156.688C122.799 157.343 125.982 157.64 129.202 157.276C126.707 156.558 124.365 155.523 122.09 154.304C121.562 154.02 121.18 153.806 121.361 153.081C122.192 152.609 123.143 152.417 124.117 152.318C125.358 152.191 126.599 152.069 127.84 151.929C127.91 151.923 127.967 151.779 128.028 151.699C129.619 151.664 130.898 150.933 132.136 149.87C131.741 149.784 131.445 149.72 131.149 149.656C131.121 149.506 131.121 149.241 131.06 149.228C129.829 148.938 128.655 148.328 127.331 148.504C126.777 147.639 125.905 147.865 125.103 147.859L125.11 147.865C124.966 147.224 124.473 147.632 124.149 147.543L124.145 147.556ZM33.1266 144.054C33.3398 144.262 33.553 144.469 33.7662 144.677C34.3135 144.973 34.8608 145.27 35.4082 145.567C38.5362 147.036 40.9896 149.267 42.7366 152.245C44.0795 154.534 44.6905 156.877 42.7144 159.185C42.6826 159.223 42.6698 159.28 42.6475 159.328C42.4312 159.523 42.2116 159.715 41.9952 159.906C43.319 162.422 44.7032 164.765 46.7621 166.788C47.2489 166.048 47.6722 165.403 48.0954 164.758C49.9124 162.626 52.2385 161.662 55.0134 161.853C55.0261 160.755 54.8065 160.133 54.0715 158.862C53.1836 157.333 52.3085 155.798 51.4462 154.253C50.2815 152.162 49.1359 150.062 47.984 147.964C46.4311 145.139 44.875 142.318 43.3253 139.493C42.8767 138.675 42.4439 137.849 41.9984 137.019C40.2609 136.977 38.5839 136.833 37.1424 137.957L37.0979 137.97C35.23 138.497 34.0748 139.844 33.1138 141.424L33.1202 141.44C32.2547 142.484 32.2547 142.985 33.1329 144.054H33.1266ZM59.567 117.212C61.104 117.106 62.6664 116.886 63.236 115.194C63.5479 114.265 63.9997 113.25 63.5765 112.174H62.4755C62.5328 113.228 62.0173 114.019 61.4954 114.776C60.9099 115.628 60.213 116.404 59.567 117.215C59.3888 117.32 59.4779 117.266 59.567 117.215C59.4588 117.39 59.5129 117.301 59.567 117.215V117.212ZM53.8487 169.307C54.5838 169.106 55.3189 168.908 56.0476 168.707C56.1271 167.27 55.7707 165.914 55.5034 164.608C54.9179 164.442 54.4724 164.318 54.0269 164.193C52.8559 164.442 51.6467 164.618 50.8861 165.719C49.9028 166.418 49.346 167.446 48.6618 168.451C49.9569 169.435 51.1216 170.427 52.4167 171.133C52.9545 170.447 53.4032 169.875 53.8487 169.304V169.307ZM34.4122 133.15C32.4233 134.226 30.8131 135.758 29.1457 137.357C29.763 138.276 30.2976 139.074 30.8863 139.952C32.2897 138.158 33.8998 136.719 35.7168 135.512C37.4129 134.832 39.1663 134.5 41.1328 134.784C40.6301 133.919 40.2387 133.249 39.9045 132.674C37.9157 132.192 36.0891 131.876 34.4122 133.147V133.15ZM94.9047 58.1317C94.612 57.6816 94.3224 57.2284 93.9787 56.7017C92.8618 58.0455 91.9422 59.3192 90.8507 60.4205C89.7147 61.5696 88.4673 62.6294 87.1721 63.5966C85.9693 64.4968 84.636 65.2214 83.1404 66.1567C83.8372 66.3897 84.2509 66.5302 84.6646 66.6675C84.7792 66.7058 84.8905 66.7441 85.0051 66.7824C86.4211 67.8102 88.0377 68.4199 89.6733 69.0679C93.3073 67.4368 95.4139 64.7809 95.4903 60.6982C95.4998 59.7948 95.7066 58.8436 94.9016 58.1285L94.9047 58.1317ZM27.4528 133.182C27.5864 133.692 27.7201 134.206 27.8665 134.765C28.2642 134.506 28.5761 134.318 28.8689 134.107C30.0844 133.226 31.2555 132.282 32.5156 131.471C34.5172 130.181 36.6651 129.463 39.2299 130.334C38.6667 129.476 38.2021 128.767 37.7375 128.058C36.8179 126.459 35.6086 126.057 33.9667 126.708C31.58 127.656 29.7249 129.303 28.0192 131.158C27.4974 131.726 27.3001 132.412 27.4528 133.182ZM70.4054 64.2351C71.656 64.2414 72.9066 64.2478 74.1572 64.251C74.3767 64.3436 74.5931 64.4936 74.819 64.5128C75.3918 64.5607 76.0028 64.433 76.5406 64.5862C77.9789 65.0044 79.4236 64.8607 80.8747 64.8256C81.7498 64.4074 82.6726 64.0659 83.4936 63.5583C85.3647 62.406 86.7871 60.8897 87.3153 58.6425C87.7322 56.8677 87.7163 55.0992 87.3662 53.3404C87.2549 52.7881 87.4585 51.9965 86.6375 51.7315C86.6153 50.6909 86.0616 49.9216 85.3647 49.2257C84.9128 48.2681 84.2827 47.47 83.3122 46.8731C83.2263 47.1061 83.1499 47.237 83.1276 47.3743C82.7935 49.43 82.3098 51.4474 81.3711 53.3148C79.1118 57.8157 75.7037 61.1898 71.2391 63.4817C70.7873 63.7148 70.259 63.7914 69.7658 63.9414C69.1389 64.0563 68.512 64.1712 67.8851 64.2861C68.7475 64.4106 69.613 64.832 70.4054 64.2287V64.2351ZM33.152 156.494C35.6914 158.345 38.3516 158.052 41.1169 157.033V155.836C41.171 154.087 40.2482 152.769 39.2013 151.514C37.6548 149.663 35.6627 148.459 33.4543 147.572C32.767 147.16 32.0765 146.745 31.3796 146.327C30.4377 148.421 29.8426 150.441 30.6445 152.619C30.88 154.301 31.8028 155.533 33.152 156.491V156.494ZM70.3863 163.548C70.6822 163.504 70.9782 163.456 71.2932 163.408C70.7904 162.399 71.1691 161.483 71.3728 160.503C69.0053 159.28 67.5097 157.186 65.9918 155.06C62.8064 156.449 59.5447 156.989 56.0507 156.765C56.6235 157.803 57.1199 158.706 57.6386 159.641C57.7182 160.525 57.5973 161.493 58.2019 162.409C59.0706 162.485 59.9552 162.562 60.8367 162.639C60.7603 162.798 60.6808 162.958 60.5758 163.178C61.244 163.178 61.8486 163.2 62.4532 163.165C62.6601 163.153 62.8574 162.996 63.0578 162.904C63.1692 162.98 63.2838 163.057 63.3951 163.133C63.4747 163.251 63.5511 163.475 63.6338 163.475C64.9798 163.494 66.3163 163.526 67.656 163.781C68.6043 163.963 69.6226 163.686 70.5677 164.113C70.7618 164.2 71.0418 164.088 71.4237 164.053C70.9782 163.836 70.6822 163.689 70.3863 163.542V163.548ZM62.4119 146.895C61.9218 146.199 62.1732 145.411 62.1382 144.661C62.6028 144.542 62.4628 144.15 62.4182 143.888C62.1318 142.132 62.0618 140.367 62.1096 138.592C62.1223 138.117 62.1382 137.638 62.1032 137.165C62.0905 137.003 61.925 136.853 61.8295 136.696C61.9186 135.921 62.065 135.148 62.0809 134.372C62.1127 132.735 62.5487 131.18 62.9305 129.613C63.1788 128.585 63.4333 127.557 63.6847 126.526C63.6274 126.507 63.5702 126.488 63.5129 126.469C62.7364 127.752 61.96 129.038 61.1835 130.322C60.773 130.807 60.353 131.282 59.9552 131.774C58.151 133.992 56.213 136.061 53.7628 137.59C52.1367 138.602 50.3706 139.138 48.4741 139.256C47.7422 139.301 47.0039 139.263 46.1893 139.263C46.5616 139.949 46.8862 140.54 47.2076 141.13C47.6658 141.989 48.1113 142.854 48.5823 143.703C50.237 146.681 51.898 149.656 53.5591 152.634C53.7882 153.078 54.0205 153.525 54.2337 153.937C56.0157 153.937 57.6545 153.975 59.2902 153.921C60.2194 153.892 61.1676 153.806 62.0586 153.57C62.8764 153.353 63.6306 152.899 64.3339 152.587C63.9711 151.508 63.6656 150.582 63.3538 149.659C63.0419 148.737 62.7269 147.818 62.4119 146.898V146.895ZM79.6527 93.4589C80.0664 93.1908 80.216 93.1333 80.3082 93.028C80.5183 92.795 80.7283 92.5556 80.8906 92.2874C82.3735 89.8997 82.6662 87.3492 81.9439 84.6455C81.3774 82.5195 80.095 80.8756 78.4308 79.5477C77.7212 78.9795 76.8206 78.4751 75.9392 78.3283C73.0052 77.8399 70.94 79.1199 69.6067 81.8396C69.3203 82.4238 69.3076 83.0462 69.5812 83.6623C69.8963 84.3742 70.1954 85.0924 70.5041 85.8042C73.1166 83.873 75.4268 84.4348 77.2948 85.7212C78.4721 86.532 79.2772 87.7259 79.7577 89.1113C80.2255 90.4615 80.2382 91.8086 79.6495 93.4526L79.6527 93.4589ZM88.1586 172.48C88.6709 173.157 89.1705 173.058 89.791 172.933C91.0257 172.684 92.0663 171.979 93.25 171.631C93.9119 171.436 94.577 171.251 95.1402 171.915C94.6343 173.128 93.6351 174.098 93.2882 175.356C94.0806 176.071 94.8475 175.918 95.6812 175.643C97.8546 174.925 99.2452 173.434 99.6175 171.229C99.8593 169.789 99.662 168.276 99.662 166.852C98.1378 167.194 96.6995 167.516 95.2643 167.839C95.2367 168.517 95.031 169.092 94.647 169.562C94.0487 169.562 93.4155 169.591 92.7822 169.556C90.577 169.441 89.1514 170.545 88.1586 172.477V172.48ZM71.6528 110.112C69.9567 110.76 68.4707 111.328 67.026 111.881C66.6823 112.982 66.3482 114.051 65.9663 115.277C68.2447 113.946 70.5741 112.896 71.6528 110.112ZM74.8859 86.6501C74.6695 86.9151 74.4435 87.196 74.2431 87.445C74.5581 88.2271 74.574 89.0985 75.6432 89.4847C75.9169 89.3858 76.3306 89.2326 76.7188 89.0921V87.5248C76.3592 86.8481 75.8946 86.3916 74.8859 86.647V86.6501ZM40.8528 52.1752C42.5871 52.5232 53.4032 52.4625 54.3992 52.1752H40.8528Z" fill="#222B5F"/>
<path d="M78.978 34.1972C78.7776 34.4781 78.5294 34.7335 78.383 35.0399C76.776 38.398 74.1094 40.4697 70.5804 41.4465C69.6957 41.6923 68.7506 41.7146 67.831 41.8391C67.6496 41.3028 67.2009 41.571 66.8891 41.5678C58.5423 41.5518 50.1987 41.555 41.8519 41.5582C41.6133 41.5582 41.3746 41.6189 41.1328 41.654V42.2286L41.1423 42.2126C41.0309 42.3243 40.9196 42.4329 40.8082 42.5446L40.8209 42.5318C40.7095 42.6435 40.5982 42.7521 40.4868 42.8638L40.4995 42.851C39.8281 42.7233 39.6085 43.2756 39.2108 43.6331C39.3667 43.7097 39.4494 43.7512 39.529 43.7927C38.3579 44.8621 37.1901 45.9314 36.0191 47.004C35.9586 46.905 35.895 46.8061 35.7836 46.6273C35.4049 47.1285 35.0867 47.5562 34.7653 47.9808L34.778 47.968C34.2148 48.1531 33.6515 48.3383 33.0883 48.5234V48.699C32.0382 48.5617 30.9849 48.4245 29.9348 48.2872L29.9475 48.3C29.8362 48.1883 29.7248 48.0797 29.6166 47.968L29.6261 47.9808C29.292 46.8731 29.3079 45.7399 29.3206 44.5971C29.3206 44.3322 29.1552 44.0672 29.0629 43.8023C29.2761 42.6882 29.4861 41.5742 29.6707 40.6133C28.2928 39.5185 26.9213 38.6215 25.7916 37.4851C24.0733 35.7518 23.0391 33.6194 22.6031 31.1647C22.3995 30.0091 22.339 28.8695 22.339 27.7172C22.3327 22.7311 22.3199 17.745 22.3422 12.7589C22.3517 10.4286 22.95 8.22289 24.0478 6.17674C25.6421 3.21126 28.1623 1.3726 31.3318 0.389427C31.8186 0.239397 32.3373 0.1979 32.8401 0.108521C33.0533 0.201092 33.2633 0.367082 33.4765 0.370274C34.6953 0.395811 35.9141 0.383043 37.1328 0.383043C47.3125 0.383043 57.489 0.389427 67.6687 0.367082C68.1396 0.367082 68.722 0.718216 69.1038 0.108521C72.5342 0.501151 75.2549 2.16105 77.3901 4.82648C78.2334 5.87988 78.9176 7.03862 79.2422 8.37292C78.8348 8.79747 78.8603 9.04646 79.3376 9.29225L79.3217 9.28268C79.3122 16.299 79.3026 23.3121 79.2899 30.3283C79.2899 30.9987 79.4013 31.685 79.0003 32.317C78.9303 32.4287 79.1562 32.7288 79.2485 32.9395L78.9749 34.2004L78.978 34.1972ZM25.2189 11.5842C25.2061 11.5331 25.2093 11.4565 25.1743 11.4342C25.1043 11.3863 25.0184 11.3671 24.8816 11.3161C24.8816 13.774 24.8816 16.2128 24.8816 18.6484C24.8816 22.099 24.8816 25.5465 24.8879 28.9972C24.8879 29.2813 24.7256 29.6612 25.2093 29.7474C25.3143 29.8527 25.4225 29.958 25.5275 30.0634L25.5403 30.0538C25.5975 32.0585 26.3835 33.7694 27.6659 35.2634C28.837 36.6328 30.2594 37.6734 31.93 38.3629C32.5887 38.6342 33.0533 39.0716 33.1424 39.8089C32.821 40.9581 32.4996 42.0977 32.1846 43.2405C32.0764 43.6363 31.9841 44.0353 31.8823 44.4343C31.5259 45.0472 31.459 45.6729 31.7104 46.3081H32.8656C35.0199 44.2077 37.2315 42.0466 39.4494 39.8983C39.6626 39.6908 39.9331 39.5408 40.1781 39.3652C40.4295 39.927 40.9228 39.627 41.2823 39.627C48.3308 39.6493 55.3792 39.6429 62.4245 39.6429C63.9615 39.6429 65.4985 39.6366 67.0354 39.6429C67.8946 39.6461 68.7093 39.5121 69.4189 38.9854C69.7435 38.896 70.2367 39.2982 70.3767 38.6598C72.2001 37.766 73.9598 36.7764 75.1181 35.0271C75.7323 34.0982 76.4005 33.1693 76.4164 31.9755C76.4451 31.27 76.6296 30.6156 77.056 30.041C77.1324 30.1336 77.2056 30.2262 77.3233 30.373V10.5755C77.1069 10.8564 76.9606 11.0447 76.8142 11.2331C76.7155 10.6681 76.6742 10.0871 76.5087 9.54124C75.519 6.28527 73.3966 4.1689 70.1158 3.25276C69.333 3.0325 68.5374 2.86013 67.7482 2.66541C67.8692 2.58561 67.9933 2.5058 68.1587 2.39727C65.2725 2.12913 34.113 2.23767 34.2562 2.55688C34.428 2.5888 34.6253 2.62391 34.8258 2.65903C34.6476 2.74521 34.4694 2.90801 34.2943 2.90163C33.2379 2.8729 32.2832 3.21765 31.284 3.52409C28.0573 4.50726 25.4512 8.60595 25.4957 11.5235C25.4034 11.5427 25.3111 11.565 25.2157 11.581L25.2189 11.5842Z" fill="#222B5F"/>
<path d="M41.1328 42.2318V41.6572C41.3747 41.6253 41.6133 41.5615 41.852 41.5615C50.1987 41.5551 58.5423 41.5551 66.8891 41.5711C67.2041 41.5711 67.6496 41.3061 67.831 41.8424C60.9894 42.2765 54.1414 42.1329 47.2966 42.1361C46.5106 42.1361 45.7246 42.0275 44.9355 41.9669C44.1749 41.9541 43.4431 42.2638 42.6348 41.9669C42.2243 41.8137 41.6388 42.1297 41.1328 42.2318Z" fill="#171A44"/>
<path d="M79.2518 32.9395C79.1627 32.7257 78.9336 32.4288 79.0036 32.3171C79.4045 31.685 79.29 30.9987 79.2932 30.3284C79.3091 23.3121 79.3154 16.299 79.325 9.28271C79.8691 9.96902 79.9264 10.783 79.9264 11.613C79.9264 17.6557 79.9264 23.7015 79.9296 29.7442C79.9296 30.8615 79.6655 31.9149 79.2486 32.9427L79.2518 32.9395Z" fill="#171A44"/>
<path d="M69.1103 0.10534C68.7316 0.715035 68.1461 0.36071 67.6751 0.363902C57.4955 0.386247 47.319 0.379862 37.1393 0.379862C35.9205 0.379862 34.7017 0.392631 33.483 0.367094C33.2698 0.363902 33.0598 0.194719 32.8466 0.10534C33.798 0.0702267 34.7527 0.00957636 35.7041 0.00957636C46.0461 0 56.3881 0 66.7301 0C67.5224 0 68.3179 0.0670346 69.1103 0.102148V0.10534Z" fill="#171A44"/>
<path d="M116.534 163.769C117.014 163.306 117.536 163.536 118.087 163.619C120.05 163.909 122.01 164.002 123.983 163.532C124.556 163.395 124.795 162.603 125.495 162.878C125.329 163.711 124.54 163.813 123.967 164.008C122.376 164.551 120.699 164.554 119.045 164.372C118.195 164.279 117.368 163.976 116.534 163.769Z" fill="#171A44"/>
<path d="M29.6516 144.019C29.5243 144.511 29.5148 145.082 29.2475 145.481C28.3596 146.799 28.1178 148.331 27.7773 149.813C27.5323 150.882 28.0351 151.945 28.261 152.998C28.3374 153.356 28.5951 153.678 28.1051 153.918C27.195 151.849 27.1886 149.736 27.9046 147.629C28.3342 146.362 28.541 144.967 29.6516 144.022V144.019Z" fill="#171A44"/>
<path d="M52.5695 186.436C53.2345 185.801 54.0873 186.088 54.7588 186.209C56.4167 186.509 58.0523 186.883 59.8279 186.771C59.7134 187.02 59.6402 187.183 59.567 187.346C57.5973 187.071 55.6275 186.797 53.6546 186.528C53.295 186.481 52.929 186.465 52.5663 186.436H52.5695Z" fill="#171A44"/>
<path d="M29.938 48.2872C30.9913 48.4245 32.0414 48.5617 33.0947 48.699V48.5234C33.6547 48.3383 34.218 48.1532 34.7812 47.968C33.0469 49.529 31.4527 49.6343 29.938 48.284V48.2872Z" fill="#171A44"/>
<path d="M60.2067 187.394C60.8208 186.765 61.6609 187.02 62.2432 187.18C63.2806 187.467 64.2989 187.368 65.3236 187.457C65.1135 187.662 64.9003 187.869 64.7667 188C63.1661 187.786 61.6864 187.591 60.2067 187.394Z" fill="#171A44"/>
<path d="M29.0661 43.7991C29.1552 44.064 29.3238 44.329 29.3238 44.5939C29.3111 45.7335 29.2984 46.8699 29.6293 47.9776C28.5283 47.0901 28.541 45.9346 28.8529 44.7088C28.9293 44.4088 28.9961 44.1055 29.0661 43.8023V43.7991Z" fill="#171A44"/>
<path d="M125.444 160.28C126.185 159.849 127.003 159.616 127.843 159.692C128.521 159.756 129.278 159.312 129.886 159.941C128.416 160.168 126.946 160.449 125.447 160.28H125.444Z" fill="#171A44"/>
<path d="M21.989 182.35C23.351 182.465 24.7161 182.583 26.1099 182.701C25.9953 182.905 25.919 183.039 25.8426 183.173C25.0471 183.097 24.2388 183.074 23.456 182.924C22.95 182.829 22.4759 182.548 21.989 182.347V182.35Z" fill="#171A44"/>
<path d="M27.7296 140.23C27.7742 140.147 27.8219 140.064 27.8728 139.968C28.331 140.715 28.8147 141.443 29.222 142.209C29.3525 142.452 29.2857 142.803 29.308 143.103C28.4965 142.302 28.1528 141.242 27.7296 140.227V140.23Z" fill="#171A44"/>
<path d="M130.22 159.913C130.227 159.81 130.233 159.708 130.249 159.446C131.165 159.217 132.136 158.971 133.106 158.728C132.355 159.638 131.232 159.635 130.223 159.913H130.22Z" fill="#171A44"/>
<path d="M133.094 158.738C133.094 157.975 133.094 157.212 133.094 156.446C133.934 157.471 133.934 157.716 133.094 158.738Z" fill="#171A44"/>
<path d="M21.9954 179.745C21.7938 180.62 21.7938 181.491 21.9954 182.359C21.8713 182.27 21.709 182.206 21.6326 182.085C21.4449 181.779 21.2953 181.45 21.0566 180.987C21.3399 180.61 21.6676 180.176 21.9922 179.742L21.9954 179.745Z" fill="#171A44"/>
<path d="M47.4812 185.798C48.1176 185.146 48.8877 185.73 49.6864 185.434C49.5401 185.74 49.4637 185.896 49.3873 186.056C48.7509 185.97 48.1176 185.884 47.4812 185.798Z" fill="#171A44"/>
<path d="M44.9323 185.478C45.6037 184.853 46.3547 185.347 47.1375 185.2C46.9943 185.456 46.9179 185.587 46.8415 185.721C46.2051 185.638 45.5687 185.558 44.9323 185.475V185.478Z" fill="#171A44"/>
<path d="M34.7717 47.984C35.0931 47.5562 35.4145 47.1317 35.79 46.6305C35.9014 46.8093 35.9619 46.9082 36.0255 47.0072C35.6086 47.3328 35.1886 47.6584 34.7717 47.984Z" fill="#171A44"/>
<path d="M39.5354 43.7959C39.4526 43.7544 39.3699 43.7129 39.2172 43.6363C39.6117 43.2788 39.8313 42.7265 40.5059 42.8542C40.1845 43.1703 39.86 43.4831 39.5386 43.7991L39.5354 43.7959Z" fill="#171A44"/>
<path d="M29.2953 143.093C30.0781 143.489 30.1099 143.569 29.6485 144.022L29.2953 143.093Z" fill="#171A44"/>
<path d="M79.344 9.28908C78.8667 9.04329 78.8413 8.7943 79.2486 8.36975C79.2804 8.67619 79.3122 8.98264 79.344 9.28908Z" fill="#171A44"/>
<path d="M23.2078 178.756C23.2937 179.327 22.8737 179.084 22.6255 179.12C22.8196 178.998 23.0137 178.877 23.2078 178.756Z" fill="#171A44"/>
<path d="M132.769 156.149C132.502 156.127 132.136 156.277 132.136 155.788C132.346 155.91 132.559 156.031 132.769 156.149Z" fill="#171A44"/>
<path d="M29.6199 47.9648C29.7312 48.0766 29.8426 48.1851 29.9508 48.2968C29.8394 48.1851 29.7281 48.0766 29.6199 47.9648Z" fill="#171A44"/>
<path d="M23.2587 178.497C23.3415 178.574 23.4274 178.65 23.5101 178.724C23.4178 178.724 23.3256 178.73 23.2333 178.733C23.2556 178.657 23.2651 178.577 23.2587 178.497Z" fill="#171A44"/>
<path d="M55.7421 49.8928C55.5862 49.9886 55.4302 50.1705 55.2711 50.1705C50.1797 50.1865 45.0883 50.1833 39.9968 50.1705C39.8409 50.1705 39.6818 49.9918 39.5259 49.896C44.9292 49.896 50.3356 49.896 55.7389 49.896L55.7421 49.8928Z" fill="#171A44"/>
<path d="M84.6645 84.9839C84.3209 83.3559 83.6749 81.8364 82.768 80.467C82.1188 79.4902 81.5365 78.3762 80.3114 77.9325L79.9422 77.6101L79.9518 77.6196C77.9056 75.5288 73.2629 74.967 71.0513 76.7578C69.6384 77.5973 68.6488 78.8646 67.691 80.1829C65.928 77.1376 63.6178 74.7308 60.4325 73.2815C58.9432 72.6048 57.3999 72.043 55.7388 71.9185L54.8096 71.877C54.7937 71.7812 54.7683 71.6887 54.7396 71.5993C55.0865 71.3758 55.4079 71.0119 55.7802 70.9481C57.9981 70.581 60.0347 69.5914 62.2654 69.1924C64.2988 68.8317 66.3385 68.5763 68.3783 68.4136C69.9726 68.2891 71.5923 68.4231 73.2183 68.6051C75.2231 68.8317 77.1674 69.2339 79.1276 69.6329C82.9907 70.4214 86.472 72.0685 89.7528 74.2104C91.1879 75.1457 92.4831 76.2662 93.8482 77.2845C95.5825 78.5805 97.1322 80.0424 98.6596 81.5523C98.7614 81.6513 98.9237 81.6864 99.0574 81.7534L99.051 81.747C99.0765 81.8332 99.1019 81.9194 99.1274 82.0088C99.2038 81.929 99.2769 81.846 99.3533 81.7662C99.7384 82.3025 100.146 82.8228 100.502 83.375C102.695 86.7874 104.295 90.4647 105.38 94.3719C105.422 94.5219 105.396 94.6879 105.403 94.8475C105.294 95.2944 105.094 95.7381 105.091 96.185C105.075 98.4291 104.718 100.632 104.47 102.853C104.241 104.909 103.611 106.856 103.022 108.794C102.351 110.99 101.25 113.052 99.872 114.916C98.8219 116.34 97.6891 117.703 96.4735 119.245C96.4035 119.829 96.5498 120.547 97.1035 121.202C97.8036 122.028 98.4241 122.922 99.0892 123.778C100.995 126.226 102.313 129.022 103.78 131.736C105.364 134.663 105.73 137.868 106.004 141.092C106.058 141.737 105.718 142.41 105.73 143.065C105.762 144.622 105.154 145.963 104.524 147.32C103.936 148.59 103.191 149.739 102.316 150.844C100.823 152.733 98.9492 154.262 96.7694 155.029C96.9253 154.243 96.674 153.496 97.0622 152.698C97.3327 152.14 97.3231 151.243 97.0558 150.681C96.8108 150.167 97.0654 149.165 96.0343 149.146C94.5705 150.499 93.3932 152.101 91.8371 153.401C89.1545 155.641 86.1029 157.199 83.0957 158.859C81.7656 159.593 80.3559 160.181 78.9589 160.784C78.2175 161.106 77.4283 161.314 76.6614 161.579C75.7927 161.879 74.7299 161.799 74.2239 162.83C74.2016 162.875 74.0234 162.846 73.9184 162.852C74.0139 162.195 74.0425 161.518 74.2175 160.883C74.5835 159.558 74.9685 158.227 75.7768 157.081C75.8245 157.17 75.8691 157.257 75.9073 157.33C78.0457 155.341 80.1968 153.362 82.3225 151.354C83.2835 150.445 84.1713 149.458 85.1387 148.552C86.2938 147.47 87.0893 146.126 87.853 144.782C89.4918 141.903 90.2269 138.717 90.7392 135.477C90.787 135.18 90.6915 134.858 90.647 134.411C90.4497 134.727 90.351 134.88 90.2492 135.046C89.8292 134.583 90.5324 133.833 89.7846 133.51C89.6319 132.668 89.4791 131.825 89.3264 130.982C88.6709 131.076 88.2964 131.483 88.2031 132.205C88.1044 132.313 87.9294 132.412 87.9135 132.531C87.6239 134.647 86.9939 136.671 86.3033 138.682C85.616 140.677 84.5309 142.442 83.223 144.076C82.7043 144.728 82.122 145.328 81.5683 145.953C78.9685 141.516 77.7529 136.706 77.7084 131.579C77.702 130.839 77.6924 130.098 77.6861 129.358C77.7975 128.805 77.912 128.25 78.0202 127.698C78.3161 126.194 78.5484 124.675 78.9208 123.187C79.3153 121.61 79.8436 120.065 80.3114 118.508C81.5047 117.023 82.5484 115.446 83.2835 113.681C83.7544 112.554 84.3145 111.45 84.3463 110.186C84.4513 109.416 84.6454 108.647 84.6391 107.878C84.6295 106.949 84.4481 106.023 84.3431 105.097C83.9804 101.953 82.5325 99.3069 80.5532 96.8043C81.4187 95.7668 82.3797 94.7454 83.188 93.6122C83.9995 92.4758 84.41 91.1319 84.6645 89.7529C84.7759 89.0379 84.9796 88.3196 84.97 87.6046C84.9605 86.7299 84.7727 85.8585 84.6614 84.987L84.6645 84.9839ZM96.1616 114.019C95.277 114.236 94.3287 114.323 93.5173 114.699C92.2858 115.271 91.347 114.84 90.3988 114.147C90.1665 113.978 89.9214 113.825 89.6382 113.636C89.3709 115.513 89.6096 115.938 91.3375 116.88H93.7082C94.8729 116.196 95.9357 115.469 96.1616 114.019C96.3366 113.911 96.2507 113.965 96.1616 114.019C96.2698 113.841 96.2157 113.93 96.1616 114.019ZM98.6914 105.943C98.5482 106.17 98.3159 106.413 98.23 106.703C97.9754 107.543 97.2658 107.913 96.6039 108.277C96.0407 108.586 95.3852 108.772 94.7487 108.886C94.4369 108.944 94.071 108.73 93.7368 108.609C92.8936 108.305 92.0567 107.983 91.0956 107.626C91.2388 108.299 91.3598 108.874 91.4648 109.381C92.0503 110.007 92.5913 110.585 93.1099 111.137H96.3398C97.1895 110.412 98.1377 109.601 99.086 108.791C98.7137 107.846 100.025 106.93 98.6914 105.947V105.943ZM92.2667 124.186C91.5921 124.317 90.9111 124.324 90.3447 124.585C89.0686 125.176 88.0471 124.889 87.1052 123.941C86.8379 123.669 86.5134 123.455 86.0583 123.085C86.0488 124.636 86.8729 125.393 87.7767 126.133C88.639 126.098 89.4505 126.542 90.4242 126.194C91.7353 125.728 92.203 125.457 92.2667 124.186ZM86.2683 130.104C85.5269 129.999 84.7186 130.037 84.0472 129.75C83.3217 129.441 82.7234 128.828 82.0329 128.32C81.8515 129.587 81.9183 129.702 83.6812 131.254H85.4982C85.7274 131.014 85.9883 130.756 86.2301 130.475C86.2842 130.414 86.2556 130.28 86.2683 130.104ZM86.7234 129.747C86.7075 129.776 86.6693 129.814 86.6788 129.84C86.6947 129.881 86.7361 129.91 86.7679 129.945C86.787 129.881 86.8061 129.814 86.8252 129.75H86.7234V129.747Z" fill="#4890CD"/>
<path d="M60.1748 76.3779C60.7317 76.7546 61.3172 77.0929 61.8327 77.5207C62.3609 77.958 62.8128 78.4911 63.3092 78.9699C65.6481 81.2076 67.0896 83.9911 68.1556 86.9981C68.6838 88.4856 69.1198 89.9955 69.8962 91.4C71.0227 93.4366 72.6456 94.9209 74.5581 96.1435C76.0632 97.1043 77.5334 98.1098 78.6599 99.5112C80.1237 101.337 81.3233 103.303 81.527 105.729C81.5811 106.393 81.8484 107.057 81.8134 107.712C81.6479 110.811 80.8428 113.624 78.7458 116.097C77.1324 117.997 75.2709 119.484 73.2789 120.908C72.0696 121.773 70.7077 122.162 69.3648 122.616C68.3561 122.954 67.271 123.241 66.2209 123.238C64.2702 123.232 62.3355 122.954 60.423 122.453C58.991 122.076 58.1573 121.119 57.1327 119.928C57.6259 119.858 57.9027 119.781 58.1828 119.784C61.279 119.8 64.1397 118.846 66.9464 117.655C68.2224 117.113 69.4539 116.503 70.574 115.654C72.722 114.023 74.574 112.136 75.8023 109.716C76.2351 108.861 76.4451 107.894 76.7697 106.984C76.811 106.866 76.9415 106.78 77.1738 106.518C77.4156 107.495 77.6129 108.305 77.8389 109.218C77.998 109.225 78.2589 109.321 78.383 109.228C78.7171 108.982 79.2486 108.647 79.239 108.36C79.2136 107.405 80.13 106.46 79.3058 105.503C79.4204 104.386 78.8412 103.53 78.2971 102.636C77.527 101.372 76.4419 100.6 75.0227 100.261C74.8795 100.226 74.7586 100.095 74.4817 99.9102C73.7944 100.443 73.0688 101.005 72.3433 101.567V103.453H74.4913C72.9066 105.991 70.6695 107.383 68.0315 108.178C67.1564 108.443 66.1986 108.43 65.2949 108.612C63.271 109.021 61.209 108.746 59.1883 108.966C56.9608 109.209 54.676 109.451 52.5822 110.253C50.7779 110.942 48.9927 111.788 47.5194 113.161C45.5051 115.031 43.9808 117.227 42.8894 119.74C42.7684 120.017 42.6984 120.317 42.5743 120.704C40.9451 119.306 39.6945 117.633 38.5298 115.858C37.1297 113.726 36.2641 111.379 35.5863 108.957C35.2013 107.581 35.0422 106.144 34.7781 104.737C34.8672 104.583 35.0358 104.43 35.039 104.274C35.0613 103.316 35.0995 102.355 35.0326 101.401C34.8672 99.0739 35.1981 96.7819 35.7327 94.557C36.4901 91.4128 37.3843 88.3005 39.1822 85.5233C40.6364 83.2793 42.062 81.0384 44.2386 79.1869C44.175 80.3425 44.9323 80.617 45.8201 80.8564C46.5838 80.5564 47.4462 80.3329 48.1845 79.902C49.0277 79.4104 49.3173 78.4496 49.6705 77.6292C49.4669 77.1951 49.2823 76.8056 49.1168 76.4513C49.295 76.2885 49.3618 76.1768 49.4541 76.1544C50.5488 75.8863 51.583 75.4554 52.7381 75.3213C53.6673 75.2128 54.6474 74.9159 55.5098 75.1649C56.2512 75.3787 56.9545 75.3372 57.6736 75.4075L57.6577 75.3947C58.0459 75.9821 58.6378 76.0587 59.2647 76.0459L59.2488 76.0331C59.2933 76.4832 59.6434 76.3332 59.9011 76.3651L59.8884 76.3523C59.952 76.4417 60.0157 76.5311 60.0761 76.6173C60.1111 76.5407 60.143 76.4673 60.178 76.3906L60.1748 76.3779Z" fill="#576975"/>
<path d="M69.0657 180.083C68.9703 180.179 68.878 180.275 68.7825 180.371C68.5661 180.594 68.3497 180.818 68.1334 181.038L68.1429 181.028C68.0315 181.137 67.9233 181.249 67.812 181.357L67.8215 181.348C67.7133 181.456 67.6019 181.568 67.4937 181.676L67.5033 181.667C67.3824 181.775 67.2646 181.887 67.1437 181.996C67.0514 182.088 66.9591 182.181 66.8637 182.273C66.7523 182.395 66.6409 182.513 66.5327 182.634L66.5455 182.621C66.4341 182.733 66.3259 182.841 66.2145 182.953L66.2273 182.94C66.1095 183.052 65.9918 183.164 65.874 183.276C65.2822 183.793 64.6871 184.31 63.9902 184.92C62.4723 184.792 60.8558 184.69 59.2456 184.505C58.0587 184.367 56.8877 184.077 55.7007 183.94C53.4668 183.681 51.2266 183.486 48.9928 183.253C48.4804 183.199 47.9745 183.097 47.4653 183.014C45.8774 182.81 44.2927 182.602 42.7048 182.398C42.5935 182.391 42.4821 182.385 42.3707 182.379C40.8878 182.184 39.4049 181.989 37.9221 181.798C36.7542 181.67 35.5896 181.545 34.4217 181.418C32.9356 181.226 31.4528 181.035 29.9667 180.843L29.3271 180.783C28.5888 180.754 27.8538 180.725 27.1155 180.693C27.0041 180.617 26.8927 180.54 26.7814 180.463C26.3613 180.441 25.9413 180.419 25.5212 180.396C26.0908 179.793 26.6159 179.135 27.2396 178.596C29.9062 176.282 32.6142 174.018 35.2809 171.704C37.5498 169.738 39.7868 167.73 42.0811 165.7C43.4972 167.108 44.8369 168.563 46.3102 169.866C47.7644 171.149 49.3301 172.304 50.8893 173.46C52.4804 174.638 54.1224 175.742 55.7453 176.882C55.8312 176.939 55.9266 176.965 56.0317 176.955L56.0253 176.942C56.6426 177.59 57.3777 177.131 58.0014 177.214C59.0833 176.205 59.2584 175.934 59.2074 174.746C59.147 173.339 58.9942 171.934 58.8829 170.529C58.8924 169.964 59.0802 169.374 58.6347 168.876C58.6092 168.151 58.5837 167.427 58.5615 166.702C58.5615 166.233 58.5615 165.764 58.5615 165.09C58.8479 165.218 59.0006 165.339 59.1629 165.352C60.5694 165.476 61.9791 165.582 63.3888 165.693C64.3402 165.799 65.2917 165.904 66.2432 166.009C66.3514 166.009 66.4627 166.009 66.5709 166.009C67.6624 166.131 68.7507 166.3 69.8422 166.361C71.1118 166.431 72.3783 166.447 73.6353 166.689C74.2399 166.807 74.8604 166.839 75.4746 166.913C75.796 166.932 76.1142 166.951 76.4356 166.97C77.9503 167.098 79.465 167.222 80.9765 167.366C81.107 167.379 81.2247 167.532 81.3488 167.618L81.1865 167.918C81.0624 168.036 80.9415 168.155 80.8174 168.273C80.5151 168.579 80.2128 168.889 79.9105 169.195C79.8055 169.307 79.6973 169.419 79.5923 169.53C77.3616 171.774 75.1309 174.022 72.9002 176.266C72.6902 176.476 72.477 176.687 72.267 176.898L72.2765 176.888C72.0601 177.102 71.8437 177.319 71.6274 177.533L71.6369 177.523C71.516 177.715 71.3951 177.91 71.271 178.101L71.2519 178.139C71.1596 178.235 71.0641 178.331 70.9718 178.427L70.9336 178.459C70.8414 178.554 70.7491 178.65 70.6536 178.746L70.6154 178.778C70.5231 178.874 70.4309 178.969 70.3386 179.065L70.294 179.078C70.1031 179.202 69.9122 179.324 69.7181 179.448L69.7308 179.439C69.6194 179.547 69.508 179.659 69.3999 179.767L69.4126 179.755C69.2948 179.866 69.1803 179.978 69.0625 180.09L69.0657 180.083Z" fill="white"/>
<path d="M73.9185 162.856C74.0235 162.849 74.2017 162.881 74.2239 162.833C74.7299 161.805 75.7927 161.885 76.6615 161.582C77.4284 161.317 78.2175 161.106 78.959 160.787C80.3559 160.184 81.7656 159.593 83.0958 158.862C86.1061 157.202 89.1578 155.645 91.8371 153.404C93.3932 152.105 94.5706 150.502 96.0344 149.149C97.0654 149.165 96.8108 150.17 97.0558 150.684C97.3231 151.246 97.3359 152.143 97.0622 152.702C96.674 153.5 96.9222 154.25 96.7694 155.032C98.9492 154.269 100.827 152.737 102.316 150.847C103.188 149.742 103.932 148.593 104.524 147.323C105.154 145.966 105.762 144.622 105.73 143.068C105.718 142.41 106.058 141.74 106.004 141.095C105.727 137.871 105.364 134.666 103.78 131.739C102.313 129.029 100.995 126.232 99.0892 123.781C98.4242 122.925 97.8036 122.032 97.1036 121.205C96.5499 120.55 96.4035 119.832 96.4735 119.248C97.6891 117.706 98.8187 116.34 99.872 114.92C101.25 113.055 102.351 110.993 103.022 108.797C103.614 106.863 104.244 104.912 104.47 102.857C104.715 100.638 105.075 98.4323 105.091 96.1882C105.091 95.7413 105.291 95.2976 105.403 94.8507C106.077 95.221 105.657 95.9041 105.804 96.4244C106.109 97.5129 106.262 98.6621 106.332 99.7953C106.418 101.225 106.341 102.665 106.37 104.098C106.427 107.112 105.59 109.93 104.604 112.727C103.856 114.84 102.685 116.726 101.533 118.626C101.371 118.894 101.119 119.104 100.89 119.36C100.321 119.041 99.7607 118.725 99.3024 118.469C98.4114 118.565 98.3923 119.261 98.0964 119.705C98.3382 120.704 99.0733 121.307 99.7957 121.917C100.913 122.858 102.1 123.727 103.156 124.735C105.511 126.989 107.452 129.61 109.126 132.384C111.048 135.569 112.744 138.892 114.491 142.183C115.143 143.412 115.646 144.718 116.231 145.982C116.317 146.167 116.47 146.32 116.556 146.439C117.161 146.761 117.622 146.576 118.061 146.237C118.408 146.241 118.755 146.244 119.099 146.247L119.092 146.241C118.974 147.511 119.181 148.702 119.955 149.787C120.737 149.921 121.546 150.058 122.551 150.228C123.452 150.748 124.588 151.15 125.88 151.061C126.717 151.003 127.563 151.061 128.406 151.074C128.445 151.074 128.483 151.188 128.534 151.275C128.257 151.345 128.005 151.406 127.662 151.492C127.862 151.61 127.948 151.661 128.031 151.709C127.967 151.789 127.913 151.929 127.843 151.939C126.602 152.079 125.361 152.2 124.12 152.328C123.143 152.427 122.195 152.622 121.364 153.091C121.183 153.812 121.565 154.029 122.093 154.314C124.368 155.533 126.71 156.564 129.205 157.285C125.985 157.649 122.803 157.349 119.557 156.698C119.286 157.001 119.041 157.276 118.691 157.672C118.965 158.096 119.175 158.569 119.515 158.917C119.834 159.239 120.286 159.424 120.68 159.67C121.348 160.088 121.905 160.615 122.414 161.419C120.597 161.831 119.006 161.445 117.418 161.055C115.831 160.666 114.227 160.315 112.788 159.571C113.781 157.771 115.579 156.42 115.62 154.093C115.197 153.892 114.831 153.72 114.539 153.579C114.338 153.63 114.211 153.627 114.144 153.688C113.905 153.895 113.616 154.087 113.473 154.355C112.422 156.299 110.755 157.704 109.193 159.178C108.139 160.174 106.854 160.883 105.434 161.288C103.096 161.298 100.919 160.771 99.0288 159.316C99.3215 159.121 99.5888 158.837 99.9102 158.744C101.762 158.211 103.274 157.11 104.623 155.804C105.756 154.709 106.87 153.557 107.789 152.283C109.158 150.387 110.045 148.252 110.539 145.928C110.815 144.616 110.806 143.323 110.822 142.014C110.847 140.112 110.389 138.305 109.609 136.597C108.769 134.762 108.034 132.859 106.691 131.302C106.144 130.666 105.6 130.025 105.056 129.389H103.897C103.866 129.565 103.777 129.737 103.821 129.856C104.028 130.382 104.206 130.941 104.518 131.404C105.982 133.571 106.857 135.994 107.627 138.461C108.34 140.741 108.394 143.004 107.802 145.363C106.892 148.999 104.96 151.929 102.23 154.397C100.499 155.964 98.4528 156.925 96.1935 157.394C95.6366 157.509 94.9174 157.684 94.2969 157.001C95.3343 155.475 96.1489 153.79 96.5085 151.907C96.2157 151.744 95.9548 151.594 95.608 151.399C91.6335 156.35 86.402 159.584 80.5723 161.853C78.5007 162.661 76.3783 163.58 73.963 163.532C73.9503 163.255 73.9407 163.057 73.928 162.862L73.9185 162.856Z" fill="#2F7ABF"/>
<path d="M53.5146 67.341C53.3078 67.3761 53.1041 67.4112 52.8973 67.4463C52.8782 67.2484 52.8622 67.0473 52.8495 66.926C51.9458 66.9867 51.1407 67.076 50.3324 67.0856C48.0668 67.108 45.7979 67.092 43.3413 67.092C42.4789 67.7464 41.5115 68.4838 40.5473 69.2179C40.4519 68.4933 40.1973 67.9124 39.4941 67.4974C39.0199 67.2165 38.6253 66.859 38.0621 66.6611C37.3047 66.3961 36.5506 66.0131 35.9937 65.3395C35.79 65.0937 35.3891 65.0075 35.0804 64.8511L35.0741 64.8447C34.9754 64.6341 34.8768 64.4234 34.7781 64.2159C34.4949 63.054 34.0303 61.9208 34.1576 60.6854C34.2499 60.529 34.4058 60.379 34.4249 60.2162C34.7145 57.7167 36.1019 56.009 38.3548 55.096C39.5227 54.6236 40.7924 54.3299 42.0939 54.3299C46.1129 54.3299 50.132 54.3107 54.151 54.3363C56.5631 54.3522 58.4628 55.3609 59.9139 57.3337C60.4453 58.0551 60.4835 58.8595 60.7858 59.6384C60.8208 59.3319 60.8558 59.0287 60.8908 58.7223C60.9767 58.9425 61.139 59.166 61.139 59.3862C61.1486 60.9918 61.1231 62.6007 61.1104 64.2063C61.0181 64.3021 60.9258 64.401 60.8335 64.4968C60.6171 64.6117 60.4039 64.7266 60.1876 64.8384L60.1939 64.832C59.8662 64.9214 59.4207 64.6596 59.2329 65.1608L59.2393 65.1544C58.7206 65.2884 58.2019 65.4225 57.6832 65.5598C56.4008 66.0705 55.1216 66.5813 53.8392 67.092C53.731 67.175 53.626 67.258 53.5178 67.341H53.5146Z" fill="#4890CD"/>
<path d="M77.6861 129.351C77.6925 130.092 77.702 130.832 77.7084 131.573C77.753 136.699 78.9685 141.51 81.5683 145.947C80.305 147.358 79.0449 148.769 77.7816 150.176C77.3329 150.678 76.8779 151.176 76.426 151.674C76.2701 151.495 76.1141 151.316 76.0187 151.208C71.9328 150.186 67.9488 149.142 65.4349 145.407C65.3108 145.557 65.1612 145.739 65.0116 145.925C64.6489 144.67 64.3434 143.409 64.3147 142.088C64.2988 141.255 64.0411 140.418 64.0697 139.591C64.1334 137.657 64.302 135.726 64.6998 133.826C65.3839 134.174 64.6489 134.947 65.2089 135.4C69.8358 135.47 73.8739 133.858 77.3011 130.797C77.6002 130.318 77.0147 129.68 77.6861 129.348V129.351ZM68.9002 141.277C68.9066 142.953 70.4245 144.421 71.7642 144.344C73.753 144.23 75.2231 142.525 75.0036 140.632C74.243 141.229 73.4666 141.839 72.7188 142.426C71.3727 142.468 70.1222 142.286 68.9002 141.274V141.277Z" fill="#FBB840"/>
<path d="M42.6475 159.328C42.6698 159.281 42.6793 159.223 42.7143 159.185C44.6904 156.877 44.0763 154.534 42.7366 152.245C40.9928 149.267 38.5393 147.036 35.4081 145.567C35.5927 145.42 35.7772 145.273 36.0859 145.028C35.7613 144.415 35.4176 143.764 35.0676 143.116C34.6985 142.432 34.3166 141.756 33.9602 141.111C33.5688 141.255 33.3397 141.338 33.1106 141.421C34.0716 139.84 35.2267 138.493 37.0946 137.967C37.2156 138.88 37.467 139.735 37.8456 140.591C38.6666 142.448 39.8727 144.07 40.8687 145.816C41.2983 146.569 41.7247 147.323 42.1543 148.079C42.1033 147.409 41.8456 146.86 41.5815 146.314C40.4614 143.993 39.3444 141.673 38.2211 139.358C37.9602 138.819 37.8965 138.117 37.1424 137.957C38.5839 136.834 40.2609 136.977 41.9983 137.019C42.4438 137.849 42.8766 138.675 43.3253 139.493C44.875 142.318 46.4311 145.143 47.9839 147.964C49.1359 150.062 50.2815 152.162 51.4461 154.253C52.3053 155.798 53.1836 157.333 54.0714 158.862C54.8065 160.133 55.026 160.755 55.0133 161.853C52.2385 161.662 49.9155 162.623 48.0953 164.758C47.8885 164.321 47.7007 163.874 47.4716 163.449C46.8797 162.367 46.2751 161.292 45.6578 160.222C45.4541 159.868 45.1964 159.542 44.9514 159.213C44.9068 159.153 44.7922 159.146 44.7095 159.115C44.6268 159.281 44.5504 159.44 44.4645 159.612C44.1781 159.383 43.9394 159.188 43.7771 159.054C43.3348 159.159 42.9943 159.242 42.6539 159.325L42.6475 159.328Z" fill="#FBB840"/>
<path d="M62.1382 144.657C62.1732 145.411 61.9218 146.196 62.4118 146.892C61.7277 146.771 61.5717 147.447 61.5272 147.757C61.2376 149.739 60.0634 151.105 58.7524 152.322C57.8359 152.322 57.0435 152.299 56.2544 152.328C55.4557 152.357 54.7142 151.619 53.9473 152.229C53.8168 152.363 53.6864 152.494 53.5559 152.628C51.8948 149.653 50.2337 146.678 48.579 143.697C48.1081 142.847 47.6626 141.982 47.2043 141.124C47.7612 140.741 48.3595 140.747 48.9768 140.935C49.12 140.98 49.2855 141.152 49.3841 141.117C50.5742 140.677 51.8757 140.741 53.0595 140.176C55.3856 139.058 57.1167 137.242 58.7396 135.356C59.7579 134.171 60.4293 132.684 61.2535 131.333C61.4667 130.982 61.7404 130.622 61.1835 130.318C61.96 129.035 62.7364 127.749 63.5128 126.465C63.5701 126.485 63.6274 126.504 63.6847 126.523C63.4333 127.551 63.1819 128.579 62.9305 129.61C62.5518 131.18 62.1127 132.735 62.0809 134.369C62.065 135.145 61.9186 135.921 61.8295 136.693C61.8168 139.352 61.5495 142.021 62.1382 144.657Z" fill="#4890CD"/>
<path d="M77.6862 129.351C77.0116 129.683 77.5971 130.318 77.3011 130.8C73.874 133.862 69.8358 135.474 65.209 135.403C64.6489 134.95 65.384 134.178 64.6998 133.83C64.9003 132.658 65.0371 131.467 65.3203 130.315C65.7149 128.719 66.2209 127.152 66.6664 125.616C71.08 125.351 74.765 123.624 77.928 120.691C78.7204 119.957 79.5159 119.232 80.3114 118.504C79.8405 120.062 79.3154 121.607 78.9208 123.184C78.5485 124.668 78.3162 126.188 78.0203 127.694C77.9121 128.25 77.7975 128.802 77.6862 129.354V129.351Z" fill="#C59F2E"/>
<path d="M79.6527 93.459C80.2414 91.815 80.2286 90.468 79.7609 89.1177C79.2804 87.7355 78.4753 86.5417 77.2979 85.7277C75.4332 84.4412 73.1197 83.8794 70.5072 85.8107C70.2017 85.0956 69.8994 84.3806 69.5844 83.6687C69.3139 83.0527 69.3234 82.4302 69.6098 81.846C70.9431 79.1264 73.0084 77.8463 75.9423 78.3347C76.8206 78.4815 77.7211 78.9859 78.4339 79.5541C80.0982 80.882 81.3806 82.526 81.947 84.6519C82.6694 87.3556 82.3734 89.9062 80.8937 92.2939C80.7282 92.5588 80.5182 92.8014 80.3114 93.0344C80.2159 93.1398 80.0695 93.1972 79.6559 93.4654L79.6527 93.459Z" fill="white"/>
<path d="M99.0129 159.316C100.903 160.771 103.08 161.298 105.419 161.288C103.672 162.536 101.635 163.156 99.6334 163.775C97.199 164.528 94.6979 165.039 92.1267 165.128C91.188 165.16 90.2492 165.39 89.3137 165.368C87.8976 165.33 86.4879 165.151 85.0751 165.029C84.6264 164.838 84.165 164.672 83.7322 164.449C83.3981 164.276 83.1053 164.03 82.7935 163.816C86.0806 162.364 89.1355 160.509 92.044 158.329C93.6414 160.126 95.6684 159.715 97.635 159.552C98.0964 159.513 98.5546 159.392 99.0129 159.312V159.316Z" fill="#C59F2E"/>
<path d="M63.3983 163.137C63.287 163.06 63.1724 162.983 63.061 162.907C62.3196 162.817 61.5813 162.728 60.8399 162.642C59.9584 162.565 59.0738 162.489 58.2051 162.412C57.5973 161.496 57.7182 160.529 57.6418 159.644C57.1263 158.709 56.6267 157.806 56.054 156.768C59.548 156.995 62.8097 156.452 65.995 155.064C67.5129 157.19 69.0085 159.284 71.376 160.506C71.1723 161.486 70.7937 162.402 71.2964 163.411C70.9814 163.459 70.6855 163.507 70.3895 163.552C68.0602 163.414 65.7309 163.277 63.4015 163.14L63.3983 163.137Z" fill="white"/>
<path d="M99.0543 81.7566C98.9206 81.6928 98.7584 81.6545 98.6565 81.5555C97.1291 80.0457 95.5826 78.5837 93.8451 77.2877C92.48 76.2694 91.1848 75.1489 89.7497 74.2137C86.4689 72.0749 82.9876 70.4246 79.1245 69.6361C77.1643 69.2371 75.2168 68.8349 73.2153 68.6083C71.5924 68.4263 69.9695 68.2891 68.3752 68.4168C66.3355 68.5764 64.2957 68.8349 62.2623 69.1956C60.0316 69.5915 57.9951 70.5842 55.7771 70.9513C55.4048 71.012 55.0834 71.3759 54.7365 71.6025C54.4565 71.6025 54.1765 71.6025 53.8933 71.6025C53.2378 71.6855 52.5154 71.2386 51.9235 71.8483L51.6149 71.9281C51.4621 71.8962 51.3094 71.8611 51.1503 71.8259C54.3229 69.6713 59.9871 67.4847 63.392 67.025C64.1016 66.9324 64.8208 66.8718 65.524 66.7441C68.4102 66.2238 71.2996 66.3355 74.1858 66.709C80.4706 67.6379 86.2653 69.7447 91.4012 73.6008C94.0265 75.5735 96.3495 77.8208 98.3701 80.3936C98.6756 80.783 98.8252 81.3002 99.0447 81.7566H99.0543Z" fill="#67C3EB"/>
<path d="M80.8747 64.8256C79.4236 64.8639 77.9789 65.0043 76.5406 64.5862C76.006 64.4298 75.3918 64.5606 74.819 64.5128C74.5931 64.4936 74.3767 64.3404 74.1572 64.251L75.0641 64.1106C75.0545 64.0691 75.045 64.0276 75.0323 63.9829C74.679 63.9222 74.3258 63.8648 73.9949 63.8073C74.7077 63.2806 75.3441 62.7635 76.0283 62.3198C77.9312 61.0908 79.4873 59.4596 80.7856 57.6657C82.4021 55.428 83.4363 52.8519 84.0632 50.1386C84.2509 49.3183 84.2414 49.3183 85.3615 49.2289C86.0584 49.9248 86.6121 50.6941 86.6344 51.7347C86.628 52.2103 86.6089 52.6891 86.6153 53.1648C86.6407 54.8853 86.2939 56.491 85.7243 58.1445C85.0465 60.1204 83.6877 61.41 82.1921 62.5847C81.177 63.3827 79.8914 63.836 78.5453 64.5383C79.2677 64.5383 79.8373 64.5191 80.4005 64.5511C80.5596 64.5606 80.7124 64.7298 80.8683 64.8256H80.8747Z" fill="#4890CD"/>
<path d="M57.6736 75.3947C56.9545 75.3245 56.2512 75.366 55.5098 75.1521C54.6474 74.9031 53.6673 75.2032 52.7381 75.3085C51.5798 75.4426 50.5488 75.8704 49.4542 76.1417C49.3651 76.164 49.2951 76.279 49.1169 76.4386C49.2823 76.7929 49.4669 77.1855 49.6706 77.6165C49.3173 78.4336 49.0309 79.3945 48.1845 79.8892C47.4462 80.3202 46.5871 80.5436 45.8202 80.8437C44.9323 80.6043 44.175 80.3298 44.2386 79.1742C42.062 81.0224 40.6333 83.2665 39.1822 85.5106C37.3843 88.2845 36.4901 91.4 35.7328 94.5443C35.1982 96.7692 34.8672 99.0611 35.0327 101.388C35.0995 102.339 35.0613 103.303 35.039 104.261C35.0359 104.418 34.8704 104.571 34.7781 104.724C34.6508 102.467 34.3135 100.229 34.4185 97.9535C34.549 95.1284 34.9277 92.3449 35.7455 89.6508C36.7669 86.2831 38.4885 83.2984 40.7796 80.5915C42.5807 78.4688 44.7159 76.8855 47.1312 75.6022C48.1081 75.0819 49.1391 74.8553 50.2433 74.7052C51.2871 74.5648 52.3436 74.3158 53.3523 74.5073C54.7938 74.7787 56.3658 74.4594 57.6673 75.4011L57.6736 75.3947Z" fill="#A1AFB3"/>
<path d="M33.4575 147.572C35.6628 148.459 37.658 149.659 39.2045 151.514C40.2514 152.769 41.1742 154.087 41.1201 155.836C40.5887 155.996 40.0573 156.165 39.5227 156.315C38.4344 156.621 37.3429 157.001 36.1942 156.743C35.1886 156.519 34.1958 156.219 33.1839 155.951C33.1711 156.178 33.1648 156.337 33.1552 156.494C31.806 155.539 30.8832 154.304 30.6477 152.622C31.3414 152.274 30.6127 151.52 31.1537 151.038C31.3446 152.373 31.5323 153.688 33.2825 154.368C32.5061 152.692 32.4838 151.176 32.4965 149.637C32.5029 148.759 32.7288 148.07 33.4575 147.575V147.572Z" fill="#4890CD"/>
<path d="M65.0084 145.928C65.158 145.746 65.3107 145.561 65.4317 145.411C67.9456 149.145 71.9296 150.189 76.0155 151.211C76.1109 151.319 76.2669 151.498 76.4228 151.677C75.4045 153.065 74.3671 154.435 73.3807 155.846C72.9702 156.43 72.6774 157.097 72.3305 157.729C69.8389 156.838 65.8612 151.141 65.0052 145.931L65.0084 145.928Z" fill="#C59F2E"/>
<path d="M88.1586 172.48C89.1514 170.549 90.577 169.444 92.7822 169.559C93.4123 169.591 94.0487 169.565 94.647 169.565C95.0309 169.095 95.2367 168.521 95.2643 167.842C96.6994 167.519 98.141 167.197 99.662 166.855C99.662 168.279 99.8593 169.792 99.6175 171.232C99.2452 173.441 97.8546 174.928 95.6812 175.646C94.8474 175.921 94.0805 176.074 93.2882 175.359C93.635 174.101 94.6342 173.131 95.1402 171.918C94.577 171.254 93.9119 171.439 93.25 171.634C92.0662 171.982 91.0257 172.687 89.791 172.936C89.1705 173.061 88.6709 173.16 88.1586 172.483V172.48Z" fill="#ED3153"/>
<path d="M60.8844 58.7223C60.8494 59.0287 60.8144 59.332 60.7794 59.6384C60.4771 58.8595 60.4389 58.0551 59.9075 57.3337C58.4564 55.361 56.5567 54.3491 54.1446 54.3363C50.1256 54.3107 46.1065 54.3331 42.0875 54.3299C40.7892 54.3299 39.5163 54.6236 38.3484 55.096C36.0955 56.0122 34.7081 57.7167 34.4185 60.2162C34.3994 60.3822 34.2435 60.529 34.1512 60.6854C33.9284 58.6297 34.3071 56.7591 35.6245 55.0864C36.7574 53.6436 38.1862 52.769 39.9841 52.7466C44.945 52.6892 49.9092 52.7019 54.8733 52.7306C57.4954 52.7434 59.8884 54.7321 60.5344 56.9027C60.5726 57.0336 60.7189 57.1358 60.8144 57.2507C60.8398 57.7423 60.8621 58.2307 60.8876 58.7223H60.8844Z" fill="#67C3EB"/>
<path d="M89.7847 133.507C90.5356 133.833 89.8292 134.58 90.2493 135.043C90.3511 134.877 90.4497 134.724 90.647 134.408C90.6884 134.854 90.787 135.177 90.7393 135.474C90.227 138.714 89.4919 141.899 87.8531 144.779C87.0894 146.123 86.2907 147.466 85.1387 148.549C84.1745 149.455 83.2867 150.442 82.3225 151.351C80.1969 153.359 78.0457 155.338 75.9073 157.327C75.8691 157.254 75.8214 157.167 75.7769 157.078C76.4228 155.511 77.3838 154.144 78.5485 152.935C80.13 151.294 81.737 149.675 83.379 148.095C85.6097 145.947 87.1944 143.377 88.2986 140.517C88.7409 139.368 89.2182 138.197 89.1896 136.904C89.1769 136.406 89.3773 135.905 89.4792 135.403L89.546 135.426C90.0424 135.17 89.7433 134.743 89.7688 134.385C89.7751 134.091 89.7815 133.798 89.7878 133.504L89.7847 133.507Z" fill="#67C3EB"/>
<path d="M85.3646 49.2289C84.2445 49.3151 84.254 49.3183 84.0663 50.1387C83.4394 52.852 82.4084 55.428 80.7887 57.6657C79.4904 59.4597 77.9343 61.0908 76.0314 62.3198C75.3472 62.7635 74.7108 63.2838 73.998 63.8073C74.3258 63.8616 74.6822 63.9223 75.0354 63.9829C75.0449 64.0244 75.0545 64.0659 75.0672 64.1106L74.1603 64.251C72.9097 64.2447 71.6591 64.2383 70.4085 64.2351C70.1953 64.1393 69.9821 64.0436 69.7689 63.9478C70.2622 63.7978 70.7904 63.7211 71.2423 63.4881C75.7068 61.193 79.1149 57.8189 81.3742 53.3212C82.3129 51.4538 82.7966 49.4364 83.1308 47.3807C83.153 47.2402 83.2294 47.1125 83.3153 46.8795C84.2859 47.4764 84.9159 48.2745 85.3678 49.2321L85.3646 49.2289Z" fill="#67C3EB"/>
<path d="M128.021 151.712C127.939 151.664 127.856 151.613 127.652 151.495C127.996 151.409 128.247 151.348 128.524 151.278C128.473 151.192 128.435 151.077 128.397 151.077C127.554 151.061 126.71 151.003 125.87 151.064C124.578 151.153 123.442 150.751 122.542 150.231C121.533 150.058 120.728 149.921 119.945 149.79C119.172 148.705 118.965 147.514 119.083 146.244C120.247 146.56 121.412 146.873 122.577 147.189C123.099 147.313 123.62 147.441 124.142 147.565V147.559C124.327 148.057 124.772 147.792 125.1 147.881L125.094 147.875C125.746 148.405 126.516 148.526 127.321 148.523C127.423 148.616 127.512 148.772 127.633 148.804C128.798 149.107 129.969 149.385 131.14 149.672C131.436 149.736 131.735 149.8 132.126 149.886C130.888 150.949 129.609 151.68 128.018 151.715L128.021 151.712Z" fill="#4890CD"/>
<path d="M53.5591 152.631C53.6896 152.497 53.82 152.366 53.9505 152.232C54.7142 151.623 55.4588 152.36 56.2575 152.331C57.0467 152.303 57.8391 152.325 58.7555 152.325C60.0698 151.109 61.2408 149.739 61.5304 147.76C61.5749 147.447 61.7308 146.774 62.415 146.895C62.73 147.814 63.0451 148.737 63.3569 149.656C63.6688 150.579 63.9742 151.501 64.337 152.583C63.6338 152.896 62.8796 153.35 62.0618 153.567C61.1676 153.803 60.2193 153.889 59.2933 153.918C57.6577 153.972 56.0189 153.934 54.2369 153.934C54.0237 153.522 53.7946 153.078 53.5623 152.631H53.5591Z" fill="#2F7ABF"/>
<path d="M61.1867 130.318C61.7435 130.618 61.4699 130.982 61.2567 131.333C60.4325 132.687 59.7642 134.171 58.7428 135.356C57.1167 137.242 55.3888 139.062 53.0626 140.176C51.8789 140.744 50.5806 140.68 49.3873 141.117C49.2886 141.152 49.1231 140.98 48.98 140.935C48.3658 140.75 47.7644 140.741 47.2075 141.124C46.8861 140.533 46.5647 139.943 46.1892 139.256C47.0038 139.256 47.7421 139.295 48.474 139.25C50.3705 139.135 52.1366 138.599 53.7627 137.584C56.213 136.055 58.1509 133.986 59.9552 131.768C60.3561 131.276 60.773 130.797 61.1835 130.315L61.1867 130.318Z" fill="#67C3EB"/>
<path d="M85.0082 66.7855C84.8937 66.7472 84.7823 66.7089 84.6677 66.6706C84.6964 66.4184 84.725 66.1662 84.7505 65.962C85.3583 65.8151 85.8929 65.6555 86.437 65.5629C87.7226 65.3427 88.5754 64.4457 89.5778 63.7211C91.3884 62.4123 92.674 60.7205 93.8482 58.7765H94.5547C94.771 61.6366 93.8387 64.0754 91.6875 65.946C90.8475 66.677 89.8992 67.6282 88.5531 66.7823C88.4386 66.7121 88.2413 66.7568 88.0853 66.7759C87.1434 66.9004 86.3065 66.5174 85.4824 66.2461C85.3169 66.4312 85.161 66.6068 85.005 66.7823L85.0082 66.7855Z" fill="#4890CD"/>
<path d="M35.0772 64.8544C35.389 65.014 35.7868 65.097 35.9904 65.3428C36.5473 66.0163 37.3015 66.3962 38.0588 66.6643C38.6221 66.8622 39.0167 67.2197 39.4908 67.5006C40.194 67.9156 40.4518 68.4966 40.5441 69.2212C41.5083 68.487 42.4756 67.7528 43.338 67.0952C45.7978 67.0952 48.0635 67.108 50.3292 67.0889C51.1343 67.0825 51.9425 66.9899 52.8463 66.9292C52.8558 67.0505 52.8749 67.2485 52.894 67.4496C52.4994 67.7688 52.108 68.0848 51.7516 68.3721H43.7421C42.0683 69.0201 41.3173 70.6896 39.5894 71.4812C39.5894 70.7662 39.4972 70.281 39.6085 69.85C39.7995 69.1127 39.4972 68.6913 38.9053 68.3785C38.3102 68.0625 37.7024 67.772 37.1169 67.4464C36.0795 66.8718 35.2554 66.1153 35.074 64.8576L35.0772 64.8544Z" fill="#2F7ABF"/>
<path d="M37.7375 128.055C38.202 128.764 38.6666 129.472 39.2299 130.331C36.6651 129.46 34.5171 130.178 32.5156 131.468C31.2554 132.278 30.0844 133.226 28.8688 134.104C28.5761 134.318 28.2642 134.503 27.8664 134.762C27.7201 134.203 27.5864 133.689 27.4528 133.179C28.4329 132.336 29.3939 131.471 30.3931 130.657C32.3915 129.029 34.5553 127.809 37.2697 128.071C37.4256 128.087 37.5847 128.062 37.7406 128.055H37.7375Z" fill="#ED3153"/>
<path d="M80.8746 64.8256C80.7187 64.7299 80.5691 64.5607 80.4068 64.5511C79.8436 64.516 79.274 64.5383 78.5516 64.5383C79.8977 63.8361 81.1801 63.3828 82.1984 62.5848C83.694 61.4101 85.0496 60.1204 85.7306 58.1445C86.297 56.491 86.647 54.8854 86.6216 53.1648C86.6152 52.6892 86.6343 52.2104 86.6407 51.7347C87.4616 51.9997 87.258 52.7913 87.3694 53.3436C87.7194 55.1024 87.7353 56.8677 87.3184 58.6457C86.7902 60.8929 85.3678 62.4092 83.4967 63.5615C82.6757 64.0691 81.7529 64.4107 80.8778 64.8288L80.8746 64.8256Z" fill="#2F7ABF"/>
<path d="M42.6475 159.328C42.988 159.245 43.3285 159.166 43.7708 159.057C43.9331 159.188 44.1749 159.383 44.4581 159.616C44.544 159.443 44.6204 159.284 44.7031 159.118C44.7859 159.15 44.9004 159.156 44.945 159.217C45.1932 159.545 45.4478 159.871 45.6514 160.225C46.2688 161.295 46.8734 162.37 47.4652 163.453C47.6975 163.877 47.8821 164.324 48.0889 164.761C47.6657 165.406 47.2425 166.051 46.7556 166.792C44.6968 164.768 43.3125 162.425 41.9888 159.909C42.2052 159.718 42.4215 159.523 42.6411 159.332L42.6475 159.328Z" fill="#C59F2E"/>
<path d="M85.0083 66.7855C85.1642 66.61 85.3202 66.4344 85.4856 66.2493C86.3098 66.5206 87.1467 66.9036 88.0886 66.7792C88.2445 66.76 88.4418 66.7153 88.5564 66.7855C89.8993 67.6283 90.8507 66.677 91.6908 65.9492C93.8419 64.0786 94.7743 61.643 94.5579 58.7797C94.6661 58.7797 94.7775 58.7765 94.8857 58.7733C95.1212 59.4054 95.0798 60.1236 95.4935 60.6982C95.4139 64.7841 93.3105 67.4367 89.6765 69.0679C88.0409 68.4199 86.4275 67.8102 85.0083 66.7824V66.7855Z" fill="#2F7ABF"/>
<path d="M94.8857 58.7733C94.7775 58.7733 94.6661 58.7765 94.5579 58.7797H93.8515C92.6773 60.7237 91.3917 62.4155 89.581 63.7243C88.5787 64.4489 87.7258 65.3427 86.4403 65.5661C85.8961 65.6587 85.3647 65.8183 84.7537 65.9652C84.7314 66.1663 84.6996 66.4216 84.671 66.6738C84.2573 66.5334 83.8436 66.3961 83.1467 66.1631C84.6392 65.2246 85.9725 64.5 87.1785 63.603C88.4736 62.6358 89.721 61.576 90.8571 60.4268C91.9454 59.3256 92.865 58.0519 93.9851 56.708C94.3256 57.2347 94.6184 57.688 94.9111 58.1381C94.9048 58.352 94.8984 58.5658 94.892 58.7797L94.8857 58.7733Z" fill="#67C3EB"/>
<path d="M35.7168 135.515C33.8998 136.722 32.2896 138.161 30.8863 139.955C30.2976 139.078 29.763 138.279 29.1456 137.36C30.8131 135.758 32.4232 134.229 34.4121 133.153C34.7048 133.44 35.5799 135.027 35.7168 135.518V135.515Z" fill="#A1AFB3"/>
<path d="M53.8486 169.307C53.4 169.878 52.9545 170.45 52.4167 171.136C51.1215 170.43 49.9601 169.435 48.6617 168.455C49.3491 167.449 49.906 166.421 50.8861 165.722C51.5734 165.713 52.2035 165.859 52.789 166.444C53.0213 167.372 53.9441 168.142 53.8486 169.307Z" fill="#A1AFB3"/>
<path d="M37.7374 128.055C37.5815 128.062 37.4224 128.084 37.2665 128.071C34.5553 127.813 32.3914 129.029 30.3899 130.657C29.3875 131.471 28.4296 132.336 27.4495 133.179C27.2968 132.406 27.4941 131.72 28.016 131.155C29.7216 129.3 31.5768 127.656 33.9634 126.705C35.6054 126.054 36.8146 126.456 37.7342 128.055H37.7374Z" fill="#D08ABB"/>
<path d="M53.8487 169.307C53.9441 168.142 53.0213 167.372 52.789 166.444C52.2035 165.859 51.5735 165.713 50.8861 165.722C51.6466 164.621 52.8559 164.445 54.0269 164.196C54.4724 164.321 54.9179 164.448 55.5034 164.611C55.7707 165.917 56.1271 167.273 56.0475 168.71C55.3188 168.908 54.5838 169.109 53.8487 169.31V169.307Z" fill="white"/>
<path d="M35.7168 135.515C35.58 135.024 34.7049 133.437 34.4121 133.15C36.0891 131.879 37.9157 132.199 39.9045 132.677C40.2386 133.252 40.63 133.926 41.1328 134.787C39.1662 134.503 37.4097 134.835 35.7168 135.515Z" fill="white"/>
<path d="M33.4575 147.572C32.7288 148.07 32.5028 148.756 32.4965 149.634C32.4837 151.173 32.506 152.689 33.2825 154.365C31.5323 153.685 31.3445 152.37 31.1536 151.035C30.6126 151.52 31.3413 152.271 30.6476 152.619C29.8457 150.442 30.444 148.418 31.3827 146.327C32.0796 146.745 32.7669 147.157 33.4575 147.572Z" fill="#67C3EB"/>
<path d="M71.6528 110.112C70.5741 112.896 68.2447 113.949 65.9663 115.277C66.3482 114.051 66.6823 112.982 67.026 111.881C68.4738 111.328 69.9599 110.76 71.6528 110.112Z" fill="#D08ABB"/>
<path d="M59.567 117.212C60.2162 116.401 60.9099 115.625 61.4954 114.773C62.0173 114.016 62.5328 113.225 62.4755 112.171H63.5765C63.9997 113.247 63.5479 114.262 63.236 115.191C62.6664 116.886 61.104 117.103 59.567 117.208V117.212Z" fill="#576975"/>
<path d="M33.152 156.494C33.1615 156.337 33.1679 156.178 33.1806 155.951C34.1925 156.222 35.1854 156.519 36.1909 156.743C37.3397 156.998 38.4312 156.618 39.5195 156.315C40.0541 156.165 40.5855 155.996 41.1169 155.836V157.033C38.3516 158.048 35.6913 158.342 33.152 156.494Z" fill="#2F7ABF"/>
<path d="M37.1393 137.957C37.8935 138.117 37.9571 138.822 38.218 139.358C39.3445 141.676 40.4614 143.997 41.5784 146.314C41.8425 146.86 42.1003 147.409 42.1512 148.079C41.7216 147.326 41.2952 146.569 40.8656 145.816C39.8696 144.07 38.6635 142.448 37.8425 140.591C37.4639 139.735 37.2125 138.88 37.0916 137.967L37.1361 137.954L37.1393 137.957Z" fill="white"/>
<path d="M33.1107 141.424C33.3398 141.341 33.5689 141.258 33.9603 141.114C34.3167 141.759 34.6985 142.436 35.0677 143.119C35.4177 143.767 35.7614 144.418 36.086 145.031C35.7773 145.277 35.5927 145.423 35.4082 145.57C34.8608 145.273 34.3135 144.977 33.7662 144.68C33.8489 144.638 33.9317 144.594 34.0526 144.533C33.8521 144.143 33.5689 143.958 33.1266 144.057C33.1775 143.186 32.7193 142.318 33.1138 141.446L33.1075 141.43L33.1107 141.424Z" fill="#C59F2E"/>
<path d="M74.8858 86.6501C75.8946 86.3948 76.3592 86.848 76.7188 87.528V89.0953C76.3305 89.2357 75.9168 89.389 75.6432 89.4879C74.574 89.1017 74.5581 88.227 74.243 87.4482C74.4467 87.1992 74.6726 86.9183 74.8858 86.6533V86.6501Z" fill="white"/>
<path d="M74.1922 66.709C71.3028 66.3355 68.4166 66.2206 65.5304 66.7441C64.8271 66.8718 64.1079 66.9324 63.3983 67.025C63.4142 66.8718 63.4333 66.7185 63.4492 66.5493C67.0005 65.8184 70.5454 65.464 74.1444 66.2652C74.1603 66.4057 74.1762 66.5589 74.1922 66.7121V66.709Z" fill="#171A44"/>
<path d="M75.4777 166.906C74.8636 166.836 74.2431 166.801 73.6385 166.683C72.3847 166.44 71.115 166.424 69.8453 166.354C68.7507 166.294 67.6624 166.124 66.5741 166.003C66.7332 165.91 66.8987 165.732 67.0546 165.738C69.0912 165.827 71.1532 165.783 73.1516 166.118C74.1221 166.281 75.1086 166.223 76.111 166.447C75.8691 166.619 75.675 166.763 75.4777 166.903V166.906Z" fill="#171A44"/>
<path d="M40.8528 52.1752H54.3992C53.4032 52.4625 42.5871 52.5231 40.8528 52.1752Z" fill="#171A44"/>
<path d="M71.0482 76.7577C73.2598 74.9669 77.9026 75.5287 79.9487 77.6196C79.0704 77.6196 78.4881 76.9205 77.7148 76.6715C75.6751 76.0107 73.6512 75.8703 71.6624 76.8407C71.411 76.962 71.2105 77.1312 71.0482 76.7577Z" fill="#171A44"/>
<path d="M58.886 170.523C58.9974 171.928 59.1501 173.332 59.2106 174.74C59.2615 175.924 59.0865 176.199 58.0046 177.207C57.3777 177.125 56.6426 177.584 56.0284 176.936H57.8295C58.1032 176.671 58.3991 176.384 58.6092 176.183C58.6092 174.392 58.5996 172.77 58.6219 171.152C58.6219 170.941 58.7937 170.734 58.886 170.526V170.523Z" fill="#171A44"/>
<path d="M63.3983 163.137C65.7277 163.274 68.057 163.411 70.3863 163.548C70.6823 163.695 70.9814 163.842 71.4237 164.059C71.045 164.091 70.7618 164.206 70.5677 164.12C69.6194 163.689 68.6043 163.97 67.656 163.788C66.3164 163.532 64.983 163.497 63.6338 163.481C63.5542 163.481 63.4747 163.258 63.3951 163.14L63.3983 163.137Z" fill="#171A44"/>
<path d="M62.1382 144.657C61.5495 142.021 61.82 139.352 61.8295 136.693C61.925 136.849 62.0905 136.999 62.1032 137.162C62.1382 137.635 62.1223 138.113 62.1095 138.589C62.0618 140.364 62.1286 142.129 62.4182 143.885C62.4628 144.15 62.6028 144.539 62.1382 144.657Z" fill="#171A44"/>
<path d="M89.7847 133.507C89.7783 133.801 89.7719 134.095 89.7656 134.388C89.2882 134.647 89.5333 135.062 89.5428 135.429L89.476 135.407C89.371 135.209 89.18 135.014 89.1737 134.813C89.1419 133.772 89.161 132.732 89.161 131.426C88.8236 131.704 88.6009 131.799 88.5468 131.953C88.4577 132.205 88.48 132.499 88.2413 132.773C88.2286 132.582 88.2159 132.393 88.2031 132.202C88.2965 131.48 88.6709 131.073 89.3264 130.979C89.4792 131.819 89.6319 132.661 89.7847 133.507Z" fill="#171A44"/>
<path d="M60.8843 58.7223C60.8589 58.2307 60.8366 57.7423 60.8112 57.2507C60.8589 57.1645 60.9034 57.0783 61.0498 56.807C61.2057 57.7168 61.543 58.3935 61.4953 59.2266C61.4158 60.7046 61.4699 62.1889 61.4762 63.6701C61.4762 63.951 61.473 64.2 61.1007 64.2063C61.1135 62.6007 61.1389 60.9919 61.1294 59.3862C61.1294 59.1628 60.9671 58.9425 60.8812 58.7223H60.8843Z" fill="#171A44"/>
<path d="M84.3432 105.094C84.4514 106.02 84.6328 106.946 84.6391 107.875C84.6455 108.644 84.4514 109.413 84.3464 110.182C84.2477 110.077 84.0663 109.975 84.0631 109.87C84.0441 108.385 84.0441 106.898 84.0631 105.413C84.0631 105.308 84.2445 105.203 84.34 105.097L84.3432 105.094Z" fill="#171A44"/>
<path d="M81.352 167.612C81.2279 167.526 81.1101 167.372 80.9796 167.36C79.4681 167.216 77.9534 167.092 76.4387 166.964C76.6519 166.871 76.8619 166.705 77.0783 166.702C78.5326 166.673 79.9964 166.578 81.4856 167.219C81.4601 167.289 81.4061 167.452 81.352 167.612Z" fill="#171A44"/>
<path d="M82.7935 163.82C83.1054 164.034 83.4013 164.279 83.7322 164.452C84.165 164.675 84.6264 164.841 85.0751 165.033C84.8174 165.045 84.5501 165.1 84.2987 165.065C83.274 164.921 82.2525 164.752 80.951 164.547C81.6639 164.059 82.2239 163.935 82.7903 163.82H82.7935Z" fill="#2F7ABF"/>
<path d="M84.6646 84.9839C84.776 85.8553 84.9605 86.73 84.9732 87.6014C84.9796 88.3165 84.776 89.0347 84.6678 89.7497C84.5691 89.6444 84.3877 89.5422 84.3877 89.4369C84.3686 88.0579 84.3686 86.6789 84.3877 85.2999C84.3877 85.1946 84.5691 85.0892 84.6678 84.9839H84.6646Z" fill="#171A44"/>
<path d="M42.7112 182.398C44.2991 182.602 45.8838 182.81 47.4717 183.014C46.8702 183.643 46.1097 183.257 45.451 183.25C44.56 183.241 43.6722 182.976 42.7589 182.813C42.7462 182.701 42.7303 182.548 42.7144 182.395L42.7112 182.398Z" fill="#171A44"/>
<path d="M29.973 180.84C31.4591 181.032 32.942 181.223 34.428 181.415C33.9253 181.983 33.1934 181.791 32.7097 181.641C31.736 181.338 30.7718 181.408 29.7312 181.36C29.8267 181.156 29.8999 180.997 29.973 180.837V180.84Z" fill="#171A44"/>
<path d="M37.9284 181.798C39.4112 181.992 40.8941 182.187 42.377 182.379C41.7087 183.008 40.8146 182.765 40.1909 182.58C39.3635 182.334 38.5616 182.417 37.6929 182.308C37.782 182.117 37.8552 181.954 37.9284 181.795V181.798Z" fill="#171A44"/>
<path d="M131.143 149.669C129.972 149.382 128.801 149.101 127.636 148.801C127.515 148.769 127.429 148.612 127.324 148.517C128.645 148.341 129.819 148.951 131.054 149.241C131.114 149.254 131.114 149.522 131.143 149.669Z" fill="#171A44"/>
<path d="M66.2464 166.003C65.2949 165.898 64.3434 165.792 63.392 165.687C63.5479 165.594 63.7038 165.425 63.8661 165.422C64.6394 165.393 65.4158 165.409 66.1859 165.409C66.2145 165.693 66.2304 165.85 66.2464 166.003Z" fill="#171A44"/>
<path d="M51.618 71.9249L51.9267 71.8451C52.56 71.8579 53.1932 71.8706 53.8265 71.8802C54.1542 71.8802 54.482 71.8802 54.8066 71.8802L55.7357 71.9217C55.6816 72.0047 55.6276 72.1579 55.5735 72.1579C54.3101 72.1739 53.0436 72.1739 51.7803 72.1579C51.7231 72.1579 51.669 72.0047 51.6149 71.9249H51.618Z" fill="#171A44"/>
<path d="M69.769 63.9446C69.9822 64.0403 70.1954 64.1361 70.4086 64.2319C69.6162 64.8352 68.7507 64.4138 67.8883 64.2893C68.5152 64.1744 69.1421 64.0595 69.769 63.9446Z" fill="#2F7ABF"/>
<path d="M33.117 141.44C32.7224 142.311 33.1806 143.183 33.1297 144.054C32.2546 142.985 32.2514 142.487 33.117 141.44Z" fill="#FBB840"/>
<path d="M94.8856 58.7733C94.892 58.5595 94.8984 58.3456 94.9047 58.1317C95.7098 58.8467 95.503 59.798 95.4934 60.7014C95.0766 60.1268 95.1179 59.4086 94.8856 58.7765V58.7733Z" fill="#4890CD"/>
<path d="M127.328 148.52C126.523 148.52 125.752 148.402 125.1 147.872C125.902 147.878 126.774 147.652 127.328 148.52Z" fill="#171A44"/>
<path d="M60.8398 162.639C61.5812 162.728 62.3195 162.817 63.0609 162.903C62.8605 162.993 62.6632 163.152 62.4563 163.165C61.8517 163.2 61.2471 163.178 60.5789 163.178C60.6839 162.958 60.7634 162.798 60.8398 162.639Z" fill="#171A44"/>
<path d="M58.5646 166.696L58.6378 168.87C58.6155 169.064 58.5933 169.259 58.5487 169.649C58.1923 168.257 58.2114 167.548 58.5646 166.693V166.696Z" fill="#171A44"/>
<path d="M27.1218 180.693C27.8601 180.722 28.5952 180.751 29.3334 180.783C28.4806 181.198 27.6946 181.166 27.1218 180.693Z" fill="#171A44"/>
<path d="M124.149 147.562C123.627 147.438 123.105 147.31 122.583 147.185C122.675 147.087 122.761 146.905 122.857 146.901C123.401 146.879 123.837 147.109 124.152 147.562H124.149Z" fill="#171A44"/>
<path d="M59.2647 76.0332C58.6378 76.0459 58.0428 75.9661 57.6577 75.382C58.2751 75.4011 58.8637 75.4873 59.2647 76.0332Z" fill="#A1AFB3"/>
<path d="M57.6799 65.563C58.1986 65.4289 58.7173 65.2949 59.236 65.1576C58.5423 65.8567 58.3164 65.9173 57.6799 65.563Z" fill="#171A44"/>
<path d="M25.5276 180.393C25.9476 180.416 26.3677 180.438 26.7877 180.46C26.2881 180.856 25.8999 180.837 25.5276 180.393Z" fill="#171A44"/>
<path d="M119.092 146.247C118.745 146.244 118.398 146.241 118.055 146.237C118.109 146.052 118.16 145.864 118.227 145.641C118.554 145.87 118.825 146.059 119.095 146.25L119.092 146.247Z" fill="#4890CD"/>
<path d="M33.1266 144.054C33.5689 143.955 33.8521 144.14 34.0526 144.53C33.9317 144.59 33.8489 144.635 33.7662 144.677C33.553 144.469 33.3398 144.262 33.1266 144.054Z" fill="#FBB840"/>
<path d="M72.2701 176.891C72.4802 176.681 72.6934 176.47 72.9034 176.259C72.9861 176.301 73.072 176.339 73.1866 176.397C73.0084 176.808 72.7029 176.965 72.2701 176.895V176.891Z" fill="#171A44"/>
<path d="M125.107 147.878C124.779 147.786 124.333 148.051 124.146 147.556C124.47 147.648 124.966 147.237 125.107 147.878Z" fill="#171A44"/>
<path d="M59.2297 65.164C59.4175 64.666 59.863 64.9246 60.1907 64.8352C60.0539 65.48 59.5543 65.0682 59.2297 65.164Z" fill="#171A44"/>
<path d="M68.1333 181.038C68.3497 180.815 68.5661 180.591 68.7825 180.371C68.8652 180.885 68.6838 181.14 68.1333 181.038Z" fill="#171A44"/>
<path d="M71.6305 177.527C71.8469 177.313 72.0633 177.096 72.2797 176.882C72.3688 177.405 72.1524 177.622 71.6305 177.527Z" fill="#171A44"/>
<path d="M59.8979 76.3524C59.6402 76.3204 59.2902 76.4705 59.2456 76.0204C59.462 76.1321 59.6784 76.2406 59.8979 76.3524Z" fill="#A1AFB3"/>
<path d="M69.7212 179.442C69.9121 179.317 70.103 179.196 70.2972 179.072C70.3958 179.646 69.9694 179.404 69.7212 179.442Z" fill="#171A44"/>
<path d="M71.2773 178.095C71.3983 177.903 71.5192 177.709 71.6433 177.517C71.6051 177.763 71.8469 178.187 71.2773 178.095Z" fill="#171A44"/>
<path d="M60.1812 64.8447C60.3975 64.7298 60.6107 64.6149 60.8271 64.5032C60.808 64.9884 60.4548 64.8415 60.1812 64.8447Z" fill="#171A44"/>
<path d="M34.7748 64.2191C34.8735 64.4298 34.9721 64.6405 35.0708 64.848C34.6603 64.7873 34.7685 64.4777 34.7748 64.2191Z" fill="#2F7ABF"/>
<path d="M79.5955 169.521C79.7005 169.409 79.8087 169.297 79.9137 169.186V170C79.7291 169.719 79.6623 169.62 79.5955 169.518V169.521Z" fill="#171A44"/>
<path d="M59.567 117.212C59.4588 117.387 59.5129 117.301 59.567 117.212C59.3888 117.317 59.4779 117.263 59.567 117.212Z" fill="#576975"/>
<path d="M56.038 176.949C55.933 176.958 55.8375 176.933 55.7516 176.875C55.7961 176.799 55.8407 176.725 55.8884 176.649C55.9393 176.748 55.9902 176.85 56.038 176.949Z" fill="#171A44"/>
<path d="M70.6599 178.74C70.7522 178.644 70.8445 178.548 70.9399 178.452C70.8477 178.548 70.7554 178.644 70.6599 178.74Z" fill="#171A44"/>
<path d="M69.403 179.761C69.5143 179.653 69.6257 179.541 69.7339 179.432C69.6225 179.541 69.5111 179.653 69.403 179.761Z" fill="#171A44"/>
<path d="M60.1748 76.3779C60.1398 76.4545 60.108 76.5279 60.073 76.6045C60.0094 76.5152 59.9457 76.4258 59.8853 76.3396C59.9839 76.3492 60.0794 76.3619 60.1748 76.3779Z" fill="#A1AFB3"/>
<path d="M99.3502 81.7694C99.2738 81.8492 99.2006 81.9322 99.1242 82.012C99.0988 81.9258 99.0733 81.8397 99.0479 81.7503C99.1497 81.7311 99.2515 81.7375 99.3502 81.7694Z" fill="#67C3EB"/>
<path d="M66.5391 182.634C66.6504 182.513 66.7618 182.395 66.87 182.273C66.7586 182.395 66.6473 182.513 66.5391 182.634Z" fill="#171A44"/>
<path d="M77.0561 30.0411C76.6265 30.6156 76.4451 31.27 76.4165 31.9755C76.2605 31.9914 76.1046 32.0074 75.9519 32.0234C75.2136 33.6545 73.9057 34.7558 72.5533 35.8252C71.0227 37.0318 69.3107 37.4468 67.3632 37.434C58.3769 37.3797 49.3873 37.4085 40.2482 37.4085C39.8186 37.766 39.2681 38.1586 38.7908 38.6279C36.7924 40.6006 34.8194 42.5957 32.8306 44.5748C32.7288 44.6737 32.5633 44.7089 32.4583 44.7567C32.2355 44.6322 32.0573 44.5333 31.876 44.4311C31.9778 44.0321 32.0701 43.6331 32.1783 43.2373C32.4933 42.0945 32.8147 40.9549 33.1361 39.8058C33.047 39.0652 32.5792 38.6311 31.9237 38.3597C30.2531 37.6702 28.8338 36.6264 27.6596 35.2602C26.3804 33.7663 25.5944 32.0553 25.5339 30.0506C26.0876 29.8815 25.814 29.425 25.814 29.1153C25.8331 23.6409 25.8203 18.1664 25.8362 12.6887C25.8362 12.1779 25.9062 11.6481 26.0494 11.1597C26.619 9.21566 27.6978 7.68344 29.3907 6.48001C31.0931 5.2702 32.872 4.52962 34.9563 4.52962C40.8369 4.53282 46.7207 4.47855 52.6013 4.54558C58.4532 4.61262 64.3116 4.22318 70.0617 4.82649C70.695 5.16166 71.2296 5.47449 71.7896 5.73625C73.0147 6.30764 74.0839 6.99075 74.8858 8.1846C75.8087 9.56041 76.6297 10.8851 76.4356 12.6185C76.4069 12.8706 76.4324 13.1292 76.4324 13.391C76.6933 13.4197 76.8492 13.4356 77.002 13.4516C77.0211 13.8762 77.0529 14.2975 77.0529 14.7221C77.0529 19.8295 77.0529 24.9337 77.0465 30.0411H77.0561ZM50.6793 23.3663C52.4199 23.4014 53.785 22.2012 53.8296 20.5988C53.8741 18.974 52.5504 17.6333 50.8893 17.6173C49.19 17.6014 47.8344 18.8559 47.809 20.4679C47.7867 22.0033 49.1073 23.3344 50.6793 23.3663ZM42.0493 19.4719C41.5051 18.8271 41.2696 17.8823 40.3309 17.7227C39.4717 17.5758 38.6062 17.429 37.747 17.911C36.4646 18.6324 35.8791 20.2029 36.436 21.6841C36.9197 22.9673 38.253 23.6568 39.7645 23.3568C40.4487 23.2195 40.9451 22.7534 41.4288 22.2619C42.1829 21.4926 42.0652 20.5413 42.0461 19.4751L42.0493 19.4719ZM61.8359 23.3504C63.9106 23.3823 64.9512 22.8301 65.489 21.3936C65.979 20.088 65.4667 19.0123 63.6879 17.6237H61.8072C60.7062 18.0546 60.0093 18.7569 59.8693 20.0082C59.6879 21.6426 60.3403 22.7151 61.8359 23.3472V23.3504Z" fill="#4890CD"/>
<path d="M77.0084 13.4516C76.8524 13.4357 76.6997 13.4197 76.4388 13.391C76.4388 13.1292 76.4133 12.8707 76.4419 12.6185C76.6361 10.8852 75.8151 9.55723 74.8922 8.18462C74.0903 6.99077 73.0243 6.31084 71.796 5.73626C71.236 5.47451 70.6982 5.16168 70.0681 4.82651C64.318 4.2232 58.4596 4.61264 52.6077 4.5456C46.7271 4.47857 40.8433 4.53283 34.9627 4.52964C32.8784 4.52964 31.0996 5.26702 29.3971 6.48003C27.7042 7.68346 26.6255 9.21887 26.0559 11.1597C25.9127 11.6481 25.8426 12.178 25.8426 12.6887C25.8267 18.1632 25.8395 23.6377 25.8204 29.1154C25.8204 29.4282 26.094 29.8847 25.5403 30.0507L25.5276 30.0602C25.5181 23.8803 25.5085 17.7035 25.499 11.5236C25.4544 8.60598 28.0606 4.5073 31.2873 3.52412C32.2865 3.22087 33.2411 2.87293 34.2976 2.90166C34.4726 2.90485 34.654 2.74524 34.829 2.65906C35.0931 2.65906 35.3604 2.66225 35.6246 2.66225C46.3325 2.66225 57.0436 2.66225 67.7515 2.66225C68.5407 2.85697 69.3362 3.02934 70.119 3.2496C73.3966 4.16574 75.5223 6.28212 76.512 9.53808C76.6774 10.0839 76.7188 10.6649 76.8174 11.2299C77.1388 11.9481 77.0879 12.6983 77.0116 13.4484L77.0084 13.4516Z" fill="#67C3EB"/>
<path d="M31.8792 44.4343C32.0606 44.5333 32.2388 44.6354 32.4615 44.7599C32.5665 44.712 32.732 44.6769 32.8338 44.5779C34.8227 42.5988 36.7956 40.6006 38.794 38.631C39.2713 38.1618 39.8218 37.766 40.2514 37.4116C49.3873 37.4116 58.3769 37.3797 67.3665 37.4372C69.3108 37.4499 71.0228 37.035 72.5565 35.8283C73.9121 34.759 75.2168 33.6577 75.9551 32.0265C76.1046 32.0106 76.2637 31.9946 76.4197 31.9786C76.4006 33.1725 75.7355 34.1014 75.1214 35.0303C73.9631 36.7796 72.2033 37.7691 70.38 38.6629C70.0617 38.781 69.5971 38.465 69.4221 38.9917C67.4906 39.0971 65.559 39.2886 63.6274 39.2982C56.8081 39.3365 49.9888 39.3173 43.1694 39.3014C42.5012 39.3014 41.8266 39.4322 41.1615 39.0747C40.9483 38.9598 40.5155 39.2599 40.1814 39.3684C39.9364 39.544 39.6659 39.694 39.4527 39.9015C37.2347 42.0498 35.0263 44.2108 32.8688 46.3113H31.7137C31.4623 45.6792 31.526 45.0504 31.8855 44.4375L31.8792 44.4343Z" fill="#2F7ABF"/>
<path d="M67.7515 2.66542C57.0436 2.66542 46.3325 2.66542 35.6245 2.66542C35.3604 2.66542 35.0931 2.66542 34.829 2.66223C34.6285 2.62711 34.4312 2.592 34.2594 2.56008C34.1162 2.24087 65.279 2.13233 68.162 2.40047C67.9965 2.50901 67.8724 2.58881 67.7515 2.66861V2.66542Z" fill="#171A44"/>
<path d="M40.175 39.3652C40.5092 39.2567 40.9419 38.9566 41.1552 39.0715C41.8202 39.4291 42.4948 39.2982 43.1631 39.2982C49.9824 39.3109 56.8018 39.3301 63.6211 39.295C65.5527 39.2854 67.4842 39.0939 69.4158 38.9854C68.7062 39.5152 67.8915 39.6461 67.0324 39.6429C65.4954 39.6365 63.9584 39.6429 62.4214 39.6429C55.373 39.6429 48.3245 39.6493 41.2793 39.627C40.9197 39.627 40.4264 39.927 40.175 39.3652Z" fill="#171A44"/>
<path d="M77.0083 13.4515C77.0847 12.6982 77.1356 11.9481 76.8142 11.233C76.9606 11.0447 77.107 10.8563 77.3233 10.5754V30.373C77.2056 30.2293 77.1292 30.1336 77.0561 30.041C77.0561 24.9336 77.0624 19.8294 77.0624 14.722C77.0624 14.2975 77.0274 13.8761 77.0115 13.4515H77.0083Z" fill="#171A44"/>
<path d="M25.4958 11.5236C25.5053 17.7035 25.5148 23.8803 25.5244 30.0602C25.4194 29.9549 25.3112 29.8495 25.2062 29.7442C25.2094 23.6887 25.2125 17.6365 25.2157 11.581C25.308 11.5619 25.4035 11.5427 25.4958 11.5236Z" fill="#2F7ABF"/>
<path d="M25.2189 11.5842C25.2157 17.6396 25.2125 23.6919 25.2093 29.7474C24.7225 29.6612 24.8879 29.2781 24.8879 28.9972C24.8816 25.5497 24.8816 22.099 24.8816 18.6483C24.8816 16.2128 24.8816 13.774 24.8816 11.316C25.0184 11.3703 25.1075 11.3895 25.1743 11.4341C25.2062 11.4565 25.2062 11.5331 25.2189 11.5842Z" fill="#171A44"/>
<path d="M69.4158 38.9886C69.594 38.4619 70.0586 38.7779 70.3736 38.6598C70.2336 39.2982 69.7404 38.896 69.4158 38.9886Z" fill="#171A44"/>
<path d="M98.6915 105.943C100.025 106.93 98.7138 107.843 99.0861 108.788C98.1378 109.598 97.1895 110.406 96.3399 111.134H93.11C92.5945 110.582 92.0503 110.004 91.4648 109.378C91.3566 108.871 91.2357 108.296 91.0957 107.622C92.0567 107.983 92.8936 108.302 93.7369 108.606C94.0678 108.724 94.437 108.938 94.7488 108.883C95.3852 108.768 96.0376 108.583 96.604 108.274C97.2659 107.913 97.9755 107.543 98.2301 106.7C98.316 106.413 98.5483 106.167 98.6915 105.94V105.943Z" fill="#2F7ABF"/>
<path d="M96.1617 114.019C95.939 115.469 94.873 116.193 93.7083 116.88H91.3376C89.6097 115.938 89.3742 115.517 89.6383 113.636C89.9215 113.828 90.1666 113.978 90.3989 114.147C91.3472 114.84 92.2859 115.271 93.5174 114.699C94.3288 114.323 95.2771 114.236 96.1617 114.019Z" fill="#2F7ABF"/>
<path d="M92.2668 124.186C92.2063 125.457 91.7353 125.728 90.4243 126.194C89.4506 126.539 88.6391 126.095 87.7767 126.133C86.873 125.393 86.052 124.636 86.0584 123.085C86.5166 123.455 86.838 123.669 87.1053 123.94C88.0472 124.889 89.0655 125.176 90.3447 124.585C90.9112 124.324 91.5921 124.317 92.2668 124.186Z" fill="#2F7ABF"/>
<path d="M86.2684 130.104C86.2525 130.28 86.2811 130.414 86.2302 130.475C85.9916 130.756 85.7274 131.014 85.4983 131.254H83.6813C81.9184 129.702 81.8516 129.587 82.033 128.32C82.7235 128.828 83.3186 129.441 84.0473 129.75C84.7187 130.037 85.527 129.999 86.2684 130.104Z" fill="#2F7ABF"/>
<path d="M54.8097 71.8801C54.4819 71.8801 54.1542 71.8801 53.8296 71.8801C53.8423 71.7844 53.8646 71.6918 53.8996 71.5992C54.1796 71.5992 54.4597 71.5992 54.7429 71.5992C54.7715 71.6918 54.797 71.7844 54.8129 71.877L54.8097 71.8801Z" fill="#222B5F"/>
<path d="M86.7234 129.747H86.8253C86.8062 129.811 86.7871 129.878 86.768 129.942C86.7362 129.907 86.6948 129.878 86.6789 129.836C86.6693 129.814 86.7075 129.773 86.7234 129.744V129.747Z" fill="#2F7ABF"/>
<path d="M96.1616 114.019C96.2157 113.93 96.2698 113.844 96.1616 114.019C96.2507 113.965 96.3398 113.911 96.1616 114.019Z" fill="#2F7ABF"/>
<path d="M68.9003 141.277C70.1254 142.286 71.3728 142.468 72.7188 142.429C73.4666 141.842 74.2431 141.232 75.0036 140.635C75.2232 142.528 73.753 144.233 71.7642 144.348C70.4245 144.424 68.9066 142.959 68.9003 141.28V141.277Z" fill="#C59F2E"/>
<path d="M53.8964 71.5992C53.8646 71.6918 53.8423 71.7844 53.8264 71.8801C53.1931 71.8674 52.5599 71.8546 51.9266 71.845C52.5185 71.2353 53.2409 71.6854 53.8964 71.5992Z" fill="#4890CD"/>
<path d="M89.5429 135.426C89.5333 135.062 89.2915 134.647 89.7656 134.385C89.7401 134.743 90.0393 135.17 89.5429 135.426Z" fill="#4890CD"/>
<path d="M50.6793 23.3663C49.1041 23.3344 47.7835 22.0001 47.809 20.4679C47.8344 18.8559 49.19 17.6014 50.8893 17.6173C52.5535 17.6333 53.8773 18.974 53.8296 20.5988C53.785 22.2012 52.4199 23.4015 50.6793 23.3663Z" fill="white"/>
<path d="M42.0493 19.4719C42.0684 20.5381 42.1861 21.4861 41.432 22.2586C40.9515 22.7502 40.4519 23.2162 39.7677 23.3535C38.2562 23.6568 36.9229 22.9673 36.4392 21.6808C35.8823 20.1997 36.4646 18.6324 37.7502 17.9077C38.6094 17.4257 39.4749 17.5758 40.3341 17.7194C41.2728 17.879 41.5083 18.8271 42.0525 19.4687L42.0493 19.4719Z" fill="white"/>
<path d="M61.8358 23.3504C60.3402 22.7184 59.6847 21.6458 59.8693 20.0115C60.0093 18.7602 60.7062 18.0579 61.8072 17.627H63.6879C65.4667 19.0155 65.979 20.0913 65.4889 21.3968C64.9512 22.8301 63.9074 23.3855 61.8358 23.3536V23.3504Z" fill="white"/>
</g>
<defs>
<clipPath id="clip0_6216_75277">
<rect width="150" height="188" fill="white" transform="translate(0.5)"/>
</clipPath>
</defs>
</svg>
