<svg width="16" height="16" viewBox="0 0 16 16" fill="none" xmlns="http://www.w3.org/2000/svg">
<path fill-rule="evenodd" clip-rule="evenodd" d="M7.99881 4.33301C6.52605 4.33301 5.33214 5.52692 5.33214 6.99967C5.33214 8.47243 6.52605 9.66634 7.99881 9.66634C9.47157 9.66634 10.6655 8.47243 10.6655 6.99967C10.6655 5.52692 9.47157 4.33301 7.99881 4.33301ZM6.66548 6.99967C6.66548 6.26329 7.26243 5.66634 7.99881 5.66634C8.73519 5.66634 9.33214 6.26329 9.33214 6.99967C9.33214 7.73605 8.73519 8.33301 7.99881 8.33301C7.26243 8.33301 6.66548 7.73605 6.66548 6.99967Z" fill="#4C4F55"/>
<path fill-rule="evenodd" clip-rule="evenodd" d="M5.45001 1.33301C4.72368 1.33301 4.05444 1.72679 3.7017 2.36172L1.10911 7.02839C0.773526 7.63243 0.773527 8.36692 1.10911 8.97096L3.7017 13.6376C4.05444 14.2726 4.72368 14.6663 5.45001 14.6663H10.5476C11.2739 14.6663 11.9432 14.2726 12.2959 13.6376L14.8885 8.97096C15.2241 8.36692 15.2241 7.63243 14.8885 7.02839L12.2959 2.36172C11.9432 1.72679 11.2739 1.33301 10.5476 1.33301H5.45001ZM4.86724 3.00925C4.98482 2.7976 5.2079 2.66634 5.45001 2.66634H10.5476C10.7897 2.66634 11.0128 2.7976 11.1304 3.00925L13.723 7.67591C13.8348 7.87726 13.8348 8.12209 13.723 8.32344L12.0136 11.4003C11.7627 11.2545 11.4472 11.0805 11.0933 10.9058C10.2397 10.4844 9.05795 10.0058 8.00269 9.99969C7.01971 9.99397 5.93158 10.3961 5.09841 10.783C4.6634 10.985 4.27251 11.1951 3.96707 11.3698L2.27465 8.32344C2.16279 8.12209 2.16279 7.87726 2.27465 7.67591L4.86724 3.00925ZM10.5032 12.1014C10.8358 12.2655 11.1326 12.4299 11.3659 12.5661L11.1304 12.9901C11.0128 13.2017 10.7897 13.333 10.5476 13.333H5.45001C5.2079 13.333 4.98482 13.2017 4.86724 12.9901L4.61465 12.5354C4.89477 12.3748 5.25724 12.1793 5.65997 11.9923C6.45818 11.6216 7.32152 11.3291 7.99493 11.333C8.7258 11.3372 9.67371 11.692 10.5032 12.1014Z" fill="#4C4F55"/>
</svg>
