<svg width="16" height="16" viewBox="0 0 16 16" fill="none" xmlns="http://www.w3.org/2000/svg">
<g clip-path="url(#clip0_2892_48117)">
<path fill-rule="evenodd" clip-rule="evenodd" d="M7.99959 3.99986C5.79045 3.99986 3.99959 5.79072 3.99959 7.99986C3.99959 10.209 5.79045 11.9999 7.99959 11.9999C10.2087 11.9999 11.9996 10.209 11.9996 7.99986C11.9996 5.79072 10.2087 3.99986 7.99959 3.99986ZM5.33292 7.99986C5.33292 6.5271 6.52683 5.33319 7.99959 5.33319C9.47235 5.33319 10.6663 6.5271 10.6663 7.99986C10.6663 9.47262 9.47235 10.6665 7.99959 10.6665C6.52683 10.6665 5.33292 9.47262 5.33292 7.99986Z" fill="#4C4F55"/>
<path fill-rule="evenodd" clip-rule="evenodd" d="M9.66746 1.35246C8.73751 0.452826 7.26166 0.452826 6.33171 1.35246C6.09551 1.58096 5.76708 1.68767 5.44168 1.64165C4.16055 1.46044 2.96656 2.32792 2.74301 3.60235C2.68623 3.92605 2.48324 4.20543 2.19294 4.35946C1.04997 4.96589 0.593903 6.36951 1.16213 7.53194C1.30646 7.82719 1.30646 8.17252 1.16213 8.46778C0.593903 9.63021 1.04997 11.0338 2.19294 11.6403C2.48324 11.7943 2.68623 12.0737 2.74301 12.3974C2.96656 13.6718 4.16055 14.5393 5.44168 14.3581C5.76708 14.312 6.09551 14.4188 6.33171 14.6473C7.26166 15.5469 8.73751 15.5469 9.66746 14.6473C9.90366 14.4188 10.2321 14.312 10.5575 14.3581C11.8386 14.5393 13.0326 13.6718 13.2562 12.3974C13.3129 12.0737 13.5159 11.7943 13.8062 11.6403C14.9492 11.0338 15.4053 9.63021 14.837 8.46778C14.6927 8.17252 14.6927 7.82719 14.837 7.53194C15.4053 6.36951 14.9492 4.96589 13.8062 4.35946C13.5159 4.20543 13.3129 3.92605 13.2562 3.60235C13.0326 2.32792 11.8386 1.46044 10.5575 1.64165C10.2321 1.68767 9.90366 1.58096 9.66746 1.35246ZM7.25877 2.31076C7.67182 1.91117 8.32735 1.91117 8.7404 2.31076C9.27219 2.82521 10.0116 3.06546 10.7442 2.96184C11.3133 2.88135 11.8436 3.26666 11.9429 3.83272C12.0707 4.56149 12.5277 5.19049 13.1813 5.53727C13.689 5.80663 13.8916 6.43007 13.6392 6.94638C13.3142 7.61112 13.3142 8.3886 13.6392 9.05333C13.8916 9.56964 13.689 10.1931 13.1813 10.4624C12.5277 10.8092 12.0707 11.4382 11.9429 12.167C11.8436 12.7331 11.3133 13.1184 10.7442 13.0379C10.0116 12.9343 9.27219 13.1745 8.7404 13.689C8.32735 14.0885 7.67182 14.0885 7.25877 13.689C6.72699 13.1745 5.98756 12.9343 5.25495 13.0379C4.68591 13.1184 4.15558 12.7331 4.05629 12.167C3.92845 11.4382 3.47146 10.8092 2.81786 10.4624C2.31019 10.1931 2.10762 9.56964 2.36001 9.05333C2.68495 8.3886 2.68495 7.61111 2.36001 6.94638C2.10762 6.43007 2.31019 5.80663 2.81786 5.53727C3.47146 5.19049 3.92845 4.56149 4.05629 3.83272C4.15558 3.26666 4.68591 2.88135 5.25495 2.96184C5.98756 3.06546 6.72699 2.82521 7.25877 2.31076Z" fill="#4C4F55"/>
</g>
<defs>
<clipPath id="clip0_2892_48117">
<rect width="16" height="16" fill="white"/>
</clipPath>
</defs>
</svg>
