<svg width="1436" height="394" viewBox="0 0 1436 394" fill="none" xmlns="http://www.w3.org/2000/svg">
<mask id="mask0_3650_10657" style="mask-type:luminance" maskUnits="userSpaceOnUse" x="0" y="0" width="1440" height="394">
<path d="M1440 0H0V393.053H1440V0Z" fill="white"/>
</mask>
<g mask="url(#mask0_3650_10657)">
<g style="mix-blend-mode:multiply" opacity="0.6">
<path d="M1449.23 108.471C1443.98 105.737 1440.6 104.436 1440.6 104.436C1443.55 106.996 1446.28 109.599 1448.88 112.246C1447.49 113.374 1446.06 114.589 1444.68 115.804C1442.6 112.766 1440.47 109.816 1438.26 106.909C1436.53 103.872 1434.97 101.138 1433.71 98.969C1430.81 94.4132 1429.16 91.8099 1429.16 91.8099C1429.16 91.8099 1430.16 94.1095 1431.72 98.4483C1427.82 93.6322 1423.83 88.9463 1419.62 84.434C1418.76 83.5228 1417.11 84.6943 1417.85 85.779C1425.22 96.5826 1431.93 107.516 1438.09 118.754C1438.31 119.622 1438.57 120.489 1438.78 121.357C1438.65 121.487 1438.57 121.574 1438.44 121.704C1435.96 119.752 1434.49 118.711 1434.49 118.711C1435.62 119.925 1436.61 121.184 1437.7 122.442C1436.4 123.744 1435.1 125.132 1433.8 126.52C1430.76 118.19 1427.51 109.816 1424.13 101.399C1423.96 100.878 1423.22 101.095 1423.31 101.616C1425 109.382 1426.95 117.105 1429.03 124.741C1428.25 124.264 1427.43 123.787 1426.6 123.353C1422.05 109.599 1421.01 100.097 1421.01 100.097C1420.92 107.386 1421.44 114.415 1422.31 121.184C1422.18 121.14 1422.05 121.053 1421.92 121.01C1421.27 120.186 1420.66 119.318 1420.01 118.494C1420.23 119.101 1420.45 119.795 1420.71 120.446C1419.75 120.056 1418.76 119.708 1417.8 119.361C1414.29 104.87 1413.56 95.3677 1413.56 95.3677C1412.82 102.961 1412.56 110.38 1412.69 117.626C1409.39 116.671 1405.97 115.934 1402.46 115.37C1395.44 102.353 1387.16 89.9442 1377.49 78.4464C1376.8 77.622 1375.37 78.6633 1375.98 79.5745C1381.35 87.9484 1386.38 96.626 1390.97 105.564C1390.84 106.866 1390.71 108.254 1390.58 109.729C1374.5 101.008 1358.68 95.0206 1345.03 91.6364C1345.03 91.6364 1345.03 91.6364 1344.98 91.6364C1344.68 91.5496 1344.42 91.4628 1344.12 91.4194C1343.99 89.5104 1343.77 87.6013 1343.68 85.6922C1343.68 84.998 1342.6 84.9546 1342.6 85.6922C1342.56 87.4711 1342.56 89.25 1342.56 91.0723C1341.3 90.7686 1340.04 90.5083 1338.79 90.248C1340.09 90.7252 1341.26 91.2025 1342.51 91.6798C1342.51 102.44 1343.47 113.374 1344.94 124.177C1328.77 87.9484 1337.88 52.1532 1337.88 52.1532C1331.68 69.2915 1329.68 85.8224 1330.2 101.052C1325.91 91.0723 1322.31 82.3947 1319.76 75.9733C1318.8 67.5126 1318.15 59.0085 1317.81 50.2875C1317.76 49.1161 1315.99 48.7256 1315.68 49.9838C1312.09 65.5168 1311.31 80.9195 1312.48 96.1921C1308.14 93.9793 1303.55 92.2438 1298.74 90.8554C1298.61 85.9091 1298.56 81.4402 1298.52 77.7088C1297.22 81.6571 1296.05 85.6922 1294.96 89.8575C1291.97 89.1632 1288.94 88.5558 1285.82 88.1653C1285.47 88.1219 1288.9 89.0765 1294.4 92.0703C1293.27 96.5826 1292.23 101.225 1291.28 105.954C1290.5 104.609 1289.76 103.308 1289.07 102.18C1285.86 97.2334 1284.08 94.4132 1284.08 94.4132C1284.08 94.4132 1285.17 96.8863 1286.82 101.572C1284.86 99.1859 1282.96 96.7996 1280.92 94.5C1279.27 85.2149 1277.67 76.1035 1276.2 67.5126C1272.77 47.6843 1269.95 30.4158 1268.39 18.918C1265.49 34.4075 1264.19 51.3289 1264.06 68.6407C1264.06 68.6407 1264.06 68.5539 1264.06 68.5105V69.1614C1264.06 69.9423 1264.06 70.6799 1264.06 71.4609C1264.06 73.4134 1264.06 75.3658 1264.06 77.3617C1264.06 78.3596 1264.06 79.3576 1264.1 80.3555C1264.1 82.091 1264.19 83.8699 1264.23 85.6054C1264.23 86.6467 1264.28 87.6881 1264.32 88.7294C1264.32 88.9029 1264.32 89.0765 1264.32 89.25C1260.81 76.277 1256.73 63.7378 1251.84 52.1966C1252.7 62.6098 1253.57 77.4919 1254.44 94.7603C1254.31 94.7603 1254.13 94.6735 1254 94.6301C1254.18 94.7169 1254.31 94.8037 1254.48 94.8471C1254.78 100.574 1255.04 106.605 1255.35 112.766C1236.93 70.2894 1204.16 38.4426 1177.63 23.5171C1200.04 41.4798 1216.21 60.6573 1227.87 79.8782C1227.09 79.0538 1225.66 80.1819 1226.26 81.1365C1226.87 82.091 1227.43 83.0889 1228.04 84.0868C1218.29 90.5517 1207.75 99.8367 1198 111.508C1194.66 106.649 1191.28 101.919 1187.69 97.4938C1189.2 101.746 1190.94 106.952 1192.84 112.81C1181.44 103.525 1169.52 95.5847 1157.69 89.0331C1157.26 86.7335 1156.78 84.5207 1156.26 82.3079C1156.09 84.0435 1155.91 85.9525 1155.7 87.9918C1138.23 78.4898 1121.02 71.9816 1106.15 68.337C1106.15 68.337 1106.11 68.337 1106.07 68.337C1103.77 67.7729 1101.52 67.2523 1099.35 66.8184C1120.81 74.4547 1139.23 83.8265 1155.09 94.2397C1153.23 111.248 1150.19 135.241 1146.99 159.669C1145.64 160.58 1144.3 161.535 1142.95 162.532C1140.66 151.599 1137.71 141.012 1134.07 131.38C1134.24 135.936 1134.42 141.663 1134.5 148.214C1131.12 149.082 1125.79 150.991 1119.2 155.373C1116.9 147.26 1114.87 139.797 1113.13 133.462C1118.42 122.268 1124.4 111.465 1130.99 101.182C1131.51 100.357 1130.25 99.4462 1129.65 100.184C1122.71 108.428 1116.69 117.279 1111.31 126.434C1111.05 125.479 1110.79 124.438 1110.58 123.57C1110.45 125.089 1110.4 126.607 1110.36 128.126C1109.49 129.644 1108.58 131.12 1107.76 132.638C1104.64 133.115 1101.65 133.81 1098.7 134.634C1098.83 128.256 1098.7 121.748 1098.05 115.066C1098.05 115.066 1097.62 120.923 1095.62 130.339C1094.19 127.084 1092.8 123.874 1091.46 120.75C1091.46 120.229 1091.46 119.752 1091.46 119.188C1091.46 119.188 1091.42 119.622 1091.29 120.403C1091.2 120.186 1091.11 119.969 1090.98 119.752C1090.98 119.795 1090.98 119.839 1091.03 119.925C1090.29 118.19 1089.55 116.498 1088.82 114.806C1090.59 112.072 1092.37 109.339 1094.23 106.605C1094.88 105.694 1093.45 104.609 1092.67 105.434C1090.85 107.386 1089.12 109.382 1087.34 111.421C1082.4 99.8801 1078.24 89.9008 1075.42 82.7852C1075.86 90.812 1076.9 99.1859 1078.41 107.69C1074.6 108.428 1070.96 109.425 1067.49 110.727C1064.76 94.8905 1062.51 81.0931 1061.25 71.8948C1060.69 74.8452 1060.25 77.839 1059.82 80.9195C1059.52 79.3142 1059.21 77.7088 1058.82 76.0601C1058.61 75.0621 1057.17 75.3658 1057.13 76.3204C1056.61 88.9029 1055.31 101.095 1053.27 113.07C1053.06 112.419 1052.84 111.768 1052.62 111.118C1052.45 109.078 1052.23 106.996 1052.15 104.913C1052.15 104.349 1051.28 104.349 1051.24 104.913C1051.24 105.651 1051.24 106.432 1051.24 107.169C1050.2 104.306 1049.11 101.485 1047.94 98.7954C1048.42 104.74 1048.94 112.549 1049.42 121.531C1049.07 121.834 1048.72 122.095 1048.38 122.442C1047.9 120.576 1047.47 118.711 1047.12 116.845C1047.34 109.686 1046.86 102.223 1045.43 94.4566C1045.78 84.434 1047.42 77.8824 1047.42 77.8824C1046.12 81.4836 1045.04 85.0848 1044.17 88.6426C1043.3 85.0848 1042.22 81.527 1040.92 77.8824C1040.92 77.8824 1042.57 84.434 1042.91 94.4566C1041.48 102.18 1041.01 109.642 1041.22 116.801C1041.01 118.06 1040.7 119.275 1040.4 120.576C1039.23 119.839 1038.06 119.144 1036.93 118.45C1037.19 113.938 1037.28 109.425 1037.11 105C1037.11 104.436 1036.24 104.436 1036.2 105C1036.07 108.341 1035.76 111.638 1035.37 114.979C1033.16 102.397 1031.73 89.6405 1031.21 76.4072C1031.21 75.4526 1029.74 75.1489 1029.52 76.1468C1026.96 87.1674 1026.14 98.1012 1026.66 108.948C1014.18 93.9793 1000.22 82.5683 987.953 75.6696C1001.74 86.6901 1012.62 98.3181 1021.16 110.12C1017.21 108.341 1013.4 106.866 1009.71 105.607C1007.94 105 1006.2 104.436 1004.47 103.959C1007.68 105.434 1010.75 106.996 1013.74 108.601C1011.06 107.95 1008.33 107.343 1005.46 106.996C1004.9 106.909 1015.87 109.903 1027.87 122.138C1028 123.049 1028.13 123.96 1028.26 124.872C1026.88 125.783 1025.49 126.824 1024.06 127.865C1018.16 124.568 1014.13 123.049 1014.13 123.049C1016.69 125.306 1019.12 127.605 1021.42 129.948C1020.2 130.946 1018.94 131.987 1017.73 133.072C1015.91 130.425 1014.05 127.865 1012.14 125.306C1010.58 122.615 1009.24 120.229 1008.07 118.277C1005.51 114.285 1004.03 111.985 1004.03 111.985C1004.03 111.985 1004.9 113.981 1006.24 117.799C1002.82 113.591 999.31 109.469 995.625 105.521C994.888 104.696 993.458 105.781 994.065 106.692C1000.52 116.151 1006.46 125.783 1011.84 135.632C1012.05 136.413 1012.27 137.15 1012.49 137.975C1012.4 138.062 1012.31 138.148 1012.18 138.279C1010.02 136.586 1008.72 135.675 1008.72 135.675C1009.71 136.76 1010.58 137.845 1011.53 138.973C1010.41 140.144 1009.24 141.316 1008.11 142.574C1005.42 135.241 1002.6 127.909 999.613 120.489C999.44 120.056 998.79 120.186 998.92 120.663C1000.39 127.518 1002.13 134.287 1003.9 141.012C1003.21 140.578 1002.47 140.144 1001.78 139.754C997.793 127.692 996.882 119.318 996.882 119.318C996.839 125.696 997.272 131.901 998.009 137.845C997.879 137.801 997.793 137.715 997.706 137.671C997.142 136.934 996.579 136.196 996.015 135.458C996.189 135.979 996.406 136.63 996.622 137.194C995.799 136.847 994.932 136.543 994.065 136.239C990.987 123.483 990.337 115.153 990.337 115.153C989.687 121.878 989.557 128.343 989.687 134.721C986.783 133.853 983.749 133.202 980.628 132.725C974.473 121.27 967.148 110.38 958.696 100.271C958.089 99.533 956.832 100.444 957.352 101.269C962.076 108.645 966.498 116.281 970.572 124.091C970.485 125.219 970.355 126.434 970.225 127.735C956.095 120.056 942.225 114.806 930.218 111.855C930.218 111.855 930.218 111.855 930.175 111.855C929.915 111.812 929.655 111.725 929.438 111.682C929.308 109.99 929.134 108.341 929.048 106.649C929.048 106.041 928.094 105.998 928.094 106.649C928.051 108.211 928.051 109.773 928.051 111.378C926.924 111.118 925.84 110.857 924.757 110.684C925.884 111.074 926.924 111.551 928.051 111.942C928.051 121.401 928.874 130.989 930.218 140.491C916.044 108.645 924.02 77.2315 924.02 77.2315C918.558 92.2872 916.781 106.822 917.258 120.186C913.487 111.421 910.323 103.785 908.069 98.1446C907.245 90.7252 906.682 83.2191 906.378 75.5828C906.335 74.5415 904.775 74.2378 904.515 75.3225C901.35 88.9463 900.657 102.527 901.697 115.934C897.883 114.025 893.852 112.463 889.647 111.248C889.561 106.909 889.474 103.004 889.474 99.6632C888.347 103.134 887.307 106.692 886.353 110.337C883.753 109.729 881.065 109.209 878.334 108.861C878.031 108.861 881.065 109.686 885.876 112.332C884.88 116.324 883.969 120.403 883.146 124.568C882.452 123.353 881.759 122.182 881.152 121.184C878.378 116.845 876.774 114.372 876.774 114.372C876.774 114.372 877.684 116.541 879.158 120.62C877.468 118.537 875.777 116.454 874.043 114.458C872.613 106.302 871.183 98.2747 869.882 90.7252C869.882 90.7686 869.882 90.8554 869.882 90.8988C866.891 73.4134 864.377 58.1408 862.99 48.0314C859.74 65.3432 858.829 84.7377 859.306 104.219C859.306 104.262 859.306 104.349 859.306 104.392C859.306 106.215 859.393 107.994 859.479 109.816C856.402 98.4049 852.804 87.4277 848.513 77.2749C849.25 86.4298 850.03 99.533 850.81 114.675C850.68 114.675 850.55 114.589 850.42 114.545C850.55 114.589 850.68 114.675 850.81 114.762C850.94 117.452 851.071 120.229 851.201 123.006C851.201 123.006 851.201 123.006 851.201 122.919C851.287 124.785 851.374 126.737 851.461 128.646C851.244 128.733 851.027 128.82 850.854 128.95C834.513 92.374 806.252 64.9527 783.279 52.0231C802.958 67.8163 817.175 84.6943 827.404 101.572C826.711 100.835 825.454 101.833 825.974 102.7C826.494 103.568 827.014 104.436 827.534 105.304C826.884 105.737 826.234 106.171 825.541 106.649C825.541 106.649 825.54 106.649 825.497 106.649C817.652 112.159 809.33 119.665 801.527 128.907C803.131 120.446 804.302 112.072 804.735 104.089C802.741 109.078 800.01 115.673 796.803 123.31C795.242 121.184 793.682 119.101 792.035 117.105C793.032 119.882 794.116 123.136 795.329 126.781C795.026 127.475 794.722 128.213 794.419 128.907C785.056 121.487 775.347 115.066 765.681 109.686C765.291 107.69 764.858 105.694 764.424 103.785C764.294 105.304 764.121 106.996 763.948 108.775C760.393 106.822 756.839 105.087 753.328 103.438C762.604 98.5785 772.703 94.1095 783.756 90.1612C781.892 90.5083 779.942 90.9855 777.948 91.4628C777.905 91.4628 777.818 91.4628 777.775 91.4628C768.976 93.6322 759.223 97.0165 749.124 101.485C739.024 97.0165 729.272 93.5888 720.473 91.4628C720.429 91.4628 720.343 91.4628 720.299 91.4628C718.305 90.9855 716.355 90.5517 714.491 90.1612C725.544 94.1095 735.643 98.5785 744.919 103.438C741.408 105.087 737.854 106.866 734.256 108.775C734.083 106.996 733.91 105.304 733.78 103.785C733.303 105.737 732.913 107.69 732.523 109.686C722.857 115.066 713.147 121.487 703.785 128.907C703.482 128.213 703.178 127.475 702.875 126.781C704.088 123.179 705.172 119.925 706.169 117.105C704.565 119.101 702.961 121.184 701.401 123.31C698.15 115.717 695.419 109.122 693.469 104.089C693.902 112.072 695.073 120.446 696.676 128.907C688.874 119.708 680.552 112.159 672.707 106.649C672.707 106.649 672.707 106.649 672.664 106.649C672.013 106.171 671.363 105.737 670.713 105.304C671.233 104.436 671.753 103.568 672.273 102.7C672.837 101.833 671.537 100.835 670.843 101.572C681.072 84.6943 695.289 67.8163 714.968 52.0231C691.995 64.9527 663.691 92.374 647.393 128.95C647.177 128.863 646.96 128.733 646.787 128.646C646.873 126.737 646.96 124.785 647.047 122.919C647.047 122.919 647.047 122.963 647.047 123.006C647.177 120.186 647.307 117.452 647.437 114.762C647.567 114.675 647.697 114.632 647.827 114.545C647.697 114.545 647.567 114.632 647.437 114.675C648.217 99.4896 648.997 86.4298 649.734 77.2749C645.443 87.4277 641.845 98.4049 638.768 109.816C638.855 107.994 638.898 106.215 638.941 104.392C638.941 104.349 638.941 104.262 638.941 104.219C639.418 84.6943 638.508 65.3432 635.257 48.0314C633.87 58.1842 631.356 73.4568 628.365 90.8988C628.365 90.8554 628.365 90.7686 628.365 90.7252C627.065 98.2747 625.678 106.302 624.204 114.458C622.47 116.498 620.736 118.537 619.089 120.62C620.563 116.541 621.473 114.372 621.473 114.372C621.473 114.372 619.87 116.845 617.095 121.184C616.489 122.182 615.839 123.353 615.102 124.568C614.278 120.403 613.368 116.324 612.371 112.332C617.182 109.642 620.26 108.818 619.913 108.861C617.182 109.209 614.495 109.729 611.894 110.337C610.94 106.692 609.9 103.134 608.773 99.6632C608.773 102.961 608.687 106.866 608.6 111.248C604.396 112.463 600.364 113.981 596.55 115.934C597.59 102.527 596.94 88.9897 593.733 75.3225C593.473 74.2378 591.912 74.5415 591.869 75.5828C591.565 83.2191 591.002 90.7252 590.178 98.1446C587.968 103.785 584.76 111.378 580.989 120.186C581.466 106.779 579.689 92.2872 574.227 77.2315C574.227 77.2315 582.246 108.645 568.029 140.491C569.33 130.989 570.153 121.401 570.196 111.942C571.28 111.551 572.364 111.074 573.491 110.684C572.407 110.901 571.323 111.118 570.196 111.378C570.196 109.816 570.196 108.211 570.153 106.649C570.153 105.998 569.199 106.041 569.199 106.649C569.156 108.341 568.939 109.99 568.809 111.682C568.549 111.725 568.289 111.812 568.073 111.855C568.073 111.855 568.073 111.855 568.029 111.855C556.023 114.806 542.109 120.099 528.022 127.735C527.892 126.434 527.762 125.219 527.675 124.091C531.75 116.237 536.171 108.601 540.895 101.269C541.415 100.444 540.159 99.533 539.552 100.271C531.056 110.38 523.774 121.27 517.619 132.725C514.498 133.202 511.508 133.896 508.56 134.721C508.69 128.343 508.56 121.878 507.91 115.153C507.91 115.153 507.26 123.483 504.182 136.239C503.315 136.543 502.449 136.847 501.625 137.194C501.798 136.63 502.015 135.979 502.232 135.458C501.668 136.153 501.105 136.934 500.541 137.671C500.411 137.671 500.325 137.801 500.195 137.845C500.975 131.857 501.408 125.696 501.322 119.318C501.322 119.318 500.411 127.692 496.424 139.754C495.687 140.144 494.993 140.578 494.3 141.012C496.077 134.287 497.811 127.518 499.328 120.663C499.458 120.186 498.808 120.056 498.634 120.489C495.687 127.909 492.826 135.241 490.139 142.574C489.012 141.316 487.885 140.144 486.714 138.973C487.668 137.888 488.535 136.76 489.532 135.675C489.532 135.675 488.232 136.586 486.064 138.279C485.978 138.192 485.891 138.105 485.761 137.975C485.978 137.15 486.194 136.413 486.411 135.632C491.786 125.783 497.724 116.194 504.182 106.692C504.789 105.781 503.359 104.696 502.622 105.521C498.938 109.469 495.427 113.591 492.003 117.799C493.39 113.981 494.213 111.985 494.213 111.985C494.213 111.985 492.739 114.285 490.182 118.277C489.012 120.229 487.668 122.615 486.108 125.306C484.2 127.865 482.337 130.469 480.516 133.072C479.259 131.987 478.046 130.946 476.832 129.948C479.129 127.605 481.513 125.306 484.114 123.049C484.114 123.049 480.083 124.568 474.188 127.865C472.757 126.781 471.37 125.783 469.983 124.872C470.113 123.96 470.287 123.049 470.417 122.138C482.423 109.903 493.39 106.909 492.826 106.996C490.009 107.343 487.235 107.95 484.547 108.601C487.538 106.996 490.615 105.477 493.823 103.959C492.133 104.436 490.355 105 488.578 105.607C484.894 106.866 481.036 108.341 477.135 110.12C485.718 98.3181 496.554 86.6901 510.337 75.6696C498.071 82.5683 484.114 93.9793 471.63 108.948C472.107 98.1012 471.327 87.124 468.77 76.1468C468.553 75.1489 467.079 75.4526 467.079 76.4072C466.559 89.6405 465.129 102.397 462.918 114.979C462.528 111.638 462.225 108.341 462.095 105C462.095 104.436 461.184 104.436 461.184 105C461.054 109.425 461.141 113.938 461.358 118.45C460.187 119.144 459.017 119.839 457.89 120.576C457.587 119.318 457.327 118.06 457.11 116.801C457.327 109.686 456.85 102.18 455.42 94.4566C455.766 84.434 457.413 77.8824 457.413 77.8824C456.113 81.4836 455.029 85.0848 454.163 88.6426C453.296 85.0848 452.212 81.527 450.912 77.8824C450.912 77.8824 452.559 84.434 452.906 94.4566C451.475 102.223 450.998 109.686 451.215 116.845C450.868 118.667 450.435 120.533 449.958 122.442C449.611 122.138 449.265 121.878 448.961 121.531C449.481 112.549 449.958 104.783 450.435 98.7954C449.308 101.529 448.224 104.349 447.141 107.169C447.141 106.432 447.141 105.651 447.141 104.913C447.141 104.349 446.23 104.349 446.23 104.913C446.144 106.996 445.927 109.035 445.754 111.118C445.537 111.768 445.32 112.419 445.103 113.07C443.066 101.052 441.723 88.9029 441.246 76.3204C441.246 75.3658 439.772 75.0621 439.555 76.0601C439.165 77.6654 438.862 79.2708 438.558 80.9195C438.125 77.839 437.691 74.8452 437.128 71.8948C435.871 81.0931 433.617 94.8905 430.886 110.727C427.419 109.425 423.734 108.384 419.964 107.69C421.481 99.1859 422.521 90.812 422.954 82.7852C420.137 89.9008 415.976 99.9235 411.034 111.421C409.257 109.425 407.524 107.386 405.703 105.434C404.923 104.609 403.492 105.694 404.143 106.605C406.006 109.339 407.784 112.072 409.561 114.806C408.824 116.498 408.087 118.19 407.35 119.925C407.35 119.882 407.35 119.839 407.394 119.752C407.307 119.969 407.22 120.186 407.133 120.403C407.003 119.622 406.96 119.188 406.96 119.188C406.96 119.708 406.96 120.229 406.96 120.75C405.616 123.874 404.229 127.084 402.799 130.339C400.805 120.923 400.372 115.066 400.372 115.066C399.721 121.791 399.591 128.256 399.721 134.634C396.817 133.766 393.783 133.115 390.662 132.638C389.839 131.12 388.929 129.644 388.062 128.126C387.975 126.607 387.932 125.045 387.845 123.57C387.628 124.438 387.368 125.479 387.108 126.434C381.733 117.279 375.665 108.428 368.73 100.184C368.123 99.4462 366.866 100.357 367.386 101.182C373.975 111.465 379.956 122.268 385.244 133.462C383.554 139.797 381.473 147.216 379.219 155.373C372.631 150.991 367.256 149.082 363.919 148.214C364.049 141.663 364.179 135.892 364.352 131.38C360.711 141.012 357.807 151.599 355.466 162.532C354.166 161.535 352.822 160.58 351.435 159.669C348.228 135.241 345.194 111.248 343.33 94.2397C359.194 83.8265 377.572 74.4547 399.028 66.8184C396.861 67.2523 394.607 67.7729 392.31 68.337C392.31 68.337 392.266 68.337 392.223 68.337C377.356 71.9816 360.148 78.5332 342.68 87.9918C342.463 85.9959 342.29 84.0435 342.116 82.3079C341.596 84.5207 341.119 86.7769 340.686 89.0331C328.853 95.5847 316.89 103.568 305.533 112.81C307.44 106.952 309.174 101.746 310.691 97.4938C307.137 101.919 303.713 106.649 300.375 111.508C290.579 99.8367 280.047 90.5083 270.337 84.0868C270.944 83.1323 271.508 82.091 272.115 81.1365C272.721 80.1385 271.291 79.0538 270.511 79.8782C282.17 60.6573 298.338 41.4364 320.747 23.5171C294.22 38.4426 261.495 70.2894 243.03 112.766C243.334 106.605 243.594 100.574 243.897 94.8471C244.07 94.7603 244.2 94.6735 244.374 94.6301C244.244 94.6301 244.07 94.7169 243.94 94.7603C244.807 77.4919 245.674 62.6098 246.541 52.1966C241.686 63.7378 237.569 76.2336 234.058 89.25C234.058 89.0765 234.058 88.9029 234.058 88.7294C234.058 87.6881 234.144 86.6467 234.144 85.6054C234.188 83.8699 234.231 82.091 234.275 80.3555C234.275 79.3576 234.275 78.3596 234.318 77.3617C234.318 75.4092 234.318 73.4568 234.318 71.4609C234.318 70.6799 234.318 69.9423 234.318 69.1614C234.318 68.9444 234.318 68.7275 234.318 68.5105C234.318 68.5105 234.318 68.5973 234.318 68.6407C234.144 51.3289 232.887 34.4075 229.983 18.918C228.38 30.4158 225.562 47.7276 222.181 67.556C220.708 76.1468 219.104 85.2583 217.457 94.5434C215.463 96.8429 213.512 99.2293 211.562 101.616C213.252 96.9297 214.293 94.4566 214.293 94.4566C214.293 94.4566 212.515 97.2768 209.308 102.223C208.658 103.351 207.878 104.653 207.097 105.998C206.187 101.269 205.147 96.6694 203.977 92.1136C209.438 89.1199 212.906 88.1219 212.559 88.2087C209.438 88.5992 206.404 89.2066 203.413 89.9008C202.329 85.7356 201.159 81.7005 199.859 77.7522C199.859 81.527 199.772 85.9525 199.642 90.8988C194.831 92.2438 190.28 94.0227 185.902 96.2355C187.115 80.9629 186.335 65.5601 182.694 50.0272C182.391 48.8123 180.614 49.1595 180.57 50.3309C180.224 59.0519 179.573 67.556 178.62 76.0167C176.062 82.3947 172.465 91.0723 168.174 101.095C168.694 85.8658 166.7 69.3783 160.502 52.1966C160.502 52.1966 169.604 87.9484 153.437 124.221C154.91 113.417 155.864 102.483 155.864 91.7231C157.121 91.2459 158.334 90.7686 159.591 90.2913C158.378 90.5083 157.121 90.812 155.82 91.1157C155.82 89.3368 155.82 87.5145 155.734 85.7356C155.734 84.998 154.65 85.0414 154.65 85.7356C154.563 87.6447 154.347 89.5537 154.217 91.4628C153.913 91.5496 153.653 91.6364 153.35 91.6798C153.35 91.6798 153.35 91.6798 153.306 91.6798C139.61 95.0206 123.832 101.052 107.751 109.773C107.621 108.297 107.448 106.909 107.361 105.607C111.999 96.6694 117.027 87.9918 122.358 79.6179C122.965 78.7067 121.535 77.622 120.841 78.4898C111.175 89.9876 102.897 102.397 95.8747 115.413C92.3637 115.977 88.9828 116.715 85.6886 117.669C85.8187 110.423 85.5586 103.047 84.8217 95.4111C84.8217 95.4111 84.0849 104.87 80.574 119.405C79.6204 119.752 78.6235 120.099 77.6699 120.489C77.8866 119.839 78.1467 119.144 78.3634 118.537C77.7132 119.361 77.1064 120.229 76.4562 121.053C76.3262 121.097 76.1961 121.184 76.0661 121.227C76.9763 114.415 77.4531 107.386 77.3664 100.14C77.3664 100.14 76.3262 109.642 71.775 123.396C70.9514 123.83 70.1712 124.308 69.3477 124.785C71.3849 117.105 73.3787 109.425 75.0692 101.659C75.1992 101.138 74.4623 100.965 74.2456 101.442C70.8647 109.859 67.6139 118.233 64.5797 126.564C63.2794 125.175 61.9791 123.787 60.6787 122.485C61.7623 121.227 62.7593 119.969 63.8862 118.754C63.8862 118.754 62.4125 119.795 59.9418 121.748C59.8118 121.618 59.7251 121.531 59.5951 121.401C59.8118 120.489 60.0719 119.665 60.2886 118.797C66.4002 107.56 73.162 96.626 80.5306 85.8224C81.2675 84.7377 79.6204 83.5662 78.7535 84.4773C74.549 88.9897 70.5613 93.6756 66.6603 98.4917C68.2207 94.1529 69.2176 91.8533 69.2176 91.8533C69.2176 91.8533 67.5705 94.4566 64.6664 99.0123C63.3661 101.182 61.8057 103.915 60.1152 106.952C57.9046 109.859 55.7808 112.853 53.7002 115.847C52.2698 114.589 50.8828 113.417 49.4958 112.289C52.0965 109.642 54.8272 107.039 57.7746 104.479C57.7746 104.479 53.1801 106.171 46.4616 109.946C44.8579 108.731 43.2541 107.603 41.6937 106.518C41.8671 105.477 41.9971 104.436 42.1705 103.438C55.8241 89.5104 68.3507 86.0827 67.7006 86.1695C61.0255 87.0372 54.7405 88.686 48.8456 91.0289C58.7282 77.1881 71.4282 63.5209 87.5958 50.5479C73.6388 58.4011 57.7746 71.4175 43.5575 88.4257C44.121 76.0601 43.2108 63.6077 40.3067 51.0685C40.0466 49.9404 38.3562 50.2875 38.3562 51.3289C37.7493 66.3845 36.1456 80.9195 33.5882 95.2376C33.1548 91.4628 32.808 87.6447 32.678 83.8699C32.678 83.2191 31.6811 83.2191 31.6811 83.8699C31.5077 89.4236 31.6811 95.1074 31.9845 100.791C30.7708 101.746 29.5572 102.7 28.4302 103.742C27.8667 101.572 27.3899 99.4462 26.9998 97.3636C27.2165 89.25 26.6964 80.7894 25.0493 72.025C25.4394 60.6139 27.3466 53.1078 27.3466 53.1078C25.8295 57.2296 24.6159 61.3515 23.6189 65.3866C22.622 61.3515 21.4083 57.273 19.8913 53.1078C19.8913 53.1078 21.7985 60.6139 22.1886 72.0684C20.5415 80.8327 20.0213 89.2934 20.2814 97.3636C19.8913 99.4896 19.4145 101.616 18.851 103.785C18.4609 103.438 18.0708 103.134 17.724 102.787C18.2875 92.5475 18.851 83.6964 19.4145 76.9278C18.1141 80.0084 16.8571 83.2191 15.6868 86.4732C15.6868 85.6488 15.6868 84.7811 15.6868 83.9567C15.6868 83.3059 14.6899 83.3059 14.6899 83.9567C14.6032 86.2563 14.3865 88.5558 14.1698 90.8554C13.9097 91.593 13.6496 92.374 13.3896 93.1116C11.0923 79.4877 9.57522 65.6903 9.01174 51.4156C9.01174 50.3309 7.32129 50.0272 7.06123 51.1553C6.62778 53.021 6.28102 54.8433 5.93426 56.6656C5.45747 53.1945 4.93733 49.7235 4.33051 46.3826C2.90013 56.8825 0.299442 72.589 -2.77804 90.5951C-8.32617 88.5558 -14.1344 87.0372 -20.3327 86.2562C-20.8095 86.1695 -13.3975 88.2087 -3.64493 95.6281C-4.25176 99.2293 -4.90193 102.961 -5.5521 106.692C-8.58623 105.26 -10.4067 104.566 -10.4067 104.566C-8.8463 105.911 -7.37258 107.299 -5.89886 108.688C-6.11558 109.816 -6.28896 110.987 -6.50568 112.116L-6.63572 112.897C-6.76575 113.591 -6.89579 114.285 -6.98248 114.979C-8.80296 112.332 -10.7101 109.729 -12.6606 107.126C-14.4378 104.045 -15.9982 101.312 -17.2985 99.0991C-18.7723 96.7996 -19.8992 94.9773 -20.6794 93.7624V94.8471C-20.2893 95.845 -19.8559 97.0165 -19.2924 98.5351C-19.7258 97.971 -20.2026 97.4504 -20.6794 96.8863V105.434C-17.992 109.859 -15.3914 114.285 -12.9641 118.797C-12.6606 119.925 -12.3572 121.01 -12.0538 122.225C-14.8279 120.012 -16.5183 118.841 -16.5183 118.841C-14.7412 120.793 -13.0941 122.832 -11.4036 124.828C-10.8835 126.824 -10.4067 128.863 -9.88658 130.989C-10.06 131.944 -10.2333 132.942 -10.4067 133.896C-12.2705 132.074 -14.1777 130.382 -16.2149 128.82C-17.4719 122.138 -19.0323 115.717 -20.7661 109.469V257.683H-14.8712V421.776H1449.58V122.832C1448.49 121.184 1447.41 119.492 1446.32 117.843C1447.36 116.715 1448.49 115.587 1449.58 114.415V108.471H1449.23ZM41.4336 107.083C42.6906 108.254 43.9476 109.382 45.1613 110.554C43.6442 111.421 41.9971 112.419 40.3067 113.461C40.6968 111.335 41.0869 109.209 41.4336 107.083ZM41.9971 134.157C40.9568 132.638 39.9599 131.076 39.0063 129.558C38.6596 127.518 38.4428 125.826 38.2261 124.741C41.2603 120.967 44.5111 117.192 48.0654 113.504C49.4958 114.936 50.8828 116.368 52.1831 117.799C48.5855 123.136 45.1613 128.56 41.9538 134.157H41.9971ZM55.9975 135.458C56.821 131.77 57.6879 128.299 58.5115 125.002C59.8118 126.564 61.0255 128.126 62.2391 129.688C60.0719 131.467 57.9913 133.376 55.9975 135.458ZM62.3692 167.826C62.4558 167.522 62.5425 167.262 62.6292 166.958C65.4033 160.884 67.9173 154.462 70.0412 147.737C70.8214 146.869 71.6449 146.045 72.4685 145.221C69.7378 152.423 66.4002 160.059 62.3692 167.869V167.826ZM77.7999 129.21C76.5429 130.165 75.3292 131.163 74.0723 132.161C74.2023 131.553 74.3323 130.946 74.419 130.382C75.806 129.08 77.1497 127.909 78.4501 126.781C78.2333 127.605 78.0166 128.386 77.7565 129.21H77.7999ZM84.5617 133.549C85.862 132.421 87.1624 131.293 88.5061 130.165C86.7289 134.07 85.0818 138.062 83.5214 142.053C83.9115 139.276 84.2583 136.413 84.5617 133.549ZM86.8589 158.411C86.6422 157.977 86.4255 157.543 86.1654 157.109C88.376 149.733 90.9334 142.487 93.7508 135.285C93.8375 139.06 93.8808 143.312 93.9241 147.997C91.8869 151.078 89.503 154.592 86.8156 158.411H86.8589ZM85.3419 123.657C85.3419 122.963 85.3852 122.268 85.4286 121.574C89.633 118.797 93.1439 117.062 95.3979 116.107C95.1812 116.498 95.0078 116.932 94.791 117.322C91.6269 119.318 88.4627 121.444 85.3419 123.657ZM101.9 146.479C101.119 147.13 100.339 147.737 99.559 148.431C99.2989 147.433 99.0388 146.392 98.7788 145.394C99.9491 142.01 101.033 138.626 101.986 135.241C101.986 135.241 100.513 137.758 97.8252 142.01C96.9149 138.756 95.8747 135.588 94.8344 132.508C96.3515 128.82 97.9552 125.132 99.6023 121.487C101.206 120.316 102.853 119.144 104.544 118.016C103.113 127.171 102.29 136.717 101.9 146.436V146.479ZM105.757 110.814C105.237 111.118 104.717 111.421 104.197 111.682C104.977 110.076 105.757 108.471 106.581 106.866C106.277 108.167 106.017 109.469 105.757 110.771V110.814ZM118.631 182.014C117.98 182.491 117.374 183.012 116.723 183.489C116.55 182.231 116.377 180.929 116.203 179.627C117.59 177.675 118.891 175.722 120.364 173.857C120.364 173.857 120.408 173.813 120.451 173.77C119.844 176.46 119.238 179.237 118.674 181.97L118.631 182.014ZM130.594 169.778C130.29 170.863 129.987 171.904 129.64 172.989C129.554 173.293 129.467 173.596 129.38 173.9C129.207 174.508 129.033 175.158 128.817 175.766C128.21 176.113 127.56 176.417 126.953 176.764C126.953 172.902 127.04 169.301 127.126 165.83C129.25 163.487 131.461 161.187 133.715 158.931C132.674 162.489 131.634 166.09 130.594 169.778ZM147.412 135.458C147.152 135.892 146.891 136.283 146.631 136.673C147.065 128.473 147.065 120.403 146.458 112.723C144.464 120.75 141.17 132.725 137.269 146.436C137.052 147.216 136.792 148.041 136.575 148.865C133.368 151.208 130.29 153.725 127.3 156.328C127.386 153.898 127.43 151.642 127.516 149.646C126.389 152.683 125.349 155.807 124.352 158.975C121.015 162.055 117.807 165.309 114.73 168.65C114.513 167.001 114.296 165.353 114.079 163.747C118.891 157.066 124.222 150.254 130.204 143.312C130.204 143.312 127.733 145.307 123.702 148.995C122.445 150.08 121.015 151.295 119.411 152.683C117.504 154.245 115.51 156.198 113.386 158.324C113.083 155.807 112.736 153.334 112.432 150.904C122.922 138.626 130.594 132.378 130.594 132.378C130.594 132.378 122.748 132.638 111.045 139.841C109.918 130.816 108.921 122.529 108.185 115.5C121.405 106.866 136.575 99.0124 154 92.374C152.96 104.87 150.489 117.452 148.322 129.731C148.105 130.903 147.802 132.898 147.412 135.415V135.458ZM198.515 118.494C198.515 118.494 198.298 118.841 198.168 119.014C191.06 124.611 184.168 131.076 177.796 138.365C178.49 135.979 179.097 133.549 179.703 131.163C185.208 124.177 191.493 117.322 198.775 110.684C198.688 113.244 198.602 115.847 198.472 118.537L198.515 118.494ZM198.862 109.295C195.611 110.727 189.759 113.547 182.694 118.016C183.388 114.372 183.995 110.727 184.515 107.039C189.803 101.659 194.917 97.7107 199.295 94.8905C199.165 99.3595 199.035 104.176 198.862 109.339V109.295ZM212.602 120.056C212.299 121.618 212.039 123.18 211.735 124.741C211.302 125.913 210.868 127.084 210.435 128.213C210.262 126.998 210.131 125.783 209.958 124.568C209.958 124.438 209.958 124.264 209.915 124.134V124.221C209.611 122.095 209.308 119.925 208.961 117.799C210.218 118.363 211.475 118.927 212.732 119.492C212.732 119.665 212.645 119.839 212.645 120.012L212.602 120.056ZM213.816 113.287C213.642 114.111 213.512 114.936 213.382 115.804C213.252 116.541 213.122 117.322 212.992 118.103C211.562 117.626 210.175 117.192 208.788 116.758C208.788 116.758 208.788 116.758 208.788 116.671C210.478 115.283 212.212 113.938 213.989 112.593C213.989 112.81 213.902 113.07 213.859 113.287H213.816ZM214.856 107.56C214.249 107.907 213.642 108.297 213.036 108.645C213.772 107.386 214.553 106.171 215.333 104.913C215.159 105.781 215.029 106.649 214.856 107.56ZM263.966 157.586C263.619 158.107 263.229 158.671 262.882 159.235C261.668 161.101 260.455 162.966 259.284 164.875C258.851 165.57 258.418 166.307 258.027 167.001C257.551 167.826 257.031 168.65 256.554 169.475C256.64 167.696 256.684 165.873 256.77 164.094C259.631 160.537 262.362 157.326 264.919 154.506C265.136 154.723 265.396 154.94 265.613 155.157C265.049 155.981 264.486 156.805 263.966 157.63V157.586ZM260.325 142.834C259.501 142.227 258.678 141.663 257.811 141.055C257.897 139.493 257.941 137.888 258.027 136.326C258.027 136.326 258.027 136.413 258.027 136.456C258.678 122.919 259.328 110.771 259.978 101.225C263.099 95.5413 266.35 89.9876 269.774 84.5207C280.957 94.6301 290.016 105.087 297.298 115.587C295.217 118.711 293.223 121.921 291.273 125.175C286.765 129.514 282.431 134.113 278.269 138.886C276.536 139.233 273.935 139.884 270.727 141.099C267.347 141.533 263.879 142.097 260.325 142.791V142.834ZM272.201 222.148H271.768C273.025 217.982 274.238 213.861 275.539 209.565C276.406 209.522 277.273 209.565 278.139 209.478C275.885 213.73 273.978 217.939 272.245 222.148H272.201ZM278.356 208.958C277.576 208.871 276.709 208.784 275.712 208.741C275.972 207.83 276.232 206.918 276.536 206.007C278.616 202.536 279.917 200.54 279.917 200.54C279.136 201.061 278.443 201.712 277.663 202.276C279.136 197.416 280.61 192.47 282.084 187.567C282.951 186.786 283.774 186.092 284.554 185.441C285.378 188.609 286.202 191.776 287.025 195.074C283.731 199.673 280.913 204.315 278.356 208.958ZM287.935 214.555C288.716 212.385 289.539 210.303 290.406 208.22C290.666 209.175 290.883 210.129 291.143 211.084C290.059 212.212 289.019 213.383 287.979 214.555H287.935ZM314.202 200.714C313.769 200.974 313.379 201.278 312.945 201.538C312.729 201.104 312.468 200.671 312.252 200.237C312.902 199.586 313.509 198.892 314.202 198.284C314.202 199.065 314.202 199.89 314.202 200.714ZM314.246 190.908C312.512 192.167 310.778 193.425 309.088 194.726C308.871 194.379 308.697 194.076 308.481 193.729C307.571 192.253 306.66 190.822 305.707 189.39C305.36 188.869 305.057 188.392 304.71 187.871C303.886 186.656 303.063 185.485 302.196 184.27C306.097 177.545 309.521 172.512 311.515 169.735C312.685 168.607 313.335 167.956 313.335 167.956C313.335 167.956 312.815 168.346 311.992 169.041C312.859 167.869 313.335 167.218 313.335 167.218C308.134 171.427 303.496 175.766 299.248 180.235C295.781 175.679 292.053 171.297 288.195 167.175C288.412 166.524 288.586 165.83 288.802 165.179C289.062 164.311 289.322 163.444 289.626 162.576L289.712 162.272C296.561 155.981 303.756 150.123 310.908 144.483C311.645 143.919 310.995 142.834 310.171 143.225C304.016 145.915 298.165 149.169 292.617 152.814C293.787 149.039 294.914 145.351 296.041 141.75C296.041 141.75 296.041 141.75 296.041 141.793C297.124 138.365 298.165 135.024 299.162 131.77C300.809 129.948 302.499 128.126 304.233 126.347C308.134 132.985 311.298 139.624 313.942 146.175C314.116 154.245 314.202 164.875 314.246 176.807C314.246 181.32 314.246 186.049 314.246 190.865V190.908ZM336.395 122.659C336.395 122.659 336.395 122.615 336.395 122.572C336.395 122.702 336.395 122.832 336.395 122.963C336.395 123.787 336.308 124.568 336.265 125.349C336.178 126.781 336.135 128.169 336.091 129.601C336.091 130.512 336.048 131.423 336.005 132.291C336.005 133.636 335.918 135.024 335.918 136.369C335.918 137.237 335.918 138.105 335.918 139.016C335.918 139.19 335.918 139.363 335.918 139.493C333.577 128.777 330.717 118.407 327.162 108.775C327.552 120.142 327.682 138.018 327.682 158.28C326.599 155.373 325.429 152.553 324.172 149.733C324.085 149.559 323.998 149.386 323.955 149.212C323.131 147.433 322.308 145.655 321.441 143.919C321.311 143.659 321.137 143.355 321.007 143.095C320.184 141.489 319.36 139.884 318.493 138.279C318.45 138.192 318.363 138.062 318.32 137.975C315.243 132.421 311.905 127.128 308.394 122.182C317.28 113.417 327.509 104.87 339.125 96.9297C337.825 105.217 337.002 113.851 336.525 122.615L336.395 122.659ZM353.949 168.911C353.949 168.911 353.949 168.824 353.949 168.78C353.949 168.911 353.949 169.041 353.906 169.171C353.603 170.733 353.343 172.338 353.083 173.9C352.736 171.34 352.389 168.78 352.042 166.177C352.736 166.828 353.429 167.435 354.123 168.086C354.079 168.346 354.036 168.607 353.949 168.867V168.911ZM363.269 209.392V209.218C363.399 207.83 363.529 206.398 363.702 204.966C364.005 204.966 364.309 204.966 364.569 204.966C364.135 206.441 363.702 207.916 363.269 209.392ZM365.609 201.495C365.089 201.061 364.612 200.627 364.092 200.237C364.656 193.555 365.089 186.7 365.392 179.844C366.563 181.189 367.69 182.578 368.773 184.01C369.25 184.617 369.684 185.311 370.16 185.919C368.643 191.082 367.126 196.288 365.609 201.452V201.495ZM373.368 174.898C373.064 175.983 372.761 177.067 372.414 178.152C370.247 175.809 367.993 173.553 365.653 171.384C365.653 170.863 365.653 170.386 365.653 169.865L365.566 170.169L365.349 171.08C364.699 170.429 364.005 169.822 363.312 169.214C363.312 166.481 363.312 163.791 363.399 161.231C367.04 165.613 370.42 169.908 373.498 174.204C373.411 174.421 373.368 174.681 373.325 174.898H373.368ZM374.712 170.212C372.891 168.433 371.244 166.741 369.597 165.439C368.167 164.181 366.91 163.097 365.783 162.142C364.916 161.361 364.179 160.71 363.485 160.103C363.485 156.935 363.572 153.898 363.615 151.035C366.606 153.855 371.114 158.367 376.359 164.615C375.839 166.481 375.275 168.346 374.755 170.212H374.712ZM388.279 162.793C387.802 162.359 387.282 161.925 386.805 161.491C386.935 160.146 387.065 158.844 387.152 157.499C387.628 158.931 388.148 160.363 388.669 161.795C388.539 162.142 388.365 162.446 388.235 162.793H388.279ZM390.186 158.541C389.102 156.892 388.192 155.417 387.455 154.202C387.802 149.516 388.018 144.874 388.062 140.318C389.796 144.266 391.443 148.214 392.96 152.25C392.049 154.332 391.096 156.415 390.186 158.541ZM396.341 144.57C394.607 140.752 392.7 136.977 390.749 133.246C392.656 134.07 395.647 135.545 399.288 137.888C398.334 140.101 397.338 142.314 396.384 144.57H396.341ZM419.53 108.775C421.784 109.859 424.775 111.551 428.199 113.981C425.815 117.279 423.518 120.706 421.264 124.221C419.964 121.965 418.793 119.925 417.796 118.277C417.753 118.19 417.71 118.146 417.666 118.06C418.316 114.979 418.967 111.855 419.487 108.818L419.53 108.775ZM422.434 138.582C422.087 138.279 421.741 138.062 421.437 137.801C421.567 137.324 421.697 136.89 421.871 136.413C422.087 137.15 422.261 137.845 422.478 138.582H422.434ZM416.193 132.508C415.846 131.163 415.542 129.818 415.196 128.473C415.456 127.518 415.672 126.564 415.889 125.566C416.626 126.781 417.319 128.039 418.013 129.254C417.363 130.295 416.799 131.423 416.149 132.465L416.193 132.508ZM423.908 148.822C422.434 147.39 420.917 146.045 419.313 144.787C419.92 142.704 420.527 140.665 421.134 138.669C421.741 139.407 422.391 140.101 422.998 140.838C423.431 142.574 423.908 144.353 424.341 146.262C424.168 147.13 424.038 147.954 423.865 148.822H423.908ZM426.899 132.204C426.032 130.946 425.165 129.688 424.255 128.473C424.688 127.084 425.078 125.783 425.468 124.481C426.248 125.219 427.072 125.913 427.852 126.651C427.549 128.473 427.202 130.339 426.855 132.204H426.899ZM428.156 124.915C427.202 124.481 426.335 124.091 425.685 123.787C426.769 120.316 427.766 117.149 428.676 114.328C429.066 114.632 429.456 114.849 429.846 115.196C429.283 118.363 428.719 121.618 428.156 124.915ZM469.767 125.349C470.894 126.347 472.021 127.388 473.061 128.386C471.717 129.167 470.287 129.991 468.77 130.946C469.116 129.08 469.463 127.215 469.767 125.349ZM470.243 149.126C469.333 147.781 468.423 146.436 467.599 145.047C467.296 143.268 467.079 141.793 466.949 140.838C469.593 137.498 472.497 134.2 475.618 130.946C476.875 132.204 478.089 133.462 479.259 134.721C476.095 139.407 473.061 144.179 470.243 149.082V149.126ZM482.553 150.254C483.29 147 484.027 143.962 484.764 141.099C485.891 142.487 486.975 143.832 488.015 145.221C486.108 146.783 484.287 148.431 482.553 150.254ZM488.145 178.716C488.232 178.456 488.318 178.196 488.405 177.935C490.876 172.599 493.043 166.915 494.907 161.014C495.6 160.276 496.337 159.539 497.031 158.801C494.647 165.136 491.699 171.861 488.145 178.76V178.716ZM501.712 144.743C500.628 145.611 499.544 146.479 498.461 147.347C498.548 146.826 498.678 146.305 498.764 145.785C499.978 144.613 501.148 143.572 502.319 142.617C502.102 143.312 501.928 144.049 501.712 144.743ZM507.607 148.605C508.734 147.607 509.904 146.609 511.074 145.611C509.47 149.126 507.997 152.727 506.566 156.328C506.956 153.768 507.303 151.208 507.563 148.605H507.607ZM509.687 170.473C509.47 170.082 509.297 169.692 509.08 169.344C511.031 162.88 513.285 156.502 515.755 150.167C515.842 153.508 515.885 157.239 515.929 161.318C514.152 164.008 512.028 167.088 509.687 170.473ZM508.344 139.884C508.344 139.276 508.344 138.669 508.387 138.062C512.115 135.588 515.192 134.07 517.142 133.246C516.969 133.593 516.796 133.983 516.622 134.33C513.848 136.109 511.074 137.975 508.3 139.884H508.344ZM523.081 155.764V155.59C523.081 155.59 523.081 155.981 523.081 156.154C522.994 157.413 522.951 158.671 522.907 159.929C522.214 160.493 521.564 161.057 520.87 161.665C520.653 160.797 520.437 159.886 520.177 159.018C521.217 156.024 522.17 153.074 522.994 150.08C522.994 150.08 521.694 152.293 519.353 156.024C518.53 153.161 517.663 150.384 516.709 147.65C518.009 144.396 519.44 141.186 520.87 137.975C522.3 136.934 523.731 135.936 525.205 134.894C524.164 141.619 523.471 148.605 523.081 155.721V155.764ZM526.288 128.603C525.855 128.863 525.378 129.124 524.945 129.384C525.638 127.996 526.332 126.564 527.025 125.175C526.765 126.303 526.505 127.475 526.288 128.603ZM537.688 191.125C537.081 191.559 536.518 192.036 535.911 192.514C535.737 191.386 535.607 190.257 535.477 189.129C536.691 187.437 537.861 185.702 539.118 184.053C539.118 184.053 539.162 183.966 539.205 183.923C538.641 186.309 538.165 188.695 537.688 191.125ZM546.574 185.658C546.053 185.962 545.49 186.222 544.926 186.526C544.926 183.142 545.013 179.931 545.056 176.937C546.92 174.855 548.871 172.859 550.865 170.863C549.478 175.679 548.047 180.625 546.574 185.658ZM562.871 150.297C562.654 150.644 562.438 150.991 562.221 151.382C562.611 144.136 562.611 137.064 562.091 130.339C560.357 137.367 557.453 147.911 553.985 159.973C553.812 160.667 553.595 161.404 553.379 162.099C550.561 164.181 547.831 166.351 545.23 168.694C545.273 166.568 545.36 164.572 545.403 162.836C544.406 165.439 543.583 168.216 542.716 170.95C539.768 173.683 536.908 176.547 534.177 179.541C534.004 178.109 533.787 176.634 533.614 175.202C537.861 169.301 542.499 163.313 547.787 157.239C547.787 157.239 545.663 158.975 542.109 162.142C540.982 163.097 539.725 164.181 538.295 165.439C536.604 166.785 534.87 168.52 533.007 170.386C532.703 168.173 532.443 166.004 532.183 163.878C541.372 153.117 548.134 147.607 548.134 147.607C548.134 147.607 541.242 147.824 530.969 154.159C529.973 146.219 529.106 138.929 528.455 132.768C540.072 125.175 553.422 118.277 568.723 112.463C567.812 123.483 565.645 134.504 563.695 145.264C563.521 146.262 563.261 148.084 562.914 150.297H562.871ZM607.82 135.328C607.82 135.328 607.603 135.632 607.473 135.805C603.572 138.886 599.758 142.227 596.073 145.871L595.987 145.958C594.816 147.086 593.689 148.258 592.562 149.473C592.519 149.559 592.432 149.603 592.389 149.646C591.435 150.644 590.525 151.685 589.572 152.77C590.178 150.688 590.742 148.562 591.262 146.436C596.073 140.318 601.621 134.243 608.036 128.429C607.95 130.686 607.863 132.942 607.776 135.285L607.82 135.328ZM608.123 127.258C605.306 128.516 600.104 130.989 593.906 134.938C594.513 131.727 595.076 128.516 595.51 125.262C600.148 120.533 604.656 117.062 608.513 114.589C608.427 118.537 608.297 122.746 608.123 127.258ZM619.393 140.969C619.003 141.967 618.613 142.964 618.266 144.006C618.092 142.834 617.962 141.663 617.789 140.491C617.789 140.491 617.789 140.405 617.789 140.361C617.529 138.495 617.226 136.673 616.922 134.764C618.049 135.285 619.176 135.762 620.26 136.283C619.956 137.845 619.696 139.407 619.393 140.969ZM620.476 134.981C619.219 134.547 617.962 134.157 616.749 133.766C618.222 132.551 619.74 131.336 621.3 130.165C620.997 131.77 620.736 133.376 620.433 134.981H620.476ZM622.123 125.783C621.603 126.087 621.04 126.39 620.52 126.737C621.17 125.653 621.863 124.568 622.514 123.483C622.384 124.264 622.253 125.002 622.123 125.783ZM661.827 120.186C664.558 115.239 667.419 110.337 670.453 105.521C680.292 114.415 688.224 123.613 694.639 132.812C693.816 134.07 693.036 135.372 692.255 136.63C690.738 134.33 689.178 132.074 687.574 129.948C688.441 132.638 689.481 135.849 690.565 139.363C690.175 140.014 689.741 140.622 689.351 141.316C686.274 144.266 683.326 147.39 680.422 150.601C674.05 145.047 667.462 140.188 660.874 136.153C661.177 130.252 661.524 124.915 661.827 120.229V120.186ZM665.468 169.518C665.035 170.169 664.601 170.82 664.168 171.47C663.214 172.902 662.261 174.377 661.351 175.896C660.874 176.677 660.44 177.458 659.963 178.239C659.703 178.673 659.443 179.107 659.183 179.541C659.053 179.454 658.966 179.324 658.88 179.237C658.923 177.979 658.967 176.677 659.053 175.419C661.567 172.295 663.995 169.475 666.205 166.958C666.422 167.132 666.639 167.349 666.812 167.522C666.335 168.173 665.902 168.824 665.468 169.518ZM662.131 156.762C661.394 156.241 660.657 155.721 659.92 155.2C660.18 150.037 660.397 145.047 660.657 140.361C666.335 144.657 671.45 149.169 676.001 153.768C674.701 154.115 673.097 154.592 671.276 155.287C668.329 155.677 665.252 156.154 662.131 156.762ZM674.397 222.148H673.444C674.137 219.892 674.787 217.679 675.438 215.379C675.828 215.379 676.218 215.379 676.651 215.379C676.868 215.726 677.041 216.03 677.215 216.377C676.218 218.33 675.264 220.239 674.397 222.191V222.148ZM683.76 205.357C683.456 205.009 683.196 204.662 682.893 204.315C682.676 204.055 682.459 203.795 682.243 203.534C681.462 202.58 680.596 201.712 679.815 200.757C680.292 199.195 680.769 197.633 681.246 196.028C681.983 195.377 682.719 194.726 683.413 194.162C684.15 196.939 684.843 199.759 685.58 202.623C684.93 203.534 684.367 204.445 683.76 205.357ZM686.664 178.196C687.097 176.72 687.531 175.289 688.008 173.857C688.138 173.727 688.311 173.596 688.441 173.466C689.395 176.59 690.435 180.018 691.475 183.576C689.915 181.71 688.311 179.931 686.664 178.152V178.196ZM691.779 161.535C692.385 159.625 692.949 157.716 693.556 155.851C693.902 154.723 694.249 153.638 694.596 152.51C695.463 155.373 696.373 158.411 697.283 161.491C696.07 162.185 694.899 162.923 693.729 163.661C693.122 162.923 692.472 162.272 691.822 161.535H691.779ZM696.2 166.698C696.893 166.134 697.587 165.526 698.28 164.962C698.93 167.132 699.581 169.344 700.231 171.557C698.93 169.865 697.543 168.303 696.2 166.698ZM697.803 145.438C698.454 144.743 699.104 144.049 699.797 143.312C699.927 143.789 700.057 144.309 700.144 144.787C700.447 145.958 700.751 147.13 701.054 148.258C701.228 148.952 701.401 149.603 701.618 150.297C701.921 151.382 702.225 152.51 702.528 153.595C701.011 150.818 699.407 148.084 697.803 145.438ZM728.752 143.659C728.752 143.659 728.752 144.093 728.752 144.266C728.708 145.785 728.665 147.26 728.622 148.778C728.622 149.126 728.622 149.429 728.622 149.776C728.622 151.121 728.578 152.466 728.578 153.855C726.498 144.396 723.984 135.285 720.906 126.867C721.21 135.675 721.34 148.952 721.34 164.181C721.34 165.743 721.34 167.349 721.34 168.911C716.398 157.76 711.544 146.652 707.123 136.5C707.079 136.369 706.993 136.239 706.949 136.109C714.144 129.297 722.207 122.659 731.309 116.411C729.965 125.132 729.185 134.33 728.795 143.615L728.752 143.659ZM754.628 184.053C754.628 184.053 754.628 183.923 754.628 183.879C754.628 182.751 754.758 181.623 754.758 180.495L754.672 180.842L754.325 182.274C754.152 181.406 754.022 180.582 753.848 179.714C753.848 179.671 753.848 179.627 753.848 179.541C753.501 177.805 753.111 176.07 752.765 174.291C752.895 163.097 753.068 153.464 753.328 146.696C751.768 150.818 750.424 155.157 749.167 159.582C747.91 155.157 746.523 150.818 745.006 146.696C745.266 153.421 745.439 163.097 745.569 174.291C745.223 176.07 744.833 177.805 744.486 179.584C744.486 179.584 744.486 179.627 744.486 179.671C744.312 180.539 744.182 181.363 744.009 182.231L743.662 180.799L743.576 180.495C743.576 181.58 743.706 182.708 743.706 183.836C743.706 183.879 743.706 183.966 743.706 184.01C740.281 158.497 736.857 131.901 734.907 114.068C739.414 111.118 744.182 108.254 749.21 105.521C754.195 108.254 758.963 111.118 763.514 114.068C761.564 131.901 758.139 158.497 754.715 184.01L754.628 184.053ZM791.125 136.543C786.747 146.696 781.849 157.803 776.951 168.954V164.181C776.951 148.952 777.081 135.675 777.384 126.867C774.307 135.328 771.793 144.44 769.712 153.855C769.712 152.51 769.712 151.165 769.626 149.776C769.626 149.429 769.626 149.126 769.626 148.778C769.626 147.26 769.539 145.741 769.496 144.266C769.496 144.049 769.496 143.832 769.496 143.659C769.106 134.374 768.325 125.175 766.982 116.454C776.084 122.702 784.146 129.341 791.341 136.153C791.298 136.283 791.211 136.413 791.168 136.543H791.125ZM827.794 105.521C830.785 110.293 833.646 115.196 836.42 120.186C836.723 124.872 837.07 130.208 837.374 136.109C830.785 140.144 824.197 145.047 817.825 150.557C814.921 147.347 811.974 144.223 808.896 141.272C808.506 140.622 808.073 140.014 807.682 139.32C808.766 135.805 809.806 132.638 810.673 129.905C809.069 132.074 807.509 134.33 805.992 136.586C805.212 135.328 804.432 134.027 803.608 132.768C810.023 123.527 817.955 114.372 827.794 105.477V105.521ZM796.63 150.297C796.803 149.603 796.976 148.952 797.15 148.258C797.453 147.086 797.756 145.915 798.06 144.787C798.19 144.309 798.32 143.789 798.407 143.312C799.1 144.006 799.75 144.7 800.401 145.438C798.797 148.128 797.236 150.818 795.676 153.595C795.979 152.51 796.283 151.382 796.586 150.297H796.63ZM798.017 171.557C798.667 169.301 799.317 167.088 799.967 164.962C800.661 165.526 801.354 166.134 802.048 166.698C800.704 168.303 799.317 169.865 798.017 171.557ZM804.562 163.617C803.391 162.88 802.221 162.142 801.007 161.448C801.918 158.367 802.828 155.33 803.695 152.466C804.041 153.595 804.388 154.679 804.735 155.851C805.298 157.716 805.905 159.625 806.512 161.535C805.862 162.229 805.212 162.923 804.605 163.661L804.562 163.617ZM806.772 183.576C807.856 179.974 808.853 176.59 809.806 173.466C809.936 173.596 810.11 173.727 810.24 173.857C810.673 175.289 811.107 176.72 811.54 178.196C809.893 179.931 808.289 181.753 806.729 183.619L806.772 183.576ZM815.961 203.534C815.745 203.795 815.528 204.055 815.311 204.315C815.008 204.662 814.748 205.009 814.444 205.357C813.837 204.445 813.274 203.534 812.624 202.623C813.361 199.759 814.097 196.939 814.791 194.162C815.484 194.726 816.178 195.377 816.958 196.028C817.435 197.633 817.912 199.195 818.389 200.757C817.565 201.669 816.742 202.58 815.961 203.534ZM823.807 222.148C822.896 220.195 821.986 218.286 820.989 216.334C821.163 215.987 821.379 215.683 821.553 215.336C821.943 215.336 822.376 215.336 822.766 215.336C823.46 217.635 824.11 219.848 824.76 222.104H823.807V222.148ZM822.203 153.768C826.754 149.126 831.869 144.657 837.547 140.361C837.807 145.047 838.024 150.037 838.284 155.2C837.547 155.721 836.81 156.241 836.073 156.762C832.952 156.154 829.918 155.677 826.927 155.287C825.064 154.592 823.503 154.115 822.203 153.768ZM839.021 179.541C838.761 179.107 838.501 178.673 838.24 178.239C837.764 177.458 837.33 176.677 836.853 175.896C835.943 174.421 834.99 172.946 834.036 171.47C833.603 170.82 833.169 170.169 832.736 169.518C832.302 168.867 831.825 168.173 831.392 167.522C831.609 167.349 831.825 167.132 831.999 166.958C834.209 169.431 836.637 172.251 839.151 175.419C839.194 176.677 839.237 177.979 839.324 179.237C839.194 179.324 839.107 179.454 839.021 179.541ZM875.69 123.483C876.341 124.568 877.034 125.653 877.684 126.737C877.164 126.434 876.601 126.087 876.08 125.783C875.95 125.002 875.82 124.264 875.69 123.483ZM880.415 140.361C880.415 140.361 880.415 140.448 880.415 140.491C880.242 141.663 880.112 142.834 879.938 144.006C879.548 143.008 879.201 142.01 878.811 140.969C878.508 139.407 878.248 137.845 877.944 136.283C879.028 135.762 880.155 135.285 881.282 134.764C880.978 136.63 880.675 138.495 880.415 140.361ZM881.455 133.81C880.242 134.2 878.985 134.591 877.728 135.024C877.424 133.419 877.164 131.814 876.861 130.208C878.421 131.38 879.938 132.595 881.455 133.81ZM889.691 114.589C893.548 117.062 898.013 120.533 902.694 125.262C903.128 128.473 903.691 131.727 904.298 134.938C898.1 131.033 892.898 128.516 890.081 127.258C889.907 122.746 889.777 118.494 889.691 114.589ZM905.815 149.69C905.815 149.69 905.685 149.559 905.642 149.516C904.515 148.301 903.388 147.13 902.217 146.002C902.217 146.002 902.174 145.915 902.131 145.915C898.446 142.27 894.632 138.929 890.731 135.849C890.601 135.675 890.514 135.545 890.384 135.372C890.298 133.029 890.211 130.729 890.124 128.516C896.496 134.374 902.044 140.405 906.899 146.522C907.419 148.648 907.982 150.731 908.589 152.857C907.679 151.816 906.725 150.774 905.772 149.733L905.815 149.69ZM951.674 185.658C950.2 180.669 948.77 175.722 947.383 170.863C949.376 172.815 951.327 174.855 953.191 176.937C953.234 179.931 953.278 183.142 953.321 186.526C952.801 186.222 952.237 185.962 951.674 185.658ZM962.293 192.47C961.686 191.993 961.123 191.559 960.516 191.082C960.039 188.652 959.562 186.266 958.999 183.879C958.999 183.879 959.042 183.966 959.086 184.01C960.343 185.658 961.513 187.394 962.727 189.086C962.553 190.214 962.423 191.342 962.293 192.47ZM967.234 154.159C956.918 147.824 950.07 147.607 950.07 147.607C950.07 147.607 956.832 153.117 966.021 163.878C965.761 166.047 965.457 168.216 965.197 170.386C963.333 168.52 961.6 166.785 959.909 165.439C958.479 164.181 957.222 163.097 956.095 162.142C952.584 158.975 950.417 157.239 950.417 157.239C955.661 163.313 960.343 169.301 964.59 175.202C964.417 176.634 964.2 178.065 964.027 179.541C961.296 176.547 958.436 173.683 955.488 170.95C954.621 168.216 953.798 165.439 952.801 162.836C952.887 164.572 952.931 166.568 952.974 168.694C950.33 166.394 947.643 164.181 944.825 162.099C944.609 161.404 944.435 160.667 944.218 159.973C940.794 147.911 937.89 137.367 936.156 130.339C935.636 137.064 935.636 144.136 936.026 151.382C935.81 151.035 935.593 150.688 935.376 150.297C935.029 148.084 934.769 146.305 934.596 145.264C932.645 134.504 930.478 123.44 929.568 112.463C944.869 118.277 958.219 125.175 969.835 132.768C969.142 138.929 968.318 146.219 967.321 154.159H967.234ZM971.179 125.132C971.872 126.52 972.566 127.952 973.259 129.341C972.826 129.08 972.349 128.82 971.916 128.56C971.699 127.388 971.439 126.26 971.179 125.132ZM978.894 156.068C976.554 152.336 975.253 150.123 975.253 150.123C976.077 153.074 977.03 156.068 978.071 159.061C977.854 159.929 977.637 160.797 977.377 161.708C976.684 161.101 975.99 160.537 975.34 159.973C975.297 158.714 975.253 157.456 975.167 156.198C975.167 156.024 975.167 155.807 975.167 155.634C975.167 155.677 975.167 155.721 975.167 155.807C974.776 148.692 974.083 141.706 973.043 134.981C974.516 135.979 975.99 137.02 977.377 138.062C978.808 141.272 980.238 144.483 981.538 147.737C980.585 150.471 979.718 153.247 978.894 156.111V156.068ZM981.062 133.246C983.012 134.07 986.133 135.588 989.817 138.062C989.817 138.669 989.817 139.276 989.86 139.884C987.13 137.931 984.356 136.066 981.538 134.33C981.365 133.983 981.192 133.636 981.018 133.246H981.062ZM988.56 170.473C986.219 167.132 984.096 164.008 982.319 161.318C982.319 157.239 982.405 153.508 982.492 150.167C984.963 156.458 987.216 162.88 989.167 169.344C988.95 169.735 988.777 170.125 988.56 170.473ZM987.086 145.611C988.3 146.609 989.427 147.607 990.554 148.605C990.814 151.208 991.161 153.768 991.551 156.328C990.164 152.727 988.647 149.126 987.043 145.611H987.086ZM996.492 144.743C996.276 144.006 996.102 143.312 995.885 142.617C997.056 143.572 998.226 144.613 999.44 145.785C999.526 146.305 999.656 146.826 999.743 147.347C998.659 146.479 997.576 145.611 996.492 144.743ZM1001.17 158.801C1001.87 159.539 1002.6 160.276 1003.3 161.014C1005.16 166.958 1007.37 172.599 1009.8 177.935C1009.89 178.196 1009.97 178.456 1010.06 178.716C1006.5 171.861 1003.56 165.136 1001.17 158.758V158.801ZM1010.19 145.221C1011.23 143.832 1012.31 142.487 1013.44 141.099C1014.18 143.962 1014.91 147 1015.65 150.254C1013.92 148.431 1012.1 146.739 1010.19 145.221ZM1028.44 125.349C1028.74 127.215 1029.09 129.124 1029.43 130.946C1027.92 129.991 1026.49 129.124 1025.14 128.386C1026.18 127.388 1027.31 126.347 1028.44 125.349ZM1030.6 145.09C1029.78 146.436 1028.91 147.781 1027.96 149.169C1025.14 144.266 1022.11 139.493 1018.94 134.808C1020.12 133.549 1021.33 132.291 1022.59 131.033C1025.75 134.287 1028.61 137.584 1031.25 140.925C1031.08 141.88 1030.86 143.312 1030.56 145.134L1030.6 145.09ZM1078.72 108.775C1079.28 111.855 1079.89 114.936 1080.54 118.016C1080.49 118.103 1080.45 118.146 1080.41 118.233C1079.41 119.882 1078.24 121.965 1076.94 124.177C1074.69 120.663 1072.39 117.192 1070.01 113.938C1073.43 111.508 1076.42 109.816 1078.67 108.731L1078.72 108.775ZM1076.77 137.801C1076.46 138.062 1076.12 138.322 1075.77 138.582C1075.99 137.845 1076.16 137.107 1076.38 136.413C1076.51 136.89 1076.64 137.324 1076.81 137.801H1076.77ZM1068.36 115.153C1068.75 114.849 1069.14 114.589 1069.53 114.285C1070.44 117.105 1071.44 120.272 1072.52 123.744C1071.87 124.047 1071 124.438 1070.05 124.872C1069.48 121.574 1068.92 118.32 1068.36 115.153ZM1070.35 126.651C1071.13 125.913 1071.91 125.219 1072.74 124.481C1073.13 125.783 1073.56 127.084 1073.95 128.473C1073.04 129.688 1072.17 130.946 1071.31 132.204C1070.96 130.339 1070.66 128.516 1070.35 126.651ZM1074.3 148.822C1074.12 147.954 1073.99 147.13 1073.82 146.262C1074.25 144.396 1074.73 142.574 1075.16 140.838C1075.77 140.101 1076.42 139.363 1077.03 138.669C1077.63 140.665 1078.24 142.704 1078.85 144.787C1077.24 146.045 1075.73 147.39 1074.25 148.822H1074.3ZM1082.01 132.508C1081.4 131.467 1080.8 130.339 1080.15 129.297C1080.84 128.082 1081.53 126.824 1082.27 125.609C1082.49 126.564 1082.75 127.518 1082.97 128.516C1082.62 129.818 1082.31 131.206 1081.97 132.551L1082.01 132.508ZM1098.96 137.931C1102.56 135.545 1105.55 134.113 1107.5 133.289C1105.5 137.02 1103.64 140.795 1101.91 144.613C1100.91 142.357 1099.96 140.144 1099 137.931H1098.96ZM1105.29 152.25C1106.8 148.214 1108.45 144.266 1110.19 140.318C1110.23 144.874 1110.49 149.516 1110.79 154.202C1110.06 155.417 1109.15 156.849 1108.06 158.541C1107.15 156.458 1106.2 154.332 1105.29 152.25ZM1109.93 162.793C1109.8 162.446 1109.62 162.142 1109.49 161.795C1110.01 160.363 1110.53 158.931 1111.01 157.499C1111.14 158.801 1111.23 160.146 1111.36 161.491C1110.88 161.925 1110.4 162.359 1109.88 162.793H1109.93ZM1121.89 164.615C1127.13 158.367 1131.64 153.855 1134.63 151.035C1134.68 153.898 1134.72 156.935 1134.76 160.103C1134.07 160.71 1133.33 161.361 1132.46 162.142C1131.34 163.097 1130.08 164.181 1128.65 165.439C1127 166.741 1125.31 168.433 1123.49 170.212C1122.93 168.303 1122.41 166.437 1121.89 164.615ZM1124.84 174.898C1124.75 174.681 1124.71 174.421 1124.62 174.204C1127.74 169.952 1131.12 165.613 1134.72 161.231C1134.72 163.834 1134.76 166.481 1134.81 169.214C1134.11 169.822 1133.46 170.473 1132.77 171.08L1132.55 170.169L1132.46 169.865C1132.46 170.386 1132.46 170.863 1132.46 171.384C1130.12 173.553 1127.91 175.809 1125.7 178.152C1125.4 177.067 1125.1 175.983 1124.75 174.898H1124.84ZM1128.04 185.962C1128.52 185.355 1128.95 184.66 1129.43 184.053C1130.51 182.621 1131.64 181.276 1132.81 179.888C1133.07 186.743 1133.55 193.555 1134.11 200.28C1133.59 200.671 1133.11 201.104 1132.64 201.538C1131.12 196.332 1129.6 191.125 1128.09 186.005L1128.04 185.962ZM1134.94 209.392C1134.5 207.916 1134.07 206.441 1133.64 204.966C1133.94 204.966 1134.24 204.966 1134.5 204.966C1134.63 206.398 1134.76 207.83 1134.94 209.218V209.392ZM1145.16 173.9C1144.9 172.338 1144.6 170.733 1144.3 169.171C1144.3 169.041 1144.3 168.911 1144.25 168.78C1144.25 168.78 1144.25 168.867 1144.25 168.911C1144.21 168.65 1144.17 168.39 1144.08 168.13C1144.77 167.479 1145.47 166.871 1146.16 166.22C1145.82 168.78 1145.47 171.384 1145.12 173.944L1145.16 173.9ZM1179.97 138.062C1179.97 138.062 1179.84 138.279 1179.8 138.365C1178.93 139.927 1178.11 141.533 1177.28 143.181C1177.15 143.442 1176.98 143.702 1176.85 144.006C1175.98 145.741 1175.16 147.52 1174.34 149.299C1174.25 149.473 1174.16 149.646 1174.12 149.82C1172.86 152.597 1171.69 155.46 1170.61 158.367C1170.61 138.105 1170.74 120.229 1171.13 108.861C1167.62 118.45 1164.76 128.82 1162.37 139.58C1162.37 139.407 1162.37 139.233 1162.37 139.103C1162.37 138.235 1162.37 137.367 1162.37 136.456C1162.37 135.111 1162.33 133.723 1162.29 132.378C1162.29 131.467 1162.24 130.555 1162.2 129.688C1162.16 128.256 1162.07 126.867 1162.03 125.436C1162.03 124.611 1161.94 123.83 1161.9 123.049C1161.9 122.919 1161.9 122.789 1161.9 122.659C1161.9 122.659 1161.9 122.702 1161.9 122.746C1161.42 113.981 1160.55 105.347 1159.3 97.0599C1170.91 105.043 1181.14 113.547 1190.03 122.312C1186.52 127.258 1183.13 132.551 1180.1 138.105L1179.97 138.062ZM1185.26 201.538C1184.83 201.235 1184.44 200.974 1184 200.714C1184 199.89 1184 199.109 1184 198.284C1184.65 198.935 1185.3 199.586 1185.95 200.237C1185.74 200.671 1185.48 201.104 1185.26 201.538ZM1186.17 169.084C1185.35 168.39 1184.83 167.999 1184.83 167.999C1184.83 167.999 1185.48 168.65 1186.65 169.778C1188.64 172.555 1192.06 177.588 1195.96 184.313C1195.1 185.485 1194.27 186.7 1193.45 187.915C1193.1 188.435 1192.8 188.912 1192.45 189.433C1191.5 190.865 1190.59 192.297 1189.68 193.772C1189.46 194.119 1189.25 194.423 1189.07 194.77C1187.38 193.468 1185.69 192.21 1183.92 190.952C1183.92 186.136 1183.92 181.406 1183.92 176.894C1183.92 164.962 1184 154.289 1184.22 146.262C1186.86 139.71 1190.07 133.072 1193.93 126.434C1195.66 128.256 1197.4 130.035 1199 131.857C1200.04 135.111 1201.08 138.452 1202.12 141.88C1202.12 141.88 1202.12 141.88 1202.12 141.836C1203.25 145.438 1204.37 149.126 1205.54 152.9C1200 149.256 1194.19 146.002 1187.99 143.312C1187.12 142.921 1186.52 143.962 1187.21 144.57C1194.36 150.21 1201.56 156.111 1208.4 162.359L1208.49 162.663C1208.75 163.53 1209.01 164.398 1209.27 165.266C1209.49 165.917 1209.66 166.568 1209.88 167.262C1206.02 171.384 1202.34 175.722 1198.83 180.322C1194.58 175.853 1189.94 171.514 1184.74 167.305C1184.74 167.305 1185.22 167.956 1186.08 169.127L1186.17 169.084ZM1207.1 211.084C1207.36 210.129 1207.58 209.175 1207.84 208.22C1208.71 210.259 1209.49 212.385 1210.31 214.555C1209.27 213.383 1208.23 212.212 1207.15 211.084H1207.1ZM1211.22 195.03C1212.05 191.776 1212.87 188.565 1213.69 185.398C1214.47 186.049 1215.3 186.743 1216.16 187.524C1217.64 192.427 1219.11 197.373 1220.58 202.233C1219.8 201.669 1219.11 201.018 1218.33 200.497C1218.33 200.497 1219.63 202.493 1221.71 205.964C1221.97 206.875 1222.28 207.786 1222.54 208.697C1221.54 208.784 1220.67 208.871 1219.89 208.914C1217.38 204.272 1214.52 199.629 1211.22 195.03ZM1226.05 222.148C1224.31 217.939 1222.41 213.73 1220.15 209.478C1221.02 209.478 1221.89 209.478 1222.75 209.565C1224.01 213.861 1225.27 217.982 1226.48 222.148H1226.05ZM1219.93 138.929C1215.77 134.113 1211.44 129.514 1206.93 125.219C1204.98 121.965 1202.94 118.754 1200.91 115.63C1208.19 105.13 1217.25 94.7169 1228.43 84.5641C1231.85 90.031 1235.11 95.5847 1238.23 101.269C1238.88 110.857 1239.53 123.006 1240.18 136.5C1240.18 136.5 1240.18 136.413 1240.18 136.369C1240.26 137.931 1240.31 139.537 1240.39 141.099C1239.57 141.663 1238.75 142.27 1237.88 142.878C1234.33 142.183 1230.86 141.619 1227.48 141.186C1224.23 139.971 1221.67 139.32 1219.89 138.973L1219.93 138.929ZM1240.18 166.958C1239.74 166.264 1239.35 165.526 1238.92 164.832C1237.75 162.923 1236.58 161.057 1235.32 159.192C1234.98 158.671 1234.58 158.107 1234.24 157.543C1233.67 156.718 1233.15 155.894 1232.59 155.07C1232.81 154.853 1233.07 154.636 1233.28 154.419C1235.8 157.239 1238.53 160.45 1241.43 164.008C1241.52 165.787 1241.61 167.566 1241.65 169.388C1241.17 168.563 1240.65 167.739 1240.18 166.915V166.958ZM1282.91 104.957C1283.69 106.215 1284.47 107.43 1285.21 108.688C1284.6 108.297 1284 107.95 1283.39 107.603C1283.22 106.735 1283.09 105.868 1282.91 104.957ZM1288.29 124.221V124.134C1288.29 124.134 1288.29 124.438 1288.25 124.568C1288.07 125.783 1287.9 126.998 1287.77 128.213C1287.34 127.041 1286.9 125.87 1286.47 124.741C1286.17 123.18 1285.91 121.618 1285.6 120.056C1285.6 119.882 1285.56 119.708 1285.52 119.535C1286.77 118.971 1287.99 118.407 1289.29 117.843C1288.94 119.969 1288.64 122.095 1288.33 124.264L1288.29 124.221ZM1289.46 116.715C1288.07 117.149 1286.69 117.582 1285.26 118.06C1285.13 117.279 1285 116.541 1284.86 115.76C1284.69 114.936 1284.56 114.111 1284.43 113.244C1284.43 113.027 1284.34 112.766 1284.3 112.549C1286.08 113.894 1287.81 115.239 1289.5 116.628C1289.5 116.628 1289.5 116.628 1289.5 116.715H1289.46ZM1298.91 94.8471C1303.29 97.6673 1308.4 101.616 1313.69 106.996C1314.21 110.64 1314.82 114.328 1315.51 117.973C1308.49 113.504 1302.59 110.684 1299.34 109.252C1299.17 104.132 1299 99.3161 1298.91 94.8037V94.8471ZM1300.04 119.014C1300.04 119.014 1299.82 118.667 1299.69 118.494C1299.6 115.804 1299.52 113.2 1299.39 110.64C1306.62 117.279 1312.95 124.177 1318.46 131.12C1319.06 133.506 1319.71 135.936 1320.36 138.322C1314.04 131.033 1307.1 124.568 1299.99 118.971L1300.04 119.014ZM1369.39 175.766C1369.21 175.158 1369.04 174.508 1368.82 173.9C1368.74 173.596 1368.65 173.293 1368.56 172.989C1368.26 171.904 1367.96 170.863 1367.61 169.778C1366.53 166.134 1365.49 162.489 1364.49 158.931C1366.79 161.187 1368.95 163.487 1371.08 165.83C1371.12 169.258 1371.21 172.902 1371.21 176.764C1370.6 176.417 1369.95 176.113 1369.34 175.766H1369.39ZM1381.52 183.489C1380.87 183.012 1380.27 182.491 1379.62 182.014C1379.05 179.237 1378.49 176.503 1377.84 173.813C1377.84 173.813 1377.84 173.857 1377.88 173.9C1379.31 175.766 1380.66 177.718 1382 179.671C1381.83 180.929 1381.65 182.231 1381.48 183.532L1381.52 183.489ZM1387.12 139.884C1375.37 132.681 1367.57 132.421 1367.57 132.421C1367.57 132.421 1375.24 138.669 1385.73 150.948C1385.42 153.378 1385.12 155.851 1384.77 158.367C1382.65 156.241 1380.66 154.289 1378.75 152.727C1377.15 151.338 1375.76 150.123 1374.46 149.039C1370.43 145.394 1367.96 143.355 1367.96 143.355C1373.94 150.297 1379.27 157.109 1384.08 163.791C1383.86 165.439 1383.65 167.088 1383.43 168.694C1380.35 165.309 1377.15 162.099 1373.81 159.018C1372.81 155.851 1371.77 152.683 1370.64 149.69C1370.73 151.642 1370.77 153.942 1370.86 156.371C1367.87 153.725 1364.79 151.252 1361.59 148.909C1361.37 148.084 1361.11 147.303 1360.89 146.479C1356.99 132.768 1353.7 120.75 1351.7 112.766C1351.1 120.446 1351.1 128.473 1351.53 136.717C1351.27 136.326 1351.01 135.892 1350.75 135.502C1350.36 132.985 1350.06 130.946 1349.84 129.818C1347.63 117.539 1345.2 105 1344.16 92.4607C1361.54 99.0991 1376.76 106.952 1389.98 115.587C1389.2 122.572 1388.24 130.903 1387.12 139.927V139.884ZM1391.62 106.866C1392.45 108.471 1393.18 110.076 1393.96 111.682C1393.44 111.378 1392.92 111.074 1392.4 110.814C1392.14 109.512 1391.88 108.211 1391.58 106.909L1391.62 106.866ZM1400.38 142.053C1397.69 137.845 1396.22 135.285 1396.22 135.285C1397.17 138.669 1398.25 142.053 1399.43 145.438C1399.17 146.436 1398.91 147.433 1398.65 148.475C1397.86 147.781 1397.08 147.13 1396.3 146.522C1395.91 136.803 1395.09 127.215 1393.66 118.103C1395.35 119.275 1397 120.446 1398.6 121.574C1400.25 125.219 1401.85 128.863 1403.37 132.595C1402.29 135.675 1401.29 138.886 1400.38 142.097V142.053ZM1402.85 116.107C1405.1 117.062 1408.57 118.754 1412.82 121.574C1412.82 122.268 1412.86 122.963 1412.91 123.657C1409.78 121.444 1406.62 119.318 1403.46 117.322C1403.24 116.932 1403.07 116.498 1402.85 116.107ZM1411.39 158.411C1408.7 154.592 1406.32 151.078 1404.28 147.997C1404.28 143.355 1404.41 139.103 1404.45 135.285C1407.27 142.444 1409.83 149.733 1412.04 157.109C1411.82 157.543 1411.61 157.977 1411.35 158.411H1411.39ZM1409.7 130.165C1411.04 131.293 1412.34 132.421 1413.64 133.549C1413.95 136.413 1414.29 139.233 1414.68 142.053C1413.12 138.062 1411.48 134.07 1409.7 130.165ZM1420.4 129.21C1420.14 128.386 1419.93 127.562 1419.71 126.781C1421.05 127.909 1422.4 129.08 1423.74 130.382C1423.87 130.989 1424 131.597 1424.09 132.161C1422.83 131.163 1421.62 130.165 1420.36 129.21H1420.4ZM1425.78 145.177C1426.6 146.002 1427.43 146.869 1428.21 147.694C1430.33 154.419 1432.84 160.84 1435.62 166.915C1435.7 167.218 1435.79 167.479 1435.88 167.782C1431.85 159.973 1428.51 152.38 1425.78 145.134V145.177ZM1435.96 129.731C1437.18 128.169 1438.39 126.607 1439.69 125.045C1440.52 128.299 1441.38 131.77 1442.21 135.502C1440.21 133.419 1438.13 131.51 1435.96 129.731Z" fill="#FFD25B"/>
</g>
</g>
</svg>
