<svg width="89" height="89" viewBox="0 0 89 89" fill="none" xmlns="http://www.w3.org/2000/svg">
<path d="M86.3677 33.4868C86.3677 33.4868 86.1709 33.3556 86.0398 33.2901C85.4496 32.9622 84.8594 32.5687 84.3347 32.1097C83.7445 31.585 83.2199 30.9292 82.7609 30.2734C81.9083 29.093 81.3181 27.7815 80.9902 26.4043C80.5312 24.5681 80.5968 22.6663 80.8591 20.7645C77.6457 15.715 73.3175 11.2556 68.2024 7.84556C67.022 8.10787 65.776 8.37018 64.5956 8.50134C63.6119 8.6325 60.2674 6.66514 59.8739 5.81262C59.7428 5.5503 59.6116 5.28799 59.4149 5.09125C59.2181 4.82894 58.9558 4.6322 58.7591 4.43547C58.2344 3.97642 57.6442 3.64852 57.054 3.32063C55.7425 2.66484 54.3653 2.20579 52.9882 1.81232C52.0701 1.55001 51.152 1.28769 50.2339 1.09096C42.2333 -0.02388 34.2982 1.09096 27.1502 4.17315C26.8223 4.69778 26.4288 5.22241 25.9042 5.61588C24.8549 6.46841 23.4122 6.7963 22.1006 7.25535C21.4448 7.51766 20.8546 7.77998 20.2644 8.10787C19.543 8.56692 18.8873 9.15713 18.2315 9.74734C16.9199 10.9278 15.6739 12.1082 14.4279 13.3542C13.1163 14.6002 11.9359 15.9773 10.8211 17.3545C9.90299 18.4693 9.18162 19.7153 8.39468 20.9613C6.88637 23.4533 5.5748 26.0764 4.52554 28.7651C3.60744 31.2571 2.75492 34.0114 3.14839 36.7002C3.21397 37.3559 3.34512 37.8806 3.54186 38.5364C3.7386 39.1266 4.00091 39.6512 4.06649 40.307C4.13207 41.553 3.4107 42.2743 2.42702 42.8645C1.90239 43.1924 1.31219 43.4548 0.918714 43.9138C0.721978 44.1105 0.656399 44.3729 0.59082 44.5696C0.59082 45.0942 0.59082 45.6189 0.59082 46.2091C0.853135 47.3895 1.44334 48.4387 1.64008 49.6191C1.90239 51.0619 1.77124 52.6358 1.64008 54.1441C4.06649 64.4399 10.0997 73.6865 18.9528 79.9165C21.4448 80.1788 23.8712 80.769 26.2976 81.3592C26.4288 81.3592 26.6255 81.4248 26.7567 81.4904C26.8879 81.4904 27.019 81.5559 27.1502 81.5559C27.4125 81.5559 27.6748 81.3592 27.9371 81.2281C28.4617 80.9657 28.9208 80.8346 29.4454 80.9657C29.8389 81.0313 30.1668 81.4248 30.3635 81.6871C30.757 82.0806 31.0849 82.5396 31.4128 82.9987C31.6751 83.3921 31.9374 83.7856 32.2653 84.1135C32.462 84.3102 32.7244 84.507 32.9867 84.7037C33.3146 84.966 33.6425 85.1628 33.9703 85.3595C35.2163 86.212 36.5935 86.8678 37.9706 87.458C50.9552 89.2942 63.8742 85.1628 73.3175 76.6375C73.5143 75.9162 73.5143 75.1948 73.6454 74.4734C73.6454 74.08 73.7766 73.6865 73.9733 73.3586C74.1701 72.9651 74.4324 72.5717 74.6947 72.2438C75.2849 71.3913 75.8751 70.6699 76.5965 69.9485C78.1048 68.3746 79.7442 66.9975 81.3837 65.5548C81.9083 65.0957 82.433 64.6367 82.9576 64.1776C83.8757 62.4726 84.5971 60.6364 85.3184 58.7346C88.2695 50.3405 88.5318 41.6186 86.4333 33.5524L86.3677 33.4868Z" fill="#804118"/>
<path d="M37.7733 87.9172C36.265 87.327 34.8878 86.6057 33.6418 85.7531C33.3139 85.5564 32.9861 85.2941 32.6582 85.0318L32.527 84.9006C32.527 84.9006 32.068 84.5727 31.8712 84.376C31.5433 84.0481 31.3466 83.7202 31.0843 83.3923L30.822 83.0644C30.4941 82.6709 30.2318 82.2775 29.9039 81.884C29.9039 81.884 29.4448 81.3594 29.3137 81.3594C28.9858 81.2938 28.7234 81.3594 28.1988 81.5561C28.1988 81.5561 28.1332 81.5561 28.0677 81.6217C27.8053 81.7528 27.543 81.9496 27.1496 81.9496C26.9528 81.9496 26.8217 81.9496 26.6905 81.884C26.6905 81.884 26.6905 81.884 26.6249 81.884L26.1659 81.7528C23.8706 81.1626 21.3786 80.638 18.8867 80.3101C18.7555 80.3101 18.6899 80.3101 18.6243 80.1789C9.77122 73.949 3.54125 64.6368 1.04926 54.0786C1.04926 54.0786 1.04926 53.9475 1.04926 53.8819C1.18042 52.3736 1.31157 50.9309 1.04926 49.5537C0.918101 48.9635 0.721365 48.4389 0.524629 47.8487C0.327893 47.3241 0.131157 46.7338 0 46.1436C0 46.1436 0 46.0781 0 46.0125C0 45.4878 0 44.8976 0 44.373V44.2419C0.0655786 43.8484 0.262315 43.5861 0.459051 43.3238C0.852522 42.8647 1.31157 42.6024 1.77062 42.3401C1.90178 42.3401 1.96736 42.2089 2.09852 42.1433C3.14777 41.4875 3.54125 40.9629 3.47567 40.176C3.47567 39.7169 3.27893 39.2579 3.0822 38.7988V38.6021C2.7543 38.0119 2.62315 37.4217 2.55757 36.6347C2.1641 33.6837 3.14777 30.6671 4.0003 28.3718C4.9184 25.8798 6.22997 23.2567 7.93502 20.4368C8.5908 19.322 9.44333 18.0104 10.3614 16.7644C11.3451 15.4528 12.5255 14.2068 14.0338 12.6985C15.2798 11.4525 16.5914 10.2721 17.903 9.0917L18.0341 8.96055C18.6243 8.43592 19.2801 7.84571 20.0015 7.38666C20.5917 7.05877 21.2475 6.73087 21.9688 6.46856C22.2312 6.3374 22.5591 6.27182 22.8214 6.14066C23.805 5.81277 24.7887 5.48488 25.5757 4.89467C25.9691 4.56678 26.297 4.17331 26.6905 3.5831C26.7561 3.45194 26.8217 3.38636 26.9528 3.32078C34.232 0.369745 42.3638 -0.679513 50.2332 0.435323C50.2332 0.435323 50.2332 0.435323 50.2988 0.435323L51.0202 0.632059C51.676 0.828795 52.3973 0.959953 53.0531 1.15669C54.3647 1.55016 55.873 2.00921 57.2502 2.73058C57.9059 3.05847 58.5617 3.51752 59.0208 3.91099C59.2831 4.10773 59.5454 4.37004 59.8077 4.63236C60.0045 4.89467 60.1356 5.15698 60.3323 5.48488C60.6602 6.14066 63.7424 7.91129 64.4638 7.84571C65.7098 7.71455 66.9558 7.45224 68.0051 7.18992C68.1362 7.18992 68.3329 7.18992 68.4641 7.2555C73.6448 10.6656 77.973 15.1249 81.3175 20.3712C81.3831 20.5024 81.4487 20.6335 81.3831 20.7647C81.0552 22.9288 81.1208 24.6338 81.5142 26.1421C81.8421 27.3881 82.4324 28.6341 83.2193 29.8146C83.7439 30.5359 84.203 31.1261 84.7276 31.5196C85.1211 31.9131 85.6457 32.241 86.3015 32.6344C86.3671 32.6344 86.4982 32.7656 86.5638 32.7656C86.5638 32.7656 86.8261 33.0279 86.8261 33.1591C88.9902 41.6187 88.5967 50.4062 85.6457 58.6692C84.9899 60.5709 84.203 62.4071 83.2849 64.1778C83.2849 64.2433 83.2193 64.3089 83.1537 64.3745C82.6291 64.8335 82.1045 65.2926 81.5798 65.7516C81.3175 65.9484 81.0552 66.2107 80.7929 66.4074C79.4157 67.5878 78.0386 68.7683 76.7926 70.0798C76.0056 70.8668 75.4154 71.5881 74.9564 72.3095C74.6941 72.703 74.4973 73.0309 74.3006 73.3588C74.1694 73.6211 74.1039 73.8834 74.1039 74.2769C74.1039 74.5392 74.1039 74.7359 74.0383 74.9982C74.0383 75.5229 73.9727 76.0475 73.776 76.5721C73.776 76.7033 73.7104 76.7689 73.5792 76.8344C63.808 85.6876 50.6923 89.6223 37.7077 87.7861C37.7077 87.7861 37.6421 87.7861 37.5766 87.7861L37.7733 87.9172ZM29.7727 80.2445C30.2318 80.4413 30.6252 80.8347 30.8875 81.097C31.2154 81.5561 31.5433 81.9496 31.8712 82.4086V82.5398C31.8712 82.5398 32.068 82.6709 32.1335 82.7365C32.3303 83.0644 32.527 83.3267 32.7893 83.5235C32.9205 83.6546 33.1172 83.7858 33.3139 83.9169L33.4451 84.0481C33.4451 84.0481 34.0353 84.5071 34.3632 84.7039C35.478 85.4252 36.7896 86.1466 38.1668 86.7368C50.6923 88.5074 63.349 84.7039 72.8579 76.1786C72.9234 75.7852 72.989 75.3917 72.989 74.9982C72.989 74.7359 72.989 74.4736 73.0546 74.2113C73.0546 73.7522 73.1858 73.2932 73.4481 72.8997C73.6448 72.5062 73.9071 72.1128 74.1694 71.7193C74.6941 70.9324 75.3499 70.211 76.1368 69.3585C77.4484 68.0469 78.8255 66.8009 80.2027 65.6205C80.465 65.4238 80.7273 65.1614 80.9896 64.9647C81.4487 64.5712 81.9733 64.1122 82.4324 63.6531C83.2849 61.9481 84.0718 60.1775 84.662 58.4068C87.4819 50.4718 87.8754 41.9466 85.8424 33.8148H85.7769C85.0555 33.2902 84.4653 32.8967 84.0062 32.5033C83.416 31.9786 82.8914 31.3884 82.3012 30.5359C81.3831 29.2243 80.7273 27.8472 80.3994 26.47C80.0059 24.8306 79.9404 23.06 80.2683 20.8303C77.0549 15.8463 72.989 11.7148 68.0706 8.43592C67.0214 8.69823 65.841 8.96055 64.595 9.0917C63.2834 9.22286 59.7421 7.05877 59.2831 6.07509C59.1519 5.81277 59.0208 5.61604 58.8896 5.4193C58.7585 5.22256 58.5617 5.09141 58.2994 4.89467C57.8404 4.5012 57.3157 4.17331 56.7255 3.84541C55.4139 3.18963 54.0368 2.73058 52.7908 2.3371C52.135 2.14037 51.4137 1.94363 50.7579 1.81247L50.0365 1.61574C42.4294 0.566481 34.6255 1.61574 27.4774 4.56678C27.084 5.15699 26.6905 5.61604 26.2315 6.00951C25.3134 6.73087 24.1985 7.12434 23.1493 7.45224C22.8869 7.51782 22.5591 7.64897 22.2967 7.71455C21.641 7.97687 21.0507 8.23918 20.5261 8.56707C19.8703 8.96055 19.3457 9.48518 18.7555 10.0098L18.6243 10.141C17.3128 11.3214 16.0668 12.5018 14.8208 13.7478C13.378 15.1905 12.1976 16.5021 11.2139 17.7481C10.2958 18.9285 9.5089 20.2401 8.85312 21.2893C7.21365 24.0436 5.96766 26.6012 5.04956 29.0276C4.26261 31.1917 3.34451 34.0116 3.6724 36.7003C3.73798 37.3561 3.86914 37.8807 4.06588 38.3398V38.5365C4.32819 39.0611 4.5905 39.6513 4.5905 40.2416C4.72166 41.881 3.54125 42.7991 2.62315 43.3893C2.49199 43.4549 2.36083 43.5205 2.29525 43.5861C1.90178 43.7828 1.57389 44.0451 1.31157 44.3074C1.24599 44.373 1.18042 44.5042 1.11484 44.6353C1.11484 45.0944 1.11484 45.619 1.11484 46.0781C1.24599 46.6027 1.44273 47.0617 1.57389 47.5864C1.77062 48.1766 2.03294 48.8324 2.1641 49.4881C2.49199 50.9965 2.29525 52.6359 2.1641 54.0786C4.59051 64.3089 10.5582 73.2276 19.0834 79.2608C21.5754 79.5887 24.0674 80.1134 26.3626 80.7036L26.8217 80.8347C26.8217 80.8347 26.8872 80.8347 26.9528 80.8347C26.9528 80.8347 26.9528 80.8347 27.0184 80.8347C27.084 80.8347 27.2151 80.7036 27.2807 80.7036C27.3463 80.7036 27.4119 80.638 27.4774 80.5724C28.0021 80.3101 28.6579 80.0478 29.4448 80.2445C29.4448 80.2445 29.5104 80.2445 29.576 80.2445H29.7727Z" fill="#42210B"/>
<g style="mix-blend-mode:multiply" opacity="0.52">
<path d="M29.0488 11.9759C29.7045 12.5005 30.4259 13.0251 31.1473 13.5498C31.1473 13.4842 31.0161 13.4186 31.0161 13.353C29.3766 11.1234 27.9339 8.69695 26.6879 6.20497C26.5568 5.87707 26.36 5.54918 26.2289 5.28687C26.1633 5.35244 26.0321 5.4836 25.9666 5.54918C25.1796 6.13939 24.2615 6.53286 23.2778 6.86075C24.2615 7.77885 25.1796 8.63138 26.1633 9.4839C27.147 10.3364 28.1307 11.2545 29.1799 12.0415L29.0488 11.9759Z" fill="#6C6C65"/>
</g>
<g style="mix-blend-mode:multiply" opacity="0.52">
<path d="M58.2327 6.66492C57.9704 8.23881 57.7081 9.8127 57.5114 11.4522C57.4458 12.1735 57.3146 12.8949 57.249 13.6818C57.249 14.2065 57.1179 14.7311 57.0523 15.3213C56.8556 16.5017 56.6588 17.6821 56.5933 18.9281C56.5933 19.9118 56.5933 21.0266 56.9211 22.0103C58.1671 21.3545 59.2164 20.3053 60.0689 19.1904C60.9215 18.0756 61.7084 16.8296 62.3642 15.5836C63.02 14.4032 63.6758 13.1572 64.3315 11.9768C64.9873 10.7964 65.5775 9.61596 66.2333 8.36997C65.6431 8.50112 65.1185 8.5667 64.5283 8.63228C63.5446 8.76344 60.2001 6.79608 59.8066 5.94356C59.6755 5.68124 59.5443 5.41893 59.3476 5.22219C59.1508 4.95988 58.9541 4.76314 58.6918 4.56641C58.495 5.28777 58.3639 6.07471 58.2327 6.79608V6.66492Z" fill="#6C6C65"/>
</g>
<g style="mix-blend-mode:multiply" opacity="0.52">
<path d="M11.5389 28.7649C13.244 29.3551 14.949 29.8797 16.6541 30.3388C15.9327 29.683 15.1458 28.9616 14.3588 28.3058C12.7849 26.9287 11.1455 25.5515 9.50601 24.24C8.78464 23.6497 8.06328 23.0595 7.34191 22.5349C6.68613 23.6497 6.09592 24.7646 5.57129 25.945C6.42381 26.5352 7.27633 27.0598 8.19443 27.4533C9.24369 27.9779 10.3585 28.3714 11.4734 28.7649H11.5389Z" fill="#6C6C65"/>
</g>
<g style="mix-blend-mode:multiply" opacity="0.52">
<path d="M68.0036 20.8302C68.5938 20.24 69.184 19.7153 69.7742 19.1251C71.1513 17.8135 72.5285 16.4364 73.7745 15.0592C74.2335 14.5346 74.6926 14.0756 75.1516 13.5509C74.627 13.0263 74.1024 12.5017 73.5122 11.9771C73.381 12.2394 73.1843 12.5017 73.0531 12.764C72.5941 13.5509 72.0694 14.3379 71.5448 15.1248C70.2988 16.961 68.9872 18.7972 67.938 20.7646L68.0036 20.8302Z" fill="#6C6C65"/>
</g>
<g style="mix-blend-mode:multiply" opacity="0.52">
<path d="M86.3663 33.4873C86.3663 33.4873 86.1695 33.3561 86.0384 33.2905C85.4482 32.9627 84.858 32.5692 84.3333 32.1101C83.7431 31.5855 83.2185 30.9297 82.7594 30.2739C81.9069 29.0935 81.3167 27.7819 80.9888 26.4048C80.5298 24.5686 80.5953 22.6668 80.8577 20.765C80.6609 20.4371 80.4642 20.1748 80.2674 19.8469C79.087 20.765 77.9722 21.6831 76.8574 22.7324C76.136 23.4537 75.3491 24.1095 74.5621 24.7653C73.7752 25.3555 72.9226 25.8802 72.0701 26.3392C70.6274 27.1917 68.9223 27.454 67.414 28.1754C65.5778 29.0935 64.5286 30.733 63.6105 32.5036C63.1514 33.3561 62.758 34.2742 62.2333 35.1267C61.7087 35.9793 61.0529 36.7006 60.266 37.3564C57.5772 39.6517 54.2327 40.9632 50.8882 41.9469C47.4126 42.9962 43.9369 43.652 40.3956 44.5045C35.9363 45.5537 31.4769 46.4063 26.952 47.1276C23.8698 47.6523 20.7221 48.1113 17.6399 48.7671C15.4102 49.2262 13.1805 49.7508 11.0164 50.2754C8.59001 50.8656 6.1636 51.5214 3.80277 52.4395C3.0814 52.7018 2.29446 53.0297 1.63867 53.4232C1.63867 53.6199 1.63867 53.8167 1.63867 54.0134C4.06508 64.3092 10.0983 73.5558 18.9514 79.7858C21.4434 80.0481 23.8698 80.6383 26.2962 81.2285C26.4274 81.2285 26.6241 81.2941 26.7553 81.3597C26.8864 81.3597 27.0176 81.4253 27.1488 81.4253C27.4111 81.4253 27.6734 81.2285 27.9357 81.0974C28.4603 80.8351 28.9194 80.7039 29.444 80.8351C29.8375 80.9006 30.1654 81.2941 30.3621 81.5564C30.7556 81.9499 31.0835 82.4089 31.4114 82.868C31.6737 83.2615 31.936 83.6549 32.2639 83.9828C32.4606 84.1796 32.7229 84.3763 32.9853 84.573C33.3132 84.8354 33.641 85.0321 33.9689 85.2288C35.2149 86.0814 36.5921 86.7371 37.9692 87.3273C50.9538 89.1635 63.8728 85.0321 73.3161 76.5069C73.5128 75.7855 73.5128 75.0641 73.644 74.3428C73.644 73.9493 73.7752 73.5558 73.9719 73.2279C74.1686 72.8345 74.4309 72.441 74.6933 72.1131C75.2835 71.2606 75.8737 70.5392 76.595 69.8178C78.1034 68.244 79.7428 66.8668 81.3823 65.4241C81.9069 64.965 82.4315 64.506 82.9562 64.0469C83.8743 62.3419 84.5956 60.5057 85.317 58.6039C88.268 50.2098 88.5304 41.4879 86.4318 33.4217L86.3663 33.4873Z" fill="#6C6C65"/>
</g>
<g style="mix-blend-mode:multiply" opacity="0.52">
<path d="M19.4738 66.7343C19.0803 67.3245 18.6212 67.8491 18.1622 68.3737C16.7195 70.1444 15.2767 71.8494 13.9652 73.6856C13.7029 74.0791 13.4405 74.407 13.1782 74.8005C13.834 75.4562 14.4898 76.112 15.2112 76.7022C15.9325 75.1283 16.5883 73.5545 17.2441 71.915C17.9655 70.1444 18.6868 68.3737 19.4738 66.6687V66.7343Z" fill="#6C6C65"/>
</g>
<g style="mix-blend-mode:multiply" opacity="0.52">
<path d="M56.9195 85.3599C56.3948 83.1958 56.0014 80.9662 55.3456 78.8021C54.821 76.9003 54.0996 74.9329 52.9192 73.2935C52.6569 74.2771 52.4601 75.2608 52.2634 76.2445C51.9355 78.343 51.7388 80.5071 51.7388 82.6712C51.7388 83.9828 51.7388 85.3599 52.0011 86.6715C53.6405 86.3436 55.3456 85.8846 56.9195 85.3599Z" fill="#6C6C65"/>
</g>
<g style="mix-blend-mode:multiply" opacity="0.52">
<path d="M69.1183 27.1911C69.5774 28.8306 70.1676 30.5356 70.9545 32.0439C71.0857 32.3062 71.2824 32.5686 71.4791 32.8309C71.7415 33.1588 72.0038 33.4211 72.3317 33.6834C72.6596 33.9457 73.053 34.1424 73.5121 34.2736C73.7744 34.2736 73.9711 34.4048 74.2334 34.4048C74.5613 34.4048 74.8237 34.4703 75.1515 34.5359C77.578 34.7326 80.0044 34.4048 82.3652 34.0113C83.48 33.8145 84.6605 33.5522 85.7753 33.2899C85.7753 33.2899 85.7753 33.2899 85.7753 33.2243C85.6441 33.2243 85.5786 33.0932 85.4474 33.0276C84.8572 32.6997 84.267 32.3062 83.7423 31.8472C83.1521 31.3226 82.6275 30.6668 82.1685 30.011C81.3159 28.8306 80.7257 27.519 80.3978 26.1418C79.9388 24.3056 80.0044 22.4039 80.2667 20.5021C80.0699 20.1742 79.8732 19.9119 79.6765 19.584C78.4961 20.5021 77.3812 21.4202 76.2664 22.4694C75.545 23.1908 74.7581 23.8466 73.9711 24.5024C73.1842 25.0926 72.3317 25.6172 71.4791 26.0763C70.6922 26.5353 69.9053 26.7976 69.0527 27.0599C69.0527 27.0599 69.0527 27.1255 69.0527 27.1911H69.1183Z" fill="#6C6C65"/>
</g>
<g style="mix-blend-mode:multiply" opacity="0.52">
<path d="M74.3621 60.7673C71.9357 60.046 69.4437 59.3902 67.0828 58.4065C67.0828 58.5377 67.0828 58.6688 67.0173 58.8C66.8205 59.5869 66.4271 60.3739 66.0336 61.0952C65.5745 61.9477 65.1155 62.7347 64.5909 63.5872C64.1318 64.3742 63.7383 65.1611 63.4104 66.0136C63.1481 66.6694 63.017 67.4563 63.1481 68.1777C63.2793 68.8991 63.8039 69.4893 64.3941 69.9483C65.1155 70.5385 65.9024 70.9976 66.6894 71.3911C67.5419 71.8501 68.46 72.2436 69.3781 72.6371C70.0995 72.965 70.8864 73.2928 71.6078 73.7519C72.0668 74.0142 72.4603 74.3421 72.8538 74.67C72.8538 74.4733 72.8538 74.2109 72.9193 74.0142C72.9193 73.6207 73.0505 73.2273 73.2472 72.8994C73.444 72.5059 73.7063 72.1124 73.9686 71.7845C74.5588 70.932 75.2146 70.2107 75.8704 69.4893C77.3787 67.9154 79.0182 66.5382 80.6576 65.0955C81.1823 64.6365 81.7069 64.1774 82.2315 63.7184C82.2315 63.6528 82.2971 63.5872 82.3627 63.4561C82.2315 63.3905 82.0348 63.3249 81.9036 63.1937C79.4772 62.0789 76.9196 61.3575 74.4277 60.6362L74.3621 60.7673Z" fill="#6C6C65"/>
</g>
<g style="mix-blend-mode:multiply" opacity="0.52">
<path d="M32.0009 78.9331C32.2632 76.0477 32.5255 73.0966 32.5911 70.2112C32.1321 70.9981 31.673 71.8506 31.2795 72.7032C30.3614 74.6705 29.6401 76.769 29.0499 78.8676C28.8531 79.5233 28.722 80.1791 28.5908 80.8349C28.8531 80.7693 29.181 80.7038 29.5089 80.8349C29.9024 80.9005 30.2303 81.294 30.427 81.5563C30.8205 81.9498 31.1484 82.4088 31.4763 82.8679C31.5419 82.9334 31.6074 83.0646 31.673 83.1302C31.7386 81.6874 31.8698 80.2447 32.0009 78.8676V78.9331Z" fill="#6C6C65"/>
</g>
<g style="mix-blend-mode:multiply">
<path d="M80.5286 34.7329C80.5286 34.7329 80.3319 34.6017 80.2663 34.6017C79.7417 34.2738 79.2826 33.9459 78.8236 33.5525C78.299 33.0934 77.8399 32.5688 77.4464 31.9786C76.7251 30.9949 76.2004 29.8801 75.8726 28.6341C75.4791 27.0602 75.5447 25.4207 75.7414 23.7813C72.9871 19.4531 69.3147 15.6495 64.8553 12.6985C63.8061 12.9608 62.7568 13.1575 61.7076 13.2887C60.855 13.3542 58.0352 11.7148 57.6417 10.9934C57.5105 10.7967 57.3794 10.5344 57.2482 10.3376C57.0515 10.1409 56.8547 9.94416 56.658 9.813C56.199 9.41953 55.7399 9.09164 55.2153 8.82932C54.1004 8.23912 52.92 7.84564 51.7396 7.51775C50.9527 7.32101 50.1657 7.0587 49.3788 6.86196C42.5586 5.87828 35.7384 6.86196 29.574 9.48511C29.3117 9.94416 28.9838 10.3376 28.5248 10.7311C27.6067 11.4525 26.3607 11.7804 25.3114 12.1738C24.7868 12.3706 24.1966 12.6329 23.7375 12.9608C23.0818 13.3542 22.5571 13.8789 22.0325 14.3379C20.9177 15.3216 19.8028 16.3709 18.7536 17.4201C17.6387 18.535 16.5895 19.6498 15.6714 20.8958C14.8844 21.8795 14.2286 22.9287 13.6384 23.978C12.3924 26.1421 11.212 28.3718 10.3595 30.667C9.57255 32.7655 8.85119 35.1919 9.17908 37.4872C9.24466 38.0118 9.37582 38.5364 9.57255 39.0611C9.76929 39.5201 9.96603 40.0448 10.0316 40.5694C10.0972 41.6186 9.4414 42.2744 8.58888 42.7335C8.12982 42.9958 7.67077 43.2581 7.34288 43.586C7.21172 43.7827 7.08057 43.9795 7.08057 44.1762C7.08057 44.6353 7.08057 45.0943 7.08057 45.5534C7.2773 46.537 7.80193 47.4551 7.99867 48.5044C8.26098 49.7504 8.12982 51.1275 7.99867 52.3735C10.0316 61.1611 15.2779 69.0961 22.8194 74.408C24.918 74.6703 27.082 75.1293 29.115 75.654C29.2461 75.654 29.3773 75.7195 29.5085 75.7851C29.574 75.7851 29.7052 75.8507 29.8364 75.8507C30.0331 75.8507 30.2954 75.654 30.4921 75.5884C30.9512 75.3916 31.2791 75.2605 31.8037 75.3261C32.1316 75.3916 32.3939 75.7195 32.5907 75.9819C32.9185 76.3753 33.1809 76.7032 33.4432 77.0967C33.7055 77.4246 33.9022 77.7525 34.1645 78.0148C34.3613 78.2115 34.558 78.3427 34.7547 78.4738C35.0171 78.6706 35.2794 78.8673 35.5417 79.0641C36.591 79.7854 37.7714 80.3756 38.9518 80.8347C50.1002 82.4086 61.1829 78.8673 69.2491 71.5881C69.4458 70.9979 69.4458 70.3421 69.5114 69.6863C69.5114 69.3584 69.577 69.0305 69.7737 68.7682C69.9705 68.4403 70.1672 68.1124 70.3639 67.7845C70.823 67.0632 71.4132 66.4074 72.0034 65.8172C73.315 64.5056 74.7577 63.2596 76.1349 62.0792C76.5939 61.6857 77.053 61.2922 77.4464 60.8988C78.2334 59.3905 78.8892 57.8821 79.4138 56.2427C81.9714 49.029 82.1681 41.5531 80.3975 34.6673L80.5286 34.7329Z" fill="#C98F5D"/>
</g>
<g style="mix-blend-mode:screen">
<path d="M51.0172 7.51716C51.673 7.84505 52.2632 8.17294 52.919 8.50083C53.5747 8.82873 54.2305 9.02546 54.8863 9.35336C55.4765 9.68125 56.0667 10.0091 56.4602 10.5994C56.7881 10.9928 56.9193 11.5175 57.2471 11.9109C57.6406 12.3044 58.0997 12.6323 58.6243 12.8946C59.1489 13.2225 59.7391 13.4192 60.3293 13.616C60.854 13.8127 61.4442 13.9439 62.0344 14.0094C62.6246 14.0094 63.1492 14.0094 63.6739 13.8783C64.1985 13.8127 64.6575 13.7471 65.1822 13.7471C65.7068 13.7471 66.2314 13.8783 66.7561 14.0094C66.7561 14.0094 66.7561 14.0094 66.8216 14.0094C66.2314 13.5504 65.6412 13.1569 64.9854 12.7634C63.9362 13.0258 62.8869 13.2225 61.8377 13.3537C60.9851 13.4192 58.1652 11.7798 57.7718 11.0584C57.6406 10.8617 57.5095 10.5994 57.3783 10.4026C57.1816 10.2059 56.9848 10.0091 56.7881 9.87799C56.3291 9.48451 55.87 9.15662 55.3454 8.89431C54.2305 8.3041 53.0501 7.91063 51.8697 7.58273C51.2139 7.386 50.5581 7.25484 49.9023 7.05811C50.2958 7.18926 50.6237 7.386 51.0172 7.58273V7.51716Z" fill="#828078"/>
</g>
<g style="mix-blend-mode:screen">
<path d="M8.45772 50.4062C8.45772 49.6192 8.26098 48.8978 8.12982 48.1765C7.99867 47.4551 7.80193 46.7338 7.73635 45.9468C7.67077 45.291 7.73635 44.6352 8.06425 44.045C8.26098 43.586 8.58887 43.1925 8.98235 42.9302C10.6218 41.8809 12.7203 42.7335 14.4254 41.9465C14.0975 41.6842 13.704 41.553 13.3761 41.4875C12.5892 41.2251 11.6055 41.1596 10.9497 40.5694C10.4251 40.1103 10.3595 39.3234 10.2939 38.6676C10.2283 37.8806 10.2939 37.0281 10.2939 36.2412C10.2939 35.2575 10.4251 34.3394 10.8185 33.4213C11.0153 32.9622 11.2776 32.5032 11.5399 32.0441C11.8678 31.4539 12.0645 30.9293 12.2613 30.3391C12.6548 29.2243 12.9171 28.1094 13.3105 27.0602C13.704 26.0109 14.3598 25.224 15.0156 24.3059C15.6058 23.5189 16.196 22.732 16.7862 21.945C19.0159 18.8628 21.3767 15.6495 24.8524 13.8133C25.7705 13.3542 26.7542 13.0263 27.6723 12.6984C28.0002 12.5673 28.3936 12.4361 28.6559 12.1738C28.8527 11.9771 28.9838 11.7148 29.115 11.4524C29.7708 10.2065 30.82 9.28835 32.0004 8.63257C31.2135 8.89488 30.361 9.22278 29.574 9.55067C29.3117 10.0097 28.9838 10.4032 28.5248 10.7967C27.6067 11.518 26.3607 11.8459 25.3114 12.2394C24.7868 12.4361 24.1966 12.6984 23.7375 13.0263C23.0818 13.4198 22.5571 13.9444 22.0325 14.4035C20.9177 15.3872 19.8028 16.4364 18.7536 17.4857C17.6387 18.6005 16.5895 19.7154 15.6714 20.9614C14.8844 21.945 14.2286 22.9943 13.6384 24.0435C12.3924 26.2076 11.212 28.4373 10.3595 30.7326C9.57255 32.8311 8.85119 35.2575 9.17908 37.5527C9.24466 38.0774 9.37582 38.602 9.57255 39.1266C9.76929 39.5857 9.96603 40.1103 10.0316 40.6349C10.0972 41.6842 9.4414 42.34 8.58888 42.799C8.12982 43.0614 7.67077 43.3237 7.34288 43.6516C7.21172 43.8483 7.08057 44.045 7.08057 44.2418C7.08057 44.7008 7.08057 45.1599 7.08057 45.6189C7.2773 46.6026 7.80193 47.5207 7.99867 48.57C8.26098 49.8159 8.12982 51.1931 7.99867 52.4391C8.12982 52.9637 8.26098 53.4228 8.39214 53.9474C8.58887 52.8326 8.58887 51.6521 8.5233 50.5373L8.45772 50.4062Z" fill="#828078"/>
</g>
<g style="mix-blend-mode:screen">
<path d="M80.5299 34.7321C80.5299 34.7321 80.3332 34.6009 80.2676 34.6009C79.743 34.273 79.2839 33.9451 78.8249 33.5516C78.3002 33.0926 77.8412 32.568 77.4477 31.9778C76.7263 30.9941 76.2017 29.8792 75.8738 28.6332C75.8083 28.3053 75.7427 27.9119 75.6771 27.584C75.6771 28.3053 75.6771 29.0267 75.8082 29.6825C75.9394 30.4039 76.1361 31.1908 76.464 31.8466C76.8575 32.568 77.4477 33.1582 77.9723 33.7484C79.0872 34.9944 79.9397 36.4371 79.9397 38.0766C79.9397 38.9291 79.8741 39.7816 79.9397 40.6341C80.0053 41.6834 80.202 42.6671 80.3332 43.7163C80.4643 44.7 80.5299 45.6837 80.5299 46.7329C80.5299 47.8478 80.2676 49.0282 80.0709 50.143C79.6774 52.2416 79.2183 54.3401 78.6281 56.4386C78.4314 57.16 78.2347 57.9469 77.9723 58.7338C77.7756 59.3896 77.5133 60.111 77.0542 60.57C76.5296 61.0947 75.8738 61.0947 75.218 61.0291C74.8246 61.0291 74.4311 60.9635 74.1032 61.0291C73.6442 61.1603 73.2507 61.4226 72.9884 61.816C72.7261 62.2095 72.5293 62.603 72.3326 63.062C72.1358 63.4555 71.8735 63.849 71.6112 64.1769C71.021 64.9638 70.2996 65.6196 69.7094 66.4065C69.3815 66.8656 69.1192 67.3246 69.0536 67.9148C68.9881 68.3739 69.0536 68.7674 69.0536 69.2264C69.1192 70.0134 69.1848 70.8659 68.6602 71.5217C68.6602 71.5217 68.529 71.5873 68.4634 71.5217C66.1682 70.0789 65.8403 67.0623 64.0697 65.2261C64.0697 65.3573 64.1353 65.4884 64.2008 65.6196C64.9878 67.587 67.6109 69.6855 66.3649 71.9807C65.9715 72.7021 65.3157 73.1611 64.6599 73.489C63.8074 73.9481 62.8237 74.2104 62.0367 74.735C60.3317 75.8499 58.889 77.4238 56.9216 78.1451C55.0854 78.8009 53.118 78.8665 51.2163 79.1288C49.1177 79.3911 47.0848 79.9157 44.9863 80.0469C43.937 80.1125 42.8878 80.0469 41.8385 79.9157C40.8548 79.7846 39.8056 79.8502 38.8219 79.6534C37.8382 79.5223 37.0513 78.9976 36.3299 78.3419C35.6085 77.6861 34.8872 76.9647 34.1002 76.3745C33.5756 76.0466 33.051 75.7187 32.6575 75.1941C32.1985 74.5383 32.1985 73.6858 32.264 72.8988C32.3952 71.0626 33.2477 69.292 33.1821 67.3902C32.3296 68.7018 32.1329 70.2101 31.6738 71.6528C31.3459 72.7677 30.6901 73.7514 29.5097 74.0792C28.6572 74.276 27.7391 74.1448 26.8866 74.0792C25.7062 73.8825 24.5913 73.6202 23.4109 73.2923C22.3617 72.9644 21.2468 72.7021 20.1976 72.243C20.1976 72.243 20.0664 72.243 20.0664 72.1775C20.9845 72.9644 21.9026 73.6858 22.8863 74.3416C24.9848 74.6039 27.1489 75.0629 29.1818 75.5875C29.313 75.5875 29.4442 75.6531 29.5753 75.7187C29.6409 75.7187 29.772 75.7843 29.9032 75.7843C30.0999 75.7843 30.3623 75.5876 30.559 75.522C31.018 75.3252 31.3459 75.1941 31.8706 75.2597C32.1985 75.3252 32.4608 75.6531 32.6575 75.9154C32.9854 76.3089 33.2477 76.6368 33.51 77.0303C33.7723 77.3582 33.9691 77.6861 34.2314 77.9484C34.4281 78.1451 34.6249 78.2763 34.8216 78.4074C35.0839 78.6042 35.3462 78.8009 35.6085 78.9976C36.6578 79.719 37.8382 80.3092 39.0186 80.7683C50.167 82.3421 61.2498 78.8009 69.316 71.5217C69.5127 70.9315 69.5127 70.2757 69.5783 69.6199C69.5783 69.292 69.6439 68.9641 69.8406 68.7018C70.0373 68.3739 70.2341 68.046 70.4308 67.7181C70.8899 66.9967 71.4801 66.341 72.0703 65.7508C73.3818 64.4392 74.8246 63.1932 76.2017 62.0128C76.6608 61.6193 77.1198 61.2258 77.5133 60.8324C78.3002 59.324 78.956 57.8157 79.4807 56.1763C82.0382 48.9626 82.235 41.4867 80.4643 34.6009L80.5299 34.7321Z" fill="#828078"/>
</g>
<g style="mix-blend-mode:multiply" opacity="0.39">
<path d="M24.1331 69.2915C24.1331 69.2915 23.8708 68.8981 23.674 68.7669C23.1494 68.439 22.4936 68.3734 22.0346 68.7669C21.9034 68.8981 21.7723 69.0948 21.7067 69.2915C21.6411 69.3571 21.5755 69.4883 21.5755 69.6194C21.51 69.8818 21.5755 70.1441 21.7067 70.4064C22.3625 71.2589 23.7396 70.7343 24.1331 69.8818C24.1987 69.685 24.2643 69.4883 24.1331 69.2915Z" fill="#6C6C65"/>
<path d="M60.3336 73.0298C60.3336 73.0298 60.268 72.5052 60.0713 72.2429C60.0713 72.1773 59.9401 72.1117 59.8745 71.9805C59.809 71.915 59.6778 71.7838 59.5466 71.7182C59.4155 71.6526 59.2188 71.5215 59.022 71.5215C58.6941 71.5215 58.3662 71.5215 58.1039 71.7838C58.1039 71.7838 57.9728 71.915 57.9728 71.9805C57.9728 72.0461 57.8416 72.1117 57.8416 72.2429C57.8416 72.3084 57.8416 72.374 57.8416 72.4396C57.8416 72.4396 57.8416 72.5707 57.776 72.6363C57.776 72.7675 57.7104 72.8986 57.7104 73.0954C57.7104 73.2921 57.7104 73.4233 57.8416 73.62C57.9728 73.8167 58.1695 73.8823 58.3007 74.0135C58.563 74.0791 58.8253 74.1446 59.0876 74.1446C59.3499 74.1446 59.5466 74.0791 59.7434 73.9479C60.0713 73.8167 60.3992 73.4233 60.3992 73.0954L60.3336 73.0298Z" fill="#6C6C65"/>
<path d="M62.6277 66.2761C62.6933 65.7515 62.431 65.1613 61.9719 64.899C61.3817 64.5711 60.726 64.5055 60.1357 64.7678C59.8734 64.899 59.6111 65.1613 59.48 65.4236C59.48 65.5548 59.4144 65.6859 59.4144 65.8171C59.2176 66.2761 59.2832 66.8008 59.6111 67.1286C60.0702 67.5877 60.7259 67.7844 61.3817 67.6533C62.1031 67.5221 62.6277 66.9319 62.6933 66.2105L62.6277 66.2761Z" fill="#6C6C65"/>
<path d="M48.2657 64.9638V64.8982C48.2657 64.8982 48.2657 64.8327 48.2001 64.7671C48.2001 64.7671 48.1346 64.7671 48.069 64.7671C48.069 64.7671 47.9378 64.7671 47.8722 64.7671H47.7411C47.6099 64.7671 47.4132 64.8327 47.282 64.9638C47.282 64.9638 47.1509 65.0294 47.1509 65.095C47.1509 65.095 47.1509 65.2261 47.1509 65.2917C47.1509 65.2917 47.1509 65.3573 47.1509 65.4229C47.1509 65.4229 47.1509 65.554 47.2165 65.554C47.2165 65.554 47.2165 65.554 47.282 65.6196C47.282 65.6196 47.4132 65.6196 47.4788 65.6196C47.4788 65.6196 47.5444 65.6196 47.6099 65.6196C47.6099 65.6196 47.6755 65.6196 47.7411 65.6196C47.7411 65.6196 47.8722 65.6196 47.9378 65.6196C47.9378 65.6196 48.0034 65.6196 48.069 65.6196C48.069 65.6196 48.069 65.6196 48.1346 65.6196C48.1346 65.6196 48.1346 65.6196 48.2001 65.554C48.2001 65.554 48.2001 65.554 48.2001 65.4885V65.3573L48.2657 64.9638Z" fill="#6C6C65"/>
<path d="M44.265 69.7502C44.4618 70.1437 44.265 69.6846 44.265 69.619H44.1995V69.5535C44.1339 69.5535 44.0683 69.5535 43.9371 69.5535C43.9371 69.5535 43.9371 69.5535 43.8716 69.5535C43.8716 69.5535 43.7404 69.5535 43.6748 69.5535C43.6748 69.5535 43.5437 69.5535 43.4781 69.619C43.4781 69.619 43.4781 69.619 43.4125 69.619C43.4125 69.619 43.3469 69.619 43.2814 69.619C43.2814 69.619 43.2158 69.619 43.1502 69.6846C43.1502 69.6846 43.0846 69.7502 43.019 69.8158C43.019 69.8158 43.019 69.8814 43.019 69.9469C43.019 70.0125 43.019 70.0781 43.019 70.1437C43.019 70.1437 43.1502 70.2748 43.2158 70.2748C43.2814 70.2748 43.4125 70.2748 43.4781 70.2748H43.6092C43.6092 70.2748 43.7404 70.2748 43.806 70.2748C43.9371 70.2748 43.9371 70.2748 44.0683 70.2748C44.0683 70.2748 44.0683 70.2748 44.1339 70.2748C44.1339 70.2748 44.265 70.2748 44.265 70.1437L44.3306 70.0125C44.3306 70.0125 44.3306 69.9469 44.3306 69.8814L44.265 69.7502Z" fill="#6C6C65"/>
</g>
<g style="mix-blend-mode:multiply" opacity="0.34">
<path d="M46.427 13.7472C45.5744 12.9602 44.5252 12.5012 43.4103 12.2388C42.2299 11.9765 40.9839 11.8454 39.9347 11.124C39.3445 10.665 38.951 10.1403 38.5575 9.55012C38.2952 9.15665 38.0985 8.82876 37.705 8.56644C37.3115 8.30413 36.7869 8.23855 36.3279 8.17297C35.8688 8.17297 35.4097 8.10739 34.8851 8.04181C34.2949 8.04181 33.7703 7.97623 33.1801 8.04181C33.1145 8.04181 33.0489 8.04181 32.9833 8.04181C31.9997 7.45161 31.2127 6.66466 30.4258 5.87772C30.0323 5.41867 29.6388 5.0252 29.1798 4.56615C28.7863 4.10709 28.3928 3.58247 27.9338 3.25457C27.8026 3.18899 27.4747 3.25457 27.5403 3.45131C27.8026 3.97594 28.1961 4.43499 28.5896 4.89404C28.983 5.35309 29.3765 5.87772 29.8356 6.33677C30.6225 7.18929 31.475 7.91066 32.3276 8.63202C32.1964 9.02549 32.0652 9.35339 31.8029 9.74686C31.6062 10.0748 31.4095 10.4026 31.1471 10.665C30.6225 11.3863 30.0323 11.9765 29.7044 12.8291C28.983 14.6653 29.3109 16.6982 28.983 18.6C28.983 18.7311 29.2454 18.7311 29.3109 18.6C29.8356 16.6982 29.7044 14.6653 30.4914 12.8291C30.8848 12.0421 31.475 11.3207 32.1308 10.7305C32.721 10.1403 33.3112 9.35339 33.4424 8.50086H33.5735C34.0326 8.50086 34.4916 8.56644 34.8851 8.63202C35.3442 8.63202 35.8032 8.6976 36.1967 8.76318C36.5902 8.76318 36.9836 8.76318 37.3115 8.95991C37.705 9.22223 38.0329 9.68128 38.2952 10.0092C38.6887 10.4682 39.0822 10.9273 39.6068 11.3207C40.5249 11.911 41.5741 12.1733 42.689 12.3044C43.2792 12.4356 43.935 12.5012 44.5252 12.6979C45.181 12.8946 45.7712 13.2225 46.2958 13.6816C46.2958 13.6816 46.4925 13.6816 46.427 13.616V13.7472Z" fill="#6C6C65"/>
</g>
<g style="mix-blend-mode:multiply" opacity="0.34">
<path d="M77.1829 15.0592C76.4615 14.8625 75.8713 15.7806 75.4779 16.2396C75.15 16.5675 74.8877 16.961 74.5598 17.3545C74.2319 17.6824 73.904 17.9447 73.5105 18.207C73.3138 18.4037 73.0515 18.5349 72.8547 18.6661C72.7891 18.6661 72.658 18.6661 72.5924 18.6661C72.3957 18.7316 72.1989 18.9284 72.0678 19.0595C72.0678 19.0595 72.0022 19.0595 71.9366 19.0595C71.412 19.2563 70.8874 19.3874 70.3627 19.453C69.9037 19.453 69.3791 19.5186 68.92 19.7153C68.3298 19.9121 67.9363 20.3055 67.4773 20.6334C66.428 21.4204 65.0509 21.5515 63.8705 22.2073C63.6081 22.3385 63.8049 22.6008 64.0672 22.5352C65.1164 22.2073 66.2313 21.945 67.215 21.3548C67.4117 21.2236 67.674 21.0925 67.8707 20.8957C68.1331 20.699 68.3298 20.4367 68.5921 20.3055C68.9856 20.0432 69.5102 19.9776 69.9693 19.9121C70.4939 19.9121 71.0185 19.9121 71.6087 19.8465C71.6087 20.1744 71.6087 20.5678 71.6087 20.9613C71.7399 22.0106 71.6087 23.1254 71.2153 24.1091C71.2153 24.2402 71.412 24.2402 71.4776 24.1091C71.871 23.191 72.2645 22.2073 72.1989 21.2236C72.1989 20.8302 72.1334 20.3711 72.1989 19.9776C72.1989 19.8465 72.1989 19.7809 72.2645 19.6497C72.5268 19.5186 72.8547 19.3874 73.117 19.1907C73.9696 18.6661 74.6909 18.0103 75.2811 17.1577C75.5434 16.7643 75.8713 16.3052 76.1337 15.9118C76.2648 15.7806 76.396 15.5839 76.5271 15.4527C76.5927 15.3871 76.7894 15.1904 76.9206 15.1904C76.9862 15.1904 77.1173 15.0592 76.9206 14.9937L77.1829 15.0592Z" fill="#6C6C65"/>
</g>
<g style="mix-blend-mode:multiply" opacity="0.34">
<path d="M21.3771 30.6669C20.5901 30.5357 19.8688 30.2078 19.1474 30.0111C18.3604 29.8144 17.6391 29.5521 16.8521 29.4865C16.0652 29.3553 15.3438 29.3553 14.5569 29.4865C14.229 29.4865 13.8355 29.5521 13.5076 29.5521C13.1142 29.5521 12.7863 29.4209 12.3928 29.2897C12.3928 29.2897 12.3928 29.2897 12.3272 29.2897C11.9993 29.1586 11.737 28.9619 11.4091 28.8307C10.7533 28.5028 10.1631 28.1749 9.50733 27.9126C8.19576 27.388 6.75303 26.9945 5.37588 26.7322C5.24472 26.7322 4.98241 26.9289 5.17914 26.9945C6.42514 27.5847 7.80229 27.9782 9.11386 28.5028C9.70407 28.7651 10.3599 29.0274 10.9501 29.2897C11.3435 29.4865 11.8026 29.7488 12.2616 29.88C12.7207 30.2734 13.5076 30.2734 14.0323 30.2734C14.0323 30.2734 14.0323 30.2734 14.0978 30.2734C14.8848 30.6013 15.6061 31.0604 16.2619 31.6506C16.2619 31.6506 16.3931 31.6506 16.3931 31.585C15.934 31.0604 15.4094 30.6013 14.8192 30.2734C15.3438 30.2734 15.8685 30.2734 16.3931 30.2734C17.2456 30.339 18.0326 30.5357 18.8851 30.6669C19.7376 30.8636 20.5245 30.9292 21.3771 31.0604C21.6394 31.0604 21.8361 30.7325 21.5082 30.6669H21.3771Z" fill="#6C6C65"/>
</g>
<g style="mix-blend-mode:multiply" opacity="0.34">
<path d="M42.8195 78.9332C42.7539 78.5397 42.6227 78.2118 42.5571 77.8183C42.6883 77.4904 42.6883 77.1626 42.8195 76.8347C43.0162 76.5068 43.4097 76.3756 43.672 76.1133C43.9343 75.7854 44.131 75.3919 44.3278 75.064C44.5245 74.6706 44.6557 74.2115 44.918 73.818C45.0491 73.6869 44.7868 73.6213 44.7212 73.7525C44.3933 74.0804 44.131 74.4738 43.8031 74.8673C43.5408 75.2608 43.2785 75.6542 42.9506 75.9166C42.6883 76.0477 42.4916 76.2445 42.2948 76.4412C42.1637 75.2608 42.2948 74.0804 42.0981 72.8999C42.0981 72.7688 41.8358 72.8344 41.8358 72.8999C41.9014 74.2771 41.5735 75.7198 41.7046 77.097C41.7046 77.2937 41.7046 77.4249 41.7702 77.6216C41.7702 77.7528 41.7702 77.9495 41.7046 78.0807C41.7046 78.2774 41.7702 78.343 41.9014 78.343C41.9014 78.4741 41.9669 78.6709 42.0325 78.802C42.0981 79.1299 42.1637 79.3922 42.1637 79.7201C42.1637 79.9824 42.2948 80.2447 42.2292 80.5071C42.2292 80.5726 42.3604 80.5071 42.426 80.5071C42.6227 80.3103 42.8195 80.048 42.885 79.7857C42.9506 79.5234 42.885 79.1955 42.885 78.9332H42.8195Z" fill="#6C6C65"/>
</g>
</svg>
