<svg width="442" height="365" viewBox="0 0 442 365" fill="none" xmlns="http://www.w3.org/2000/svg">
<g clip-path="url(#clip0_4112_918)">
<path d="M440.84 42.5717V29.2955C440.74 29.1589 440.674 29.0223 440.574 28.8584C438.248 25.3072 434.692 22.4116 431.868 19.1335C430.406 17.4398 429.076 15.6096 428.046 13.7247C427.049 11.9218 426.518 9.92761 425.222 8.23394C422.463 4.62807 416.847 3.12563 412.162 1.86903C411.265 1.8144 410.334 1.75977 409.437 1.75977H406.48C395.115 3.12563 383.816 4.87393 372.418 5.7754C367.234 6.18515 362.083 6.29442 356.866 6.07588C351.583 5.85735 346.332 5.47491 341.082 5.311C338.457 5.22905 335.831 5.20173 333.173 5.311C330.614 5.39295 328.089 5.72076 325.563 5.88466C321.11 6.13052 316.657 5.88466 312.271 5.36564C307.718 4.84661 303.199 4.10905 298.646 3.61734C293.761 3.07099 288.876 2.87977 283.958 3.12563C273.757 3.61734 263.654 5.11978 253.453 5.39295C249.033 5.50222 244.58 5.42027 240.227 4.87393C237.801 4.57344 235.342 4.40953 232.883 4.27295C226.669 3.94514 220.421 3.80856 214.174 3.48075C208.458 3.18026 202.71 2.79782 197.094 1.8144H180.91C178.385 2.16952 175.859 2.49733 173.334 2.82514C162.467 4.21831 151.534 5.36564 140.535 5.83003C134.952 6.07589 129.536 5.99393 123.986 5.47491C118.669 4.95588 113.087 4.10905 107.737 4.76466C103.184 5.311 98.9637 6.95004 94.4111 7.46906C90.224 7.93346 86.5022 6.95004 82.6807 5.61149C80.5871 4.87393 78.4604 4.191 76.2339 3.80856C73.5755 3.34416 70.8174 3.50807 68.1257 3.78124C63.1079 4.30027 58.0568 5.20173 53.039 4.16368C50.9787 3.7266 49.0513 2.98904 47.1239 2.27879C46.7584 2.14221 46.4261 2.00562 46.0606 1.86903H32.6354C32.1037 1.86903 31.5388 1.86903 31.0071 1.89635C29.7776 2.19684 28.5813 2.49733 27.4182 2.79782C25.4908 3.26221 23.7628 3.61734 21.8022 3.7266C21.5032 3.7266 21.2041 3.75392 20.905 3.78124C9.30754 7.49638 1.13281 16.8115 1.13281 27.6018V30.9619C1.83065 35.4419 2.42881 39.9219 1.86389 44.4292C1.73096 45.6312 1.43189 46.7785 1.13281 47.9532V63.7971C1.53158 64.7259 1.99681 65.6274 2.39557 66.5562C3.32603 68.5777 3.62511 70.9269 5.38633 72.5387C6.08417 73.1943 7.21401 74.0684 7.14755 75.0518C7.01463 76.4997 4.75495 77.1553 3.92418 78.2206C2.89403 79.5865 2.19619 81.5807 1.53158 83.1104C1.36543 83.4655 1.26573 83.8207 1.13281 84.1758V111.193C1.29897 113.596 1.46512 116 1.59804 118.404C1.83065 122.065 1.53158 125.616 1.13281 129.222V146.486C1.13281 146.678 1.19927 146.896 1.2325 147.115C1.53158 149.355 1.6645 151.622 1.69773 153.889C1.69773 156.047 1.46512 158.369 2.0965 160.5C2.49527 161.866 3.42572 163.013 4.22326 164.243C4.68849 164.953 4.98756 165.472 5.75186 166.018C6.15063 166.291 6.58263 166.455 6.91493 166.783C9.10815 168.886 7.21401 170.689 5.41956 172.219C3.7248 173.64 3.2928 175.798 2.76111 177.71C2.26265 179.486 2.06327 181.288 2.0965 183.119C2.16296 185.468 2.56173 187.817 2.66142 190.167C2.76111 192.68 2.69465 195.193 2.56173 197.706C2.29588 202.596 1.49835 207.54 1.69773 212.403C1.86389 216.336 4.88787 219.642 4.82141 223.63C4.75495 228.192 3.02696 232.536 3.69157 237.125C4.09033 239.993 3.82449 242.943 3.82449 245.839C3.82449 248.543 3.49218 252.423 5.88479 254.581C5.95125 254.635 5.98448 254.772 5.88479 254.854C1.26573 257.804 3.35926 264.333 4.38941 268.267C5.38633 272.118 6.91493 275.943 6.31678 279.931C5.88479 282.717 5.28664 285.476 5.22017 288.29C5.12048 291.186 5.55248 294.081 5.88479 296.977C6.51617 302.495 7.28047 308.15 6.35001 313.695C6.08417 315.252 5.61894 316.427 4.78818 317.82C4.38941 318.476 3.79126 320.142 2.96049 320.606C3.25957 323.147 4.68849 325.797 5.51925 328.255C6.05094 329.758 6.01771 330.768 5.02079 332.161C4.28972 333.172 3.22634 334.074 2.69465 335.139C1.89712 336.751 2.76111 338.69 3.32603 340.275C4.19003 342.651 4.78818 344.837 4.78818 347.322C4.78818 348.005 4.75495 348.661 4.68849 349.317C5.22017 350.136 5.78509 350.956 6.41648 351.721C8.04477 351.994 9.67307 352.349 11.2681 352.759C13.0626 353.223 14.9235 353.715 16.5518 354.534C18.9444 355.736 20.4398 357.566 22.1678 359.342C23.7961 361.036 25.7899 362.292 28.1493 363.003C29.5782 363.167 31.0403 363.248 32.5357 363.248H35.028C36.4902 362.893 37.8858 362.32 39.2483 361.637C43.9338 359.369 48.7522 357.867 54.2685 357.703C61.114 357.484 67.9595 358.441 74.7386 358.96C78.3939 359.233 82.2819 359.451 85.904 358.96C88.5957 358.577 90.8886 358.331 93.6135 358.796C95.0425 359.042 96.3384 359.561 97.6677 359.998C99.296 360.544 100.891 360.817 102.619 361.036C106.507 361.527 110.428 361.719 114.349 361.801C121.793 361.937 129.237 361.527 136.714 361.582C144.689 361.637 152.631 361.473 160.606 361.172C168.15 360.872 175.693 360.653 183.236 361.008C184.499 360.763 185.762 360.517 187.058 360.407C189.085 360.216 191.179 360.407 193.206 360.681C193.771 360.763 194.369 360.845 194.934 360.926C195.1 360.926 195.266 360.926 195.432 360.926C199.686 360.79 203.906 360.954 208.159 361.172C216.301 361.582 224.442 361.637 232.617 361.664C246.973 361.719 261.195 361.418 275.451 359.943C282.795 359.178 290.206 359.451 297.583 359.615C305.159 359.779 312.67 359.615 320.246 359.096C327.49 358.632 334.735 358.113 341.979 358.331C349.356 358.55 356.235 360.134 363.446 361.172C376.007 362.975 388.867 362.757 401.628 362.921C402.292 362.839 402.957 362.757 403.622 362.62C404.187 362.511 404.785 362.402 405.35 362.238C406.014 362.074 406.679 361.91 407.377 361.746C410.633 360.981 413.757 359.916 416.781 358.686C418.177 358.113 419.539 357.485 420.902 356.911C422.131 356.392 423.327 355.818 424.524 355.217C427.083 353.906 429.575 352.513 432.001 351.092C433.13 350.437 434.26 349.781 435.39 349.125C436.454 348.497 437.45 347.842 438.314 347.022C438.481 346.858 438.647 346.694 438.813 346.53C440.109 343.689 440.84 340.63 440.84 337.434V326.152C439.444 324.731 437.882 323.42 437.151 321.617C436.919 321.098 436.786 320.524 436.719 319.978C436.653 319.432 436.553 318.831 436.786 318.284C437.251 317.164 438.348 316.236 439.145 315.279C439.577 314.76 440.109 314.132 440.242 313.504C440.341 313.012 440.175 312.438 440.042 311.947C439.743 310.663 439.311 309.434 438.946 308.177C438.613 307.03 438.481 305.937 438.348 304.762C438.182 303.178 438.049 301.566 437.982 299.982C437.816 296.704 437.75 293.426 437.849 290.148C437.882 288.563 437.949 286.951 438.049 285.367C437.185 275.697 437.484 265.999 437.949 256.274C437.816 255.755 437.683 255.263 437.55 254.744C436.952 252.177 436.719 249.527 436.52 246.932C436.321 244.364 435.955 241.796 435.855 239.201C435.789 237.453 435.922 235.759 436.454 234.065C437.151 231.907 438.182 229.831 438.813 227.646C438.813 226.553 438.746 225.488 438.713 224.395C438.481 218.822 437.716 213.304 437.151 207.732C436.586 202.022 436.387 196.286 436.387 190.549C436.387 183.228 436.786 175.907 437.251 168.613C435.49 168.285 433.729 168.067 431.967 167.739C431.801 167.712 431.768 167.575 431.834 167.466C432.067 167.029 432.333 166.592 432.632 166.155C433.762 164.543 435.224 163.123 436.719 161.729C437.052 161.402 437.417 161.101 437.75 160.773C437.849 159.216 437.949 157.659 438.049 156.102C438.414 150.447 438.746 144.765 438.946 139.111C439.145 133.401 438.414 127.829 437.849 122.147C437.583 119.442 437.417 116.765 437.484 114.061C437.583 111.22 438.115 108.379 438.381 105.538C438.913 99.8286 438.913 94.0919 438.58 88.3826C438.281 82.8099 437.849 77.2099 437.484 71.6372C437.284 68.8508 437.118 66.0918 436.919 63.3054C436.753 60.5464 436.354 57.7327 436.62 55.001C437.052 50.6576 439.112 46.6419 440.773 42.5444L440.84 42.5717Z" fill="#804118"/>
<path d="M35.0611 364.176H32.5688C31.0402 364.176 29.5116 364.094 28.0162 363.903C27.9497 363.903 27.85 363.903 27.7836 363.849C25.2913 363.084 23.098 361.772 21.3036 359.888C21.0378 359.614 20.8051 359.341 20.5393 359.095C19.1768 357.62 17.8476 356.254 15.9867 355.326C14.4913 354.588 12.7633 354.096 10.9689 353.659C9.27412 353.222 7.71229 352.894 6.21691 352.648C5.91784 352.594 5.65199 352.457 5.48584 352.239C4.82123 351.419 4.22308 350.572 3.69139 349.753C3.59169 349.589 3.55846 349.425 3.55846 349.261C3.62493 348.524 3.65816 347.895 3.65816 347.322C3.65816 344.808 2.96031 342.596 2.22924 340.547L2.06309 340.11C1.46494 338.526 0.733864 336.559 1.63109 334.783C1.99663 334.018 2.59478 333.363 3.1597 332.734C3.492 332.379 3.79108 332.024 4.05692 331.669C4.82123 330.604 4.92092 329.839 4.45569 328.5C4.18985 327.763 3.89077 326.998 3.55846 326.178C2.82739 324.402 2.06309 322.545 1.8637 320.687C1.83047 320.332 1.99663 320.004 2.36216 319.813C2.69447 319.622 3.22616 318.557 3.45877 318.092C3.59169 317.819 3.69139 317.601 3.82431 317.382C4.62184 316.016 5.05384 314.923 5.28645 313.53C6.15045 308.449 5.51907 303.15 4.92092 298.041L4.82123 297.058C4.75477 296.594 4.72153 296.129 4.65507 295.692C4.356 293.261 4.05692 290.775 4.12338 288.262C4.18985 286.104 4.55538 283.973 4.88769 281.897C5.02061 281.214 5.1203 280.504 5.21999 279.821C5.68522 276.789 4.85446 273.866 3.95723 270.779C3.75785 270.041 3.52523 269.249 3.32585 268.484L3.12647 267.747C2.06309 263.786 0.50125 257.912 4.52215 254.662C2.66124 252.449 2.69447 249.307 2.7277 246.74C2.7277 246.439 2.7277 246.166 2.7277 245.893C2.7277 245.073 2.7277 244.226 2.76093 243.434C2.82739 241.413 2.89385 239.309 2.59478 237.315C2.19601 234.474 2.66124 231.743 3.09324 229.12C3.39231 227.344 3.69139 225.514 3.72462 223.711C3.72462 221.799 2.99354 220.023 2.22924 218.166C1.46494 216.39 0.700633 214.56 0.600941 212.539C0.468019 209.26 0.767094 205.928 1.06617 202.677C1.23232 201.065 1.36524 199.372 1.46494 197.733C1.63109 194.81 1.66432 192.433 1.56463 190.275C1.5314 189.182 1.39848 188.09 1.29878 187.024C1.16586 185.795 1.03294 184.511 0.999708 183.227C0.933247 181.315 1.16586 179.43 1.69755 177.6L1.8637 177.053C2.36216 175.223 2.92708 173.147 4.65507 171.672C6.7486 169.924 7.47967 168.831 6.08399 167.492C5.9843 167.383 5.78491 167.274 5.58553 167.165C5.41938 167.055 5.21999 166.946 5.02061 166.81C4.18985 166.209 3.79108 165.608 3.39231 164.979L3.25939 164.761C3.09324 164.515 2.96031 164.296 2.79416 164.05C2.09632 163.04 1.39848 162.002 1.03294 160.8C0.53448 159.079 0.567711 157.33 0.600941 155.609C0.600941 155.063 0.600941 154.517 0.600941 153.97C0.567711 151.266 0.434789 149.19 0.168944 147.278C0.168944 147.114 0.102483 146.923 0.102483 146.759V146.677C0.102483 146.677 0.102483 146.595 0.102483 146.567V129.303C0.102483 129.303 0.102483 129.248 0.102483 129.221C0.468019 126.08 0.800325 122.337 0.567711 118.54C0.468019 116.792 0.335097 115.043 0.235405 113.295L0.102483 111.328C0.102483 111.328 0.102483 111.301 0.102483 111.274V84.2569C0.102483 84.2569 0.102483 84.093 0.135713 84.011C0.268636 83.6013 0.401558 83.2188 0.567711 82.8637C0.700633 82.5632 0.833556 82.2354 0.966478 81.8803C1.5314 80.5144 2.16278 78.9574 3.06 77.7827C3.492 77.2364 4.09015 76.8266 4.6883 76.4169C5.5523 75.8432 6.05076 75.4881 6.08399 75.0237C6.11722 74.5593 5.41938 73.9037 4.88769 73.4393C4.788 73.3573 4.72153 73.2754 4.62184 73.1934C3.22616 71.8822 2.62801 70.2705 2.09632 68.6861C1.8637 68.0578 1.66432 67.4568 1.43171 66.9105C1.23232 66.5007 1.06617 66.091 0.866786 65.6539C0.634172 65.1622 0.401558 64.6431 0.168944 64.1514C0.135713 64.0422 0.102483 63.9329 0.102483 63.8236V47.9796C0.102483 47.9796 0.102483 47.8431 0.102483 47.7611C0.468019 46.3952 0.700633 45.3572 0.833556 44.3465C1.36524 40.003 0.833556 35.7688 0.102483 31.0976C0.102483 31.0703 0.102483 31.0156 0.102483 30.9883V27.6283C0.00279091 16.6741 8.01136 6.92187 20.3731 2.79697C20.4728 2.76965 20.6058 2.74234 20.7387 2.74234L21.6359 2.6877C23.53 2.57843 25.1583 2.25063 27.0193 1.81355C27.6506 1.64965 28.282 1.48574 28.9466 1.34916C29.5116 1.21257 30.0432 1.07599 30.6082 0.9394C30.7079 0.9394 30.7743 0.912083 30.874 0.912083C31.4389 0.912083 32.0038 0.884766 32.5688 0.884766H45.9939C45.9939 0.884766 46.3262 0.912083 46.4591 0.966717L47.7884 1.45843C49.6493 2.14136 51.4105 2.79697 53.3047 3.20673C57.2591 4.05356 61.2135 3.58917 65.4006 3.09746C66.2646 2.98819 67.1286 2.90624 67.9926 2.82429C70.7175 2.55112 73.6418 2.3599 76.4664 2.87892C78.8257 3.28868 81.0522 4.02624 83.1125 4.73649C87.0337 6.12967 90.4232 6.94919 94.2115 6.53943C96.4712 6.29357 98.5979 5.77455 100.858 5.20089C102.984 4.68186 105.211 4.13551 107.504 3.83502C112.09 3.26136 116.742 3.78039 121.228 4.24478C122.158 4.35405 123.122 4.436 124.053 4.54527C129.137 5.03698 134.487 5.14625 140.402 4.9004C149.906 4.49064 160.008 3.56185 173.068 1.8955C175.361 1.59501 177.753 1.29452 180.644 0.884766C180.711 0.884766 180.777 0.884766 180.844 0.884766H197.027C197.027 0.884766 197.193 0.884766 197.26 0.884766C203.008 1.86819 208.99 2.25063 214.174 2.5238C217.264 2.6877 220.454 2.79697 223.512 2.93356C226.569 3.04283 229.759 3.17941 232.883 3.34331C235.275 3.4799 237.834 3.61649 240.326 3.94429C244.148 4.436 248.268 4.59991 253.353 4.46332C258.902 4.29942 264.518 3.78039 269.935 3.28868C274.487 2.8516 279.173 2.41453 283.858 2.19599C288.71 1.95014 293.595 2.14136 298.779 2.71502C301.105 2.96087 303.431 3.28868 305.691 3.58917C307.884 3.88966 310.177 4.19015 312.404 4.46332C317.421 5.03698 321.575 5.20088 325.463 4.98235C326.56 4.92771 327.656 4.81844 328.753 4.73649C330.182 4.59991 331.644 4.49064 333.106 4.436C335.532 4.35405 338.124 4.35405 341.082 4.436C343.973 4.51796 346.93 4.68186 349.755 4.84576C352.081 4.98235 354.507 5.11893 356.899 5.20089C362.083 5.39211 367.134 5.31015 372.285 4.9004C380.061 4.2721 387.903 3.26136 395.513 2.25063C399.036 1.78623 402.691 1.32184 406.313 0.884766C406.38 0.884766 406.413 0.884766 406.479 0.884766H409.437C410.334 0.884766 411.265 0.912083 412.261 0.994034C412.361 0.994034 412.428 0.994034 412.494 1.04867C417.013 2.22331 423.161 3.86234 426.185 7.79602C427.049 8.94334 427.614 10.1999 428.146 11.4019C428.445 12.1121 428.744 12.7678 429.076 13.396C430.007 15.117 431.269 16.8927 432.765 18.641C433.795 19.8156 434.925 20.9629 436.021 22.0829C437.982 24.0771 440.009 26.1259 441.538 28.4751C441.604 28.5844 441.67 28.6937 441.737 28.803L441.803 28.9122C441.803 28.9122 441.936 29.1854 441.936 29.322V42.5981C441.936 42.5981 441.936 42.7894 441.87 42.8986C441.504 43.7728 441.139 44.6469 440.773 45.4938C439.378 48.7445 438.082 51.8314 437.749 55.1367C437.55 57.1582 437.749 59.289 437.915 61.3378C437.982 61.9934 438.015 62.6763 438.082 63.3319C438.248 66.1183 438.447 68.8773 438.613 71.6637C438.746 73.4939 438.879 75.3515 439.012 77.1817C439.278 80.8696 439.544 84.6667 439.743 88.4091C440.075 94.774 440.009 100.429 439.544 105.674C439.444 106.766 439.311 107.886 439.145 108.952C438.912 110.645 438.713 112.421 438.647 114.142C438.58 116.437 438.647 118.922 438.979 122.146C439.079 122.993 439.145 123.84 439.245 124.686C439.743 129.412 440.242 134.329 440.075 139.219C439.876 145.092 439.511 150.856 439.178 156.238C439.079 157.795 438.979 159.352 438.879 160.909C438.879 161.128 438.779 161.319 438.58 161.483C438.347 161.701 438.115 161.92 437.882 162.138L437.55 162.439C436.121 163.75 434.659 165.143 433.595 166.7C433.496 166.837 433.429 166.973 433.33 167.11C433.762 167.165 434.16 167.247 434.559 167.301C435.523 167.438 436.487 167.602 437.483 167.793C438.015 167.902 438.381 168.312 438.347 168.749C437.949 175.223 437.517 182.899 437.483 190.657C437.483 196.913 437.716 202.486 438.248 207.758C438.414 209.37 438.58 210.981 438.779 212.62C439.211 216.5 439.677 220.488 439.81 224.476C439.843 225.487 439.876 226.552 439.909 227.754C439.909 227.836 439.909 227.918 439.909 228C439.544 229.229 439.079 230.404 438.613 231.579C438.248 232.507 437.849 233.491 437.55 234.447C437.085 235.895 436.885 237.425 436.985 239.282C437.051 240.921 437.218 242.587 437.384 244.226C437.483 245.155 437.583 246.057 437.65 246.986C437.882 249.881 438.115 252.285 438.68 254.689C438.779 255.181 438.912 255.7 439.079 256.164C439.079 256.246 439.112 256.328 439.079 256.41C438.647 265.206 438.281 275.423 439.178 285.394C439.178 285.421 439.178 285.475 439.178 285.503C439.079 287.087 439.012 288.699 438.979 290.256C438.912 293.616 438.979 296.921 439.112 300.036C439.211 301.675 439.311 303.259 439.477 304.789C439.61 305.991 439.743 307.001 440.042 308.067C440.175 308.504 440.308 308.941 440.441 309.378C440.674 310.198 440.939 311.044 441.139 311.891L441.205 312.11C441.338 312.601 441.471 313.202 441.338 313.776C441.139 314.568 440.574 315.279 440.109 315.825L440.042 315.88C439.776 316.18 439.51 316.481 439.245 316.781C438.646 317.437 438.082 318.038 437.816 318.693C437.683 319.048 437.749 319.54 437.816 319.95C437.882 320.469 438.015 320.961 438.181 321.398C438.713 322.736 439.843 323.802 441.006 324.949C441.239 325.167 441.471 325.386 441.671 325.632C441.837 325.796 441.936 326.014 441.936 326.233V337.515C441.936 340.738 441.239 343.907 439.843 346.939C439.81 347.021 439.743 347.103 439.677 347.185C439.51 347.376 439.311 347.54 439.145 347.731C438.314 348.496 437.351 349.179 436.021 349.971C434.891 350.627 433.762 351.31 432.632 351.966C430.439 353.249 427.813 354.725 425.088 356.118C423.693 356.828 422.53 357.374 421.4 357.866C420.868 358.085 420.336 358.33 419.805 358.549C418.974 358.904 418.11 359.287 417.246 359.642C413.857 361.008 410.733 362.018 407.642 362.756C407.41 362.811 407.21 362.865 406.978 362.92C406.546 363.029 406.081 363.138 405.649 363.248C405.084 363.384 404.485 363.521 403.821 363.63C403.189 363.739 402.492 363.849 401.727 363.93C401.661 363.93 401.594 363.93 401.561 363.93C399.468 363.903 397.407 363.876 395.314 363.876C384.747 363.794 373.814 363.685 363.213 362.182C361.053 361.882 358.893 361.499 356.8 361.144C351.749 360.297 346.997 359.478 341.912 359.341C335.333 359.15 328.62 359.587 322.107 359.997L320.312 360.106C312.271 360.625 304.827 360.789 297.549 360.625L295.788 360.57C289.142 360.407 282.297 360.243 275.617 360.926C259.999 362.537 244.447 362.701 232.65 362.647C223.578 362.619 216.035 362.565 208.126 362.155C203.872 361.936 199.719 361.772 195.532 361.909H195.033C195.033 361.909 194.867 361.909 194.767 361.909C194.202 361.827 193.637 361.745 193.039 361.663C191.178 361.417 189.151 361.226 187.191 361.417C185.895 361.527 184.599 361.772 183.502 361.991C183.402 361.991 183.269 362.018 183.17 361.991C176.092 361.663 169.047 361.827 160.673 362.155C152.132 362.483 144.29 362.619 136.713 362.565C133.324 362.565 129.835 362.619 126.478 362.674C122.524 362.756 118.403 362.838 114.349 362.783C109.73 362.701 105.975 362.455 102.453 362.018C100.326 361.745 98.7641 361.417 97.2355 360.926C96.9364 360.816 96.6373 360.707 96.3383 360.625C95.3413 360.27 94.3777 359.942 93.3807 359.778C90.7888 359.341 88.5623 359.587 86.1032 359.942C82.3482 360.461 78.3605 360.243 74.6387 359.942C72.7445 359.806 70.7839 359.614 68.923 359.45C64.1378 359.013 59.1532 358.549 54.3016 358.686C49.4831 358.849 44.8641 360.051 39.813 362.51C38.085 363.357 36.7226 363.876 35.3601 364.204C35.2604 364.204 35.1608 364.231 35.0278 364.231L35.0611 364.176ZM28.4482 362.046C29.8106 362.21 31.1731 362.264 32.5688 362.264H34.8949C36.0247 361.964 37.221 361.527 38.7164 360.789C44.0998 358.194 49.0511 356.883 54.2683 356.719C59.2862 356.555 64.3372 357.019 69.2221 357.484C71.083 357.648 73.0104 357.839 74.8713 357.975C78.6264 358.249 82.2817 358.467 85.7709 357.975C88.3629 357.62 90.9217 357.32 93.9124 357.811C95.142 358.03 96.2386 358.412 97.3019 358.768C97.601 358.877 97.9001 358.959 98.1659 359.068C99.4952 359.505 100.924 359.806 102.885 360.051C106.307 360.489 109.996 360.707 114.482 360.789C118.47 360.871 122.557 360.789 126.512 360.68C129.901 360.598 133.39 360.543 136.813 360.57C144.356 360.625 152.132 360.488 160.639 360.161C169.047 359.833 176.092 359.669 183.236 359.997C184.366 359.778 185.695 359.532 187.058 359.423C189.284 359.232 191.444 359.423 193.504 359.696C194.036 359.778 194.601 359.833 195.133 359.915H195.199C195.199 359.915 195.399 359.915 195.498 359.915C199.818 359.751 204.039 359.942 208.325 360.161C216.168 360.57 223.678 360.625 232.717 360.652C244.447 360.707 259.899 360.543 275.385 358.959C282.23 358.249 289.175 358.412 295.921 358.576L297.682 358.631C304.893 358.795 312.237 358.631 320.213 358.139L322.007 358.03C328.554 357.62 335.333 357.183 342.078 357.374C347.362 357.538 352.446 358.385 357.365 359.232C359.425 359.587 361.585 359.942 363.712 360.243C374.113 361.745 384.946 361.827 395.447 361.909C397.507 361.909 399.567 361.936 401.628 361.964C402.292 361.882 402.89 361.8 403.455 361.69C404.053 361.581 404.585 361.472 405.084 361.335C405.549 361.226 406.014 361.117 406.479 361.008C406.679 360.953 406.911 360.898 407.111 360.844C410.068 360.133 413.092 359.15 416.349 357.839C417.18 357.511 418.01 357.129 418.841 356.773C419.373 356.528 419.904 356.309 420.469 356.063C421.533 355.599 422.663 355.08 423.992 354.397C426.684 353.031 429.242 351.556 431.435 350.299C432.565 349.644 433.695 348.988 434.792 348.332C435.988 347.622 436.819 347.021 437.55 346.366C437.683 346.256 437.783 346.147 437.915 346.01C439.178 343.251 439.81 340.356 439.81 337.378V326.424C439.81 326.424 439.544 326.151 439.411 326.014C438.148 324.785 436.885 323.528 436.187 321.862C435.955 321.288 435.789 320.687 435.689 320.032C435.623 319.458 435.49 318.693 435.822 317.928C436.221 317 436.919 316.235 437.583 315.497C437.849 315.224 438.082 314.951 438.314 314.678L438.381 314.623C438.746 314.186 439.145 313.694 439.245 313.257C439.311 313.039 439.211 312.629 439.112 312.328C439.112 312.246 439.078 312.164 439.045 312.082C438.846 311.29 438.613 310.471 438.381 309.679C438.248 309.241 438.115 308.777 437.982 308.34C437.616 307.111 437.483 305.909 437.351 304.789C437.184 303.232 437.051 301.62 436.985 299.954C436.819 296.785 436.752 293.452 436.852 290.037C436.885 288.48 436.952 286.869 437.051 285.284C436.154 275.286 436.52 265.07 436.952 256.273C436.819 255.809 436.686 255.317 436.586 254.826C436.021 252.285 435.789 249.854 435.523 246.904C435.456 246.002 435.357 245.073 435.257 244.172C435.091 242.533 434.925 240.839 434.858 239.145C434.759 237.097 434.958 235.376 435.523 233.737C435.855 232.726 436.254 231.743 436.619 230.786C437.051 229.694 437.483 228.574 437.849 227.481C437.849 226.334 437.783 225.323 437.749 224.367C437.583 220.433 437.151 216.472 436.719 212.62C436.553 211.009 436.354 209.37 436.187 207.758C435.656 202.458 435.39 196.804 435.423 190.521C435.423 183.063 435.822 175.66 436.221 169.323C435.589 169.213 434.958 169.131 434.36 169.022C433.562 168.886 432.731 168.776 431.901 168.612C431.502 168.53 431.17 168.339 431.003 168.039C430.804 167.738 430.804 167.356 431.003 167.055C431.269 166.591 431.568 166.099 431.867 165.662C433.064 163.941 434.626 162.466 436.121 161.073L436.453 160.772C436.586 160.636 436.752 160.499 436.885 160.363C436.985 158.915 437.085 157.467 437.184 156.019C437.55 150.665 437.882 144.901 438.082 139.055C438.248 134.247 437.749 129.412 437.251 124.741C437.151 123.894 437.085 123.047 436.985 122.201C436.653 118.895 436.553 116.382 436.619 114.005C436.686 112.202 436.919 110.399 437.151 108.651C437.284 107.586 437.417 106.493 437.517 105.428C437.982 100.265 438.048 94.6921 437.716 88.3818C437.517 84.6393 437.251 80.8422 436.985 77.1817C436.852 75.3515 436.719 73.4939 436.586 71.6637C436.387 68.8773 436.221 66.1183 436.021 63.3319C435.988 62.6763 435.922 62.0207 435.855 61.3651C435.689 59.2616 435.49 57.0763 435.689 54.8909C436.021 51.3397 437.45 48.007 438.813 44.7835C439.145 43.9913 439.511 43.1718 439.81 42.3523V29.4586C439.81 29.4586 439.71 29.322 439.677 29.2673C438.248 27.082 436.287 25.0878 434.393 23.1756C433.263 22.0283 432.1 20.8536 431.037 19.6244C429.442 17.7668 428.112 15.8819 427.116 14.0517C426.75 13.3414 426.418 12.6312 426.119 11.9209C425.62 10.7463 425.122 9.65359 424.357 8.67017C421.832 5.33747 416.415 3.88966 412.029 2.74234C411.132 2.6877 410.301 2.66038 409.503 2.66038H406.612C403.057 3.09746 399.434 3.56185 395.912 4.02624C388.269 5.00966 380.393 6.04772 372.551 6.67601C367.267 7.08577 362.15 7.19504 356.833 7.00382C354.44 6.92187 352.014 6.78528 349.655 6.6487C346.83 6.48479 343.906 6.32089 341.048 6.23894C338.157 6.15699 335.598 6.12967 333.239 6.23894C331.843 6.29357 330.415 6.40284 329.019 6.53943C327.922 6.6487 326.792 6.73065 325.629 6.8126C321.575 7.03114 317.288 6.86724 312.104 6.29357C309.812 6.04772 307.519 5.71991 305.325 5.41942C303.099 5.11893 300.773 4.79113 298.48 4.54527C293.462 3.97161 288.71 3.83502 283.991 4.05356C279.406 4.2721 274.72 4.70918 270.201 5.11893C264.718 5.63796 259.068 6.15699 253.452 6.32089C248.235 6.45748 243.982 6.32089 240.027 5.77455C237.635 5.47406 235.142 5.31015 232.783 5.20089C229.693 5.03698 226.502 4.92771 223.445 4.79113C220.388 4.68186 217.198 4.54527 214.074 4.38137C208.857 4.1082 202.809 3.72576 196.96 2.71502H180.977C178.119 3.09746 175.726 3.42527 173.466 3.69844C160.307 5.39211 150.172 6.32089 140.568 6.70333C134.52 6.94919 129.037 6.83992 123.82 6.32089C122.889 6.23894 121.926 6.12967 120.962 6.0204C116.609 5.55601 112.123 5.0643 107.869 5.58333C105.743 5.8565 103.682 6.34821 101.522 6.89455C99.2626 7.4409 96.9364 8.01456 94.5106 8.28773C89.958 8.77944 85.9039 7.65943 82.182 6.34821C80.2214 5.66528 78.1279 4.98235 75.9347 4.59991C73.5753 4.19015 71.1162 4.29942 68.2252 4.59991C67.3944 4.68186 66.5304 4.79113 65.6664 4.87308C61.4461 5.36479 57.0597 5.8565 52.6733 4.92771C50.613 4.49064 48.6524 3.78039 46.7915 3.07014L45.6948 2.66038H32.5023C32.0371 2.66038 31.5386 2.66038 31.0734 2.6877C30.5749 2.82429 30.0432 2.93356 29.5448 3.07014C28.8802 3.23405 28.2488 3.39795 27.6174 3.56185C25.8894 3.97161 23.962 4.38137 21.7356 4.51795H21.0045C9.63966 8.47895 2.2957 17.4936 2.2957 27.601V30.9064C2.99354 35.523 3.59169 40.0303 3.02677 44.5377C2.89385 45.5757 2.66124 46.6684 2.2957 48.0616V63.6324C2.49508 64.0695 2.69447 64.5065 2.89385 64.9709C3.09324 65.3807 3.29262 65.8178 3.492 66.2275C3.79108 66.8558 4.02369 67.5114 4.22308 68.1397C4.72153 69.5602 5.18676 70.9261 6.25014 71.9095L6.48276 72.1281C7.28029 72.8656 8.41013 73.849 8.27721 75.1329C8.14428 76.4442 6.98121 77.2091 6.01753 77.8373C5.5523 78.1378 5.08707 78.4383 4.88769 78.7388C4.12338 79.7222 3.52523 81.1701 3.02677 82.4266C2.89385 82.7818 2.76093 83.1096 2.59478 83.4374C2.49508 83.7105 2.36216 83.9837 2.26247 84.3115V111.192L2.39539 113.131C2.52832 114.879 2.62801 116.628 2.7277 118.376C2.96031 122.282 2.62801 126.08 2.26247 129.276V146.431C2.26247 146.622 2.32893 146.786 2.36216 146.977C2.62801 148.971 2.79416 151.075 2.82739 153.861C2.82739 154.408 2.82739 154.981 2.82739 155.555C2.82739 157.139 2.76093 158.806 3.19293 160.281C3.492 161.237 4.09015 162.138 4.72153 163.067C4.88769 163.313 5.05384 163.559 5.21999 163.805L5.38615 164.05C5.75168 164.624 5.9843 164.979 6.48276 165.334C6.58245 165.416 6.71537 165.498 6.84829 165.553C7.14737 165.717 7.47967 165.908 7.77875 166.209C10.7695 169.077 7.71229 171.672 6.25014 172.901C4.95415 173.994 4.48892 175.715 4.05692 177.381L3.89077 177.955C3.42554 179.621 3.22616 181.37 3.25939 183.118C3.29262 184.347 3.42554 185.604 3.55846 186.806C3.65816 187.898 3.79108 189.046 3.85754 190.166C3.95723 192.406 3.924 194.81 3.75785 197.787C3.65816 199.454 3.492 201.147 3.35908 202.786C3.06 205.955 2.76093 209.233 2.89385 212.429C2.96031 214.178 3.65816 215.789 4.38923 217.51C5.21999 219.45 6.05076 221.444 6.01753 223.711C6.01753 225.651 5.68522 227.536 5.35292 229.366C4.92092 232.016 4.48892 234.502 4.85446 237.097C5.15353 239.227 5.08707 241.386 5.05384 243.489C5.05384 244.281 5.02061 245.101 5.02061 245.92C5.02061 246.193 5.02061 246.494 5.02061 246.794C4.98738 249.28 4.95415 252.367 6.78183 254.033C7.04767 254.279 7.1806 254.58 7.14737 254.908C7.14737 255.208 6.94798 255.481 6.64891 255.672C2.89385 258.076 4.38923 263.704 5.35292 267.419L5.5523 268.156C5.75168 268.921 5.95107 269.659 6.18368 270.424C7.08091 273.538 8.01136 276.789 7.47967 280.149C7.37998 280.859 7.24706 281.542 7.14737 282.252C6.81506 284.274 6.44952 286.35 6.38306 288.398C6.3166 290.775 6.61568 293.234 6.88152 295.583C6.94798 296.047 6.98121 296.512 7.04767 296.976L7.14737 297.959C7.74552 303.177 8.3769 308.586 7.47967 313.885C7.21383 315.47 6.7486 316.726 5.81814 318.283C5.71845 318.42 5.61876 318.639 5.51907 318.857C5.15353 319.567 4.75477 320.414 4.15661 321.015C4.42246 322.518 5.05384 324.102 5.68522 325.632C6.01753 326.424 6.34983 327.243 6.61568 328.036C7.14737 329.62 7.24706 330.931 5.9843 332.68C5.68522 333.117 5.31968 333.526 4.95415 333.909C4.45569 334.483 3.99046 335.002 3.72462 335.548C3.1597 336.723 3.72462 338.252 4.22308 339.618L4.38923 340.083C5.18676 342.268 5.91784 344.645 5.91784 347.404C5.91784 347.95 5.91784 348.524 5.85137 349.207C6.25014 349.808 6.68214 350.408 7.14737 350.982C8.57628 351.228 10.0384 351.556 11.6335 351.966C13.5609 352.457 15.455 352.976 17.1498 353.823C19.3762 354.943 20.8716 356.528 22.3337 358.057C22.5664 358.33 22.8322 358.576 23.0648 358.849C24.5602 360.407 26.3879 361.527 28.4482 362.182V362.046Z" fill="#42210B"/>
<g style="mix-blend-mode:multiply" opacity="0.37">
<path d="M3.92693 78.2195C3.39525 78.9298 2.93002 79.8039 2.53125 80.7054C6.95092 81.3337 11.3374 82.1259 15.757 82.7542C20.4093 83.4371 25.0948 83.9015 29.8136 83.7649C28.1853 82.8635 26.424 82.0712 24.6961 81.3064C22.1041 80.1864 19.4456 79.121 16.7872 78.1376C13.9958 77.0995 11.1712 76.1434 8.31337 75.3239C7.91461 75.2146 7.54907 75.1054 7.1503 74.9961C7.01738 76.4439 4.7577 77.0995 3.92693 78.1649V78.2195Z" fill="#6C6C65"/>
</g>
<g style="mix-blend-mode:multiply" opacity="0.37">
<path d="M10.4048 13.9404C13.1962 15.7706 15.9211 17.6555 18.646 19.5404C21.3377 21.4253 24.0294 23.2829 26.7543 25.1131C29.2133 26.7248 31.7056 28.2819 34.3308 29.7297C34.2644 29.5658 34.1979 29.4292 34.1315 29.2653C32.9684 26.6156 31.4398 24.0478 29.7782 21.5619C28.0835 18.9941 26.1893 16.5082 24.3284 14.0223C22.4675 11.5365 20.5734 9.0506 18.8122 6.5101C18.4466 5.96376 18.0478 5.41741 17.6823 4.84375C13.6614 6.61937 10.1722 9.10524 7.41406 12.0828C8.41098 12.6838 9.37467 13.2848 10.3384 13.9131L10.4048 13.9404Z" fill="#6C6C65"/>
</g>
<g style="mix-blend-mode:multiply" opacity="0.37">
<path d="M94.3789 7.38579C95.1764 10.3907 96.1401 13.3409 97.2367 16.2639C98.6989 20.2249 100.427 24.1039 102.255 27.9557C102.055 26.0161 101.723 24.0766 101.357 22.1371C100.925 19.7605 100.493 17.4112 100.128 15.0346C99.7623 12.658 99.4964 10.2541 99.43 7.85018C99.43 7.38579 99.43 6.89408 99.43 6.42969C97.7684 6.81213 96.1069 7.16725 94.3789 7.35847V7.38579Z" fill="#6C6C65"/>
</g>
<g style="mix-blend-mode:multiply" opacity="0.37">
<path d="M193.972 14.4603C194.337 18.8584 194.869 23.2565 195.932 27.5726C197.095 25.3326 197.959 23.0106 198.591 20.634C199.82 16.0447 200.285 11.3735 200.983 6.72955C201.216 5.30905 201.448 3.86124 201.748 2.44074C200.186 2.24952 198.624 2.03098 197.062 1.75781H192.875C193.373 5.99198 193.639 10.2261 194.005 14.4603H193.972Z" fill="#6C6C65"/>
</g>
<g style="mix-blend-mode:multiply" opacity="0.37">
<path d="M290.672 5.9093C290.871 9.242 290.938 12.602 291.038 15.9347C291.137 19.2674 291.27 22.6274 291.569 25.9601C291.835 28.9104 292.201 31.8333 292.799 34.7563C293.663 31.8333 294.56 28.8831 295.424 25.9601C297.185 20.0596 298.946 14.1591 300.375 8.20394C300.708 6.78345 301.04 5.33563 301.339 3.91514C300.409 3.80587 299.511 3.66928 298.581 3.58733C295.889 3.28684 293.164 3.09562 290.473 3.01367C290.539 3.96977 290.606 4.95319 290.672 5.9093Z" fill="#6C6C65"/>
</g>
<g style="mix-blend-mode:multiply" opacity="0.37">
<path d="M378.5 24.5681C379.464 22.7378 380.394 20.8803 381.258 18.9954C383.019 15.171 384.581 11.2646 386.176 7.38557C386.608 6.3202 387.04 5.25482 387.505 4.18945C385.279 4.46263 383.019 4.7358 380.793 4.98165C380.461 7.82264 380.128 10.6363 379.796 13.4773C379.364 17.1651 378.932 20.8803 378.5 24.5681Z" fill="#6C6C65"/>
</g>
<g style="mix-blend-mode:multiply" opacity="0.37">
<path d="M438.079 49.2891C436.617 49.9447 435.188 50.6276 433.726 51.3379C431.1 52.5944 428.508 53.9057 425.916 55.2169C423.291 56.5554 420.699 57.9213 418.074 59.2872C415.615 60.5984 413.156 61.9096 410.697 63.2755C408.537 64.4501 406.41 65.6521 404.283 66.8813C402.622 67.8375 400.993 68.7936 399.365 69.777C398.634 70.214 397.87 70.6784 397.172 71.1702C397.371 71.1155 397.604 71.0882 397.803 71.0336C402.09 70.1321 406.31 69.094 410.531 67.974C414.751 66.854 418.971 65.6794 423.158 64.4774C427.378 63.2755 431.632 62.0462 435.852 60.8442C436.151 60.7623 436.45 60.6803 436.749 60.5984C436.617 58.7408 436.484 56.8832 436.65 55.053C436.849 53.0862 437.381 51.174 438.046 49.3164L438.079 49.2891Z" fill="#6C6C65"/>
</g>
<g style="mix-blend-mode:multiply" opacity="0.37">
<path d="M418.941 86.1128C414.987 87.4514 411.066 88.9265 407.145 90.3197C409.936 89.8279 412.727 89.3362 415.552 88.8445C421.866 87.7792 428.18 86.7957 434.56 85.9489C435.889 85.7577 437.218 85.5938 438.514 85.4299C438.448 84.146 438.348 82.8894 438.282 81.6055C436.919 81.6601 435.59 81.824 434.261 82.0425C428.977 82.8894 423.926 84.4738 418.975 86.1401L418.941 86.1128Z" fill="#6C6C65"/>
</g>
<g style="mix-blend-mode:multiply" opacity="0.37">
<path d="M437.781 160.799C437.814 160.143 437.88 159.488 437.913 158.832C437.648 158.887 437.415 158.969 437.149 159.023C431.566 160.498 426.05 162.165 420.6 163.913C415.583 165.525 410.565 167.191 405.547 168.83C408.571 168.721 411.562 168.557 414.586 168.366C420.434 167.983 426.283 167.492 432.131 167.055C432.297 166.754 432.497 166.454 432.696 166.18C433.826 164.569 435.288 163.148 436.784 161.755C437.116 161.427 437.481 161.127 437.814 160.799H437.781Z" fill="#6C6C65"/>
</g>
<g style="mix-blend-mode:multiply" opacity="0.37">
<path d="M437.086 229.775C433.73 229.994 430.373 230.458 427.05 231.005C423.594 231.578 420.171 232.261 416.749 232.971C413.392 233.682 410.069 234.419 406.746 235.129C404.32 235.649 401.861 236.168 399.402 236.605C402.892 236.659 406.414 236.687 409.903 236.632C417.347 236.55 424.791 236.249 432.234 235.922C433.497 235.867 434.76 235.812 436.022 235.758C436.122 235.184 436.255 234.61 436.454 234.037C436.953 232.562 437.551 231.141 438.116 229.693C437.75 229.693 437.418 229.721 437.053 229.748L437.086 229.775Z" fill="#6C6C65"/>
</g>
<g style="mix-blend-mode:multiply" opacity="0.37">
<path d="M430.672 266.816C427.615 267.007 424.558 267.362 421.534 267.799C418.609 268.209 415.718 268.701 412.827 269.274C410.8 269.657 408.773 270.094 406.746 270.531C409.371 270.695 411.963 270.859 414.589 270.968C419.939 271.214 425.322 271.35 430.705 271.487C432.965 271.542 435.258 271.596 437.518 271.651C437.518 269.985 437.518 268.318 437.584 266.652C435.291 266.57 432.965 266.652 430.672 266.788V266.816Z" fill="#6C6C65"/>
</g>
<g style="mix-blend-mode:multiply" opacity="0.37">
<path d="M409.502 303.967C411.928 304.131 414.354 304.377 416.779 304.732C420.535 305.251 424.256 305.989 427.912 306.808C431.634 307.655 435.322 308.639 438.978 309.677C439.144 309.731 439.31 309.786 439.476 309.813C439.31 309.267 439.144 308.721 438.978 308.174C438.645 307.027 438.512 305.934 438.379 304.76C438.246 303.339 438.114 301.919 438.047 300.498C433.328 301.29 428.576 302.001 423.824 302.601C419.072 303.202 414.287 303.667 409.469 303.967H409.502Z" fill="#6C6C65"/>
</g>
<g style="mix-blend-mode:multiply" opacity="0.37">
<path d="M424.392 322.298C421.269 321.997 418.145 321.724 415.055 321.424C417.58 321.97 420.073 322.571 422.532 323.281C428.779 325.03 434.86 327.215 440.875 329.455V326.122C440.111 325.358 439.313 324.62 438.615 323.8C438.216 323.746 437.851 323.718 437.452 323.664C433.099 323.145 428.746 322.708 424.392 322.298Z" fill="#6C6C65"/>
</g>
<g style="mix-blend-mode:multiply" opacity="0.37">
<path d="M410.666 352.866C407.243 350.189 403.621 347.649 399.932 345.19C396.211 342.732 392.356 340.382 388.468 338.088C384.912 336.012 381.29 333.99 377.668 331.996C377.734 332.078 377.801 332.16 377.867 332.242C379.894 334.919 381.822 337.678 383.749 340.41C385.71 343.223 387.637 346.064 389.598 348.905C391.525 351.719 393.486 354.533 395.546 357.292C396.908 359.149 398.337 361.007 399.8 362.837C400.431 362.837 401.029 362.837 401.66 362.837C402.325 362.755 402.99 362.673 403.654 362.537C404.219 362.427 404.817 362.318 405.382 362.154C406.047 361.99 406.711 361.826 407.409 361.663C410.666 360.898 413.79 359.832 416.814 358.603C416.98 358.521 417.179 358.439 417.345 358.385C415.219 356.472 412.992 354.587 410.699 352.812L410.666 352.866Z" fill="#6C6C65"/>
</g>
<g style="mix-blend-mode:multiply" opacity="0.37">
<path d="M7.18018 225.131C10.5365 224.394 13.926 223.711 17.2823 222.891C20.5389 222.099 23.7955 221.197 26.9191 220.023C29.8102 218.93 32.5351 217.592 34.9942 215.925C32.3357 215.106 29.5776 214.587 26.7862 214.259C21.1703 213.576 15.4546 213.576 9.80539 213.521C7.18017 213.494 4.52173 213.467 1.86328 213.357C2.4282 216.881 4.95373 219.968 4.88726 223.629C4.88726 224.312 4.8208 224.995 4.75434 225.677C5.58511 225.486 6.41587 225.322 7.21341 225.131H7.18018Z" fill="#6C6C65"/>
</g>
<g style="mix-blend-mode:multiply" opacity="0.37">
<path d="M18.3128 249.744C21.37 249.553 24.4604 249.362 27.5176 249.034C29.9102 248.761 32.3028 248.406 34.629 247.886C32.037 247.805 29.4782 247.695 26.8862 247.613C21.5694 247.449 16.2857 247.34 10.9688 247.367C8.57619 247.367 6.18359 247.422 3.82422 247.504C3.82422 248.597 3.82422 249.771 4.05683 250.891C5.71836 250.673 7.37989 250.509 9.07465 250.372C12.1651 250.126 15.2555 249.963 18.346 249.771L18.3128 249.744Z" fill="#6C6C65"/>
</g>
<g style="mix-blend-mode:multiply" opacity="0.37">
<path d="M19.2766 299.323C22.3338 298.585 25.4243 297.847 28.4815 297.11C30.5085 296.618 32.5356 296.099 34.5627 295.553C32.1368 295.853 29.7442 296.154 27.3184 296.427C21.1375 297.082 14.9234 297.602 8.70928 297.847C7.81206 297.875 6.91483 297.902 5.98438 297.929C6.18376 299.514 6.34991 301.125 6.48283 302.737C7.6459 302.382 8.77574 302.054 9.93881 301.726C13.0293 300.88 16.1529 300.087 19.2766 299.323Z" fill="#6C6C65"/>
</g>
<g style="mix-blend-mode:multiply" opacity="0.37">
<path d="M15.7528 319.511C19.4414 317.735 23.0967 315.959 26.6524 314.02C29.8426 312.272 32.9662 310.387 35.8241 308.283C35.6911 308.283 35.5914 308.311 35.4585 308.338C32.1687 308.884 28.9453 309.594 25.7552 310.441C22.4654 311.315 19.242 312.299 16.0851 313.392C12.8285 314.512 9.63836 315.713 6.48145 316.997C5.91653 317.243 5.35161 317.462 4.75346 317.708C4.75346 317.708 4.75346 317.735 4.75346 317.762C4.3547 318.418 3.75655 320.084 2.92578 320.549C3.12516 322.051 3.69008 323.581 4.28824 325.083C4.38793 325.029 4.48762 324.974 4.58731 324.919C8.27591 323.062 12.031 321.286 15.7528 319.511Z" fill="#6C6C65"/>
</g>
<g style="mix-blend-mode:multiply" opacity="0.37">
<path d="M29.0463 363.054C31.9706 358.684 35.1275 354.422 38.3509 350.215C41.3416 346.309 44.3656 342.402 47.3564 338.496C44.6315 339.971 42.0062 341.583 39.4807 343.249C34.4961 346.5 29.7774 350.051 25.1251 353.63C23.4968 354.859 21.9017 356.088 20.2734 357.318C20.938 357.973 21.5362 358.656 22.2008 359.339C23.8291 361.033 25.8229 362.289 28.1823 363C28.4814 363.027 28.7805 363.054 29.0463 363.082V363.054Z" fill="#6C6C65"/>
</g>
<g style="mix-blend-mode:multiply" opacity="0.37">
<path d="M77.6622 349.697C77.8948 345.599 77.7952 341.42 76.5324 337.432C75.6684 339.071 74.8044 340.737 74.0069 342.403C72.3786 345.791 70.9164 349.205 69.7201 352.702C69.0887 354.56 68.5238 356.472 68.0586 358.357C70.285 358.575 72.5447 358.794 74.7712 358.958C75.5022 359.012 76.2333 359.067 76.9644 359.094C77.1305 355.953 77.4961 352.839 77.6622 349.697Z" fill="#6C6C65"/>
</g>
<g style="mix-blend-mode:multiply" opacity="0.37">
<path d="M136.814 355.16C136.449 351.719 136.15 348.249 135.817 344.807C135.452 341.365 135.053 337.923 134.488 334.481C133.957 331.422 133.259 328.362 132.361 325.33C131.863 328.308 131.365 331.313 130.833 334.29C129.769 340.382 128.773 346.474 128.108 352.593C127.776 355.598 127.576 358.602 127.477 361.607C130.567 361.553 133.691 361.498 136.781 361.498C137.047 361.498 137.346 361.498 137.612 361.498C137.313 359.367 137.047 357.264 136.848 355.133L136.814 355.16Z" fill="#6C6C65"/>
</g>
<g style="mix-blend-mode:multiply" opacity="0.37">
<path d="M206.567 353.386C206.268 350.79 206.135 348.195 206.035 345.6C205.902 343.087 205.802 340.546 205.537 338.033C205.337 336.039 205.005 334.045 204.374 332.078C203.676 334.373 203.177 336.695 202.812 339.044C202.047 343.988 201.848 348.96 201.682 353.932C201.615 356.227 201.549 358.521 201.449 360.816C203.709 360.87 205.969 360.98 208.228 361.089C208.162 360.952 208.129 360.816 208.062 360.679C207.265 358.303 206.833 355.844 206.534 353.386H206.567Z" fill="#6C6C65"/>
</g>
<g style="mix-blend-mode:multiply" opacity="0.37">
<path d="M249.633 361.061C248.902 357.1 248.67 353.112 248.171 349.151C247.706 345.354 247.041 341.557 245.513 337.924C244.715 339.891 244.184 341.912 243.884 343.961C243.253 348.086 243.353 352.265 243.486 356.418C243.552 358.111 243.619 359.832 243.619 361.553C245.646 361.553 247.673 361.499 249.7 361.444C249.7 361.307 249.633 361.198 249.633 361.061Z" fill="#6C6C65"/>
</g>
<g style="mix-blend-mode:multiply" opacity="0.37">
<path d="M298.148 348.222C297.351 344.753 296.387 341.256 295.124 337.869C294.061 339.836 293.097 341.83 292.167 343.852C290.206 348.086 288.512 352.402 287.116 356.773C286.85 357.62 286.584 358.494 286.352 359.34C290.107 359.34 293.862 359.45 297.617 359.532C298.514 359.532 299.378 359.559 300.275 359.586C299.743 355.789 299.012 351.992 298.148 348.222Z" fill="#6C6C65"/>
</g>
<g style="mix-blend-mode:multiply" opacity="0.37">
<path d="M345.336 348.248C344.007 344.751 342.412 341.282 340.219 338.086C340.252 340.435 340.485 342.784 340.784 345.106C341.382 349.532 342.246 353.903 342.977 358.301C345.004 358.383 347.031 358.574 349.025 358.847C347.795 355.323 346.699 351.772 345.336 348.248Z" fill="#6C6C65"/>
</g>
<g style="mix-blend-mode:multiply" opacity="0.37">
<path d="M409.802 12.8748C408.207 15.6612 406.545 18.4202 404.95 21.2066C403.355 23.9656 401.76 26.7793 400.331 29.593C399.101 32.0242 397.971 34.4828 397.008 36.9959C397.041 36.9413 397.074 36.914 397.108 36.8594C399.666 33.7725 402.225 30.6857 404.717 27.5715C407.243 24.4573 409.735 21.3705 412.227 18.229C414.72 15.1149 417.179 12.0007 419.671 8.88653C420.535 7.79384 421.432 6.70115 422.296 5.60846C420.236 4.29724 417.677 3.39577 415.185 2.6582C414.886 3.2865 414.587 3.88748 414.288 4.51577C412.892 7.32945 411.363 10.0885 409.768 12.8202L409.802 12.8748Z" fill="#6C6C65"/>
</g>
<g style="mix-blend-mode:multiply" opacity="0.37">
<path d="M4.12208 173.719C8.27591 173.337 12.4297 172.845 16.5503 172.272C22.5651 171.425 28.5466 170.387 34.4616 169.075C31.8032 168.556 29.1779 167.983 26.5195 167.382C21.2026 166.18 15.9522 164.841 10.6353 163.721C8.07652 163.175 5.51777 162.683 2.92578 162.273C3.32455 162.929 3.78978 163.557 4.18854 164.213C4.65377 164.923 4.95285 165.442 5.71715 165.989C6.11592 166.262 6.54791 166.426 6.88022 166.753C9.07344 168.857 7.1793 170.66 5.38484 172.19C4.85316 172.627 4.45439 173.173 4.12208 173.719Z" fill="#6C6C65"/>
</g>
<g style="mix-blend-mode:multiply" opacity="0.52">
<path d="M440.839 42.5727V29.2966C440.739 29.16 440.673 29.0234 440.573 28.8595C438.247 25.3082 434.691 22.4126 431.867 19.1346C430.703 17.796 429.64 16.3755 428.743 14.9004C424.822 18.0146 420.867 21.1287 416.979 24.2429C401.361 36.6995 386.905 50.0576 372.284 63.3065C341.081 91.5525 310.043 119.908 277.71 147.28C244.978 174.979 211.814 202.324 178.217 229.286C161.502 242.699 144.721 256.002 127.84 269.251C119.399 275.889 110.925 282.5 102.452 289.083C95.573 294.437 88.8271 299.928 81.4832 304.873C68.8223 313.341 55.4304 321.044 43.3345 330.059C33.6644 337.271 23.5623 345.848 19.1094 356.229C20.206 357.185 21.1697 358.25 22.1666 359.316C23.7949 361.009 25.7887 362.266 28.1481 362.976C29.577 363.14 31.0392 363.222 32.5345 363.222H35.0268C36.489 362.867 37.8847 362.293 39.2471 361.61C43.9326 359.343 48.7511 357.841 54.2673 357.677C61.1128 357.458 67.9583 358.414 74.7374 358.933C78.3927 359.207 82.2807 359.425 85.9029 358.933C88.5945 358.551 90.8874 358.305 93.6124 358.769C95.0413 359.015 96.3373 359.534 97.6665 359.971C99.2948 360.518 100.89 360.791 102.618 361.009C106.506 361.501 110.427 361.692 114.348 361.774C121.792 361.911 129.236 361.501 136.712 361.556C144.688 361.61 152.63 361.447 160.605 361.146C168.149 360.846 175.692 360.627 183.235 360.982C184.498 360.736 185.761 360.49 187.057 360.381C189.084 360.19 191.177 360.381 193.204 360.654C193.769 360.736 194.367 360.818 194.932 360.9C195.099 360.9 195.265 360.9 195.431 360.9C199.684 360.764 203.905 360.927 208.158 361.146C216.3 361.556 224.441 361.61 232.616 361.638C246.971 361.692 261.194 361.392 275.45 359.917C282.794 359.152 290.204 359.425 297.582 359.589C305.158 359.753 312.668 359.589 320.245 359.07C327.489 358.606 334.733 358.087 341.978 358.305C349.355 358.524 356.234 360.108 363.445 361.146C376.006 362.949 388.866 362.73 401.627 362.894C402.291 362.812 402.956 362.73 403.62 362.594C404.185 362.485 404.784 362.375 405.348 362.211C406.013 362.047 406.678 361.884 407.376 361.72C410.632 360.955 413.756 359.889 416.78 358.66C418.175 358.087 419.538 357.458 420.9 356.885C422.13 356.366 423.326 355.792 424.523 355.191C427.081 353.88 429.574 352.487 431.999 351.066C433.129 350.41 434.259 349.755 435.389 349.099C436.452 348.471 437.449 347.815 438.313 346.996C438.479 346.832 438.646 346.668 438.812 346.504C440.108 343.663 440.839 340.603 440.839 337.407V326.125C439.443 324.705 437.881 323.394 437.15 321.591C436.918 321.072 436.785 320.498 436.718 319.952C436.652 319.405 436.552 318.804 436.785 318.258C437.25 317.138 438.346 316.209 439.144 315.253C439.576 314.734 440.108 314.106 440.241 313.478C440.34 312.986 440.174 312.412 440.041 311.92C439.742 310.637 439.31 309.407 438.945 308.151C438.612 307.003 438.479 305.911 438.346 304.736C438.18 303.152 438.047 301.54 437.981 299.955C437.815 296.677 437.748 293.399 437.848 290.121C437.881 288.537 437.948 286.925 438.047 285.341C437.183 275.671 437.482 265.973 437.948 256.248C437.815 255.729 437.682 255.237 437.549 254.718C436.951 252.15 436.718 249.501 436.519 246.905C436.319 244.338 435.954 241.77 435.854 239.175C435.788 237.426 435.921 235.733 436.452 234.039C437.15 231.881 438.18 229.805 438.812 227.62C438.812 226.527 438.745 225.461 438.712 224.369C438.479 218.796 437.715 213.278 437.15 207.705C436.585 201.996 436.386 196.259 436.386 190.523C436.386 183.202 436.785 175.881 437.25 168.587C435.489 168.259 433.727 168.041 431.966 167.713C431.8 167.686 431.767 167.549 431.833 167.44C432.066 167.003 432.332 166.566 432.631 166.128C433.761 164.517 435.223 163.096 436.718 161.703C437.05 161.375 437.416 161.075 437.748 160.747C437.848 159.19 437.948 157.633 438.047 156.076C438.413 150.421 438.745 144.739 438.945 139.084C439.144 133.375 438.413 127.802 437.848 122.12C437.582 119.416 437.416 116.739 437.482 114.035C437.582 111.194 438.114 108.353 438.38 105.512C438.911 99.8023 438.911 94.0657 438.579 88.3564C438.28 82.7837 437.848 77.1836 437.482 71.6109C437.283 68.8246 437.117 66.0655 436.918 63.2792C436.751 60.5201 436.353 57.7065 436.618 54.9747C437.05 50.6313 439.111 46.6157 440.772 42.5181L440.839 42.5727Z" fill="#6C6C65"/>
</g>
<path d="M422.362 54.5907V42.4345C422.362 42.4345 422.196 42.1613 422.129 42.0521C420.003 38.8013 416.746 36.1242 414.154 33.1467C412.825 31.6169 411.595 29.9232 410.665 28.2023C409.768 26.5359 409.269 24.7056 408.073 23.1759C405.547 19.8705 400.397 18.4773 396.11 17.3573C395.279 17.3027 394.448 17.248 393.618 17.248H390.893C380.491 18.5046 370.124 20.089 359.689 20.9359C354.937 21.3183 350.218 21.4003 345.466 21.209C340.648 21.0178 335.83 20.6627 331.011 20.4988C328.619 20.4168 326.193 20.3895 323.767 20.4988C321.441 20.5807 319.115 20.8812 316.788 21.0178C312.734 21.2364 308.647 21.0178 304.626 20.5534C300.439 20.089 296.318 19.4061 292.131 18.9417C287.645 18.45 283.192 18.2588 278.673 18.4773C269.335 18.9144 260.097 20.3076 250.726 20.5534C246.672 20.6627 242.618 20.5807 238.597 20.0617C236.37 19.7885 234.111 19.652 231.884 19.5154C226.169 19.2149 220.453 19.0783 214.771 18.7778C209.553 18.5046 204.27 18.1495 199.119 17.248H184.298C181.972 17.5759 179.679 17.8763 177.353 18.1768C167.384 19.4607 157.381 20.4988 147.312 20.9359C142.228 21.1544 137.244 21.0998 132.159 20.6081C127.274 20.1437 122.19 19.3515 117.272 19.9525C113.118 20.4715 109.23 21.9466 105.076 22.411C101.255 22.8481 97.8321 21.9193 94.3429 20.69C92.4156 20.0071 90.4882 19.3788 88.4611 19.0237C86.0021 18.5866 83.5098 18.7505 81.0507 19.0237C76.4649 19.4881 71.8126 20.3349 67.2268 19.3515C65.3326 18.9417 63.5714 18.2861 61.8102 17.6305C61.4779 17.5212 61.1456 17.3846 60.8133 17.2754H48.518C48.0195 17.2754 47.521 17.2754 47.0226 17.3027C45.926 17.5759 44.8294 17.849 43.7327 18.1222C41.9715 18.5593 40.4097 18.8598 38.582 18.969C38.3162 18.969 38.0171 18.9963 37.7512 19.0237C27.2171 22.5476 19.7403 31.0706 19.7403 40.9321V44.0189C20.3716 48.1165 20.9366 52.2414 20.4049 56.3663C20.272 57.459 20.0061 58.5244 19.7403 59.5897V74.0952C20.1058 74.942 20.5046 75.7888 20.9033 76.6084C21.7341 78.4659 22.0332 80.5967 23.6282 82.0991C24.2929 82.7001 25.323 83.5196 25.2233 84.3938C25.0904 85.7323 23.0301 86.306 22.2658 87.3167C21.3021 88.5733 20.6707 90.3762 20.0726 91.7967C19.9396 92.1245 19.8067 92.4523 19.707 92.7801V117.53C19.84 119.715 20.0061 121.928 20.139 124.14C20.3384 127.5 20.0726 130.751 19.707 134.029V149.846C19.707 150.037 19.7735 150.228 19.8067 150.419C20.1058 152.496 20.2055 154.544 20.2055 156.62C20.2055 158.615 19.9729 160.718 20.571 162.658C20.9366 163.914 21.7673 164.952 22.4984 166.072C22.9304 166.728 23.1962 167.22 23.8941 167.711C24.2596 167.957 24.6584 168.121 24.9575 168.421C26.9513 170.361 25.2565 172 23.595 173.393C22.0332 174.704 21.6344 176.671 21.1692 178.42C20.7039 180.059 20.5378 181.698 20.571 183.364C20.6375 185.522 21.003 187.653 21.1027 189.811C21.2024 192.106 21.1359 194.427 21.003 196.722C20.7372 201.175 20.0061 205.71 20.2055 210.19C20.3716 213.795 23.1298 216.8 23.0633 220.488C22.9969 224.668 21.435 228.629 22.0332 232.863C22.3987 235.513 22.1661 238.19 22.1661 240.839C22.1661 243.298 21.867 246.877 24.0602 248.843C24.1267 248.898 24.1599 249.035 24.0602 249.089C19.84 251.794 21.7341 257.776 22.6978 261.382C23.6282 264.906 25.0239 268.43 24.459 272.063C24.0602 274.604 23.5285 277.144 23.4289 279.712C23.3292 282.362 23.7279 285.039 24.0602 287.661C24.6584 292.715 25.323 297.905 24.4922 302.959C24.2596 304.379 23.8276 305.445 23.0633 306.729C22.6978 307.33 22.1329 308.859 21.3686 309.269C21.6676 311.591 22.9636 314.022 23.7279 316.262C24.1932 317.628 24.1599 318.584 23.2627 319.841C22.5981 320.77 21.6344 321.589 21.1359 322.573C20.4049 324.048 21.2024 325.823 21.7341 327.298C22.5316 329.456 23.0966 331.478 23.0966 333.745C23.0966 334.346 23.0966 334.975 23.0301 335.576C23.5285 336.34 24.0602 337.078 24.6252 337.788C26.1205 338.034 27.6159 338.362 29.0781 338.744C30.7396 339.154 32.4343 339.618 33.8965 340.356C36.0897 341.449 37.4854 343.142 39.0472 344.754C40.5426 346.311 42.3703 347.459 44.5303 348.114C45.8595 348.278 47.1887 348.36 48.5512 348.36H50.8441C52.1733 348.032 53.4361 347.513 54.6988 346.885C59.0188 344.809 63.4053 343.443 68.4563 343.279C74.7369 343.06 80.9842 343.962 87.1983 344.426C90.5546 344.672 94.0771 344.891 97.4334 344.426C99.8924 344.071 102.019 343.853 104.511 344.29C105.807 344.508 107.004 345 108.233 345.41C109.729 345.901 111.191 346.175 112.786 346.366C116.342 346.803 119.93 346.994 123.553 347.049C130.365 347.185 137.21 346.803 144.023 346.858C151.333 346.912 158.578 346.748 165.888 346.475C171.803 346.229 177.685 346.065 183.6 346.229C183.866 346.175 184.132 346.147 184.398 346.093C186.458 345.765 188.552 345.519 190.645 345.355C191.642 345.273 192.606 345.246 193.603 345.219C194.6 345.219 195.63 345.355 196.627 345.492C198.022 345.683 199.418 345.929 200.814 346.175C203.705 346.175 206.596 346.311 209.487 346.448C216.964 346.83 224.407 346.858 231.884 346.912C245.044 346.967 258.037 346.694 271.096 345.355C277.809 344.672 284.588 344.891 291.367 345.055C298.312 345.219 305.191 345.055 312.103 344.59C318.716 344.18 325.362 343.689 332.008 343.88C338.754 344.071 345.068 345.546 351.681 346.502C363.178 348.141 374.975 347.95 386.639 348.114C387.237 348.032 387.869 347.95 388.467 347.841C388.999 347.759 389.53 347.622 390.029 347.513C390.627 347.349 391.258 347.213 391.89 347.076C394.847 346.366 397.738 345.382 400.496 344.29C401.759 343.771 403.022 343.197 404.285 342.651C405.414 342.159 406.511 341.64 407.574 341.094C409.901 339.892 412.193 338.635 414.453 337.324C415.483 336.723 416.513 336.122 417.544 335.521C418.507 334.947 419.438 334.346 420.235 333.609C420.401 333.472 420.534 333.308 420.701 333.144C421.897 330.549 422.561 327.736 422.561 324.813V314.459C421.265 313.148 419.87 311.946 419.172 310.307C418.973 309.815 418.84 309.324 418.773 308.805C418.707 308.286 418.64 307.767 418.84 307.275C419.272 306.237 420.269 305.417 421 304.516C421.398 304.051 421.864 303.478 421.996 302.904C422.096 302.467 421.93 301.921 421.83 301.484C421.565 300.309 421.166 299.189 420.833 298.014C420.534 296.976 420.401 295.966 420.302 294.9C420.136 293.452 420.036 291.977 419.969 290.529C419.803 287.525 419.77 284.52 419.837 281.515C419.87 280.04 419.936 278.592 420.003 277.144C419.205 268.266 419.471 259.388 419.903 250.51C419.77 250.045 419.637 249.581 419.537 249.117C419.006 246.74 418.773 244.336 418.574 241.959C418.374 239.61 418.075 237.234 417.976 234.884C417.909 233.3 418.042 231.743 418.541 230.186C419.205 228.219 420.102 226.307 420.701 224.313C420.701 223.329 420.667 222.318 420.601 221.335C420.401 216.227 419.67 211.173 419.172 206.065C418.64 200.847 418.474 195.575 418.474 190.33C418.474 183.637 418.84 176.917 419.238 170.224C417.643 169.924 416.015 169.733 414.387 169.432C414.254 169.432 414.221 169.268 414.254 169.186C414.486 168.777 414.719 168.367 414.985 167.984C416.015 166.509 417.377 165.198 418.74 163.941C419.039 163.641 419.371 163.368 419.67 163.067C419.77 161.647 419.87 160.226 419.969 158.779C420.302 153.588 420.634 148.398 420.8 143.208C420.966 137.99 420.302 132.854 419.803 127.664C419.571 125.206 419.405 122.72 419.471 120.261C419.571 117.639 420.036 115.071 420.302 112.449C420.8 107.231 420.767 101.959 420.501 96.7411C420.235 91.6328 419.837 86.5245 419.471 81.4162C419.305 78.8757 419.139 76.3352 418.973 73.7947C418.806 71.2815 418.441 68.7137 418.707 66.1732C419.072 62.1849 421 58.5244 422.495 54.7546L422.362 54.5907Z" fill="#C98F5D"/>
<g style="mix-blend-mode:screen">
<g style="mix-blend-mode:screen">
<path d="M20.1371 156.539C20.1371 158.205 20.0042 159.953 20.27 161.647C22.2971 156.894 22.7291 151.649 22.862 146.677C22.9949 141.05 22.6294 135.45 22.4632 129.822C22.2639 123.703 22.43 117.612 22.1642 111.492C22.0312 108.023 21.8983 104.554 21.8319 101.085C21.8319 98.4075 21.8983 95.7851 22.862 93.2173C24.59 88.546 28.6441 84.9675 32.8976 81.7167C29.2091 82.0172 25.4872 81.3343 23.6263 78.4387C21.8319 75.625 21.998 72.1011 22.1974 69.0415C22.4965 64.6708 22.5962 60.382 22.43 56.0112C22.2306 50.8483 21.9316 45.658 22.7291 40.5224C23.3937 36.2609 25.3875 32.1906 28.6109 28.8033C31.4355 25.7984 35.3899 23.1486 40.0755 22.6296C42.6674 22.3291 46.3893 21.7281 48.4828 23.4218C49.38 24.132 49.8785 25.1155 50.3437 26.0442C51.1745 27.6833 51.8391 29.3496 52.6366 31.016C53.9658 33.775 55.6606 36.4521 57.156 39.1565C58.6846 41.8882 60.18 44.6473 61.6753 47.4063C64.367 52.4053 66.959 57.4044 69.5842 62.4308C67.7233 48.2805 56.4914 36.2609 53.3677 22.3291C53.3677 22.1925 53.4341 22.1106 53.6003 22.0832C59.2163 21.7554 64.2341 24.1594 69.6507 24.8969C72.442 25.2794 75.2666 25.0881 77.9916 24.5145C80.4174 23.9955 82.81 23.2852 85.3355 23.0667C87.6284 22.8481 90.1539 23.012 92.4136 23.2852C93.9422 23.4491 95.4708 23.7769 96.8333 24.3233C99.093 25.252 100.555 26.8911 101.718 28.694C103.247 31.016 104.676 33.3106 106.802 35.3321C107.833 33.0101 107.035 30.8521 107.234 28.4482C107.367 26.9457 108.497 25.252 110.425 24.8969C112.518 24.5145 114.944 24.9789 117.004 25.2794C119.43 25.6072 121.989 26.2355 124.448 26.0989C131.759 25.6891 139.103 25.853 146.413 25.9623C150.002 26.0169 153.658 26.1808 157.213 25.935C160.57 25.7164 163.893 25.1155 167.149 24.4052C173.496 22.9847 179.611 20.9632 186.057 19.8159C192.936 18.5866 200.214 18.7232 207.225 18.3954C207.458 18.3954 207.657 18.3954 207.89 18.3681C204.932 18.1223 201.975 17.7944 199.084 17.3027H184.263C181.937 17.6305 179.644 17.931 177.318 18.2315C167.349 19.5154 157.346 20.5535 147.277 20.9906C142.193 21.2091 137.208 21.1545 132.124 20.6628C127.239 20.1984 122.155 19.4062 117.237 20.0071C113.083 20.5262 109.195 22.0013 105.041 22.4657C101.22 22.9028 97.797 21.974 94.3078 20.7447C92.3804 20.0618 90.453 19.4335 88.426 19.0784C85.9669 18.6413 83.4746 18.8052 81.0155 19.0784C76.4297 19.5427 71.7774 20.3896 67.1916 19.4062C65.2975 18.9964 63.5362 18.3408 61.775 17.6852C61.4427 17.5759 61.1104 17.4393 60.7781 17.3301H48.4828C47.9843 17.3301 47.4859 17.3301 46.9874 17.3574C45.8908 17.6305 44.7942 17.9037 43.6976 18.1769C41.9364 18.614 40.3745 18.9144 38.5468 19.0237C38.281 19.0237 37.9819 19.051 37.7161 19.0784C27.182 22.6023 19.7051 31.1252 19.7051 40.9868V44.0736C20.3365 48.1712 20.9014 52.2961 20.3697 56.421C20.2368 57.5137 19.9709 58.579 19.7051 59.6444V74.1499C20.0706 74.9967 20.4694 75.8435 20.8682 76.663C21.6989 78.5206 21.998 80.6514 23.5931 82.1538C24.2577 82.7548 25.2878 83.5743 25.1882 84.4484C25.0552 85.787 22.9949 86.3606 22.2306 87.3714C21.2669 88.628 20.6356 90.4309 20.0374 91.8514C19.9045 92.1792 19.7716 92.507 19.6719 92.8348V117.584C19.8048 119.77 19.971 121.982 20.1039 124.195C20.3033 127.555 20.0374 130.806 19.6719 134.084V149.9C19.6719 150.092 19.7383 150.283 19.7716 150.474C20.0706 152.55 20.1703 154.599 20.1703 156.675L20.1371 156.539Z" fill="#EF9220"/>
</g>
<g style="mix-blend-mode:screen">
<path d="M418.57 308.669C418.504 308.15 418.437 307.631 418.637 307.139C419.069 306.101 420.066 305.281 420.797 304.38C421.195 303.916 421.661 303.342 421.794 302.768C421.893 302.331 421.727 301.785 421.628 301.348C421.362 300.173 420.963 299.053 420.631 297.879C420.332 296.84 420.199 295.83 420.099 294.764C419.966 293.453 419.866 292.142 419.8 290.858C419.036 293.644 417.972 296.403 416.41 299.026C415.181 301.075 413.719 303.123 411.924 304.899C410.728 306.046 409.299 307.084 407.538 307.549C405.743 308.041 403.849 307.904 402.021 307.549C400.46 307.276 398.964 306.866 397.469 306.401C399.994 307.33 402.686 308.013 405.311 308.778C408.435 309.707 411.758 310.608 414.483 312.22C415.413 312.766 416.377 313.422 416.709 314.351C417.075 315.416 417.075 316.591 416.975 317.683C416.743 320.552 415.879 323.393 414.716 326.097C414.25 327.163 413.719 328.255 412.988 329.211C412.09 330.386 410.728 331.397 409.465 332.298C406.773 334.238 403.583 335.849 399.994 336.232C393.481 336.915 387.965 333.2 384.01 329.403C380.122 325.66 377.032 321.371 374.141 317.028C374.739 318.175 375.371 319.295 376.035 320.415C380.056 327.026 385.606 333.691 385.639 341.34C385.639 341.449 385.539 341.531 385.406 341.531C382.116 341.531 378.993 342.488 375.869 343.225C374.374 343.58 372.812 343.935 371.25 344.017C369.721 344.127 368.193 344.045 366.664 343.881C361.547 343.307 356.928 341.313 352.009 340.138C349.085 339.428 346.094 339.155 343.07 339.237C340.246 339.319 337.421 339.647 334.63 339.865C331.838 340.084 329.047 340.166 326.289 339.865C325.857 339.81 325.458 339.756 325.026 339.701C322.567 340.329 319.975 340.521 317.283 340.411C313.229 340.248 309.275 339.483 305.287 338.964C303.127 338.69 300.868 338.417 298.674 338.527C296.282 338.663 294.055 339.346 291.829 340.029C287.708 341.286 283.422 342.05 279.002 342.214C274.084 342.406 269.099 342.132 264.38 343.471C264.281 343.471 264.148 343.471 264.115 343.389C261.855 339.565 261.223 335.139 258.499 331.506C258.598 334.265 259.163 337.051 258.432 339.783C257.934 341.613 255.774 344.154 253.182 343.608C251.653 343.28 250.424 342.87 248.762 342.979C245.937 343.143 243.146 343.198 240.321 343.225C234.905 343.28 229.521 343.225 224.105 343.307C215.099 343.498 205.828 344.427 196.856 343.444C193.333 343.061 189.279 342.324 186.421 340.466C184.129 338.991 182.965 336.696 182.301 334.429C180.54 328.583 181.005 322.273 177.217 316.946C175.721 325.278 179.077 333.473 179.144 341.805C179.144 341.887 179.077 341.969 178.978 341.996C169.142 343.416 159.106 343.908 149.137 343.826C140.065 343.771 130.96 343.252 121.954 342.351C117.568 341.914 113.214 341.286 108.828 340.958C103.91 340.603 98.9917 340.548 94.0736 340.439C89.5543 340.329 85.0349 340.22 80.5488 339.728C78.6214 339.51 76.827 339.155 75.0325 338.472C73.4707 337.871 72.0085 337.106 70.3138 336.751C62.2387 335.03 55.9914 340.903 48.149 340.466C48.016 340.466 47.8831 340.357 47.9163 340.22C50.3422 332.981 55.9581 326.48 56.9218 318.94C50.5748 325.032 48.4148 333.227 42.2339 339.428C42.1342 339.51 42.0013 339.483 41.9016 339.428C37.8807 336.778 32.0321 336.669 28.2106 333.691C26.7152 332.544 26.25 331.397 27.2801 329.894C27.9115 328.993 28.8088 328.173 29.3737 327.217C30.2044 325.824 29.0081 324.513 28.1109 323.365C27.546 322.683 26.8814 321.945 26.7152 321.098C26.5158 320.06 26.7817 318.913 26.9811 317.875C27.4463 315.635 28.3768 313.477 28.5429 311.209C29.0081 305.281 27.2801 299.354 27.1472 293.426C27.0808 290.23 27.8118 287.143 28.1774 283.974C28.5429 280.887 28.7423 277.773 28.8088 274.659C28.9417 268.458 28.5097 262.284 28.0112 256.083C27.546 250.374 27.0475 244.637 27.0808 238.901C27.0808 236.715 27.4795 234.475 27.2469 232.29C27.0475 230.405 26.5491 228.547 26.2832 226.663C25.8845 224.095 25.5189 220.38 29.4401 219.642C33.6604 218.85 38.7447 221.527 42.6327 219.396C37.8142 218.877 32.6303 218.686 28.2106 216.828C24.7214 215.381 22.2291 212.676 21.5313 209.507C20.6673 205.792 21.2322 201.913 21.3319 198.171C21.3651 196.422 21.2654 194.674 21.066 192.926C21.066 194.128 20.9996 195.357 20.9331 196.559C20.6673 201.012 19.9362 205.546 20.1356 210.026C20.3017 213.632 23.0599 216.637 22.9934 220.325C22.9269 224.504 21.3651 228.465 21.9633 232.7C22.3288 235.349 22.0962 238.027 22.0962 240.676C22.0962 243.135 21.7971 246.713 23.9903 248.68C24.0568 248.735 24.09 248.871 23.9903 248.926C19.77 251.63 21.6642 257.613 22.6279 261.219C23.5583 264.743 24.954 268.267 24.3891 271.9C23.9903 274.44 23.4586 276.981 23.3589 279.549C23.2592 282.198 23.658 284.876 23.9903 287.498C24.5885 292.552 25.2531 297.742 24.4223 302.796C24.1897 304.216 23.7577 305.281 22.9934 306.565C22.6279 307.166 22.0629 308.696 21.2986 309.106C21.5977 311.428 22.8937 313.859 23.658 316.099C24.1232 317.465 24.09 318.421 23.1928 319.678C22.5282 320.606 21.5645 321.426 21.066 322.409C20.335 323.885 21.1325 325.66 21.6642 327.135C22.4617 329.293 23.0266 331.315 23.0266 333.582C23.0266 334.183 23.0266 334.811 22.9602 335.412C23.4586 336.177 23.9903 336.915 24.5552 337.625C26.0506 337.871 27.546 338.199 29.0081 338.581C30.6697 338.991 32.3644 339.455 33.8266 340.193C36.0198 341.286 37.4155 342.979 38.9773 344.591C40.4727 346.148 42.3004 347.295 44.4604 347.951C45.7896 348.115 47.1188 348.197 48.4813 348.197H50.7742C52.1034 347.869 53.3662 347.35 54.6289 346.722C58.9489 344.646 63.3353 343.28 68.3864 343.116C74.667 342.897 80.9143 343.799 87.1284 344.263C90.4847 344.509 94.0072 344.728 97.3634 344.263C99.8225 343.908 101.949 343.689 104.442 344.127C105.738 344.345 106.934 344.837 108.163 345.247C109.659 345.738 111.121 346.011 112.716 346.203C116.272 346.64 119.861 346.831 123.483 346.886C130.295 347.022 137.14 346.64 143.953 346.694C151.263 346.749 158.508 346.585 165.818 346.312C171.734 346.066 177.615 345.902 183.53 346.066C183.796 346.011 184.062 345.984 184.328 345.93C186.388 345.602 188.482 345.356 190.575 345.192C191.572 345.11 192.536 345.083 193.533 345.055C194.53 345.055 195.56 345.192 196.557 345.329C197.952 345.52 199.348 345.766 200.744 346.011C203.635 346.011 206.526 346.148 209.417 346.285C216.894 346.667 224.338 346.694 231.814 346.749C244.974 346.804 257.967 346.53 271.026 345.192C277.739 344.509 284.518 344.728 291.297 344.891C298.242 345.055 305.121 344.891 312.033 344.427C318.646 344.017 325.292 343.526 331.938 343.717C338.684 343.908 344.998 345.383 351.611 346.339C363.108 347.978 374.905 347.787 386.569 347.951C387.167 347.869 387.799 347.787 388.397 347.678C388.929 347.596 389.46 347.459 389.959 347.35C390.557 347.186 391.188 347.05 391.82 346.913C394.777 346.203 397.668 345.219 400.426 344.127C401.689 343.608 402.952 343.034 404.215 342.488C405.345 341.996 406.441 341.477 407.505 340.93C409.831 339.728 412.124 338.472 414.383 337.161C415.413 336.56 416.444 335.959 417.474 335.358C418.437 334.784 419.368 334.183 420.165 333.446C420.332 333.309 420.464 333.145 420.631 332.981C421.827 330.386 422.492 327.572 422.492 324.649V314.296C421.195 312.985 419.8 311.783 419.102 310.144C418.903 309.652 418.77 309.161 418.703 308.642L418.57 308.669Z" fill="#EF9220"/>
</g>
<path d="M280.202 22.5758C283.858 23.0949 287.746 23.4227 291.334 22.6305C294.491 21.9202 297.482 20.609 300.705 20.1173C300.805 20.1173 300.905 20.1173 301.038 20.09C298.047 19.6802 295.056 19.2431 292.032 18.9153C287.546 18.4236 283.093 18.2324 278.574 18.4509C273.157 18.6968 267.774 19.2705 262.391 19.7622C268.372 20.4451 274.187 21.729 280.169 22.6032L280.202 22.5758Z" fill="#828078"/>
<g style="mix-blend-mode:screen">
<path d="M318.284 22.3837C324.864 23.8589 331.477 25.334 338.389 24.9789C345.833 24.6237 353.243 23.695 360.62 22.8208C364.01 22.4111 367.399 22.0286 370.822 21.7008C373.846 21.4276 376.837 21.0179 379.894 20.9086C383.882 20.772 387.836 21.1545 391.458 22.6296C395.512 24.2686 399.001 26.7818 402.557 29.0491C402.657 29.1038 402.624 29.2404 402.557 29.3223C397.207 33.7477 392.688 39.0746 386.274 42.4892C380.924 45.3302 374.378 47.1331 369.958 51.0668C382.486 46.3409 392.422 38.1184 404.717 33.0101C404.85 32.9555 404.983 33.0101 405.049 33.1194C407.575 38.5282 415.318 41.178 417.012 46.9419C417.91 50.0561 416.58 52.9244 415.052 55.738C414.121 57.4317 413.124 59.1254 412.526 60.9283C411.828 63.0317 412.726 64.9986 412.427 67.102C412.094 69.4786 409.469 70.1889 408.339 72.183C407.608 73.4942 408.439 75.2972 409.037 76.5538C409.702 77.9196 410.532 79.2309 411.33 80.5421C412.925 83.2192 414.022 85.787 414.254 88.7646C414.52 92.5616 414.587 96.3314 414.553 100.129C414.487 107.723 413.988 115.317 413.723 122.938C413.59 126.572 413.158 130.369 413.689 133.975C413.922 135.559 414.354 137.116 414.62 138.728C414.686 139.192 414.852 139.793 414.753 140.258C414.62 140.858 414.022 141.569 413.656 142.088C412.659 143.508 411.264 144.847 410.632 146.431C410.134 147.742 410.034 149.19 410.333 150.556C410.832 152.687 412.327 154.544 412.859 156.648C413.756 160.199 412.692 165.362 407.741 166.427C404.917 167.028 401.826 166.755 398.935 166.946C394.382 167.274 389.83 167.657 385.31 168.121C376.87 168.995 368.496 170.252 360.221 171.891C370.922 171.727 381.622 170.607 392.322 171.208C396.509 171.454 401.029 171.864 404.917 173.257C407.874 174.295 409.502 176.617 410.4 179.048C411.563 182.217 411.762 185.577 412.094 188.855C412.493 192.816 413.656 196.722 413.656 200.738C413.656 204.999 412.626 209.288 413.39 213.55C413.822 215.872 414.886 217.893 415.949 220.051C417.046 222.236 417.976 224.449 418.807 226.716C418.94 227.099 419.073 227.481 419.206 227.891C419.704 226.662 420.203 225.46 420.568 224.203C420.568 223.22 420.535 222.209 420.468 221.226C420.269 216.117 419.538 211.064 419.04 205.955C418.508 200.738 418.342 195.466 418.342 190.221C418.342 183.528 418.707 176.808 419.106 170.115C417.511 169.815 415.883 169.624 414.254 169.323C414.121 169.323 414.088 169.159 414.121 169.077C414.354 168.667 414.587 168.258 414.852 167.875C415.883 166.4 417.245 165.089 418.608 163.832C418.907 163.532 419.239 163.259 419.538 162.958C419.638 161.538 419.737 160.117 419.837 158.669C420.169 153.479 420.502 148.289 420.668 143.099C420.834 137.881 420.169 132.745 419.671 127.555C419.438 125.096 419.272 122.611 419.339 120.152C419.438 117.53 419.904 114.962 420.169 112.339C420.668 107.122 420.635 101.85 420.369 96.6319C420.103 91.5236 419.704 86.4153 419.339 81.307C419.172 78.7665 419.006 76.226 418.84 73.6855C418.674 71.1723 418.308 68.6045 418.574 66.064C418.94 62.0756 420.867 58.4151 422.363 54.6454V42.4892C422.363 42.4892 422.196 42.216 422.13 42.1068C420.003 38.856 416.747 36.1789 414.155 33.2014C412.825 31.6716 411.596 29.9779 410.665 28.2569C409.768 26.5906 409.27 24.7603 408.073 23.2306C405.548 19.9252 400.397 18.532 396.11 17.412C395.28 17.3574 394.449 17.3027 393.618 17.3027H390.893C380.492 18.5593 370.124 20.1437 359.69 20.9906C354.938 21.373 350.219 21.4549 345.467 21.2637C340.649 21.0725 335.83 20.7174 331.012 20.5535C328.619 20.4715 326.193 20.4442 323.767 20.5535C321.441 20.6354 319.115 20.9359 316.789 21.0725C315.227 21.1545 313.699 21.1818 312.137 21.1271C314.23 21.5096 316.291 21.974 318.318 22.4384L318.284 22.3837Z" fill="#EF9220"/>
</g>
</g>
<g style="mix-blend-mode:multiply" opacity="0.39">
<path d="M356.529 322.435C355.997 321.834 355.133 321.424 354.236 321.287C351.977 320.905 349.285 321.451 348.122 323.227C347.723 323.828 347.524 324.511 347.524 325.167C347.391 325.549 347.324 325.931 347.324 326.314C347.391 327.27 347.889 328.062 348.853 328.608C352.409 330.63 356.961 327.461 357.194 324.374C357.26 323.691 357.061 322.981 356.562 322.407L356.529 322.435Z" fill="#6C6C65"/>
<path d="M368.858 325.794C368.659 325.275 368.26 324.893 367.762 324.565C367.596 324.456 367.43 324.346 367.23 324.264C366.964 324.155 366.665 324.046 366.399 323.991C366.001 323.909 365.602 323.909 365.17 323.991C364.439 324.128 363.841 324.483 363.409 324.975C363.409 324.975 363.375 325.029 363.342 325.057C363.276 325.193 363.176 325.302 363.11 325.439C363.043 325.603 363.01 325.794 362.977 325.958C362.977 326.095 362.977 326.231 362.977 326.368C362.977 326.477 362.91 326.586 362.91 326.723C362.91 326.996 362.91 327.297 363.043 327.542C363.209 327.87 363.409 328.143 363.741 328.362C364.106 328.58 364.605 328.69 365.037 328.69C365.635 328.69 366.2 328.58 366.732 328.417C367.23 328.28 367.695 328.007 368.061 327.706C368.659 327.242 369.025 326.45 368.759 325.794H368.858Z" fill="#6C6C65"/>
<path d="M368.692 312.519C368.459 311.536 367.462 310.743 366.266 310.552C364.804 310.306 363.275 310.634 362.212 311.481C361.68 311.891 361.314 312.464 361.281 313.065C361.281 313.339 361.314 313.584 361.414 313.83C361.348 314.704 361.879 315.633 362.81 316.043C364.139 316.617 365.634 316.453 366.897 315.824C368.293 315.142 368.958 313.803 368.692 312.519Z" fill="#6C6C65"/>
<path d="M337.127 319.183C337.127 319.183 337.06 319.074 336.994 319.019C336.927 318.937 336.828 318.883 336.695 318.883C336.695 318.883 336.628 318.883 336.595 318.883C336.495 318.883 336.396 318.883 336.296 318.855C336.296 318.855 336.296 318.855 336.263 318.855C336.13 318.855 335.997 318.855 335.864 318.855C335.864 318.855 335.864 318.855 335.831 318.855C335.731 318.855 335.598 318.91 335.498 318.937C335.166 319.047 334.867 319.265 334.668 319.511C334.568 319.62 334.535 319.73 334.501 319.839C334.468 319.948 334.468 320.057 334.501 320.167C334.535 320.221 334.568 320.303 334.601 320.358C334.668 320.44 334.767 320.522 334.9 320.549C334.967 320.604 335.066 320.604 335.166 320.604C335.299 320.604 335.432 320.604 335.565 320.604C335.565 320.604 335.631 320.604 335.665 320.631C335.764 320.631 335.864 320.658 335.997 320.631C336.063 320.631 336.163 320.631 336.229 320.604C336.362 320.604 336.462 320.522 336.562 320.467C336.628 320.413 336.695 320.385 336.761 320.331C336.828 320.276 336.861 320.221 336.927 320.167C336.994 320.085 337.027 320.03 337.027 319.948C337.027 319.894 337.027 319.866 337.06 319.812C337.06 319.812 337.06 319.784 337.06 319.757C337.06 319.757 337.06 319.73 337.06 319.702C337.06 319.675 337.06 319.62 337.093 319.593C337.093 319.538 337.127 319.456 337.16 319.402C337.16 319.293 337.16 319.211 337.093 319.129L337.127 319.183Z" fill="#6C6C65"/>
<path d="M332.106 329.947C332.106 329.947 332.073 329.892 332.04 329.838C332.006 329.756 332.006 329.756 331.973 329.728C332.737 330.329 331.807 329.592 331.774 329.564L331.508 329.455C331.441 329.455 331.408 329.455 331.342 329.455C331.275 329.455 331.242 329.455 331.176 329.455C330.976 329.455 330.81 329.455 330.644 329.537C330.577 329.537 330.511 329.564 330.478 329.592C330.345 329.646 330.245 329.701 330.112 329.756C330.013 329.81 329.88 329.892 329.813 329.974C329.78 330.001 329.747 330.029 329.713 330.083C329.713 330.083 329.68 330.111 329.647 330.138C329.614 330.165 329.581 330.22 329.547 330.247C329.481 330.275 329.414 330.329 329.348 330.384C329.281 330.438 329.215 330.493 329.182 330.575C329.182 330.602 329.149 330.63 329.115 330.684C329.049 330.794 329.016 330.848 329.016 330.985C329.016 331.067 329.016 331.149 329.016 331.231C329.049 331.367 329.149 331.449 329.281 331.531C329.414 331.613 329.581 331.64 329.747 331.64C329.946 331.64 330.145 331.613 330.345 331.586C330.478 331.586 330.577 331.531 330.71 331.504C330.71 331.504 331.043 331.422 331.076 331.395C331.342 331.313 331.408 331.258 331.574 331.121C331.641 331.094 331.674 331.039 331.741 331.012C331.84 330.93 331.907 330.821 331.973 330.739C331.973 330.712 332.006 330.684 332.04 330.657C332.139 330.493 332.106 330.575 332.106 330.52L332.173 330.275C332.173 330.193 332.173 330.111 332.173 330.029L332.106 329.947Z" fill="#6C6C65"/>
<path d="M332.105 329.946C332.105 329.919 332.637 330.929 332.105 329.946V329.946Z" fill="#6C6C65"/>
</g>
<g style="mix-blend-mode:multiply" opacity="0.39">
<path d="M59.2869 51.6125C58.7552 51.0116 57.8912 50.6018 56.994 50.4652C54.7343 50.0828 52.0426 50.6291 50.8796 52.4047C50.4808 53.0057 50.2814 53.6886 50.2814 54.3443C50.1485 54.7267 50.082 55.1091 50.082 55.4916C50.1153 56.4477 50.647 57.2399 51.6106 57.7862C55.1663 59.8077 59.7189 56.6389 59.9515 53.5521C60.018 52.8691 59.8186 52.1589 59.3201 51.5852L59.2869 51.6125Z" fill="#6C6C65"/>
<path d="M71.6162 54.9992C71.4169 54.4801 71.0181 54.0977 70.5196 53.7699C70.3535 53.6606 70.1873 53.5514 69.9879 53.4694C69.7221 53.3601 69.423 53.2509 69.1572 53.1962C68.7584 53.1143 68.3596 53.1143 67.9276 53.1962C67.1966 53.3328 66.5984 53.6879 66.1664 54.1797C66.1664 54.207 66.1332 54.2343 66.1 54.2616C66.0335 54.3982 65.9338 54.5075 65.8674 54.644C65.8009 54.8079 65.7677 54.9992 65.7344 55.1631C65.7344 55.2997 65.7344 55.4362 65.7344 55.5728C65.7344 55.6821 65.668 55.7914 65.668 55.928C65.668 56.2011 65.668 56.5016 65.8009 56.7475C65.967 57.0753 66.1664 57.3484 66.4987 57.567C66.8643 57.7855 67.3627 57.8948 67.7947 57.8948C68.3929 57.8948 68.9578 57.7855 69.4895 57.6216C69.9879 57.485 70.4532 57.2119 70.8187 56.9114C71.4169 56.447 71.7824 55.6548 71.5166 54.9992H71.6162Z" fill="#6C6C65"/>
<path d="M71.4495 41.7241C71.2169 40.7407 70.22 39.9485 69.0237 39.7573C67.5615 39.5115 66.0329 39.8393 64.9695 40.6861C64.4378 41.0958 64.0723 41.6968 64.0391 42.2705C64.0391 42.5437 64.0723 42.7895 64.172 43.0354C64.1055 43.9095 64.6372 44.8383 65.5677 45.2481C66.8969 45.8217 68.3923 45.6578 69.655 45.0295C71.0507 44.3466 71.7153 43.0081 71.4495 41.7241Z" fill="#6C6C65"/>
<path d="M39.8806 48.3903C39.8806 48.3903 39.8141 48.281 39.7477 48.2264C39.6812 48.1445 39.5815 48.0898 39.4486 48.0898C39.4486 48.0898 39.3821 48.0898 39.3489 48.0898C39.2492 48.0898 39.1495 48.0898 39.0498 48.0625C39.0498 48.0625 39.0498 48.0625 39.0166 48.0625C38.8837 48.0625 38.7508 48.0625 38.6178 48.0625C38.6178 48.0625 38.6178 48.0625 38.5846 48.0625C38.4849 48.0625 38.352 48.1171 38.2523 48.1444C37.92 48.2537 37.6209 48.4723 37.4215 48.7181C37.3219 48.8274 37.2886 48.9366 37.2554 49.0459C37.2222 49.1552 37.2222 49.2645 37.2554 49.3737C37.2886 49.4284 37.3219 49.5103 37.3551 49.5649C37.4215 49.6469 37.5212 49.7288 37.6542 49.7562C37.7206 49.8108 37.8203 49.8108 37.92 49.8108C38.0529 49.8108 38.1858 49.8108 38.3188 49.8108H38.4185C38.4185 49.8108 38.6178 49.8654 38.7508 49.8654C38.8172 49.8654 38.9169 49.8654 38.9834 49.8381C39.1163 49.8381 39.216 49.7562 39.3157 49.7015C39.3821 49.6469 39.4486 49.6196 39.5151 49.5649C39.5815 49.5103 39.6148 49.4557 39.6812 49.401C39.7477 49.3191 39.7809 49.2645 39.7809 49.1825C39.7809 49.1279 39.7809 49.1006 39.8141 49.0459C39.8141 49.0459 39.8141 49.0186 39.8141 48.9913C39.8141 48.9913 39.8141 48.964 39.8141 48.9367C39.8141 48.9093 39.8141 48.8547 39.8474 48.8274C39.8474 48.7727 39.8806 48.6908 39.9138 48.6362C39.9138 48.5269 39.9138 48.4449 39.8474 48.363L39.8806 48.3903Z" fill="#6C6C65"/>
<path d="M34.8951 59.1519C34.8951 59.1519 34.8619 59.0972 34.8287 59.0426C34.7954 58.9606 34.7954 58.9606 34.7622 58.9333C35.5265 59.5343 34.5961 58.7967 34.5628 58.7694L34.297 58.6602C34.2305 58.6602 34.1973 58.6602 34.1308 58.6602C34.0644 58.6602 34.0311 58.6602 33.9647 58.6602C33.7653 58.6602 33.5991 58.6602 33.433 58.7421C33.3665 58.7421 33.3001 58.7694 33.2668 58.7967C33.1339 58.8514 33.0342 58.906 32.9013 58.9606C32.8016 59.0153 32.6687 59.0972 32.6022 59.1792C32.569 59.2065 32.5358 59.2338 32.5025 59.2885C32.5025 59.2885 32.4693 59.3158 32.4361 59.3431C32.4028 59.3704 32.3696 59.425 32.3364 59.4524C32.2699 59.4797 32.2035 59.5343 32.137 59.5889C32.0705 59.6436 32.0041 59.6982 31.9708 59.7802C31.9708 59.8075 31.9376 59.8348 31.9044 59.8894C31.8379 59.9987 31.8047 60.0533 31.8047 60.1899C31.8047 60.2719 31.8047 60.3538 31.8047 60.4358C31.8379 60.5724 31.9376 60.6543 32.0705 60.7363C32.2035 60.8182 32.3696 60.8455 32.5358 60.8455C32.7351 60.8455 32.9345 60.8182 33.1339 60.7909C33.2668 60.7909 33.3665 60.7363 33.4994 60.7089C33.4994 60.7089 33.8318 60.627 33.865 60.5997C34.1308 60.5177 34.1973 60.4631 34.3634 60.3265C34.4299 60.2992 34.4631 60.2446 34.5296 60.2172C34.6293 60.1353 34.6957 60.026 34.7622 59.9441C34.7622 59.9167 34.7954 59.8894 34.8287 59.8621C34.9284 59.6982 34.8951 59.7802 34.8951 59.7255L34.9616 59.4797C34.9616 59.4797 34.9616 59.3158 34.9616 59.2338L34.8951 59.1519Z" fill="#6C6C65"/>
<path d="M34.8945 59.1529C34.8945 59.1256 35.4262 60.1363 34.8945 59.1529V59.1529Z" fill="#6C6C65"/>
</g>
<g style="mix-blend-mode:multiply" opacity="0.39">
<path d="M376.306 53.1164C375.775 52.5155 374.911 52.1057 374.014 51.9691C371.754 51.5867 369.062 52.133 367.899 53.9086C367.5 54.5096 367.301 55.1926 367.301 55.8482C367.168 56.2306 367.102 56.613 367.102 56.9955C367.135 57.9516 367.666 58.7438 368.63 59.2901C372.186 61.3116 376.738 58.1428 376.971 55.056C377.038 54.373 376.838 53.6628 376.34 53.0891L376.306 53.1164Z" fill="#6C6C65"/>
<path d="M388.636 56.4757C388.436 55.9567 388.038 55.5743 387.539 55.2465C387.373 55.1372 387.207 55.0279 387.007 54.946C386.742 54.8367 386.443 54.7274 386.177 54.6728C385.778 54.5908 385.379 54.5908 384.947 54.6728C384.216 54.8094 383.618 55.1645 383.186 55.6562C383.186 55.6562 383.153 55.7108 383.119 55.7382C383.053 55.8748 382.953 55.984 382.887 56.1206C382.82 56.2845 382.787 56.4757 382.754 56.6396C382.754 56.7762 382.754 56.9128 382.754 57.0494C382.754 57.1587 382.688 57.2679 382.688 57.4045C382.688 57.6777 382.687 57.9782 382.82 58.224C382.987 58.5518 383.186 58.825 383.518 59.0435C383.884 59.2621 384.382 59.3714 384.814 59.3714C385.412 59.3714 385.977 59.2621 386.509 59.0982C387.007 58.9616 387.473 58.6884 387.838 58.3879C388.436 57.9235 388.802 57.1313 388.536 56.4757H388.636Z" fill="#6C6C65"/>
<path d="M388.465 43.2007C388.233 42.2173 387.236 41.4251 386.039 41.2339C384.577 40.988 383.049 41.3158 381.985 42.1627C381.453 42.5724 381.088 43.1461 381.055 43.7471C381.055 44.0202 381.088 44.2661 381.188 44.5119C381.121 45.3861 381.653 46.3149 382.583 46.7246C383.913 47.2983 385.408 47.1344 386.671 46.5061C388.066 45.8232 388.731 44.4846 388.465 43.2007Z" fill="#6C6C65"/>
<path d="M356.9 49.8649C356.9 49.8649 356.834 49.7556 356.767 49.701C356.701 49.6191 356.601 49.5644 356.468 49.5644C356.468 49.5644 356.402 49.5644 356.368 49.5644C356.269 49.5644 356.169 49.5644 356.069 49.5371C356.069 49.5371 356.069 49.5371 356.036 49.5371C355.903 49.5371 355.77 49.5371 355.637 49.5371C355.637 49.5371 355.637 49.5371 355.604 49.5371C355.504 49.5371 355.372 49.5917 355.272 49.6191C354.94 49.7283 354.64 49.9469 354.441 50.1927C354.341 50.302 354.308 50.4113 354.275 50.5205C354.242 50.6298 354.242 50.7391 354.275 50.8483C354.308 50.903 354.341 50.9849 354.375 51.0396C354.441 51.1215 354.541 51.2035 354.674 51.2308C354.74 51.2854 354.84 51.2854 354.94 51.2854C355.072 51.2854 355.205 51.2854 355.338 51.2854C355.338 51.2854 355.405 51.2854 355.438 51.3127C355.538 51.3127 355.637 51.34 355.77 51.3127C355.837 51.3127 355.936 51.3127 356.003 51.2854C356.136 51.2854 356.236 51.2035 356.335 51.1488C356.402 51.0942 356.468 51.0669 356.535 51.0122C356.601 50.9576 356.634 50.903 356.701 50.8483C356.767 50.7664 356.8 50.7117 356.8 50.6298C356.8 50.5752 356.8 50.5478 356.834 50.4932C356.834 50.4932 356.834 50.4659 356.834 50.4386C356.834 50.4386 356.834 50.4113 356.834 50.3839C356.834 50.3566 356.834 50.302 356.867 50.2747C356.867 50.22 356.9 50.1381 356.933 50.0835C356.933 49.9742 356.933 49.8922 356.867 49.8103L356.9 49.8649Z" fill="#6C6C65"/>
<path d="M351.915 60.6558C351.915 60.6558 351.881 60.6011 351.848 60.5465C351.815 60.4646 351.815 60.4646 351.782 60.4372C352.546 61.0382 351.616 60.3007 351.582 60.2733L351.317 60.1641C351.25 60.1641 351.217 60.1641 351.15 60.1641C351.084 60.1641 351.051 60.1641 350.984 60.1641C350.785 60.1641 350.619 60.1641 350.453 60.246C350.386 60.246 350.32 60.2733 350.286 60.3007C350.153 60.3553 350.054 60.4099 349.921 60.4646C349.821 60.5192 349.688 60.6011 349.622 60.6831C349.589 60.7104 349.555 60.7377 349.522 60.7924C349.522 60.7924 349.489 60.8197 349.456 60.847C349.422 60.8743 349.389 60.9289 349.356 60.9563C349.289 60.9836 349.223 61.0382 349.157 61.0928C349.09 61.1475 349.024 61.2021 348.99 61.2841C348.99 61.3114 348.957 61.3387 348.924 61.3933C348.857 61.5026 348.824 61.5572 348.824 61.6938C348.824 61.7758 348.824 61.8577 348.824 61.9397C348.857 62.0763 348.957 62.1582 349.09 62.2402C349.223 62.3221 349.389 62.3494 349.555 62.3494C349.755 62.3494 349.954 62.3221 350.153 62.2948C350.286 62.2948 350.386 62.2402 350.519 62.2129C350.519 62.2129 350.851 62.1309 350.884 62.1036C351.15 62.0216 351.217 61.967 351.383 61.8304C351.449 61.8031 351.483 61.7485 351.549 61.7211C351.649 61.6392 351.715 61.5572 351.782 61.448C351.782 61.4207 351.815 61.3933 351.848 61.366C351.948 61.2021 351.915 61.2841 351.915 61.2294L351.981 60.9836C351.981 60.9016 351.981 60.8197 351.981 60.7377L351.915 60.6558Z" fill="#6C6C65"/>
<path d="M351.914 60.6568C351.914 60.6295 352.446 61.6402 351.914 60.6568V60.6568Z" fill="#6C6C65"/>
</g>
</g>
<defs>
<clipPath id="clip0_4112_918">
<rect width="442" height="363.346" fill="white" transform="translate(0 0.830078)"/>
</clipPath>
</defs>
</svg>
