<svg width="84" height="116" viewBox="0 0 84 116" fill="none" xmlns="http://www.w3.org/2000/svg">
<path d="M3.82835 19.2042C7.48148 12.8899 13.398 8.58589 20.9362 6.75575C24.497 5.89247 28.1691 5.45343 31.853 5.45343C37.7221 5.45343 43.6528 6.51156 49.9813 8.69195C52.1878 9.45163 54.3968 9.83641 56.5417 9.83641C62.5387 9.83641 67.3567 6.8914 70.1054 1.5465C70.3256 1.11486 71.1282 0 72.1652 0C72.2244 0 72.2836 0.004933 72.3404 0.009866C73.4815 0.152923 74.1326 1.4873 74.251 1.75122C75.3614 4.23992 75.6691 6.81988 75.172 9.57496C75.3306 9.53549 75.4916 9.5133 75.6573 9.5133C77.0139 9.5133 77.5182 10.8847 77.7076 11.4026C79.0074 14.9495 78.5505 18.3384 76.3889 21.207C74.5895 23.5946 72.2315 24.8056 69.3809 24.8056C69.3454 24.8056 69.3099 24.8056 69.2744 24.8056C73.2164 31.8105 74.9423 38.4552 74.4001 44.5869C73.7941 51.4562 70.3445 57.874 64.1392 63.6752C66.6228 66.2527 69.4993 68.7069 72.8944 71.1512C73.6709 71.7086 74.2841 72.1501 74.4712 72.9517C74.6653 73.7928 74.2676 74.5056 73.8083 75.3319C73.4437 75.983 72.8897 76.9252 72.1747 77.7688C74.0876 79.5077 76.0124 81.2885 77.8781 83.0126C79.3815 84.4012 80.9346 85.8392 82.4711 87.2426C84.7511 89.3293 83.8845 91.0484 83.6004 91.6133C83.0583 92.6911 82.1681 93.2609 81.0293 93.2609C80.5037 93.2609 79.9236 93.14 79.256 92.8909C78.0367 92.4346 76.8198 91.9783 75.5531 91.5023C75.8609 92.0079 76.1663 92.5037 76.4717 92.992C77.6413 94.8592 76.834 96.0974 76.2492 96.6696C75.6336 97.2714 75.0062 97.3972 74.5872 97.3972C73.8012 97.3972 73.1453 96.9656 72.7216 96.6425C71.9213 96.0332 71.1045 95.424 70.3564 94.8666C70.2072 95.2168 70.0036 95.5621 69.7029 95.8458C69.1702 96.344 68.6304 96.4501 68.2729 96.4501C67.3993 96.4501 66.7482 95.8729 66.2747 95.4536C66.2179 95.4043 66.1635 95.3549 66.109 95.3081C65.6852 94.943 65.2614 94.5755 64.84 94.2105C63.8953 93.3891 62.9175 92.5407 61.9421 91.7366C60.5311 92.3433 59.1437 92.9797 57.6782 93.6506C57.5124 93.7271 57.3467 93.801 57.181 93.8775C57.484 95.3969 57.2733 96.7337 56.5441 97.9201C57.5101 98.3616 58.4263 98.7785 59.3449 99.1262C60.3038 99.4888 61.4142 99.8859 62.4914 100.017C64.7903 100.293 66.2653 101.63 66.8737 103.995L66.9021 104.106L66.9826 105.246V105.539V106.124L66.7435 107.932L66.6583 108.551L65.0697 112.46L64.8921 112.791L64.8495 112.865L64.8234 112.902L64.8495 113.114L60.8554 116.774L60.4056 116.887L59.88 117.077H59.7498L59.0561 117.146L57.4438 116.779L49.1574 109.678L49.8558 108.792L49.0248 109.547L48.7904 109.268L49.0224 109.044L48.7786 109.251L48.5016 108.898L48.4542 108.97L47.2491 107.527L47.126 107.083L47.0597 106.992L46.8064 106.617L46.7875 106.585C46.6904 106.42 46.5886 106.257 46.4892 106.094C46.2406 105.692 45.9801 105.275 45.7599 104.809C45.303 103.84 45.0497 103.744 44.5407 103.744C44.4838 103.744 44.4247 103.744 44.3631 103.751C44.2779 103.756 44.195 103.761 44.1145 103.761C42.3744 103.761 41.0225 102.486 40.4993 100.399C39.9358 100.697 39.325 100.853 38.707 100.853C37.7316 100.853 36.7467 100.463 35.9346 99.7552C35.5606 99.4296 35.2196 99.2915 34.7935 99.2915C34.4952 99.2915 34.14 99.3581 33.6405 99.5085C33.2333 99.6319 32.8213 99.802 32.3857 99.9821C32.1986 100.059 32.0116 100.137 31.8246 100.211L29.8643 101.275L28.7515 102.096L27.3381 103.132L25.8513 104.064L25.7802 103.896L25.65 103.956L25.3233 104.049L24.5538 104.254L22.5414 104.274L19.814 103.578L19.4613 103.512L18.7723 103.369L17.8395 103.378L17.4346 103.482L16.3858 104.072L15.3843 105.384L15.2589 105.48C14.345 106.183 13.4003 106.538 12.451 106.538C11.6057 106.538 10.77 106.257 9.96976 105.699L9.89163 105.645L9.69276 105.584L8.5587 103.677L8.42612 102.937L8.43323 101.205L8.60606 100.456L8.66998 100.325C10.3888 96.8126 13.3033 94.9381 17.5743 94.6199C17.5648 94.5435 17.553 94.4695 17.5435 94.393C17.3754 93.1598 17.2026 91.8846 17.0535 90.6242C16.9256 89.5488 17.2665 88.8927 17.5743 88.5301C17.875 88.1774 18.4385 87.7557 19.4186 87.7557C19.5015 87.7557 19.5891 87.7581 19.6649 87.7655C19.6862 87.7655 19.7075 87.7655 19.7288 87.7631H19.7903C20.1857 87.7458 20.5574 87.731 20.8794 87.731C23.1736 87.731 23.5405 88.8286 24.2034 90.824L24.2437 90.9473C24.4449 91.5491 24.7859 92.1337 25.1765 92.5505C25.4796 92.8712 25.6855 92.9871 25.7779 92.9871C25.8299 92.9871 26.0359 92.955 26.5071 92.5481C28.7562 90.5995 31.254 89.2947 33.9341 88.6609C29.0498 84.1768 25.9886 78.6148 25.0652 72.5472C24.1206 66.3341 25.4677 59.8916 28.9622 53.9177C28.993 53.8659 29.0238 53.8117 29.0545 53.7599C26.3532 51.7891 24.4497 49.1919 23.3914 46.0224C23.1523 45.3047 23.0457 44.1849 23.5382 43.3882C23.8412 42.8999 24.3786 42.6532 25.1363 42.6532C25.4748 42.6532 25.8584 42.7001 26.1922 42.7815C26.8148 42.9344 27.3878 43.0429 27.9229 43.107C26.1875 42.2635 24.4142 41.4076 22.6527 40.5937C22.2455 40.4062 21.8383 40.2138 21.4287 40.0215C19.5654 39.1458 17.6359 38.2431 15.7016 37.6289C14.4539 37.2343 13.2204 37.0321 12.0319 37.0321C9.30685 37.0321 6.70492 38.0877 4.29949 40.1694C3.69814 40.6899 3.03759 41.1733 2.29655 41.1733C0.712662 41.1733 0.433296 39.2741 0.343323 38.6476C-0.667618 31.7439 0.57061 24.8377 3.82835 19.2042ZM59.191 112.492C59.1981 112.593 59.2147 112.665 59.2289 112.714C59.2739 112.704 59.3402 112.685 59.4278 112.64C61.2319 111.757 63.2608 107.137 62.7708 105.036L62.7613 104.987C62.7329 104.844 62.7092 104.73 62.6855 104.639C62.6524 104.651 62.6145 104.666 62.5743 104.683C60.6731 105.672 59.9747 107.663 59.371 109.786C59.1674 110.509 59.1058 111.419 59.191 112.495V112.492ZM22.6054 96.1393C22.6432 96.2527 22.6811 96.3711 22.7143 96.4895L22.8019 96.381L22.6054 96.1393ZM33.1078 93.9244C33.0888 93.732 33.0723 93.5396 33.0557 93.3472C32.2081 93.6629 31.4197 94.097 30.6716 94.6545L30.4656 94.832L30.4325 94.7926L30.4206 94.7975L30.404 94.758L29.8761 94.1291L30.3472 94.9159L29.959 95.1675L29.7624 95.3278L29.5186 95.5424L29.2416 95.7767L29.199 95.7816L29.0072 95.9272L28.0933 96.4205C27.1652 96.9212 26.2088 97.4416 25.2452 97.9275C25.0605 98.0212 24.8616 98.0681 24.6533 98.0681C24.3124 98.0681 24.0354 97.9398 23.8531 97.856C23.8246 97.8436 23.7962 97.8288 23.7844 97.8239L22.8232 97.5181C22.7971 97.7524 22.7261 97.9818 22.5911 98.2062C22.1105 99.0054 21.1635 99.0892 20.5977 99.141L20.4106 99.1583L20.2283 99.1139C19.3902 98.9116 18.6397 98.813 17.9295 98.813C16.7386 98.813 15.685 99.1016 14.7333 99.6886L12.8771 101.326L12.8629 101.556L12.5717 101.879C12.4841 101.975 12.4439 102.047 12.4273 102.084C12.4391 102.106 12.4652 102.14 12.5054 102.187C12.548 102.138 12.6001 102.071 12.6617 101.98C13.9922 100.026 15.8697 98.993 18.0928 98.993C18.9191 98.993 19.7998 99.1361 20.709 99.4173C21.5849 99.6886 22.3568 99.8193 23.0694 99.8193C24.4094 99.8193 25.579 99.3433 26.7557 98.3221C28.5763 96.7411 30.745 95.7002 33.2096 95.2242C33.1883 94.8 33.148 94.3683 33.1078 93.917V93.9244ZM71.2111 7.5105C68.1214 11.008 64.2102 13.0971 59.3804 13.8272L60.6234 14.6264C61.7622 15.1123 62.901 15.3564 64.0114 15.3564C67.9675 15.3564 71.0666 12.15 71.2158 7.9002C71.2205 7.77195 71.2158 7.64122 71.2111 7.50803V7.5105ZM69.2886 20.5731C70.676 20.5731 72.0113 19.9762 72.9559 18.9378C73.8532 17.9512 74.3078 16.6686 74.2392 15.3219V15.2701L74.2439 15.0111C74.0497 15.1394 73.858 15.2652 73.6662 15.3885C72.8447 15.9262 71.9971 16.4812 71.2063 17.0633C69.362 18.4198 67.5437 19.2116 65.5905 19.4928C66.1848 19.8381 66.9234 20.0823 67.8136 20.3511C68.299 20.4966 68.7962 20.5731 69.2886 20.5731ZM48.3856 101.043C50.0736 104.363 52.3441 107.288 55.1473 109.754C55.2278 109.429 55.3296 109.111 55.429 108.802C55.59 108.294 55.8125 107.601 55.7344 107.33C55.6634 107.125 55.062 106.693 54.7377 106.462C54.437 106.245 54.1245 106.023 53.8356 105.769L52.8413 104.888L53.7788 103.943C53.8167 103.906 53.8522 103.869 53.8901 103.835L54.4844 103.27L55.2065 103.637C55.4101 103.741 55.616 103.842 55.8197 103.941C56.2316 104.143 56.653 104.35 57.0721 104.582C57.368 104.099 57.6876 103.645 57.9978 103.203C58.0073 103.189 58.0167 103.176 58.0262 103.161L54.8158 101.58L55.0668 103.05L53.561 101.46L53.5444 101.479L52.7608 100.614L52.247 100.071L50.3388 98.8993C48.968 98.9314 48.575 99.4666 48.3737 100.374C48.3098 100.665 48.3477 100.964 48.3856 101.043ZM50.0926 94.5879C50.9591 94.5879 51.8374 94.7753 52.7016 95.1428C52.7679 95.17 52.8484 95.1995 52.9312 95.2267C52.9644 95.059 52.9952 94.8863 53.0259 94.7112C53.0283 94.6988 53.0307 94.6841 53.033 94.6717L52.3914 93.7295L52.3299 93.6777C51.6291 93.2781 50.8265 93.0685 50.005 93.0685C48.5465 93.0685 47.1166 93.7147 46.0606 94.8493L45.7694 95.202L45.1681 96.0332L45.0047 96.3243L44.6046 98.6847C45.4853 96.164 47.5474 94.5879 50.0878 94.5879H50.0926ZM37.4025 95.2489C37.5091 95.387 37.6061 95.5251 37.7008 95.6608C37.8642 95.8951 38.0702 96.1837 38.198 96.2626C38.198 96.2626 38.2193 96.2749 38.2619 96.2897C38.2619 96.2848 38.2619 96.2799 38.2619 96.2749C38.2075 94.9776 38.2738 93.5001 39.0622 92.1288C38.7378 91.9339 38.3993 91.7489 38.0465 91.5565C37.9257 91.4899 37.8026 91.4233 37.6819 91.3567C37.1018 92.7997 36.8438 94.028 37.4001 95.2538L37.4025 95.2489ZM33.0652 81.5425C36.0767 85.7479 40.0542 88.5523 44.884 89.8793C44.9502 89.8966 45.0639 89.9188 45.2225 89.9188C45.4356 89.9188 45.6558 89.8768 45.8168 89.8102C47.3486 89.1542 48.7691 88.836 50.1541 88.836C51.6338 88.836 53.0804 89.2158 54.4488 89.9656C54.4915 89.9903 54.6217 90.0273 54.7827 90.0273C54.8821 90.0273 54.9508 90.0125 54.9744 90.0026C56.1345 89.5907 57.3112 89.1048 58.4453 88.6337C58.8572 88.4635 59.2692 88.2934 59.6835 88.1256L67.2738 83.6366L67.8515 83.9646L69.3904 84.8501L65.0862 88.8927L65.6355 89.3095C65.7349 88.9618 65.9125 88.6362 66.2274 88.392C66.5233 88.1626 66.8927 88.0467 67.3283 88.0467C67.842 88.0467 68.4055 88.212 68.8009 88.4783C68.9122 88.5523 69.0211 88.6288 69.1324 88.7028C69.0282 88.3501 68.9761 88.0048 68.9287 87.6866C68.9027 87.509 68.8767 87.3437 68.8459 87.1957L68.5334 85.7257L69.9799 85.6961C70.1244 85.6937 70.2925 85.6764 70.4724 85.6567C70.7068 85.632 70.9719 85.6024 71.2442 85.6024C71.6041 85.6024 71.919 85.6517 72.2054 85.7529C73.6023 86.2437 75.0015 86.7617 76.3818 87.2821C75.6029 86.5619 74.8216 85.8416 74.0426 85.1239C72.4706 83.6761 70.8465 82.1789 69.2555 80.6891C66.7104 82.6031 63.6041 83.6539 60.4932 83.6539C57.7018 83.6539 55.0597 82.8029 52.8531 81.1972C52.8058 81.1627 52.6803 81.1084 52.5761 81.064C52.479 81.0221 52.3796 80.9777 52.2849 80.9308L52.0837 80.8322L47.5853 75.872L48.2909 75.0285L49.2142 73.9235L52.8129 76.4073L52.8436 76.4319C54.2429 77.5419 55.3438 78.3312 56.7525 78.3755L56.8993 78.3805L57.3136 78.5038C57.7729 78.5975 58.2227 78.7184 58.6583 78.8343C59.4988 79.0588 60.2919 79.2684 61.0188 79.2684C61.0803 79.2684 61.1419 79.2684 61.2034 79.2635C64.5961 79.0834 67.3307 77.4728 69.5609 74.3379C69.6556 74.2047 69.7219 74.1036 69.7669 74.0271C69.7527 74.0172 69.7361 74.0074 69.7195 73.9975C69.3573 73.778 69.0282 73.5412 68.7062 73.3093C68.5712 73.2132 68.4387 73.117 68.3013 73.0208L67.9249 72.7593L68.2777 72.1624L67.8563 72.7026L66.4286 71.4989L61.7764 67.2418L60.0812 65.5843L59.4278 65.1946L57.2852 60.5847L57.7137 59.9853L58.5305 58.8458L59.4728 59.5438C59.6361 59.6647 59.7995 59.7905 59.9605 59.9162C60.3133 60.19 60.6494 60.4515 60.9833 60.6439C65.8083 56.8134 68.7015 52.312 69.8189 46.8956C69.8118 46.8413 69.8071 46.7895 69.8024 46.7353L69.7882 46.5305L69.8379 46.3332C70.6097 43.3093 70.5434 40.0116 69.6343 36.2526C67.7615 28.5029 63.3911 22.2306 56.2766 17.0805C51.2242 13.4227 45.4072 11.1091 38.9485 10.1867C40.5064 11.7627 42.0879 13.7779 43.0538 16.3677C43.1414 16.6045 43.2267 16.8388 43.3072 17.0756C44.6969 15.4107 46.4844 14.508 48.4353 14.508C49.9836 14.508 51.5486 15.0975 52.9597 16.2148C57.1478 19.5273 58.102 26.7911 54.9223 31.1593C53.9398 32.5085 52.6613 33.4038 51.1627 33.8059C51.8422 34.7333 52.5193 35.6977 53.0283 36.7829C54.9839 40.9464 54.8324 45.2159 52.5927 49.1302C52.4696 49.3448 52.3583 49.589 52.2376 49.8505C52.176 49.9861 52.1121 50.1242 52.0481 50.2599L51.9416 50.4819L51.7593 50.6447C51.4586 50.9111 51.1674 51.1996 50.8573 51.503C50.1186 52.2282 49.3539 52.978 48.4092 53.5206C47.1023 54.2704 45.7221 54.8476 44.3844 55.4075C43.8351 55.6369 43.2693 55.8737 42.7248 56.1178L42.6253 56.1622L42.5188 56.1869C41.1764 56.5026 39.8127 56.6629 38.4655 56.6629C36.5668 56.6629 34.6348 56.3448 32.7171 55.7183C27.4588 64.2548 27.5796 73.8964 33.0533 81.5401L33.0652 81.5425ZM4.20479 34.9997C4.37999 34.901 4.55282 34.8023 4.72328 34.7012C6.95588 33.3989 9.40866 32.7379 12.013 32.7379C13.4311 32.7379 14.944 32.9327 16.5113 33.32C19.3618 34.0205 21.9046 35.3746 24.3668 36.6818C24.8853 36.9581 25.4062 37.2343 25.9294 37.5056C29.6772 39.4443 34.0737 41.5309 38.8254 41.7653C39.003 41.7751 39.1805 41.7776 39.3581 41.7776C41.2119 41.7776 42.9876 41.2917 44.633 40.3298C44.6567 40.315 44.6732 40.3051 44.6827 40.2977C44.704 40.2089 44.7017 39.9869 44.7017 39.8365C44.7017 39.6046 44.6969 39.3407 44.7348 39.0546L44.7822 38.7043L47.0858 35.8284L47.8671 37.6092C48.0565 38.0433 48.2624 38.47 48.459 38.8869C48.9301 39.8759 49.4202 40.8995 49.709 41.9971C49.9103 42.7543 49.7043 43.2501 49.4959 43.5337C49.2971 43.8051 48.9183 44.1306 48.2435 44.1306C48.0754 44.1306 47.9239 44.1109 47.7889 44.0961C47.7511 44.0912 47.699 44.0862 47.6587 44.0813L47.583 44.0936C47.3983 44.1232 47.2255 44.1331 47.0739 44.1405C47.0076 44.143 46.9153 44.1479 46.8514 44.1553C43.9961 46.2839 40.7265 47.7638 37.1302 48.558L37.0663 48.5728L37.0024 48.5802C36.5952 48.6221 36.1856 48.6665 35.7784 48.7109C34.6656 48.8318 33.5174 48.9551 32.3738 49.0439C32.3194 49.0488 32.2649 49.0513 32.2081 49.0513C31.8151 49.0513 31.4718 48.9453 31.1972 48.8589C31.1096 48.8318 31.022 48.8022 30.9344 48.7825V48.4002L29.4854 48.3681C31.4339 50.7433 34.0382 52.021 37.4215 52.2676C37.7979 52.2948 38.1767 52.3096 38.5437 52.3096C41.3468 52.3096 43.9109 51.4931 46.1648 49.885C48.5844 48.1584 49.8747 46.0767 50.1139 43.5214C50.2962 40.7885 49.728 38.7833 48.324 37.2047L48.2577 37.1307L48.0186 36.7533L47.6303 36.3464L45.6226 34.2474L45.5421 34.0994C45.4853 33.9933 45.4356 33.8823 45.3835 33.7689C45.3646 33.7245 45.3385 33.6677 45.322 33.6307C42.3886 30.7795 40.755 26.9959 40.1796 21.7299C39.9239 19.4015 39.2018 17.3888 38.0252 15.7511L37.9589 15.6574L37.7719 15.2553L37.251 14.6831C36.8438 14.3254 36.4437 13.953 36.0554 13.5954C35.1557 12.7666 34.3081 11.9823 33.3824 11.3237C31.9785 10.3248 30.3827 9.86107 28.3609 9.86107C27.6624 9.86107 26.9072 9.91533 26.0549 10.0313C20.297 10.8008 15.6921 12.7173 11.9774 15.8917C11.7786 16.0619 11.5773 16.3184 11.3666 16.5922C11.2435 16.7525 11.118 16.9103 10.9902 17.0633L10.6303 16.7327L10.9523 17.1101L10.4812 17.601L10.2468 17.8451L10.0076 18.0967L9.75669 18.3582L9.48915 18.6369L9.46785 18.6566L9.29739 18.8071C8.98724 19.3127 8.66762 19.8159 8.35747 20.3018C7.58091 21.5202 6.84934 22.6721 6.23378 23.8979C5.0287 26.2929 4.36342 29.1269 4.20242 32.5554V34.9972L4.20479 34.9997ZM30.7615 47.3371L30.9438 47.5196V47.31C30.8847 47.3198 30.8231 47.3297 30.7615 47.3371Z" fill="white"/>
<path d="M10.4611 104.533C10.5322 104.556 10.5866 104.602 10.6245 104.669C11.9787 105.611 13.2856 105.458 14.557 104.479L14.6043 104.533L14.5499 104.487C14.8813 104.052 15.2151 103.616 15.5466 103.182C15.5679 103.12 15.6082 103.081 15.6697 103.066C16.1077 102.819 16.5481 102.573 16.9861 102.328L17.0311 102.269L17.0997 102.291C17.2962 102.24 17.4927 102.19 17.6892 102.138C18.087 102.134 18.4847 102.131 18.8825 102.126C19.1524 102.183 19.4223 102.237 19.6922 102.294C19.8153 102.316 19.9384 102.341 20.0591 102.363C20.9328 102.585 21.804 102.807 22.6776 103.031C23.253 103.026 23.8259 103.021 24.4012 103.017C24.6119 102.96 24.8203 102.906 25.031 102.849C25.1067 102.827 25.1801 102.804 25.2559 102.785C25.6394 102.612 26.023 102.439 26.4042 102.267L26.39 102.282C26.4894 102.217 26.5912 102.156 26.6906 102.092C27.1499 101.754 27.6116 101.418 28.0709 101.08C28.4639 100.792 28.8546 100.501 29.2476 100.212C29.946 99.8347 30.6444 99.4549 31.3429 99.0775C31.9987 98.821 32.6426 98.5226 33.3127 98.3203C34.4941 97.9651 35.5737 97.8319 36.6935 98.8062C37.7258 99.7065 39.1202 99.9457 40.3301 99.0676C41.2392 98.4091 41.3931 98.7347 41.5517 99.6497C41.8595 101.418 42.8491 102.619 44.2839 102.518C45.721 102.415 46.2986 103.15 46.8219 104.262C47.0965 104.844 47.4682 105.379 47.7949 105.937C47.8636 106.04 47.9346 106.144 48.0033 106.248C48.0696 106.339 48.1335 106.43 48.1998 106.521C48.2353 106.655 48.2732 106.788 48.3087 106.921L48.3371 106.953L48.3821 106.884C48.3821 106.884 48.4602 106.901 48.4626 106.904C48.5525 107.02 48.6401 107.136 48.7301 107.252L48.7206 107.239C49.0426 107.649 49.3646 108.058 49.689 108.467C49.689 108.467 49.6748 108.453 49.6748 108.455C49.7529 108.549 49.831 108.64 49.9091 108.734L49.902 108.724C52.5916 111.028 55.2811 113.331 57.9683 115.635C58.3518 115.721 58.7354 115.81 59.1189 115.897C59.2752 115.882 59.4314 115.865 59.59 115.85L59.6729 115.84C59.8031 115.793 59.9333 115.746 60.0612 115.699C60.1346 115.68 60.208 115.662 60.2814 115.643L63.5865 112.614C63.577 112.535 63.6054 112.476 63.6741 112.439C63.7309 112.355 63.7901 112.268 63.8469 112.185C63.8966 112.093 63.944 112.004 63.9937 111.913C64.4956 110.68 64.9951 109.449 65.4971 108.216C65.5184 108.063 65.5397 107.908 65.561 107.755C65.6368 107.182 65.7125 106.608 65.7883 106.036V105.537C65.7883 105.456 65.7883 105.377 65.7883 105.296C65.7646 104.968 65.7409 104.642 65.7196 104.314C65.2556 102.503 64.2186 101.465 62.3459 101.241C61.1858 101.103 60.0351 100.703 58.9295 100.286C57.5113 99.7484 56.1429 99.0726 54.5851 98.3844C56.4033 96.7146 56.3418 94.9091 55.7546 93.1801C57.7836 92.2552 59.7155 91.35 61.6758 90.5138C61.9315 90.4053 62.4074 90.5558 62.6489 90.7555C64.0718 91.9271 65.4521 93.153 66.8513 94.3566C67.4574 94.8771 68.1463 95.6367 68.8992 94.9313C69.3727 94.4874 69.4651 93.6068 69.7373 92.9014C70.8004 93.6956 72.1144 94.66 73.4094 95.6491C74.0699 96.1522 74.74 96.4458 75.4289 95.7699C76.1084 95.1065 75.9308 94.401 75.4715 93.666C74.5861 92.2527 73.7338 90.8147 72.711 89.1276C75.2206 90.0698 77.4319 90.9011 79.6479 91.7298C81.1181 92.2798 82.0178 92.0801 82.5434 91.0417C83.1661 89.8059 82.5552 88.9698 81.6816 88.1707C78.2155 84.9987 74.7826 81.7849 71.307 78.6253C70.7222 78.0925 70.5612 77.7669 71.1531 77.0985C71.7829 76.3882 72.3061 75.5545 72.7773 74.7134C73.6106 73.2187 73.5609 73.1349 72.2162 72.168C68.6719 69.6201 65.3432 66.8058 62.4098 63.6068C75.9687 51.5974 76.1392 38.0291 66.9886 23.3066C67.2775 23.3535 67.5852 23.4077 67.893 23.4546C70.9543 23.9306 73.5396 22.9859 75.4526 20.4479C77.4106 17.8482 77.7231 14.9229 76.5961 11.8448C76.1415 10.6016 75.7154 10.4758 74.6453 11.1689C74.2428 11.4279 73.845 11.6918 73.2484 12.0815C74.515 8.62104 74.5766 5.41952 73.1703 2.27473C72.9761 1.84063 72.5595 1.2832 72.1925 1.23633C71.8752 1.19687 71.3496 1.72717 71.1413 2.13167C66.8418 10.4931 58.0772 12.7796 49.6037 9.86416C40.1951 6.62564 30.7533 5.63904 21.1979 7.95755C5.68578 11.7214 -0.363297 25.7139 1.50469 38.4608C1.75565 40.1799 2.2268 40.3526 3.53368 39.2205C7.23889 36.014 11.4413 34.9904 16.0367 36.4456C18.4682 37.2177 20.7907 38.3843 23.1227 39.4622C26.1698 40.8705 29.1789 42.3677 32.1857 43.818C30.1591 44.6739 28.0472 44.4988 25.9117 43.9759C25.4548 43.8649 24.6735 43.8082 24.522 44.0523C24.2899 44.4272 24.3397 45.1302 24.4983 45.6112C25.6158 48.9582 27.6968 51.511 30.6444 53.3683C30.4006 53.7901 30.1828 54.1724 29.9626 54.5522C23.1441 66.2139 25.1186 79.1852 35.0481 88.0375C35.2777 88.2422 35.5997 88.7379 35.531 88.8391C35.2682 89.2238 34.9013 89.7023 34.5012 89.7887C31.769 90.3732 29.3825 91.6484 27.2541 93.4909C26.1461 94.4504 25.3411 94.4923 24.3231 93.4095C23.7928 92.8471 23.3642 92.0949 23.1156 91.345C22.3012 88.9032 22.3415 88.8884 19.8248 88.9871C19.7466 88.9895 19.6661 88.9969 19.588 88.992C18.57 88.9205 18.0965 89.4335 18.2196 90.4694C18.4303 92.2453 18.6836 94.0163 18.9204 95.802C15.0991 95.7971 11.6733 96.8823 9.71534 100.881C9.67982 101.036 9.64432 101.194 9.60644 101.349C9.60644 101.84 9.6017 102.328 9.59933 102.819C9.62301 102.952 9.64668 103.083 9.67036 103.216C9.93079 103.655 10.1912 104.092 10.4517 104.531L10.4611 104.533ZM9.40993 16.9775L9.39573 16.9923C9.47859 16.906 9.56382 16.8172 9.64668 16.7309L9.63248 16.7457C9.71535 16.6594 9.79821 16.5706 9.88107 16.4842L9.86924 16.4966C9.9521 16.4103 10.035 16.3239 10.1178 16.2376L10.106 16.2475C10.4777 15.8084 10.802 15.3053 11.2306 14.9377C15.5016 11.2873 20.4877 9.53118 25.907 8.80603C28.8143 8.41879 31.5891 8.55198 34.0537 10.3057C35.4837 11.3243 36.7361 12.6168 38.0691 13.7859L38.0572 13.7736C38.2869 14.0251 38.5142 14.2767 38.7438 14.5283L38.7722 14.5727C38.8409 14.7207 38.9095 14.8662 38.9782 15.0142C40.3798 16.9677 41.1019 19.2245 41.3599 21.5924C41.8287 25.8767 43.048 29.7565 46.1779 32.773C46.3649 32.9531 46.4478 33.2515 46.578 33.4957C47.2149 34.1617 47.8517 34.8251 48.4886 35.4911L48.4744 35.4788C48.6354 35.649 48.7988 35.8192 48.9598 35.9893L48.9432 35.9745C49.0261 36.1053 49.1089 36.236 49.1918 36.3692C51.0266 38.4312 51.4765 40.9297 51.2942 43.6256C51.0006 46.8444 49.3007 49.1457 46.8337 50.9043C43.9737 52.9441 40.7752 53.7506 37.3375 53.499C33.5991 53.2253 30.4337 51.7404 28.1159 48.5636C27.8862 48.1615 27.6566 47.7595 27.4269 47.3599C27.8176 47.2785 28.2082 47.1947 28.6012 47.1207C28.677 47.1059 28.7575 47.1207 28.8356 47.1231C28.4 46.6866 28.2295 46.356 29.0724 46.287C31.0777 46.1217 33.0499 45.8233 34.7474 44.5432C34.8539 44.4642 35.0457 44.4766 35.1925 44.4938C36.6935 44.664 38.1922 44.8416 39.9442 45.0488C38.8077 45.5322 37.8797 46.0601 36.8876 46.324C35.0078 46.8247 33.0925 47.1725 31.1913 47.5844C31.5559 47.6682 31.9276 47.8483 32.2851 47.8211C33.8193 47.7003 35.3511 47.5178 36.8829 47.3599C40.2874 46.6076 43.4221 45.2215 46.2537 43.0904C46.5354 42.8783 47.0136 42.9449 47.3996 42.8832C47.8186 42.7229 48.8177 43.2877 48.5644 42.3332C48.1903 40.9199 47.4351 39.6126 46.7864 38.1303C46.4407 38.5619 46.1732 38.8949 45.9056 39.2303C45.8038 39.9999 46.1258 40.8804 45.2119 41.4132C43.2019 42.5848 41.0309 43.1151 38.7699 43.0041C33.9614 42.7673 29.6288 40.8015 25.4051 38.6162C22.4196 37.0721 19.5336 35.3382 16.2427 34.5267C12.4404 33.5919 8.78253 33.7572 5.30697 35.7846C4.61092 36.1916 3.90539 36.5764 3.02702 37.0721V32.5362C3.17618 29.3224 3.75623 26.1924 5.19334 23.3362C6.12614 21.4814 7.32413 19.7721 8.40372 17.9962C8.50553 17.9074 8.60497 17.8186 8.70677 17.7298L8.69019 17.7446C8.77306 17.6558 8.85829 17.5695 8.94115 17.4807L8.92695 17.498C9.00981 17.4092 9.09505 17.3229 9.17791 17.2341L9.16134 17.2489C9.2442 17.1601 9.32706 17.0737 9.41229 16.9849L9.40993 16.9775ZM11.955 100.548L11.9456 100.54C12.0332 100.464 12.1208 100.385 12.2084 100.308H12.1989C12.2841 100.229 12.3717 100.153 12.457 100.074H12.4499C12.5327 99.9926 12.6156 99.9137 12.6984 99.8323L12.6771 99.8051C12.8381 99.6423 12.9991 99.482 13.1578 99.3192L13.1696 99.3365C15.3619 97.457 17.8597 97.272 20.5042 97.9133C21.8301 97.7925 21.8514 97.5261 21.3826 96.241C20.7931 94.628 20.4687 92.9137 20.0284 91.2414C20.3717 90.5582 20.7694 90.536 21.2287 91.1699C21.5744 92.0406 21.92 92.9113 22.2681 93.7844C22.3486 93.8954 22.4314 94.0089 22.5119 94.1199C22.5853 94.2111 22.6587 94.2999 22.7321 94.3912L22.7274 94.3739C22.8031 94.4676 22.8789 94.5589 22.9547 94.6526L22.9641 94.628C23.4779 94.9585 24.0082 95.2692 24.4959 95.6392C24.5835 95.7058 24.4959 96.0191 24.4936 96.2164C24.3775 96.3594 24.2592 96.505 24.1432 96.648C24.3444 96.7121 24.6001 96.8922 24.7374 96.8231C25.9662 96.2016 27.176 95.5332 28.3905 94.8795C28.5113 94.7883 28.6297 94.697 28.7504 94.6033H28.7646C28.8475 94.5293 28.9303 94.4553 29.0132 94.3838L29.0605 94.4356L29.0156 94.3788C29.1008 94.3098 29.186 94.2407 29.2689 94.1692L29.2855 94.1568C29.4323 94.0607 29.5814 93.9645 29.7282 93.8707L29.7116 93.8855C29.7992 93.8091 29.8845 93.7351 29.9721 93.6586H29.9815C31.3168 92.6572 32.78 92.0085 34.4491 91.6879C34.3544 92.2848 34.2928 92.6868 34.2289 93.0864C34.2999 93.9817 34.4136 94.8746 34.4136 95.7699C34.4136 95.9771 34.0561 96.3348 33.8264 96.3718C31.4731 96.759 29.3162 97.716 27.5216 99.2748C25.3175 101.189 23.0801 101.438 20.3788 100.602C17.8455 99.8175 15.3643 100.16 13.636 102.696C13.198 103.34 12.5943 103.858 11.858 103.231C11.1335 102.617 11.0057 101.82 11.7183 101.036C11.723 100.964 11.7372 100.893 11.7585 100.824C11.8272 100.733 11.8935 100.639 11.9621 100.548H11.955ZM53.2332 99.3316C53.3137 99.4204 53.3942 99.5092 53.4723 99.5955L53.4983 99.561C55.6457 100.619 57.7931 101.677 59.9665 102.748C59.8623 102.844 59.6445 103.044 59.4243 103.246C58.9058 104.011 58.3423 104.743 57.8878 105.547C57.5587 106.132 57.2533 106.095 56.7632 105.809C56.0908 105.414 55.3805 105.093 54.6845 104.741C54.6561 104.768 54.6253 104.797 54.5969 104.827C55.39 105.53 56.6069 106.097 56.8603 106.968C57.1325 107.898 56.4933 109.116 56.2542 110.211V112.012C55.8943 111.856 55.738 111.827 55.6244 111.738C52.1607 108.99 49.3741 105.629 47.3356 101.62C47.1225 101.201 47.1107 100.575 47.2173 100.094C47.6055 98.3573 48.7159 97.6124 50.662 97.6667C51.441 98.1452 52.2222 98.6237 53.0012 99.1022L52.9846 99.0923C53.0675 99.1811 53.1503 99.2674 53.2332 99.3562V99.334V99.3316ZM44.871 94.406C44.9468 94.3122 45.0249 94.221 45.1007 94.1273V94.1174C47.1888 91.7668 50.4632 91.1526 52.9822 92.6424L53.0414 92.6893C53.1172 92.7509 53.1906 92.8151 53.2663 92.8767C53.6096 93.3799 53.9529 93.8855 54.2962 94.3887C54.1471 95.141 54.0571 95.9179 53.7777 96.6135C53.7375 96.7121 52.7502 96.4951 52.2554 96.2854C49.1539 94.9659 46.1661 96.542 45.4795 100C45.2546 101.137 44.6674 101.006 44.0732 100.626C43.7062 100.392 43.5428 99.8101 43.2895 99.3834L43.8814 95.8933C43.9761 95.7255 44.0684 95.5578 44.1631 95.3901L44.1679 95.3753C44.4046 95.0473 44.6414 94.7217 44.8781 94.3936L44.871 94.406ZM68.5938 71.7339C68.7193 71.8202 68.8448 71.909 68.9679 71.9953C69.4177 72.3086 69.8533 72.6465 70.3198 72.9301C71.3638 73.5616 71.1484 74.1856 70.5186 75.0711C68.1984 78.3293 65.1561 80.2877 61.271 80.4924C59.8789 80.5664 58.4536 79.9843 57.0449 79.7007C56.9384 79.6686 56.8295 79.6366 56.7229 79.6045C54.8952 79.5478 53.5054 78.497 52.1323 77.4093C51.2326 76.7877 50.3306 76.1662 49.4309 75.5446C49.3504 75.6408 49.2699 75.7395 49.187 75.8357C50.3898 77.1602 51.5925 78.4872 52.7928 79.8141C53.0414 79.935 53.3113 80.0238 53.5339 80.1841C58.1648 83.5583 64.3772 82.9071 68.6838 79.5971C69.2307 79.1753 69.4982 79.2542 69.9575 79.6834C72.6163 82.177 75.3105 84.6312 77.9835 87.1101C79.0181 88.072 80.0243 89.066 81.0447 90.0452C80.6683 90.1685 80.4079 90.1143 80.1616 90.0205C77.3869 88.9797 74.624 87.8993 71.8302 86.9177C71.2857 86.7253 70.6157 86.9127 70.0049 86.9251C70.1304 87.517 70.1446 88.1706 70.405 88.6911C71.0868 90.0625 71.8776 91.3746 72.6234 92.709C72.6542 92.7189 72.6873 92.7213 72.7133 92.7386C72.7275 92.7509 72.7275 92.7855 72.7323 92.8101C72.6944 92.7781 72.6565 92.746 72.621 92.7139C71.1389 91.6385 69.6758 90.5311 68.1606 89.51C67.8362 89.2904 67.1851 89.1844 66.9365 89.3768C66.6879 89.5692 66.6927 90.2055 66.6974 90.6446C66.7021 90.9973 66.8726 91.3475 66.9697 91.7002C67.0218 91.7964 67.0762 91.8926 67.1188 91.9913C67.1236 92.0011 67.0691 92.0431 67.0407 92.0677C66.9886 91.9691 66.9365 91.8729 66.8844 91.7742C65.793 90.9479 64.7016 90.1217 63.2076 88.992C64.7323 87.5614 66.0487 86.3257 67.3651 85.09C67.339 85.0752 67.313 85.0604 67.2869 85.0456L60.1938 89.2386C58.5838 89.8898 56.9905 90.5854 55.3569 91.1674C54.926 91.3204 54.3009 91.2735 53.8985 91.054C51.3534 89.6629 48.839 89.8479 46.2655 90.9479C45.7659 91.16 45.103 91.2118 44.5822 91.0688C39.447 89.6604 35.2848 86.7055 32.1147 82.2782C26.0916 73.8674 26.4326 63.5254 31.8353 54.8827C32.0081 54.6065 32.6355 54.3944 32.9433 54.498C36.0164 55.529 39.1155 55.7263 42.2667 54.9863C44.1347 54.1551 46.0761 53.4596 47.847 52.4434C49.0237 51.77 49.9565 50.6379 51.0006 49.7105C51.1947 49.3084 51.3652 48.8891 51.5877 48.5044C53.6783 44.8515 53.7351 41.0703 51.9784 37.3311C51.2184 35.7131 50.0015 34.3269 48.9811 32.8174C50.958 32.8939 52.7052 32.1885 53.9932 30.42C56.7703 26.6068 55.9227 20.1001 52.2578 17.202C49.2084 14.7898 45.7115 15.4187 43.5831 18.7608C43.396 19.0543 43.1924 19.3331 42.9462 19.6932C42.5934 18.6523 42.3022 17.7274 41.966 16.8197C40.8651 13.8648 38.8669 11.6302 36.5917 9.62244C36.0969 9.35112 35.6021 9.08227 34.7853 8.63584C35.4884 8.63584 35.7938 8.61611 36.0945 8.6383C43.6754 9.213 50.7023 11.5364 56.9668 16.0723C63.7853 21.0078 68.7335 27.4232 70.7956 35.9573C71.6503 39.4893 71.9107 43.0707 70.9945 46.657C71.0016 46.7778 71.0395 46.9061 71.0158 47.022C69.7515 53.3264 66.276 58.0892 61.4154 61.8629C61.2165 62.0159 60.7004 61.8925 60.421 61.7298C59.8481 61.3968 59.3343 60.9528 58.7969 60.5532C58.7567 60.61 58.7164 60.6667 58.6738 60.7234C59.2302 61.9221 59.7865 63.1184 60.3429 64.3171C60.4944 64.4084 60.646 64.4972 60.7999 64.5884L60.7951 64.5835C61.387 65.1607 61.9765 65.7403 62.5684 66.3174C64.1144 67.7308 65.6581 69.1441 67.2041 70.5574C67.6728 70.9545 68.144 71.3491 68.6128 71.7462L68.5962 71.7364L68.5938 71.7339ZM42.056 93.1357C42.4135 93.0568 42.7663 92.9606 43.1285 92.9236C43.164 92.9211 43.2327 93.2812 43.2871 93.4712C42.8846 94.1223 42.4822 94.7735 42.082 95.4222L41.5541 96.8133C41.4286 96.796 41.3008 96.7787 41.1753 96.759V94.9215C41.4688 94.3246 41.7624 93.7301 42.056 93.1332V93.1357ZM36.6509 90.7284C36.8782 90.2721 36.8758 89.4754 37.7329 89.9737C38.5544 90.4522 39.4091 90.869 40.1975 91.3968C40.3821 91.5202 40.5171 92.1195 40.4011 92.2724C39.4967 93.4514 39.3878 94.7957 39.4446 96.2164C39.4635 96.6727 39.3783 97.5187 39.2694 97.531C38.7201 97.5951 38.062 97.6001 37.605 97.3263C37.1078 97.0279 36.7929 96.4038 36.3976 95.9204C35.5192 94.1396 35.9477 92.4254 36.6462 90.7259L36.6509 90.7284ZM63.3781 18.9631C63.1366 18.8028 62.8928 18.6424 62.3364 18.2749C65.6202 18.7041 68.1724 17.7866 70.5257 16.0575C71.8374 15.0931 73.2295 14.2471 74.5742 13.3271C75.1235 12.9522 75.3532 13.0336 75.249 13.7464C75.3153 13.8007 75.3437 13.8722 75.3342 13.9585C75.3674 14.2299 75.4029 14.5036 75.436 14.775L75.4218 15.2559C75.6444 19.5402 71.6172 22.7812 67.4858 21.5356C65.9422 21.0695 64.3157 20.5638 63.3781 18.9631ZM72.0812 5.13834C72.1948 6.07561 72.434 7.01535 72.4008 7.94768C72.1783 14.183 66.4725 18.5166 60.0825 15.7295C58.8159 14.9131 57.5468 14.0967 56.2802 13.2827C55.9961 13.152 55.712 13.0213 55.4279 12.893C62.3885 12.8511 68.0848 10.4191 72.1404 4.32933C72.1215 4.60064 72.1025 4.87196 72.0836 5.14327L72.0812 5.13834ZM45.7944 18.6523C45.7423 18.6326 45.6902 18.6128 45.6381 18.5956C45.6618 18.5709 45.6878 18.5462 45.7115 18.5216C47.4398 17.0121 49.2936 16.9332 51.1166 18.2897C54.1778 20.5663 55.1035 25.9211 52.9964 29.1571C52.0234 30.6518 50.7212 31.3178 49.2155 31.1032C49.6842 30.6494 50.2335 30.2424 50.636 29.7121C52.8118 26.8337 52.066 21.3038 49.2368 19.1431C48.1785 18.3366 47.0397 18.0702 45.7944 18.6548V18.6523ZM63.9226 104.743C64.5477 107.419 62.2417 112.626 59.9333 113.756C58.9366 114.244 58.1127 113.827 58.0133 112.594C57.9304 111.551 57.9541 110.428 58.2358 109.434C58.9058 107.069 59.7416 104.748 62.0973 103.552C63.3 103.058 63.6433 103.283 63.9226 104.743ZM47.3167 22.9095C46.5425 23.5606 46.095 24.1674 45.5434 24.3006C45.2901 24.3623 44.5916 23.5261 44.5206 23.0328C44.4046 22.209 44.8923 21.4172 45.7873 21.5282C46.2395 21.5825 46.6206 22.2534 47.3143 22.9119L47.3167 22.9095Z" fill="#162B6E"/>
<path d="M36.5875 9.62219C38.8651 11.6275 40.8633 13.8621 41.9618 16.8194C42.3004 17.7271 42.5892 18.6521 42.942 19.6929C43.1882 19.3328 43.3942 19.0516 43.5789 18.7606C45.7073 15.4209 49.2065 14.792 52.2535 17.2018C55.9185 20.0999 56.7637 26.6041 53.9889 30.4197C52.701 32.1882 50.9538 32.8936 48.9769 32.8172C49.9996 34.3267 51.2142 35.7128 51.9742 37.3309C53.7309 41.0701 53.6741 44.8512 51.5835 48.5041C51.3633 48.8914 51.1905 49.3082 50.9987 49.7102C51.0106 49.7916 51.0508 49.8829 51.0295 49.952C49.4788 54.5865 46.794 58.1876 42.4117 60.2619C42.0186 60.4469 41.467 60.7972 41.4125 61.14C41.0953 63.1798 40.7094 65.2418 40.7189 67.2939C40.7283 69.6346 41.1119 71.9753 41.3628 74.3136C41.4978 75.5814 42.1773 76.2893 43.38 76.1536C44.2749 76.0525 45.132 75.5838 46.4317 75.13C45.8162 75.8009 45.4042 76.2399 45.0041 76.6913C44.7603 76.9651 44.533 77.2561 44.2986 77.5398C44.6443 77.6705 45.0112 77.9467 45.3332 77.8974C45.8683 77.8185 46.3749 77.5324 46.8934 77.3326C46.5241 78.9309 45.3616 79.513 44.0311 78.8002C43.7612 78.6571 43.4226 78.6571 43.1148 78.5905C43.1977 78.9309 43.2 79.328 43.38 79.6018C44.1021 80.7068 44.881 81.7748 45.6362 82.8551C45.8825 83.0919 46.1263 83.3287 46.3726 83.563C46.4507 83.6444 46.5288 83.7258 46.6069 83.8072C46.9195 83.9527 47.277 84.039 47.535 84.2536C49.8008 86.1503 54.846 86.4389 57.474 84.7321C56.9579 84.3251 56.437 83.9773 55.9895 83.5482C54.8105 82.4136 53.3 81.5799 52.7957 79.8164C51.593 78.4918 50.3903 77.1649 49.1876 75.8404C49.2681 75.7442 49.3486 75.6455 49.4314 75.5493C50.3311 76.1709 51.2331 76.7924 52.1328 77.414C52.5495 77.3153 52.9662 77.2167 53.3852 77.1205C53.9747 76.3559 53.9392 75.5222 53.5794 74.6934C53.3213 74.099 52.9283 73.5662 52.6868 72.9669C52.5613 72.6561 52.6323 72.2565 52.6158 71.8989C52.9165 72.0025 53.2668 72.0419 53.5107 72.2269C53.9534 72.5624 54.3015 73.0359 54.7513 73.3541C55.0496 73.5662 55.4592 73.6106 55.8191 73.7315C55.8996 73.3171 56.1245 72.8658 56.0321 72.4982C55.8143 71.635 55.4118 70.8235 55.1538 69.9701C55.052 69.6322 55.1277 69.2375 55.123 68.8676C55.4568 68.9983 55.8427 69.0575 56.115 69.2721C56.9507 69.938 57.7226 70.6903 58.5654 71.3415C58.7572 71.4894 59.2473 71.4845 59.4083 71.3291C59.5811 71.1639 59.6545 70.6804 59.5503 70.4437C59.2733 69.8196 58.9182 69.2203 58.5133 68.6752C58.1535 68.1942 57.6373 67.8366 57.2869 67.3507C57.1212 67.1188 57.1828 66.7069 57.1425 66.3789C57.4266 66.3912 57.7391 66.3271 57.9925 66.4257C58.7951 66.7464 59.5503 67.2569 60.3766 67.4321C60.8004 67.5209 61.3331 67.0547 61.8161 66.8376C61.4775 66.0878 61.1413 65.338 60.8027 64.5857L60.8075 64.5906C60.656 64.4994 60.5044 64.4106 60.3505 64.3193C59.7942 63.1206 59.2378 61.9244 58.6814 60.7256C58.7217 60.6689 58.7619 60.6122 58.8045 60.5554C59.342 60.955 59.8557 61.399 60.4287 61.732C60.708 61.8948 61.2242 62.0181 61.423 61.8652C66.2836 58.0914 69.7592 53.3286 71.0234 47.0242C71.0471 46.9083 71.0116 46.7825 71.0021 46.6592C71.5159 42.8558 71.0258 39.1487 69.9746 35.5081C69.8207 34.9754 69.4822 34.2971 69.0489 34.0874C67.0886 33.1403 66.7903 32.6297 67.1572 30.3901C67.2448 29.8574 67.3514 29.1495 67.1028 28.7672C65.777 26.7397 64.489 24.6531 62.9146 22.8426C57.3296 16.4199 50.3358 12.4167 42.2933 10.3991C40.4419 9.93544 38.4981 9.87131 36.5946 9.62219H36.5875ZM63.7598 53.9872C63.6272 55.0083 62.5453 55.5411 61.1342 55.1661C60.6228 55.0305 60.0262 55.0231 59.5101 55.1513C58.3263 55.4449 57.2822 54.8578 57.1236 53.7356C57.5734 53.8984 58.0351 54.1721 58.511 54.2042C58.84 54.2264 59.1928 53.9206 59.5337 53.7627C59.3278 53.5136 59.1123 53.2719 58.9205 53.0104C58.5417 52.4974 58.1771 51.977 57.8386 51.5009C58.7785 51.8783 59.5716 52.4308 60.3766 52.453C61.2052 52.4777 62.0504 51.9868 63.1916 51.6242C62.5737 52.2557 62.0836 52.7588 61.5888 53.2571C61.4325 53.4149 61.2644 53.5629 61.1011 53.7183C61.2786 53.9132 61.4633 54.2831 61.6314 54.2757C62.3345 54.2437 63.0353 54.0981 63.7598 53.9896V53.9872ZM48.5696 67.6195C48.3589 68.2164 48.3376 68.5247 48.1814 68.6801C47.3409 69.5113 46.5312 70.4017 45.5889 71.0874C44.1992 72.0987 42.5087 71.1885 42.2838 69.4127C43.7446 70.826 44.4477 70.8975 45.2148 69.8394C44.7295 69.1117 44.2678 68.4211 43.8038 67.728C43.889 67.6318 43.9742 67.5356 44.0571 67.4419C45.3403 69.2647 46.794 69.0353 48.5673 67.617L48.5696 67.6195ZM55.9777 62.1735C55.6462 63.609 54.5524 64.3193 53.3308 64.0209C52.1494 63.7323 51.5717 62.9998 51.7492 62.023C53.2148 63.4166 53.809 63.4487 55.9777 62.1735ZM53.7901 56.9568C53.5131 58.2197 52.6394 58.819 51.477 58.6587C50.2317 58.4861 49.5545 57.7362 49.6208 56.5276C50.8638 57.978 52.2559 58.0495 53.7901 56.9593V56.9568Z" fill="#24A5EE"/>
<path d="M36.884 47.3527C35.3522 47.5131 33.8204 47.6931 32.2862 47.814C31.9287 47.8411 31.557 47.6611 31.1924 47.5772C30.4064 47.4243 29.6227 47.2714 28.8367 47.1184C28.7586 47.1184 28.6781 47.1012 28.6023 47.116C28.2093 47.1924 27.8187 47.2763 27.428 47.3552C27.6577 47.7573 27.8873 48.1593 28.117 48.5589C28.5502 48.7266 28.9906 48.877 29.4167 49.062C30.5721 49.5627 31.6849 50.2386 32.8852 50.5543C36.6117 51.5384 40.3051 51.1388 43.8753 49.765C46.3187 48.8252 48.5512 47.4711 50.1493 45.2168C50.5281 44.6815 50.9141 44.1537 51.2952 43.6209C51.4775 40.925 51.0301 38.4265 49.1929 36.3645C49.11 36.2338 49.0271 36.103 48.9443 35.9698L48.9608 35.9846C48.7998 35.8145 48.6365 35.6443 48.4755 35.4741L48.4897 35.4864C47.8528 34.8205 47.216 34.157 46.5791 33.491C46.4489 33.2468 46.366 32.9508 46.179 32.7683C43.0491 29.7493 41.8298 25.872 41.361 21.5877C41.103 19.2198 40.3808 16.963 38.9793 15.0095C38.9106 14.8615 38.8419 14.716 38.7733 14.568L38.7449 14.5236C38.5152 14.272 38.2879 14.0204 38.0583 13.7689L38.0701 13.7812C37.8405 13.6381 37.6037 13.5049 37.3788 13.352C35.9701 12.4 34.5804 11.4134 33.1385 10.5205C32.8994 10.3725 32.2744 10.4884 32.0992 10.7104C30.5697 12.6639 27.7192 12.4715 26.4431 10.3232C26.2513 10.0001 25.7494 9.62761 25.4369 9.66707C21.4642 10.1604 17.6572 11.2604 14.1863 13.3915C12.7776 14.2572 11.4613 15.2858 10.1047 16.2403L10.1165 16.2304C10.0337 16.3168 9.95079 16.4031 9.86793 16.4894L9.87976 16.4771C9.7969 16.5634 9.71404 16.6522 9.63117 16.7385L9.64538 16.7237C9.56252 16.8101 9.47728 16.8989 9.39442 16.9852L9.40862 16.9704C9.32576 17.0592 9.2429 17.1455 9.15767 17.2343L9.17423 17.2195C9.09137 17.3083 9.00614 17.3946 8.92327 17.4834L8.93748 17.4661C8.85461 17.5549 8.76938 17.6413 8.68652 17.7301L8.70309 17.7153C8.60129 17.8041 8.50185 17.8929 8.40005 17.9816C7.32045 19.7551 6.12247 21.4668 5.18966 23.3216C3.75019 26.1803 3.17014 29.3078 3.02335 32.5217C3.86147 30.8001 4.83216 29.187 6.39474 28.0548C10.2467 25.2603 15.1333 26.1556 19.0635 28.9009C22.146 31.0541 25.1481 33.343 28.3253 35.3286C32.6627 38.0392 37.4143 39.4575 42.5116 39.4229C43.6433 39.4155 44.775 39.2873 45.9067 39.2158C46.1742 38.8803 46.4418 38.5473 46.7874 38.1157C47.4385 39.5981 48.1914 40.9028 48.5655 42.3186C48.8188 43.2732 47.8197 42.7083 47.4006 42.8686C44.749 45.4042 41.5717 46.8027 38.0867 47.5057C37.7103 47.5821 37.2865 47.4045 36.884 47.3453V47.3527ZM24.0045 10.9867C24.5278 11.4257 24.8663 11.7118 25.2072 11.9955C24.7219 12.3284 24.2697 12.8267 23.7394 12.9377C23.4079 13.0092 22.9604 12.5036 22.5674 12.2594C23.0007 11.8771 23.434 11.4948 24.0045 10.9867Z" fill="#5C6A7A"/>
<path d="M42.2683 54.9873C39.1171 55.7273 36.0204 55.53 32.9449 54.499C32.6371 54.3954 32.0097 54.6099 31.8369 54.8837C26.4342 63.5288 26.0933 73.8684 32.1163 82.2792C35.2864 86.7065 39.4486 89.6614 44.5838 91.0698C45.1046 91.2128 45.7699 91.161 46.2671 90.9489C48.8406 89.8489 51.355 89.6639 53.9001 91.055C54.3026 91.2745 54.9276 91.3214 55.3585 91.1684C56.9921 90.5888 58.5854 89.8932 60.1954 89.2396C58.5452 88.914 56.8335 88.7735 55.2567 88.2185C52.676 87.3108 50.183 86.1318 47.6521 85.0663C44.1079 84.1685 41.0561 82.3704 38.3027 79.8669C35.2343 77.0798 33.1509 73.7179 32.2157 69.6186C31.3208 65.6969 33.5676 62.3005 37.3841 61.6074C38.5773 61.3904 39.7611 61.1363 40.9496 60.8971C41.39 58.9263 41.8303 56.9581 42.2707 54.9873H42.2683Z" fill="#B4912C"/>
<path d="M45.9051 39.2183C44.7734 39.2898 43.6417 39.4181 42.51 39.4255C37.4127 39.4576 32.661 38.0418 28.3237 35.3311C25.1465 33.3431 22.142 31.0567 19.0619 28.9034C15.1317 26.1582 10.2451 25.2629 6.39312 28.0574C4.83054 29.1895 3.85985 30.8026 3.02174 32.5242C3.02174 33.9523 3.02174 35.3804 3.02174 37.0601C3.9001 36.5644 4.608 36.1796 5.30169 35.7726C8.77724 33.7452 12.4351 33.5774 16.2374 34.5147C19.5283 35.3237 22.4143 37.0601 25.3998 38.6042C29.6235 40.7895 33.9561 42.7528 38.7646 42.9921C41.0256 43.1031 43.1966 42.5728 45.2067 41.4012C46.1229 40.8684 45.7985 39.9879 45.9004 39.2183H45.9051Z" fill="#455677"/>
<path d="M47.652 85.0628C50.1829 86.1283 52.6759 87.3073 55.2565 88.215C56.8333 88.77 58.545 88.9106 60.1952 89.2361C62.5604 87.8376 64.9232 86.4391 67.2884 85.0431C67.3144 85.0579 67.3405 85.0727 67.3665 85.0875C66.0502 86.3232 64.7338 87.5589 63.2091 88.9895C64.703 90.1216 65.7945 90.9479 66.8859 91.7717L66.9711 91.6977C66.8741 91.345 66.7012 90.9947 66.6965 90.642C66.6918 90.203 66.6847 89.5666 66.9356 89.3743C67.1842 89.1819 67.8353 89.2879 68.1596 89.5074C69.6749 90.5286 71.138 91.636 72.6201 92.7114V92.7065C71.8767 91.3697 71.0859 90.0575 70.4041 88.6886C70.1436 88.1681 70.1294 87.5145 70.004 86.9226C70.6148 86.9102 71.2824 86.7228 71.8293 86.9152C74.623 87.8968 77.386 88.9772 80.1607 90.018C80.407 90.1117 80.6674 90.166 81.0438 90.0427C80.0234 89.0635 79.0172 88.0695 77.9826 87.1075C75.312 84.6287 72.6154 82.1745 69.9566 79.6809C69.4973 79.2493 69.2298 79.1728 68.6829 79.5946C64.3787 82.9046 58.1639 83.5558 53.5329 80.1816C53.3104 80.0213 53.0405 79.9325 52.7919 79.8092C53.2962 81.5727 54.8067 82.4064 55.9857 83.541C56.4332 83.9726 56.954 84.3179 57.4702 84.7249C54.8422 86.4317 49.7946 86.1431 47.5312 84.2464C47.2732 84.0318 46.9157 83.9455 46.6031 83.8L46.5771 83.8296C46.9346 84.239 47.2921 84.6509 47.6472 85.0603L47.652 85.0628Z" fill="#207EC5"/>
<path d="M54.6877 104.742C55.3814 105.095 56.094 105.416 56.7664 105.81C57.2565 106.099 57.5595 106.134 57.891 105.549C58.3455 104.745 58.9114 104.012 59.4275 103.248C59.0842 103.021 58.7646 102.742 58.3976 102.579C57.4009 102.133 56.3307 101.837 55.3956 101.287C54.6806 100.868 54.1266 100.15 53.5015 99.5628L53.4755 99.5973C53.395 99.5085 53.3145 99.4197 53.2364 99.3334L53.2387 99.3556C53.1559 99.2668 53.073 99.1805 52.9901 99.0917L53.0067 99.1016C52.197 98.6946 51.3873 98.2851 50.5776 97.8782C47.9804 98.7217 47.2275 101.011 48.9369 103.179C50.3314 104.947 51.8087 106.659 53.3831 108.252C54.1905 109.069 55.2914 109.569 56.2573 110.211C56.4988 109.118 57.1357 107.9 56.8634 106.967C56.6101 106.094 55.3932 105.527 54.6001 104.826C54.5574 104.76 54.5148 104.691 54.4698 104.624C54.5409 104.664 54.6143 104.703 54.6853 104.742H54.6877ZM52.2207 102.426C50.973 102.454 50.2485 101.859 49.9478 100.796C50.0283 100.705 50.1088 100.614 50.1893 100.522C50.8664 101.156 51.5436 101.793 52.2207 102.426Z" fill="#E5886D"/>
<path d="M53.3836 77.1153C52.9669 77.2139 52.5479 77.3101 52.1312 77.4088C53.5044 78.499 54.8941 79.5472 56.7219 79.6064C56.6556 78.8788 56.5869 78.1512 56.5206 77.4236C56.4922 77.3866 56.4662 77.3496 56.4378 77.3101C56.4685 77.3447 56.4993 77.3792 56.5301 77.4137L57.515 77.7788C57.6665 77.833 57.818 77.8873 57.9696 77.9415C58.0477 77.9761 58.1282 78.0081 58.2063 78.0427C58.2987 78.0772 58.391 78.1117 58.481 78.1463C59.0965 78.2153 59.7121 78.2819 60.33 78.351C61.1231 77.838 60.6283 77.2386 60.4579 76.6417C60.3774 76.3556 60.4034 76.0349 60.3797 75.7316C60.6709 75.7094 60.974 75.6206 61.251 75.6748C61.9778 75.8204 62.6904 76.03 63.7393 76.2964C63.306 75.6255 63.0598 75.3098 62.887 74.9571C62.7591 74.6956 62.591 74.3084 62.6928 74.1185C62.7875 73.9359 63.2042 73.8817 63.4812 73.8718C64.0139 73.8546 64.549 73.9063 65.0817 73.931C64.9207 73.3736 64.7597 72.8162 64.5987 72.2587C64.575 72.1798 64.549 72.1033 64.5229 72.0269C64.3856 71.7753 64.2483 71.5237 64.0731 71.2055H66.4714C66.5566 71.1562 66.6419 71.1069 66.7271 71.0551L66.7721 71.0945C65.2403 69.8243 63.7061 68.5565 62.172 67.2863C61.4049 67.671 60.6354 68.0583 59.8423 68.4554C60.3229 69.5308 61.3362 70.7196 60.3253 72.0713C59.428 73.2725 58.3152 72.4116 57.2972 72.1206C56.9302 75.0385 56.8047 75.1569 54.4774 74.7844C54.1365 75.5762 54.7947 76.8809 53.3742 77.1153H53.3836Z" fill="#F0BC19"/>
<path d="M42.2687 54.9867C41.8283 56.9574 41.388 58.9257 40.9476 60.8964C40.7795 62.1938 40.5948 63.4863 40.4433 64.7861C39.9272 69.2061 40.3462 73.5126 41.9609 77.6612C42.1148 78.0213 42.2687 78.379 42.4226 78.7391C42.4628 78.7638 42.4818 78.7983 42.4794 78.8452C42.5102 78.9192 42.5386 78.9907 42.5694 79.0647C43.5566 80.3621 44.5439 81.657 45.5312 82.9543C45.5643 82.9198 45.5998 82.8853 45.6377 82.8532C44.8801 81.7729 44.1035 80.7049 43.3814 79.5999C43.2039 79.3261 43.1991 78.929 43.1163 78.5886C43.4241 78.6552 43.765 78.6552 44.0325 78.7983C45.3631 79.5111 46.5255 78.929 46.8949 77.3307C46.3764 77.5305 45.8697 77.8166 45.3347 77.8956C45.0127 77.9424 44.6457 77.6662 44.3001 77.5379C44.5344 77.2543 44.7617 76.9657 45.0056 76.6894C45.4057 76.2381 45.8176 75.799 46.4332 75.1281C45.1311 75.582 44.2764 76.0506 43.3814 76.1517C42.1787 76.2874 41.5016 75.5795 41.3643 74.3117C41.1133 71.9735 40.7298 69.6328 40.7203 67.2921C40.7109 65.2399 41.0968 63.1779 41.414 61.1381C41.4685 60.7928 42.0201 60.4451 42.4131 60.2601C46.7978 58.1857 49.4802 54.5846 51.031 49.9501C51.0547 49.881 51.012 49.7898 51.0002 49.7084C49.9585 50.6358 49.0233 51.7679 47.8466 52.4413C46.0757 53.4575 44.1343 54.153 42.2663 54.9842L42.2687 54.9867Z" fill="#207EC5"/>
<path d="M36.5876 9.62393C38.4887 9.87305 40.4349 9.93471 42.2863 10.4009C50.3288 12.4185 57.3226 16.4216 62.9076 22.8444C64.482 24.6548 65.77 26.7414 67.0958 28.7689C67.3444 29.1488 67.2378 29.8591 67.1502 30.3919C66.7833 32.6315 67.0816 33.142 69.0419 34.0892C69.4752 34.2988 69.8137 34.9771 69.9676 35.5099C71.0188 39.1504 71.5089 42.8576 70.9951 46.6609C71.9114 43.0746 71.6509 39.4933 70.7963 35.9612C68.7341 27.4271 63.786 21.0142 56.9674 16.0763C50.7029 11.5404 43.676 9.21942 36.0951 8.64226C35.7921 8.62006 35.4867 8.6398 34.7859 8.6398C35.6027 9.08623 36.0975 9.35508 36.5923 9.6264L36.5876 9.62393Z" fill="#91D1F7"/>
<path d="M51.2948 43.621C50.9113 44.1537 50.5253 44.6816 50.1489 45.2168C48.5532 47.4736 46.3206 48.8253 43.8749 49.765C40.3047 51.1389 36.6113 51.5384 32.8848 50.5543C31.6844 50.2386 30.574 49.5603 29.4163 49.0621C28.9902 48.8771 28.5498 48.7266 28.1165 48.5589C30.4344 51.7358 33.5998 53.2206 37.3381 53.4944C40.7758 53.746 43.9744 52.9394 46.8343 50.8996C49.3013 49.141 50.9989 46.8398 51.2948 43.621Z" fill="#455677"/>
<path d="M57.044 79.703C58.455 79.9866 59.8779 80.5663 61.2701 80.4947C65.1552 80.29 68.1975 78.3341 70.5177 75.0734C71.1475 74.1879 71.3629 73.5639 70.3188 72.9325C69.8524 72.6488 69.4168 72.3109 68.9669 71.9976C68.8415 71.9113 68.716 71.8225 68.5929 71.7362L68.6094 71.7461C68.1714 71.5759 67.7335 71.4032 67.2931 71.233C66.6183 71.4106 65.9436 71.5907 65.2688 71.7683C65.4488 72.0815 65.6216 72.3972 65.8086 72.7031C66.6041 74.0005 66.3769 74.6861 64.9942 75.2411C64.8332 75.3052 64.6343 75.5395 64.6249 75.7097C64.5183 77.3228 64.4544 77.4018 62.8279 77.1896C62.2479 77.1132 61.9708 77.2192 61.9448 77.9148C61.9046 79.0198 61.2369 79.5945 60.2236 79.4095C59.2198 79.227 58.2562 78.8126 57.276 78.5018C57.1979 78.9014 57.1197 79.301 57.0416 79.7005L57.044 79.703Z" fill="#207EC5"/>
<path d="M62.0959 103.549C59.7426 104.746 58.9069 107.067 58.2345 109.432C57.9527 110.426 57.9267 111.548 58.0119 112.592C58.1114 113.825 58.9329 114.242 59.932 113.753C62.2404 112.624 64.5463 107.417 63.9213 104.741C63.7958 104.775 63.6135 104.884 63.5543 104.834C63.0548 104.422 62.5789 103.981 62.0959 103.547V103.549Z" fill="#A36B70"/>
<path d="M11.7132 101.039C11.003 101.824 11.1284 102.62 11.8529 103.235C12.5916 103.861 13.1929 103.343 13.6309 102.699C15.3592 100.161 17.8404 99.8209 20.3737 100.605C23.0751 101.441 25.31 101.192 27.5166 99.2783C29.3112 97.7194 31.468 96.7624 33.8214 96.3752C34.051 96.3382 34.4085 95.9806 34.4085 95.7734C34.4085 94.878 34.2949 93.9852 34.2238 93.0923C34.1765 93.1367 34.1244 93.1613 34.0605 93.1663C34.2499 94.9693 32.8436 94.6634 31.8871 94.9471C30.2322 95.9288 28.5772 96.9129 26.9223 97.8946H26.9318C26.8797 97.9587 26.8276 98.0253 26.7755 98.0919C25.4284 99.1525 23.9108 99.668 22.2488 99.3153C20.9182 99.0341 19.6256 98.5506 18.3163 98.1585C17.9849 98.1659 17.651 98.1733 17.3196 98.1807C15.9653 98.9971 14.6087 99.7592 13.6215 101.143C13.335 101.545 12.2885 102.228 11.7109 101.042L11.7132 101.039Z" fill="#A36B70"/>
<path d="M56.2796 13.2823C57.5463 14.0987 58.8153 14.9151 60.0819 15.7316C60.5341 15.6625 60.9887 15.5194 61.4361 15.5367C64.6229 15.66 67.284 14.6093 69.1685 11.8271C70.1416 10.3916 71.0081 8.89441 70.8779 7.02234C69.1496 8.42824 67.4166 9.82922 65.6977 11.2475C65.5249 11.3905 65.3781 11.6248 65.3118 11.8468C64.9306 13.159 64.0499 13.1935 62.9679 12.9666C62.2671 12.8186 61.5237 12.7718 60.8087 12.8211C59.2959 12.9271 57.7878 13.1245 56.2773 13.2848L56.2796 13.2823Z" fill="#24A5EE"/>
<path d="M18.3184 98.1568C19.6276 98.549 20.9203 99.0324 22.2509 99.3136C23.9129 99.6638 25.4305 99.1508 26.7776 98.0902C26.8297 98.0236 26.8818 97.957 26.9339 97.888L26.9244 97.8904C28.1413 96.1096 29.8578 95.234 31.8891 94.943C32.848 94.6593 34.252 94.9652 34.0626 93.1621C34.0744 92.178 33.4399 92.3753 32.9261 92.548C31.9318 92.8785 30.9587 93.283 29.9785 93.6554C29.9785 93.6554 29.9691 93.6579 29.9714 93.6579C29.8838 93.7344 29.7986 93.8084 29.711 93.8848L29.7276 93.87C29.5808 93.9662 29.4316 94.0624 29.2848 94.1561L29.2683 94.1685C29.183 94.2375 29.0978 94.3066 29.0149 94.3781L29.0599 94.4349L29.0126 94.3831C28.9297 94.4571 28.8469 94.5286 28.764 94.6001H28.7498C28.629 94.6914 28.5107 94.7826 28.3899 94.8739C27.1754 95.5275 25.9655 96.1959 24.7368 96.8175C24.5995 96.8866 24.3438 96.7065 24.1425 96.6424C24.2585 96.4993 24.3769 96.3538 24.4929 96.2107C23.9839 95.6804 23.4749 95.1526 22.9659 94.6223L22.9564 94.647C22.8806 94.5533 22.8049 94.462 22.7291 94.3683L22.7339 94.3855C22.6605 94.2943 22.5871 94.2055 22.5137 94.1142C22.4332 94.0032 22.3527 93.8898 22.2698 93.7788C21.9241 92.9081 21.5785 92.0374 21.2305 91.1667C20.8303 91.1914 20.4302 91.2136 20.0301 91.2358C20.4705 92.9081 20.7948 94.6223 21.3843 96.2354C21.8531 97.5205 21.8318 97.7893 20.506 97.9077C19.7768 97.9866 19.0499 98.068 18.3207 98.147L18.3184 98.1568Z" fill="#E5886D"/>
<path d="M10.1057 16.2495C11.4646 15.295 12.7786 14.2664 14.1873 13.4007C17.6558 11.2696 21.4651 10.1696 25.4379 9.67627C25.7504 9.6368 26.2523 10.0092 26.4441 10.3324C27.7202 12.4782 30.5707 12.6706 32.1002 10.7196C32.2754 10.4951 32.9004 10.3817 33.1395 10.5297C34.5813 11.4225 35.9711 12.4091 37.3798 13.3612C37.6047 13.5141 37.8415 13.6473 38.0711 13.7904C36.7382 12.6213 35.4857 11.3288 34.0558 10.3102C31.5911 8.55647 28.8164 8.42328 25.909 8.81052C20.4873 9.53568 15.5037 11.2918 11.2326 14.9422C10.8041 15.3098 10.4797 15.8129 10.108 16.252L10.1057 16.2495Z" fill="#ACB6C5"/>
<path d="M75.3335 13.9626C75.343 13.8763 75.3146 13.8048 75.2483 13.7505C74.4362 14.2241 73.5981 14.6582 72.8144 15.1786C70.1817 16.9298 67.684 18.9967 64.3221 18.9696C64.4191 19.1349 64.4759 19.3815 64.6156 19.4555C66.905 20.6493 69.8811 20.928 72.2841 19.2385C73.7402 18.2149 74.5167 16.7054 75.4235 15.26C75.4282 15.0997 75.4329 14.9393 75.4377 14.779C75.4045 14.5077 75.369 14.2339 75.3359 13.9626H75.3335Z" fill="#24A5EE"/>
<path d="M70.8795 7.02269C71.0097 8.89476 70.1431 10.3919 69.1701 11.8274C67.2855 14.6096 64.622 15.6604 61.4377 15.5371C60.9879 15.5198 60.5333 15.6628 60.0834 15.7319C66.4735 18.5191 72.1792 14.1854 72.4018 7.95009C72.4349 7.02022 72.1958 6.07802 72.0822 5.14075C71.6821 5.76724 71.2819 6.3962 70.8818 7.02269H70.8795Z" fill="#207EC5"/>
<path d="M43.8797 95.8942C43.6831 97.0584 43.4843 98.2201 43.2878 99.3843C44.1661 99.515 44.6657 99.0859 45.0255 98.2645C45.383 97.4481 45.7855 96.6169 46.3277 95.9337C47.6251 94.3008 49.6328 93.2279 52.6064 94.6609C53.2054 94.9495 53.8636 95.3614 54.2921 94.3896C53.9488 93.8865 53.6055 93.3808 53.2646 92.8777C53.1912 92.816 53.1154 92.7519 53.0397 92.6902C53.0397 92.6902 52.9805 92.6433 52.9805 92.6458C52.7864 92.6458 52.5875 92.6729 52.4004 92.6335C50.0424 92.1229 47.8192 92.303 45.8518 93.9506C45.6719 94.101 45.3523 94.069 45.0966 94.1233V94.1331C45.0208 94.2268 44.9427 94.3181 44.8669 94.4118L44.874 94.3995C44.6373 94.7275 44.4005 95.0531 44.1638 95.3812C44.1638 95.3812 44.159 95.396 44.1614 95.396C44.0667 95.5637 43.9744 95.7314 43.8797 95.8991V95.8942Z" fill="#EFB04B"/>
<path d="M54.2954 94.3889C53.8645 95.3607 53.2087 94.9488 52.6097 94.6602C49.6337 93.2272 47.6284 94.3001 46.3309 95.9329C45.7864 96.6186 45.3863 97.4474 45.0288 98.2638C44.6689 99.0827 44.1694 99.5118 43.291 99.3836C43.5443 99.8103 43.7077 100.392 44.0747 100.627C44.6713 101.009 45.2561 101.14 45.481 100C46.1676 96.5421 49.1578 94.9661 52.2569 96.2856C52.7517 96.4953 53.739 96.7123 53.7792 96.6137C54.0562 95.9181 54.1462 95.1412 54.2977 94.3889H54.2954Z" fill="#A36B70"/>
<path d="M75.4232 15.2598C74.5188 16.7052 73.7399 18.2147 72.2838 19.2383C69.8808 20.9303 66.9047 20.6516 64.6153 19.4553C64.4756 19.3813 64.4188 19.1347 64.3218 18.9694C64.0069 18.9694 63.692 18.9669 63.3771 18.9645C64.3147 20.5652 65.9412 21.0709 67.4848 21.537C71.6162 22.7826 75.6434 19.5416 75.4208 15.2573L75.4232 15.2598Z" fill="#207EC5"/>
<path d="M28.8375 47.1181C29.6235 47.271 30.4072 47.4239 31.1932 47.5769C33.0944 47.165 35.0097 46.8147 36.8895 46.3165C37.8815 46.0526 38.8096 45.5272 39.946 45.0413C38.1941 44.8366 36.6954 44.6565 35.1944 44.4863C35.0476 44.4691 34.8558 44.4567 34.7493 44.5357C33.0541 45.8158 31.082 46.1142 29.0743 46.2795C28.2291 46.3486 28.4019 46.6791 28.8375 47.1156V47.1181Z" fill="#455677"/>
<path d="M56.2574 110.215C55.2891 109.572 54.1882 109.071 53.3832 108.257C51.8088 106.664 50.3314 104.952 48.9369 103.183C47.2276 101.015 47.9804 98.7264 50.5776 97.8828C50.599 97.8088 50.6274 97.7373 50.6652 97.6707C48.7215 97.6165 47.6087 98.3613 47.2205 100.098C47.1139 100.576 47.1258 101.205 47.3388 101.625C49.3773 105.633 52.1639 108.994 55.6276 111.742C55.7413 111.831 55.8975 111.863 56.2574 112.016V110.215Z" fill="#A36B70"/>
<path d="M70.8805 7.02267C71.2806 6.39618 71.6807 5.76722 72.0808 5.14073C72.0998 4.86941 72.1187 4.5981 72.1376 4.32678C68.082 10.4166 62.3857 12.851 55.4251 12.8905C55.7092 13.0212 55.9933 13.1519 56.2775 13.2802C57.7879 13.1199 59.2961 12.9225 60.8089 12.8165C61.5239 12.7671 62.2673 12.814 62.9681 12.962C64.0501 13.1914 64.9308 13.1544 65.312 11.8422C65.3759 11.6202 65.5227 11.3859 65.6979 11.2429C67.4167 9.82461 69.1498 8.42364 70.8781 7.01774L70.8805 7.02267Z" fill="#91D1F7"/>
<path d="M36.6495 90.7312C35.951 92.4306 35.5225 94.1424 36.4009 95.9257C38.1102 95.8615 39.2751 94.7294 39.2396 93.1706C39.2112 91.8707 38.0676 90.7953 36.6495 90.7337V90.7312Z" fill="#EFB04B"/>
<path d="M36.6494 90.7295C38.0675 90.7912 39.2087 91.8666 39.2395 93.1665C39.275 94.7277 38.1102 95.8574 36.4008 95.9215C36.7962 96.405 37.1111 97.029 37.6082 97.3274C38.0628 97.6012 38.7234 97.5963 39.2726 97.5322C39.3815 97.5198 39.4644 96.6738 39.4478 96.2175C39.3886 94.7968 39.4999 93.4501 40.4043 92.2736C40.5203 92.1207 40.3854 91.5213 40.2007 91.398C39.4123 90.8701 38.5553 90.4508 37.7361 89.9748C36.8814 89.4766 36.8838 90.2732 36.6541 90.7295H36.6494Z" fill="#A36B70"/>
<path d="M63.3777 18.9658C63.6926 18.9658 64.0075 18.9683 64.3224 18.9707C67.6843 18.9979 70.182 16.9309 72.8147 15.1797C73.5984 14.6593 74.4365 14.2252 75.2486 13.7516C75.3527 13.0363 75.1231 12.9549 74.5738 13.3299C73.2291 14.2474 71.8369 15.0959 70.5253 16.0603C68.172 17.7918 65.6198 18.7068 62.336 18.2777C62.8924 18.6452 63.1338 18.8055 63.3777 18.9658Z" fill="#91D1F7"/>
<path d="M36.8846 47.3527C37.2871 47.4119 37.7109 47.587 38.0873 47.513C41.5724 46.81 44.7496 45.4115 47.4012 42.876C47.0153 42.9376 46.5371 42.871 46.2554 43.0832C43.4238 45.2142 40.2891 46.6004 36.8846 47.3527Z" fill="#ACB6C5"/>
<path d="M11.7124 101.037C12.2901 102.223 13.3365 101.54 13.623 101.138C14.6103 99.7568 15.9669 98.9947 17.3211 98.1758C16.8571 98.2424 16.3788 98.2522 15.9361 98.3879C15.0033 98.6715 14.0894 99.0193 13.1684 99.34L13.1566 99.3227C12.9956 99.4855 12.8346 99.6458 12.676 99.8086L12.6973 99.8357C12.6144 99.9171 12.5316 99.9961 12.4487 100.077H12.4558C12.3706 100.154 12.283 100.233 12.1977 100.309C12.1977 100.309 12.2072 100.309 12.2096 100.309C12.122 100.386 12.0344 100.465 11.9468 100.541C11.9468 100.541 11.9562 100.549 11.9562 100.551C11.8876 100.645 11.8213 100.736 11.7526 100.827C11.7313 100.896 11.7171 100.968 11.7124 101.039V101.037Z" fill="#E5886D"/>
<path d="M62.1817 67.287C63.7135 68.5572 65.2477 69.825 66.7795 71.0952C66.905 71.0804 67.0281 71.0632 67.1536 71.0484C67.1702 70.8856 67.1867 70.7203 67.2033 70.5575C65.6573 69.1442 64.1137 67.7309 62.5677 66.3176C62.4256 66.4656 62.2835 66.6111 62.1415 66.7591L62.1817 67.287Z" fill="#EFB04B"/>
<path d="M53.4987 99.5682C54.1238 100.153 54.6778 100.871 55.3928 101.292C56.3279 101.842 57.3981 102.138 58.3948 102.585C58.7618 102.75 59.0814 103.029 59.4247 103.253C59.6449 103.051 59.8627 102.851 59.9669 102.755C57.7935 101.684 55.6461 100.626 53.4987 99.5682Z" fill="#ACB6C5"/>
<path d="M45.1001 94.1185C45.3558 94.0642 45.6754 94.0963 45.8553 93.9458C47.8204 92.3007 50.0435 92.1206 52.404 92.6287C52.591 92.6682 52.7922 92.6386 52.984 92.641C50.4649 91.1513 47.1883 91.7654 45.1025 94.116L45.1001 94.1185Z" fill="#ACB6C5"/>
<path d="M13.1694 99.3415C14.0904 99.0209 15.0043 98.6731 15.9371 98.3895C16.3798 98.2538 16.8581 98.2439 17.3221 98.1773C17.6559 98.1699 17.9874 98.1625 18.3188 98.1551C19.0457 98.0762 19.7749 97.9948 20.5017 97.9159C17.8572 97.2746 15.3594 97.4596 13.1671 99.3391L13.1694 99.3415Z" fill="#ACB6C5"/>
<path d="M42.079 95.4282C42.4815 94.777 42.8839 94.1259 43.2841 93.4747C42.8745 93.3637 42.4649 93.2503 42.0553 93.1393C41.7617 93.7362 41.4681 94.3306 41.1746 94.9275C41.4776 95.0952 41.7783 95.2605 42.0813 95.4282H42.079Z" fill="#E5886D"/>
<path d="M29.9765 93.6555C30.9566 93.2831 31.9297 92.8786 32.9241 92.5481C33.4378 92.3779 34.0747 92.1781 34.0605 93.1622C34.122 93.1548 34.1765 93.1302 34.2238 93.0858C34.2878 92.6837 34.3493 92.2817 34.444 91.6848C32.7749 92.0055 31.3118 92.6566 29.9765 93.6531V93.6555Z" fill="#ACB6C5"/>
<path d="M62.0956 103.552C62.5786 103.984 63.0544 104.428 63.554 104.84C63.6155 104.889 63.7955 104.78 63.921 104.746C63.6416 103.286 63.2983 103.061 62.0956 103.555V103.552Z" fill="#E5886D"/>
<path d="M62.1415 66.7594C62.2836 66.6115 62.4256 66.4659 62.5677 66.3179C61.9782 65.7408 61.3863 65.1636 60.7944 64.584C61.133 65.3338 61.4691 66.0836 61.8077 66.8334C61.919 66.8088 62.0303 66.7841 62.1415 66.7594Z" fill="#91D1F7"/>
<path d="M50.6627 97.668C50.6248 97.7346 50.5941 97.8061 50.5751 97.8801C51.3848 98.2871 52.1945 98.6965 53.0042 99.1035C52.2253 98.625 51.444 98.1465 50.6651 97.668H50.6627Z" fill="#ACB6C5"/>
<path d="M42.0785 95.4276C41.7754 95.2599 41.4748 95.0946 41.1717 94.9269C41.1717 95.5386 41.1717 96.1527 41.1717 96.7644C41.2972 96.7817 41.425 96.799 41.5505 96.8187L42.0785 95.4276Z" fill="#A36B70"/>
<path d="M22.9566 94.6293C23.4656 95.1596 23.9746 95.6874 24.4836 96.2177C24.4907 96.0179 24.576 95.7071 24.4884 95.6405C24.0006 95.2706 23.4727 94.9598 22.9566 94.6293Z" fill="#ACB6C5"/>
<path d="M57.0435 79.7043C57.1216 79.3048 57.1998 78.9052 57.2779 78.5032C57.3584 78.2614 57.4365 78.0197 57.517 77.778C57.1879 77.6571 56.8589 77.5363 56.5321 77.413L56.5203 77.4228C56.5866 78.1504 56.6552 78.8781 56.7215 79.6057C56.8281 79.6377 56.937 79.6698 57.0435 79.7019V79.7043Z" fill="#455677"/>
<path d="M67.2028 70.5553C67.1862 70.7181 67.1697 70.8833 67.1531 71.0461C67.2218 71.0905 67.2691 71.1522 67.2952 71.2311C67.7332 71.4013 68.1711 71.574 68.6115 71.7442C68.1427 71.347 67.6716 70.9524 67.2028 70.5553Z" fill="#91D1F7"/>
<path d="M42.0553 93.1362C42.4649 93.2472 42.8745 93.3607 43.2841 93.4717C43.2296 93.2793 43.1609 92.9192 43.1254 92.9241C42.7656 92.9611 42.4104 93.0573 42.0529 93.1362H42.0553Z" fill="#ACB6C5"/>
<path d="M44.1661 95.3755C44.4028 95.0499 44.6396 94.7218 44.8763 94.3938C44.6396 94.7194 44.4028 95.0474 44.1661 95.3755Z" fill="#ACB6C5"/>
<path d="M12.6721 99.8055C12.8332 99.6426 12.9943 99.4821 13.1531 99.3192C12.992 99.4797 12.8308 99.6426 12.6721 99.8055Z" fill="#ACB6C5"/>
<path d="M66.8885 91.7773C66.9406 91.876 66.9928 91.9723 67.0449 92.071C67.0709 92.0439 67.1278 92.0044 67.1231 91.9945C67.0781 91.8958 67.0236 91.7995 66.9738 91.7032L66.8885 91.7773Z" fill="#207EC5"/>
<path d="M28.3833 94.8797C28.5041 94.7884 28.6249 94.697 28.7434 94.6057C28.6226 94.697 28.5017 94.7884 28.3833 94.8797Z" fill="#ACB6C5"/>
<path d="M60.3412 64.3148C60.4929 64.4062 60.6445 64.495 60.7985 64.5864C60.6469 64.495 60.4952 64.4062 60.3412 64.3148Z" fill="#91D1F7"/>
<path d="M22.2642 93.7852C22.3447 93.8962 22.4253 94.0098 22.5082 94.1209C22.4277 94.0073 22.3471 93.8962 22.2642 93.7852Z" fill="#ACB6C5"/>
<path d="M29.0098 94.3817C29.0951 94.3126 29.1804 94.2435 29.2634 94.1719C29.1781 94.241 29.0928 94.3101 29.0098 94.3817Z" fill="#ACB6C5"/>
<path d="M72.6206 92.7188C72.6585 92.7509 72.6964 92.783 72.7319 92.815C72.7248 92.7904 72.7272 92.7558 72.713 92.7435C72.6893 92.7262 72.6538 92.7213 72.623 92.7139L72.6206 92.7188Z" fill="#207EC5"/>
<path d="M45.7114 18.5237C45.6877 18.5484 45.6617 18.5731 45.638 18.5978C45.6901 18.6175 45.7422 18.6373 45.792 18.6545C45.7636 18.6101 45.7375 18.5657 45.7114 18.5212V18.5237Z" fill="#5C6A7A"/>
<path d="M53.2316 99.3344C53.3121 99.4232 53.3927 99.5096 53.4709 99.5985C53.3903 99.5096 53.3098 99.4232 53.2316 99.3344Z" fill="#ACB6C5"/>
<path d="M68.5932 71.7358C68.7188 71.8222 68.8444 71.9111 68.9676 71.9975C68.842 71.9111 68.7164 71.8222 68.5932 71.7358Z" fill="#91D1F7"/>
<path d="M48.9434 35.9746C49.0263 36.1054 49.1093 36.2363 49.1922 36.3696C49.1093 36.2387 49.0263 36.1079 48.9434 35.9746Z" fill="#ACB6C5"/>
<path d="M9.15771 17.2417C9.24064 17.1528 9.32357 17.0664 9.40887 16.9775C9.32594 17.0664 9.24301 17.1528 9.15771 17.2417Z" fill="#ACB6C5"/>
<path d="M53.0415 92.6887C53.1173 92.7529 53.1908 92.8146 53.2666 92.8763C53.1908 92.8121 53.1173 92.7504 53.0415 92.6887Z" fill="#ACB6C5"/>
<path d="M62.1405 66.7589C62.0292 66.7836 61.9179 66.8082 61.8067 66.8329C61.3237 67.0499 60.791 67.5186 60.3672 67.4273C59.5409 67.2522 58.7857 66.7416 57.9831 66.421C57.7321 66.3198 57.4196 66.384 57.1331 66.3741C57.1734 66.7046 57.1118 67.1141 57.2776 67.3459C57.6256 67.8343 58.1441 68.1895 58.5039 68.6704C58.9088 69.2131 59.2639 69.8149 59.5409 70.4389C59.6451 70.6757 59.5717 71.1591 59.3989 71.3244C59.2379 71.4773 58.7478 71.4822 58.556 71.3367C57.7132 70.6856 56.9414 69.9308 56.1056 69.2673C55.8357 69.0527 55.4474 68.9935 55.1136 68.8628C55.1184 69.2328 55.0402 69.6274 55.1444 69.9653C55.4048 70.8187 55.8049 71.6302 56.0228 72.4935C56.1151 72.8585 55.8902 73.3124 55.8097 73.7268C55.4498 73.6059 55.0402 73.5615 54.7419 73.3494C54.2921 73.0312 53.9441 72.5576 53.5013 72.2222C53.2575 72.0372 52.9071 71.9977 52.6064 71.8941C52.623 72.2543 52.5519 72.6514 52.6774 72.9621C52.9189 73.5615 53.3119 74.0943 53.57 74.6887C53.9322 75.5174 53.9677 76.3536 53.3758 77.1157C54.7987 76.8814 54.1382 75.5742 54.4791 74.7849C56.8041 75.1573 56.9319 75.0389 57.2989 72.1211C58.3169 72.4121 59.4297 73.2754 60.327 72.0717C61.3379 70.7176 60.3246 69.5312 59.844 68.4558C60.6371 68.0563 61.4066 67.6715 62.1736 67.2867C62.1594 67.1116 62.1476 66.934 62.1334 66.7589H62.1405Z" fill="#162B6E"/>
<path d="M63.7603 53.9881C63.0335 54.0966 62.3351 54.2421 61.6319 54.2742C61.4638 54.2816 61.2791 53.9141 61.1016 53.7168C61.2649 53.5639 61.433 53.4159 61.5893 53.2555C62.0841 52.7573 62.5742 52.2541 63.1921 51.6227C62.0509 51.9853 61.2081 52.4761 60.3771 52.4515C59.5698 52.4268 58.779 51.8743 57.8391 51.4994C58.18 51.9754 58.5446 52.4959 58.9211 53.0089C59.1128 53.2703 59.3283 53.5121 59.5342 53.7612C59.1933 53.919 58.8406 54.2249 58.5115 54.2027C58.0356 54.1706 57.5739 53.8968 57.1241 53.734C57.2827 54.8563 58.3292 55.4409 59.5106 55.1498C60.0243 55.0216 60.621 55.029 61.1347 55.1646C62.5434 55.5395 63.6277 55.0068 63.7603 53.9856V53.9881Z" fill="#207EC5"/>
<path d="M48.5689 67.6195C46.7933 69.0352 45.3396 69.2646 44.0587 67.4443C43.9735 67.5405 43.8883 67.6367 43.8054 67.7305C44.2671 68.4211 44.7288 69.1142 45.2165 69.8418C44.4494 70.8999 43.7439 70.8284 42.2855 69.4151C42.5104 71.1909 44.2008 72.1011 45.5906 71.0898C46.5328 70.4041 47.3425 69.5137 48.183 68.6825C48.3416 68.5271 48.3606 68.2213 48.5713 67.6219L48.5689 67.6195Z" fill="#207EC5"/>
<path d="M55.978 62.1733C53.8094 63.4485 53.2151 63.4164 51.7496 62.0228C51.572 62.9996 52.1497 63.7296 53.3311 64.0207C54.5504 64.3191 55.6442 63.6113 55.978 62.1733Z" fill="#207EC5"/>
<path d="M53.7906 56.9556C52.2565 58.0458 50.8644 57.9767 49.6214 56.5239C49.5551 57.7325 50.2346 58.4823 51.4776 58.655C52.64 58.8153 53.5136 58.2159 53.7906 56.9531V56.9556Z" fill="#207EC5"/>
<path d="M46.3734 83.5608C46.1271 83.324 45.8833 83.0872 45.637 82.8529C45.6015 82.885 45.566 82.9195 45.5305 82.954C45.8004 83.1662 46.0703 83.3783 46.3402 83.5904L46.371 83.5633L46.3734 83.5608Z" fill="#207EC5"/>
<path d="M46.6051 83.8053C46.5269 83.7238 46.4487 83.6424 46.3705 83.5609L46.3397 83.5881C46.4179 83.6695 46.4985 83.751 46.5767 83.8349L46.6027 83.8053H46.6051Z" fill="#207EC5"/>
<path d="M24.004 10.986C23.4311 11.4916 22.9978 11.8764 22.5669 12.2587C22.9623 12.5053 23.4074 13.0085 23.7388 12.937C24.2668 12.8235 24.7214 12.3277 25.2067 11.9948C24.8682 11.7111 24.5272 11.425 24.004 10.986Z" fill="#ACB6C5"/>
<path d="M46.5798 83.8345C46.5017 83.7531 46.4212 83.6717 46.3431 83.5879C46.0732 83.3757 45.8033 83.1636 45.5334 82.9515C44.5461 81.6541 43.5589 80.3592 42.5716 79.0618C42.5361 79.0569 42.4698 79.052 42.4674 79.0421C42.4674 78.9755 42.4745 78.9089 42.4816 78.8423C42.4816 78.7954 42.4651 78.7584 42.4248 78.7362C40.9143 79.0372 40.0478 78.4033 40.1472 77.3969C40.7486 77.4833 41.3547 77.5696 41.9631 77.6559C40.3461 73.5073 39.9294 69.2008 40.4455 64.7808C40.5971 63.4834 40.7817 62.1885 40.9498 60.8911C39.7613 61.1279 38.5752 61.3844 37.3843 61.6015C33.5678 62.2946 31.321 65.6909 32.216 69.6127C33.1511 73.712 35.2369 77.0738 38.3029 79.861C41.0564 82.3645 44.1081 84.1625 47.6523 85.0604C47.2948 84.6509 46.9373 84.239 46.5822 83.8296L46.5798 83.8345ZM34.8226 65.0496C36.0466 66.5246 37.4482 66.3199 38.9137 65.5281C38.7977 66.7614 38.1893 67.1634 36.6551 67.0623C35.4382 66.9809 34.8131 66.3125 34.8226 65.0521V65.0496Z" fill="#F9C10F"/>
<path d="M52.2217 102.426C51.5446 101.792 50.8675 101.155 50.1904 100.522C50.1099 100.613 50.0294 100.704 49.9489 100.795C50.2496 101.856 50.974 102.45 52.2217 102.426Z" fill="#455677"/>
<path d="M54.6886 104.742C54.6175 104.702 54.5441 104.663 54.473 104.623C54.5156 104.69 54.5583 104.759 54.6033 104.825C54.6317 104.796 54.6602 104.769 54.691 104.739L54.6886 104.742Z" fill="#162B6E"/>
<path d="M57.5166 77.7757C57.4361 78.0174 57.3556 78.2591 57.2775 78.5008C58.2601 78.8141 59.2236 79.226 60.2275 79.4085C61.2408 79.5935 61.9084 79.0188 61.9487 77.9138C61.9724 77.2183 62.2494 77.1122 62.8318 77.1887C64.4583 77.4008 64.5222 77.3218 64.6287 75.7088C64.6406 75.541 64.8371 75.3067 64.9981 75.2401C66.3807 74.6827 66.608 73.9995 65.8125 72.7021C65.6255 72.3962 65.4527 72.0781 65.2727 71.7648L65.2775 71.7525C65.2017 71.676 65.1259 71.5996 65.0502 71.5206C64.8773 71.6884 64.7045 71.8561 64.5317 72.0238C64.5577 72.1003 64.5838 72.1767 64.6074 72.2556C64.7684 72.8131 64.9294 73.3705 65.0904 73.9279C64.5577 73.9033 64.0227 73.8515 63.49 73.8687C63.213 73.8786 62.7963 73.9329 62.7016 74.1154C62.6021 74.3053 62.7702 74.6926 62.8957 74.954C63.0685 75.3067 63.3124 75.6224 63.748 76.2933C62.6992 76.0269 61.9842 75.8173 61.2597 75.6717C60.9827 75.615 60.6797 75.7038 60.3885 75.7285C60.4122 76.0319 60.3861 76.3525 60.4666 76.6386C60.6371 77.2355 61.1319 77.8373 60.3388 78.3479C59.7232 78.2788 59.1076 78.2122 58.4897 78.1432C58.3974 78.1087 58.305 78.0741 58.2151 78.0396C58.1369 78.0075 58.0564 77.973 57.9759 77.9385C57.8244 77.8842 57.6729 77.8299 57.5214 77.7732L57.5166 77.7757Z" fill="#162B6E"/>
<path d="M64.5308 72.0273C64.7037 71.8596 64.8765 71.6919 65.0493 71.5241C65.1251 71.6006 65.2009 71.6795 65.2766 71.756L65.2719 71.7683C65.9466 71.5907 66.6214 71.4107 67.2961 71.2331C67.2701 71.1542 67.2227 71.0925 67.1541 71.0481C67.0286 71.0629 66.9055 71.0777 66.78 71.095C66.78 71.095 66.735 71.058 66.735 71.0555C66.6498 71.1048 66.5646 71.1542 66.4793 71.206H64.081C64.2538 71.5241 64.3912 71.7757 64.5308 72.0273Z" fill="#455677"/>
<path d="M58.4844 78.1461C59.1 78.2152 59.7156 78.2818 60.3335 78.3508C59.7179 78.2818 59.1024 78.2152 58.4844 78.1461Z" fill="#455677"/>
<path d="M57.9705 77.9426C58.0511 77.9772 58.1293 78.0117 58.2098 78.0438C58.1293 78.0093 58.0511 77.9772 57.9705 77.9426Z" fill="#455677"/>
<path d="M56.532 77.4139C56.5012 77.3794 56.4704 77.3448 56.4396 77.3103C56.468 77.3473 56.4941 77.3843 56.5225 77.4238L56.5344 77.4139H56.532Z" fill="#455677"/>
<path d="M41.964 77.6568C41.358 77.5705 40.7495 77.4842 40.1481 77.3978C40.0487 78.4042 40.9129 79.0381 42.4257 78.7371C42.2718 78.377 42.1179 78.0169 41.964 77.6593V77.6568Z" fill="#B4912C"/>
<path d="M42.481 78.844C42.4739 78.9106 42.4644 78.9773 42.4668 79.0439C42.4668 79.0513 42.5331 79.0563 42.571 79.0637C42.5402 78.9896 42.5118 78.918 42.481 78.844Z" fill="#B4912C"/>
<path d="M31.886 94.947C29.8523 95.2381 28.1382 96.1137 26.9213 97.8945C28.5762 96.9128 30.2311 95.9287 31.886 94.947Z" fill="#162B6E"/>
<path d="M26.9315 97.8882C26.8794 97.9548 26.8273 98.024 26.7751 98.0906C26.8273 98.024 26.8794 97.9573 26.9315 97.8882Z" fill="#162B6E"/>
<path d="M34.8214 65.0489C34.8119 66.3092 35.4369 66.9801 36.6538 67.0591C38.1856 67.1602 38.7941 66.7581 38.9125 65.5249C37.447 66.3191 36.0477 66.5214 34.8214 65.0464V65.0489Z" fill="#B4912C"/>
</svg>
