<svg width="42" height="43" viewBox="0 0 42 43" fill="none" xmlns="http://www.w3.org/2000/svg">
<path d="M38.8996 0.5H3.10042C2.27814 0.5 1.48953 0.826651 0.908092 1.40809C0.326651 1.98953 0 2.77814 0 3.60042V39.3996C0 40.2219 0.326651 41.0105 0.908092 41.5919C1.48953 42.1734 2.27814 42.5 3.10042 42.5H38.8996C39.7219 42.5 40.5105 42.1734 41.0919 41.5919C41.6734 41.0105 42 40.2219 42 39.3996V3.60042C42 2.77814 41.6734 1.98953 41.0919 1.40809C40.5105 0.826651 39.7219 0.5 38.8996 0.5ZM12.5183 36.2787H6.20375V16.2208H12.5183V36.2787ZM9.35667 13.4413C8.64039 13.4372 7.94135 13.2211 7.34778 12.8202C6.75422 12.4192 6.29272 11.8514 6.02154 11.1885C5.75035 10.5255 5.68163 9.79704 5.82405 9.09505C5.96648 8.39306 6.31365 7.74898 6.82177 7.24412C7.32989 6.73925 7.97618 6.39622 8.67907 6.25831C9.38196 6.12039 10.1099 6.19379 10.7712 6.46922C11.4324 6.74466 11.9972 7.20979 12.3943 7.80592C12.7914 8.40205 13.0031 9.10246 13.0025 9.81875C13.0093 10.2983 12.9194 10.7743 12.7383 11.2184C12.5571 11.6625 12.2885 12.0656 11.9482 12.4036C11.608 12.7417 11.2032 13.0077 10.758 13.186C10.3127 13.3643 9.83617 13.4511 9.35667 13.4413ZM35.7933 36.2962H29.4817V25.3383C29.4817 22.1067 28.1079 21.1092 26.3346 21.1092C24.4621 21.1092 22.6246 22.5208 22.6246 25.42V36.2962H16.31V16.2354H22.3825V19.015H22.4642C23.0738 17.7813 25.2088 15.6725 28.4667 15.6725C31.99 15.6725 35.7962 17.7638 35.7962 23.8888L35.7933 36.2962Z" fill="#E3F5FF"/>
</svg>
